<?xml version="1.0" encoding="utf-8"?>
<!-- Generator: Adobe Illustrator 24.2.3, SVG Export Plug-In . SVG Version: 6.00 Build 0)  -->
<svg version="1.1" id="Layer_1" xmlns="http://www.w3.org/2000/svg" xmlns:xlink="http://www.w3.org/1999/xlink" x="0px" y="0px"
	 viewBox="0 0 664 280" style="enable-background:new 0 0 664 280;" xml:space="preserve">
<style type="text/css">
	.st0{fill:#2B1111;}
	.st1{fill:#2C1B04;}
	.st2{fill:#2A192D;}
	.st3{fill:#1C2135;}
	.st4{fill:#6D1413;}
	.st5{fill:#ED4C41;}
	.st6{fill:#FED6D2;}
	.st7{fill:#532A01;}
	.st8{fill:#FFBC00;}
	.st9{fill:#FDEECD;}
	.st10{fill:#232968;}
	.st11{fill:#6775F5;}
	.st12{fill:#8DA1FC;}
	.st13{fill:#4F57B7;}
	.st14{fill:#451451;}
	.st15{fill:#903795;}
	.st16{fill:#F282F5;}
	.st17{fill:#C44EB9;}
	.st18{fill:#FF00FF;}
	.st19{fill:#FFFFFF;}
	.st20{fill:#CF59B9;}
	.st21{fill:none;stroke:#FF00FF;stroke-miterlimit:10;}
	.st22{fill:#333333;}
	.st23{fill:#808080;}
	.st24{fill:#F2F2F2;}
	.st25{fill:#CCCCCC;}
	.st26{fill:#DD9900;}
	.st27{fill:#F2F3F7;}
	.st28{fill:#94A3ED;}
	.st29{fill:#F9E3FC;}
	.st30{fill:#3C0A14;}
	.st31{fill:#BA7507;}
	.st32{fill:none;stroke:#0000FF;stroke-miterlimit:10;}
	.st33{fill:none;stroke:#999999;stroke-miterlimit:10;}
	.st34{fill:#EBEDF7;}
	.st35{fill:#E6E6E6;}
	.st36{fill:#4D4D4D;}
	.st37{fill:none;stroke:#000000;stroke-miterlimit:10;}
	.st38{fill:#FFFFFF;stroke:#000000;stroke-miterlimit:10;}
	.st39{fill:#DCF1FF;}
	.st40{fill:#C8E3F9;}
	.st41{fill:#A0D3F8;}
	.st42{fill:#3996E3;}
	.st43{fill:#1E79C3;}
	.st44{fill:#0B3960;}
	.st45{fill:#002138;}
	.st46{fill:#F4F5F7;}
	.st47{fill:#E5E7EB;}
	.st48{fill:#9FA6B2;}
	.st49{fill:#6B7280;}
	.st50{fill:#374151;}
	.st51{fill:#252F3F;}
	.st52{fill:#171E2E;}
	.st53{fill:#FCDCCC;}
	.st54{fill:#FEC5A4;}
	.st55{fill:#FF9C5D;}
	.st56{fill:#F57D34;}
	.st57{fill:#CE5511;}
	.st58{fill:#601800;}
	.st59{fill:#2D130E;}
	.st60{fill:#1A1A1A;}
	.st61{fill:#F4C4F7;}
	.st62{fill:#FEB8B1;}
	.st63{fill:#FF7E6E;}
	.st64{fill:#C63434;}
	.st65{fill:#FFE99A;}
	.st66{fill:#FFD844;}
	.st67{fill:#C3CEF4;}
</style>
<g>
	<circle class="st4" cx="140" cy="140" r="80"/>
	<rect x="84" y="84" class="st5" width="112" height="112"/>
	<polygon class="st6" points="140.09,177.34 173.2,120 106.99,120 	"/>
</g>
<g>
	<path class="st19" d="M264.77,128.39c2.24-4.13,5.34-7.33,9.31-9.6c3.97-2.27,8.51-3.41,13.63-3.41c6.59,0,12.05,1.65,16.37,4.94
		c4.32,3.3,7.21,7.92,8.69,13.87h-14.5c-0.77-2.3-2.06-4.11-3.89-5.42c-1.82-1.31-4.08-1.97-6.77-1.97c-3.84,0-6.88,1.39-9.12,4.18
		c-2.24,2.78-3.36,6.74-3.36,11.86c0,5.06,1.12,8.98,3.36,11.76c2.24,2.78,5.28,4.18,9.12,4.18c5.44,0,8.99-2.43,10.66-7.3h14.5
		c-1.47,5.76-4.38,10.34-8.74,13.73c-4.35,3.39-9.79,5.09-16.32,5.09c-5.12,0-9.66-1.13-13.63-3.41c-3.97-2.27-7.07-5.47-9.31-9.6
		c-2.24-4.13-3.36-8.94-3.36-14.45C261.41,137.33,262.53,132.52,264.77,128.39z"/>
	<path class="st19" d="M322.41,128.34c2.14-4.16,5.06-7.36,8.74-9.6c3.68-2.24,7.79-3.36,12.34-3.36c3.97,0,7.44,0.8,10.42,2.4
		c2.98,1.6,5.36,3.62,7.15,6.05v-7.58h13.54v53.18h-13.54v-7.78c-1.73,2.5-4.11,4.56-7.15,6.19c-3.04,1.63-6.54,2.45-10.51,2.45
		c-4.48,0-8.56-1.15-12.24-3.46c-3.68-2.3-6.59-5.55-8.74-9.74c-2.14-4.19-3.22-9.01-3.22-14.45
		C319.2,137.27,320.27,132.5,322.41,128.34z M359.13,134.44c-1.28-2.34-3.01-4.13-5.18-5.38c-2.18-1.25-4.51-1.87-7.01-1.87
		s-4.8,0.61-6.91,1.82c-2.11,1.22-3.83,2.99-5.14,5.33c-1.31,2.34-1.97,5.1-1.97,8.3c0,3.2,0.66,6,1.97,8.4
		c1.31,2.4,3.04,4.24,5.18,5.52c2.14,1.28,4.43,1.92,6.86,1.92c2.5,0,4.83-0.62,7.01-1.87c2.17-1.25,3.9-3.04,5.18-5.38
		c1.28-2.33,1.92-5.14,1.92-8.4C361.05,139.57,360.41,136.77,359.13,134.44z"/>
	<path class="st19" d="M387.5,128.34c2.14-4.16,5.06-7.36,8.74-9.6c3.68-2.24,7.79-3.36,12.34-3.36c3.97,0,7.44,0.8,10.42,2.4
		c2.98,1.6,5.36,3.62,7.15,6.05v-7.58h13.54v53.18h-13.54v-7.78c-1.73,2.5-4.11,4.56-7.15,6.19c-3.04,1.63-6.54,2.45-10.51,2.45
		c-4.48,0-8.56-1.15-12.24-3.46c-3.68-2.3-6.59-5.55-8.74-9.74c-2.14-4.19-3.22-9.01-3.22-14.45
		C384.29,137.27,385.36,132.5,387.5,128.34z M424.22,134.44c-1.28-2.34-3.01-4.13-5.18-5.38c-2.18-1.25-4.51-1.87-7.01-1.87
		s-4.8,0.61-6.91,1.82c-2.11,1.22-3.83,2.99-5.14,5.33c-1.31,2.34-1.97,5.1-1.97,8.3c0,3.2,0.66,6,1.97,8.4
		c1.31,2.4,3.04,4.24,5.18,5.52c2.14,1.28,4.43,1.92,6.86,1.92c2.5,0,4.83-0.62,7.01-1.87c2.17-1.25,3.9-3.04,5.18-5.38
		c1.28-2.33,1.92-5.14,1.92-8.4C426.14,139.57,425.5,136.77,424.22,134.44z"/>
	<path class="st19" d="M473.04,117.88c2.78-1.6,5.97-2.4,9.55-2.4v14.11h-3.55c-4.22,0-7.41,0.99-9.55,2.98
		c-2.15,1.98-3.22,5.44-3.22,10.37v26.5h-13.44v-53.18h13.44v8.26C468,121.68,470.25,119.48,473.04,117.88z"/>
	<path class="st19" d="M542.49,116.24l-32.93,78.34h-14.3l11.52-26.5l-21.31-51.84h15.07l13.73,37.15l13.92-37.15H542.49z"/>
	<path class="st19" d="M549.45,128.34c2.14-4.16,5.06-7.36,8.74-9.6c3.68-2.24,7.79-3.36,12.34-3.36c3.97,0,7.44,0.8,10.42,2.4
		c2.98,1.6,5.36,3.62,7.15,6.05v-7.58h13.54v53.18h-13.54v-7.78c-1.73,2.5-4.11,4.56-7.15,6.19c-3.04,1.63-6.54,2.45-10.51,2.45
		c-4.48,0-8.56-1.15-12.24-3.46c-3.68-2.3-6.59-5.55-8.74-9.74c-2.14-4.19-3.22-9.01-3.22-14.45
		C546.23,137.27,547.31,132.5,549.45,128.34z M586.17,134.44c-1.28-2.34-3.01-4.13-5.18-5.38c-2.18-1.25-4.51-1.87-7.01-1.87
		s-4.8,0.61-6.91,1.82c-2.11,1.22-3.83,2.99-5.14,5.33c-1.31,2.34-1.97,5.1-1.97,8.3c0,3.2,0.66,6,1.97,8.4
		c1.31,2.4,3.04,4.24,5.18,5.52c2.14,1.28,4.43,1.92,6.86,1.92c2.5,0,4.83-0.62,7.01-1.87c2.17-1.25,3.9-3.04,5.18-5.38
		c1.28-2.33,1.92-5.14,1.92-8.4C588.09,139.57,587.45,136.77,586.17,134.44z"/>
</g>
</svg>
