<svg width="679" height="184" viewBox="0 0 679 184" fill="none" xmlns="http://www.w3.org/2000/svg">
<path d="M17.2 36.0001C26.6993 36.0001 34.4 28.2994 34.4 18.8001C34.4 9.3008 26.6993 1.6001 17.2 1.6001C7.7007 1.6001 0 9.3008 0 18.8001C0 28.2994 7.7007 36.0001 17.2 36.0001Z" fill="#33DD9F"/>
<path d="M171.8 35.8C157.2 35.8 144.9 40.8001 134.7 50.9001C124.6 60.9001 119.5 73.3001 119.5 88.0001C119.5 102.7 124.6 115.1 134.7 125.2C144.8 135.3 157.2 140.3 171.8 140.3C186.4 140.3 198.7 135.3 208.9 125.2C219.1 115.1 224.2 102.8 224.2 88.0001C224.2 73.2001 219.1 60.9 208.9 50.8C198.7 40.8 186.3 35.8 171.8 35.8ZM196.8 113.2C190 120 181.7 123.3 171.8 123.3C162 123.3 153.7 119.9 147 113.2C140.2 106.4 136.9 98.0001 136.9 88.0001C136.9 77.9001 140.3 69.5 147 62.8C153.8 56 162 52.7001 171.8 52.7001C181.7 52.7001 190.1 56.1 196.8 62.8C203.6 69.6 206.9 78.0001 206.9 88.0001C206.9 98.1001 203.6 106.5 196.8 113.2Z" fill="#33DD9F"/>
<path d="M55.4 35.8C40.8 35.8 28.5 40.8001 18.3 50.9001C8.19997 60.9001 3.09998 73.3001 3.09998 88.0001C3.09998 102.7 8.19997 115.1 18.3 125.2C28.4 135.3 40.8 140.3 55.4 140.3C70 140.3 82.3 135.3 92.5 125.2C92.7 125 92.9 124.8 93.1 124.6L82.5 183.4H107.8V88.0001C107.8 73.3001 102.7 60.9 92.5 50.8C82.3 40.8 70 35.8 55.4 35.8ZM80.4 113.2C73.6 120 65.3 123.3 55.4 123.3C45.6 123.3 37.3 119.9 30.6 113.2C23.8 106.4 20.5 98.0001 20.5 88.0001C20.5 77.9001 23.9 69.5 30.6 62.8C37.4 56 45.6 52.7001 55.4 52.7001C65.3 52.7001 73.7 56.1 80.4 62.8C87.2 69.6 90.5 78.0001 90.5 88.0001C90.6 98.1001 87.2 106.5 80.4 113.2Z" fill="#33DD9F"/>
<path d="M288.2 35.8C273.6 35.8 261.3 40.8001 251.1 50.9001C241 61.0001 235.9 73.3001 235.9 88.1001C235.9 102.9 241 115.2 251.1 125.3C261.2 135.4 273.6 140.4 288.2 140.4C302.8 140.4 315.1 135.4 325.3 125.3C335.5 115.2 340.6 102.9 340.6 88.1001C340.6 73.3001 335.5 61.0001 325.3 50.9001C315.1 40.8001 302.7 35.8 288.2 35.8ZM313.2 113.2C306.4 120 298.1 123.3 288.2 123.3C278.4 123.3 270.1 119.9 263.4 113.2C256.6 106.4 253.3 98.0001 253.3 88.0001C253.3 77.9001 256.7 69.5 263.4 62.8C270.2 56 278.4 52.7001 288.2 52.7001C298.1 52.7001 306.5 56.1 313.2 62.8C320 69.6 323.3 78.0001 323.3 88.0001C323.3 98.1001 319.9 106.5 313.2 113.2Z" fill="#33DD9F"/>
<path d="M405.7 35.8C391.3 35.8 380.5 41.4 373.5 52.7V0H356.2V137.7H373.5V85C373.5 73.9 376.1 65.6 381.4 60.3C386.7 54.9 393.6 52.3 402.3 52.3C410 52.3 416 54.5 420.4 59C424.8 63.4 427 69.7 427 77.8V137.8H444.3V76.7C444.3 64.1 440.8 54.2 433.8 46.8C426.7 39.4 417.4 35.8 405.7 35.8Z" fill="#33DD9F"/>
<path d="M510.2 35.8C495.6 35.8 483.3 40.8001 473.1 50.9001C463 61.0001 457.9 73.3001 457.9 88.1001C457.9 102.9 463 115.2 473.1 125.3C483.2 135.4 495.6 140.4 510.2 140.4C524.8 140.4 537.1 135.4 547.3 125.3C557.5 115.2 562.6 102.9 562.6 88.1001C562.6 73.3001 557.5 61.0001 547.3 50.9001C537.1 40.8001 524.8 35.8 510.2 35.8ZM535.2 113.2C528.4 120 520.1 123.3 510.2 123.3C500.4 123.3 492.1 119.9 485.4 113.2C478.6 106.4 475.3 98.0001 475.3 88.0001C475.3 77.9001 478.7 69.5 485.4 62.8C492.2 56 500.4 52.7001 510.2 52.7001C520.1 52.7001 528.5 56.1 535.2 62.8C542 69.6 545.3 78.0001 545.3 88.0001C545.4 98.1001 542 106.5 535.2 113.2Z" fill="#33DD9F"/>
<path d="M663.7 50.9001C653.5 40.8001 641.1 35.8 626.6 35.8C612 35.8 599.7 40.8001 589.5 50.9001C579.4 61.0001 574.3 73.3001 574.3 88.1001C574.3 102.9 579.4 115.2 589.5 125.3C599.6 135.4 612 140.4 626.6 140.4C641.2 140.4 653.5 135.4 663.7 125.3C673.9 115.2 679 102.9 679 88.1001C679 73.3001 673.9 60.9001 663.7 50.9001ZM651.6 113.2C644.8 120 636.5 123.3 626.6 123.3C616.8 123.3 608.5 119.9 601.8 113.2C595 106.4 591.7 98.0001 591.7 88.0001C591.7 77.9001 595.1 69.5 601.8 62.8C608.6 56 616.8 52.7001 626.6 52.7001C636.5 52.7001 644.9 56.1 651.6 62.8C658.4 69.6 661.7 78.0001 661.7 88.0001C661.7 98.1001 658.4 106.5 651.6 113.2Z" fill="#33DD9F"/>
</svg>
