<svg width="240" height="204" viewBox="0 0 240 204" fill="none" xmlns="http://www.w3.org/2000/svg">
<path d="M19.8547 197.141C31.9576 204.91 47.0775 204.515 61.6149 202.695C63.6449 202.441 65.659 202.163 67.6538 201.872C67.6657 201.869 67.6817 201.869 67.6938 201.865C67.7897 201.851 67.8857 201.836 67.9776 201.826C68.3892 201.765 68.8011 201.704 69.2088 201.642L69.122 201.833L68.8491 202.423C68.9479 202.225 69.0469 202.031 69.1457 201.833C69.1748 201.774 69.2077 201.714 69.2365 201.655C72.6616 194.868 76.0427 187.84 76.5935 180.271C77.161 172.416 73.9058 163.731 66.8365 160.267C65.9094 159.814 64.9348 159.466 63.9306 159.229C63.5135 159.127 63.0921 159.048 62.6665 158.981C58.2151 158.322 53.4477 159.664 50.1353 162.738C45.7538 166.812 44.2218 173.666 46.4476 179.222C40.3074 173.566 40.87 163.823 42.4401 155.62C44.0141 147.418 45.9623 138.28 41.4801 131.231C38.9882 127.308 34.8547 125.013 30.3134 124.244C30.1741 124.222 30.0351 124.2 29.8958 124.181C24.6248 123.401 18.858 124.647 14.4804 127.751C6.19326 133.625 2.34051 144.12 1.45269 154.245C0.0211736 170.538 6.09423 188.308 19.8547 197.141Z" fill="#F2F2F2"/>
<path d="M22.2156 171.019C22.7462 174.567 23.7912 178.019 25.3174 181.265C26.7173 184.135 28.5383 186.78 30.7198 189.111C35.1788 193.925 40.9198 197.415 47.0688 199.615C51.768 201.251 56.6549 202.286 61.6134 202.695C63.6434 202.441 65.6576 202.163 67.6523 201.872C67.6642 201.868 67.6802 201.869 67.6923 201.865C67.7882 201.851 67.8842 201.836 67.9761 201.826C68.3877 201.765 68.7996 201.704 69.2074 201.642L69.1205 201.832L68.8476 202.423C68.9464 202.225 69.0454 202.031 69.1443 201.833C69.1733 201.774 69.2062 201.714 69.235 201.655C65.3464 198.175 62.3479 193.814 60.4907 188.936C58.6335 184.058 57.9718 178.805 58.561 173.618C59.1924 168.466 61.0317 163.535 63.9291 159.229C63.512 159.127 63.0906 159.048 62.6651 158.981C61.5666 160.668 60.6193 162.448 59.8343 164.302C57.0153 170.913 56.3985 178.257 58.0751 185.247C59.6244 191.57 62.9444 197.319 67.6452 201.82C67.2545 201.814 66.8598 201.803 66.4733 201.789C59.1555 201.565 51.8014 200.391 45.0211 197.538C39.2943 195.134 34.0354 191.432 30.1112 186.587C25.8117 181.281 23.6899 174.734 23.0227 167.999C22.3114 160.789 22.8517 153.383 24.1207 146.265C25.415 138.968 27.5966 131.858 30.6171 125.091C30.6846 124.938 30.6905 124.764 30.6336 124.607C30.5768 124.449 30.4616 124.319 30.3119 124.244C30.1864 124.169 30.0363 124.146 29.8943 124.181C29.8251 124.204 29.7618 124.241 29.7092 124.292C29.6566 124.342 29.616 124.404 29.5904 124.472C29.2179 125.308 28.8531 126.144 28.5043 126.988C25.5999 134.02 23.5797 141.386 22.4901 148.916C21.43 156.181 21.0628 163.741 22.2156 171.019Z" fill="white"/>
<path d="M166.279 48.4672H165.159V17.7684C165.159 13.0559 163.289 8.53645 159.959 5.20424C156.629 1.87202 152.112 1.55543e-06 147.403 0H82.4048C77.6955 0 73.1791 1.87202 69.8492 5.20423C66.5192 8.53645 64.6484 13.0559 64.6484 17.7684V186.188C64.6484 190.9 66.5192 195.42 69.8492 198.752C73.1791 202.084 77.6955 203.956 82.4048 203.956H147.403C152.112 203.956 156.628 202.084 159.958 198.752C163.288 195.419 165.159 190.9 165.159 186.188V70.3193H166.279L166.279 48.4672Z" fill="#3F3D56"/>
<path d="M148.118 4.62109H139.635C140.025 5.57837 140.174 6.61698 140.068 7.64543C139.963 8.67387 139.606 9.66058 139.03 10.5186C138.454 11.3767 137.675 12.0797 136.763 12.5658C135.852 13.0519 134.834 13.3061 133.801 13.3061H96.5645C95.5314 13.306 94.5141 13.0517 93.6024 12.5656C92.6906 12.0795 91.9123 11.3764 91.3361 10.5184C90.7598 9.66036 90.4032 8.67369 90.2978 7.64529C90.1924 6.61689 90.3413 5.57833 90.7315 4.62109H82.8072C81.0658 4.62109 79.3415 4.96431 77.7327 5.63116C76.1239 6.298 74.6621 7.2754 73.4307 8.50757C72.1994 9.73973 71.2227 11.2025 70.5563 12.8124C69.8899 14.4223 69.5469 16.1478 69.5469 17.8903V186.065C69.5469 189.584 70.944 192.959 73.4307 195.448C75.9175 197.936 79.2903 199.334 82.8072 199.334H148.118C151.635 199.334 155.008 197.936 157.495 195.448C159.982 192.959 161.379 189.584 161.379 186.065V17.8901C161.379 14.3709 159.981 10.9959 157.495 8.50747C155.008 6.01906 151.635 4.6211 148.118 4.6211V4.62109Z" fill="white"/>
<path d="M233.214 200.432C228.503 203.827 222.399 203.998 216.499 203.58C215.675 203.522 214.857 203.454 214.047 203.38C214.042 203.379 214.036 203.38 214.031 203.378C213.992 203.375 213.953 203.371 213.915 203.369C213.748 203.353 213.581 203.337 213.415 203.322L213.454 203.396L213.577 203.628C213.533 203.551 213.489 203.475 213.445 203.397C213.432 203.374 213.417 203.351 213.404 203.327C211.876 200.666 210.36 197.906 209.973 194.867C209.573 191.712 210.697 188.14 213.471 186.59C213.835 186.387 214.22 186.225 214.62 186.108C214.786 186.058 214.954 186.017 215.124 185.981C216.165 185.749 217.248 185.8 218.263 186.126C219.278 186.453 220.187 187.044 220.898 187.839C221.608 188.634 222.095 189.604 222.306 190.649C222.518 191.695 222.448 192.778 222.103 193.787C224.455 191.373 224.017 187.458 223.205 184.185C222.392 180.913 221.408 177.271 223.062 174.332C223.981 172.696 225.597 171.681 227.411 171.272C227.467 171.26 227.522 171.248 227.578 171.237C229.74 170.799 231.987 171.193 233.87 172.341C237.339 174.528 239.121 178.675 239.699 182.738C240.631 189.275 238.569 196.571 233.214 200.432Z" fill="#F2F2F2"/>
<path d="M231.691 189.952C231.554 191.394 231.208 192.809 230.664 194.151C230.162 195.338 229.485 196.444 228.656 197.431C226.934 199.449 224.752 201.024 222.294 202.022C220.435 202.784 218.488 203.308 216.498 203.581C215.674 203.522 214.856 203.454 214.045 203.381C214.04 203.379 214.034 203.38 214.029 203.378C213.99 203.375 213.951 203.371 213.914 203.369C213.746 203.353 213.579 203.338 213.413 203.322L213.452 203.397L213.575 203.628C213.531 203.551 213.487 203.475 213.443 203.397C213.43 203.374 213.415 203.351 213.402 203.327C214.894 201.84 216.008 200.016 216.651 198.009C217.293 196.002 217.446 193.87 217.095 191.792C216.729 189.729 215.88 187.781 214.618 186.108C214.784 186.058 214.952 186.017 215.122 185.981C215.602 186.637 216.023 187.334 216.379 188.064C217.66 190.668 218.068 193.615 217.544 196.469C217.057 199.052 215.844 201.443 214.047 203.359C214.204 203.348 214.363 203.336 214.519 203.321C217.464 203.072 220.403 202.438 223.074 201.14C225.358 200.058 227.34 198.43 228.847 196.401C230.465 194.168 231.178 191.482 231.3 188.753C231.394 185.812 231.086 182.872 230.385 180.015C229.704 177.101 228.67 174.282 227.305 171.62C227.274 171.56 227.268 171.49 227.288 171.425C227.307 171.36 227.351 171.305 227.41 171.272C227.459 171.239 227.519 171.227 227.577 171.238C227.605 171.245 227.631 171.259 227.654 171.278C227.676 171.297 227.694 171.321 227.705 171.348C227.874 171.677 228.039 172.006 228.198 172.339C229.522 175.11 230.497 178.036 231.1 181.048C231.685 183.954 231.998 186.993 231.691 189.952Z" fill="white"/>
<path d="M239.707 203.979H0.29304C0.215321 203.979 0.140785 203.948 0.0858293 203.893C0.0308736 203.838 0 203.763 0 203.685C0 203.608 0.0308736 203.533 0.0858293 203.478C0.140785 203.423 0.215321 203.392 0.29304 203.392H239.707C239.785 203.392 239.859 203.423 239.914 203.478C239.969 203.533 240 203.608 240 203.685C240 203.763 239.969 203.838 239.914 203.893C239.859 203.948 239.785 203.979 239.707 203.979Z" fill="#3F3D56"/>
<path d="M187.433 200.662L183.84 200.662L182.131 186.795L187.433 186.795L187.433 200.662Z" fill="#FFB8B8"/>
<path d="M181.273 199.634H188.201V204H176.91C176.91 203.426 177.023 202.859 177.242 202.329C177.461 201.799 177.783 201.318 178.188 200.913C178.593 200.508 179.074 200.186 179.603 199.967C180.132 199.747 180.7 199.634 181.273 199.634Z" fill="#2F2E41"/>
<path d="M200.911 200.662L197.319 200.662L195.609 186.795L200.912 186.795L200.911 200.662Z" fill="#FFB8B8"/>
<path d="M194.753 199.634H201.682V204H190.391C190.391 203.426 190.503 202.859 190.723 202.329C190.942 201.799 191.263 201.318 191.668 200.913C192.073 200.508 192.554 200.186 193.084 199.967C193.613 199.747 194.18 199.634 194.753 199.634Z" fill="#2F2E41"/>
<path d="M200.474 159.363C200.087 159.114 199.759 158.782 199.514 158.393C199.268 158.003 199.111 157.565 199.054 157.108C198.996 156.651 199.039 156.187 199.18 155.748C199.321 155.31 199.556 154.908 199.869 154.57L197.504 120.978L204.318 121.639L204.505 154.536C205.037 155.1 205.344 155.84 205.367 156.615C205.39 157.39 205.129 158.146 204.632 158.741C204.135 159.336 203.437 159.728 202.671 159.843C201.904 159.957 201.123 159.786 200.474 159.363H200.474Z" fill="#FFB8B8"/>
<path d="M187.262 193.676L183.307 193.487C182.97 193.471 182.652 193.327 182.419 193.083C182.185 192.84 182.054 192.516 182.051 192.179L181.775 152.135C181.774 151.945 181.814 151.757 181.892 151.584C181.97 151.41 182.085 151.256 182.228 151.131C182.371 151.006 182.539 150.914 182.722 150.86C182.904 150.806 183.096 150.793 183.284 150.82L199.106 153.118C199.418 153.162 199.705 153.317 199.912 153.555C200.12 153.793 200.234 154.098 200.235 154.414L202.27 191.519C202.271 191.693 202.238 191.866 202.173 192.027C202.107 192.188 202.01 192.335 201.887 192.458C201.765 192.582 201.619 192.68 201.458 192.747C201.298 192.814 201.125 192.848 200.951 192.848H196.688C196.373 192.85 196.069 192.738 195.829 192.533C195.59 192.329 195.433 192.045 195.385 191.734L192.754 175C192.716 174.755 192.59 174.532 192.401 174.373C192.211 174.213 191.97 174.128 191.722 174.133C191.475 174.137 191.237 174.231 191.053 174.398C190.87 174.564 190.752 174.791 190.723 175.037L188.634 192.515C188.595 192.835 188.44 193.13 188.199 193.344C187.958 193.558 187.647 193.677 187.325 193.678C187.304 193.678 187.283 193.677 187.262 193.676Z" fill="#2F2E41"/>
<path d="M190.047 154.416C186.56 152.477 183.836 151.968 182.522 151.836C182.347 151.82 182.178 151.767 182.024 151.683C181.87 151.599 181.735 151.484 181.627 151.346C181.516 151.207 181.435 151.047 181.388 150.875C181.341 150.704 181.33 150.525 181.354 150.349L185.145 122.183C185.364 120.535 186 118.971 186.993 117.638C187.986 116.306 189.303 115.25 190.82 114.571C192.287 113.896 193.903 113.608 195.514 113.734C197.124 113.861 198.675 114.397 200.02 115.293C200.15 115.379 200.277 115.468 200.402 115.558C201.951 116.693 203.129 118.262 203.788 120.066C204.447 121.87 204.557 123.829 204.105 125.696C201.78 135.213 200.982 150.815 200.845 153.846C200.835 154.105 200.748 154.354 200.596 154.563C200.443 154.772 200.233 154.931 199.99 155.021C198.56 155.541 197.05 155.81 195.528 155.816C193.612 155.827 191.724 155.345 190.047 154.416Z" fill="#4452FE"/>
<path d="M199.046 132.265C198.886 132.15 198.754 132.001 198.66 131.828C198.566 131.656 198.511 131.464 198.501 131.268L198.002 122.214C197.952 121.317 198.236 120.433 198.799 119.733C199.363 119.034 200.165 118.567 201.051 118.424C201.937 118.281 202.845 118.472 203.599 118.959C204.354 119.446 204.901 120.195 205.136 121.062L207.329 129.157C207.42 129.495 207.374 129.855 207.2 130.158C207.026 130.462 206.739 130.684 206.402 130.776L200.163 132.469C199.973 132.521 199.774 132.529 199.581 132.494C199.388 132.459 199.205 132.38 199.046 132.265Z" fill="#4452FE"/>
<path d="M193.219 110.747C197.194 110.747 200.416 107.522 200.416 103.545C200.416 99.5671 197.194 96.3425 193.219 96.3425C189.244 96.3425 186.021 99.5671 186.021 103.545C186.021 107.522 189.244 110.747 193.219 110.747Z" fill="#FFB8B8"/>
<path d="M179.679 131.893C178.863 131.895 178.07 131.622 177.429 131.117L165.183 121.45C165.084 121.485 164.982 121.515 164.88 121.54C164.438 121.643 163.98 121.652 163.535 121.567C163.09 121.481 162.667 121.303 162.296 121.044C161.921 120.784 161.607 120.447 161.373 120.056C161.139 119.665 160.992 119.229 160.94 118.776C160.844 117.958 161.064 117.134 161.556 116.473C162.048 115.812 162.773 115.365 163.584 115.222C164.395 115.08 165.229 115.253 165.917 115.706C166.604 116.16 167.092 116.859 167.28 117.661C167.312 117.802 167.335 117.944 167.347 118.087L179.796 125.274L182.894 123.489L186.326 127.985L181.785 131.223C181.17 131.66 180.434 131.895 179.679 131.893Z" fill="#FFB8B8"/>
<path d="M180.244 124.825C180.223 124.629 180.246 124.432 180.312 124.246C180.377 124.061 180.484 123.892 180.623 123.754L187.03 117.341C187.664 116.706 188.512 116.328 189.408 116.281C190.305 116.234 191.187 116.52 191.885 117.086C192.583 117.651 193.047 118.455 193.187 119.342C193.328 120.229 193.135 121.137 192.647 121.891L188.084 128.926C187.893 129.22 187.594 129.425 187.252 129.498C186.91 129.571 186.553 129.505 186.26 129.315L180.837 125.793C180.672 125.687 180.533 125.544 180.431 125.377C180.328 125.209 180.264 125.02 180.244 124.825Z" fill="#4452FE"/>
<path d="M195.24 110.281C195.342 110.399 195.466 110.495 195.606 110.564C195.746 110.632 195.898 110.672 196.053 110.681C196.209 110.69 196.364 110.668 196.511 110.616C196.658 110.563 196.792 110.482 196.907 110.377C198.512 109.077 199.785 107.413 200.621 105.524C201.556 103.292 201.694 100.569 200.629 98.4766C199.728 96.7082 198.112 95.5825 196.499 94.6624C195.881 94.2725 195.203 93.9858 194.492 93.8137C194.134 93.7322 193.762 93.7268 193.401 93.7978C193.04 93.8689 192.697 94.0148 192.396 94.2262C192.076 94.4695 191.829 94.7953 191.68 95.1687C191.532 95.5421 191.488 95.9489 191.553 96.3455C190.815 95.3727 189.82 94.6256 188.68 94.1883C187.981 93.8872 187.2 93.8348 186.467 94.0399C185.431 94.386 184.664 95.4329 184.237 96.5577C183.892 97.4188 183.766 98.3522 183.869 99.2742C183.914 99.7144 184.049 100.141 184.264 100.528C184.479 100.914 184.77 101.253 185.12 101.524C185.965 102.107 187.054 102.048 188.037 101.79C189.02 101.531 189.973 101.094 190.973 100.972C191.973 100.849 193.082 101.114 193.677 102.007C194.097 102.635 194.196 103.463 194.282 104.252L194.727 108.357C194.758 108.945 194.885 109.523 195.101 110.07C195.138 110.146 195.184 110.217 195.24 110.281Z" fill="#2F2E41"/>
<path d="M81.2637 138.608H91.1928V140.553H83.2786V146.433H90.4261V148.353H83.2786V155.793H81.2637L81.2637 138.608Z" fill="#3F3D56"/>
<path d="M93.5918 138.608H95.6293V155.791H93.5918V138.608Z" fill="#3F3D56"/>
<path d="M99.7179 154.878C98.9418 154.015 98.5541 152.807 98.5547 151.254V143.552H100.592V150.944C100.592 152.112 100.856 152.968 101.383 153.512C101.663 153.789 101.997 154.004 102.365 154.145C102.732 154.285 103.125 154.348 103.517 154.328C104.171 154.339 104.812 154.146 105.351 153.777C105.884 153.412 106.313 152.916 106.597 152.337C106.891 151.756 107.043 151.115 107.041 150.464V143.552H109.08V155.791H107.137V154.015H107.041C106.659 154.667 106.103 155.199 105.434 155.551C104.719 155.961 103.908 156.176 103.083 156.175C101.616 156.175 100.494 155.743 99.7179 154.878Z" fill="#3F3D56"/>
<path d="M115.547 155.931C115.15 155.785 114.787 155.561 114.48 155.271C114.165 154.97 113.919 154.603 113.76 154.196C113.588 153.719 113.507 153.213 113.521 152.705V145.4H111.387V143.552H113.521V140.096H115.558V143.552H118.532V145.4H115.558V152.22C115.517 152.755 115.651 153.289 115.941 153.741C116.106 153.925 116.311 154.07 116.539 154.163C116.768 154.257 117.015 154.297 117.261 154.281C117.739 154.277 118.205 154.136 118.604 153.873V155.865C118.371 155.975 118.126 156.055 117.873 156.105C117.56 156.158 117.243 156.182 116.925 156.177C116.455 156.18 115.987 156.096 115.547 155.931Z" fill="#3F3D56"/>
<path d="M124.203 155.931C123.807 155.785 123.444 155.561 123.136 155.271C122.821 154.97 122.576 154.603 122.417 154.196C122.245 153.719 122.163 153.213 122.177 152.705V145.4H120.043V143.552H122.177V140.096H124.214V143.552H127.189V145.4H124.214V152.22C124.173 152.755 124.308 153.289 124.598 153.741C124.762 153.925 124.967 154.07 125.195 154.163C125.424 154.257 125.671 154.297 125.918 154.281C126.395 154.277 126.861 154.136 127.26 153.873V155.865C127.028 155.975 126.782 156.055 126.53 156.105C126.216 156.158 125.899 156.182 125.582 156.177C125.111 156.179 124.644 156.096 124.203 155.931Z" fill="#3F3D56"/>
<path d="M131.437 155.334C130.513 154.778 129.762 153.977 129.267 153.019C128.737 151.992 128.469 150.85 128.487 149.695C128.475 148.565 128.725 147.448 129.218 146.432C129.682 145.466 130.399 144.645 131.293 144.056C132.22 143.455 133.306 143.146 134.411 143.168C135.505 143.141 136.584 143.419 137.529 143.971C138.403 144.502 139.106 145.272 139.555 146.192C140.042 147.201 140.284 148.311 140.263 149.432C140.266 149.642 140.242 149.852 140.191 150.056H130.527C130.545 150.885 130.777 151.695 131.199 152.409C131.566 153.018 132.092 153.516 132.721 153.848C133.315 154.164 133.978 154.329 134.651 154.328C136.218 154.328 137.425 153.593 138.273 152.121L139.999 152.962C139.502 153.921 138.761 154.733 137.852 155.315C136.877 155.877 135.772 156.175 134.647 156.179C133.521 156.182 132.415 155.891 131.437 155.334ZM138.103 148.374C138.064 147.838 137.917 147.315 137.67 146.838C137.393 146.303 136.974 145.855 136.46 145.542C135.833 145.17 135.113 144.987 134.385 145.014C133.484 144.992 132.61 145.324 131.95 145.938C131.267 146.591 130.81 147.444 130.644 148.374H138.103Z" fill="#3F3D56"/>
<path d="M142.635 143.552H144.578V145.519H144.674C144.936 144.818 145.427 144.226 146.066 143.839C146.703 143.406 147.454 143.172 148.224 143.166C148.717 143.154 149.207 143.244 149.663 143.431V145.615C149.126 145.354 148.535 145.223 147.937 145.232C147.355 145.229 146.785 145.405 146.306 145.736C145.802 146.082 145.394 146.549 145.118 147.095C144.822 147.663 144.67 148.295 144.674 148.935V155.791H142.637V143.552H142.635Z" fill="#3F3D56"/>
<path d="M121.82 99.0728L148.503 125.899L123.301 125.606L113.924 116.222L121.82 99.0728Z" fill="#01579B"/>
<path d="M132.635 109.946L113.924 116.222L125.372 102.584L132.635 109.946Z" fill="url(#paint0_linear)"/>
<path d="M148.323 43.9534L94.9806 97.3373L82.4238 84.775L123.221 43.9534H148.323Z" fill="#4452FE"/>
<path d="M101.176 103.759L123.154 81.7664H148.355L113.777 116.075L101.176 103.759Z" fill="#4452FE"/>
<path d="M113.805 91.0562L126.361 103.615L113.923 116.222L101.322 103.906L113.805 91.0562Z" fill="#4452FE"/>
<defs>
<linearGradient id="paint0_linear" x1="117.106" y1="118.171" x2="126.453" y2="108.83" gradientUnits="userSpaceOnUse">
<stop stop-color="#1A237E" stop-opacity="0.4"/>
<stop offset="1" stop-color="#1A237E" stop-opacity="0"/>
</linearGradient>
</defs>
</svg>
