<svg width="326" height="277" viewBox="0 0 326 277" fill="none" xmlns="http://www.w3.org/2000/svg">
<g id="undraw_flutter_dev_wvqj 1">
<path id="Vector" d="M26.9683 267.686C43.4082 278.235 63.9461 277.7 83.6926 275.228C86.45 274.883 89.186 274.505 91.8955 274.111C91.9117 274.106 91.9334 274.106 91.9499 274.101C92.08 274.081 92.2105 274.062 92.3353 274.048C92.8944 273.965 93.4539 273.882 94.0077 273.799L93.8898 274.057L93.5191 274.858C93.6533 274.589 93.7878 274.326 93.922 274.057C93.9614 273.977 94.0061 273.896 94.0453 273.816C98.6977 264.599 103.29 255.057 104.039 244.78C104.809 234.113 100.388 222.321 90.7853 217.617C89.5261 217.002 88.2022 216.53 86.8382 216.208C86.2716 216.069 85.6991 215.962 85.1211 215.871C79.0746 214.976 72.5989 216.798 68.0995 220.973C62.1481 226.505 60.067 235.812 63.0904 243.355C54.7499 235.676 55.5142 222.446 57.6469 211.308C59.7849 200.17 62.4312 187.762 56.3429 178.191C52.9581 172.864 47.3434 169.748 41.1747 168.704C40.9856 168.674 40.7967 168.644 40.6075 168.619C33.4478 167.558 25.6145 169.251 19.6683 173.466C8.41159 181.441 3.17827 195.692 1.97231 209.441C0.027833 231.564 8.27706 255.692 26.9683 267.686Z" fill="#F2F2F2"/>
<path id="Vector_2" d="M30.1779 232.216C30.8987 237.034 32.3181 241.721 34.3912 246.129C36.2928 250.027 38.7662 253.618 41.7294 256.783C47.7863 263.32 55.5844 268.059 63.9368 271.046C70.3199 273.267 76.958 274.672 83.6933 275.228C86.4506 274.883 89.1866 274.505 91.8961 274.111C91.9123 274.106 91.934 274.106 91.9505 274.101C92.0807 274.081 92.2111 274.062 92.3359 274.048C92.8951 273.965 93.4545 273.882 94.0084 273.799L93.8904 274.057L93.5197 274.858C93.654 274.589 93.7884 274.326 93.9227 274.057C93.9621 273.977 94.0068 273.896 94.0459 273.816C88.7639 269.091 84.6909 263.169 82.1683 256.545C79.6456 249.921 78.7467 242.789 79.5471 235.747C80.4047 228.75 82.9032 222.055 86.8388 216.208C86.2722 216.069 85.6998 215.962 85.1218 215.871C83.6297 218.162 82.343 220.579 81.2767 223.096C77.4475 232.073 76.6097 242.045 78.8871 251.536C80.9916 260.122 85.5012 267.929 91.8864 274.04C91.3557 274.032 90.8196 274.017 90.2946 273.998C80.3547 273.694 70.3653 272.099 61.1554 268.226C53.3765 264.961 46.2332 259.935 40.9028 253.356C35.0626 246.151 32.1806 237.261 31.2742 228.116C30.3081 218.326 31.0419 208.27 32.7657 198.605C34.5237 188.697 37.4872 179.042 41.59 169.854C41.6816 169.646 41.6896 169.41 41.6124 169.196C41.5353 168.982 41.3788 168.806 41.1754 168.704C41.0049 168.602 40.801 168.571 40.6081 168.619C40.5141 168.649 40.4282 168.7 40.3567 168.769C40.2852 168.837 40.2301 168.92 40.1954 169.013C39.6893 170.148 39.1938 171.283 38.7201 172.429C34.7749 181.978 32.0308 191.979 30.5508 202.205C29.1108 212.07 28.6121 222.335 30.1779 232.216Z" fill="white"/>
<path id="Path 22" d="M225.862 65.8109H224.341V24.1267C224.341 17.7279 221.8 11.5912 217.276 7.06654C212.753 2.54191 206.618 2.11203e-06 200.222 0H111.933C105.536 0 99.401 2.54191 94.8778 7.06653C90.3546 11.5912 87.8135 17.7279 87.8135 24.1267V252.814C87.8135 259.212 90.3546 265.349 94.8778 269.874C99.401 274.398 105.536 276.94 111.933 276.94H200.222C206.618 276.94 212.753 274.398 217.276 269.874C221.799 265.349 224.34 259.212 224.34 252.814V95.4825H225.861L225.862 65.8109Z" fill="#3F3D56"/>
<path id="Path 23" d="M201.195 6.27466H189.671C190.201 7.57449 190.404 8.98476 190.26 10.3812C190.117 11.7777 189.633 13.1175 188.85 14.2826C188.067 15.4477 187.01 16.4023 185.771 17.0623C184.533 17.7223 183.151 18.0675 181.747 18.0675H131.168C129.764 18.0674 128.383 17.7221 127.144 17.062C125.906 16.4019 124.848 15.4473 124.066 14.2823C123.283 13.1172 122.799 11.7775 122.655 10.381C122.512 8.98464 122.715 7.57443 123.245 6.27466H112.481C110.115 6.27466 107.773 6.7407 105.588 7.64616C103.403 8.55163 101.417 9.87879 99.7443 11.5519C98.0718 13.225 96.745 15.2112 95.8398 17.3972C94.9346 19.5832 94.4687 21.9261 94.4688 24.2922V252.647C94.4688 257.426 96.3664 262.008 99.7443 265.387C103.122 268.766 107.704 270.665 112.481 270.665H201.195C205.972 270.665 210.553 268.766 213.931 265.387C217.309 262.008 219.207 257.426 219.207 252.647V24.2919C219.207 19.5134 217.309 14.9306 213.931 11.5517C210.553 8.17288 205.972 6.27466 201.195 6.27466V6.27466Z" fill="white"/>
<path id="Vector_3" d="M316.781 272.155C310.383 276.765 302.091 276.997 294.077 276.43C292.958 276.351 291.847 276.259 290.746 276.159C290.739 276.157 290.73 276.158 290.724 276.156C290.671 276.151 290.618 276.146 290.567 276.143C290.34 276.122 290.112 276.1 289.887 276.079L289.941 276.18L290.107 276.495C290.047 276.39 289.988 276.287 289.928 276.181C289.91 276.15 289.89 276.118 289.873 276.087C287.796 272.472 285.737 268.726 285.212 264.599C284.669 260.315 286.195 255.465 289.964 253.36C290.458 253.084 290.981 252.865 291.524 252.706C291.75 252.637 291.978 252.582 292.209 252.533C293.623 252.219 295.094 252.287 296.472 252.73C297.851 253.174 299.086 253.977 300.051 255.056C301.017 256.136 301.677 257.453 301.965 258.872C302.253 260.292 302.157 261.762 301.689 263.132C304.884 259.855 304.288 254.538 303.186 250.094C302.081 245.651 300.745 240.707 302.991 236.715C304.239 234.494 306.435 233.116 308.899 232.56C308.975 232.544 309.05 232.528 309.126 232.514C312.062 231.919 315.114 232.454 317.673 234.012C322.384 236.982 324.804 242.613 325.59 248.129C326.855 257.006 324.055 266.912 316.781 272.155Z" fill="#F2F2F2"/>
<path id="Vector_4" d="M314.715 257.925C314.53 259.883 314.06 261.804 313.32 263.626C312.638 265.238 311.719 266.74 310.593 268.081C308.253 270.821 305.289 272.958 301.951 274.314C299.426 275.349 296.781 276.06 294.077 276.43C292.958 276.351 291.847 276.259 290.746 276.159C290.74 276.157 290.731 276.158 290.724 276.156C290.671 276.151 290.618 276.146 290.567 276.143C290.34 276.122 290.113 276.1 289.888 276.079L289.941 276.18L290.108 276.495C290.048 276.39 289.988 276.287 289.928 276.181C289.91 276.15 289.891 276.118 289.873 276.087C291.9 274.067 293.413 271.591 294.286 268.865C295.158 266.14 295.365 263.245 294.89 260.424C294.392 257.622 293.239 254.977 291.525 252.706C291.75 252.637 291.979 252.582 292.21 252.533C292.861 253.423 293.432 254.37 293.917 255.361C295.656 258.897 296.211 262.899 295.499 266.775C294.838 270.282 293.19 273.527 290.749 276.13C290.962 276.115 291.178 276.098 291.389 276.078C295.39 275.739 299.382 274.879 303.011 273.117C306.113 271.647 308.805 269.437 310.852 266.681C313.05 263.649 314.018 260.003 314.184 256.296C314.312 252.303 313.894 248.311 312.941 244.432C312.016 240.476 310.611 236.648 308.757 233.033C308.716 232.951 308.708 232.856 308.734 232.768C308.76 232.68 308.82 232.606 308.9 232.56C308.966 232.515 309.048 232.499 309.126 232.514C309.165 232.524 309.201 232.543 309.231 232.569C309.261 232.595 309.285 232.627 309.301 232.664C309.53 233.11 309.754 233.557 309.97 234.009C311.769 237.772 313.093 241.744 313.912 245.834C314.707 249.78 315.132 253.907 314.715 257.925Z" fill="white"/>
<path id="Vector_5" d="M325.602 276.971H0.398046C0.292478 276.971 0.191233 276.929 0.116585 276.854C0.0419366 276.78 0 276.678 0 276.573C0 276.467 0.0419366 276.366 0.116585 276.291C0.191233 276.217 0.292478 276.175 0.398046 276.175H325.602C325.708 276.175 325.809 276.217 325.883 276.291C325.958 276.366 326 276.467 326 276.573C326 276.678 325.958 276.78 325.883 276.854C325.809 276.929 325.708 276.971 325.602 276.971Z" fill="#3F3D56"/>
<path id="Vector_6" d="M254.595 272.467L249.715 272.467L247.394 253.638L254.596 253.639L254.595 272.467Z" fill="#FFB8B8"/>
<path id="Vector_7" d="M246.23 271.072H255.642V277H240.305C240.305 276.221 240.458 275.45 240.756 274.731C241.054 274.012 241.49 273.359 242.04 272.808C242.591 272.258 243.244 271.821 243.963 271.523C244.682 271.225 245.452 271.072 246.23 271.072Z" fill="#2F2E41"/>
<path id="Vector_8" d="M272.906 272.467L268.026 272.467L265.704 253.638L272.907 253.639L272.906 272.467Z" fill="#FFB8B8"/>
<path id="Vector_9" d="M264.54 271.072H273.951V277H258.614C258.614 276.221 258.768 275.45 259.065 274.731C259.363 274.012 259.8 273.359 260.35 272.808C260.9 272.258 261.553 271.821 262.272 271.523C262.991 271.225 263.762 271.072 264.54 271.072Z" fill="#2F2E41"/>
<path id="Vector_10" d="M272.309 216.389C271.784 216.051 271.339 215.601 271.005 215.072C270.672 214.543 270.459 213.948 270.38 213.327C270.302 212.707 270.361 212.077 270.552 211.482C270.744 210.886 271.063 210.34 271.489 209.882L268.275 164.268L277.531 165.166L277.785 209.836C278.508 210.601 278.924 211.606 278.956 212.658C278.988 213.71 278.632 214.738 277.957 215.546C277.282 216.353 276.335 216.885 275.294 217.041C274.253 217.196 273.191 216.965 272.309 216.389H272.309Z" fill="#FFB8B8"/>
<path id="Vector_11" d="M254.365 262.982L248.993 262.725C248.535 262.704 248.104 262.507 247.786 262.177C247.469 261.846 247.29 261.407 247.287 260.948L246.912 206.575C246.91 206.317 246.964 206.062 247.07 205.827C247.176 205.591 247.332 205.382 247.527 205.212C247.721 205.043 247.95 204.917 248.197 204.844C248.445 204.771 248.705 204.753 248.961 204.79L270.453 207.91C270.877 207.97 271.266 208.181 271.548 208.504C271.83 208.827 271.985 209.241 271.987 209.67L274.751 260.052C274.752 260.289 274.707 260.523 274.618 260.742C274.529 260.961 274.397 261.16 274.231 261.328C274.064 261.496 273.866 261.629 273.648 261.72C273.43 261.811 273.196 261.858 272.959 261.858H267.168C266.741 261.86 266.327 261.708 266.002 261.43C265.677 261.152 265.463 260.767 265.398 260.344L261.825 237.622C261.773 237.289 261.602 236.987 261.345 236.771C261.087 236.554 260.76 236.439 260.423 236.445C260.087 236.451 259.764 236.579 259.515 236.805C259.265 237.03 259.106 237.339 259.066 237.673L256.229 261.405C256.176 261.84 255.965 262.24 255.638 262.531C255.31 262.821 254.888 262.983 254.45 262.984C254.422 262.984 254.394 262.983 254.365 262.982Z" fill="#2F2E41"/>
<path id="Vector_12" d="M258.147 209.673C253.41 207.04 249.71 206.348 247.925 206.17C247.688 206.147 247.458 206.077 247.249 205.962C247.04 205.848 246.857 205.692 246.71 205.504C246.56 205.315 246.449 205.098 246.386 204.865C246.322 204.632 246.306 204.389 246.339 204.15L251.489 165.905C251.785 163.668 252.649 161.544 253.998 159.734C255.347 157.925 257.137 156.492 259.196 155.57C261.19 154.653 263.385 154.262 265.572 154.434C267.76 154.605 269.867 155.334 271.693 156.55C271.87 156.667 272.043 156.787 272.213 156.909C274.316 158.451 275.916 160.581 276.811 163.031C277.706 165.481 277.856 168.141 277.243 170.676C274.085 183.598 273 204.784 272.815 208.9C272.8 209.25 272.682 209.589 272.475 209.873C272.269 210.157 271.982 210.373 271.653 210.494C269.71 211.201 267.66 211.566 265.593 211.574C262.989 211.589 260.425 210.935 258.147 209.673Z" fill="#4452FE"/>
<path id="Vector_13" d="M270.371 179.595C270.154 179.439 269.975 179.237 269.847 179.002C269.719 178.768 269.645 178.508 269.631 178.241L268.953 165.947C268.886 164.729 269.272 163.529 270.037 162.579C270.801 161.629 271.891 160.996 273.095 160.802C274.299 160.607 275.532 160.866 276.556 161.527C277.581 162.189 278.325 163.206 278.644 164.384L281.623 175.375C281.747 175.834 281.684 176.323 281.447 176.735C281.211 177.147 280.821 177.448 280.363 177.573L271.888 179.872C271.631 179.942 271.361 179.954 271.098 179.906C270.836 179.858 270.587 179.752 270.371 179.595Z" fill="#4452FE"/>
<path id="Vector_14" d="M262.454 150.377C267.854 150.377 272.231 145.999 272.231 140.597C272.231 135.196 267.854 130.818 262.454 130.818C257.055 130.818 252.678 135.196 252.678 140.597C252.678 145.999 257.055 150.377 262.454 150.377Z" fill="#FFB8B8"/>
<path id="Vector_15" d="M244.063 179.09C242.955 179.093 241.878 178.721 241.006 178.036L224.373 164.91C224.238 164.958 224.1 164.998 223.96 165.032C223.361 165.172 222.738 165.185 222.134 165.069C221.529 164.953 220.956 164.711 220.45 164.358C219.942 164.006 219.515 163.549 219.197 163.018C218.88 162.487 218.679 161.894 218.609 161.279C218.479 160.168 218.778 159.049 219.446 158.152C220.113 157.255 221.099 156.647 222.2 156.454C223.302 156.26 224.435 156.495 225.369 157.111C226.302 157.727 226.965 158.677 227.221 159.766C227.264 159.956 227.295 160.149 227.312 160.344L244.221 170.102L248.43 167.678L253.091 173.783L246.924 178.18C246.088 178.774 245.088 179.092 244.063 179.09Z" fill="#FFB8B8"/>
<path id="Vector_16" d="M244.832 169.493C244.804 169.227 244.835 168.959 244.924 168.707C245.014 168.455 245.158 168.226 245.347 168.038L254.05 159.331C254.912 158.468 256.063 157.955 257.281 157.891C258.499 157.827 259.697 158.217 260.645 158.984C261.593 159.752 262.223 160.843 262.414 162.048C262.605 163.252 262.343 164.485 261.68 165.509L255.482 175.062C255.223 175.46 254.817 175.739 254.352 175.838C253.888 175.937 253.403 175.847 253.004 175.589L245.639 170.808C245.415 170.663 245.226 170.469 245.086 170.242C244.947 170.014 244.86 169.758 244.832 169.493Z" fill="#4452FE"/>
<path id="Vector_17" d="M265.202 149.744C265.34 149.904 265.51 150.035 265.699 150.128C265.889 150.221 266.096 150.276 266.307 150.288C266.518 150.3 266.729 150.27 266.929 150.199C267.128 150.128 267.311 150.017 267.467 149.874C269.647 148.109 271.376 145.851 272.511 143.285C273.782 140.255 273.968 136.556 272.522 133.716C271.299 131.315 269.104 129.786 266.913 128.537C266.072 128.007 265.152 127.618 264.187 127.384C263.699 127.274 263.194 127.266 262.704 127.363C262.213 127.459 261.748 127.657 261.339 127.944C260.905 128.275 260.569 128.717 260.367 129.224C260.165 129.731 260.105 130.284 260.194 130.822C259.191 129.501 257.84 128.487 256.292 127.893C255.342 127.484 254.281 127.413 253.285 127.692C251.878 128.161 250.836 129.583 250.256 131.11C249.788 132.28 249.616 133.547 249.757 134.799C249.818 135.397 250 135.976 250.293 136.501C250.585 137.026 250.981 137.486 251.456 137.853C252.604 138.646 254.083 138.565 255.418 138.215C256.753 137.864 258.048 137.269 259.407 137.104C260.765 136.938 262.27 137.297 263.08 138.509C263.65 139.362 263.784 140.487 263.9 141.558L264.505 147.132C264.548 147.93 264.719 148.715 265.014 149.457C265.063 149.561 265.127 149.657 265.202 149.744Z" fill="#2F2E41"/>
<g id="Group">
<path id="Vector_18" d="M110.384 188.208H123.871V190.849H113.121V198.834H122.829V201.441H113.121V211.542H110.384L110.384 188.208Z" fill="#3F3D56"/>
<path id="Vector_19" d="M127.128 188.208H129.896V211.54H127.128V188.208Z" fill="#3F3D56"/>
<path id="Vector_20" d="M135.452 210.3C134.398 209.128 133.871 207.487 133.872 205.379V194.921H136.64V204.958C136.64 206.544 136.998 207.706 137.715 208.445C138.094 208.821 138.548 209.114 139.047 209.305C139.546 209.495 140.079 209.58 140.613 209.554C141.501 209.568 142.371 209.306 143.104 208.805C143.827 208.31 144.41 207.636 144.797 206.849C145.195 206.061 145.402 205.19 145.399 204.307V194.921H148.17V211.54H145.53V209.128H145.399C144.881 210.014 144.125 210.736 143.217 211.214C142.245 211.771 141.143 212.063 140.023 212.061C138.03 212.061 136.506 211.474 135.452 210.3Z" fill="#3F3D56"/>
<path id="Vector_21" d="M156.953 211.73C156.414 211.532 155.921 211.227 155.503 210.834C155.075 210.424 154.742 209.926 154.526 209.374C154.292 208.726 154.182 208.039 154.2 207.35V197.43H151.302V194.921H154.2V190.228H156.968V194.921H161.008V197.43H156.968V206.69C156.912 207.417 157.095 208.142 157.489 208.756C157.712 209.006 157.99 209.202 158.301 209.329C158.611 209.457 158.947 209.511 159.282 209.49C159.93 209.484 160.563 209.292 161.105 208.935V211.64C160.789 211.789 160.456 211.898 160.113 211.966C159.687 212.038 159.256 212.07 158.825 212.063C158.186 212.067 157.551 211.954 156.953 211.73Z" fill="#3F3D56"/>
<path id="Vector_22" d="M168.71 211.73C168.172 211.532 167.679 211.227 167.261 210.834C166.833 210.424 166.5 209.926 166.284 209.374C166.05 208.726 165.94 208.039 165.958 207.35V197.43H163.06V194.921H165.958V190.228H168.726V194.921H172.766V197.43H168.726V206.69C168.67 207.417 168.853 208.142 169.246 208.756C169.47 209.006 169.748 209.202 170.058 209.329C170.369 209.457 170.705 209.511 171.039 209.49C171.688 209.484 172.321 209.292 172.863 208.935V211.64C172.547 211.789 172.214 211.898 171.871 211.966C171.445 212.038 171.014 212.07 170.583 212.063C169.944 212.067 169.309 211.954 168.71 211.73Z" fill="#3F3D56"/>
<path id="Vector_23" d="M178.534 210.919C177.28 210.164 176.26 209.076 175.587 207.776C174.867 206.382 174.503 204.831 174.527 203.262C174.511 201.728 174.851 200.212 175.52 198.831C176.15 197.52 177.124 196.405 178.339 195.606C179.599 194.79 181.074 194.369 182.574 194.4C184.06 194.363 185.526 194.741 186.809 195.49C187.996 196.211 188.952 197.257 189.561 198.505C190.222 199.876 190.552 201.384 190.523 202.906C190.528 203.191 190.495 203.476 190.426 203.752H177.298C177.323 204.878 177.637 205.978 178.211 206.947C178.709 207.775 179.424 208.451 180.278 208.902C181.086 209.33 181.986 209.554 182.9 209.554C185.029 209.554 186.669 208.555 187.82 206.557L190.164 207.699C189.489 209.001 188.483 210.103 187.248 210.893C185.923 211.657 184.423 212.062 182.894 212.066C181.366 212.071 179.863 211.675 178.534 210.919ZM187.589 201.469C187.536 200.741 187.337 200.031 187.001 199.383C186.624 198.657 186.056 198.048 185.357 197.623C184.506 197.118 183.527 196.87 182.538 196.907C181.314 196.876 180.127 197.327 179.232 198.162C178.304 199.048 177.682 200.206 177.457 201.469H187.589Z" fill="#3F3D56"/>
<path id="Vector_24" d="M193.745 194.921H196.385V197.592H196.515C196.871 196.64 197.537 195.837 198.406 195.311C199.271 194.723 200.292 194.405 201.338 194.397C202.007 194.381 202.673 194.503 203.292 194.756V197.723C202.562 197.368 201.759 197.19 200.948 197.202C200.156 197.198 199.383 197.437 198.732 197.887C198.048 198.357 197.493 198.991 197.118 199.732C196.716 200.503 196.509 201.361 196.515 202.231V211.54H193.748V194.921H193.745Z" fill="#3F3D56"/>
</g>
<path id="Vector_25" d="M165.473 134.525L201.717 170.951L167.485 170.553L154.747 157.811L165.473 134.525Z" fill="#01579B"/>
<path id="Vector_26" d="M180.164 149.289L154.747 157.811L170.298 139.293L180.164 149.289Z" fill="url(#paint0_linear)"/>
<path id="Vector_27" d="M201.473 59.6819L129.016 132.169L111.96 115.111L167.376 59.6819H201.473Z" fill="#54C5F8"/>
<path id="Vector_28" d="M137.432 140.889L167.285 111.026H201.517L154.548 157.612L137.432 140.889Z" fill="#54C5F8"/>
<path id="Vector_29" d="M154.586 123.64L171.642 140.693L154.747 157.811L137.631 141.088L154.586 123.64Z" fill="#29B6F6"/>
</g>
<defs>
<linearGradient id="paint0_linear" x1="159.07" y1="160.457" x2="171.762" y2="147.769" gradientUnits="userSpaceOnUse">
<stop stop-color="#1A237E" stop-opacity="0.4"/>
<stop offset="1" stop-color="#1A237E" stop-opacity="0"/>
</linearGradient>
</defs>
</svg>
