<svg width="223" height="192" viewBox="0 0 223 192" fill="none" xmlns="http://www.w3.org/2000/svg">
<path d="M18.4468 185.544C29.6925 192.856 43.7414 192.485 57.2491 190.772C59.1352 190.533 61.0068 190.271 62.8602 189.997C62.8713 189.994 62.8861 189.994 62.8974 189.991C62.9865 189.977 63.0757 189.963 63.1611 189.954C63.5436 189.896 63.9262 189.839 64.3051 189.781L64.2244 189.96L63.9708 190.515C64.0627 190.329 64.1546 190.147 64.2465 189.96C64.2734 189.904 64.304 189.849 64.3308 189.793C67.5133 183.405 70.655 176.791 71.1667 169.667C71.694 162.273 68.6694 154.1 62.1008 150.839C61.2394 150.413 60.3338 150.086 59.4008 149.863C59.0132 149.766 58.6216 149.692 58.2262 149.629C54.0901 149.008 49.6604 150.272 46.5826 153.165C42.5115 157 41.088 163.451 43.1561 168.679C37.4508 163.356 37.9736 154.186 39.4325 146.466C40.895 138.746 42.7052 130.146 38.5405 123.512C36.2251 119.819 32.3844 117.659 28.1647 116.936C28.0353 116.915 27.9061 116.894 27.7767 116.877C22.8791 116.142 17.5208 117.314 13.4532 120.236C5.75313 125.764 2.17328 135.642 1.34835 145.172C0.0182333 160.507 5.66111 177.231 18.4468 185.544Z" fill="#F2F2F2"/>
<path d="M20.6418 160.959C21.1349 164.298 22.1059 167.547 23.524 170.602C24.8248 173.304 26.5167 175.793 28.5437 177.987C32.6869 182.517 38.0212 185.802 43.7346 187.873C48.101 189.412 52.6417 190.386 57.249 190.772C59.1352 190.533 61.0067 190.271 62.8602 189.997C62.8713 189.994 62.8861 189.994 62.8974 189.99C62.9864 189.977 63.0756 189.963 63.161 189.953C63.5435 189.896 63.9262 189.839 64.3051 189.781L64.2244 189.96L63.9708 190.515C64.0626 190.329 64.1546 190.147 64.2464 189.96C64.2734 189.904 64.304 189.849 64.3307 189.793C60.7176 186.518 57.9314 182.413 56.2058 177.822C54.4802 173.231 53.8653 168.287 54.4128 163.405C54.9995 158.556 56.7086 153.916 59.4007 149.863C59.0131 149.766 58.6216 149.692 58.2262 149.629C57.2055 151.217 56.3254 152.892 55.5959 154.637C52.9766 160.859 52.4035 167.771 53.9614 174.35C55.4009 180.301 58.4857 185.712 62.8535 189.948C62.4905 189.942 62.1238 189.932 61.7647 189.919C54.9653 189.708 48.132 188.603 41.832 185.918C36.5109 183.655 31.6245 180.171 27.9782 175.611C23.9832 170.617 22.0118 164.455 21.3918 158.117C20.7309 151.33 21.2329 144.361 22.4121 137.661C23.6146 130.794 25.6418 124.101 28.4483 117.733C28.511 117.588 28.5164 117.425 28.4637 117.277C28.4109 117.128 28.3038 117.006 28.1647 116.936C28.0481 116.865 27.9086 116.844 27.7767 116.876C27.7123 116.898 27.6536 116.933 27.6047 116.98C27.5558 117.028 27.5181 117.086 27.4943 117.15C27.1482 117.936 26.8092 118.723 26.4852 119.518C23.7864 126.136 21.9093 133.069 20.897 140.156C19.9119 146.994 19.5708 154.109 20.6418 160.959Z" fill="white"/>
<path d="M154.5 45.6162H153.46V16.7232C153.46 12.2879 151.721 8.03431 148.627 4.8981C145.533 1.7619 141.337 1.46393e-06 136.961 0H76.567C72.1913 0 67.9948 1.7619 64.9007 4.8981C61.8066 8.03431 60.0684 12.2879 60.0684 16.7232V175.235C60.0684 179.671 61.8066 183.924 64.9007 187.06C67.9948 190.197 72.1913 191.959 76.567 191.959H136.961C141.337 191.958 145.533 190.197 148.627 187.06C151.721 183.924 153.459 179.671 153.459 175.235V66.1828H154.5L154.5 45.6162Z" fill="#3F3D56"/>
<path d="M137.627 4.34912H129.744C130.107 5.25009 130.245 6.2276 130.147 7.19555C130.049 8.1635 129.718 9.09217 129.182 9.89973C128.647 10.7073 127.924 11.369 127.076 11.8265C126.229 12.284 125.284 12.5232 124.324 12.5232H89.7249C88.765 12.5232 87.8198 12.2838 86.9727 11.8263C86.1255 11.3688 85.4023 10.7071 84.8669 9.89952C84.3314 9.09196 84.0001 8.16333 83.9022 7.19543C83.8042 6.22752 83.9426 5.25005 84.3051 4.34912H76.9421C75.3241 4.34912 73.7219 4.67215 72.2271 5.29977C70.7322 5.92738 69.374 6.84729 68.2298 8.00698C67.0857 9.16666 66.1782 10.5434 65.559 12.0586C64.9398 13.5738 64.6211 15.1978 64.6211 16.8378V175.12C64.6211 178.432 65.9192 181.609 68.2299 183.951C70.5405 186.293 73.6744 187.609 76.9421 187.609H137.627C140.895 187.609 144.029 186.293 146.339 183.951C148.65 181.609 149.948 178.432 149.948 175.12V16.8376C149.948 13.5254 148.65 10.3489 146.339 8.00689C144.029 5.66486 140.895 4.34912 137.627 4.34912V4.34912Z" fill="white"/>
<path d="M216.693 188.642C212.316 191.837 206.645 191.998 201.162 191.605C200.397 191.55 199.637 191.486 198.884 191.417C198.879 191.416 198.873 191.416 198.868 191.415C198.832 191.411 198.796 191.408 198.761 191.406C198.606 191.391 198.45 191.376 198.296 191.362L198.333 191.432L198.447 191.65C198.406 191.577 198.365 191.506 198.324 191.433C198.312 191.411 198.298 191.389 198.286 191.367C196.866 188.862 195.458 186.265 195.098 183.404C194.727 180.435 195.771 177.073 198.349 175.614C198.687 175.423 199.045 175.271 199.416 175.161C199.57 175.113 199.727 175.075 199.885 175.041C200.851 174.823 201.858 174.87 202.801 175.178C203.744 175.485 204.589 176.042 205.249 176.79C205.91 177.538 206.361 178.451 206.558 179.435C206.755 180.419 206.69 181.438 206.369 182.388C208.555 180.116 208.147 176.431 207.393 173.351C206.638 170.271 205.723 166.843 207.26 164.077C208.114 162.537 209.616 161.582 211.301 161.197C211.353 161.186 211.405 161.174 211.457 161.165C213.465 160.752 215.553 161.123 217.303 162.203C220.526 164.262 222.181 168.165 222.719 171.988C223.584 178.141 221.669 185.008 216.693 188.642Z" fill="#F2F2F2"/>
<path d="M215.281 178.779C215.153 180.136 214.832 181.467 214.326 182.73C213.859 183.848 213.231 184.888 212.461 185.818C210.86 187.717 208.832 189.199 206.549 190.138C204.822 190.855 203.012 191.348 201.163 191.605C200.398 191.551 199.637 191.486 198.884 191.417C198.88 191.416 198.874 191.416 198.869 191.415C198.833 191.412 198.797 191.408 198.762 191.406C198.607 191.391 198.451 191.377 198.297 191.362L198.334 191.432L198.448 191.65C198.407 191.577 198.366 191.506 198.325 191.433C198.313 191.411 198.299 191.389 198.287 191.367C199.673 189.967 200.708 188.251 201.305 186.362C201.903 184.473 202.044 182.466 201.719 180.51C201.378 178.568 200.589 176.735 199.417 175.161C199.571 175.113 199.727 175.075 199.885 175.041C200.331 175.658 200.722 176.314 201.053 177.002C202.243 179.452 202.622 182.226 202.136 184.912C201.683 187.343 200.556 189.593 198.886 191.397C199.032 191.387 199.18 191.375 199.324 191.361C202.061 191.126 204.792 190.53 207.274 189.309C209.396 188.29 211.238 186.758 212.638 184.848C214.141 182.746 214.803 180.219 214.917 177.65C215.005 174.882 214.719 172.115 214.066 169.426C213.434 166.684 212.473 164.03 211.205 161.525C211.177 161.468 211.171 161.402 211.189 161.341C211.207 161.28 211.248 161.229 211.302 161.197C211.348 161.166 211.403 161.154 211.457 161.165C211.484 161.172 211.508 161.185 211.529 161.203C211.55 161.221 211.566 161.243 211.577 161.269C211.733 161.578 211.887 161.888 212.035 162.201C213.265 164.81 214.17 167.563 214.731 170.398C215.275 173.133 215.565 175.994 215.281 178.779Z" fill="white"/>
<path d="M222.728 191.98H0.272283C0.200069 191.98 0.130813 191.951 0.0797497 191.899C0.0286867 191.847 0 191.777 0 191.704C0 191.631 0.0286867 191.56 0.0797497 191.509C0.130813 191.457 0.200069 191.428 0.272283 191.428H222.728C222.8 191.428 222.869 191.457 222.92 191.509C222.971 191.56 223 191.631 223 191.704C223 191.777 222.971 191.847 222.92 191.899C222.869 191.951 222.8 191.98 222.728 191.98Z" fill="#3F3D56"/>
<path d="M174.157 188.858L170.819 188.858L169.23 175.807L174.157 175.807L174.157 188.858Z" fill="#FFB8B8"/>
<path d="M168.432 187.891H174.87V192H164.379C164.379 191.46 164.484 190.926 164.687 190.427C164.891 189.929 165.19 189.476 165.566 189.095C165.943 188.713 166.389 188.41 166.881 188.204C167.373 187.997 167.9 187.891 168.432 187.891Z" fill="#2F2E41"/>
<path d="M186.68 188.858L183.342 188.858L181.754 175.807L186.681 175.807L186.68 188.858Z" fill="#FFB8B8"/>
<path d="M180.958 187.891H187.396V192H176.904C176.904 191.46 177.009 190.926 177.213 190.427C177.417 189.929 177.715 189.476 178.092 189.095C178.468 188.713 178.915 188.41 179.407 188.204C179.898 187.997 180.425 187.891 180.958 187.891Z" fill="#2F2E41"/>
<path d="M186.273 149.988C185.914 149.754 185.609 149.442 185.381 149.076C185.153 148.709 185.007 148.296 184.954 147.866C184.9 147.436 184.94 146.999 185.071 146.587C185.202 146.174 185.421 145.795 185.712 145.478L183.514 113.861L189.845 114.483L190.019 145.446C190.513 145.976 190.798 146.672 190.82 147.402C190.841 148.131 190.598 148.843 190.137 149.403C189.675 149.963 189.027 150.332 188.315 150.44C187.602 150.548 186.876 150.387 186.273 149.988H186.273Z" fill="#FFB8B8"/>
<path d="M173.999 182.283L170.324 182.106C170.011 182.091 169.715 181.954 169.498 181.725C169.281 181.496 169.159 181.192 169.157 180.874L168.9 143.186C168.899 143.007 168.936 142.83 169.009 142.667C169.081 142.504 169.188 142.358 169.321 142.241C169.454 142.123 169.61 142.036 169.78 141.986C169.949 141.935 170.127 141.922 170.302 141.948L185.003 144.111C185.294 144.152 185.56 144.298 185.753 144.522C185.945 144.747 186.052 145.034 186.052 145.331L187.943 180.253C187.945 180.417 187.914 180.579 187.853 180.731C187.792 180.883 187.702 181.021 187.588 181.137C187.474 181.253 187.338 181.346 187.189 181.409C187.04 181.472 186.88 181.504 186.718 181.504H182.756C182.464 181.505 182.181 181.4 181.959 181.208C181.737 181.015 181.59 180.748 181.546 180.455L179.102 164.705C179.066 164.475 178.949 164.265 178.773 164.115C178.597 163.965 178.373 163.885 178.143 163.889C177.913 163.894 177.692 163.982 177.521 164.139C177.35 164.295 177.241 164.509 177.214 164.741L175.274 181.19C175.237 181.492 175.093 181.769 174.869 181.971C174.645 182.172 174.356 182.284 174.057 182.285C174.038 182.285 174.018 182.284 173.999 182.283Z" fill="#2F2E41"/>
<path d="M176.585 145.333C173.345 143.508 170.813 143.028 169.593 142.905C169.43 142.889 169.273 142.84 169.13 142.761C168.987 142.681 168.862 142.573 168.761 142.443C168.658 142.312 168.583 142.162 168.539 142C168.496 141.839 168.485 141.67 168.508 141.505L172.03 114.996C172.233 113.445 172.824 111.972 173.747 110.718C174.67 109.464 175.894 108.471 177.303 107.832C178.666 107.196 180.168 106.925 181.664 107.044C183.16 107.163 184.602 107.668 185.851 108.511C185.972 108.592 186.09 108.675 186.206 108.76C187.645 109.829 188.74 111.305 189.352 113.003C189.964 114.701 190.067 116.545 189.647 118.302C187.487 127.259 186.745 141.944 186.618 144.797C186.608 145.04 186.527 145.275 186.386 145.471C186.245 145.668 186.049 145.818 185.824 145.902C184.495 146.392 183.092 146.645 181.678 146.65C179.897 146.661 178.143 146.207 176.585 145.333Z" fill="#4452FE"/>
<path d="M184.948 124.485C184.8 124.377 184.677 124.236 184.59 124.074C184.502 123.911 184.451 123.731 184.442 123.546L183.978 115.025C183.932 114.181 184.196 113.349 184.719 112.69C185.242 112.032 185.988 111.593 186.811 111.458C187.635 111.324 188.478 111.503 189.179 111.961C189.88 112.42 190.389 113.125 190.607 113.941L192.645 121.56C192.729 121.878 192.686 122.216 192.525 122.502C192.363 122.788 192.096 122.997 191.783 123.083L185.986 124.676C185.81 124.725 185.625 124.733 185.445 124.7C185.266 124.667 185.096 124.593 184.948 124.485Z" fill="#4452FE"/>
<path d="M179.531 104.232C183.225 104.232 186.219 101.198 186.219 97.4539C186.219 93.7102 183.225 90.6753 179.531 90.6753C175.838 90.6753 172.844 93.7102 172.844 97.4539C172.844 101.198 175.838 104.232 179.531 104.232Z" fill="#FFB8B8"/>
<path d="M166.952 124.135C166.194 124.136 165.457 123.879 164.861 123.404L153.483 114.306C153.39 114.339 153.296 114.367 153.201 114.39C152.79 114.488 152.365 114.496 151.951 114.416C151.537 114.335 151.145 114.168 150.8 113.923C150.452 113.679 150.16 113.362 149.942 112.994C149.725 112.626 149.588 112.215 149.54 111.789C149.451 111.019 149.656 110.244 150.112 109.622C150.569 109 151.243 108.579 151.997 108.444C152.75 108.31 153.525 108.473 154.164 108.9C154.803 109.327 155.256 109.985 155.431 110.74C155.461 110.872 155.482 111.006 155.493 111.141L167.06 117.905L169.939 116.225L173.128 120.456L168.909 123.504C168.337 123.916 167.653 124.136 166.952 124.135Z" fill="#FFB8B8"/>
<path d="M167.478 117.482C167.458 117.298 167.48 117.112 167.541 116.937C167.602 116.763 167.7 116.605 167.83 116.474L173.783 110.438C174.373 109.84 175.16 109.485 175.993 109.441C176.826 109.396 177.646 109.666 178.294 110.198C178.943 110.73 179.374 111.487 179.504 112.322C179.635 113.157 179.456 114.011 179.002 114.721L174.763 121.342C174.585 121.618 174.307 121.812 173.99 121.88C173.672 121.949 173.34 121.887 173.068 121.708L168.029 118.394C167.876 118.293 167.747 118.159 167.651 118.002C167.556 117.844 167.496 117.666 167.478 117.482Z" fill="#4452FE"/>
<path d="M181.41 103.794C181.505 103.905 181.621 103.995 181.751 104.06C181.881 104.125 182.022 104.162 182.166 104.171C182.311 104.179 182.455 104.158 182.592 104.109C182.728 104.06 182.853 103.983 182.96 103.884C184.451 102.66 185.634 101.095 186.41 99.3167C187.28 97.2162 187.407 94.6528 186.418 92.6839C185.581 91.0194 184.08 89.9599 182.581 89.094C182.006 88.727 181.376 88.4572 180.716 88.2952C180.383 88.2185 180.037 88.2134 179.701 88.2803C179.366 88.3472 179.048 88.4845 178.768 88.6835C178.471 88.9124 178.241 89.2191 178.103 89.5705C177.965 89.9219 177.924 90.3048 177.984 90.6781C177.299 89.7625 176.374 89.0593 175.316 88.6478C174.666 88.3643 173.94 88.3151 173.259 88.5081C172.296 88.8338 171.584 89.8192 171.187 90.8778C170.866 91.6883 170.749 92.5667 170.845 93.4345C170.887 93.8488 171.012 94.2502 171.212 94.6142C171.412 94.9782 171.682 95.2971 172.008 95.5517C172.793 96.1009 173.804 96.0451 174.718 95.8021C175.631 95.559 176.517 95.1469 177.446 95.032C178.375 94.9171 179.405 95.1662 179.959 96.0062C180.349 96.5977 180.44 97.377 180.52 98.1198L180.934 101.983C180.963 102.536 181.08 103.08 181.282 103.595C181.316 103.667 181.359 103.734 181.41 103.794Z" fill="#2F2E41"/>
<path d="M75.5078 130.455H84.7336V132.285H77.38V137.82H84.0212V139.627H77.38V146.628H75.5078L75.5078 130.455Z" fill="#3F3D56"/>
<path d="M86.9609 130.455H88.8542V146.627H86.9609V130.455Z" fill="#3F3D56"/>
<path d="M92.6551 145.768C91.9339 144.955 91.5736 143.818 91.5742 142.357V135.107H93.4675V142.065C93.4675 143.164 93.7125 143.97 94.2026 144.482C94.4624 144.742 94.7729 144.945 95.1143 145.077C95.4556 145.21 95.8204 145.269 96.1854 145.25C96.7926 145.26 97.388 145.079 97.8891 144.731C98.384 144.388 98.783 143.921 99.0471 143.376C99.32 142.829 99.4612 142.225 99.4595 141.613V135.107H101.354V146.627H99.5489V144.955H99.4595C99.1049 145.569 98.5876 146.07 97.9663 146.401C97.3014 146.787 96.5481 146.99 95.7818 146.988C94.4185 146.988 93.3762 146.581 92.6551 145.768Z" fill="#3F3D56"/>
<path d="M107.363 146.758C106.995 146.621 106.658 146.41 106.372 146.138C106.079 145.853 105.851 145.508 105.704 145.126C105.544 144.676 105.468 144.2 105.481 143.722V136.847H103.498V135.107H105.481V131.854H107.374V135.107H110.138V136.847H107.374V143.265C107.336 143.769 107.461 144.272 107.73 144.697C107.883 144.87 108.073 145.006 108.286 145.095C108.498 145.183 108.728 145.221 108.957 145.206C109.4 145.202 109.834 145.069 110.204 144.821V146.696C109.988 146.799 109.76 146.875 109.525 146.922C109.234 146.972 108.939 146.994 108.644 146.989C108.207 146.992 107.773 146.914 107.363 146.758Z" fill="#3F3D56"/>
<path d="M115.406 146.758C115.038 146.621 114.701 146.41 114.415 146.138C114.122 145.853 113.894 145.508 113.747 145.126C113.587 144.676 113.511 144.2 113.524 143.722V136.847H111.541V135.107H113.524V131.854H115.417V135.107H118.18V136.847H115.417V143.265C115.379 143.769 115.504 144.272 115.773 144.697C115.926 144.87 116.116 145.006 116.329 145.095C116.541 145.183 116.771 145.221 117 145.206C117.443 145.202 117.876 145.069 118.247 144.821V146.696C118.031 146.799 117.803 146.875 117.568 146.922C117.277 146.972 116.982 146.994 116.687 146.989C116.25 146.992 115.816 146.914 115.406 146.758Z" fill="#3F3D56"/>
<path d="M122.126 146.196C121.268 145.673 120.57 144.919 120.11 144.018C119.618 143.051 119.369 141.977 119.386 140.889C119.374 139.826 119.607 138.775 120.065 137.818C120.495 136.909 121.162 136.136 121.993 135.582C122.854 135.016 123.863 134.725 124.89 134.746C125.906 134.721 126.909 134.982 127.787 135.502C128.599 136.001 129.252 136.727 129.669 137.592C130.122 138.542 130.347 139.587 130.327 140.642C130.33 140.84 130.308 141.037 130.261 141.229H121.281C121.298 142.009 121.513 142.772 121.905 143.443C122.246 144.017 122.735 144.486 123.319 144.798C123.872 145.095 124.487 145.25 125.113 145.25C126.569 145.25 127.691 144.558 128.478 143.173L130.082 143.964C129.62 144.867 128.932 145.631 128.087 146.179C127.181 146.708 126.154 146.988 125.109 146.991C124.063 146.995 123.035 146.72 122.126 146.196ZM128.32 139.646C128.284 139.142 128.148 138.65 127.918 138.2C127.66 137.697 127.271 137.275 126.794 136.98C126.211 136.63 125.542 136.458 124.865 136.484C124.028 136.463 123.216 136.775 122.603 137.354C121.969 137.968 121.544 138.771 121.389 139.646H128.32Z" fill="#3F3D56"/>
<path d="M132.531 135.107H134.337V136.959H134.426C134.67 136.299 135.125 135.742 135.719 135.378C136.312 134.97 137.009 134.75 137.725 134.744C138.183 134.733 138.638 134.818 139.062 134.993V137.049C138.563 136.804 138.013 136.68 137.458 136.688C136.917 136.686 136.388 136.852 135.942 137.163C135.474 137.489 135.095 137.929 134.839 138.442C134.564 138.977 134.422 139.571 134.426 140.174V146.627H132.533V135.107H132.531Z" fill="#3F3D56"/>
<path d="M113.191 93.2449L137.983 118.493L114.567 118.217L105.854 109.385L113.191 93.2449Z" fill="#01579B"/>
<path d="M123.24 103.478L105.854 109.385L116.491 96.5498L123.24 103.478Z" fill="url(#paint0_linear)"/>
<path d="M137.817 41.3679L88.2533 91.6116L76.5859 79.7883L114.493 41.3679H137.817Z" fill="#4452FE"/>
<path d="M94.0098 97.6559L114.431 76.9568H137.847L105.718 109.247L94.0098 97.6559Z" fill="#4452FE"/>
<path d="M105.745 85.7L117.412 97.5203L105.855 109.385L94.1465 97.7938L105.745 85.7Z" fill="#4452FE"/>
<defs>
<linearGradient id="paint0_linear" x1="108.81" y1="111.219" x2="117.607" y2="102.541" gradientUnits="userSpaceOnUse">
<stop stop-color="#1A237E" stop-opacity="0.4"/>
<stop offset="1" stop-color="#1A237E" stop-opacity="0"/>
</linearGradient>
</defs>
</svg>
