<svg width="338" height="226" viewBox="0 0 338 226" fill="none" xmlns="http://www.w3.org/2000/svg">
<g clip-path="url(#clip0)">
<path opacity="0.1" d="M304.805 18.022H205.408V24.9779H304.805V18.022Z" fill="#4452FE"/>
<path opacity="0.1" d="M304.805 48.0588H205.408V55.0147H304.805V48.0588Z" fill="#4452FE"/>
<path opacity="0.1" d="M304.805 79.3604H205.408V86.3162H304.805V79.3604Z" fill="#4452FE"/>
<path opacity="0.1" d="M220.412 0H214.16V18.0221H220.412V0Z" fill="#4452FE"/>
<path opacity="0.1" d="M220.412 2.8457H214.16V4.11041H220.412V2.8457Z" fill="#4452FE"/>
<path opacity="0.1" d="M220.412 12.647H214.16V13.9117H220.412V12.647Z" fill="#4452FE"/>
<path opacity="0.1" d="M229.788 0H223.537V18.0221H229.788V0Z" fill="#4452FE"/>
<path opacity="0.1" d="M229.788 2.8457H223.537V4.11041H229.788V2.8457Z" fill="#4452FE"/>
<path opacity="0.1" d="M229.788 12.647H223.537V13.9117H229.788V12.647Z" fill="#4452FE"/>
<path opacity="0.1" d="M239.165 0H232.914V18.0221H239.165V0Z" fill="#4452FE"/>
<path opacity="0.1" d="M239.165 2.8457H232.914V4.11041H239.165V2.8457Z" fill="#4452FE"/>
<path opacity="0.1" d="M239.165 12.647H232.914V13.9117H239.165V12.647Z" fill="#4452FE"/>
<path opacity="0.1" d="M248.542 0H242.291V18.0221H248.542V0Z" fill="#4452FE"/>
<path opacity="0.1" d="M248.542 2.8457H242.291V4.11041H248.542V2.8457Z" fill="#4452FE"/>
<path opacity="0.1" d="M248.542 12.647H242.291V13.9117H248.542V12.647Z" fill="#4452FE"/>
<path opacity="0.1" d="M257.919 0H251.668V18.0221H257.919V0Z" fill="#4452FE"/>
<path opacity="0.1" d="M257.919 2.8457H251.668V4.11041H257.919V2.8457Z" fill="#4452FE"/>
<path opacity="0.1" d="M257.919 12.647H251.668V13.9117H257.919V12.647Z" fill="#4452FE"/>
<path opacity="0.1" d="M267.296 0H261.045V18.0221H267.296V0Z" fill="#4452FE"/>
<path opacity="0.1" d="M267.296 2.8457H261.045V4.11041H267.296V2.8457Z" fill="#4452FE"/>
<path opacity="0.1" d="M267.296 12.647H261.045V13.9117H267.296V12.647Z" fill="#4452FE"/>
<path opacity="0.1" d="M276.675 0H270.424V18.0221H276.675V0Z" fill="#4452FE"/>
<path opacity="0.1" d="M276.675 2.8457H270.424V4.11041H276.675V2.8457Z" fill="#4452FE"/>
<path opacity="0.1" d="M276.675 12.647H270.424V13.9117H276.675V12.647Z" fill="#4452FE"/>
<path opacity="0.1" d="M272.977 60.8622L267.389 63.6965L275.375 79.8068L280.963 76.9724L272.977 60.8622Z" fill="#4452FE"/>
<path opacity="0.1" d="M274.235 63.4066L268.646 66.241L269.207 67.3715L274.795 64.5371L274.235 63.4066Z" fill="#4452FE"/>
<path opacity="0.1" d="M278.58 72.1707L272.992 75.0051L273.553 76.1357L279.141 73.3013L278.58 72.1707Z" fill="#4452FE"/>
<path opacity="0.1" d="M220.412 30.353H214.16V48.3751H220.412V30.353Z" fill="#4452FE"/>
<path opacity="0.1" d="M220.412 33.1985H214.16V34.4632H220.412V33.1985Z" fill="#4452FE"/>
<path opacity="0.1" d="M220.412 43H214.16V44.2647H220.412V43Z" fill="#4452FE"/>
<path opacity="0.1" d="M229.788 30.353H223.537V48.3751H229.788V30.353Z" fill="#4452FE"/>
<path opacity="0.1" d="M229.788 33.1985H223.537V34.4632H229.788V33.1985Z" fill="#4452FE"/>
<path opacity="0.1" d="M229.788 43H223.537V44.2647H229.788V43Z" fill="#4452FE"/>
<path opacity="0.1" d="M239.165 30.353H232.914V48.3751H239.165V30.353Z" fill="#4452FE"/>
<path opacity="0.1" d="M239.165 33.1985H232.914V34.4632H239.165V33.1985Z" fill="#4452FE"/>
<path opacity="0.1" d="M239.165 43H232.914V44.2647H239.165V43Z" fill="#4452FE"/>
<path opacity="0.1" d="M278.236 30.353H271.984V48.3751H278.236V30.353Z" fill="#4452FE"/>
<path opacity="0.1" d="M278.236 33.1985H271.984V34.4632H278.236V33.1985Z" fill="#4452FE"/>
<path opacity="0.1" d="M278.236 43H271.984V44.2647H278.236V43Z" fill="#4452FE"/>
<path opacity="0.1" d="M287.613 30.353H281.361V48.3751H287.613V30.353Z" fill="#4452FE"/>
<path opacity="0.1" d="M287.613 33.1985H281.361V34.4632H287.613V33.1985Z" fill="#4452FE"/>
<path opacity="0.1" d="M287.613 43H281.361V44.2647H287.613V43Z" fill="#4452FE"/>
<path opacity="0.1" d="M296.992 30.353H290.74V48.3751H296.992V30.353Z" fill="#4452FE"/>
<path opacity="0.1" d="M296.992 33.1985H290.74V34.4632H296.992V33.1985Z" fill="#4452FE"/>
<path opacity="0.1" d="M296.992 43H290.74V44.2647H296.992V43Z" fill="#4452FE"/>
<path opacity="0.1" d="M220.412 61.3384H214.16V79.3605H220.412V61.3384Z" fill="#4452FE"/>
<path opacity="0.1" d="M220.412 64.1838H214.16V65.4485H220.412V64.1838Z" fill="#4452FE"/>
<path opacity="0.1" d="M220.412 73.9854H214.16V75.2501H220.412V73.9854Z" fill="#4452FE"/>
<path opacity="0.1" d="M229.788 61.3384H223.537V79.3605H229.788V61.3384Z" fill="#4452FE"/>
<path opacity="0.1" d="M229.788 64.1838H223.537V65.4485H229.788V64.1838Z" fill="#4452FE"/>
<path opacity="0.1" d="M229.788 73.9854H223.537V75.2501H229.788V73.9854Z" fill="#4452FE"/>
<path opacity="0.1" d="M239.165 61.3384H232.914V79.3605H239.165V61.3384Z" fill="#4452FE"/>
<path opacity="0.1" d="M239.165 64.1838H232.914V65.4485H239.165V64.1838Z" fill="#4452FE"/>
<path opacity="0.1" d="M239.165 73.9854H232.914V75.2501H239.165V73.9854Z" fill="#4452FE"/>
<path opacity="0.1" d="M248.542 61.3384H242.291V79.3605H248.542V61.3384Z" fill="#4452FE"/>
<path opacity="0.1" d="M248.542 64.1838H242.291V65.4485H248.542V64.1838Z" fill="#4452FE"/>
<path opacity="0.1" d="M248.542 73.9854H242.291V75.2501H248.542V73.9854Z" fill="#4452FE"/>
<path opacity="0.1" d="M257.919 61.3384H251.668V79.3605H257.919V61.3384Z" fill="#4452FE"/>
<path opacity="0.1" d="M257.919 64.1838H251.668V65.4485H257.919V64.1838Z" fill="#4452FE"/>
<path opacity="0.1" d="M257.919 73.9854H251.668V75.2501H257.919V73.9854Z" fill="#4452FE"/>
<path opacity="0.1" d="M267.296 61.3384H261.045V79.3605H267.296V61.3384Z" fill="#4452FE"/>
<path opacity="0.1" d="M267.296 64.1838H261.045V65.4485H267.296V64.1838Z" fill="#4452FE"/>
<path opacity="0.1" d="M267.296 73.9854H261.045V75.2501H267.296V73.9854Z" fill="#4452FE"/>
<g opacity="0.1">
<path opacity="0.1" d="M251.79 41.8238C251.79 41.8238 249.896 41.1725 248.977 42.864C248.737 43.322 248.614 43.8338 248.621 44.3522C248.628 44.8706 248.765 45.3788 249.017 45.8298C249.618 46.9238 250.852 48.3592 253.19 48.2201C255.175 48.1126 255.835 46.5823 256.003 45.1563C256.068 44.6229 255.997 44.0817 255.798 43.5836C255.598 43.0856 255.277 42.6472 254.863 42.3099C254.449 41.9725 253.958 41.7474 253.434 41.6557C252.911 41.564 252.373 41.6088 251.871 41.7859L251.79 41.8238Z" fill="#4452FE"/>
<path opacity="0.1" d="M249.423 45.9691C249.171 45.5181 249.034 45.0099 249.027 44.4915C249.02 43.9731 249.142 43.4612 249.383 43.0033C250.296 41.3149 252.196 41.9631 252.196 41.9631L252.293 41.9283C253.016 41.6636 253.811 41.6817 254.521 41.9789C254.129 41.7426 253.69 41.5973 253.235 41.5536C252.781 41.5098 252.322 41.5687 251.893 41.726L251.796 41.7608C251.796 41.7608 249.902 41.1094 248.983 42.801C248.742 43.2589 248.62 43.7707 248.627 44.2891C248.634 44.8075 248.771 45.3157 249.023 45.7667C249.493 46.6725 250.247 47.3945 251.168 47.8187C250.43 47.3752 249.827 46.7355 249.423 45.9691Z" fill="#4452FE"/>
<path opacity="0.2" d="M250.811 42.6333C250.811 42.6333 251.514 43.1929 253.22 42.6333H250.811Z" fill="#4452FE"/>
<path opacity="0.1" d="M250.662 38.5735C250.662 38.5735 251.866 41.8744 251.765 42.7375L252.719 42.6364C252.719 42.6364 251.112 39.7433 251.515 38.5735H250.662Z" fill="#4452FE"/>
<path opacity="0.2" d="M250.662 38.5735C250.662 38.5735 251.866 41.8744 251.765 42.7375L252.719 42.6364C252.719 42.6364 251.112 39.7433 251.515 38.5735H250.662Z" fill="#4452FE"/>
<path opacity="0.1" d="M255.582 38.8486C255.582 38.8486 253.685 37.8685 252.838 38.6779C251.991 39.4873 251.859 41.5583 251.859 41.5583C251.859 41.5583 254.957 41.9883 255.582 38.8486Z" fill="#4452FE"/>
<path opacity="0.1" d="M255.582 38.8486C255.582 38.8486 253.685 37.8685 252.838 38.6779C251.991 39.4873 251.859 41.5583 251.859 41.5583C251.859 41.5583 254.957 41.9883 255.582 38.8486Z" fill="#4452FE"/>
<path opacity="0.1" d="M251.855 41.5583C251.855 41.5583 252.352 39.1553 255.578 38.8455L251.855 41.5583Z" fill="#4452FE"/>
</g>
<g opacity="0.1">
<path opacity="0.1" d="M291.8 73.1253C291.8 73.1253 289.906 72.474 288.987 74.1656C288.746 74.6235 288.624 75.1353 288.631 75.6537C288.638 76.1721 288.774 76.6803 289.027 77.1313C289.627 78.2253 290.862 79.6607 293.2 79.5216C295.185 79.4141 295.844 77.8838 296.013 76.4578C296.078 75.9245 296.007 75.3832 295.808 74.8851C295.608 74.3871 295.286 73.9487 294.873 73.6114C294.459 73.2741 293.967 73.0489 293.444 72.9572C292.921 72.8656 292.383 72.9104 291.881 73.0874L291.8 73.1253Z" fill="#4452FE"/>
<path opacity="0.1" d="M289.433 77.2706C289.18 76.8196 289.044 76.3114 289.037 75.793C289.03 75.2746 289.152 74.7628 289.393 74.3048C290.305 72.6165 292.206 73.2646 292.206 73.2646L292.303 73.2298C293.026 72.9651 293.821 72.9832 294.531 73.2804C294.139 73.0441 293.7 72.8988 293.245 72.8551C292.79 72.8113 292.332 72.8702 291.903 73.0275L291.806 73.0623C291.806 73.0623 289.911 72.4109 288.992 74.1025C288.752 74.5604 288.63 75.0722 288.637 75.5906C288.644 76.109 288.78 76.6172 289.033 77.0682C289.503 77.9741 290.257 78.696 291.177 79.1202C290.44 78.6768 289.836 78.037 289.433 77.2706Z" fill="#4452FE"/>
<path opacity="0.2" d="M290.82 73.9348C290.82 73.9348 291.524 74.4945 293.23 73.9348H290.82Z" fill="#4452FE"/>
<path opacity="0.1" d="M290.672 69.8752C290.672 69.8752 291.875 73.1761 291.775 74.0393L292.729 73.9381C292.729 73.9381 291.122 71.0451 291.525 69.8752H290.672Z" fill="#4452FE"/>
<path opacity="0.2" d="M290.672 69.8752C290.672 69.8752 291.875 73.1761 291.775 74.0393L292.729 73.9381C292.729 73.9381 291.122 71.0451 291.525 69.8752H290.672Z" fill="#4452FE"/>
<path opacity="0.1" d="M295.592 70.1502C295.592 70.1502 293.695 69.17 292.847 69.9794C292 70.7888 291.869 72.8598 291.869 72.8598C291.869 72.8598 294.967 73.2898 295.592 70.1502Z" fill="#4452FE"/>
<path opacity="0.1" d="M295.592 70.1502C295.592 70.1502 293.695 69.17 292.847 69.9794C292 70.7888 291.869 72.8598 291.869 72.8598C291.869 72.8598 294.967 73.2898 295.592 70.1502Z" fill="#4452FE"/>
<path opacity="0.1" d="M291.865 72.8598C291.865 72.8598 292.362 70.4568 295.588 70.147L291.865 72.8598Z" fill="#4452FE"/>
</g>
<path opacity="0.1" d="M243.442 116.028C251.097 120.517 258.154 126.686 266.134 130.142C275.846 134.35 286.332 134.303 296.594 134.211L338 133.841C329.614 152.957 314.798 167.356 298.069 172.63C291.505 174.704 284.495 175.519 278.706 179.974C271.492 185.526 267.216 195.967 259.883 201.256C251.8 207.08 241.754 205.509 232.746 208.383C221.002 212.126 211.178 223.376 199.201 225.589C187.617 227.73 176.324 221.087 165.096 216.891C124.994 201.911 81.6683 217.912 40.2748 210.504C38.6838 210.22 36.9896 209.834 35.8394 208.414C34.3609 206.593 34.239 203.637 34.5329 201.047C36.0082 188.059 45.2133 178.514 54.8655 173.806C75.4294 163.78 98.5314 170.078 120.377 166.467C135.38 163.985 149.652 156.836 163.73 149.748C178.471 142.324 193.443 135.042 207.412 125.437C221.618 115.67 226.216 105.919 243.442 116.028Z" fill="#4452FE"/>
<path d="M110.068 173.903C110.068 173.903 109.443 183.389 110.693 184.97C110.693 184.97 83.1871 190.028 79.7489 188.448C76.3106 186.867 77.8734 184.337 79.7489 183.389C81.6243 182.44 91.0014 178.962 92.2517 172.323C92.2517 172.323 88.1882 170.426 101.316 172.955C114.444 175.484 110.068 173.903 110.068 173.903Z" fill="#DC9BA3"/>
<path opacity="0.05" d="M110.068 173.903C110.068 173.903 109.443 183.389 110.693 184.97C110.693 184.97 83.1871 190.028 79.7489 188.448C76.3106 186.867 77.8734 184.337 79.7489 183.389C81.6243 182.44 91.0014 178.962 92.2517 172.323C92.2517 172.323 88.1882 170.426 101.316 172.955C114.444 175.484 110.068 173.903 110.068 173.903Z" fill="black"/>
<path d="M217.34 41.8176L217.458 41.8745C223.132 44.5817 228.068 48.6483 231.837 53.7217C233.968 56.5673 236.588 59.2801 239.079 59.729C244.599 60.7123 285.277 103.513 275.515 143.351C265.753 183.19 208.8 184.821 208.8 184.821C208.8 184.821 196.685 186.898 189.733 191.053C188.11 192.024 186.296 192.622 184.419 192.804C182.542 192.987 180.648 192.749 178.872 192.109C170.595 189.131 156.992 184.812 150.859 186.14C141.748 188.116 63.6523 155.195 63.6523 155.195C63.6523 155.195 96.1971 123.578 144.036 124.251C144.036 124.251 219.537 70.9217 216.933 48.8652L217.34 41.8176Z" fill="#4452FE"/>
<path opacity="0.1" d="M217.34 41.8176L217.458 41.8745C223.132 44.5817 228.068 48.6483 231.837 53.7217C233.968 56.5673 236.588 59.2801 239.079 59.729C244.599 60.7123 285.277 103.513 275.515 143.351C265.753 183.19 208.8 184.821 208.8 184.821C208.8 184.821 196.685 186.898 189.733 191.053C188.11 192.024 186.296 192.622 184.419 192.804C182.542 192.987 180.648 192.749 178.872 192.109C170.595 189.131 156.992 184.812 150.859 186.14C141.748 188.116 63.6523 155.195 63.6523 155.195C63.6523 155.195 96.1971 123.578 144.036 124.251C144.036 124.251 219.537 70.9217 216.933 48.8652L217.34 41.8176Z" fill="black"/>
<path d="M217.28 41.7417L225.094 49.3299C225.094 49.3299 231.033 61.0285 236.347 61.977C241.66 62.9255 280.732 104.029 271.355 142.286C261.977 180.543 207.278 182.124 207.278 182.124C207.278 182.124 195.894 184.075 189.196 187.98C187.572 188.942 185.76 189.536 183.887 189.721C182.014 189.906 180.124 189.677 178.346 189.052C170.379 186.206 157.473 182.124 151.644 183.389C142.892 185.286 67.875 153.668 67.875 153.668C67.875 153.668 99.1319 123.315 145.08 123.948C145.08 123.948 217.596 72.727 215.095 51.5432L217.28 41.7417Z" fill="#4452FE"/>
<path opacity="0.1" d="M214.147 148.631C231.671 130.905 238.074 108.642 228.447 98.9045C218.821 89.1673 196.812 95.6435 179.288 113.37C161.764 131.096 155.362 153.359 164.988 163.096C174.614 172.833 196.624 166.357 214.147 148.631Z" fill="black"/>
<path d="M217.28 81.8962C217.28 81.8962 213.841 87.5874 216.029 98.6536C218.217 109.72 210.403 109.72 210.403 109.72H194.775L189.461 95.808L196.963 96.4404C196.963 96.4404 201.964 95.1757 199.776 83.4771L217.28 81.8962Z" fill="#FFD2D9"/>
<path d="M170.394 68.6167C172.785 76.3156 175.783 85.6903 177.383 90.6922L178.521 94.2271L188.836 83.4771C188.836 83.4771 188.382 82.4115 187.704 80.9192C186.191 77.612 183.566 72.2117 182.272 71.7785C182.272 71.7785 196.65 70.83 201.026 74.3079C205.402 77.7859 204.152 64.8226 204.152 64.8226C204.152 64.8226 195.712 64.1903 192.587 62.2932C189.461 60.3961 172.582 58.4991 172.582 58.4991C172.582 58.4991 166.956 57.5505 170.394 68.6167Z" fill="#FFD2D9"/>
<path opacity="0.1" d="M226.969 164.102C226.969 164.102 200.401 151.771 191.023 153.668L226.969 164.102Z" fill="black"/>
<path opacity="0.1" d="M254.163 135.014C254.163 135.014 221.969 133.749 204.465 145.131L254.163 135.014Z" fill="black"/>
<path opacity="0.1" d="M238.221 147.977C238.221 147.977 212.903 141.654 199.463 143.867L238.221 147.977Z" fill="black"/>
<path d="M76.623 161.573L78.811 177.698L84.4373 177.065C84.4373 177.065 84.778 176.749 85.3562 176.218C86.8722 174.868 90.026 172.221 93.0454 170.78C94.0668 170.252 95.1748 169.918 96.3149 169.793L90.0635 160.308C88.5424 160.884 86.983 161.351 85.3969 161.705C83.7491 162.096 82.0631 162.297 80.3708 162.306C79.0845 162.33 77.8076 162.08 76.623 161.573Z" fill="#FFD2D9"/>
<path d="M92.2522 172.955C95.0653 175.484 107.881 170.109 110.069 178.33L112.082 170.543L118.28 146.548L119.133 143.244L124.297 143.019L183.554 140.461L186.911 140.316L188.68 140.24L186.332 139.064L170.704 131.229C170.704 131.229 165.078 130.831 157.31 129.753C145.539 128.121 128.867 124.931 119.452 119.218C103.823 109.732 97.8847 141.666 97.8847 141.666C97.8847 141.666 95.5091 149.77 93.6962 157.753C92.8335 161.547 92.099 165.341 91.8208 168.206C91.5614 170.634 91.6426 172.408 92.2522 172.955Z" fill="#E9E9EF"/>
<path opacity="0.05" d="M92.2509 172.955C95.064 175.484 107.879 170.109 110.067 178.33L112.08 170.543L118.279 146.548L119.132 143.244L124.446 142.928L181.696 139.368L185.231 139.146L186.319 139.08L187.728 138.991L170.693 131.245C170.693 131.245 165.067 130.847 157.3 129.768C145.528 128.137 128.856 124.947 119.441 119.233C103.813 109.748 97.874 141.682 97.874 141.682C97.874 141.682 95.4985 149.786 93.6856 157.769C92.8229 161.563 92.0883 165.357 91.8102 168.222C91.5601 170.634 91.6414 172.408 92.2509 172.955Z" fill="black"/>
<path opacity="0.1" d="M85.3965 161.705L90.8571 168.193L93.045 170.78C94.0664 170.252 95.1744 169.918 96.3145 169.793L90.0631 160.308C88.542 160.884 86.9826 161.351 85.3965 161.705Z" fill="black"/>
<path d="M85.6875 160.94L91.7951 168.194L94.7426 171.69V172.639C98.3591 173.48 109.612 171.083 112.081 170.543C112.393 170.476 112.568 170.435 112.568 170.435C119.758 170.751 146.326 154.943 146.326 154.943C146.326 154.943 175.395 160.001 189.461 158.737C197.315 158.028 199.516 155.154 199.929 152.751C200.11 151.564 199.948 150.348 199.463 149.251L186.91 140.307L185.253 139.121L182.593 137.224C182.593 137.224 177.97 136.165 172.097 134.853C162.923 132.807 150.696 130.148 148.22 129.955C144.157 129.639 133.842 133.117 127.903 140.073C126.881 141.165 125.725 142.121 124.465 142.918L124.302 143.026C122.633 144.145 120.577 145.337 118.285 146.554C110.718 150.586 100.631 154.914 93.6955 157.757C88.9538 159.688 85.6875 160.94 85.6875 160.94Z" fill="#E9E9EF"/>
<path opacity="0.1" d="M76.623 161.573L78.811 177.698L84.4373 177.065C84.4373 177.065 84.778 176.749 85.3562 176.218C84.106 176.247 82.0555 175.883 81.6242 173.271C81.6242 173.271 83.7903 165.604 80.3739 162.306C79.0866 162.331 77.8086 162.081 76.623 161.573Z" fill="black"/>
<path d="M80.9984 173.271C80.9984 173.271 84.1241 162.205 76.935 160.94L65.0574 165.683L51.3043 166.632C51.3043 166.632 47.7129 172.56 53.4673 179.212C55.0448 181.013 56.9652 182.473 59.1134 183.505C61.2617 184.537 63.5938 185.12 65.9701 185.22L80.9984 185.931L85.687 176.13C85.687 176.13 81.6236 177.065 80.9984 173.271Z" fill="#DC9BA3"/>
<path opacity="0.1" d="M157.312 129.756C158.875 130.221 165.402 132.19 172.078 134.865C175.377 136.15 178.591 137.649 181.699 139.352C182.346 139.719 182.949 140.089 183.543 140.462C185.294 141.584 186.703 142.735 187.575 143.876C191.433 148.935 197.099 151.642 199.919 152.751C200.1 151.564 199.939 150.348 199.453 149.251L186.91 140.307L188.679 140.231L186.331 139.055L187.741 138.966L170.706 131.22C170.706 131.22 165.077 130.821 157.312 129.756Z" fill="black"/>
<path opacity="0.1" d="M177.383 90.6922L178.521 94.2271L188.835 83.4771C188.835 83.4771 188.382 82.4115 187.704 80.9192C186.4 83.7142 180.174 88.596 177.383 90.6922Z" fill="black"/>
<path d="M214.597 95.9438C214.966 94.8721 215.236 93.7681 215.403 92.6461L228.844 97.3887C228.844 97.3887 238.064 104.503 237.127 119.995C237.127 119.995 225.718 115.727 220.717 120.786L220.614 121.677C219.556 130.517 215.689 138.77 209.596 145.195C207.095 147.835 204.766 150.813 203.526 153.668C203.526 153.668 194.774 151.139 189.46 144.183C184.146 137.227 158.828 129.955 158.828 129.955C158.828 129.955 172.269 130.271 174.144 125.528C176.019 120.786 182.271 110.668 180.083 102.764C177.895 94.8593 176.645 92.3299 176.645 92.3299C176.645 92.3299 189.46 83.1608 188.522 80.3152L196.649 89.8005L200.4 91.0652C200.105 91.7991 199.956 92.5843 199.959 93.3764C199.759 101.973 211.749 104.044 214.597 95.9438Z" fill="#CEDAD5"/>
<path d="M203.383 160.782C203.383 160.782 173.064 148.135 148.371 160.15L154.31 172.797L182.754 173.429L203.383 160.782Z" fill="#4452FE"/>
<path opacity="0.1" d="M200.256 87.6317C200.161 86.4498 200.002 85.274 199.781 84.1094L217.285 82.5286C217.285 82.5286 216.072 83.5878 215.544 87.54C213.491 88.7731 211.093 90.433 208.533 90.433C205.546 90.4376 202.639 89.4538 200.256 87.6317Z" fill="black"/>
<path d="M208.372 89.9617C215.968 89.9617 222.125 83.7332 222.125 76.05C222.125 68.3667 215.968 62.1382 208.372 62.1382C200.777 62.1382 194.619 68.3667 194.619 76.05C194.619 83.7332 200.777 89.9617 208.372 89.9617Z" fill="#FFD2D9"/>
<path d="M218.53 79.6828H216.655V74.3078L214.779 68.6166C214.779 68.6166 205.402 64.1901 201.026 65.1387L197.588 68.3004C197.588 68.3004 196.65 60.7122 202.276 57.8666C207.903 55.021 217.905 56.2857 220.405 58.499C222.906 60.7122 226.969 64.5063 223.844 74.9402L222.906 77.4696C222.906 77.4696 219.155 76.2049 218.53 79.6828Z" fill="#844F6E"/>
<g opacity="0.05">
<path opacity="0.05" d="M194.235 86.9865L193.21 86.6419L188.49 81.1309C188.583 80.8698 188.594 80.586 188.522 80.3184L194.235 86.9865Z" fill="black"/>
<path opacity="0.05" d="M200.816 97.1895C198.337 96.0828 196.44 93.6799 196.524 90.2336C196.524 90.047 196.524 89.87 196.555 89.7024L196.655 89.8162L200.406 91.0809C200.112 91.8149 199.962 92.6 199.966 93.3922C199.916 94.7113 200.209 96.0205 200.816 97.1895Z" fill="black"/>
<path opacity="0.05" d="M164.354 129.699C172.187 132.456 182.796 136.797 186.022 141.024C186.1 141.129 186.181 141.227 186.262 141.341C177.679 135.387 158.828 129.958 158.828 129.958C160.674 129.978 162.519 129.891 164.354 129.699Z" fill="black"/>
<path opacity="0.05" d="M200.087 150.506C201.337 147.661 203.672 144.673 206.157 142.033C212.251 135.608 216.117 127.355 217.175 118.516L217.278 117.624C222.279 112.565 233.688 116.834 233.688 116.834C234.282 107.007 230.791 100.554 228.159 97.1453L228.843 97.3887C228.843 97.3887 238.064 104.503 237.126 119.995C237.126 119.995 225.718 115.727 220.716 120.786L220.613 121.677C219.556 130.517 215.689 138.77 209.595 145.195C207.095 147.835 204.766 150.813 203.525 153.668C203.525 153.668 195.908 151.455 190.572 145.523C193.448 147.708 196.664 149.392 200.087 150.506Z" fill="black"/>
</g>
<path d="M203.527 113.514C203.527 113.514 218.53 135.33 226.344 141.654C234.158 147.977 236.346 138.808 236.346 138.808V118.573L222.593 116.992L222.45 118.911L222.284 121.102L209.469 107.19C209.469 107.19 196.653 95.4918 194.153 102.448C191.652 109.404 203.527 113.514 203.527 113.514Z" fill="#FFD2D9"/>
<path opacity="0.1" d="M222.449 118.911C224.327 120.016 226.318 120.91 228.388 121.576C231.342 122.496 234.727 121.529 236.359 120.944V118.582L222.606 117.001L222.449 118.911Z" fill="black"/>
<path d="M236.516 116.517L237.338 119.904C237.338 119.904 232.452 122.209 228.389 120.944C224.326 119.679 221.2 117.466 220.575 117.15C219.95 116.834 223.075 113.356 223.075 113.356L236.516 116.517Z" fill="#CEDAD5"/>
<path opacity="0.1" d="M146.495 155.091C144.411 153.474 142.091 152.194 139.619 151.297C137.269 150.48 135.056 149.307 133.055 147.819" fill="black"/>
<path opacity="0.2" d="M51.3058 166.631L51.8184 166.597C51.0745 168.494 49.9993 173.17 54.4096 178.264C55.9871 180.064 57.9075 181.524 60.0557 182.556C62.204 183.588 64.5361 184.172 66.9124 184.271L81.4688 184.96L81.003 185.931L65.9747 185.219C63.5984 185.12 61.2663 184.537 59.118 183.505C56.9698 182.473 55.0494 181.013 53.4719 179.212C47.7238 172.563 51.3058 166.631 51.3058 166.631Z" fill="white"/>
<path opacity="0.05" d="M122.187 182.915H122.234C122.193 183.661 122.121 185.201 122.109 186.892C122.093 185.403 122.14 183.945 122.187 182.915Z" fill="#00FF00"/>
<path opacity="0.05" d="M104.38 180.186C104.336 180.378 104.287 180.567 104.233 180.752C103.926 180.572 103.486 180.237 104.38 180.186Z" fill="#00FF00"/>
<path opacity="0.2" d="M79.7495 187.499C82.9533 188.973 107.046 184.682 110.322 184.088C110.388 184.404 110.514 184.703 110.694 184.97C110.694 184.97 83.1877 190.029 79.7495 188.448C77.9803 187.635 77.5365 186.57 77.7772 185.602C77.9584 186.279 78.5461 186.946 79.7495 187.499Z" fill="white"/>
<path opacity="0.05" d="M122.23 182.918C122.246 182.602 122.259 182.44 122.259 182.44C122.259 182.44 123.85 183.016 122.23 182.918Z" fill="#00FF00"/>
<path opacity="0.1" d="M196.21 79.8442H215.227C215.931 79.8442 216.502 79.2667 216.502 78.5542V70.3842C216.502 69.6718 215.931 69.0942 215.227 69.0942H196.21C195.506 69.0942 194.935 69.6718 194.935 70.3842V78.5542C194.935 79.2667 195.506 79.8442 196.21 79.8442Z" fill="black"/>
<path opacity="0.1" d="M216.327 76.6824H223.866C224.287 76.6824 224.629 76.337 224.629 75.9109V73.3435C224.629 72.9175 224.287 72.5721 223.866 72.5721H216.327C215.906 72.5721 215.564 72.9175 215.564 73.3435V75.9109C215.564 76.337 215.906 76.6824 216.327 76.6824Z" fill="black"/>
<path d="M196.21 79.5281H215.227C215.931 79.5281 216.502 78.9505 216.502 78.2381V70.0681C216.502 69.3556 215.931 68.778 215.227 68.778H196.21C195.506 68.778 194.935 69.3556 194.935 70.0681V78.2381C194.935 78.9505 195.506 79.5281 196.21 79.5281Z" fill="#7679B4"/>
<path d="M196.228 78.8955H212.707C213.411 78.8955 213.982 78.318 213.982 77.6055V70.7002C213.982 69.9878 213.411 69.4102 212.707 69.4102H196.228C195.524 69.4102 194.953 69.9878 194.953 70.7002V77.6055C194.953 78.318 195.524 78.8955 196.228 78.8955Z" fill="#565388"/>
<path d="M216.327 76.3662H223.866C224.287 76.3662 224.629 76.0208 224.629 75.5947V73.0274C224.629 72.6013 224.287 72.2559 223.866 72.2559H216.327C215.906 72.2559 215.564 72.6013 215.564 73.0274V75.5947C215.564 76.0208 215.906 76.3662 216.327 76.3662Z" fill="#565388"/>
<path opacity="0.1" d="M199.632 69.4009C196.25 67.333 193.503 64.3543 191.699 60.7977C191.489 60.3835 191.289 59.9187 191.405 59.4698C191.627 58.6098 192.737 58.458 193.537 58.0881C195.028 57.3956 195.656 55.6472 196.634 54.3161C197.471 53.2058 198.595 52.3519 199.882 51.8496C201.17 51.3472 202.57 51.216 203.927 51.4705C205.352 51.7614 206.671 52.4759 208.109 52.6909C211.209 53.1494 214.591 51.2492 217.376 52.6909C218.645 53.3517 219.505 54.588 220.261 55.8211C222.159 58.8911 224.537 62.1446 222.812 65.7459C221.821 67.8042 220.24 69.5115 218.017 70.1123C215.795 70.713 213.222 70.2134 210.963 69.9637C209.103 69.7613 207.155 69.3313 205.283 69.5305C203.092 69.7708 201.723 70.6751 199.632 69.4009Z" fill="black"/>
<path d="M199.632 68.7685C196.25 66.7007 193.503 63.7219 191.699 60.1654C191.489 59.7512 191.289 59.2864 191.405 58.8374C191.627 57.9774 192.737 57.8257 193.537 57.4557C195.028 56.7633 195.656 55.0148 196.634 53.6837C197.471 52.5735 198.595 51.7196 199.882 51.2172C201.17 50.7149 202.57 50.5836 203.927 50.8382C205.352 51.129 206.671 51.8436 208.109 52.0586C211.209 52.5171 214.591 50.6168 217.376 52.0586C218.645 52.7194 219.505 53.9557 220.261 55.1887C222.159 58.2588 224.537 61.5123 222.812 65.1135C221.821 67.1718 220.24 68.8792 218.017 69.4799C215.795 70.0807 213.222 69.5811 210.963 69.3313C209.103 69.129 207.155 68.699 205.283 68.8982C203.092 69.1385 201.723 70.0427 199.632 68.7685Z" fill="#844F6E"/>
<path opacity="0.2" d="M37.7482 39.9774L12.602 35.592L12.2363 46.9902L38.0483 51.3566L37.7482 39.9774Z" fill="#4452FE"/>
<path opacity="0.2" d="M0 18.822V92.5702L32.676 98.4764L38.7867 99.583L47.7137 101.196L48.8265 101.398L49.7517 101.565L50.0924 101.626L50.1736 101.641L54.9216 102.501L55.9405 102.685L62.6045 103.889L70.2843 105.277L80.4116 107.108L80.5929 107.14L92.9456 109.375L110.521 112.553L135.968 117.153V43.4048L0 18.822Z" fill="#4452FE"/>
<g opacity="0.5">
<path opacity="0.5" d="M80.2079 56.5862H56.959V80.9792H80.2079V56.5862Z" fill="#865A61"/>
<path opacity="0.1" d="M80.2079 53.2251H56.959V77.6182H80.2079V53.2251Z" fill="black"/>
<path opacity="0.5" d="M51.4004 87.9129L51.9724 88.7287L53.7947 91.3245L54.0604 91.7039L54.9731 93.0065L55.1513 93.2595L58.2988 97.746L58.5051 98.0401L60.4212 100.772L60.5962 101.022L62.606 103.886L70.2859 105.274L71.3267 105.148L74.9525 97.999L75.0651 97.7745L75.0807 97.7397L77.0311 93.895L77.103 93.7559L77.1249 93.6009L77.3031 92.3046V92.254L77.3343 92.0106V91.9663L77.9907 87.1604V87.1288L78.8284 80.976L79.2941 77.6151L79.4035 76.812C78.6488 77.173 77.8546 77.4426 77.0374 77.6151C76.5236 77.7263 75.9999 77.7846 75.4745 77.789H75.4495C74.997 77.7892 74.5464 77.7307 74.1086 77.6151C73.6102 77.4858 73.1423 77.2573 72.7323 76.943C72.3223 76.6287 71.9783 76.2348 71.7206 75.7844C70.8672 74.3489 70.4703 71.9903 70.9516 68.1961C70.9516 68.095 70.9766 67.9938 70.9923 67.88C71.1069 67.0368 71.2694 66.122 71.4799 65.1356L62.7279 60.8292L62.5967 60.766L61.3651 60.1589C61.3651 60.1589 61.5527 61.0537 61.7215 62.4196L61.7496 62.6504C61.9144 64.0342 61.9937 65.427 61.9872 66.8208C61.9872 66.9188 61.9872 67.0168 61.9872 67.1148C61.9769 68.5307 61.7996 69.9403 61.4589 71.3137C61.4483 71.366 61.4348 71.4178 61.4183 71.4686C60.765 73.8273 59.446 75.7401 56.9642 76.1828C56.2719 76.3009 55.5662 76.3148 54.8699 76.2239C53.9687 76.0972 53.0529 76.1229 52.16 76.2998C46.1118 77.6783 51.4004 87.9129 51.4004 87.9129Z" fill="#FDC2CC"/>
<path opacity="0.1" d="M71.4796 65.1292C71.2441 66.2359 71.067 67.2529 70.9482 68.1803C69.9011 68.4822 68.8176 68.6354 67.7287 68.6356C65.7205 68.6385 63.7456 68.1156 61.9962 67.118C62.0213 64.7839 61.8118 62.4533 61.3711 60.1621L71.4796 65.1292Z" fill="black"/>
<path opacity="0.5" d="M67.7159 68.3448C74.1756 68.3448 79.4122 63.0477 79.4122 56.5135C79.4122 49.9792 74.1756 44.6821 67.7159 44.6821C61.2562 44.6821 56.0195 49.9792 56.0195 56.5135C56.0195 63.0477 61.2562 68.3448 67.7159 68.3448Z" fill="#FDC2CC"/>
<path opacity="0.5" d="M48.6621 97.6987C48.6621 97.6987 48.7215 97.7998 48.8215 97.9927C49.4041 99.1544 49.86 100.377 50.1812 101.638L54.9135 102.498L55.9325 102.682L62.5964 103.886L70.2763 105.274L80.4035 107.105C81.9082 105.038 82.8658 102.616 83.1854 100.07C83.201 99.9688 83.2135 99.8645 83.2229 99.7538C83.2729 99.2732 83.301 98.78 83.3042 98.2678C83.3073 98.2586 83.3073 98.2486 83.3042 98.2393V98.2204C83.3042 98.0496 83.3042 97.8694 83.3042 97.6955C83.2229 94.2681 79.9253 93.5852 77.1184 93.5852C75.8007 93.6049 74.4879 93.7542 73.1988 94.031L72.5236 95.1345L72.258 95.5581L71.3202 97.0758L67.8539 103.358L66.838 101.022L66.7755 100.879L65.4158 97.7524H65.2752L58.2986 97.7208L48.6621 97.6987Z" fill="#EC7580"/>
<path opacity="0.5" d="M50.1191 101.714C50.1191 101.686 50.1034 101.654 50.0941 101.623C49.7574 100.36 49.2748 99.1414 48.6562 97.9928H48.8157L58.5053 98.0402L65.2787 98.0718H65.4162L66.7259 101.079L66.7822 101.211L66.8447 101.354L67.8605 103.687L71.3269 97.4079L71.3644 97.3478L72.0333 96.257L72.3459 95.7321L72.5115 95.4602L73.1867 94.3568C73.1867 94.3568 73.7931 94.2145 74.7058 94.0912L75.0184 94.0501C75.2622 94.0216 75.5185 93.9932 75.7904 93.971L76.0467 93.9521H76.0811L76.5749 93.9268C76.7187 93.9268 76.8625 93.9268 77.0094 93.9268C77.4345 93.9268 77.8721 93.9268 78.3097 93.9615L78.6535 93.9932C79.5663 94.0669 80.4576 94.3113 81.2822 94.714C81.3436 94.7429 81.4031 94.7757 81.4604 94.8121C81.6654 94.9294 81.859 95.0659 82.0387 95.2199C82.1105 95.28 82.1793 95.3432 82.2481 95.4096C82.4272 95.5636 82.5896 95.7363 82.7326 95.925C82.8233 96.0626 82.9027 96.2075 82.9701 96.3582C83.0426 96.5156 83.1032 96.6784 83.1514 96.8451C83.2034 97.0223 83.2431 97.2029 83.2702 97.3857C83.2986 97.5848 83.3153 97.7854 83.3202 97.9865C83.3202 98.0624 83.3202 98.1382 83.3202 98.211V98.2394C83.3217 98.2429 83.3224 98.2467 83.3224 98.2505C83.3224 98.2543 83.3217 98.258 83.3202 98.2616C83.3202 98.4354 83.3202 98.6093 83.3202 98.7769C83.3202 98.8939 83.3202 99.0109 83.3202 99.1247C83.3218 99.1276 83.3227 99.1309 83.3227 99.1342C83.3227 99.1375 83.3218 99.1408 83.3202 99.1437C83.3202 99.2354 83.3202 99.3239 83.3046 99.4156C83.2889 99.5073 83.3046 99.6243 83.2827 99.7318C83.2608 99.8393 83.2827 99.9404 83.2546 100.048C82.9891 102.599 82.0807 105.039 80.6165 107.133L80.4352 107.102L70.3079 105.271L62.6281 103.883L55.9641 102.679L54.9451 102.495L50.1972 101.635C50.1972 101.673 50.2191 101.711 50.2285 101.749L50.1191 101.714Z" fill="#EC7580"/>
<path opacity="0.5" d="M84.0312 96.532C84.2357 97.2574 84.4873 97.9682 84.7845 98.6599L84.8752 98.8749C86.6659 102.995 89.4389 106.602 92.9457 109.372L110.522 112.534C109.207 111.498 107.836 110.538 106.414 109.66L97.7499 103.829L91.8674 94.7362L91.7486 94.5528L90.0982 92.0012L84.0312 96.532Z" fill="#FDC2CC"/>
<path opacity="0.1" d="M91.8689 94.7422C91.7942 94.8317 91.695 94.8969 91.5837 94.9295C91.4725 94.9621 91.3543 94.9608 91.2438 94.9256C88.3556 94.4861 85.0362 98.7198 85.0362 98.7198L84.8674 98.8747C84.5304 98.1154 84.2483 97.3324 84.0234 96.5318L90.0873 92.0042L91.8689 94.7422Z" fill="black"/>
<path opacity="0.1" d="M83.2323 100.051C81.8726 100.816 80.0066 101.366 78.5438 99.8896C76.0245 97.3413 71.611 97.6764 71.3359 97.6985C71.786 97.6353 72.1861 96.6994 72.5268 95.4442L73.202 94.3407C73.202 94.3407 83.1667 92.0042 83.3105 97.9926C83.3281 98.6797 83.302 99.3672 83.2323 100.051Z" fill="black"/>
<path opacity="0.1" d="M78.0062 87.1289L77.1029 93.7686L75.0649 97.7872C73.8021 97.4604 72.4962 97.3366 71.1953 97.4205C72.6331 97.2213 73.5583 88.1438 73.5583 88.1438L73.6396 88.1249L78.0062 87.1289Z" fill="black"/>
<path opacity="0.5" d="M91.2517 94.6317C88.3635 94.1922 85.044 98.4258 85.044 98.4258C85.044 98.4258 81.1463 102.22 78.5457 99.5957C76.0264 97.0473 71.613 97.3824 71.3379 97.4046C72.7757 97.2054 73.7009 88.1279 73.7009 88.1279L73.7822 88.109L87.6384 84.9915C87.6384 84.9915 88.4635 86.272 89.3981 87.9034C91.0829 90.8439 93.1115 94.9162 91.2517 94.6317Z" fill="#EC7580"/>
<path opacity="0.1" d="M87.7896 88.7919C87.9333 89.0828 85.4797 90.5435 84.3232 90.1072C83.1667 89.6709 80.2816 92.0043 79.991 92.2983C79.7003 92.5924 73.2051 91.8588 73.2051 91.8588C73.4746 90.6232 73.6687 89.3719 73.7865 88.1121L87.6426 84.9946C87.6426 84.9946 88.4678 86.2752 89.4024 87.9066C88.5397 88.2607 87.7177 88.6528 87.7896 88.7919Z" fill="black"/>
<path opacity="0.1" d="M79.4131 76.8151L78.0065 87.1288L77.3439 91.9758C75.4091 91.8304 73.0586 91.5648 73.0586 91.5648C73.0586 91.5648 75.5122 81.1942 71.4707 75.7907L71.7114 75.7749C73.9806 79.5943 79.4131 76.8151 79.4131 76.8151Z" fill="black"/>
<path opacity="0.5" d="M71.6172 75.7908C71.6172 75.7908 78.9813 75.2059 81.8695 77.2515C84.7576 79.2972 88.946 85.431 88.946 85.431L91.2559 86.8918C91.2559 86.8918 87.6457 88.2071 87.7895 88.4979C87.9333 88.7888 85.4796 90.2496 84.3231 89.8132C83.1666 89.3769 80.2816 91.7103 79.9909 92.0043C79.7002 92.2984 73.205 91.5648 73.205 91.5648C73.205 91.5648 75.6587 81.1943 71.6172 75.7908Z" fill="#EC7580"/>
<path opacity="0.5" d="M38.7871 99.5798L47.7141 101.192L48.8268 101.395L48.7893 101.278C48.528 100.422 48.1424 99.6098 47.6453 98.8684C44.901 95.0743 38.8371 98.8684 38.8371 98.8684C38.8371 98.8684 38.8152 99.1213 38.7871 99.5798Z" fill="#FDC2CC"/>
<path opacity="0.1" d="M38.7871 99.5798L47.7141 101.192L48.8268 101.395L48.7893 101.278C48.528 100.422 48.1424 99.6098 47.6453 98.8684C44.901 95.0743 38.8371 98.8684 38.8371 98.8684C38.8371 98.8684 38.8152 99.1213 38.7871 99.5798Z" fill="black"/>
<path opacity="0.1" d="M50.1191 101.714C50.1191 101.686 50.1034 101.654 50.0941 101.622C49.7574 100.36 49.2748 99.1412 48.6562 97.9927H48.8157L58.5053 98.0401L65.2787 98.0717L66.7196 101.082L66.7822 101.211L66.8509 101.35C66.754 101.369 65.4569 101.619 62.9594 101.056C62.1875 100.858 61.3804 100.845 60.6027 101.018C59.543 101.265 58.8085 101.86 57.9052 102.223C57.2714 102.447 56.6152 102.6 55.9485 102.678L54.9295 102.495L50.1816 101.635C50.1816 101.673 50.2035 101.711 50.2128 101.749L50.1191 101.714Z" fill="black"/>
<path opacity="0.5" d="M32.6758 98.4733L38.7865 99.5799L47.7135 101.192C48.074 101.177 48.435 101.206 48.7887 101.278C49.1175 101.343 49.4398 101.438 49.7514 101.562C49.8765 101.609 49.9984 101.659 50.1172 101.714L50.2047 101.752C50.2047 101.714 50.1859 101.676 50.1734 101.638L54.912 102.498C55.9242 102.445 56.9249 102.256 57.8876 101.935C58.7409 101.591 59.4505 101.041 60.4101 100.772C61.2404 100.555 62.1116 100.555 62.9419 100.772C65.0611 101.249 66.3176 101.142 66.7083 101.088C66.7484 101.086 66.7882 101.079 66.8271 101.069L66.7583 100.927L65.3987 98.0812L65.2611 97.7872L62.5199 92.0675L62.3761 91.7513L60.6414 88.1343H60.5257L51.9644 88.7287L51.3612 88.773L50.2265 88.852H49.9671L36.3797 89.8005L35.492 91.8747L35.4139 92.058L32.6758 98.4733Z" fill="#EC7580"/>
<path opacity="0.1" d="M62.9514 94.05C61.3636 91.4194 52.9867 93.7591 52.9867 93.7591C52.9867 93.7591 48.9452 94.9289 48.0763 92.7378C47.2073 90.5467 40.9997 92.0075 40.9997 92.0075C40.9997 92.0075 36.5018 93.7148 35.4141 92.077L36.3799 89.8164L60.529 88.1406L62.9514 94.05Z" fill="black"/>
<path opacity="0.5" d="M56.0193 76.8151C56.0193 76.8151 48.077 75.2089 44.323 77.2546C40.569 79.3002 37.6809 83.8279 37.6809 83.8279L32.1953 88.9373C32.1953 88.9373 34.3614 89.9586 35.371 91.7133C36.3806 93.4681 40.9973 91.7133 40.9973 91.7133C40.9973 91.7133 47.2049 90.2526 48.0738 92.4437C48.9428 94.6348 52.9843 93.465 52.9843 93.465C52.9843 93.465 61.358 91.1284 62.949 93.7558L56.0193 76.8151Z" fill="#EC7580"/>
<path opacity="0.1" d="M65.1752 39.3862C64.1 39.2028 62.9872 39.0258 61.9276 39.2597C60.1679 39.6455 58.8269 41.0872 57.8392 42.6112C56.8515 44.1352 56.0857 45.8204 54.8667 47.1578C54.0509 48.0558 53.0475 48.7766 52.3224 49.7473C51.2534 51.1764 50.8814 53.0039 50.5376 54.7619C50.0312 57.345 49.5249 59.9725 49.7499 62.5967C49.8624 63.9152 50.1594 65.2147 50.2282 66.5363C50.3688 69.1985 49.603 71.8165 48.8216 74.368C48.2902 76.1323 47.7401 77.9281 46.6899 79.4268C45.952 80.3942 45.1354 81.2973 44.2487 82.127C44.0435 82.3037 43.8891 82.533 43.8017 82.7909C43.6173 83.5466 44.5175 84.0556 45.2052 84.394C47.3088 85.4563 48.6903 87.5273 50.3251 89.2315C51.9598 90.9357 54.3009 92.3932 56.5514 91.7198C57.2172 91.5174 57.8517 91.1285 58.5488 91.1412C59.0201 91.1854 59.4813 91.306 59.9147 91.4985C61.0192 91.8912 62.1822 92.0891 63.3529 92.0834C63.6125 92.1038 63.8723 92.0466 64.1 91.919C64.4469 91.6818 64.5157 91.2012 64.5501 90.7776C64.7689 88.1248 64.9877 85.4626 64.8408 82.8036C64.5063 76.7962 59.0082 69.8245 61.0899 64.1744C61.9995 61.7114 63.6624 59.5899 64.5813 57.1332C65.5503 54.5405 68.9573 52.438 69.6481 49.7536C69.6907 49.4416 69.8494 49.1577 70.0919 48.96C70.4514 48.7355 70.9202 48.9316 71.2703 49.175C73.2364 50.5472 73.8772 53.1272 74.5929 55.4353C75.1698 57.2926 75.8845 59.1031 76.7309 60.8514C77.1904 61.8 78.2031 62.8939 79.0814 62.3185C78.6376 66.3055 76.0808 69.7866 75.5025 73.7578C74.9399 77.6246 76.3058 81.5768 75.7744 85.4563C75.428 87.9535 74.3125 90.2768 72.5862 92.096C74.5317 92.487 76.5324 92.5052 78.4844 92.1498C80.463 91.7893 82.5822 90.8408 83.2949 88.9374C84.0794 86.8443 82.8698 84.5995 82.2571 82.4463C80.7881 77.2737 80.9006 71.1588 81.3663 65.7964C81.8446 60.2855 82.5666 55.4575 81.3476 50.0635C81.0949 48.7289 80.6998 47.426 80.1692 46.1777C78.9627 43.5977 76.4809 41.7512 73.7584 41.1188C72.3581 40.7837 70.9234 41.3022 69.6168 41.0556C68.9604 40.9323 68.3666 40.2936 67.7414 40.0344C66.9113 39.7263 66.051 39.509 65.1752 39.3862Z" fill="black"/>
<path opacity="0.5" d="M83.2914 88.6338C82.5756 90.5309 80.4595 91.4794 78.4809 91.8462C76.5288 92.2008 74.5282 92.1826 72.5827 91.7924C74.309 89.9732 75.4245 87.6499 75.7709 85.1527C76.3023 81.2795 74.9364 77.3273 75.499 73.4542C76.0772 69.483 78.6247 66.0019 79.0779 62.0149C78.1996 62.5903 77.1869 61.4964 76.7243 60.5478C75.8773 58.8015 75.1616 56.9931 74.5832 55.1381C73.8674 52.8331 73.2266 50.25 71.2605 48.8809C70.9136 48.6375 70.4447 48.4414 70.0853 48.6691C69.8423 48.8663 69.6834 49.1504 69.6414 49.4627C68.9632 52.147 65.5437 54.2528 64.5747 56.8423C63.6526 59.299 61.9929 61.4205 61.0833 63.8867C58.9985 69.5336 64.4997 76.4958 64.8341 82.5126C64.981 85.1717 64.7622 87.8339 64.5434 90.4866C64.5059 90.9103 64.4403 91.3909 64.0933 91.628C63.8698 91.7623 63.6122 91.8272 63.3525 91.8146C62.1817 91.821 61.0186 91.6231 59.9143 91.2296C59.4818 91.0375 59.0217 90.9169 58.5515 90.8723C57.8545 90.8723 57.2231 91.2486 56.5573 91.4478C54.3068 92.1339 51.9656 90.6668 50.3309 88.9595C48.6962 87.2521 47.3146 85.1812 45.211 84.122C44.5234 83.7742 43.6232 83.2746 43.8076 82.519C43.8953 82.2613 44.0497 82.032 44.2546 81.855C45.1423 81.0254 45.9599 80.1222 46.6989 79.1548C47.7491 77.6498 48.2961 75.854 48.8306 74.096C49.5995 71.5445 50.3934 68.9297 50.2371 66.2643C50.1684 64.9427 49.8714 63.6464 49.7589 62.3279C49.5339 59.7037 50.0433 57.0794 50.5466 54.4962C50.8904 52.7351 51.2624 50.9108 52.3314 49.4817C53.0596 48.511 54.0599 47.7901 54.8757 46.8922C56.0947 45.5516 56.8605 43.8664 57.8482 42.3424C58.8359 40.8184 60.1768 39.3798 61.9366 38.9909C63.0025 38.757 64.1246 38.934 65.1842 39.1174C66.0542 39.236 66.9092 39.448 67.7348 39.7497C68.3755 40.009 68.9663 40.6477 69.6102 40.7678C70.9167 41.0145 72.3514 40.4959 73.7517 40.8311C76.4711 41.4792 78.9529 43.3257 80.1625 45.8899C80.3982 46.4016 80.5967 46.9299 80.7564 47.4708C80.9877 48.2264 81.1628 49.0042 81.3378 49.7757C81.3753 49.9401 81.4128 50.0919 81.4441 50.2658C82.5131 55.4005 81.8223 59.1409 81.3565 64.4937C80.8908 69.8466 80.7752 76.9922 82.2474 82.1648C82.8631 84.2959 84.0759 86.5407 83.2914 88.6338Z" fill="#865A61"/>
<path opacity="0.05" d="M66.6348 97.9199C66.6348 97.9199 67.7913 99.817 67.7913 101.132C67.7913 101.132 68.6571 97.9199 69.3791 97.9199H66.6348Z" fill="black"/>
</g>
<path d="M161.454 203.248L201.4 199.096L201.891 207.055L183.631 208.888C182.373 208.992 181.107 208.892 179.88 208.594L161.423 203.77C161.363 203.755 161.31 203.719 161.274 203.669C161.237 203.619 161.219 203.558 161.223 203.495C161.227 203.433 161.252 203.375 161.294 203.329C161.336 203.284 161.393 203.255 161.454 203.248Z" fill="#535461"/>
<path opacity="0.2" d="M161.454 203.248L201.4 199.096L201.891 207.055L183.631 208.888C182.373 208.992 181.107 208.892 179.88 208.594L161.423 203.77C161.363 203.755 161.31 203.719 161.274 203.669C161.237 203.619 161.219 203.558 161.223 203.495C161.227 203.433 161.252 203.375 161.294 203.329C161.336 203.284 161.393 203.255 161.454 203.248Z" fill="black"/>
<path d="M161.454 203.084L201.729 198.932L202.219 206.903L183.959 208.405C182.701 208.508 181.435 208.409 180.208 208.111L161.423 203.618C161.353 203.614 161.287 203.581 161.241 203.528C161.194 203.475 161.17 203.406 161.174 203.335C161.178 203.264 161.21 203.198 161.263 203.151C161.315 203.103 161.384 203.079 161.454 203.084Z" fill="#535461"/>
<path opacity="0.3" d="M171.005 203.365L192.3 201.171L192.559 205.379L182.904 206.173C182.239 206.228 181.569 206.175 180.919 206.018L170.986 203.643C170.968 203.642 170.95 203.637 170.934 203.629C170.918 203.621 170.903 203.61 170.891 203.596C170.879 203.582 170.87 203.566 170.865 203.549C170.859 203.531 170.857 203.513 170.858 203.495C170.859 203.476 170.864 203.458 170.872 203.442C170.88 203.426 170.891 203.411 170.905 203.399C170.918 203.387 170.934 203.378 170.951 203.372C170.968 203.366 170.987 203.364 171.005 203.365Z" fill="white"/>
<path d="M193.583 158.364L234.842 157.731C235.375 157.785 235.891 157.946 236.362 158.205C236.832 158.463 237.247 158.814 237.581 159.236C237.916 159.659 238.164 160.145 238.311 160.665C238.458 161.186 238.501 161.731 238.437 162.268L233.748 201.692C233.636 202.639 233.199 203.515 232.514 204.169C231.828 204.823 230.938 205.213 229.998 205.272L187.801 207.915C187.203 207.951 186.606 207.852 186.051 207.625C185.496 207.398 184.999 207.048 184.594 206.602C184.19 206.156 183.889 205.625 183.713 205.046C183.537 204.467 183.491 203.856 183.578 203.257L189.179 161.838C189.326 160.795 189.867 159.851 190.689 159.203C191.51 158.555 192.547 158.254 193.583 158.364Z" fill="#535461"/>
<path opacity="0.2" d="M193.583 158.364L234.842 157.731C235.375 157.785 235.891 157.946 236.362 158.205C236.832 158.463 237.247 158.814 237.581 159.236C237.916 159.659 238.164 160.145 238.311 160.665C238.458 161.186 238.501 161.731 238.437 162.268L233.748 201.692C233.636 202.639 233.199 203.515 232.514 204.169C231.828 204.823 230.938 205.213 229.998 205.272L187.801 207.915C187.203 207.951 186.606 207.852 186.051 207.625C185.496 207.398 184.999 207.048 184.594 206.602C184.19 206.156 183.889 205.625 183.713 205.046C183.537 204.467 183.491 203.856 183.578 203.257L189.179 161.838C189.326 160.795 189.867 159.851 190.689 159.203C191.51 158.555 192.547 158.254 193.583 158.364Z" fill="black"/>
<path d="M193.911 158.364L235.171 157.731C235.703 157.785 236.22 157.946 236.69 158.205C237.16 158.463 237.575 158.814 237.909 159.236C238.244 159.659 238.492 160.145 238.639 160.665C238.786 161.186 238.829 161.731 238.765 162.268L234.077 201.692C233.964 202.639 233.527 203.515 232.842 204.169C232.157 204.823 231.266 205.213 230.326 205.272L188.129 207.915C187.532 207.951 186.934 207.852 186.379 207.625C185.824 207.398 185.327 207.048 184.922 206.602C184.518 206.156 184.217 205.625 184.041 205.046C183.865 204.467 183.819 203.856 183.906 203.257L189.507 161.838C189.654 160.795 190.196 159.851 191.017 159.203C191.838 158.555 192.876 158.254 193.911 158.364Z" fill="#535461"/>
<path opacity="0.3" d="M214.103 182.766C215.189 182.766 216.069 181.876 216.069 180.777C216.069 179.679 215.189 178.789 214.103 178.789C213.017 178.789 212.137 179.679 212.137 180.777C212.137 181.876 213.017 182.766 214.103 182.766Z" fill="white"/>
<path opacity="0.2" d="M178.452 208.3C178.588 208.3 178.699 208.189 178.699 208.051C178.699 207.913 178.588 207.801 178.452 207.801C178.316 207.801 178.205 207.913 178.205 208.051C178.205 208.189 178.316 208.3 178.452 208.3Z" fill="black"/>
</g>
<defs>
<clipPath id="clip0">
<rect width="338" height="226" fill="white"/>
</clipPath>
</defs>
</svg>
