<svg width="179" height="193" viewBox="0 0 179 193" fill="none" xmlns="http://www.w3.org/2000/svg">
<g clip-path="url(#clip0)">
<path d="M33.6348 30.7301L36.5324 29.6023L37.2935 31.2728L37.6452 35.2649L36.9969 35.7388L33.6348 30.7301Z" fill="black"/>
<path d="M47.714 38.5925L44.4043 40.5224L47.8819 45.6953L48.693 45.0996L49.1969 40.9937L47.714 38.5925Z" fill="black"/>
<g opacity="0.05">
<path opacity="0.05" d="M54.6561 14.4941C53.9894 15.5107 53.3674 16.612 53.1758 17.385L53.7007 17.0197C53.6351 16.4452 54.0682 15.4922 54.6561 14.4941Z" fill="black"/>
<path opacity="0.05" d="M57.6403 28.3289L58.0052 20.5908C49.8688 25.7981 37.9635 30.55 37.9635 30.55L37.3887 31.4686C37.3887 31.4686 49.3071 26.7167 57.4304 21.5094L57.0892 28.7975L57.6403 28.3289Z" fill="black"/>
</g>
<g opacity="0.5">
<path opacity="0.5" d="M36.3408 36.1148L37.0075 35.625L36.6479 31.5138L35.8631 29.7957L32.8789 30.9578L36.3408 36.1148Z" fill="url(#paint0_linear)"/>
<path opacity="0.5" d="M81.7786 0.497667C79.965 -0.381242 78.6081 0.0317391 77.6579 0.762399C76.8098 1.40664 76.1475 2.26752 75.7393 3.25617L75.4769 3.95771L74.2485 4.8578L73.8496 3.99742C73.8496 3.99742 69.5006 -3.79628 56.6714 11.4231L56.6136 11.3755C56.6136 11.3755 55.5218 12.723 54.527 14.2346L54.3853 14.4517L54.3223 14.5496L54.2331 14.6899L54.1675 14.7958L54.0677 14.9626L53.9811 15.1056L53.8893 15.2618L53.8236 15.3756L53.7554 15.4947L53.6898 15.6139L53.6215 15.7409L53.5218 15.9315L53.4667 16.0374L53.4063 16.1618L53.3617 16.2571L53.304 16.3816L53.2672 16.4636C53.2357 16.5378 53.206 16.6101 53.178 16.6807L53.1465 16.7628L53.1045 16.8793L53.0783 16.9587C53.059 17.0187 53.0415 17.0778 53.0258 17.1361C53.0258 17.1678 53.0074 17.1969 53.0021 17.2261C52.9507 17.412 52.9312 17.6054 52.9444 17.7979L35.8633 29.7876L36.7399 31.7095C36.7399 31.7095 49.0153 26.8173 57.3827 21.4512L57.031 28.9563L57.0099 29.4196C57.0099 29.4196 49.367 35.8023 47.3775 39.0532L43.9655 41.0413L47.5481 46.3677L48.3828 45.7562L48.9077 41.5205L62.9311 30.2138C62.9311 30.2138 65.5899 25.3136 65.6371 21.2129L66.2119 23.4499C66.2119 23.4499 67.435 26.9152 68.2985 27.0529C69.162 27.1906 69.1646 24.3659 68.561 23.5267C67.9573 22.6875 68.2408 17.0805 68.2408 17.0805L68.3982 15.9395L70.5924 14.3299L70.6738 14.2531L70.7893 14.9573L71.2302 14.997V15.0288L71.2512 15.2326L71.5347 20.5776L73.0884 26.624C73.0884 26.624 74.3115 30.0894 75.175 30.227C76.0385 30.3647 76.0412 27.54 75.4375 26.7008C74.8338 25.8616 75.1199 20.2572 75.1199 20.2572L75.7603 15.59V15.5L75.7735 15.3968L77.0359 15.508C77.0359 15.508 78.3482 10.9572 76.1514 8.97438L75.7525 8.114L76.5713 7.51571L76.7367 7.39658C77.4307 8.08134 78.3629 8.46479 79.3338 8.46479C80.3046 8.46479 81.2368 8.08134 81.9308 7.39658C82.5448 7.45417 83.1591 7.28896 83.6631 6.93065L83.9807 6.70033C84.3224 6.48151 84.6309 6.21401 84.8967 5.90614C85.1198 5.48786 84.587 1.85574 81.7786 0.497667Z" fill="url(#paint1_linear)"/>
</g>
<path d="M56.6923 11.7197C56.6923 11.7197 52.9575 16.3261 53.1333 17.9409L36.5352 29.6024L37.3855 31.4687C37.3855 31.4687 49.304 26.7168 57.4272 21.5095L57.065 29.2582C57.065 29.2582 49.6452 35.445 47.7161 38.6032L49.199 41.0044L62.8156 30.0259C62.8156 30.0259 66.8549 22.5817 64.9153 18.5207L56.6923 11.7197Z" fill="#535461"/>
<path d="M176.321 124.562C164.366 172.923 115.799 202.358 67.8421 190.297C19.8848 178.236 -9.28013 129.247 2.68295 80.881C14.646 32.5145 63.1991 3.07633 111.141 15.1349C159.082 27.1934 188.276 76.1873 176.321 124.562Z" fill="#4452FE" fill-opacity="0.69"/>
<path d="M128.963 89.8553C130.746 77.8418 121.677 71.385 109.279 67.0884L113.302 50.8153L103.481 48.3454L99.5623 64.1763C96.9797 63.5277 94.3288 62.9162 91.6884 62.3073L95.6254 46.3572L85.825 43.8926L81.7988 60.1603C79.6623 59.6706 77.5626 59.1835 75.5285 58.6725V58.6223L61.9933 55.2019L59.3687 65.7912C59.3687 65.7912 66.6546 67.4749 66.5024 67.5808C70.4787 68.5815 71.1979 71.2367 71.0798 73.3413L66.4972 91.8725C66.8443 91.9601 67.1854 92.0706 67.5181 92.2035C67.1901 92.1214 66.841 92.0314 66.4683 91.9387L60.0458 117.909C59.5603 119.127 58.3267 120.956 55.5446 120.262C55.6417 120.405 48.4056 118.465 48.4056 118.465L43.5684 129.817L56.3346 133.033C58.7125 133.634 61.0432 134.264 63.3371 134.854L59.2742 151.299L69.085 153.769L73.1112 137.486C75.791 138.219 78.392 138.897 80.9379 139.535L76.9274 155.744L86.7488 158.214L90.8118 141.793C107.56 144.988 120.153 143.699 125.457 128.421C129.727 116.119 125.244 109.024 116.433 104.397C122.832 102.907 127.675 98.6497 128.963 89.8553ZM106.525 121.591C103.491 133.893 82.9562 127.243 76.3002 125.562L81.6938 103.756C88.3499 105.445 109.709 108.762 106.525 121.591ZM109.562 89.6753C106.793 100.865 89.7016 95.179 84.1583 93.7866L89.048 73.9979C94.5939 75.4036 112.447 78.0059 109.562 89.6753Z" fill="white"/>
<path d="M70.7305 12.5032L71.1609 20.6569L72.6675 26.526C72.6675 26.526 73.8538 29.8907 74.6937 30.0231C75.5336 30.1555 75.5362 27.4129 74.9561 26.5975C74.3761 25.7821 74.6543 20.3419 74.6543 20.3419L75.5887 13.4191L70.7305 12.5032Z" fill="#FDA57D"/>
<path d="M70.2305 13.8693L70.4483 15.193L76.5217 15.7225C76.5217 15.7225 77.792 11.3041 75.6608 9.3689L70.2305 13.8693Z" fill="#F55F44"/>
<path d="M75.6606 9.38744L73.4165 4.55608C73.4165 4.55608 69.1777 -3.03907 56.6582 11.86L64.9153 18.5101L70.2591 14.5921L75.6606 9.38744Z" fill="#F55F44"/>
<path d="M77.4297 2.73779L79.4265 5.50883L75.0677 8.70418C74.7636 8.92709 74.3842 9.01903 74.013 8.95979C73.6417 8.90054 73.309 8.69497 73.088 8.38827L72.7593 7.93214C72.5383 7.62545 72.4471 7.24277 72.5059 6.86829C72.5646 6.49381 72.7684 6.15819 73.0725 5.93528L77.4312 2.73994L77.4297 2.73779Z" fill="#FDA57D"/>
<path opacity="0.05" d="M75.1116 4.43693C74.9408 5.05821 74.9393 5.71449 75.1075 6.33652C75.2756 6.95855 75.6071 7.52327 76.067 7.9711L78.1273 6.45948L76.13 3.68774L75.1116 4.43693Z" fill="black"/>
<path d="M80.8619 8.18934C82.4718 7.00912 82.8304 4.73886 81.6628 3.11858C80.4953 1.49829 78.2437 1.14154 76.6338 2.32176C75.0239 3.50198 74.6652 5.77224 75.8328 7.39253C77.0003 9.01282 79.2519 9.36956 80.8619 8.18934Z" fill="#FDA57D"/>
<path opacity="0.05" d="M77.0794 3.11588L74.998 4.51895L75.2605 3.83595C75.2605 3.83595 76.9718 -0.664492 80.9612 1.27599C83.6882 2.59965 84.2053 6.12058 83.9979 6.52297C83.6901 6.86068 83.3367 7.15299 82.9481 7.39129C82.4361 7.75724 81.8068 7.91622 81.1842 7.83682C80.5617 7.75741 79.9914 7.4454 79.5859 6.96243C78.8878 6.12323 77.6699 4.38659 77.893 3.3912C77.6883 3.01528 77.4206 2.86173 77.0768 3.12647L77.0794 3.11588Z" fill="black"/>
<path d="M77.2434 2.99674L75.1621 4.39981L75.4246 3.71681C75.4246 3.71681 77.1358 -0.783633 81.1253 1.15685C83.8523 2.48051 84.3693 6.00144 84.162 6.40383C83.8542 6.74154 83.5007 7.03385 83.1121 7.27215C82.6002 7.6381 81.9708 7.79708 81.3483 7.71768C80.7258 7.63827 80.1555 7.32626 79.75 6.84329C79.0518 6.00409 77.834 4.26745 78.0571 3.27206C77.8524 2.89614 77.5846 2.74259 77.2408 3.00732L77.2434 2.99674Z" fill="#5A2F32"/>
<path d="M77.9454 3.22992C78.3035 2.96682 78.4884 2.60762 78.3584 2.4276C78.2284 2.24759 77.8327 2.31495 77.4746 2.57805C77.1165 2.84115 76.9316 3.20037 77.0615 3.38038C77.1915 3.56039 77.5872 3.49302 77.9454 3.22992Z" fill="#FDA57D"/>
<path opacity="0.05" d="M69.5605 14.4835L70.5133 13.6602L70.5238 14.96L70.3164 14.4596L69.5605 14.4835Z" fill="black"/>
<path opacity="0.05" d="M70.8672 15.2671L70.8882 15.4683L75.2687 15.8124L75.2949 15.6245L70.8672 15.2671Z" fill="black"/>
<path d="M64.0586 9.42456L64.489 17.5783L65.9956 23.4342C65.9956 23.4342 67.1819 26.7989 68.0218 26.9313C68.8617 27.0636 68.8643 24.321 68.2842 23.5056C67.7042 22.6903 67.9772 17.2633 67.9772 17.2633L68.9273 10.3405L64.0586 9.42456Z" fill="#FDA57D"/>
<path d="M99.7926 71.6814H99.3359V72.142H99.7926V71.6814Z" fill="#CCCCCC"/>
<path d="M99.0406 72.375H100.169C100.25 72.375 100.33 72.3911 100.405 72.4224C100.48 72.4536 100.548 72.4994 100.605 72.5572C100.663 72.615 100.708 72.6836 100.739 72.759C100.77 72.8345 100.786 72.9154 100.786 72.9971V76.8331H98.4238V72.9971C98.4238 72.9154 98.4398 72.8345 98.4708 72.759C98.5018 72.6836 98.5472 72.615 98.6045 72.5572C98.6618 72.4994 98.7297 72.4536 98.8046 72.4224C98.8794 72.3911 98.9596 72.375 99.0406 72.375Z" fill="#535461"/>
<path d="M100.254 72.0679H98.8809V72.375H100.254V72.0679Z" fill="#F7931A"/>
<path d="M100.786 74.1406H98.4238V75.0619H100.786V74.1406Z" fill="#F7931A"/>
<path d="M99.7968 71.7581V71.9884C99.7128 71.9884 99.6445 71.9354 99.6445 71.8719C99.6445 71.8084 99.7128 71.7581 99.7968 71.7581Z" fill="#E6E6E6"/>
<path opacity="0.05" d="M64.5419 5.45874C64.5419 5.45874 63.5393 8.18812 63.9644 9.11998L64.5419 5.45874Z" fill="black"/>
<path opacity="0.05" d="M64.0807 9.28418L64.0781 9.78982L68.8891 10.6052L68.9468 10.2002L64.0807 9.28418Z" fill="black"/>
<path d="M65.1662 5.12512L64.0586 9.42436L68.9247 10.3403L70.2107 4.91333L65.1662 5.12512Z" fill="#F55F44"/>
<g opacity="0.5">
<path opacity="0.5" d="M65.002 20.0164L65.9599 23.675C65.9599 23.675 67.1962 27.1165 68.0597 27.2462C68.9232 27.3759 68.9363 24.5803 68.3221 23.7491C67.9993 23.3123 67.9311 21.5703 67.9363 20.0164H65.002Z" fill="url(#paint2_linear)"/>
</g>
<path d="M65.0781 20.0164L65.9994 23.5982C65.9994 23.5982 67.1857 26.9629 68.0256 27.0953C68.8655 27.2276 68.8681 24.485 68.288 23.6697C67.9783 23.2408 67.9127 21.5359 67.918 20.0164H65.0781Z" fill="#FDA57D"/>
<g opacity="0.5">
<path opacity="0.5" d="M74.8202 19.8655H70.9883L71.0408 20.8344L72.6366 26.8756C72.6366 26.8756 73.8937 30.3383 74.7809 30.4759C75.668 30.6136 75.6706 27.7889 75.0433 26.9523C74.416 26.1158 74.731 20.522 74.731 20.522L74.8202 19.8655Z" fill="url(#paint3_linear)"/>
</g>
<path d="M74.7333 19.8655H71.1113L71.1612 20.8079L72.6677 26.677C72.6677 26.677 73.8541 30.0418 74.694 30.1741C75.5338 30.3065 75.5365 27.5639 74.9564 26.7485C74.3764 25.9331 74.6546 20.4929 74.6546 20.4929L74.7333 19.8655Z" fill="#FDA57D"/>
<path opacity="0.2" d="M99.7363 71.7424L106.298 70.4187L106.56 73.5955L99.7363 72.0071V71.7424Z" fill="#535461"/>
<g opacity="0.5">
<path opacity="0.5" d="M89.8366 72.7218L90.0177 72.8012L95.7919 75.3082L103.149 66.5059C103.149 66.5059 104.264 65.2484 102.936 64.388C101.608 63.5277 100.773 65.7541 100.773 65.7541L95.12 71.8799L90.3169 69.4577L90.393 68.9494L86.0151 66.3974C85.9302 66.2366 85.8374 66.0802 85.7369 65.9288L85.6975 65.7858L85.4797 65.5926C85.4377 65.5476 85.3957 65.5052 85.3537 65.4681L86.0781 64.674C86.6171 64.8645 87.191 64.9332 87.7593 64.8752C88.3275 64.8173 88.8762 64.6341 89.3664 64.3386C89.8567 64.0431 90.2766 63.6425 90.5964 63.1653C90.9162 62.688 91.1281 62.1456 91.2171 61.5766C91.5562 61.6417 91.9043 61.6417 92.2434 61.5766C92.6891 61.482 93.1056 61.2802 93.4574 60.9885C93.8092 60.6967 94.0861 60.3236 94.2643 59.9008C94.2494 59.9293 94.2281 59.954 94.2021 59.9728C94.1762 59.9916 94.1463 60.0041 94.1147 60.0094C94.171 59.9103 94.221 59.8078 94.2643 59.7023C94.1147 60.0676 92.7158 59.5646 92.5058 59.4376C91.8654 59.0934 91.5347 58.5851 91.1935 57.9604C90.54 56.7267 89.3326 56.2714 87.9731 56.1628C86.9343 56.0494 85.8835 56.1827 84.9049 56.552C84.4174 56.74 83.9738 57.0279 83.602 57.3974C83.2302 57.7669 82.9384 58.21 82.7448 58.699C82.6278 59.0345 82.5743 59.3892 82.5873 59.7447C82.5651 60.1253 82.6276 60.5062 82.7702 60.8593C82.9128 61.2125 83.1319 61.529 83.4115 61.7857C83.4592 61.8272 83.5092 61.8661 83.5611 61.9022C83.5899 62.016 83.6214 62.1272 83.6608 62.2384L83.4692 62.4476L82.2251 63.8083L82.1621 63.7898L69.0573 65.7673V65.7938C68.6217 65.5026 66.6479 64.4913 61.7215 65.8652C59.8606 66.3947 56.7609 66.3285 53.4329 66.0188C51.1075 63.1014 49.6062 54.0159 49.6062 54.0159L49.0183 51.4453L41.3885 53.2243C41.3885 53.2243 44.9081 54.0185 45.496 55.0033C46.391 55.3051 46.9448 62.0478 47.1574 65.2299C42.5879 64.5178 38.8452 63.7024 38.8452 63.7024L36.1077 62.7149L34.1523 69.635C34.1523 69.635 36.3045 67.2524 38.2599 67.0645C38.2599 67.0645 48.0393 71.8085 55.278 70.821C58.0969 70.4372 60.8213 71.639 63.1021 72.007C65.0986 72.3427 67.1155 72.5408 69.1387 72.6L69.1623 74.7735C69.1623 74.7735 77.2173 74.424 82.5086 72.7297C82.9102 73.8257 83.233 74.6173 83.3458 74.6755L84.3065 74.2016L89.7027 80.902L100.262 76.5498C100.262 76.5498 101.836 75.9568 101.049 74.5723C100.262 73.1877 98.5057 74.7708 98.5057 74.7708L90.6817 77.5373L87.3799 72.9203L87.2513 72.7403L87.9442 72.3988C87.9442 72.3988 87.9232 72.2956 87.8812 72.1182L89.7027 73.5848L89.8366 72.7218Z" fill="url(#paint4_linear)"/>
</g>
<path d="M83.4524 67.0646L81.0352 64.8037L85.0377 60.4277L87.455 62.6859L83.4524 67.0646Z" fill="#FDA57D"/>
<path opacity="0.05" d="M84.8465 60.6182L83.0801 62.5507C83.2707 63.0938 83.5798 63.5867 83.9845 63.9931C84.3893 64.3995 84.8794 64.7091 85.4186 64.8989L87.2559 62.879L84.8465 60.6182Z" fill="black"/>
<path d="M85.3672 70.8502L95.06 75.0568L102.223 66.4953C102.223 66.4953 103.307 65.2723 102.015 64.4357C100.724 63.5992 99.9155 65.7594 99.9155 65.7594L94.4038 71.7105L87.3304 68.1473L85.3672 70.8502Z" fill="#FDA57D"/>
<path d="M84.8571 65.9817L89.8046 68.8646L89.1379 73.3836L84.4766 69.635L84.8571 65.9817Z" fill="#4452FE"/>
<path d="M86.8545 64.9255C88.9564 64.9255 90.6603 63.2034 90.6603 61.079C90.6603 58.9546 88.9564 57.2324 86.8545 57.2324C84.7527 57.2324 83.0488 58.9546 83.0488 61.079C83.0488 63.2034 84.7527 64.9255 86.8545 64.9255Z" fill="#FDA57D"/>
<path d="M83.725 64.4436L81.8221 63.8665L69.0664 65.791L69.1609 74.5272C69.1609 74.5272 84.6672 73.8548 86.3785 69.8176L85.2368 65.791L83.725 64.4436Z" fill="#4452FE"/>
<path opacity="0.05" d="M84.627 69.7515L89.1387 73.3836L89.3303 71.8455L84.8579 67.5198L84.627 69.7515Z" fill="black"/>
<path d="M69.1621 65.8837C69.1621 65.8837 67.4508 64.3456 61.9339 65.8837C56.4169 67.4218 39.6743 63.7659 39.6743 63.7659L39.1074 67.0379C39.1074 67.0379 48.6191 71.6522 55.6584 70.6912C58.3985 70.318 61.0494 71.4854 63.2698 71.8455C65.2187 72.1703 67.1875 72.3587 69.1621 72.4094V65.8837Z" fill="#4D8AF0"/>
<path d="M39.673 63.7686L37.0064 62.8076L35.1035 69.5371C35.1035 69.5371 37.2032 67.2286 39.0982 67.038L39.673 63.7686Z" fill="#535461"/>
<path d="M46.1406 55.3103L50.1301 54.3494C50.1301 54.3494 52.0329 65.8864 54.8859 66.8474H47.8545C47.8545 66.8474 47.2823 55.6942 46.1406 55.3103Z" fill="#4D8AF0"/>
<path d="M50.13 54.3494L49.5605 51.8503L42.1406 53.5817C42.1406 53.5817 45.5526 54.3521 46.1353 55.313L50.13 54.3494Z" fill="#535461"/>
<path opacity="0.05" d="M87.4604 56.6314C86.45 56.5211 85.428 56.6507 84.4762 57.01C84.0021 57.193 83.5708 57.4731 83.2094 57.8326C82.8481 58.1921 82.5644 58.6232 82.3765 59.0987C82.0352 60.0624 82.2557 61.2457 83.0274 61.9075C83.2106 62.0819 83.446 62.1899 83.6967 62.2146C84.1008 62.2305 84.4394 61.9314 84.7465 61.6719C85.3295 61.1865 85.9716 60.7782 86.6572 60.4568C87.2399 60.1921 87.9512 59.9803 88.4945 60.3165C88.7403 60.5006 88.9633 60.7139 89.1585 60.9518C89.473 61.2671 89.8597 61.4994 90.2843 61.6283C90.7089 61.7571 91.1584 61.7785 91.5932 61.6906C92.028 61.6027 92.4346 61.4082 92.7771 61.1242C93.1197 60.8402 93.3877 60.4755 93.5574 60.0623C93.4104 60.4197 92.0509 59.9273 91.8461 59.8188C91.2215 59.4852 90.9013 58.9902 90.5811 58.384C89.9564 57.1794 88.7806 56.7373 87.4604 56.6314Z" fill="black"/>
<path d="M87.4604 56.4408C86.45 56.3304 85.428 56.4601 84.4762 56.8193C84.0021 57.0023 83.5708 57.2824 83.2094 57.6419C82.8481 58.0014 82.5644 58.4325 82.3765 58.9081C82.0352 59.8717 82.2557 61.055 83.0274 61.7169C83.2106 61.8912 83.446 61.9992 83.6967 62.0239C84.1008 62.0398 84.4394 61.7407 84.7465 61.4812C85.3295 60.9958 85.9716 60.5875 86.6572 60.2661C87.2399 60.0014 87.9512 59.7896 88.4945 60.1258C88.7403 60.31 88.9633 60.5233 89.1585 60.7612C89.473 61.0764 89.8597 61.3088 90.2843 61.4376C90.7089 61.5665 91.1584 61.5879 91.5932 61.4999C92.028 61.412 92.4346 61.2175 92.7771 60.9335C93.1197 60.6495 93.3877 60.2849 93.5574 59.8717C93.4104 60.2291 92.0509 59.7367 91.8461 59.6281C91.2215 59.2946 90.9013 58.7995 90.5811 58.1933C89.9564 56.9888 88.7806 56.544 87.4604 56.4408Z" fill="black"/>
<path d="M85.8958 60.7607C85.9688 60.4506 85.9033 60.1694 85.7496 60.1326C85.5959 60.0958 85.4121 60.3173 85.3391 60.6275C85.2662 60.9376 85.3317 61.2188 85.4854 61.2556C85.6391 61.2924 85.8229 61.0708 85.8958 60.7607Z" fill="#FDA57D"/>
<path opacity="0.05" d="M83.8887 73.9793L84.0173 74.1381L86.8781 72.7377L86.7522 72.563L83.8887 73.9793Z" fill="black"/>
<path opacity="0.05" d="M89.7308 69.3596L89.2637 72.5179L89.4369 72.6185L89.8043 69.394L89.7308 69.3596Z" fill="black"/>
<path d="M74.678 61.2695H72.3945V76.8437H74.678V61.2695Z" fill="#E0E0E0"/>
<path d="M70.3638 18.4014L68.1992 17.668L63.2819 32.4313L65.4465 33.1647L70.3638 18.4014Z" fill="#E0E0E0"/>
<path d="M73.9174 63.0009H73.1562V25.3931L73.9069 25.4328L73.9174 63.0009Z" fill="#E0E0E0"/>
<path d="M82.4785 72.2294L89.1372 80.497L99.41 76.2613C99.41 76.2613 100.932 75.6842 100.171 74.3393C99.41 72.9945 97.6988 74.5326 97.6988 74.5326L90.0873 77.2249L85.4575 70.7522L82.4785 72.2294Z" fill="#FDA57D"/>
<path d="M79.7207 65.4046C79.7207 65.4046 82.5737 74.2493 82.9543 74.4399L87.4161 72.2294C87.4161 72.2294 86.1484 66.265 84.7364 65.3464C83.3243 64.4278 79.9123 64.6343 79.7207 65.4046Z" fill="#4452FE"/>
<path opacity="0.05" d="M80.5339 67.8853C80.5339 67.8853 80.3843 71.2685 81.3371 71.8562L80.5339 67.8853Z" fill="black"/>
<path d="M73.1615 25.4327L69.7285 20.3154L70.0881 19.2327L73.9069 25.4327H73.1615Z" fill="#E0E0E0"/>
<path d="M90.6095 62.4793L90.1133 62.1467L89.281 63.4102L89.7773 63.7428L90.6095 62.4793Z" fill="black"/>
<path d="M89.9128 62.4198L86.2344 59.9529L86.0687 60.2042L89.7471 62.6711L89.9128 62.4198Z" fill="black"/>
<g opacity="0.7">
<path opacity="0.7" d="M158.595 162.519H149.062V169.624H158.595V162.519Z" fill="url(#paint5_linear)"/>
<g opacity="0.1">
<path opacity="0.1" d="M149.062 164.401C149.062 164.401 152.619 164.819 153.829 164.819C155.039 164.819 158.595 164.401 158.595 164.401V162.625H149.062V164.401Z" fill="url(#paint6_linear)"/>
</g>
<path opacity="0.7" d="M158.595 164.295C158.595 164.295 155.039 164.713 153.829 164.713C152.619 164.713 149.063 164.295 149.063 164.295V157.293C149.062 156.018 149.565 154.795 150.459 153.893C151.352 152.992 152.565 152.485 153.829 152.485C155.093 152.485 156.305 152.992 157.199 153.893C158.093 154.795 158.595 156.018 158.595 157.293V164.295Z" fill="url(#paint7_linear)"/>
<path opacity="0.7" d="M153.829 153.846C153.526 153.846 153.237 153.725 153.023 153.51C152.809 153.294 152.689 153.002 152.689 152.697V150.084H154.968V152.697C154.968 153.002 154.848 153.294 154.634 153.51C154.42 153.725 154.131 153.846 153.829 153.846Z" fill="url(#paint8_linear)"/>
<path opacity="0.7" d="M152.482 167.117H149.062V190.527H152.482V167.117Z" fill="url(#paint9_linear)"/>
<path opacity="0.7" d="M158.596 167.117H155.176V190.527H158.596V167.117Z" fill="url(#paint10_linear)"/>
<g opacity="0.1">
<path opacity="0.1" d="M152.689 151.829C153.438 152.014 154.219 152.014 154.968 151.829V150.188H152.689V151.829Z" fill="url(#paint11_linear)"/>
</g>
<path opacity="0.7" d="M153.829 150.918C156.576 150.918 158.803 148.672 158.803 145.901C158.803 143.131 156.576 140.885 153.829 140.885C151.082 140.885 148.855 143.131 148.855 145.901C148.855 148.672 151.082 150.918 153.829 150.918Z" fill="url(#paint12_linear)"/>
<path opacity="0.7" d="M153.829 151.861C156.461 151.861 158.595 149.708 158.595 147.053C158.595 144.398 156.461 142.246 153.829 142.246C151.196 142.246 149.062 144.398 149.062 147.053C149.062 149.708 151.196 151.861 153.829 151.861Z" fill="url(#paint13_linear)"/>
<g opacity="0.1">
<path opacity="0.1" d="M150.942 144.641C151.202 144.787 151.489 144.877 151.785 144.906C153.005 145.074 154.248 144.933 155.401 144.496C155.509 144.732 155.667 144.941 155.864 145.109C156.061 145.277 156.292 145.399 156.54 145.467C157.038 145.6 157.553 145.658 158.068 145.64C158.181 145.652 158.295 145.63 158.396 145.576C158.624 145.42 158.514 145.062 158.38 144.819L157.716 143.604C157.54 143.234 157.302 142.897 157.013 142.608C156.611 142.289 156.133 142.082 155.627 142.007C154.448 141.771 153.231 141.811 152.071 142.127C150.834 142.457 149.241 143.604 150.942 144.641Z" fill="url(#paint14_linear)"/>
</g>
<path opacity="0.7" d="M150.942 144.538C151.202 144.683 151.489 144.773 151.785 144.803C153.005 144.971 154.248 144.83 155.401 144.393C155.509 144.629 155.667 144.838 155.864 145.006C156.061 145.174 156.292 145.296 156.54 145.364C157.038 145.497 157.553 145.555 158.068 145.536C158.181 145.549 158.295 145.527 158.396 145.473C158.624 145.317 158.514 144.959 158.38 144.716L157.716 143.5C157.54 143.131 157.302 142.794 157.013 142.505C156.611 142.186 156.133 141.978 155.627 141.904C154.448 141.667 153.231 141.708 152.071 142.023C150.834 142.354 149.241 143.498 150.942 144.538Z" fill="url(#paint15_linear)"/>
<path opacity="0.7" d="M158.544 147.837C158.773 147.837 158.958 147.486 158.958 147.053C158.958 146.62 158.773 146.27 158.544 146.27C158.315 146.27 158.129 146.62 158.129 147.053C158.129 147.486 158.315 147.837 158.544 147.837Z" fill="url(#paint16_linear)"/>
<path opacity="0.7" d="M149.116 147.837C149.345 147.837 149.531 147.486 149.531 147.053C149.531 146.62 149.345 146.27 149.116 146.27C148.887 146.27 148.701 146.62 148.701 147.053C148.701 147.486 148.887 147.837 149.116 147.837Z" fill="url(#paint17_linear)"/>
<path opacity="0.7" d="M166.575 142.036C167.204 142.036 167.714 141.522 167.714 140.887C167.714 140.253 167.204 139.739 166.575 139.739C165.946 139.739 165.436 140.253 165.436 140.887C165.436 141.522 165.946 142.036 166.575 142.036Z" fill="url(#paint18_linear)"/>
<path opacity="0.7" d="M158.46 163.275C158.46 164.009 158.381 164.644 158.224 165.181C158.066 165.718 157.851 166.162 157.578 166.513C157.306 166.864 156.986 167.127 156.619 167.301C156.256 167.47 155.867 167.555 155.453 167.555C155.039 167.555 154.65 167.47 154.287 167.301C153.924 167.127 153.606 166.864 153.334 166.513C153.061 166.162 152.846 165.718 152.688 165.181C152.535 164.644 152.458 164.009 152.458 163.275C152.458 162.541 152.535 161.905 152.688 161.369C152.846 160.832 153.061 160.388 153.334 160.037C153.606 159.685 153.924 159.425 154.287 159.255C154.65 159.082 155.039 158.995 155.453 158.995C155.867 158.995 156.256 159.082 156.619 159.255C156.986 159.425 157.306 159.685 157.578 160.037C157.851 160.388 158.066 160.832 158.224 161.369C158.381 161.905 158.46 162.541 158.46 163.275ZM157.868 163.275C157.868 162.596 157.803 162.016 157.673 161.534C157.543 161.053 157.367 160.66 157.146 160.356C156.929 160.049 156.673 159.824 156.377 159.682C156.085 159.539 155.777 159.468 155.453 159.468C155.129 159.468 154.822 159.539 154.53 159.682C154.237 159.824 153.981 160.049 153.76 160.356C153.539 160.66 153.363 161.053 153.233 161.534C153.103 162.016 153.038 162.596 153.038 163.275C153.038 163.958 153.103 164.54 153.233 165.021C153.363 165.499 153.539 165.892 153.76 166.199C153.981 166.503 154.237 166.726 154.53 166.868C154.822 167.007 155.129 167.076 155.453 167.076C155.777 167.076 156.085 167.007 156.377 166.868C156.673 166.726 156.929 166.503 157.146 166.199C157.367 165.892 157.543 165.499 157.673 165.021C157.803 164.54 157.868 163.958 157.868 163.275ZM158.46 177.275C158.46 178.009 158.381 178.644 158.224 179.181C158.066 179.718 157.851 180.162 157.578 180.513C157.306 180.864 156.986 181.127 156.619 181.301C156.256 181.47 155.867 181.555 155.453 181.555C155.039 181.555 154.65 181.47 154.287 181.301C153.924 181.127 153.606 180.864 153.334 180.513C153.061 180.162 152.846 179.718 152.688 179.181C152.535 178.644 152.458 178.009 152.458 177.275C152.458 176.541 152.535 175.905 152.688 175.369C152.846 174.832 153.061 174.388 153.334 174.037C153.606 173.685 153.924 173.425 154.287 173.255C154.65 173.082 155.039 172.995 155.453 172.995C155.867 172.995 156.256 173.082 156.619 173.255C156.986 173.425 157.306 173.685 157.578 174.037C157.851 174.388 158.066 174.832 158.224 175.369C158.381 175.905 158.46 176.541 158.46 177.275ZM157.868 177.275C157.868 176.596 157.803 176.016 157.673 175.534C157.543 175.053 157.367 174.66 157.146 174.356C156.929 174.049 156.673 173.824 156.377 173.682C156.085 173.539 155.777 173.468 155.453 173.468C155.129 173.468 154.822 173.539 154.53 173.682C154.237 173.824 153.981 174.049 153.76 174.356C153.539 174.66 153.363 175.053 153.233 175.534C153.103 176.016 153.038 176.596 153.038 177.275C153.038 177.958 153.103 178.54 153.233 179.021C153.363 179.499 153.539 179.892 153.76 180.199C153.981 180.503 154.237 180.726 154.53 180.868C154.822 181.007 155.129 181.076 155.453 181.076C155.777 181.076 156.085 181.007 156.377 180.868C156.673 180.726 156.929 180.503 157.146 180.199C157.367 179.892 157.543 179.499 157.673 179.021C157.803 178.54 157.868 177.958 157.868 177.275Z" fill="black"/>
<path opacity="0.7" d="M153.934 148.933C153.934 148.933 151.241 149.872 149.168 147.784C149.168 147.784 149.336 148.477 149.625 149.311C150.092 150.204 150.826 150.926 151.722 151.375C152.619 151.824 153.633 151.976 154.62 151.811C155.608 151.646 156.519 151.171 157.224 150.454C157.929 149.738 158.392 148.815 158.548 147.818C158.05 148.088 154.509 149.806 153.934 148.933ZM153.832 150.187C153.307 150.187 152.9 149.79 152.9 149.56C152.9 149.33 153.318 149.351 153.832 149.351C154.346 149.351 154.764 149.33 154.764 149.56C154.764 149.79 154.344 150.187 153.829 150.187H153.832Z" fill="url(#paint19_linear)"/>
<path opacity="0.7" d="M156.361 153.224C156.361 153.224 161.91 150.084 165.33 140.887L166.988 141.933C166.988 141.933 164.243 153.653 157.353 156.356L156.361 153.224Z" fill="url(#paint20_linear)"/>
<path opacity="0.7" d="M141.086 142.036C141.715 142.036 142.225 141.522 142.225 140.887C142.225 140.253 141.715 139.739 141.086 139.739C140.457 139.739 139.947 140.253 139.947 140.887C139.947 141.522 140.457 142.036 141.086 142.036Z" fill="url(#paint21_linear)"/>
<path opacity="0.7" d="M151.296 153.224C151.296 153.224 145.748 150.084 142.328 140.887L140.68 141.93C140.68 141.93 143.425 153.65 150.315 156.353L151.296 153.224Z" fill="url(#paint22_linear)"/>
<path opacity="0.7" d="M152.275 191.364H149.27V191.208C149.27 190.806 149.428 190.421 149.709 190.137C149.991 189.853 150.373 189.693 150.771 189.693C151.169 189.693 151.551 189.853 151.832 190.137C152.114 190.421 152.272 190.806 152.272 191.208L152.275 191.364Z" fill="url(#paint23_linear)"/>
<path opacity="0.7" d="M158.387 191.364H155.377V191.208C155.377 190.806 155.535 190.421 155.817 190.137C156.098 189.853 156.48 189.693 156.878 189.693C157.276 189.693 157.658 189.853 157.94 190.137C158.221 190.421 158.38 190.806 158.38 191.208L158.387 191.364Z" fill="url(#paint24_linear)"/>
</g>
<path d="M158.46 162.606H149.203V169.508H158.46V162.606Z" fill="#4D8AF0"/>
<path opacity="0.1" d="M149.203 164.433C149.203 164.433 152.657 164.838 153.83 164.838C155.004 164.838 158.458 164.433 158.458 164.433V162.709H149.203V164.433Z" fill="black"/>
<path d="M158.458 164.332C158.458 164.332 155.004 164.737 153.83 164.737C152.657 164.737 149.203 164.332 149.203 164.332V157.534C149.203 156.296 149.691 155.109 150.558 154.234C151.426 153.358 152.603 152.867 153.83 152.867C155.058 152.867 156.235 153.358 157.102 154.234C157.97 155.109 158.458 156.296 158.458 157.534V164.332Z" fill="#4452FE"/>
<path d="M152.721 150.532H154.934V153.068C154.934 153.364 154.817 153.648 154.61 153.858C154.402 154.067 154.12 154.185 153.826 154.185C153.533 154.185 153.251 154.067 153.043 153.858C152.835 153.648 152.719 153.364 152.719 153.068V150.532H152.721Z" fill="#FDB797"/>
<path d="M152.523 167.072H149.203V189.802H152.523V167.072Z" fill="#4D8AF0"/>
<path d="M158.457 167.072H155.137V189.802H158.457V167.072Z" fill="#4D8AF0"/>
<path opacity="0.1" d="M152.725 152.223C153.451 152.404 154.211 152.404 154.937 152.223V150.635H152.725V152.223Z" fill="black"/>
<path d="M153.829 151.344C156.496 151.344 158.659 149.164 158.659 146.473C158.659 143.783 156.496 141.602 153.829 141.602C151.162 141.602 149 143.783 149 146.473C149 149.164 151.162 151.344 153.829 151.344Z" fill="#814E4D"/>
<path d="M153.83 152.255C156.386 152.255 158.458 150.166 158.458 147.588C158.458 145.01 156.386 142.921 153.83 142.921C151.275 142.921 149.203 145.01 149.203 147.588C149.203 150.166 151.275 152.255 153.83 152.255Z" fill="#FDB797"/>
<path opacity="0.1" d="M151.026 145.248C151.28 145.386 151.558 145.471 151.845 145.497C153.03 145.66 154.237 145.524 155.357 145.1C155.462 145.329 155.615 145.533 155.807 145.696C155.998 145.859 156.223 145.978 156.464 146.045C156.948 146.174 157.447 146.23 157.947 146.211C158.058 146.224 158.169 146.203 158.267 146.151C158.491 146 158.383 145.653 158.252 145.415L157.606 144.236C157.435 143.878 157.204 143.551 156.924 143.27C156.533 142.96 156.069 142.759 155.577 142.688C154.432 142.458 153.25 142.498 152.123 142.804C150.916 143.127 149.373 144.239 151.026 145.248Z" fill="black"/>
<path d="M151.026 145.147C151.28 145.285 151.558 145.37 151.845 145.396C153.03 145.56 154.237 145.423 155.357 144.999C155.462 145.228 155.615 145.432 155.807 145.595C155.998 145.759 156.223 145.878 156.464 145.944C156.948 146.073 157.447 146.129 157.947 146.111C158.058 146.124 158.169 146.102 158.267 146.05C158.491 145.899 158.383 145.552 158.252 145.314L157.606 144.136C157.435 143.777 157.204 143.45 156.924 143.17C156.533 142.86 156.069 142.659 155.577 142.587C154.432 142.358 153.25 142.397 152.123 142.704C150.916 143.027 149.373 144.139 151.026 145.147Z" fill="#814E4D"/>
<path d="M158.407 148.348C158.629 148.348 158.809 148.008 158.809 147.588C158.809 147.168 158.629 146.828 158.407 146.828C158.186 146.828 158.006 147.168 158.006 147.588C158.006 148.008 158.186 148.348 158.407 148.348Z" fill="#FDB797"/>
<path d="M149.253 148.348C149.475 148.348 149.655 148.008 149.655 147.588C149.655 147.168 149.475 146.828 149.253 146.828C149.031 146.828 148.852 147.168 148.852 147.588C148.852 148.008 149.031 148.348 149.253 148.348Z" fill="#FDB797"/>
<path d="M166.205 142.719C166.817 142.719 167.313 142.219 167.313 141.602C167.313 140.985 166.817 140.485 166.205 140.485C165.594 140.485 165.098 140.985 165.098 141.602C165.098 142.219 165.594 142.719 166.205 142.719Z" fill="#FDB797"/>
<path d="M153.932 149.415C153.932 149.415 151.307 150.328 149.305 148.297C149.305 148.297 149.467 148.97 149.748 149.783C150.202 150.649 150.915 151.349 151.785 151.784C152.655 152.219 153.639 152.366 154.597 152.206C155.555 152.045 156.439 151.585 157.123 150.89C157.808 150.194 158.258 149.299 158.41 148.332C157.929 148.597 154.491 150.262 153.932 149.415ZM153.832 150.632C153.331 150.632 152.927 150.248 152.927 150.023C152.927 149.798 153.331 149.82 153.832 149.82C154.333 149.82 154.738 149.798 154.738 150.023C154.738 150.248 154.328 150.632 153.83 150.632H153.832Z" fill="#814E4D"/>
<path d="M156.289 153.581C156.289 153.581 161.677 150.532 164.998 141.602L166.606 142.616C166.606 142.616 163.94 154 157.25 156.621L156.289 153.581Z" fill="#4452FE"/>
<path d="M141.455 142.719C142.067 142.719 142.563 142.219 142.563 141.602C142.563 140.985 142.067 140.485 141.455 140.485C140.844 140.485 140.348 140.985 140.348 141.602C140.348 142.219 140.844 142.719 141.455 142.719Z" fill="#FDB797"/>
<path d="M151.37 153.581C151.37 153.581 145.982 150.532 142.662 141.602L141.053 142.616C141.053 142.616 143.719 154 150.41 156.621L151.37 153.581Z" fill="#4452FE"/>
<path d="M150.861 188.992C151.248 188.992 151.619 189.147 151.893 189.423C152.167 189.699 152.32 190.073 152.32 190.464V190.607H149.404V190.456C149.406 190.067 149.561 189.695 149.834 189.421C150.106 189.147 150.476 188.993 150.861 188.992Z" fill="#333333"/>
<path d="M156.799 188.992C157.186 188.992 157.557 189.147 157.831 189.423C158.105 189.699 158.258 190.073 158.258 190.464V190.607H155.34V190.456C155.342 190.067 155.497 189.695 155.77 189.42C156.043 189.146 156.413 188.992 156.799 188.992Z" fill="#333333"/>
</g>
<defs>
<linearGradient id="paint0_linear" x1="34.9419" y1="36.1148" x2="34.9419" y2="29.7957" gradientUnits="userSpaceOnUse">
<stop stop-color="#808080" stop-opacity="0.25"/>
<stop offset="0.54" stop-color="#808080" stop-opacity="0.12"/>
<stop offset="1" stop-color="#808080" stop-opacity="0.1"/>
</linearGradient>
<linearGradient id="paint1_linear" x1="24042.7" y1="12084.6" x2="24042.7" y2="3963.45" gradientUnits="userSpaceOnUse">
<stop stop-color="#808080" stop-opacity="0.25"/>
<stop offset="0.54" stop-color="#808080" stop-opacity="0.12"/>
<stop offset="1" stop-color="#808080" stop-opacity="0.1"/>
</linearGradient>
<linearGradient id="paint2_linear" x1="1990.79" y1="1383.01" x2="1990.79" y2="1185.37" gradientUnits="userSpaceOnUse">
<stop stop-color="#808080" stop-opacity="0.25"/>
<stop offset="0.54" stop-color="#808080" stop-opacity="0.12"/>
<stop offset="1" stop-color="#808080" stop-opacity="0.1"/>
</linearGradient>
<linearGradient id="paint3_linear" x1="2490.07" y1="2149.4" x2="2490.07" y2="1723.83" gradientUnits="userSpaceOnUse">
<stop stop-color="#808080" stop-opacity="0.25"/>
<stop offset="0.54" stop-color="#808080" stop-opacity="0.12"/>
<stop offset="1" stop-color="#808080" stop-opacity="0.1"/>
</linearGradient>
<linearGradient id="paint4_linear" x1="36238.8" y1="11571.1" x2="36238.8" y2="8293.72" gradientUnits="userSpaceOnUse">
<stop stop-color="#808080" stop-opacity="0.25"/>
<stop offset="0.54" stop-color="#808080" stop-opacity="0.12"/>
<stop offset="1" stop-color="#808080" stop-opacity="0.1"/>
</linearGradient>
<linearGradient id="paint5_linear" x1="5563.05" y1="4619.87" x2="5909.27" y2="4619.87" gradientUnits="userSpaceOnUse">
<stop stop-color="#808080" stop-opacity="0.25"/>
<stop offset="0.54" stop-color="#808080" stop-opacity="0.12"/>
<stop offset="1" stop-color="#808080" stop-opacity="0.1"/>
</linearGradient>
<linearGradient id="paint6_linear" x1="8032.01" y1="1707.45" x2="8378.23" y2="1707.45" gradientUnits="userSpaceOnUse">
<stop stop-color="#808080" stop-opacity="0.25"/>
<stop offset="0.54" stop-color="#808080" stop-opacity="0.12"/>
<stop offset="1" stop-color="#808080" stop-opacity="0.1"/>
</linearGradient>
<linearGradient id="paint7_linear" x1="8032.01" y1="8523.51" x2="8378.23" y2="8523.51" gradientUnits="userSpaceOnUse">
<stop stop-color="#808080" stop-opacity="0.25"/>
<stop offset="0.54" stop-color="#808080" stop-opacity="0.12"/>
<stop offset="1" stop-color="#808080" stop-opacity="0.1"/>
</linearGradient>
<linearGradient id="paint8_linear" x1="2068.08" y1="2631.05" x2="2087.86" y2="2631.05" gradientUnits="userSpaceOnUse">
<stop stop-color="#808080" stop-opacity="0.25"/>
<stop offset="0.54" stop-color="#808080" stop-opacity="0.12"/>
<stop offset="1" stop-color="#808080" stop-opacity="0.1"/>
</linearGradient>
<linearGradient id="paint9_linear" x1="2091.36" y1="15980.3" x2="2135.92" y2="15980.3" gradientUnits="userSpaceOnUse">
<stop stop-color="#808080" stop-opacity="0.25"/>
<stop offset="0.54" stop-color="#808080" stop-opacity="0.12"/>
<stop offset="1" stop-color="#808080" stop-opacity="0.1"/>
</linearGradient>
<linearGradient id="paint10_linear" x1="2177.13" y1="15980.3" x2="2221.69" y2="15980.3" gradientUnits="userSpaceOnUse">
<stop stop-color="#808080" stop-opacity="0.25"/>
<stop offset="0.54" stop-color="#808080" stop-opacity="0.12"/>
<stop offset="1" stop-color="#808080" stop-opacity="0.1"/>
</linearGradient>
<linearGradient id="paint11_linear" x1="2068.08" y1="1318.53" x2="2087.86" y2="1318.53" gradientUnits="userSpaceOnUse">
<stop stop-color="#808080" stop-opacity="0.25"/>
<stop offset="0.54" stop-color="#808080" stop-opacity="0.12"/>
<stop offset="1" stop-color="#808080" stop-opacity="0.1"/>
</linearGradient>
<linearGradient id="paint12_linear" x1="5790.5" y1="5670.55" x2="6167.5" y2="5670.55" gradientUnits="userSpaceOnUse">
<stop stop-color="#808080" stop-opacity="0.25"/>
<stop offset="0.54" stop-color="#808080" stop-opacity="0.12"/>
<stop offset="1" stop-color="#808080" stop-opacity="0.1"/>
</linearGradient>
<linearGradient id="paint13_linear" x1="5563.05" y1="5483.21" x2="5909.27" y2="5483.21" gradientUnits="userSpaceOnUse">
<stop stop-color="#808080" stop-opacity="0.25"/>
<stop offset="0.54" stop-color="#808080" stop-opacity="0.12"/>
<stop offset="1" stop-color="#808080" stop-opacity="0.1"/>
</linearGradient>
<linearGradient id="paint14_linear" x1="7072.01" y1="2521.96" x2="7336.22" y2="2521.96" gradientUnits="userSpaceOnUse">
<stop stop-color="#808080" stop-opacity="0.25"/>
<stop offset="0.54" stop-color="#808080" stop-opacity="0.12"/>
<stop offset="1" stop-color="#808080" stop-opacity="0.1"/>
</linearGradient>
<linearGradient id="paint15_linear" x1="7072.01" y1="2520.36" x2="7336.22" y2="2520.36" gradientUnits="userSpaceOnUse">
<stop stop-color="#808080" stop-opacity="0.25"/>
<stop offset="0.54" stop-color="#808080" stop-opacity="0.12"/>
<stop offset="1" stop-color="#808080" stop-opacity="0.1"/>
</linearGradient>
<linearGradient id="paint16_linear" x1="657.812" y1="1016.83" x2="660.432" y2="1016.83" gradientUnits="userSpaceOnUse">
<stop stop-color="#808080" stop-opacity="0.25"/>
<stop offset="0.54" stop-color="#808080" stop-opacity="0.12"/>
<stop offset="1" stop-color="#808080" stop-opacity="0.1"/>
</linearGradient>
<linearGradient id="paint17_linear" x1="618.593" y1="1016.83" x2="621.213" y2="1016.83" gradientUnits="userSpaceOnUse">
<stop stop-color="#808080" stop-opacity="0.25"/>
<stop offset="0.54" stop-color="#808080" stop-opacity="0.12"/>
<stop offset="1" stop-color="#808080" stop-opacity="0.1"/>
</linearGradient>
<linearGradient id="paint18_linear" x1="1601.4" y1="1362.66" x2="1621.19" y2="1362.66" gradientUnits="userSpaceOnUse">
<stop stop-color="#808080" stop-opacity="0.25"/>
<stop offset="0.54" stop-color="#808080" stop-opacity="0.12"/>
<stop offset="1" stop-color="#808080" stop-opacity="0.1"/>
</linearGradient>
<linearGradient id="paint19_linear" x1="7909.99" y1="2813.43" x2="8244.78" y2="2813.43" gradientUnits="userSpaceOnUse">
<stop stop-color="#808080" stop-opacity="0.25"/>
<stop offset="0.54" stop-color="#808080" stop-opacity="0.12"/>
<stop offset="1" stop-color="#808080" stop-opacity="0.1"/>
</linearGradient>
<linearGradient id="paint20_linear" x1="9239.91" y1="10147" x2="9670.2" y2="10147" gradientUnits="userSpaceOnUse">
<stop stop-color="#808080" stop-opacity="0.25"/>
<stop offset="0.54" stop-color="#808080" stop-opacity="0.12"/>
<stop offset="1" stop-color="#808080" stop-opacity="0.1"/>
</linearGradient>
<linearGradient id="paint21_linear" x1="1354.67" y1="1362.66" x2="1374.46" y2="1362.66" gradientUnits="userSpaceOnUse">
<stop stop-color="#808080" stop-opacity="0.25"/>
<stop offset="0.54" stop-color="#808080" stop-opacity="0.12"/>
<stop offset="1" stop-color="#808080" stop-opacity="0.1"/>
</linearGradient>
<linearGradient id="paint22_linear" x1="8580.59" y1="10145.3" x2="9010.35" y2="10145.3" gradientUnits="userSpaceOnUse">
<stop stop-color="#808080" stop-opacity="0.25"/>
<stop offset="0.54" stop-color="#808080" stop-opacity="0.12"/>
<stop offset="1" stop-color="#808080" stop-opacity="0.1"/>
</linearGradient>
<linearGradient id="paint23_linear" x1="2636.78" y1="1534.7" x2="2671.19" y2="1534.7" gradientUnits="userSpaceOnUse">
<stop stop-color="#808080" stop-opacity="0.25"/>
<stop offset="0.54" stop-color="#808080" stop-opacity="0.12"/>
<stop offset="1" stop-color="#808080" stop-opacity="0.1"/>
</linearGradient>
<linearGradient id="paint24_linear" x1="2717.33" y1="1534.7" x2="2751.8" y2="1534.7" gradientUnits="userSpaceOnUse">
<stop stop-color="#808080" stop-opacity="0.25"/>
<stop offset="0.54" stop-color="#808080" stop-opacity="0.12"/>
<stop offset="1" stop-color="#808080" stop-opacity="0.1"/>
</linearGradient>
<clipPath id="clip0">
<rect width="179" height="193" fill="white"/>
</clipPath>
</defs>
</svg>
