<svg width="234" height="214" viewBox="0 0 234 214" fill="none" xmlns="http://www.w3.org/2000/svg">
<path d="M134.003 213.339C189.066 213.339 233.729 202.454 233.729 188.937C233.729 175.41 189.066 164.524 134.003 164.524C78.9389 164.524 34.2637 175.421 34.2637 188.937C34.2637 202.454 78.9389 213.339 134.003 213.339Z" fill="#F29949"/>
<path d="M134.003 213.339C189.066 213.339 233.729 202.454 233.729 188.937C233.729 175.41 189.066 164.524 134.003 164.524C78.9389 164.524 34.2637 175.421 34.2637 188.937C34.2637 202.454 78.9389 213.339 134.003 213.339Z" fill="white" fill-opacity="0.5"/>
<path d="M146.173 13.3162H28.916C26.194 13.3162 23.959 15.3572 23.959 17.8292V77.4393C23.959 79.9112 26.2065 81.9523 28.9284 81.9523H146.173C148.895 81.9523 151.13 79.9112 151.13 77.4393V17.8292C151.13 15.2778 148.895 13.3162 146.173 13.3162Z" fill="white"/>
<path d="M151.13 17.8293V19.6096H23.959V17.8293C23.959 16.6387 24.5209 15.4367 25.4573 14.5863C26.3938 13.7358 27.6174 13.2256 29.0159 13.2256H146.26C146.909 13.2256 147.571 13.3163 148.133 13.5771C148.695 13.8379 149.244 14.1554 149.719 14.5863C150.193 15.0172 150.568 15.5274 150.755 16.0377C151.042 16.6387 151.13 17.2283 151.13 17.8293Z" fill="#4452FE"/>
<path d="M146.167 13.3162H28.9222C26.2065 13.3162 23.959 15.3572 23.959 17.8235V77.4393C23.959 79.9056 26.2065 81.9466 28.9222 81.9466H146.167C148.882 81.9466 151.13 79.9056 151.13 77.4393V17.8235C151.13 15.2722 148.882 13.3162 146.167 13.3162Z" stroke="#263338" stroke-width="0.999975" stroke-linecap="round" stroke-linejoin="round"/>
<path d="M151.13 17.8236V19.6095H23.959V17.8236C23.959 16.633 24.5209 15.4423 25.4573 14.5919C26.3938 13.7415 27.6112 13.2312 29.0158 13.2312H146.26C146.916 13.2312 147.571 13.3162 148.133 13.5714C148.695 13.8265 149.257 14.1667 149.725 14.5919C150.193 15.0171 150.568 15.5274 150.755 16.0377C151.036 16.633 151.13 17.2283 151.13 17.8236Z" stroke="#263338" stroke-width="0.999975" stroke-linecap="round" stroke-linejoin="round"/>
<path d="M38.281 16.4684C38.281 16.7292 38.1812 16.888 38.0938 17.1488C38.0064 17.3189 37.7317 17.489 37.5444 17.5683C37.3571 17.6477 37.0699 17.6591 36.7827 17.6591C36.4955 17.5797 36.3207 17.489 36.1334 17.3189C35.9462 17.0581 35.7589 16.888 35.7589 16.6272C35.6715 16.3664 35.7589 16.2076 35.8463 15.9468C35.9337 15.7768 36.1334 15.516 36.3207 15.4366C36.508 15.3572 36.7827 15.2778 37.0699 15.2778C37.4445 15.2778 37.7192 15.3572 38.0064 15.618C38.0938 15.8675 38.281 16.1283 38.281 16.4684Z" fill="#263338"/>
<path d="M44.9373 16.4684C44.9373 16.7292 44.8374 16.888 44.75 17.1488C44.6626 17.3189 44.3754 17.4889 44.1881 17.5683C44.0008 17.6477 43.7261 17.659 43.439 17.659C43.1518 17.659 42.977 17.4889 42.7897 17.3189C42.6024 17.1488 42.5025 16.9673 42.4151 16.7179C42.3277 16.4571 42.4151 16.2983 42.5025 16.0375C42.5899 15.8674 42.7897 15.6066 42.977 15.5273C43.1643 15.4479 43.439 15.3572 43.7261 15.3572C44.1007 15.3572 44.3754 15.4366 44.6626 15.6974C44.75 15.8561 44.9373 16.1282 44.9373 16.4684Z" fill="#263338"/>
<path d="M50.2786 17.5682C51.0278 17.5682 51.5896 17.058 51.5896 16.3776C51.5896 15.6973 51.0278 15.187 50.2786 15.187C49.5294 15.187 48.9551 15.6973 48.9551 16.3776C48.9551 17.058 49.5294 17.5682 50.2786 17.5682Z" fill="#263338"/>
<path d="M69.565 24.6272H33.6051C32.4814 24.6272 31.5449 25.4776 31.5449 26.4982V42.2313C31.5449 43.2518 32.4814 44.1023 33.6051 44.1023H69.565C70.6888 44.1023 71.6253 43.2518 71.6253 42.2313V26.4131C71.5316 25.3926 70.6888 24.6272 69.565 24.6272Z" stroke="#263338" stroke-width="0.999975" stroke-linecap="round" stroke-linejoin="round"/>
<path d="M33.8867 41.5508H68.6292" stroke="#263338" stroke-width="0.999975" stroke-linecap="round" stroke-linejoin="round"/>
<path d="M40.4408 37.894H36.4141V41.5509H40.4408V37.894Z" fill="#F29949"/>
<path d="M40.4408 37.894H36.4141V41.5509H40.4408V37.894Z" stroke="#263338" stroke-width="0.999975" stroke-miterlimit="10"/>
<path d="M46.3412 33.0466H42.3145V41.551H46.3412V33.0466Z" fill="#F29949"/>
<path d="M46.3412 33.0466H42.3145V41.551H46.3412V33.0466Z" stroke="#263338" stroke-width="0.999975" stroke-miterlimit="10"/>
<path d="M52.9916 34.4922H48.9648V41.6359H52.9916V34.4922Z" fill="#F29949"/>
<path d="M52.9916 34.4922H48.9648V41.6359H52.9916V34.4922Z" stroke="#263338" stroke-width="0.999975" stroke-miterlimit="10"/>
<path d="M60.015 27.4336H55.9883V41.4658H60.015V27.4336Z" fill="#F29949"/>
<path d="M60.015 27.4336H55.9883V41.4658H60.015V27.4336Z" stroke="#263338" stroke-width="0.999975" stroke-miterlimit="10"/>
<path d="M66.9428 27.5188H62.916V41.5511H66.9428V27.5188Z" fill="#F29949"/>
<path d="M66.9428 27.5188H62.916V41.5511H66.9428V27.5188Z" stroke="#263338" stroke-width="0.999975" stroke-miterlimit="10"/>
<path d="M121.258 45.0377C127.439 45.0377 132.496 40.4454 132.496 34.8325C132.496 29.2196 127.439 24.6272 121.258 24.6272C115.078 24.6272 110.021 29.2196 110.021 34.8325C109.927 40.4454 114.984 45.0377 121.258 45.0377Z" fill="#F29949"/>
<path d="M121.258 45.0377C127.439 45.0377 132.496 40.4454 132.496 34.8325C132.496 29.2196 127.439 24.6272 121.258 24.6272C115.078 24.6272 110.021 29.2196 110.021 34.8325C109.927 40.4454 114.984 45.0377 121.258 45.0377Z" stroke="#263338" stroke-width="0.999975" stroke-miterlimit="10"/>
<path d="M122.201 41.2108V42.2314H120.328V41.2108C119.579 41.0408 118.83 40.6212 118.355 40.0202C117.881 39.4306 117.606 38.7502 117.706 37.9792V37.4689L119.866 37.2988V37.8091C119.866 38.7389 120.415 39.3399 121.265 39.3399C121.452 39.3399 121.639 39.3399 121.826 39.2605C122.014 39.1811 122.201 39.0904 122.288 38.9997C122.376 38.9203 122.576 38.7502 122.576 38.5802C122.663 38.4101 122.675 38.24 122.675 38.0699C122.675 37.1401 121.739 36.369 120.615 35.5186C119.304 34.498 117.893 33.3074 117.893 31.6066C117.893 29.9057 118.742 28.7944 120.328 28.4543V27.4451H122.201V28.4543C123.787 28.7944 124.636 29.9964 124.636 31.6973V32.0374L122.476 32.2075V31.856C122.476 30.8355 122.014 30.3252 121.265 30.3252C120.515 30.3252 120.041 30.7561 120.041 31.6066C120.041 32.5364 121.077 33.3074 122.101 34.1579C123.412 35.1784 124.811 36.369 124.811 38.0699C124.811 38.841 124.623 39.51 124.061 40.1109C123.599 40.6212 122.95 41.0408 122.201 41.2108Z" fill="#263338"/>
<path d="M30.6074 53.967H33.885" stroke="#263338" stroke-width="0.999975" stroke-linecap="round" stroke-linejoin="round"/>
<path d="M30.6074 59.7502H33.885" stroke="#263338" stroke-width="0.999975" stroke-linecap="round" stroke-linejoin="round"/>
<path d="M30.6074 65.5332H33.885" stroke="#263338" stroke-width="0.999975" stroke-linecap="round" stroke-linejoin="round"/>
<path d="M30.6074 71.3162H33.885" stroke="#263338" stroke-width="0.999975" stroke-linecap="round" stroke-linejoin="round"/>
<path d="M41.0996 75.6534V73.3572" stroke="#263338" stroke-width="0.999975" stroke-linecap="round" stroke-linejoin="round"/>
<path d="M46.3418 75.6534V73.3572" stroke="#263338" stroke-width="0.999975" stroke-linecap="round" stroke-linejoin="round"/>
<path d="M51.582 75.6534V73.3572" stroke="#263338" stroke-width="0.999975" stroke-linecap="round" stroke-linejoin="round"/>
<path d="M56.7383 75.6534V73.3572" stroke="#263338" stroke-width="0.999975" stroke-linecap="round" stroke-linejoin="round"/>
<path d="M61.9785 75.6534V73.3572" stroke="#263338" stroke-width="0.999975" stroke-linecap="round" stroke-linejoin="round"/>
<path d="M67.2207 75.6534V73.3572" stroke="#263338" stroke-width="0.999975" stroke-linecap="round" stroke-linejoin="round"/>
<path d="M72.373 75.6534V73.3572" stroke="#263338" stroke-width="0.999975" stroke-linecap="round" stroke-linejoin="round"/>
<path d="M77.6172 75.6534V73.3572" stroke="#263338" stroke-width="0.999975" stroke-linecap="round" stroke-linejoin="round"/>
<path d="M82.8613 75.6534V73.3572" stroke="#263338" stroke-width="0.999975" stroke-linecap="round" stroke-linejoin="round"/>
<path d="M88.1055 75.6534V73.3572" stroke="#263338" stroke-width="0.999975" stroke-linecap="round" stroke-linejoin="round"/>
<path d="M93.2559 75.6534V73.3572" stroke="#263338" stroke-width="0.999975" stroke-linecap="round" stroke-linejoin="round"/>
<path d="M98.5 75.6534V73.3572" stroke="#263338" stroke-width="0.999975" stroke-linecap="round" stroke-linejoin="round"/>
<path d="M103.744 75.6534V73.3572" stroke="#263338" stroke-width="0.999975" stroke-linecap="round" stroke-linejoin="round"/>
<path d="M108.896 75.6534V73.3572" stroke="#263338" stroke-width="0.999975" stroke-linecap="round" stroke-linejoin="round"/>
<path d="M114.139 75.6534V73.3572" stroke="#263338" stroke-width="0.999975" stroke-linecap="round" stroke-linejoin="round"/>
<path d="M119.197 75.6534V73.3572" stroke="#263338" stroke-width="0.999975" stroke-linecap="round" stroke-linejoin="round"/>
<path d="M124.16 75.6534V73.3572" stroke="#263338" stroke-width="0.999975" stroke-linecap="round" stroke-linejoin="round"/>
<path d="M129.217 75.6534V73.3572" stroke="#263338" stroke-width="0.999975" stroke-linecap="round" stroke-linejoin="round"/>
<path d="M142.518 50.3953V72.8469C142.518 74.3777 140.832 75.6534 138.678 75.6534H34.4507C33.7952 75.6534 33.1397 75.5683 32.5778 75.3132C32.0159 75.0581 31.454 74.7179 31.0795 74.2927C30.7049 73.8675 30.5176 73.3572 30.5176 72.8469V50.3953C30.5176 48.8645 32.2032 47.5889 34.357 47.5889H138.585C140.738 47.5974 142.518 48.8645 142.518 50.3953Z" stroke="#4452FE" stroke-width="0.999975" stroke-linecap="round" stroke-linejoin="round"/>
<path d="M110.764 6.93257L77.5259 47.5949L64.7901 63.1523L50.9305 55.0674L33.887 75.6594H33.5998C33.038 75.6594 32.576 75.58 32.1015 75.3192C31.627 75.0584 31.2649 74.7296 30.9902 74.2987L50.0939 51.2461L63.9535 59.2403L73.5053 47.6743L108.154 5.23169L110.764 6.93257Z" fill="#263338"/>
<path d="M102.334 7.44254L114.608 0.729736L111.237 12.3751L109.076 7.01165L102.334 7.44254Z" fill="#263338"/>
<path d="M217.994 135.61H22.5556L0.548828 153.299" stroke="#263338" stroke-width="0.999975" stroke-linecap="round" stroke-linejoin="round"/>
<path d="M22.6504 123.193V88.7505" stroke="#263338" stroke-width="0.999975" stroke-linecap="round" stroke-linejoin="round"/>
<path d="M22.6504 133.568V126.935" stroke="#263338" stroke-width="0.999975" stroke-linecap="round" stroke-linejoin="round"/>
<path d="M206.283 51.8466C206.283 51.8466 206.283 49.7942 203.099 46.8233C199.915 43.9318 197.855 42.231 197.855 42.231C197.855 42.231 196.269 46.9934 199.266 49.8849C201.426 51.926 203.861 53.7969 206.383 55.4978V51.8466H206.283Z" fill="#4452FE"/>
<path d="M201.601 64.8527C201.601 64.8527 201.601 62.8003 198.417 59.8294C195.233 56.9379 193.173 55.2371 193.173 55.2371C193.173 55.2371 191.587 59.9995 194.584 62.891C196.744 64.9321 199.179 66.803 201.701 68.5039V64.8527H201.601Z" fill="#4452FE"/>
<path d="M206.007 55.4075C206.007 55.4075 206.295 53.3665 209.753 50.7358C213.312 48.1845 215.559 46.7444 215.559 46.7444C215.559 46.7444 216.583 51.6769 213.312 54.2283C210.877 56.0085 208.342 57.7094 205.633 59.1608L206.007 55.4075Z" fill="#4452FE"/>
<path d="M200.388 70.715C200.388 70.715 200.863 68.674 204.696 66.4628C208.529 64.2517 210.876 62.9817 210.876 62.9817C210.876 62.9817 211.338 68.005 207.78 70.2161C205.158 71.8376 202.448 73.187 199.539 74.3776L200.388 70.715Z" fill="#4452FE"/>
<path d="M201.513 87.4748C201.513 87.4748 201.513 85.4337 204.697 82.4628C207.881 79.5713 209.941 77.8591 209.941 77.8591C209.941 77.8591 211.527 82.6329 208.53 85.5244C206.37 87.5655 203.948 89.4251 201.426 91.126V87.4748H201.513Z" fill="#4452FE"/>
<path d="M201.425 91.5567C201.425 91.5567 201.712 89.5156 198.99 86.1932C196.268 82.8709 194.495 81.0112 194.495 81.0112C194.495 81.0112 192.148 85.5242 194.67 88.8353C196.543 91.1258 198.603 93.3483 200.851 95.2986L201.425 91.5567Z" fill="#4452FE"/>
<path d="M198.239 103.633C198.239 103.633 198.239 101.592 201.423 98.6207C204.606 95.7292 206.654 94.1077 206.654 94.1077C206.654 94.1077 208.252 98.8701 205.256 101.762C203.096 103.803 200.661 105.674 198.139 107.375V103.633H198.239Z" fill="#4452FE"/>
<path d="M200.389 114.598C200.389 114.598 199.827 112.557 202.074 109.076C204.322 105.504 205.92 103.463 205.92 103.463C205.92 103.463 208.817 107.715 206.756 111.196C205.171 113.668 203.485 116.049 201.425 118.261L200.389 114.598Z" fill="#4452FE"/>
<path d="M206.568 51.3308C206.381 53.4569 206.1 55.6681 205.725 57.7942C204.414 63.7472 201.324 67.5742 200.013 72.932C198.796 78.2897 202.354 85.2633 201.418 92.1519C200.481 99.0405 197.485 102.867 198.327 107.46C199.17 112.052 203.572 124.554 203.572 124.554" stroke="#263338" stroke-width="1.17997" stroke-linecap="round" stroke-linejoin="round"/>
<path d="M206.008 56.7736L209.473 54.3923" stroke="#263338" stroke-width="1.17997" stroke-linecap="round" stroke-linejoin="round"/>
<path d="M206.196 54.052L204.791 51.7559" stroke="#263338" stroke-width="1.17997" stroke-linecap="round" stroke-linejoin="round"/>
<path d="M200.203 72.6772C200.203 72.6772 203.106 70.7211 206.103 68.7651" stroke="#263338" stroke-width="1.17997" stroke-linecap="round" stroke-linejoin="round"/>
<path d="M201.608 68.5946C201.608 68.5946 199.173 64.3424 196.457 61.4509" stroke="#263338" stroke-width="1.17997" stroke-linecap="round" stroke-linejoin="round"/>
<path d="M201.605 90.4509C203.291 87.7295 205.351 85.1782 207.786 82.967" stroke="#263338" stroke-width="1.17997" stroke-linecap="round" stroke-linejoin="round"/>
<path d="M201.045 93.3428C200.202 91.4718 199.078 89.6859 197.861 87.9C196.175 85.6038 195.895 85.3486 195.895 85.3486" stroke="#263338" stroke-width="1.17997" stroke-linecap="round" stroke-linejoin="round"/>
<path d="M198.234 107.46C198.984 105.844 199.826 104.228 200.856 102.697C201.887 101.252 203.01 99.8994 204.228 98.7087" stroke="#263338" stroke-width="1.17997" stroke-linecap="round" stroke-linejoin="round"/>
<path d="M201.418 118.261C201.23 116.645 201.511 115.114 202.26 113.668C203.478 111.542 204.789 108.736 205.351 107.715" stroke="#263338" stroke-width="1.17997" stroke-linecap="round" stroke-linejoin="round"/>
<path d="M185.216 79.6502C185.216 79.6502 184.929 78.3802 186.614 76.2484C188.3 74.1167 189.424 72.8467 189.424 72.8467C189.424 72.8467 191.022 75.6475 189.524 77.7792C188.4 79.31 187.089 80.6707 185.778 82.0314L185.216 79.6502Z" fill="#4452FE"/>
<path d="M189.716 87.3043C189.716 87.3043 189.441 86.0343 191.127 83.8231C192.812 81.6914 193.936 80.4214 193.936 80.4214C193.936 80.4214 195.522 83.2222 194.024 85.3539C192.9 86.8847 191.589 88.2454 190.278 89.6061L189.716 87.3043Z" fill="#4452FE"/>
<path d="M185.78 81.8616C185.78 81.8616 185.393 80.5803 182.871 79.3103C180.349 78.0403 178.75 77.3486 178.75 77.3486C178.75 77.3486 178.663 80.5009 181.098 81.8616C182.883 82.7914 184.656 83.5625 186.529 84.1521L185.78 81.8616Z" fill="#4452FE"/>
<path d="M191.21 90.8765C191.21 90.8765 190.649 89.6858 188.026 88.6653C185.404 87.6448 183.719 87.1345 183.719 87.1345C183.719 87.1345 184.006 90.2755 186.528 91.3867C188.401 92.1578 190.274 92.7361 192.147 93.167L191.21 90.8765Z" fill="#4452FE"/>
<path d="M192.521 101.513C192.521 101.513 192.246 100.231 189.899 98.7006C187.551 97.1698 186.053 96.3193 186.053 96.3193C186.053 96.3193 185.591 99.4603 187.838 100.991C189.424 102.102 191.21 103.032 192.995 103.803L192.521 101.513Z" fill="#4452FE"/>
<path d="M192.996 104.064C192.996 104.064 192.521 102.782 193.832 100.492C195.143 98.2014 196.08 96.75 196.08 96.75C196.08 96.75 198.053 99.3807 196.929 101.683C195.992 103.304 194.956 104.914 193.832 106.354L192.996 104.064Z" fill="#4452FE"/>
<path d="M197.017 114.598C197.017 114.598 197.204 113.328 199.452 111.627C201.699 110.005 203.098 109.076 203.098 109.076C203.098 109.076 203.747 112.217 201.6 113.838C200.014 115.029 198.428 116.049 196.643 116.9L197.017 114.598Z" fill="#4452FE"/>
<path d="M196.454 111.287C196.454 111.287 196.18 110.006 193.832 108.475C191.485 106.944 189.986 106.094 189.986 106.094C189.986 106.094 189.524 109.246 191.772 110.777C193.358 111.888 195.131 112.806 196.916 113.577L196.454 111.287Z" fill="#4452FE"/>
<path d="M196.455 118.431C196.455 118.431 196.542 117.07 194.669 115.108C192.797 113.067 191.585 111.967 191.585 111.967C191.585 111.967 190.274 114.938 191.96 116.9C193.271 118.34 194.582 119.621 196.168 120.812L196.455 118.431Z" fill="#4452FE"/>
<path d="M185.031 79.3105C185.406 80.6713 185.874 81.9469 186.342 83.3076C187.841 86.8795 190.275 89.0056 191.68 92.2372C193.085 95.4689 191.68 100.146 193.085 104.399C194.489 108.651 196.831 110.692 196.831 113.753C196.831 116.73 195.613 124.979 195.613 124.979" stroke="#263338" stroke-width="1.17997" stroke-linecap="round" stroke-linejoin="round"/>
<path d="M185.966 82.7121L183.531 81.5215" stroke="#263338" stroke-width="1.17997" stroke-linecap="round" stroke-linejoin="round"/>
<path d="M185.59 81.0111L186.245 79.3953" stroke="#263338" stroke-width="1.17997" stroke-linecap="round" stroke-linejoin="round"/>
<path d="M191.585 92.067C191.585 92.067 189.525 91.1315 187.465 90.196" stroke="#263338" stroke-width="1.17997" stroke-linecap="round" stroke-linejoin="round"/>
<path d="M190.18 89.6861C190.742 87.9852 191.584 86.2843 192.521 84.6685" stroke="#263338" stroke-width="1.17997" stroke-linecap="round" stroke-linejoin="round"/>
<path d="M192.803 103.378C191.399 101.847 189.807 100.401 188.027 99.2957" stroke="#263338" stroke-width="1.17997" stroke-linecap="round" stroke-linejoin="round"/>
<path d="M193.457 105.164C193.738 103.888 194.206 102.697 194.768 101.507C195.517 99.8908 195.705 99.7207 195.705 99.7207" stroke="#263338" stroke-width="1.17997" stroke-linecap="round" stroke-linejoin="round"/>
<path d="M196.828 115.964C197.671 115.029 198.514 114.263 199.45 113.498C200.106 113.073 200.668 112.647 201.136 112.137" stroke="#263338" stroke-width="1.17997" stroke-linecap="round" stroke-linejoin="round"/>
<path d="M196.922 113.753C196.267 112.818 195.518 111.882 194.675 111.032C193.832 110.267 192.989 109.501 192.053 108.821" stroke="#263338" stroke-width="1.17997" stroke-linecap="round" stroke-linejoin="round"/>
<path d="M196.173 120.812C196.08 119.791 195.705 118.856 195.05 118.005C194.02 116.815 192.802 115.199 192.334 114.519" stroke="#263338" stroke-width="1.17997" stroke-linecap="round" stroke-linejoin="round"/>
<path d="M206.845 139.181H192.237C191.949 139.181 191.675 139.09 191.488 138.92C191.3 138.75 191.113 138.501 191.113 138.24L189.053 123.522H210.029L207.982 138.24C207.982 138.501 207.882 138.75 207.694 138.92C207.42 139.011 207.133 139.181 206.845 139.181Z" fill="#263338"/>
<path d="M209.852 125.994H189.063C188.589 125.994 188.214 125.835 187.939 125.574C187.652 125.314 187.465 124.894 187.465 124.554C187.465 124.123 187.652 123.783 187.939 123.533C188.226 123.273 188.688 123.114 189.063 123.114H209.852C210.04 123.114 210.314 123.114 210.502 123.193C210.689 123.273 210.876 123.363 211.064 123.533C211.251 123.703 211.351 123.873 211.438 124.044C211.526 124.214 211.526 124.395 211.526 124.645C211.526 124.815 211.526 125.064 211.438 125.234C211.351 125.404 211.251 125.574 211.064 125.744C210.876 125.915 210.689 126.005 210.502 126.085C210.314 125.915 210.127 125.994 209.852 125.994Z" fill="#263338"/>
<path d="M163.028 67.3131C163.028 71.486 161.43 75.4887 158.62 78.7204C155.811 81.952 151.778 84.2425 147.383 85.1724H147.295C146.733 85.2517 146.259 85.3424 145.697 85.4332C144.761 85.5125 143.737 85.6032 142.8 85.6032C137.556 85.6032 132.499 83.7323 128.666 80.3305C124.92 76.9288 122.76 72.4158 122.673 67.5739C122.585 62.7321 124.533 58.1284 128.192 54.6472C131.85 51.1661 136.807 49.1251 142.051 48.8643C142.238 48.8643 142.426 48.8643 142.613 48.8643C142.7 48.8643 142.713 48.8643 142.8 48.8643C142.888 48.8643 142.9 48.8643 142.988 48.8643C145.71 48.8643 148.419 49.3745 150.854 50.3951C154.412 51.8351 157.496 54.137 159.657 57.1986C161.892 60.2601 163.028 63.7413 163.028 67.3131Z" fill="#4452FE"/>
<path d="M150.944 50.4864C127.62 49.3751 127.532 72.8472 127.532 72.8472C127.532 72.8472 123.974 65.1933 129.78 56.6889C133.051 51.9264 138.682 49.8854 143.078 48.9556C145.8 49.0349 148.422 49.5452 150.944 50.4864Z" fill="white" fill-opacity="0.4"/>
<path d="M163.024 67.3192C163.024 71.4864 161.432 75.4834 158.623 78.7151C155.813 81.9468 151.786 84.243 147.292 85.1784C145.793 85.5186 144.295 85.6037 142.797 85.6037C137.459 85.6887 132.308 83.8177 128.375 80.501C124.536 77.0993 122.288 72.5069 122.194 67.6594C122.101 62.8119 124.161 58.1345 127.813 54.5626C131.559 51.0758 136.616 49.0347 141.954 48.9497C142.235 48.9497 142.422 48.9497 142.703 48.9497C148.041 48.9497 153.191 50.9057 156.937 54.3075C160.87 57.7943 163.024 62.4717 163.024 67.3192Z" stroke="#263338" stroke-width="0.999975" stroke-linecap="round" stroke-linejoin="round"/>
<path d="M163.025 67.3192C163.025 71.4864 161.433 75.4834 158.623 78.7151C155.814 81.9468 151.787 84.243 147.292 85.1784C147.011 85.1784 146.824 85.1784 146.543 85.1784C141.58 85.1784 136.804 83.4776 133.152 80.501C129.499 77.5245 127.158 73.3573 126.596 68.935C126.035 64.4277 127.346 60.0054 130.155 56.2635C133.058 52.6066 137.272 49.9702 142.142 48.9497C142.423 48.9497 142.619 48.9497 142.9 48.9497C148.238 48.9497 153.379 50.9057 157.125 54.3075C160.861 57.7943 163.025 62.4717 163.025 67.3192Z" stroke="#263338" stroke-width="0.999975" stroke-linecap="round" stroke-linejoin="round"/>
<path d="M149.819 78.8002L150.381 80.7562L146.916 81.5216L146.355 79.5656C143.264 79.5656 140.736 77.6946 139.893 74.8031L139.612 73.9527L143.452 72.677L143.732 73.6125C144.201 75.3985 145.512 76.2489 147.197 75.9087C147.572 75.8237 147.853 75.7386 148.227 75.5685C148.508 75.3985 148.789 75.1348 148.977 74.8797C149.164 74.6246 149.258 74.2929 149.351 73.9527C149.351 73.6125 149.351 73.2724 149.258 73.0172C148.789 71.3163 146.635 70.2108 144.107 69.1052C141.11 67.8295 138.02 66.1287 137.177 62.982C136.334 59.9205 137.365 57.3691 140.08 56.0935L139.518 54.1375L142.983 53.3721L143.545 55.3281C146.542 55.3281 148.789 57.114 149.632 60.2606L149.819 60.8559L145.98 62.1316L145.793 61.4512C145.324 59.5803 144.201 58.7298 142.796 59.07C141.391 59.4102 140.736 60.3457 141.204 61.9615C141.672 63.6624 143.92 64.768 146.355 65.8735C149.351 67.2342 152.451 68.8416 153.294 71.9882C153.94 74.8031 152.629 77.5245 149.819 78.8002Z" stroke="#263338" stroke-width="0.999975" stroke-miterlimit="10"/>
<path d="M149.817 78.8L150.379 80.7617L146.921 81.5214L146.359 79.5597C143.262 79.5597 140.74 77.7001 139.891 74.8086L139.616 73.9582L143.449 72.6769L143.737 73.618C144.211 75.3983 145.51 76.2487 147.195 75.9085C147.57 75.8292 147.844 75.7384 148.219 75.5683C148.506 75.3983 148.793 75.1488 148.981 74.888C149.168 74.6272 149.268 74.287 149.355 73.9468C149.355 73.6067 149.343 73.2665 149.255 73.017C148.781 71.3162 146.633 70.2049 144.111 69.105C141.114 67.835 138.03 66.1228 137.181 62.9818C136.332 59.9203 137.356 57.3689 140.078 56.099L139.516 54.1373L142.975 53.3662L143.537 55.3279C146.533 55.3279 148.781 57.1081 149.63 60.2604L149.817 60.8501L145.972 62.1314L145.797 61.4511C145.322 59.5801 144.199 58.7296 142.8 59.0698C141.402 59.41 140.727 60.3398 141.202 61.9613C141.676 63.6622 143.924 64.7734 146.359 65.8733C149.355 67.234 152.439 68.8555 153.288 71.9965C153.938 74.8086 152.627 77.53 149.817 78.8Z" fill="black" fill-opacity="0.3"/>
<path d="M132.496 83.0529L136.804 82.8821" stroke="#263338" stroke-width="0.999975" stroke-linecap="round" stroke-linejoin="round"/>
<path d="M130.436 81.7768L134.181 81.5217" stroke="#263338" stroke-width="0.999975" stroke-linecap="round" stroke-linejoin="round"/>
<path d="M128.844 80.4158L132.59 80.1606" stroke="#263338" stroke-width="0.999975" stroke-linecap="round" stroke-linejoin="round"/>
<path d="M128.281 54.5625H131.465" stroke="#263338" stroke-width="0.999975" stroke-linecap="round" stroke-linejoin="round"/>
<path d="M129.877 53.2878L133.061 53.1169" stroke="#263338" stroke-width="0.999975" stroke-linecap="round" stroke-linejoin="round"/>
<path d="M131.842 51.9263L135.213 51.6711" stroke="#263338" stroke-width="0.999975" stroke-linecap="round" stroke-linejoin="round"/>
<path d="M147.385 85.1724C145.887 85.5125 144.389 85.6032 142.791 85.6032C137.546 85.6032 132.49 83.7323 128.656 80.3305C124.91 76.9288 122.75 72.4158 122.663 67.5739C122.576 62.8115 124.523 58.1284 128.182 54.6472C131.84 51.1661 136.81 49.1251 142.054 48.8643C142.241 48.8643 142.416 48.8643 142.603 48.8643C137.634 50.3043 129.405 53.8762 127.245 61.3601C124.161 72.1663 131.191 84.2425 147.385 85.1724Z" fill="black" fill-opacity="0.3"/>
<path d="M163.03 67.3134C163.03 71.4863 161.432 75.489 158.622 78.7207C155.813 81.9523 151.78 84.2429 147.385 85.1727H147.297C146.736 85.252 146.261 85.3428 145.699 85.4335L150.943 50.4861C154.502 51.9262 157.586 54.228 159.746 57.2896C161.894 60.2605 163.03 63.7416 163.03 67.3134Z" fill="black" fill-opacity="0.1"/>
<path d="M174.441 38.3986C172.855 40.4397 170.508 41.9705 167.886 42.6508C165.263 43.3312 162.354 43.2518 159.832 42.2313H159.745C159.37 42.0612 158.995 41.8911 158.621 41.721C158.246 41.5509 157.784 41.3015 157.41 41.0407C154.975 39.3398 153.289 36.8678 152.727 34.0671C152.166 31.2549 152.915 28.4542 154.6 26.0729C156.286 23.6917 158.908 22.0702 161.905 21.3898C164.901 20.7095 168.073 21.1404 170.795 22.5011L171.082 22.6712C171.169 22.7505 171.369 22.8413 171.457 22.932C171.544 23.0113 171.831 23.1928 172.018 23.2721C174.453 25.0524 176.039 27.6037 176.513 30.4158C177.075 33.3073 176.314 36.1081 174.441 38.3986Z" fill="#4452FE"/>
<path d="M156.087 38.5802C156.087 38.5802 154.127 33.2168 156.749 29.3048C160.12 24.3722 165.177 22.1611 172.107 23.3517C172.107 23.3517 168.361 21.0612 161.993 22.6713C155.725 24.3722 152.341 32.2076 156.087 38.5802Z" fill="white" fill-opacity="0.4"/>
<path d="M174.448 38.4893C172.856 40.5303 170.515 42.0611 167.893 42.7415C165.271 43.4218 162.368 43.3368 159.84 42.3163C158.997 41.9761 158.154 41.6359 157.405 41.1257C154.97 39.4248 153.284 36.865 152.816 34.0585C152.348 31.252 153.004 28.3606 154.783 26.0644C156.562 23.7682 159.184 22.0673 162.274 21.472C165.365 20.8767 168.549 21.3019 171.171 22.8327C171.264 22.9177 171.452 23.0028 171.545 23.0878C174.167 24.7887 175.947 27.34 176.509 30.2315C177.07 33.0465 176.321 36.023 174.448 38.4893Z" stroke="#263338" stroke-width="0.999975" stroke-linecap="round" stroke-linejoin="round"/>
<path d="M174.447 38.4891C172.855 40.5302 170.514 42.061 167.892 42.7413C165.27 43.4217 162.367 43.3366 159.839 42.3161L159.464 42.061C157.029 40.4451 155.344 38.1489 154.688 35.5126C154.033 32.8762 154.501 30.0698 155.905 27.6885C157.31 25.3073 159.651 23.5214 162.461 22.5859C165.27 21.6504 168.36 21.7355 171.076 22.756C171.17 22.841 171.357 22.9261 171.451 23.0111C174.073 24.712 175.852 27.2633 176.414 30.1548C176.976 33.0463 176.32 36.0229 174.447 38.4891Z" stroke="#263338" stroke-width="0.999975" stroke-linecap="round" stroke-linejoin="round"/>
<path d="M163.489 39.9351L163.021 41.0406L160.961 40.3603L161.429 39.2547C160.68 38.7445 160.118 38.0641 159.931 37.2987C159.65 36.5333 159.744 35.5893 160.118 34.909L160.306 34.4072L162.74 34.994L162.553 35.5043C162.085 36.5248 162.366 37.3752 163.396 37.7154C163.583 37.8005 163.77 37.8855 164.051 37.8855C164.239 37.8855 164.52 37.8855 164.707 37.8005C164.894 37.7154 165.081 37.6304 165.269 37.4603C165.456 37.2902 165.55 37.1201 165.55 36.95C166.018 35.9295 165.362 34.7389 164.52 33.3782C163.583 31.7623 162.647 29.9764 163.489 28.1905C164.239 26.4046 165.737 25.4691 167.516 25.7242L167.984 24.6187L170.045 25.299L169.576 26.4046C171.075 27.3401 171.543 28.9559 170.7 30.7418L170.513 31.082L168.078 30.4952L168.265 30.07C168.734 28.9644 168.546 28.199 167.704 27.9439C166.861 27.6037 166.205 27.9439 165.831 28.8794C165.362 29.8999 166.112 31.082 166.861 32.4427C167.797 34.0585 168.734 35.8445 167.891 37.6304C167.61 38.3958 166.954 39.0761 166.205 39.5864C165.362 39.85 164.426 40.0201 163.489 39.9351Z" stroke="#263338" stroke-width="0.999975" stroke-miterlimit="10"/>
<path d="M163.49 39.9408L163.028 41.0407L160.968 40.3604L161.43 39.2491C160.681 38.7389 160.119 38.0699 159.932 37.2988C159.645 36.5277 159.744 35.5979 160.119 34.9176L160.306 34.4073L162.741 34.9969L162.554 35.5072C162.079 36.5277 162.379 37.3782 163.403 37.7184C163.59 37.7977 163.777 37.8884 164.052 37.8884C164.239 37.8884 164.514 37.8771 164.701 37.7977C164.889 37.7184 165.076 37.6276 165.263 37.4576C165.451 37.2875 165.55 37.1174 165.55 36.9473C166.025 35.9268 165.376 34.7361 164.527 33.3754C163.59 31.7539 162.641 29.9737 163.49 28.1934C164.239 26.4132 165.738 25.472 167.523 25.7215L167.985 24.6216L170.045 25.3019L169.583 26.4132C171.082 27.343 171.544 28.9645 170.695 30.7447L170.52 31.0849L168.085 30.4953L168.272 30.0644C168.747 28.9532 168.56 28.2048 167.711 27.944C166.861 27.6038 166.212 27.944 165.838 28.8738C165.363 29.8943 166.112 31.0849 166.861 32.4456C167.798 34.0671 168.734 35.8474 167.885 37.6276C167.598 38.3987 166.949 39.0791 166.2 39.5893C165.363 39.8501 164.427 40.0202 163.49 39.9408Z" fill="black" fill-opacity="0.3"/>
<path d="M170.895 22.5916C167.523 22.0814 163.303 21.7298 161.056 23.0906C156.835 25.5625 154.213 28.6241 154.313 33.5566C154.313 38.5799 159.47 42.061 159.47 42.061L159.745 42.2311C158.896 41.8909 158.159 41.5508 157.41 41.0405C154.975 39.3396 153.289 36.8677 152.727 34.0669C152.166 31.2548 152.915 28.454 154.6 26.0728C156.286 23.6915 158.908 22.07 161.905 21.3897C164.889 20.7093 168.173 21.2309 170.895 22.5916Z" fill="black" fill-opacity="0.3"/>
<path d="M174.441 38.3984C172.855 40.4395 170.508 41.9703 167.886 42.6506C165.264 43.331 162.354 43.2516 159.832 42.2311H159.745C159.37 42.061 158.996 41.8909 158.621 41.7208L172.106 23.3513C174.541 25.1316 176.127 27.6829 176.601 30.495C177.063 33.2958 176.226 36.1079 174.441 38.3984Z" fill="black" fill-opacity="0.1"/>
<path d="M168.173 180.603C163.029 186.216 156.848 191.058 149.918 194.891C147.758 196.081 145.511 197.102 143.263 198.031C127.431 204.495 109.463 204.926 92.6072 201.184C57.2092 193.36 38.3927 165.034 36.0453 133.489C35.396 124.984 33.9851 115.788 37.7309 107.715C41.5641 99.6413 49.2431 94.6067 57.8585 91.1255C64.1265 88.5742 70.9689 86.8733 77.1495 85.4333C88.3869 82.882 100.199 83.9818 110.587 88.5742C117.892 91.7152 123.036 97.1693 129.129 101.762C129.778 102.272 130.44 102.692 131.089 103.202C137.27 107.715 143.725 111.876 150.568 115.618C160.869 121.31 171.357 126.674 178.012 136.29C188.588 151.597 179.685 168.187 168.173 180.603Z" fill="#4452FE"/>
<path d="M168.173 180.603C163.029 186.216 156.848 191.058 149.918 194.891C147.758 196.081 145.511 197.102 143.263 198.031C127.431 204.495 109.463 204.926 92.6072 201.184C57.2092 193.36 38.3927 165.034 36.0453 133.489C35.396 124.984 33.9851 115.788 37.7309 107.715C41.5641 99.6413 49.2431 94.6067 57.8585 91.1255C64.1265 88.5742 70.9689 86.8733 77.1495 85.4333C88.3869 82.882 100.199 83.9818 110.587 88.5742C117.892 91.7152 123.036 97.1693 129.129 101.762C129.778 102.272 130.44 102.692 131.089 103.202C137.27 107.715 143.725 111.876 150.568 115.618C160.869 121.31 171.357 126.674 178.012 136.29C188.588 151.597 179.685 168.187 168.173 180.603Z" fill="white" fill-opacity="0.4"/>
<path d="M131.183 103.293C130.527 102.783 129.872 102.357 129.216 101.847C123.129 97.2547 117.885 91.8119 110.675 88.6652C100.28 84.1579 88.4805 83.0608 77.2431 85.5271C62.5407 88.8438 44.2798 93.938 37.8182 107.8C33.9788 115.879 35.4771 125.073 36.1326 133.577C38.5674 165.043 57.2965 193.439 92.6946 201.263C111.986 205.516 132.681 204.325 150.006 194.97C156.935 191.143 163.116 186.296 168.267 180.683C179.785 168.266 188.588 151.683 178.099 136.375C171.544 126.765 160.962 121.407 150.661 115.709C143.919 111.967 137.364 107.8 131.183 103.293Z" stroke="#263338" stroke-width="0.999975" stroke-miterlimit="10"/>
<path d="M77.5237 159.422C74.6207 160.272 71.7177 161.293 69.002 162.569" stroke="#263338" stroke-width="0.999975" stroke-linecap="round" stroke-linejoin="round"/>
<path d="M95.597 156.275C91.2893 156.615 86.9816 157.211 82.7676 158.146" stroke="#263338" stroke-width="0.999975" stroke-linecap="round" stroke-linejoin="round"/>
<path d="M91.8557 155.51C91.8557 155.51 75.2804 146.75 55.2402 153.809" stroke="#263338" stroke-width="0.999975" stroke-linecap="round" stroke-linejoin="round"/>
<path d="M168.177 180.603C163.033 186.216 156.852 191.058 149.923 194.891C147.763 196.081 145.515 197.102 143.268 198.032C141.482 197.521 139.709 196.932 137.936 196.251C127.548 192.169 118.82 185.354 110.304 178.642C105.16 174.65 100.003 170.477 93.8227 167.847C85.482 164.275 76.0301 163.595 67.2274 165.885C71.8223 161.213 77.9904 158.072 84.8328 157.131C80.4376 153.469 74.3569 151.938 68.3636 151.858C62.4577 151.779 59.1863 152.448 53.3803 153.639C55.3406 150.407 60.4849 147.425 64.5179 147.516C60.6847 147.436 56.8389 147.266 52.9932 146.756C47.7491 145.985 45.4142 140.372 44.665 135.609C42.5049 122.513 44.6525 108.475 52.6187 97.3396C54.2044 95.1285 56.0024 93.008 58.0626 91.1371C64.3306 88.5858 71.1605 86.8735 77.3411 85.4335C88.5786 82.8821 100.39 83.9934 110.779 88.5858C118.083 91.7267 123.227 97.1695 129.321 101.762C129.97 102.272 130.632 102.703 131.281 103.213C137.462 107.726 143.929 111.888 150.772 115.63C161.073 121.322 171.549 126.674 178.204 136.29C188.592 151.598 179.69 168.187 168.177 180.603Z" fill="black" fill-opacity="0.1"/>
<path d="M173.983 180.263C177.079 182.644 180.35 184.765 183.722 186.806C190.364 187.237 187.38 194.46 187.38 194.46L181.761 197.782C181.761 197.782 172.11 190.809 166.778 188.507C161.434 186.216 173.983 180.263 173.983 180.263Z" fill="white"/>
<path d="M126.968 103.882C126.968 103.882 126.031 95.7296 124.633 93.4277L102.72 89.3456V87.8035C102.72 87.8035 103.182 85.0934 98.3122 83.4719C93.4427 81.771 83.2415 83.9822 80.6195 85.7624C77.9974 87.5427 78.9214 90.7063 78.9214 90.7063C78.9214 90.7063 70.1187 94.7771 66.0981 96.3079C62.8268 97.6686 59.6428 99.1994 56.6462 100.821C56.6462 100.821 54.8607 119.542 55.2352 123.873C55.6098 128.205 54.9606 132.287 55.3351 134.759C55.7097 137.231 56.0843 138.49 58.8937 140.621C61.703 142.662 64.2252 145.633 71.5296 142.662L70.5057 141.903L118.452 127.184L126.968 103.882Z" fill="black" fill-opacity="0.3"/>
<path d="M126.968 103.882C126.968 103.882 126.031 95.7296 124.633 93.4277L102.72 89.3456V87.8035C102.72 87.8035 103.182 85.0934 98.3122 83.4719C93.4427 81.771 83.2415 83.9822 80.6195 85.7624C77.9974 87.5427 78.9214 90.7063 78.9214 90.7063C78.9214 90.7063 70.1187 94.7771 66.0981 96.3079C62.8268 97.6686 59.6428 99.1994 56.6462 100.821C56.6462 100.821 54.8607 119.542 55.2352 123.873C55.6098 128.205 54.9606 132.287 55.3351 134.759C55.7097 137.231 56.0843 138.49 58.8937 140.621C61.703 142.662 64.2252 145.633 71.5296 142.662L70.5057 141.903L118.452 127.184L126.968 103.882Z" fill="#4452FE"/>
<path d="M126.968 103.882C126.968 103.882 126.031 95.7296 124.633 93.4277L102.72 89.3456V87.8035C102.72 87.8035 103.182 85.0934 98.3122 83.4719C93.4427 81.771 83.2415 83.9822 80.6195 85.7624C77.9974 87.5427 78.9214 90.7063 78.9214 90.7063C78.9214 90.7063 70.1187 94.7771 66.0981 96.3079C62.8268 97.6686 59.6428 99.1994 56.6462 100.821C56.6462 100.821 54.8607 119.542 55.2352 123.873C55.6098 128.205 54.9606 132.287 55.3351 134.759C55.7097 137.231 56.0843 138.49 58.8937 140.621C61.703 142.662 64.2252 145.633 71.5296 142.662L70.5057 141.903L118.452 127.184L126.968 103.882Z" fill="black" fill-opacity="0.05"/>
<path d="M124.912 94.448H115.735C114.886 94.448 114.037 94.7088 113.388 95.2191C112.738 95.7293 112.276 96.3983 112.176 97.1694L107.669 121.923C107.669 121.923 101.401 122.433 96.9934 125.325C92.5983 128.216 81.7229 107.375 64.592 107.375C64.592 107.375 69.5615 117.671 70.5853 125.835C70.5853 125.835 59.8223 124.803 58.0368 128.545C56.2513 132.378 58.8859 139.521 63.3808 136.709C67.8758 133.897 72.1835 129.316 75.1802 132.287C78.1769 135.178 91.7492 136.8 91.7492 136.8L112.539 127.275L120.592 123.794L124.912 94.448Z" fill="black" fill-opacity="0.1"/>
<path d="M95.7818 82.1228C95.7818 82.1228 101.026 83.3928 101.875 85.0143C102.724 86.6358 102.624 90.6272 102.624 90.6272C101.313 93.3486 99.4402 95.7185 97.0054 97.5895L93.0723 90.6272L93.4469 98.5306C93.4469 98.5306 86.0426 97.4307 82.9585 95.2989L79.8745 93.1672C79.8745 93.1672 78.5634 89.0851 78.7507 87.7244C78.938 86.3637 84.5568 83.5629 84.5568 83.5629L95.7818 82.1228Z" fill="white" fill-opacity="0.4"/>
<path d="M182.694 204.665C182.506 204.404 184.854 200.753 183.068 197.011C181.283 193.269 178.386 194.721 178.386 194.721C178.386 194.721 170.233 190.038 166.861 188.507C164.427 187.395 161.992 186.114 159.744 184.674L156.086 189.096L159.457 198.451L182.694 204.665Z" fill="#4452FE"/>
<path d="M178.1 194.46L188.488 200.243C188.488 200.243 195.792 195.991 199.351 193.02C202.81 190.049 210.688 183.744 210.688 183.744L215.645 177.621C215.645 177.621 212.187 173.72 206.381 176.861C198.889 180.853 189.812 186.715 183.718 186.715C183.718 186.795 184.942 193.53 178.1 194.46Z" fill="#4452FE"/>
<path d="M94.0062 57.7092C94.0062 57.7092 98.7759 64.1726 99.625 66.3043C100.474 68.4361 101.211 71.4863 101.023 73.0171C100.836 74.5479 99.1505 82.5421 98.214 82.8029L97.3775 83.6533L97.9394 87.0551C97.9394 87.0551 94.1935 92.8381 83.3306 88.5859C83.3306 88.5859 82.8562 81.7823 81.5451 79.6506C80.2341 77.5188 78.2613 80.0815 76.301 73.8676C74.3406 67.7444 80.6211 61.2811 80.6211 61.2811L94.0062 57.7092Z" fill="white"/>
<path d="M211.163 175.829C211.163 175.829 205.832 176.68 204.046 179.571C202.261 182.463 198.989 187.826 197.866 190.378C196.742 192.929 187.277 199.222 187.277 199.222L188.501 200.243C188.501 200.243 196.167 195.9 200.762 191.818C205.357 187.735 215.658 177.451 215.658 177.451C215.658 177.451 214.909 176.771 211.163 175.829Z" fill="white" fill-opacity="0.5"/>
<path d="M157.409 187.486L156.086 189.108L160.219 196.762L182.694 204.076L183.718 201.093C183.718 201.093 184.092 198.032 176.226 195.73C168.36 193.439 163.578 191.909 161.33 190.287C158.983 188.847 157.409 187.486 157.409 187.486Z" fill="white" fill-opacity="0.5"/>
<path d="M83.3297 130.428C83.3297 130.428 76.4873 129.486 73.216 134.589C70.032 139.692 70.3192 141.903 70.3192 141.903C70.3192 141.903 74.9016 145.645 81.0822 145.475C87.3502 145.305 96.4526 138.762 99.3493 136.63C102.346 134.498 109.738 128.477 114.882 129.747L115.444 125.404C115.444 125.404 114.982 123.454 110.587 123.964C106.192 124.475 104.494 126.765 103.095 126.765C101.697 126.765 100.373 125.586 97.5638 129.917C97.6512 129.827 87.7248 131.448 83.3297 130.428Z" fill="white"/>
<path d="M92.3203 67.0642C92.5076 67.9146 92.6949 68.68 92.9758 69.4454C93.0695 69.8707 93.2568 70.2193 93.5377 70.5595C94.0996 71.0698 94.9424 71.1548 95.6916 71.3249C95.7852 71.3249 95.9725 71.41 96.0661 71.495C96.1598 71.58 96.1598 71.6651 96.1598 71.8352C96.1598 72.6006 95.8788 73.366 95.4106 74.0463" stroke="#263338" stroke-width="0.999975" stroke-linecap="round" stroke-linejoin="round"/>
<path d="M162.095 182.304L157.5 187.486C157.5 187.486 162.557 191.738 167.801 193.269C173.045 194.891 182.222 197.782 183.721 200.073L183.159 197.351C183.159 197.351 168.825 189.357 165.554 187.486C164.617 186.897 163.768 186.126 163.206 185.196C162.457 184.334 162.182 183.325 162.095 182.304Z" fill="black" fill-opacity="0.1"/>
<path d="M178.1 194.46L187.277 199.223C187.277 199.223 191.772 196.422 194.019 194.29C196.267 192.249 198.976 189.947 200.662 185.275C203.009 178.812 209.652 175.75 209.652 175.75C209.652 175.75 200.387 179.753 195.518 182.815C190.648 185.876 185.978 187.226 183.256 186.976C183.256 187.056 185.404 193.44 178.1 194.46Z" fill="black" fill-opacity="0.1"/>
<path d="M89.043 75.0579C89.043 75.0579 92.6952 77.6092 96.441 76.6737C96.441 76.6737 92.8824 83.052 89.043 75.0579Z" fill="white"/>
<path d="M89.043 75.0579C89.043 75.0579 92.6952 77.6092 96.441 76.6737C96.441 76.6737 92.8824 83.052 89.043 75.0579Z" stroke="#263338" stroke-width="0.999975" stroke-linecap="round" stroke-linejoin="round"/>
<path d="M88.9503 69.5244C89.0377 70.2048 88.8628 70.8057 88.3884 70.8851C88.0138 70.9645 87.6392 70.3749 87.4519 69.6945C87.2646 69.0142 87.5393 68.4132 88.0138 68.3338C88.3884 68.2544 88.8504 68.7647 88.9503 69.5244Z" fill="#263338"/>
<path d="M96.8169 68.2546C96.9043 68.935 96.7295 69.6153 96.255 69.6153C95.8804 69.6947 95.406 69.1051 95.3186 68.4247C95.2312 67.7444 95.406 67.064 95.8804 67.064C96.255 66.9847 96.6296 67.4949 96.8169 68.2546Z" fill="#263338"/>
<path d="M88.3867 66.4687C88.3867 66.4687 86.3265 65.4482 84.8281 67.5743" stroke="#263338" stroke-width="0.999975" stroke-linecap="round" stroke-linejoin="round"/>
<path d="M93.7266 65.1932C93.7266 65.1932 95.9741 63.4923 97.1914 65.1932" stroke="#263338" stroke-width="0.999975" stroke-linecap="round" stroke-linejoin="round"/>
<path d="M81.2704 73.0171C81.2704 73.0171 79.9593 71.2312 78.461 71.2312C77.0563 71.3163 76.4944 73.1107 76.9627 74.8966C77.4309 76.6825 79.5848 79.1403 81.1767 78.8851C82.1132 78.8001 82.956 78.3749 83.5179 77.6945" stroke="#263338" stroke-width="0.999975" stroke-linecap="round" stroke-linejoin="round"/>
<path d="M94.1932 59.1548C95.6916 60.2604 97.2835 61.536 98.1264 63.2369C98.7819 64.6826 98.9692 66.2985 99.6247 67.7442C100.28 69.275 101.029 70.8909 101.029 72.5917C101.029 74.1225 100.748 75.7384 100.374 77.2692C100.187 78.5448 99.812 79.9055 99.3437 81.1812C98.5946 82.9671 97.1899 84.0727 95.317 85.0082C94.0059 85.6035 91.7585 86.5389 90.2601 85.6885C89.4173 85.1782 88.1063 83.7325 87.0762 82.3718" stroke="#263338" stroke-width="0.999975" stroke-linecap="round" stroke-linejoin="round"/>
<path d="M81.2715 78.8853C81.2715 78.8853 83.7063 84.243 83.0508 87.985" stroke="#263338" stroke-width="0.999975" stroke-linecap="round" stroke-linejoin="round"/>
<path d="M80.6247 72.0757C80.9119 71.8149 81.1866 71.5654 81.3739 71.2252C81.5612 70.885 81.5612 70.5562 81.5612 70.216C81.4738 69.3656 80.812 68.5945 80.9993 67.8235C81.0867 67.3926 81.274 67.0637 81.4613 66.7236C81.7484 66.0432 81.9233 65.2721 81.8359 64.5918C81.7484 63.8207 81.5612 63.1517 81.0867 62.4714C81.0867 62.4714 88.6782 62.8115 92.2368 60.7705C95.7953 58.7294 98.5048 53.4567 96.3572 50.9848C94.1971 48.4334 89.9768 51.9259 86.8927 52.2661C83.7962 52.6063 72.7585 54.2164 70.973 58.1285C69.1874 61.9611 71.9219 63.4012 72.0093 67.0637C72.0967 70.7263 72.0967 77.7793 78.1899 77.0989C78.1899 77.0989 75.9299 74.4682 77.5282 71.6561C78.552 70.4655 80.6247 72.0757 80.6247 72.0757Z" fill="#263338"/>
<path d="M95.5061 55.2483C96.5299 56.0194 97.379 56.8585 98.0283 57.9584C98.6775 58.9789 99.0646 60.1695 99.152 61.3601C99.5266 64.1722 104.858 69.5243 101.025 72.5859C101.025 72.5859 100.101 69.3542 99.6265 67.7441C99.0646 66.1226 98.4029 63.2311 97.4664 62.2106C96.5299 61.19 91.8477 57.7089 91.8477 57.7089L95.5061 55.2483Z" fill="#263338"/>
<path d="M81.9287 87.815C81.9287 87.815 85.6745 90.0261 92.6042 90.1112L93.4471 98.6156C93.4471 98.6156 85.5902 98.0968 79.7842 93.1642C79.7842 93.1642 78.1922 89.4223 78.6604 87.7214C79.035 86.1056 82.7808 84.4897 82.7808 84.4897" stroke="#263338" stroke-width="0.999975" stroke-linecap="round" stroke-linejoin="round"/>
<path d="M97.6565 83.9874L97.8438 87.0489C96.3454 88.4096 94.5662 89.5067 92.5996 90.1871L97.001 97.7645C97.001 97.7645 102.236 94.0991 102.704 90.1871C102.704 90.1871 102.704 86.275 101.861 85.0844C100.925 83.9789 97.6471 83.3835 97.6471 83.3835" stroke="#263338" stroke-width="0.999975" stroke-linecap="round" stroke-linejoin="round"/>
<path d="M76.5879 60.6006C77.1498 59.3249 78.6481 58.5595 80.1464 58.3894C81.6448 58.2194 83.1431 58.3044 84.6414 58.3044C86.7016 58.3044 88.7712 57.7941 90.5505 56.7736C91.3933 56.2633 92.2361 55.668 92.798 54.9026C93.4535 54.1372 93.8281 53.2868 94.109 52.3513" stroke="white" stroke-opacity="0.8" stroke-width="0.999975" stroke-linecap="round" stroke-linejoin="round"/>
<path d="M73.0273 60.3454C73.9638 57.7941 77.0541 56.1782 80.0508 55.9231C81.5491 55.838 83.0474 55.9231 84.4521 55.838C85.9504 55.668 87.4488 55.1662 88.1979 53.9756" stroke="white" stroke-opacity="0.8" stroke-width="0.999975" stroke-linecap="round" stroke-linejoin="round"/>
<path d="M71.4385 142.668C64.2278 146.07 61.6057 142.583 57.5789 139.692C53.5522 136.8 56.1742 131.613 55.3314 123.278C54.4886 114.944 56.5488 100.818 56.5488 100.818C56.5488 100.818 58.3281 100.487 63.385 97.6802C68.3482 94.8737 78.9301 90.7065 78.9301 90.7065" stroke="#263338" stroke-width="0.999975" stroke-linecap="round" stroke-linejoin="round"/>
<path d="M78.554 130.082C78.554 130.082 77.4303 126.765 74.1527 126.68C70.8751 126.595 65.8182 127.956 62.166 134.164" stroke="#263338" stroke-width="0.999975" stroke-linecap="round" stroke-linejoin="round"/>
<path d="M73.4979 126.51C73.3106 126.51 73.1233 126.425 72.936 126.425C70.3139 125.574 67.4109 125.404 64.6016 126.084" stroke="#263338" stroke-width="0.999975" stroke-linecap="round" stroke-linejoin="round"/>
<path d="M62.7285 105.334C68.6282 111.202 71.5312 119.026 74.2469 126.595" stroke="#263338" stroke-width="0.999975" stroke-linecap="round" stroke-linejoin="round"/>
<path d="M102.715 89.3455C102.715 89.3455 113.39 91.6416 118.635 92.237C123.879 92.7472 124.722 93.4276 124.722 93.4276L125.658 96.7443" stroke="#263338" stroke-width="0.999975" stroke-linecap="round" stroke-linejoin="round"/>
<path d="M152.443 95.1287L116.108 96.41L113.111 130.337H119.292L150.844 123.964L154.777 95.9791L152.443 95.1287Z" fill="white"/>
<path d="M114.984 131.357L154.778 96.75L150.944 123.964L114.984 131.357Z" fill="#4452FE"/>
<path d="M114.984 131.357L154.778 96.75L150.944 123.964L114.984 131.357Z" fill="white" fill-opacity="0.7"/>
<path d="M114.984 130.422L118.168 97.6797L154.877 95.8938L150.944 123.873L114.984 130.422Z" stroke="#263338" stroke-width="0.999975" stroke-linecap="round" stroke-linejoin="round"/>
<path d="M139.418 111.797C139.131 113.759 138.019 115.278 136.796 115.199C135.572 115.119 134.835 113.339 135.11 111.377C135.397 109.416 136.509 107.896 137.732 107.976C138.856 108.055 139.705 109.756 139.418 111.797Z" fill="#263338"/>
<path d="M150.945 123.873C150.945 123.873 167.714 123.454 173.045 126.595C178.289 129.736 181.374 145.554 180.624 153.888C179.875 162.313 173.607 181.533 173.607 181.533L161.433 169.026C161.433 169.026 155.44 149.307 158.711 141.563C158.711 141.563 142.604 142.413 136.236 140.542C136.236 140.542 130.53 132.117 120.791 129.316L150.945 123.873Z" fill="#263338"/>
<path d="M176.039 181.959C171.732 178.302 167.892 174.22 164.521 169.882C158.621 161.633 150.568 153.724 142.14 147.516C135.397 142.583 133.899 134.504 125.564 130.422C111.798 123.704 99.9054 137.055 95.504 139.692C91.1027 142.413 83.3301 145.483 83.3301 145.483C83.3301 145.483 86.1394 155.085 94.3803 156.19C102.621 157.296 110.956 152.193 114.982 154.66C118.915 157.126 121.828 168.352 134.938 174.815C145.614 180.173 160.129 185.36 167.621 188.847C169.306 189.613 170.524 190.463 171.46 190.973C174.082 192.249 176.798 193.78 179.42 195.225L188.41 200.243C188.41 200.243 197.4 195.396 200.958 190.888C201.427 190.293 202.363 188.677 203.3 187.146C205.266 183.745 207.701 180.768 211.166 179.067C213.507 177.877 215.661 177.536 215.567 177.451C215.38 177.026 210.978 175.07 208.075 176.176C201.895 178.472 189.44 187.486 183.634 186.806C181.002 185.445 178.38 183.83 176.039 181.959Z" stroke="#263338" stroke-width="0.999975" stroke-miterlimit="10"/>
<path d="M176.039 181.964C170.608 183.926 168.46 186.976 167.611 188.926C160.12 185.355 145.611 180.173 134.935 174.9C121.912 168.357 119.015 157.211 114.982 154.75C111.049 152.278 102.621 157.471 94.3803 156.281C86.1394 155.09 83.3301 145.565 83.3301 145.565C83.3301 145.565 91.009 142.492 95.504 139.862C99.8991 137.14 110.2 123.873 125.558 130.598C134.074 134.339 135.397 142.662 142.14 147.686C150.48 153.809 158.609 161.803 164.515 170.058C167.886 174.219 171.732 178.302 176.039 181.964Z" fill="#263338"/>
<path d="M135.398 139.096C135.398 139.096 131.278 131.442 124.535 129.911" stroke="white" stroke-width="0.999975" stroke-linecap="round" stroke-linejoin="round"/>
<path d="M113.579 123.873C108.99 122.938 103.933 127.615 101.779 126.68C100.187 126 97.5652 129.827 97.5652 129.827C93.2575 130.422 88.9498 130.592 84.6421 130.422C78.4615 130.082 75.5585 131.187 73.311 134.164L70.2207 141.478C70.2207 141.478 78.2742 148.017 86.8896 144.19C95.505 140.363 106.93 128.797 114.796 128.883" stroke="#263338" stroke-width="0.999975" stroke-linecap="round" stroke-linejoin="round"/>
<path d="M177.727 194.29C177.727 194.29 185.218 194.885 183.533 186.636" stroke="#263338" stroke-width="0.999975" stroke-miterlimit="10"/>
<path d="M213.224 181.613C212.662 182.633 205.732 188.008 199.826 192.68C199.826 192.6 201.512 189.777 202.161 188.507C203.747 185.785 207.867 178.472 215.646 177.451C216.77 178.052 213.224 181.613 213.224 181.613Z" fill="#263338"/>
<path d="M210.314 175.835C202.448 177.281 200.669 186.466 197.859 190.378C195.05 194.29 187.277 199.562 187.277 199.562" stroke="#263338" stroke-width="0.999975" stroke-miterlimit="10"/>
<path d="M182.972 197.267C184.283 199.393 183.627 201.859 182.972 203.39C182.597 204.155 182.222 204.92 181.754 205.601C170.61 203.9 159.457 198.457 159.457 198.457L156.554 190.378L156.086 189.102L160.394 183.83" stroke="#263338" stroke-width="0.999975" stroke-miterlimit="10"/>
<path d="M182.971 203.384C182.596 204.155 182.221 204.915 181.747 205.595C170.597 203.894 159.459 198.451 159.459 198.451L156.562 190.378C157.961 192.079 160.683 194.551 164.703 195.651C170.147 197.011 180.161 198.712 182.971 203.384Z" fill="#263338"/>
<path d="M113.111 129.146L116.108 96.4043L152.442 95.1287L154.877 95.9791" stroke="#263338" stroke-width="0.999975" stroke-linecap="round" stroke-linejoin="round"/>
<path d="M183.438 190.378C183.438 190.378 188.401 191.143 192.24 188.337C196.08 185.53 202.26 179.152 202.26 179.152" stroke="#263338" stroke-width="0.999975" stroke-miterlimit="10"/>
<path d="M188.496 186.296C188.496 186.296 187.279 187.911 188.496 191.228" stroke="#263338" stroke-width="0.999975" stroke-linecap="round" stroke-linejoin="round"/>
<path d="M192.054 184.765C191.492 186.381 191.679 188.167 192.522 189.698" stroke="#263338" stroke-width="0.999975" stroke-linecap="round" stroke-linejoin="round"/>
<path d="M196.175 182.553C196.175 182.553 195.145 185.275 196.175 187.741" stroke="#263338" stroke-width="0.999975" stroke-linecap="round" stroke-linejoin="round"/>
<path d="M161.431 183.149L157.404 187.486C157.404 187.486 161.431 191.483 167.05 193.099C172.762 194.715 182.876 197.607 183.719 200.583" stroke="#263338" stroke-width="0.999975" stroke-miterlimit="10"/>
</svg>
