<svg version="1.1" xmlns="http://www.w3.org/2000/svg" xmlns:xlink="http://www.w3.org/1999/xlink" x="0px" y="0px"
	 width="827.58px" height="828.06px" viewBox="0 0 827.58 828.06"
	 style="overflow:visible;enable-background:new 0 0 827.58 828.06;" xml:space="preserve">
<style type="text/css">
	.st0{opacity:0.3;fill:url(#SVGID_1_);}
	.st1{opacity:0.3;}
	.st2{fill:url(#SVGID_2_);}
	.st3{fill:url(#SVGID_3_);}
	.st4{fill:url(#SVGID_4_);}
	.st5{fill:url(#SVGID_5_);}
	.st6{fill:url(#SVGID_6_);}
	.st7{fill:url(#SVGID_7_);}
	.st8{opacity:0.56;fill:#FFFFFF;}
	.st9{fill:url(#SVGID_8_);}
	.st10{fill:url(#SVGID_9_);}
	.st11{fill:url(#SVGID_10_);}
	.st12{fill:url(#SVGID_11_);}
	.st13{fill:url(#SVGID_12_);}
	.st14{fill:url(#SVGID_13_);}
	.st15{fill:url(#SVGID_14_);}
	.st16{opacity:0.14;fill:#FFFFFF;}
	.st17{opacity:0.65;fill:#FFFFFF;}
	.st18{fill:url(#SVGID_15_);}
	.st19{fill:url(#SVGID_16_);}
	.st20{fill:url(#SVGID_17_);}
	.st21{fill:url(#SVGID_18_);}
	.st22{fill:url(#SVGID_19_);}
	.st23{fill:url(#SVGID_20_);}
	.st24{fill:url(#SVGID_21_);}
	.st25{fill:url(#SVGID_22_);}
	.st26{fill:url(#SVGID_23_);}
	.st27{fill:url(#SVGID_24_);}
	.st28{opacity:0.4;fill:url(#SVGID_25_);}
	.st29{fill:url(#SVGID_26_);}
	.st30{fill:url(#SVGID_27_);}
	.st31{fill:url(#SVGID_28_);}
	.st32{fill:url(#SVGID_29_);}
	.st33{fill:url(#SVGID_30_);}
	.st34{fill:url(#SVGID_31_);}
	.st35{fill:url(#SVGID_32_);}
	.st36{fill:url(#SVGID_33_);}
	.st37{fill:url(#SVGID_34_);}
	.st38{fill:url(#SVGID_35_);}
	.st39{fill:url(#SVGID_36_);}
	.st40{fill:url(#SVGID_37_);}
	.st41{fill:url(#SVGID_38_);}
	.st42{fill:url(#SVGID_39_);}
	.st43{fill:url(#SVGID_40_);}
	.st44{fill:url(#SVGID_41_);}
	.st45{fill:url(#SVGID_42_);}
	.st46{fill:url(#SVGID_43_);}
	.st47{fill:url(#SVGID_44_);}
	.st48{fill:url(#SVGID_45_);}
	.st49{fill:url(#SVGID_46_);}
	.st50{fill:url(#SVGID_47_);}
	.st51{fill:url(#SVGID_48_);}
	.st52{fill:url(#SVGID_49_);}
	.st53{fill:url(#SVGID_50_);}
	.st54{fill:url(#SVGID_51_);}
	.st55{opacity:0.6;}
	.st56{fill:#FFFFFF;}
	.st57{fill:url(#SVGID_52_);}
	.st58{fill:url(#SVGID_53_);}
	.st59{fill:url(#SVGID_54_);}
	.st60{opacity:0.55;}
	.st61{fill:url(#SVGID_55_);}
	.st62{fill:url(#SVGID_56_);}
	.st63{fill:url(#SVGID_57_);}
	.st64{fill:url(#SVGID_58_);}
	.st65{fill:url(#SVGID_59_);}
	.st66{fill:url(#SVGID_60_);}
	.st67{fill:url(#SVGID_61_);}
	.st68{opacity:0.45;}
	.st69{fill:url(#SVGID_62_);}
	.st70{fill:url(#SVGID_63_);}
	.st71{fill:url(#SVGID_64_);}
	.st72{fill:url(#SVGID_65_);}
	.st73{fill:url(#SVGID_66_);}
	.st74{fill:url(#SVGID_67_);}
	.st75{fill:url(#SVGID_68_);}
	.st76{fill:url(#SVGID_69_);}
	.st77{fill:url(#SVGID_70_);}
	.st78{fill:url(#SVGID_71_);}
	.st79{fill:url(#SVGID_72_);}
	.st80{fill:url(#SVGID_73_);}
	.st81{fill:url(#SVGID_74_);}
	.st82{fill:url(#SVGID_75_);}
	.st83{fill:url(#SVGID_76_);}
	.st84{fill:url(#SVGID_77_);}
	.st85{fill:url(#SVGID_78_);}
	.st86{fill:url(#SVGID_79_);}
	.st87{fill:url(#SVGID_80_);}
	.st88{fill:url(#SVGID_81_);}
	.st89{fill:url(#SVGID_82_);}
	.st90{fill:url(#SVGID_83_);}
	.st91{fill:url(#SVGID_84_);}
	.st92{fill:url(#SVGID_85_);}
	.st93{fill:url(#SVGID_86_);}
	.st94{fill:url(#SVGID_87_);}
	.st95{fill:url(#SVGID_88_);}
	.st96{fill:url(#SVGID_89_);}
	.st97{fill:url(#SVGID_90_);}
	.st98{fill:url(#SVGID_91_);}
	.st99{fill:url(#SVGID_92_);}
	.st100{fill:url(#SVGID_93_);}
	.st101{fill:url(#SVGID_94_);}
	.st102{fill:url(#SVGID_95_);}
	.st103{fill:url(#SVGID_96_);}
	.st104{fill:url(#SVGID_97_);}
	.st105{fill:url(#SVGID_98_);}
	.st106{fill:url(#SVGID_99_);}
	.st107{fill:url(#SVGID_100_);}
	.st108{fill:url(#SVGID_101_);}
	.st109{fill:url(#SVGID_102_);}
	.st110{fill:url(#SVGID_103_);}
	.st111{fill:url(#SVGID_104_);}
	.st112{fill:url(#SVGID_105_);}
	.st113{fill:url(#SVGID_106_);}
	.st114{fill:url(#SVGID_107_);}
	.st115{fill:url(#SVGID_108_);}
	.st116{fill:url(#SVGID_109_);}
	.st117{fill:url(#SVGID_110_);}
	.st118{fill:url(#SVGID_111_);}
	.st119{fill:url(#SVGID_112_);}
	.st120{fill:url(#SVGID_113_);}
	.st121{opacity:0.3;fill:url(#SVGID_114_);}
	.st122{fill:url(#SVGID_115_);}
	.st123{fill:url(#SVGID_116_);}
	.st124{fill:url(#SVGID_117_);}
	.st125{fill:url(#SVGID_118_);}
	.st126{fill:url(#SVGID_119_);}
	.st127{fill:url(#SVGID_120_);}
	.st128{fill:url(#SVGID_121_);}
	.st129{fill:url(#SVGID_122_);}
	.st130{fill:url(#SVGID_123_);}
	.st131{fill:url(#SVGID_124_);}
	.st132{fill:url(#SVGID_125_);}
	.st133{fill:url(#SVGID_126_);}
	.st134{fill:url(#SVGID_127_);}
	.st135{fill:url(#SVGID_128_);}
	.st136{fill:url(#SVGID_129_);}
	.st137{fill:url(#SVGID_130_);}
	.st138{fill:url(#SVGID_131_);}
	.st139{fill:url(#SVGID_132_);}
	.st140{fill:url(#SVGID_133_);}
	.st141{fill:url(#SVGID_134_);}
	.st142{fill:url(#SVGID_135_);}
	.st143{fill:url(#SVGID_136_);}
	.st144{fill:url(#SVGID_137_);}
	.st145{opacity:0.4;fill:url(#SVGID_138_);}
	.st146{fill:url(#SVGID_139_);}
	.st147{fill:url(#SVGID_140_);}
	.st148{fill:url(#SVGID_141_);}
	.st149{fill:url(#SVGID_142_);}
	.st150{fill:url(#SVGID_143_);}
	.st151{fill:url(#SVGID_144_);}
	.st152{fill:url(#SVGID_145_);}
	.st153{fill:url(#SVGID_146_);}
	.st154{fill:url(#SVGID_147_);}
	.st155{fill:url(#SVGID_148_);}
	.st156{fill:url(#SVGID_149_);}
	.st157{fill:url(#SVGID_150_);}
	.st158{fill:url(#SVGID_151_);}
	.st159{fill:url(#SVGID_152_);}
	.st160{fill:url(#SVGID_153_);}
	.st161{fill:url(#SVGID_154_);}
	.st162{fill:url(#SVGID_155_);}
	.st163{fill:url(#SVGID_156_);}
	.st164{fill:url(#SVGID_157_);}
	.st165{fill:url(#SVGID_158_);}
	.st166{fill:url(#SVGID_159_);}
	.st167{fill:url(#SVGID_160_);}
	.st168{fill:url(#SVGID_161_);}
	.st169{fill:url(#SVGID_162_);}
	.st170{fill:url(#SVGID_163_);}
	.st171{fill:url(#SVGID_164_);}
	.st172{fill:url(#SVGID_165_);}
	.st173{fill:url(#SVGID_166_);}
	.st174{fill:url(#SVGID_167_);}
	.st175{fill:url(#SVGID_168_);}
	.st176{fill:url(#SVGID_169_);}
	.st177{fill:url(#SVGID_170_);}
	.st178{fill:url(#SVGID_171_);}
	.st179{fill:url(#SVGID_172_);}
	.st180{fill:url(#SVGID_173_);}
	.st181{fill:url(#SVGID_174_);}
	.st182{fill:url(#SVGID_175_);}
	.st183{fill:url(#SVGID_176_);}
	.st184{fill:url(#SVGID_177_);}
	.st185{fill:url(#SVGID_178_);}
	.st186{fill:url(#SVGID_179_);}
	.st187{fill:url(#SVGID_180_);}
	.st188{fill:url(#SVGID_181_);}
	.st189{fill:url(#SVGID_182_);}
	.st190{fill:url(#SVGID_183_);}
	.st191{fill:url(#SVGID_184_);}
	.st192{fill:url(#SVGID_185_);}
	.st193{fill:url(#SVGID_186_);}
	.st194{fill:url(#SVGID_187_);}
	.st195{fill:url(#SVGID_188_);}
	.st196{fill:url(#SVGID_189_);}
	.st197{fill:url(#SVGID_190_);}
	.st198{fill:url(#SVGID_191_);}
	.st199{fill:url(#SVGID_192_);}
	.st200{fill:url(#SVGID_193_);}
	.st201{fill:url(#SVGID_194_);}
	.st202{fill:url(#SVGID_195_);}
	.st203{fill:url(#SVGID_196_);}
	.st204{fill:url(#SVGID_197_);}
	.st205{fill:url(#SVGID_198_);}
	.st206{fill:url(#SVGID_199_);}
	.st207{fill:url(#SVGID_200_);}
	.st208{fill:url(#SVGID_201_);}
	.st209{fill:url(#SVGID_202_);}
	.st210{fill:url(#SVGID_203_);}
	.st211{fill:url(#SVGID_204_);}
	.st212{fill:url(#SVGID_205_);}
	.st213{fill:url(#SVGID_206_);}
	.st214{fill:url(#SVGID_207_);}
	.st215{fill:url(#SVGID_208_);}
	.st216{fill:url(#SVGID_209_);}
	.st217{fill:url(#SVGID_210_);}
	.st218{fill:url(#SVGID_211_);}
	.st219{fill:url(#SVGID_212_);}
	.st220{fill:url(#SVGID_213_);}
	.st221{fill:url(#SVGID_214_);}
	.st222{fill:url(#SVGID_215_);}
	.st223{fill:url(#SVGID_216_);}
	.st224{fill:url(#SVGID_217_);}
	.st225{fill:url(#SVGID_218_);}
	.st226{fill:url(#SVGID_219_);}
	.st227{fill:url(#SVGID_220_);}
	.st228{fill:url(#SVGID_221_);}
	.st229{fill:url(#SVGID_222_);}
	.st230{fill:url(#SVGID_223_);}
	.st231{fill:url(#SVGID_224_);}
	.st232{fill:url(#SVGID_225_);}
	.st233{fill:url(#SVGID_226_);}
</style>
<defs>
</defs>
<g>
	<linearGradient id="SVGID_1_" gradientUnits="userSpaceOnUse" x1="898.7232" y1="957.8345" x2="322.7206" y2="344.6706">
		<stop  offset="0" style="stop-color:#B37CFF"/>
		<stop  offset="1" style="stop-color:#F895E7"/>
	</linearGradient>
	<path class="st0" d="M725.78,711.84c-21.26,21.92-40.29,34.8-54.86,44.53c-142.07,94.86-304.47,67.52-354.68,58.17
		c-81.01-15.08-149.39-25.71-208.14-78.79c-133.5-120.61-127.01-372.22-25-528.09c12.1-18.48,113.95-169.47,276.7-190.74
		c3.98-0.52,6.95-0.82,9.55-1.09c25.18-2.67,181.2-16.73,308.41,89.85c18.21,15.26,47.52,42.78,74.69,84.75
		C851.84,343.89,852.15,581.58,725.78,711.84z"/>
	<g>
		<g>
			<g class="st1">
				
					<linearGradient id="SVGID_2_" gradientUnits="userSpaceOnUse" x1="-30.7368" y1="507.739" x2="116.5264" y2="507.739" gradientTransform="matrix(0.9613 -0.2756 0.2756 0.9613 -1.3494 -428.6159)">
					<stop  offset="0" style="stop-color:#B37CFF"/>
					<stop  offset="1" style="stop-color:#F895E7"/>
				</linearGradient>
				<path class="st2" d="M262.62,78.95c-1.33,0.32-2.68-0.49-3-1.83c-0.63-2.59-1.38-5.19-2.23-7.73c-0.43-1.29,0.25-2.68,1.52-3.13
					c0.02-0.01,0.03-0.01,0.05-0.02c1.3-0.44,2.71,0.26,3.15,1.57c0.9,2.67,1.69,5.41,2.35,8.14c0.3,1.25-0.39,2.5-1.58,2.93
					C262.79,78.91,262.7,78.93,262.62,78.95z M252.39,57.31c-1.19-2.4-2.49-4.77-3.88-7.05c-0.71-1.17-0.34-2.7,0.84-3.41
					c1.18-0.71,2.7-0.34,3.41,0.84c1.46,2.4,2.83,4.9,4.08,7.42c0.61,1.23,0.11,2.72-1.12,3.33c-0.09,0.04-0.18,0.08-0.27,0.12
					C254.27,58.96,252.95,58.45,252.39,57.31z M240.97,39.58c-1.69-2.07-3.49-4.09-5.35-6.01c-0.96-0.98-0.93-2.56,0.05-3.51
					c0.98-0.95,2.56-0.93,3.51,0.05c1.96,2.02,3.86,4.15,5.64,6.33c0.87,1.06,0.71,2.63-0.35,3.5c-0.23,0.18-0.48,0.32-0.74,0.42
					C242.77,40.69,241.65,40.41,240.97,39.58z M225.87,24.85c-2.11-1.64-4.32-3.21-6.56-4.66c-1.15-0.75-1.48-2.29-0.73-3.44
					c0.75-1.15,2.29-1.48,3.44-0.73c2.36,1.53,4.69,3.18,6.91,4.91c1.08,0.84,1.28,2.4,0.44,3.49c-0.3,0.39-0.69,0.66-1.12,0.82
					C227.46,25.5,226.57,25.39,225.87,24.85z M207.87,13.85c-2.42-1.13-4.92-2.17-7.43-3.09c-1.29-0.47-1.95-1.9-1.48-3.19
					c0.47-1.29,1.9-1.95,3.19-1.47c2.64,0.97,5.28,2.07,7.82,3.25c1.24,0.58,1.78,2.06,1.2,3.3c-0.29,0.63-0.81,1.07-1.42,1.29
					C209.16,14.15,208.49,14.14,207.87,13.85z M187.88,7.11c-2.61-0.57-5.28-1.03-7.93-1.37c-1.36-0.18-2.32-1.42-2.15-2.78
					c0.18-1.36,1.42-2.32,2.78-2.15c2.79,0.36,5.6,0.85,8.35,1.44c1.34,0.29,2.19,1.61,1.9,2.96c-0.19,0.87-0.81,1.54-1.6,1.81
					C188.82,7.17,188.36,7.21,187.88,7.11z M98.87,31.43c-0.95-0.99-0.93-2.56,0.06-3.51c2.02-1.96,4.15-3.85,6.34-5.63
					c1.06-0.87,2.63-0.71,3.5,0.36c0.87,1.06,0.7,2.63-0.36,3.5c-2.08,1.69-4.1,3.49-6.02,5.34c-0.26,0.25-0.57,0.44-0.89,0.56
					C100.61,32.36,99.57,32.16,98.87,31.43z M166.91,4.97c-2.67,0.03-5.37,0.17-8.03,0.43c-1.37,0.13-2.58-0.87-2.71-2.23
					c-0.13-1.37,0.87-2.57,2.23-2.71c2.8-0.27,5.65-0.42,8.46-0.45c1.37-0.01,2.5,1.09,2.51,2.46c0.01,1.09-0.68,2.02-1.65,2.37
					C167.47,4.92,167.2,4.97,166.91,4.97z M115.69,17.78c-0.71-1.17-0.33-2.7,0.84-3.41c2.41-1.45,4.91-2.82,7.43-4.07
					c1.23-0.61,2.72-0.1,3.33,1.13c0.61,1.23,0.1,2.72-1.13,3.33c-2.4,1.18-4.78,2.49-7.06,3.87c-0.15,0.09-0.3,0.16-0.45,0.21
					C117.56,19.23,116.31,18.81,115.69,17.78z M146,7.57c-2.6,0.62-5.2,1.37-7.74,2.22c-1.3,0.43-2.71-0.27-3.14-1.57
					c-0.43-1.28,0.25-2.67,1.52-3.13c0.02-0.01,0.03-0.01,0.05-0.02c2.67-0.89,5.41-1.68,8.14-2.33c1.33-0.32,2.68,0.5,3,1.83
					c0.3,1.25-0.4,2.5-1.58,2.92C146.17,7.52,146.08,7.55,146,7.57z"/>
				
					<linearGradient id="SVGID_3_" gradientUnits="userSpaceOnUse" x1="-1442.788" y1="522.1478" x2="-1434.5104" y2="522.1478" gradientTransform="matrix(-0.9419 0.336 0.336 0.9419 -1440.0474 32.9081)">
					<stop  offset="0" style="stop-color:#B37CFF"/>
					<stop  offset="1" style="stop-color:#F895E7"/>
				</linearGradient>
				<path class="st3" d="M90.11,45.27c0.46-0.16,0.88-0.47,1.18-0.89c0.74-1.04,1.52-2.09,2.32-3.1c0.84-1.08,0.65-2.64-0.44-3.49
					c-1.08-0.84-2.65-0.65-3.49,0.44c-0.83,1.07-1.65,2.17-2.44,3.26c-0.8,1.12-0.54,2.67,0.58,3.47
					C88.51,45.44,89.37,45.53,90.11,45.27z"/>
			</g>
			<g class="st1">
				
					<linearGradient id="SVGID_4_" gradientUnits="userSpaceOnUse" x1="-1399.8228" y1="585.3983" x2="-1394.1426" y2="585.3983" gradientTransform="matrix(-0.9419 0.336 0.336 0.9419 -1440.0474 32.9081)">
					<stop  offset="0" style="stop-color:#B37CFF"/>
					<stop  offset="1" style="stop-color:#F895E7"/>
				</linearGradient>
				<path class="st4" d="M73.62,119.21c1.13-0.4,1.83-1.58,1.61-2.79c-0.23-1.26-0.45-2.54-0.63-3.82c-0.2-1.36-1.45-2.3-2.81-2.11
					c-1.36,0.2-2.3,1.45-2.11,2.81c0.19,1.34,0.42,2.7,0.66,4.02c0.25,1.35,1.55,2.24,2.9,1.99
					C73.37,119.29,73.5,119.25,73.62,119.21z"/>
				
					<linearGradient id="SVGID_5_" gradientUnits="userSpaceOnUse" x1="-81.9036" y1="604.4132" x2="69.3757" y2="604.4132" gradientTransform="matrix(0.9613 -0.2756 0.2756 0.9613 -1.3494 -428.6159)">
					<stop  offset="0" style="stop-color:#B37CFF"/>
					<stop  offset="1" style="stop-color:#F895E7"/>
				</linearGradient>
				<path class="st5" d="M196.57,194.31c-1.31,0.4-2.7-0.35-3.1-1.66c-0.4-1.31,0.35-2.7,1.66-3.1c2.5-0.76,5.01-1.63,7.48-2.61
					c1.27-0.51,2.72,0.12,3.22,1.4c0.5,1.28-0.12,2.72-1.4,3.22c-1.07,0.42-2.15,0.83-3.22,1.21
					C199.68,193.33,198.11,193.85,196.57,194.31z M213.28,184.8c-0.67-1.2-0.25-2.71,0.95-3.38c2.3-1.29,4.56-2.69,6.74-4.17
					c1.13-0.77,2.68-0.47,3.45,0.66c0.77,1.14,0.47,2.68-0.66,3.45c-2.29,1.55-4.68,3.03-7.09,4.39c-0.13,0.07-0.25,0.13-0.39,0.18
					C215.16,186.33,213.88,185.87,213.28,184.8z M183.37,197.34c-2.73,0.43-5.52,0.75-8.28,0.95c-1.37,0.1-2.56-0.93-2.66-2.3
					c-0.1-1.37,0.93-2.56,2.3-2.66c2.63-0.19,5.27-0.49,7.87-0.9c1.36-0.21,2.63,0.71,2.84,2.07c0.19,1.2-0.51,2.33-1.62,2.73
					C183.67,197.27,183.52,197.31,183.37,197.34z M230.91,172.83c-0.92-1.02-0.84-2.59,0.18-3.51c1.95-1.76,3.86-3.63,5.65-5.54
					c0.94-1,2.51-1.05,3.51-0.11c1,0.94,1.05,2.51,0.11,3.51c-1.89,2.02-3.9,3.98-5.95,5.84c-0.25,0.22-0.53,0.39-0.83,0.5
					C232.67,173.83,231.6,173.6,230.91,172.83z M161.55,198.33c-2.76-0.18-5.54-0.48-8.29-0.89c-1.36-0.2-2.29-1.47-2.09-2.83
					c0.2-1.36,1.47-2.29,2.83-2.09c2.6,0.39,5.25,0.68,7.87,0.85c1.37,0.09,2.41,1.27,2.32,2.64c-0.07,1.02-0.74,1.86-1.65,2.18
					C162.24,198.3,161.9,198.35,161.55,198.33z M140.05,194.51c-2.66-0.78-5.31-1.68-7.89-2.68c-1.28-0.5-1.92-1.93-1.42-3.21
					c0.5-1.28,1.93-1.92,3.21-1.42c2.45,0.95,4.97,1.8,7.5,2.55c1.32,0.39,2.07,1.77,1.68,3.08c-0.23,0.79-0.83,1.38-1.55,1.64
					C141.11,194.64,140.57,194.67,140.05,194.51z M119.89,186.1c-2.43-1.34-4.82-2.8-7.12-4.33c-1.14-0.76-1.45-2.3-0.69-3.45
					c0.76-1.14,2.31-1.45,3.45-0.69c2.18,1.46,4.46,2.84,6.77,4.12c1.2,0.66,1.64,2.18,0.97,3.38c-0.31,0.55-0.79,0.94-1.34,1.14
					C121.28,186.5,120.54,186.46,119.89,186.1z M102.04,173.49c-2.07-1.84-4.09-3.79-6-5.79c-0.95-0.99-0.91-2.57,0.09-3.51
					c0.99-0.94,2.57-0.91,3.51,0.09c1.81,1.9,3.73,3.75,5.7,5.5c1.03,0.91,1.12,2.48,0.21,3.51c-0.29,0.32-0.64,0.56-1.02,0.69
					C103.7,174.27,102.74,174.12,102.04,173.49z M87.39,157.26c-1.61-2.25-3.15-4.59-4.57-6.97c-0.7-1.18-0.32-2.7,0.86-3.41
					c1.17-0.7,2.7-0.32,3.41,0.86c1.35,2.26,2.81,4.49,4.34,6.62c0.8,1.11,0.55,2.67-0.57,3.47c-0.19,0.14-0.4,0.25-0.62,0.32
					C89.23,158.52,88.06,158.18,87.39,157.26z M76.68,138.23c-0.8-1.87-1.55-3.8-2.24-5.71c-0.25-0.69-0.49-1.39-0.72-2.08
					c-0.43-1.3,0.25-2.73,1.57-3.14c1.3-0.43,2.71,0.27,3.14,1.57c0.22,0.66,0.45,1.32,0.68,1.98c0.65,1.82,1.36,3.65,2.12,5.43
					c0.54,1.26-0.05,2.72-1.31,3.26c-0.05,0.02-0.1,0.04-0.14,0.06C78.57,140.04,77.2,139.45,76.68,138.23z"/>
				
					<linearGradient id="SVGID_6_" gradientUnits="userSpaceOnUse" x1="-1553.4655" y1="680.7804" x2="-1545.2935" y2="680.7804" gradientTransform="matrix(-0.9419 0.336 0.336 0.9419 -1440.0474 32.9081)">
					<stop  offset="0" style="stop-color:#B37CFF"/>
					<stop  offset="1" style="stop-color:#F895E7"/>
				</linearGradient>
				<path class="st6" d="M247.78,157.53c0.47-0.17,0.89-0.47,1.19-0.9c0.78-1.1,1.54-2.23,2.28-3.38c0.75-1.15,0.42-2.69-0.74-3.44
					c-1.15-0.75-2.69-0.42-3.44,0.74c-0.7,1.08-1.43,2.16-2.17,3.21c-0.79,1.12-0.53,2.67,0.59,3.46
					C246.19,157.7,247.04,157.79,247.78,157.53z"/>
			</g>
			<g>
				
					<linearGradient id="SVGID_7_" gradientUnits="userSpaceOnUse" x1="-219.1158" y1="235.4646" x2="324.0847" y2="966.245" gradientTransform="matrix(0.9613 -0.2756 0.2756 0.9613 -1.3494 -428.6159)">
					<stop  offset="0" style="stop-color:#A737D5"/>
					<stop  offset="1" style="stop-color:#EF497A"/>
				</linearGradient>
				<path class="st7" d="M240.62,115.53c0.17-0.47,0.02-0.99-0.37-1.3l-11.05-8.82c0.74-6.56,0.43-13.28-1.01-19.92l10.09-9.89
					c0.35-0.35,0.45-0.88,0.24-1.33l-7.28-15.31c-0.21-0.45-0.69-0.71-1.18-0.66l-14.04,1.57c-4.24-5.31-9.26-9.79-14.81-13.37
					l0.14-14.13c0-0.5-0.31-0.94-0.77-1.11l-15.97-5.68c-0.47-0.17-0.99-0.02-1.3,0.37l-8.82,11.05
					c-6.56-0.74-13.28-0.43-19.92,1.01l-9.89-10.09c-0.35-0.35-0.88-0.45-1.33-0.24l-15.31,7.28c-0.45,0.21-0.71,0.69-0.66,1.18
					l1.57,14.04c-5.31,4.24-9.79,9.26-13.37,14.81l-14.13-0.14c-0.5,0-0.94,0.31-1.11,0.77L94.66,81.6
					c-0.17,0.47-0.02,0.99,0.37,1.3l11.05,8.82c-0.74,6.56-0.43,13.28,1.01,19.92L97,121.54c-0.35,0.35-0.45,0.88-0.24,1.33
					l7.28,15.31c0.21,0.45,0.69,0.71,1.18,0.66l14.04-1.57c4.24,5.31,9.26,9.79,14.81,13.37l-0.14,14.13
					c-0.01,0.5,0.3,0.94,0.77,1.11l15.97,5.68c0.47,0.17,0.99,0.02,1.3-0.37l8.82-11.05c6.56,0.74,13.28,0.43,19.92-1.01l9.89,10.09
					c0.35,0.35,0.88,0.45,1.33,0.24l15.31-7.28c0.45-0.21,0.71-0.69,0.66-1.18l-1.57-14.04c5.31-4.24,9.79-9.26,13.37-14.81
					l14.13,0.14c0.5,0,0.94-0.31,1.11-0.77L240.62,115.53z"/>
				<path class="st8" d="M170.97,115.29c-9.22,1.83-18.21-4.17-20.04-13.39c-0.89-4.46,0.02-9.01,2.55-12.79
					c2.53-3.78,6.38-6.36,10.85-7.25c9.22-1.83,18.21,4.17,20.04,13.39c1.67,8.39-3.15,16.58-10.98,19.37
					C172.6,114.9,171.8,115.12,170.97,115.29z M156.78,91.31c-1.94,2.9-2.63,6.39-1.95,9.81c1.41,7.07,8.3,11.67,15.36,10.27
					c7.07-1.4,11.67-8.3,10.27-15.37c-1.41-7.07-8.3-11.67-15.37-10.27c-0.64,0.13-1.26,0.3-1.87,0.52
					C160.6,87.21,158.35,88.95,156.78,91.31z"/>
				<path class="st8" d="M181.32,137.92c1.34-0.48,2.67-1.03,3.98-1.65l0,0c0.41-0.2,0.82-0.4,1.22-0.61c2-1.03,3.91-2.21,5.7-3.54
					c0.02-0.02,0.05-0.04,0.07-0.05c0.07-0.05,0.14-0.1,0.21-0.16c0.13-0.1,0.27-0.2,0.4-0.31c0.35-0.27,0.47-0.73,0.33-1.12
					c-0.03-0.1-0.08-0.19-0.15-0.27c-0.33-0.44-0.96-0.51-1.39-0.18c-2.24,1.72-4.68,3.22-7.25,4.44
					c-12.77,6.07-27.19,4.74-38.37-2.27c-6.22-3.9-11.44-9.55-14.81-16.65c-0.59-1.25-1.12-2.51-1.57-3.79
					c-3.08-8.63-3.09-17.97,0.02-26.72c3.57-10.05,10.85-18.1,20.48-22.67c19.89-9.45,43.74-0.96,53.19,18.92
					c0.58,1.23,1.1,2.48,1.55,3.75c1.96,5.5,2.7,11.37,2.13,17.19c-0.01,0.15,0.01,0.3,0.05,0.43c0.13,0.35,0.44,0.62,0.84,0.66
					c0.55,0.05,1.03-0.35,1.09-0.89c0.59-6.11-0.18-12.28-2.24-18.05c-0.48-1.33-1.02-2.65-1.63-3.93
					c-9.92-20.87-34.97-29.78-55.84-19.86c-10.11,4.8-17.74,13.26-21.5,23.8c-3.27,9.18-3.25,18.99-0.02,28.05
					c0.48,1.35,1.03,2.68,1.65,3.98c4.8,10.11,13.26,17.74,23.8,21.5C162.45,141.17,172.26,141.15,181.32,137.92z"/>
			</g>
		</g>
		<g>
			<g class="st1">
				
					<linearGradient id="SVGID_8_" gradientUnits="userSpaceOnUse" x1="-1675.7151" y1="677.5252" x2="-1671.6752" y2="677.5252" gradientTransform="matrix(-0.9419 0.336 0.336 0.9419 -1440.0474 32.9081)">
					<stop  offset="0" style="stop-color:#B37CFF"/>
					<stop  offset="1" style="stop-color:#F895E7"/>
				</linearGradient>
				<path class="st9" d="M364.74,112.06c0.63-0.22,1.06-0.84,1.02-1.53c-0.07-1.3-0.19-2.62-0.34-3.91c-0.1-0.84-0.86-1.44-1.7-1.35
					c-0.84,0.1-1.44,0.86-1.34,1.7c0.15,1.23,0.25,2.49,0.33,3.73c0.05,0.85,0.77,1.49,1.62,1.44
					C364.46,112.14,364.6,112.11,364.74,112.06z"/>
				
					<linearGradient id="SVGID_9_" gradientUnits="userSpaceOnUse" x1="122.7122" y1="573.7236" x2="205.9127" y2="573.7236" gradientTransform="matrix(0.9613 -0.2756 0.2756 0.9613 -1.3494 -428.6159)">
					<stop  offset="0" style="stop-color:#B37CFF"/>
					<stop  offset="1" style="stop-color:#F895E7"/>
				</linearGradient>
				<path class="st10" d="M362.83,100.43c-0.82,0.2-1.65-0.3-1.86-1.12c-0.51-2.08-1.13-4.15-1.85-6.17
					c-0.15-0.42-0.31-0.85-0.47-1.27c-0.3-0.79,0.1-1.68,0.89-1.98c0.76-0.26,1.68,0.1,1.98,0.89c0.17,0.44,0.33,0.89,0.49,1.33
					c0.75,2.11,1.41,4.29,1.94,6.47c0.19,0.77-0.24,1.55-0.97,1.81C362.94,100.41,362.89,100.42,362.83,100.43z M355.44,84.77
					c-1.21-2.29-2.57-4.53-4.05-6.66c-0.48-0.7-0.31-1.65,0.38-2.14c0.69-0.48,1.65-0.31,2.14,0.38c1.55,2.22,2.98,4.57,4.25,6.98
					c0.4,0.75,0.11,1.68-0.64,2.07c-0.07,0.03-0.13,0.06-0.2,0.09C356.61,85.75,355.8,85.45,355.44,84.77z M346.54,72.01
					c-1.73-1.92-3.6-3.76-5.57-5.46c-0.64-0.55-0.71-1.52-0.16-2.16c0.56-0.64,1.52-0.71,2.16-0.16c2.06,1.78,4.02,3.71,5.84,5.72
					c0.57,0.63,0.52,1.6-0.11,2.17c-0.15,0.14-0.33,0.24-0.51,0.3C347.63,72.63,346.97,72.48,346.54,72.01z M334.78,61.82
					c-2.16-1.44-4.42-2.77-6.73-3.93c-0.76-0.38-1.06-1.3-0.68-2.06c0.38-0.75,1.3-1.06,2.06-0.68c2.42,1.22,4.8,2.61,7.06,4.12
					c0.7,0.47,0.89,1.43,0.42,2.13c-0.19,0.28-0.46,0.48-0.76,0.59C335.71,62.15,335.2,62.1,334.78,61.82z M320.89,54.82
					c-2.44-0.88-4.96-1.61-7.48-2.18c-0.83-0.19-1.35-1.01-1.16-1.83c0.19-0.83,1.01-1.35,1.83-1.16c2.65,0.6,5.28,1.36,7.84,2.28
					c0.8,0.29,1.21,1.17,0.93,1.96c-0.16,0.45-0.51,0.78-0.93,0.93C321.6,54.93,321.24,54.94,320.89,54.82z M305.72,51.4
					c-2.58-0.26-5.19-0.35-7.78-0.28c-0.85,0.02-1.55-0.65-1.57-1.49c-0.02-0.85,0.65-1.55,1.5-1.57c2.71-0.07,5.46,0.03,8.16,0.3
					c0.84,0.08,1.46,0.84,1.38,1.68c-0.06,0.61-0.47,1.1-1.01,1.3C306.18,51.39,305.95,51.42,305.72,51.4z M290.18,51.79
					c-2.55,0.38-5.12,0.93-7.62,1.64c-0.82,0.23-1.66-0.25-1.89-1.06c-0.23-0.82,0.25-1.65,1.06-1.89c2.62-0.73,5.31-1.31,7.99-1.71
					c0.84-0.13,1.62,0.45,1.75,1.29c0.11,0.74-0.32,1.43-1,1.67C290.38,51.75,290.28,51.78,290.18,51.79z M266.11,58.86
					c-0.42-0.74-0.16-1.67,0.57-2.09c2.04-1.16,4.17-2.23,6.34-3.18c0.33-0.15,0.66-0.29,0.99-0.42c0.77-0.35,1.68,0.04,2.01,0.83
					c0.33,0.78-0.04,1.68-0.83,2.01c-0.31,0.13-0.62,0.26-0.93,0.4c-2.08,0.91-4.12,1.93-6.06,3.04c-0.08,0.05-0.16,0.08-0.25,0.11
					C267.27,59.79,266.49,59.51,266.11,58.86z"/>
			</g>
			<g class="st1">
				
					<linearGradient id="SVGID_10_" gradientUnits="userSpaceOnUse" x1="82.1618" y1="653.5339" x2="174.1715" y2="653.5339" gradientTransform="matrix(0.9613 -0.2756 0.2756 0.9613 -1.3494 -428.6159)">
					<stop  offset="0" style="stop-color:#B37CFF"/>
					<stop  offset="1" style="stop-color:#F895E7"/>
				</linearGradient>
				<path class="st11" d="M320.96,177.06c-2.53,0.87-5.14,1.58-7.74,2.14c-0.83,0.17-1.64-0.35-1.82-1.18
					c-0.18-0.83,0.36-1.64,1.18-1.82c2.49-0.53,4.97-1.21,7.39-2.04c0.8-0.27,1.67,0.15,1.95,0.96c0.27,0.8-0.15,1.66-0.94,1.94
					C320.97,177.06,320.97,177.06,320.96,177.06z M326.35,173.29c-0.37-0.76-0.05-1.68,0.72-2.05c2.3-1.11,4.55-2.37,6.69-3.74
					c0.71-0.45,1.66-0.25,2.12,0.47c0.46,0.71,0.25,1.66-0.46,2.12c-2.25,1.44-4.61,2.76-7.02,3.92c-0.05,0.02-0.1,0.05-0.15,0.06
					C327.51,174.33,326.69,174.01,326.35,173.29z M305.26,180.38c-2.67,0.23-5.37,0.3-8.03,0.2c-0.85-0.03-1.51-0.74-1.48-1.59
					c0.03-0.85,0.74-1.51,1.59-1.48c2.54,0.09,5.12,0.03,7.66-0.19c0.84-0.07,1.59,0.55,1.66,1.4c0.06,0.71-0.37,1.35-1.01,1.58
					C305.53,180.34,305.4,180.37,305.26,180.38z M339.74,165.14c-0.54-0.65-0.45-1.62,0.2-2.16c1.96-1.63,3.84-3.39,5.59-5.25
					c0.58-0.61,1.55-0.64,2.17-0.06c0.62,0.58,0.65,1.55,0.06,2.17c-1.83,1.94-3.81,3.8-5.86,5.5c-0.14,0.12-0.3,0.21-0.46,0.26
					C340.85,165.82,340.17,165.65,339.74,165.14z M289.23,179.81c-2.64-0.42-5.28-1-7.85-1.74c-0.82-0.23-1.29-1.08-1.05-1.9
					c0.23-0.82,1.08-1.29,1.9-1.05c2.45,0.7,4.97,1.26,7.48,1.66c0.84,0.13,1.41,0.92,1.28,1.76c-0.09,0.57-0.49,1.02-1,1.21
					C289.76,179.82,289.5,179.85,289.23,179.81z M273.81,175.4c-2.47-1.04-4.89-2.24-7.2-3.56c-0.74-0.42-0.99-1.36-0.57-2.09
					c0.42-0.74,1.36-0.99,2.09-0.57c2.21,1.26,4.52,2.41,6.87,3.4c0.78,0.33,1.15,1.23,0.82,2.01c-0.17,0.41-0.51,0.71-0.9,0.85
					C274.57,175.56,274.18,175.56,273.81,175.4z M259.88,167.43c-2.15-1.6-4.21-3.35-6.14-5.19c-0.61-0.59-0.64-1.56-0.05-2.17
					c0.59-0.61,1.56-0.63,2.17-0.05c1.84,1.76,3.81,3.42,5.86,4.95c0.68,0.51,0.82,1.47,0.31,2.15c-0.19,0.25-0.44,0.43-0.71,0.53
					C260.85,167.81,260.31,167.75,259.88,167.43z"/>
				
					<linearGradient id="SVGID_11_" gradientUnits="userSpaceOnUse" x1="-1651.9489" y1="713.6959" x2="-1645.7684" y2="713.6959" gradientTransform="matrix(-0.9419 0.336 0.336 0.9419 -1440.0474 32.9081)">
					<stop  offset="0" style="stop-color:#B37CFF"/>
					<stop  offset="1" style="stop-color:#F895E7"/>
				</linearGradient>
				<path class="st12" d="M352.24,154.14c0.28-0.1,0.53-0.28,0.72-0.54c0.78-1.06,1.53-2.15,2.23-3.23
					c0.46-0.71,0.26-1.66-0.45-2.12c-0.71-0.46-1.66-0.26-2.12,0.46c-0.67,1.03-1.38,2.07-2.13,3.08c-0.5,0.68-0.35,1.64,0.33,2.15
					C351.24,154.25,351.78,154.31,352.24,154.14z"/>
			</g>
			<g>
				
					<linearGradient id="SVGID_12_" gradientUnits="userSpaceOnUse" x1="-164.6978" y1="195.0114" x2="378.5032" y2="925.7925" gradientTransform="matrix(0.9613 -0.2756 0.2756 0.9613 -1.3494 -428.6159)">
					<stop  offset="0" style="stop-color:#A737D5"/>
					<stop  offset="1" style="stop-color:#EF497A"/>
				</linearGradient>
				<path class="st13" d="M348.18,125.21c0.11-0.31,0.01-0.66-0.25-0.87l-7.39-5.9c0.49-4.39,0.29-8.89-0.67-13.33l6.75-6.62
					c0.24-0.23,0.3-0.59,0.16-0.89l-4.87-10.25c-0.14-0.3-0.46-0.48-0.79-0.44l-9.39,1.05c-2.84-3.55-6.2-6.55-9.91-8.94l0.09-9.46
					c0-0.33-0.2-0.63-0.52-0.74l-10.69-3.8c-0.31-0.11-0.66-0.01-0.87,0.25l-5.9,7.39c-4.39-0.49-8.89-0.29-13.33,0.67l-6.62-6.75
					c-0.23-0.24-0.59-0.3-0.89-0.16l-10.25,4.87c-0.3,0.14-0.48,0.46-0.44,0.79l1.05,9.39c-3.55,2.84-6.55,6.2-8.94,9.91l-9.46-0.09
					c-0.33,0-0.63,0.2-0.74,0.52l-3.8,10.69c-0.11,0.31-0.01,0.66,0.25,0.87l7.39,5.9c-0.49,4.39-0.29,8.89,0.67,13.33l-6.75,6.62
					c-0.24,0.23-0.3,0.59-0.16,0.89l4.87,10.25c0.14,0.3,0.46,0.48,0.79,0.44l9.39-1.05c2.84,3.55,6.2,6.55,9.91,8.94l-0.09,9.46
					c0,0.33,0.2,0.63,0.52,0.74l10.69,3.8c0.31,0.11,0.66,0.01,0.87-0.25l5.9-7.39c4.39,0.49,8.89,0.29,13.33-0.67l6.62,6.75
					c0.23,0.24,0.59,0.3,0.89,0.16l10.25-4.87c0.3-0.14,0.48-0.46,0.44-0.79l-1.05-9.39c3.55-2.84,6.55-6.2,8.94-9.91l9.46,0.09
					c0.33,0,0.63-0.2,0.74-0.52L348.18,125.21z"/>
				<path class="st8" d="M301.61,125.24c-3.04,0.61-6.14-0.01-8.72-1.73c-2.58-1.72-4.33-4.35-4.94-7.39
					c-1.25-6.28,2.84-12.39,9.12-13.65c6.28-1.25,12.4,2.84,13.65,9.12c0.61,3.04-0.01,6.14-1.73,8.71c-1.4,2.1-3.4,3.65-5.73,4.48
					C302.74,124.98,302.18,125.13,301.61,125.24z M290.97,115.52c0.45,2.24,1.73,4.17,3.63,5.44c1.9,1.27,4.17,1.72,6.41,1.27l0,0
					c2.24-0.45,4.17-1.73,5.43-3.63c1.27-1.9,1.72-4.17,1.27-6.41c-0.92-4.62-5.42-7.63-10.04-6.71c-0.42,0.08-0.82,0.2-1.21,0.33
					C292.55,107.21,290.14,111.32,290.97,115.52z"/>
				<path class="st8" d="M308.82,141c0.91-0.33,1.82-0.7,2.72-1.13c1.78-0.84,3.47-1.87,5.04-3.05c0.07-0.05,0.14-0.11,0.21-0.16
					c0.54-0.42,0.73-1.12,0.51-1.73c-0.05-0.15-0.13-0.29-0.23-0.42c-0.52-0.67-1.48-0.79-2.15-0.28c-1.45,1.12-3.03,2.08-4.69,2.87
					l0,0c-0.09,0.04-0.18,0.09-0.27,0.13c-3.95,1.83-8.21,2.61-12.44,2.33c-2.3-0.15-4.59-0.61-6.82-1.38
					c-0.02-0.01-0.04-0.01-0.05-0.02c-0.06-0.02-0.11-0.04-0.17-0.06c-6.5-2.31-11.72-7.02-14.68-13.26
					c-0.38-0.81-0.72-1.63-1.02-2.46c-1.99-5.58-2-11.63,0.01-17.3c2.31-6.5,7.02-11.72,13.26-14.68
					c6.23-2.96,13.25-3.32,19.75-1.01c6.5,2.31,11.72,7.02,14.68,13.26c0.38,0.79,0.71,1.6,1.01,2.42
					c1.27,3.56,1.75,7.36,1.38,11.13c-0.02,0.23,0.01,0.46,0.08,0.66c0.19,0.54,0.69,0.95,1.3,1.01c0.84,0.08,1.59-0.54,1.68-1.38
					c0.41-4.22-0.12-8.47-1.55-12.45c-0.33-0.92-0.7-1.83-1.12-2.71c-3.32-6.98-9.15-12.24-16.42-14.83
					c-7.28-2.59-15.12-2.19-22.1,1.13c-6.98,3.31-12.24,9.15-14.83,16.42c-2.25,6.33-2.24,13.1-0.01,19.35
					c0.33,0.93,0.71,1.85,1.14,2.75C279.43,139.67,295.03,145.92,308.82,141z"/>
			</g>
		</g>
	</g>
	<g>
		<g>
			<linearGradient id="SVGID_13_" gradientUnits="userSpaceOnUse" x1="0" y1="379.5854" x2="796.499" y2="379.5854">
				<stop  offset="0" style="stop-color:#2B3582"/>
				<stop  offset="1" style="stop-color:#150E42"/>
			</linearGradient>
			<path class="st14" d="M0,157.82v415.29c0,34.16,27.22,62.1,61.38,62.98c151.68,3.91,542.36,13.4,686.76,11.27
				c24.82-0.37,44.92-20.23,45.64-45.04c2.78-96.48,7.31-328.47-9.43-436.18c-3.52-22.68-22.67-39.64-45.61-40.38
				c-127.09-4.07-549.64-16.98-693.96-13.73C19.88,112.59,0,132.92,0,157.82z"/>
			<linearGradient id="SVGID_14_" gradientUnits="userSpaceOnUse" x1="464.816" y1="60.9761" x2="292.3242" y2="794.4406">
				<stop  offset="0" style="stop-color:#53D8FF"/>
				<stop  offset="1" style="stop-color:#3840F7"/>
			</linearGradient>
			<path class="st15" d="M26.06,155.79v394.55c0,19.95,16.01,36.2,35.96,36.5l665.35,9.95c19.77,0.3,35.98-15.61,36.05-35.39
				l1.35-391.03c0.05-14.14-11.21-25.73-25.35-26.07L54.89,127.65C39.08,127.27,26.06,139.98,26.06,155.79z"/>
			<path class="st16" d="M38.71,189.05v330.99c0,16.73,15.26,30.37,34.26,30.62L706.99,559c18.84,0.25,34.29-13.1,34.36-29.69
				l1.28-328.04c0.05-11.86-10.68-21.58-24.15-21.87L66.19,165.44C51.12,165.12,38.71,175.78,38.71,189.05z"/>
			<path class="st17" d="M769.48,612.88c-0.01,0-0.01,0-0.02,0L26.04,597.83c-0.57-0.01-1.02-0.48-1.01-1.05
				c0.01-0.57,0.5-1.03,1.05-1.01l743.42,15.05c0.57,0.01,1.02,0.48,1.01,1.05C770.49,612.43,770.04,612.88,769.48,612.88z"/>
		</g>
		<path class="st17" d="M346.69,245.62c-3.21-15.25-11.21-10.02-24.6-14.71c-13.38-4.69-9.47-21.43-17.78-26.59
			c-11.08-6.88-21.25-0.49-28.14,8.54c-11.45,15.01-19.28,2.8-32.97,8.89c-7.84,3.49-4.5,8.37-15.1,10.33
			c-7.41,1.37-15.43-1.86-22.74,0.12c-5.41,1.46-9.33,4.03-10.53,9.27c1.53,0.72,3.11,1.37,4.74,1.96c20.45,7.37,48.35,4.91,69.02,6
			C275.63,249.8,348.96,256.43,346.69,245.62z"/>
		<path class="st17" d="M484.89,208.1c-3.36-4.1-8.36-5.79-13.27-4.56c-5.35,1.34-8.37,6.45-13.35,8.49
			c-8.68,3.57-20.69-3.48-27.29,5.71c-8.07,11.24-14.3,2.81-14.3,10.44c0,7.63,55.74,2.01,83.24,2.41
			c3.97,0.06,21.22-0.23,13.8-8.48c-2.31-2.56-5.6-2.99-8.66-3.59c-4-0.78-13.51-1.21-16.4-4.32c-1.56-1.67-2.16-4.08-3.57-5.87
			C485.02,208.26,484.95,208.18,484.89,208.1z"/>
		<linearGradient id="SVGID_15_" gradientUnits="userSpaceOnUse" x1="177.3677" y1="370.1932" x2="-5.6234" y2="686.6774">
			<stop  offset="0" style="stop-color:#A737D5"/>
			<stop  offset="1" style="stop-color:#EF497A"/>
		</linearGradient>
		<path class="st18" d="M170.15,551.9H86.31c-6.6,0-12-5.4-12-12V370.45c0-6.6,5.4-12,12-12h83.83c6.6,0,12,5.4,12,12V539.9
			C182.15,546.5,176.75,551.9,170.15,551.9z"/>
		<linearGradient id="SVGID_16_" gradientUnits="userSpaceOnUse" x1="286.3398" y1="312.0335" x2="209.8436" y2="600.0186">
			<stop  offset="0" style="stop-color:#A737D5"/>
			<stop  offset="1" style="stop-color:#EF497A"/>
		</linearGradient>
		<path class="st19" d="M258.78,553.08h-29.92c-6.6,0-12-5.4-12-12V403.09c0-6.6,5.4-12,12-12h29.92c6.6,0,12,5.4,12,12v137.99
			C270.78,547.68,265.38,553.08,258.78,553.08z"/>
		<linearGradient id="SVGID_17_" gradientUnits="userSpaceOnUse" x1="474.4038" y1="278.8166" x2="457.9045" y2="499.3054">
			<stop  offset="0" style="stop-color:#FDF53F"/>
			<stop  offset="0.7206" style="stop-color:#E3705A"/>
			<stop  offset="1" style="stop-color:#D93C65"/>
		</linearGradient>
		<path class="st20" d="M356.48,470.77c9.41-7.22,25.61-11.61,26.46-21.62c-0.62,9.4-0.93,19.61,6.45,27.27
			c2.51,2.61,5.78,4.75,8.68,7.13c9.82,8.07,15.11,18.64,18.22,29.26c-1.69-5.76-0.35-11.03,1.02-16.67
			c1.19-4.91,7.48-7.73,12.29-10.43c5.86-3.29,10.96-6.75,13.53-12.17c-1.05,3.25,0.18,6.66,1.4,9.87
			c2.34,6.15,3.49,12.64,6.11,18.58c3.8,8.62,5.34,17.83,4.51,26.92c1.29-2.84,2.58-5.69,3.87-8.53c0.46-1.01,0.92-2.03,1.5-3
			c4.69-7.88,15.33-10.58,21.54-17.41c9.72-10.68,1.82-25.09,3.96-37.88c0.51,8.99,12.18,15.36,17.31,22.94
			c4.08,6.01,5.33,12.89,6.44,19.62c3.68-3.91,8.58-7.12,14.17-9.28c7.71-2.99,17.94-7.18,14.07-14.98
			c5.75,3.25,9.48,9.53,10.83,14.82c3.59-4.74-0.31-10.84,1.09-16.22c0.77-2.97,3.12-5.54,5.41-8.01c1.61-1.73,3.22-3.47,4.83-5.2
			c-1.41,1.52,2.17,10.52,2.61,12.54c1.02,4.66,2.09,9.32,3.21,13.97c1.89,7.84,3.38,15.57,4.44,23.49
			c1.41,10.6,1.81,21.28,1.19,31.93c-0.11,1.97-0.31,4.05-1.85,5.66c-2.39,2.51-2.94,2.73-7.07,2.99
			c-63.88,4.01-120.67-0.52-195.97,1.09c-4.54,0.1-14.39,0.22-17.43-2.29c-2.04-1.68-2.68-3.05-3.47-5.23
			C338.51,529.62,333.64,488.3,356.48,470.77z"/>
		<linearGradient id="SVGID_18_" gradientUnits="userSpaceOnUse" x1="622.1749" y1="385.2728" x2="590.6763" y2="616.2615">
			<stop  offset="0" style="stop-color:#A737D5"/>
			<stop  offset="1" style="stop-color:#EF497A"/>
		</linearGradient>
		<path class="st21" d="M653.62,558.78h-83.83c-6.6,0-12-5.4-12-12V377.33c0-6.6,5.4-12,12-12h83.83c6.6,0,12,5.4,12,12v169.45
			C665.62,553.38,660.22,558.78,653.62,558.78z"/>
		<linearGradient id="SVGID_19_" gradientUnits="userSpaceOnUse" x1="353.1728" y1="329.7861" x2="276.6765" y2="617.7721">
			<stop  offset="0" style="stop-color:#A737D5"/>
			<stop  offset="1" style="stop-color:#EF497A"/>
		</linearGradient>
		<path class="st22" d="M339.66,556.11h-29.92c-6.6,0-12-5.4-12-12V329.84c0-6.6,5.4-12,12-12h29.92c6.6,0,12,5.4,12,12v214.27
			C351.66,550.71,346.26,556.11,339.66,556.11z"/>
		<linearGradient id="SVGID_20_" gradientUnits="userSpaceOnUse" x1="465.7279" y1="452.1681" x2="457.3905" y2="582.4409">
			<stop  offset="0" style="stop-color:#A737D5"/>
			<stop  offset="1" style="stop-color:#EF497A"/>
		</linearGradient>
		<path class="st23" d="M464.73,561.56h-2.1c-5.39,0-9.8-4.41-9.8-9.8V416.55c0-5.39,4.41-9.8,9.8-9.8h2.1c5.39,0,9.8,4.41,9.8,9.8
			v135.21C474.53,557.15,470.12,561.56,464.73,561.56z"/>
		<g>
			<g>
				
					<linearGradient id="SVGID_21_" gradientUnits="userSpaceOnUse" x1="3607.5518" y1="1109.5219" x2="3550.3413" y2="856.162" gradientTransform="matrix(-0.9999 0.0169 0.0142 0.8363 4271.2417 -377.6591)">
					<stop  offset="0" style="stop-color:#CE1567"/>
					<stop  offset="1" style="stop-color:#7A1DBC"/>
				</linearGradient>
				<path class="st24" d="M727.65,361.97c4.61,0.86,9.29,2.58,11.22,4.91c8.69,10.51-2.14,26.83-5.48,37.37
					c-5.74,18.1-6.61,37.42,0.03,55.37c7.2,19.45,12.27,38.76,11.21,59.34c-0.55,10.6-3.12,22.01-10.45,30.99
					c-13.86,16.97-53.55,11.14-62.65-6.09c-7.26-13.73-6.36-29.33-3.33-43.82c5.11-24.38,14.87-47.88,20.17-72.22
					c4.05-18.61-1.7-54.66,23.17-64.54C716.07,361.47,722.77,361.05,727.65,361.97z"/>
				
					<linearGradient id="SVGID_22_" gradientUnits="userSpaceOnUse" x1="3557.4175" y1="951.9924" x2="3591.6968" y2="951.9924" gradientTransform="matrix(-0.9999 0.0169 0.0142 0.8363 4271.2417 -377.6591)">
					<stop  offset="0" style="stop-color:#2B3582"/>
					<stop  offset="1" style="stop-color:#150E42"/>
				</linearGradient>
				<path class="st25" d="M711.32,589.36c0.13,0,0.26-0.03,0.39-0.07c0.62-0.23,0.93-0.91,0.7-1.53
					c-22.4-60.23-17.6-116.22-9.63-152.59c8.64-39.44,22.78-64.95,22.92-65.2c0.32-0.57,0.12-1.3-0.46-1.62
					c-0.57-0.32-1.3-0.12-1.62,0.46c-0.14,0.26-14.42,26.01-23.15,65.77c-8.05,36.69-12.9,93.2,9.71,154.01
					C710.36,589.07,710.82,589.37,711.32,589.36z"/>
			</g>
			<g>
				
					<linearGradient id="SVGID_23_" gradientUnits="userSpaceOnUse" x1="-4703.3608" y1="1072.0414" x2="-4687.1211" y2="947.5347" gradientTransform="matrix(0.9831 0.1832 -0.1832 0.9831 5452.5225 400.4062)">
					<stop  offset="0" style="stop-color:#7A2DDB"/>
					<stop  offset="1" style="stop-color:#7077FF"/>
				</linearGradient>
				<path class="st26" d="M691.52,519.87c1.49-14.32-4.44-30.41-7.72-45.32c-1.74-7.89-2.74-15.75-1.83-23.82
					c0.9-8.02,4.24-16.81,0.41-24.59c-7.7-15.66-23.89-7.61-32.79,4.87c-10.33,14.48-12.27,37.44-15.62,55.21
					c-2.02,10.71-5.3,21.75-6.12,32.61c-1.36,17.99,3.26,30.21,12.21,38.2c8.58,7.66,21.16,8.74,30.93,2.68
					C679.82,554.24,689.11,542.98,691.52,519.87z"/>
				
					<linearGradient id="SVGID_24_" gradientUnits="userSpaceOnUse" x1="-4706.1582" y1="984.5699" x2="-4679.0869" y2="984.5699" gradientTransform="matrix(0.9831 0.1832 -0.1832 0.9831 5452.5225 400.4062)">
					<stop  offset="0" style="stop-color:#2B3582"/>
					<stop  offset="1" style="stop-color:#150E42"/>
				</linearGradient>
				<path class="st27" d="M656.45,588.22c0.18,0.05,0.38,0.06,0.57,0.02c0.64-0.14,1.05-0.77,0.91-1.41
					c-0.18-0.85-18.15-85.86,6.39-155.78c0.22-0.62-0.11-1.3-0.73-1.52c-0.61-0.22-1.3,0.11-1.52,0.73
					c-24.77,70.57-6.66,156.22-6.47,157.08C655.71,587.78,656.04,588.11,656.45,588.22z"/>
			</g>
		</g>
		<g>
			<linearGradient id="SVGID_25_" gradientUnits="userSpaceOnUse" x1="76.5231" y1="363.5353" x2="175.8793" y2="363.5353">
				<stop  offset="0" style="stop-color:#9F5699"/>
				<stop  offset="1" style="stop-color:#202278"/>
			</linearGradient>
			<ellipse class="st28" cx="126.2" cy="363.54" rx="49.68" ry="6.27"/>
			<g>
				<linearGradient id="SVGID_26_" gradientUnits="userSpaceOnUse" x1="44.8793" y1="277.8426" x2="59.0126" y2="277.8426">
					<stop  offset="0" style="stop-color:#9CFFFB"/>
					<stop  offset="1" style="stop-color:#9BFFFA"/>
				</linearGradient>
				<path class="st29" d="M52.81,271.57l-4.87,5.12H46.7c-0.53,0-1.82,0.95-1.82,1.48v4.45c0,0.48,0.78,0.89,1.26,0.95l3.98,0.53
					c0.4,0.06,0.91-0.15,1.1-0.51l1.54-2.85l6.26-4.49L52.81,271.57z"/>
				<linearGradient id="SVGID_27_" gradientUnits="userSpaceOnUse" x1="122.68" y1="246.7953" x2="134.4634" y2="423.5453">
					<stop  offset="0" style="stop-color:#2B3582"/>
					<stop  offset="1" style="stop-color:#150E42"/>
				</linearGradient>
				<path class="st30" d="M91.88,250.63c0,0-17.3,53.69-10.8,82.79c9.34-7.46,10.8-11.53,10.8-11.53l8.7,17.94l14.22-12.86
					l28.86,23.37l13.43-18.28l16.21,8.12c0,0,4.58-84.91-9.9-93.84C142.83,247.55,91.88,250.63,91.88,250.63z"/>
				<g>
					<linearGradient id="SVGID_28_" gradientUnits="userSpaceOnUse" x1="89.315" y1="249.5998" x2="94.8348" y2="332.396">
						<stop  offset="0" style="stop-color:#9F5699"/>
						<stop  offset="1" style="stop-color:#202278"/>
					</linearGradient>
					<path class="st31" d="M86.36,250.63c0,0-12.39,28.2-11.98,33.88c0.41,5.69-0.01,15.23-0.01,15.23l11.99-3.25l21.94-36.56
						L86.36,250.63z"/>
					<linearGradient id="SVGID_29_" gradientUnits="userSpaceOnUse" x1="84.1126" y1="313.5387" x2="68.2687" y2="277.7885">
						<stop  offset="0" style="stop-color:#CB236D"/>
						<stop  offset="1" style="stop-color:#4C246D"/>
					</linearGradient>
					<path class="st32" d="M63.81,270.7c-0.05-5.74-7.41-6.6-7.41-6.6l-4.42,5.57l1.22,9.51l5.01-0.24
						c1.57-0.07,3.05,0.73,3.83,2.09l12.49,21.57c0.73,1.25,2.05,2.04,3.49,2.09c1.45,0.05,2.82-0.65,3.63-1.85l8.08-11.99
						L63.81,270.7z"/>
				</g>
				<linearGradient id="SVGID_30_" gradientUnits="userSpaceOnUse" x1="163.5485" y1="254.2161" x2="169.1986" y2="338.9671">
					<stop  offset="0" style="stop-color:#9F5699"/>
					<stop  offset="1" style="stop-color:#202278"/>
				</linearGradient>
				<polygon class="st33" points="172.69,254.66 175.23,292.84 165.17,304.42 159.08,290.81 154.54,255.67 				"/>
				<linearGradient id="SVGID_31_" gradientUnits="userSpaceOnUse" x1="122.4014" y1="226.6015" x2="137.8998" y2="226.6015">
					<stop  offset="0" style="stop-color:#F9B776"/>
					<stop  offset="1" style="stop-color:#F47960"/>
				</linearGradient>
				<path class="st34" d="M122.82,220.62c0,0-1.83,11.03,2.13,11.64c3.96,0.61,14.1,1.71,12.84-11.64
					C127.09,220.84,122.82,220.62,122.82,220.62z"/>
				<linearGradient id="SVGID_32_" gradientUnits="userSpaceOnUse" x1="116.4339" y1="197.3623" x2="119.0597" y2="236.7489">
					<stop  offset="0" style="stop-color:#2B3582"/>
					<stop  offset="1" style="stop-color:#150E42"/>
				</linearGradient>
				<path class="st35" d="M124.17,215.56c0,0-6.99,1.92-8.06-2.87c-0.77-3.46,0.36-10.67,1.05-14.44c0.04-0.21-0.08-0.41-0.27-0.48
					c-0.2-0.07-0.42,0.01-0.52,0.19c-2.97,5.13-9.68,18.08-3.61,20.75c7.62,3.35,12.42,0.84,12.42,0.84L124.17,215.56z"/>
				
					<linearGradient id="SVGID_33_" gradientUnits="userSpaceOnUse" x1="870.4985" y1="197.3623" x2="873.1243" y2="236.7489" gradientTransform="matrix(-1 0 0 1 1013.9263 0)">
					<stop  offset="0" style="stop-color:#2B3582"/>
					<stop  offset="1" style="stop-color:#150E42"/>
				</linearGradient>
				<path class="st36" d="M135.69,215.56c0,0,6.99,1.92,8.06-2.87c0.77-3.46-0.36-10.67-1.05-14.44c-0.04-0.21,0.08-0.41,0.27-0.48
					c0.2-0.07,0.42,0.01,0.52,0.19c2.97,5.13,9.68,18.08,3.61,20.75c-7.62,3.35-12.42,0.84-12.42,0.84L135.69,215.56z"/>
				<g>
					<linearGradient id="SVGID_34_" gradientUnits="userSpaceOnUse" x1="122.6462" y1="217.3904" x2="137.8278" y2="217.3904">
						<stop  offset="0" style="stop-color:#9F5699"/>
						<stop  offset="1" style="stop-color:#202278"/>
					</linearGradient>
					<path class="st37" d="M122.74,221.98c0,0,0-9.22,5.64-9.29c5.64-0.08,9.52,1.98,9.45,9.29
						C129.45,222.36,121.68,221.67,122.74,221.98z"/>
					<linearGradient id="SVGID_35_" gradientUnits="userSpaceOnUse" x1="130.0116" y1="219.8062" x2="130.3561" y2="224.9739">
						<stop  offset="0" style="stop-color:#ED539F"/>
						<stop  offset="1" style="stop-color:#A061C2"/>
					</linearGradient>
					<path class="st38" d="M121.91,220.42c0,0-0.8,1.61,0.84,1.56c1.64-0.05,15.54,1.14,15.69,0c0.15-1.14,0.04-1.72-0.61-1.72
						C137.18,220.26,122.25,220.23,121.91,220.42z"/>
				</g>
				<linearGradient id="SVGID_36_" gradientUnits="userSpaceOnUse" x1="128.8793" y1="214.1892" x2="129.8793" y2="214.1892">
					<stop  offset="0" style="stop-color:#ED539F"/>
					<stop  offset="1" style="stop-color:#A061C2"/>
				</linearGradient>
				<path class="st39" d="M129.88,218.19c0,0.28-0.22,0.5-0.5,0.5l0,0c-0.28,0-0.5-0.22-0.5-0.5v-8c0-0.28,0.22-0.5,0.5-0.5l0,0
					c0.28,0,0.5,0.22,0.5,0.5V218.19z"/>
				<linearGradient id="SVGID_37_" gradientUnits="userSpaceOnUse" x1="99.0018" y1="275.6827" x2="159.1917" y2="275.6827">
					<stop  offset="0" style="stop-color:#5AB6FF"/>
					<stop  offset="1" style="stop-color:#2F68E3"/>
				</linearGradient>
				<path class="st40" d="M101.59,256.69c0,0-7.52,45.3,3.05,48.95c37.98,4.47,53.83,0,53.83,0s1.63-40.22,0-47.13
					C156.84,251.61,118.45,230.08,101.59,256.69z"/>
				<linearGradient id="SVGID_38_" gradientUnits="userSpaceOnUse" x1="95.8793" y1="282.1892" x2="159.8793" y2="282.1892">
					<stop  offset="0" style="stop-color:#18459F"/>
					<stop  offset="1" style="stop-color:#2874B5"/>
				</linearGradient>
				<path class="st41" d="M159.88,282.19c0,0.28-0.22,0.5-0.5,0.5h-63c-0.28,0-0.5-0.22-0.5-0.5l0,0c0-0.28,0.22-0.5,0.5-0.5h63
					C159.66,281.69,159.88,281.91,159.88,282.19L159.88,282.19z"/>
				<g>
					<linearGradient id="SVGID_39_" gradientUnits="userSpaceOnUse" x1="99.0017" y1="333.4187" x2="124.0395" y2="333.4187">
						<stop  offset="0" style="stop-color:#9F5699"/>
						<stop  offset="1" style="stop-color:#202278"/>
					</linearGradient>
					<polygon class="st42" points="101.95,325.65 99,339.51 116.57,343.02 124.04,323.82 					"/>
					<linearGradient id="SVGID_40_" gradientUnits="userSpaceOnUse" x1="91.8783" y1="351.0723" x2="118.7409" y2="351.0723">
						<stop  offset="0" style="stop-color:#2B3582"/>
						<stop  offset="1" style="stop-color:#150E42"/>
					</linearGradient>
					<path class="st43" d="M109.45,359.95l9.27-21.49c0.03-0.07,0.02,0.62-0.02,0.56c-0.04-0.06-0.11,0.67-0.19,0.67H98.36
						c-0.12,0-0.22-0.68-0.23-0.55l-0.7,21.18c0,0.09-0.06-0.02-0.15,0.01l-5.26,1.84c-0.1,0.04-0.17,0.68-0.15,0.79
						c0.02,0.11,0.11,0.73,0.22,0.73h17.81c0.07,0,0.14-0.62,0.19-0.68c0.04-0.06,0.06-0.43,0.03-0.5l-0.69-2.25
						C109.42,360.2,109.43,360,109.45,359.95z"/>
				</g>
				<g>
					
						<linearGradient id="SVGID_41_" gradientUnits="userSpaceOnUse" x1="833.6109" y1="333.4187" x2="858.6487" y2="333.4187" gradientTransform="matrix(-1 0 0 1 997.0086 0)">
						<stop  offset="0" style="stop-color:#9F5699"/>
						<stop  offset="1" style="stop-color:#202278"/>
					</linearGradient>
					<polygon class="st44" points="160.45,325.65 163.4,339.51 145.82,343.02 138.36,323.82 					"/>
					<linearGradient id="SVGID_42_" gradientUnits="userSpaceOnUse" x1="143.6586" y1="351.2629" x2="170.5212" y2="351.2629">
						<stop  offset="0" style="stop-color:#2B3582"/>
						<stop  offset="1" style="stop-color:#150E42"/>
					</linearGradient>
					<path class="st45" d="M170.37,362.07l-5.4-1.99l-0.7-20.94c0-0.12-0.11,0.55-0.23,0.55h-20.15c-0.08,0-0.15-0.74-0.19-0.67
						s-0.05-0.24-0.02-0.17l9.27,21.3c0.02,0.05,0.02,0.01,0.01,0.06l-0.69,2.06c-0.02,0.07-0.01,0.71,0.03,0.77
						c0.04,0.06,0.11,0.66,0.19,0.66h17.81c0.11,0,0.21-0.67,0.22-0.77C170.54,362.81,170.48,362.11,170.37,362.07z"/>
				</g>
				<linearGradient id="SVGID_43_" gradientUnits="userSpaceOnUse" x1="97.957" y1="317.8933" x2="165.025" y2="317.8933">
					<stop  offset="0" style="stop-color:#18459F"/>
					<stop  offset="1" style="stop-color:#2874B5"/>
				</linearGradient>
				<path class="st46" d="M159.19,304.17l-58.02-1.07l-3.21,25.49c-0.03,0.27,0.04,0.54,0.21,0.75c0.17,0.21,0.42,0.34,0.68,0.37
					l31.62,2.87c0.53,0.05,1.01-0.33,1.08-0.86l1.78-13.53l5.18,13.79c0.09,0.24,0.32,0.72,0.58,0.72h25.31
					c0.19,0,0.37-0.41,0.48-0.55c0.12-0.15,0.16-0.5,0.12-0.68L159.19,304.17z"/>
				<linearGradient id="SVGID_44_" gradientUnits="userSpaceOnUse" x1="77.9083" y1="250.6322" x2="122.4014" y2="250.6322">
					<stop  offset="0" style="stop-color:#2B3582"/>
					<stop  offset="1" style="stop-color:#150E42"/>
				</linearGradient>
				<path class="st47" d="M113.89,232.58c0,0-24.16-5.14-33.22,8.09c-0.12,0.17-0.14,0.39-0.05,0.58c0.08,0.19,0.26,0.32,0.46,0.35
					c2.79,0.39,3.4,0.02,3.52-0.11l-6.56,8.14c-0.16,0.2-0.18,0.47-0.05,0.68c0.13,0.21,0.38,0.33,0.62,0.28l4.03-0.78
					c0.17-0.03,0.34,0.01,0.48,0.11c0.14,0.11,0.22,0.26,0.23,0.44l0.4,6.89c0.01,0.22,0.14,0.41,0.34,0.5
					c0.19,0.09,0.42,0.08,0.6-0.05l3.86-2.69c0.15-0.11,0.35-0.14,0.53-0.08c0.18,0.06,0.32,0.2,0.38,0.37l2.3,6.74
					c0.07,0.22,0.26,0.37,0.49,0.4c0.23,0.03,0.45-0.07,0.57-0.26l2.55-3.82c0.12-0.19,0.34-0.29,0.56-0.26
					c0.22,0.02,0.41,0.17,0.49,0.38l4.14,10.81c0.08,0.21,0.27,0.36,0.5,0.38c0.22,0.02,0.44-0.08,0.56-0.28l2.77-4.38
					c0.15-0.24,0.44-0.34,0.7-0.24l5.17,1.82c0.26,0.09,0.54,0,0.69-0.23l11.45-17.18C122.4,249.17,120.46,233.42,113.89,232.58z"/>
				
					<linearGradient id="SVGID_45_" gradientUnits="userSpaceOnUse" x1="803.8605" y1="251.5463" x2="846.2172" y2="251.5463" gradientTransform="matrix(-1 0 0 1 985.0634 0)">
					<stop  offset="0" style="stop-color:#2B3582"/>
					<stop  offset="1" style="stop-color:#150E42"/>
				</linearGradient>
				<path class="st48" d="M146.95,234.36c0,0,23-4.9,31.63,7.7c0.11,0.16,0.13,0.37,0.05,0.55c-0.08,0.18-0.25,0.31-0.44,0.33
					c-2.66,0.37-3.24,0.02-3.35-0.1l6.25,7.75c0.15,0.19,0.17,0.45,0.04,0.65c-0.12,0.2-0.36,0.31-0.59,0.26l-3.83-0.74
					c-0.16-0.03-0.33,0.01-0.46,0.11c-0.13,0.1-0.21,0.25-0.22,0.42l-0.39,6.56c-0.01,0.21-0.13,0.39-0.32,0.48
					c-0.19,0.09-0.4,0.07-0.57-0.05l-3.67-2.56c-0.15-0.1-0.33-0.13-0.5-0.07c-0.17,0.06-0.3,0.19-0.36,0.36l-2.19,6.41
					c-0.07,0.2-0.25,0.35-0.46,0.38c-0.21,0.03-0.43-0.07-0.55-0.25l-2.43-3.64c-0.12-0.18-0.32-0.27-0.54-0.25
					c-0.21,0.02-0.39,0.16-0.47,0.36l-3.94,10.29c-0.08,0.2-0.26,0.34-0.47,0.36c-0.21,0.02-0.42-0.08-0.54-0.26l-2.63-4.17
					c-0.14-0.22-0.42-0.32-0.67-0.23l-4.92,1.73c-0.24,0.09-0.52,0-0.66-0.22l-10.9-16.36C138.85,250.16,140.7,235.16,146.95,234.36
					z"/>
				<linearGradient id="SVGID_46_" gradientUnits="userSpaceOnUse" x1="129.7698" y1="222.4605" x2="135.3043" y2="305.4777">
					<stop  offset="0" style="stop-color:#DA342D"/>
					<stop  offset="1" style="stop-color:#F3A84A"/>
				</linearGradient>
				<path class="st49" d="M148.45,239.79c2.1-0.13,2.98,0.69,3.64,1.09c0.22,0.13,0.49,0.13,0.71-0.01c0.21-0.14,0.32-0.4,0.28-0.65
					c-0.66-4.18-9.45-15.74-15.19-16.43c-1.82,3.3-4.11,3.96-4.11,3.96l-3.55-2.13l-3.4,2.18l-4.31-4.01c0,0-8.94,7.16-13.62,16.37
					c-0.11,0.22-0.08,0.49,0.07,0.68c0.16,0.19,0.41,0.27,0.65,0.21l5.24-1.43c0.23-0.06,0.48,0.01,0.64,0.19
					c0.16,0.18,0.2,0.44,0.1,0.66c-1.45,3.38-5.35,13.11-4.68,18.3c0.03,0.21,0.16,0.39,0.35,0.48c0.19,0.09,0.42,0.08,0.6-0.03
					c3.13-1.94,6.07-3.93,7.49-4.91c0.18-0.13,0.42-0.15,0.62-0.05c0.2,0.09,0.34,0.29,0.36,0.51c0.3,3.28,1.54,13.16,5.98,17.03
					c0.26,0.22,0.64,0.2,0.87-0.05c4.74-5.18,7.01-8.17,7.92-9.46c0.12-0.17,0.32-0.27,0.52-0.26c0.21,0,0.4,0.11,0.51,0.29
					l3.75,5.8c0.11,0.17,0.29,0.27,0.49,0.29c0.2,0.01,0.39-0.08,0.52-0.23c1.29-1.6,4.46-5.94,5.65-11.01
					c0.05-0.21,0.2-0.38,0.4-0.45c0.2-0.07,0.43-0.03,0.59,0.1l3.91,3.09c0.19,0.15,0.46,0.18,0.68,0.06
					c0.22-0.11,0.35-0.35,0.33-0.59c-0.23-3.62-1.15-13.46-4.49-18.62c-0.12-0.19-0.13-0.42-0.03-0.62
					C148.04,239.93,148.23,239.8,148.45,239.79z"/>
				<linearGradient id="SVGID_47_" gradientUnits="userSpaceOnUse" x1="129.5016" y1="296.5242" x2="130.7582" y2="315.3732">
					<stop  offset="0" style="stop-color:#DA342D"/>
					<stop  offset="1" style="stop-color:#F3A84A"/>
				</linearGradient>
				<rect x="99.88" y="298.69" class="st50" width="60" height="7"/>
				<g>
					<linearGradient id="SVGID_48_" gradientUnits="userSpaceOnUse" x1="130.3656" y1="297.1684" x2="131.6685" y2="316.7116">
						<stop  offset="0" style="stop-color:#2B3582"/>
						<stop  offset="1" style="stop-color:#150E42"/>
					</linearGradient>
					<path class="st51" d="M137.76,298.54c-3.22-0.32-6.43-0.61-9.66-0.82c-1.92-0.12-3.9-0.16-5.19,0.68
						c-0.59,0.38-1.04,0.95-1.28,1.77c-0.5,1.75-1.25,4.25-0.11,5.92c0.7,1.03,2.42,1.64,3.85,1.73c3.77,0.24,8.03,0.84,11.82,0.49
						c2.99-0.28,3.05-2.87,3.28-4.7C140.7,301.74,140.92,298.86,137.76,298.54z M138.39,303.22c-0.18,1.41-0.23,3.4-2.53,3.62
						c-2.91,0.27-6.19-0.19-9.09-0.38c-1.09-0.07-2.42-0.54-2.96-1.33c-0.88-1.29-0.3-3.21,0.08-4.56c0.18-0.63,0.53-1.07,0.98-1.36
						c1-0.64,2.52-0.61,4-0.52c2.49,0.16,4.96,0.38,7.43,0.63C138.75,299.56,138.58,301.78,138.39,303.22z"/>
					<linearGradient id="SVGID_49_" gradientUnits="userSpaceOnUse" x1="126.3266" y1="302.3984" x2="126.502" y2="305.0297">
						<stop  offset="0" style="stop-color:#2B3582"/>
						<stop  offset="1" style="stop-color:#150E42"/>
					</linearGradient>
					<path class="st52" d="M130.88,303.19c0,0.28-0.22,0.5-0.5,0.5h-8c-0.28,0-0.5-0.22-0.5-0.5l0,0c0-0.28,0.22-0.5,0.5-0.5h8
						C130.66,302.69,130.88,302.91,130.88,303.19L130.88,303.19z"/>
				</g>
				<linearGradient id="SVGID_50_" gradientUnits="userSpaceOnUse" x1="168.022" y1="284.5562" x2="172.8175" y2="356.4882">
					<stop  offset="0" style="stop-color:#CB236D"/>
					<stop  offset="1" style="stop-color:#4C246D"/>
				</linearGradient>
				<path class="st53" d="M175.98,285.53c-0.01-0.31-0.09-0.58-0.38-0.69c-0.29-0.1-0.56-0.02-0.76,0.21
					c-3.08,3.47-10.9,12.31-13.25,14.99c-0.4,0.46-0.46,1.13-0.16,1.66l6.9,12.27c0.48,0.86,0.54,1.9,0.14,2.8
					c-0.32,0.72-0.75,1.79-1.3,3.39c-0.76,2.2,1.3,4.5,3.28,6.1c0.73,0.59,1.68,0.82,2.6,0.63c0.92-0.19,1.46-0.78,1.89-1.61
					l1.95-4.2v-7.16L175.98,285.53z"/>
				<linearGradient id="SVGID_51_" gradientUnits="userSpaceOnUse" x1="61.5783" y1="230.9341" x2="116.8965" y2="230.9341">
					<stop  offset="0" style="stop-color:#FDF53F"/>
					<stop  offset="1" style="stop-color:#D93C65"/>
				</linearGradient>
				<polygon class="st54" points="61.58,259.23 95.09,201.64 116.9,197.77 111.52,217.39 65.84,264.1 				"/>
				<g class="st55">
					<g>
						<path class="st56" d="M64.63,260.65c-0.06,0-0.13-0.02-0.18-0.06c-0.13-0.1-0.16-0.29-0.06-0.43l37.04-48.81
							c0.1-0.13,0.29-0.16,0.43-0.06c0.13,0.1,0.16,0.29,0.06,0.43l-37.04,48.81C64.81,260.61,64.72,260.65,64.63,260.65z"/>
					</g>
					<g>
						<path class="st56" d="M100.35,210.8c-0.11,0-0.22-0.06-0.27-0.16l-4.32-8.27c-0.08-0.15-0.02-0.33,0.13-0.41
							c0.15-0.08,0.33-0.02,0.41,0.13l4.32,8.27c0.08,0.15,0.02,0.33-0.13,0.41C100.45,210.79,100.4,210.8,100.35,210.8z"/>
					</g>
					<g>
						<path class="st56" d="M110.88,217.32c-0.05,0-0.09-0.01-0.14-0.03l-8.31-4.24c-0.15-0.08-0.21-0.26-0.13-0.41
							c0.08-0.15,0.26-0.21,0.41-0.13l8.31,4.24c0.15,0.08,0.21,0.26,0.13,0.41C111.1,217.26,110.99,217.32,110.88,217.32z"/>
					</g>
				</g>
				<linearGradient id="SVGID_52_" gradientUnits="userSpaceOnUse" x1="51.2283" y1="261.3921" x2="78.5992" y2="261.3921">
					<stop  offset="0" style="stop-color:#9CFFFB"/>
					<stop  offset="1" style="stop-color:#9BFFFA"/>
				</linearGradient>
				<path class="st57" d="M64.02,266.95l-0.91,1l-5.02-3.48l1.06-1.69c0,0-3.05-5.38-6.4-7.21c-3.35-1.83-0.51-5.28,2.44-6.09
					c2.95-0.81,2.64,4.88,2.64,4.88l5.69,5.99l9.34,6.4c0,0,5.49-0.04,5.74,2.93c0.25,2.96-5.65,6.37-7.73,0.53
					C68.79,267.81,63.76,266.95,64.02,266.95z"/>
				<linearGradient id="SVGID_53_" gradientUnits="userSpaceOnUse" x1="46.7204" y1="280.3749" x2="51.2634" y2="280.3749">
					<stop  offset="0" style="stop-color:#9F5699"/>
					<stop  offset="1" style="stop-color:#202278"/>
				</linearGradient>
				<path class="st58" d="M47.14,278.92c0,0-0.95,2.82,0,3.12c0.95,0.3,3.08,0.46,3.39,0c0.69-1.03,1.24-2.19-0.03-2.97
					C49.94,278.73,47.41,277.88,47.14,278.92z"/>
			</g>
		</g>
	</g>
	<g>
		<linearGradient id="SVGID_54_" gradientUnits="userSpaceOnUse" x1="535.4504" y1="586.4097" x2="677.5539" y2="992.6798">
			<stop  offset="0" style="stop-color:#2B3582"/>
			<stop  offset="1" style="stop-color:#150E42"/>
		</linearGradient>
		<path class="st59" d="M827.31,756.35l-17.75-156.8l-0.03,0.01c-3.87-53.96-48.84-96.66-103.79-96.66
			c-32.98,0-62.36,15.29-81.43,39.18h-95.38c-19.07-23.89-48.45-39.18-81.43-39.18c-54.95,0-99.92,42.64-103.79,96.6l-0.03,0.01
			l-17.75,156.81c-2.07,18.32,8.11,35.85,25.07,43.1l17.61,7.54c16.47,7.05,35.6,2.77,47.55-10.58l84.1-93.95h152.71l84.1,93.95
			c11.95,13.34,31.08,17.61,47.55,10.56l17.61-7.53C819.2,792.17,829.39,774.67,827.31,756.35z"/>
		<g class="st60">
			<linearGradient id="SVGID_55_" gradientUnits="userSpaceOnUse" x1="380.3643" y1="607.8854" x2="516.2821" y2="607.8854">
				<stop  offset="0" style="stop-color:#5AB6FF"/>
				<stop  offset="1" style="stop-color:#2F68E3"/>
			</linearGradient>
			<circle class="st61" cx="448.32" cy="607.89" r="67.96"/>
		</g>
		<g class="st60">
			<linearGradient id="SVGID_56_" gradientUnits="userSpaceOnUse" x1="642.1068" y1="607.8854" x2="778.0245" y2="607.8854">
				<stop  offset="0" style="stop-color:#5AB6FF"/>
				<stop  offset="1" style="stop-color:#2F68E3"/>
			</linearGradient>
			<circle class="st62" cx="710.07" cy="607.89" r="67.96"/>
		</g>
		<g>
			<g>
				<linearGradient id="SVGID_57_" gradientUnits="userSpaceOnUse" x1="599.6177" y1="710.1466" x2="896.0673" y2="341.5879">
					<stop  offset="0" style="stop-color:#FDF53F"/>
					<stop  offset="0.6645" style="stop-color:#E57A58"/>
					<stop  offset="1" style="stop-color:#D93C65"/>
				</linearGradient>
				<circle class="st63" cx="710.28" cy="572.57" r="15.73"/>
				<linearGradient id="SVGID_58_" gradientUnits="userSpaceOnUse" x1="632.662" y1="736.7258" x2="929.1113" y2="368.1674">
					<stop  offset="0" style="stop-color:#50E7B7"/>
					<stop  offset="0.9964" style="stop-color:#323992"/>
				</linearGradient>
				<circle class="st64" cx="710.28" cy="640.23" r="15.73"/>
			</g>
			<g>
				
					<linearGradient id="SVGID_59_" gradientUnits="userSpaceOnUse" x1="-12.5723" y1="975.3145" x2="-30.3779" y2="1039.4149" gradientTransform="matrix(0 1 -1 0 2051.2354 711.1432)">
					<stop  offset="0" style="stop-color:#FDF53F"/>
					<stop  offset="0.6645" style="stop-color:#E57A58"/>
					<stop  offset="1" style="stop-color:#D93C65"/>
				</linearGradient>
				<circle class="st65" cx="744.11" cy="606.4" r="15.73"/>
				
					<linearGradient id="SVGID_60_" gradientUnits="userSpaceOnUse" x1="-111.486" y1="1383.1727" x2="184.9631" y2="1014.6146" gradientTransform="matrix(0 1 -1 0 2051.2354 711.1432)">
					<stop  offset="0" style="stop-color:#53D8FF"/>
					<stop  offset="1" style="stop-color:#3840F7"/>
				</linearGradient>
				<circle class="st66" cx="676.45" cy="606.4" r="15.73"/>
			</g>
		</g>
		<linearGradient id="SVGID_61_" gradientUnits="userSpaceOnUse" x1="473.2991" y1="556.2713" x2="385.1767" y2="709.017">
			<stop  offset="0" style="stop-color:#2B3582"/>
			<stop  offset="1" style="stop-color:#150E42"/>
		</linearGradient>
		<path class="st67" d="M479.89,599.23h-22.58l-3.09-29.44c-0.32-3.08-2.91-4.68-6.01-4.68h-7.51c-1.66,0-3.26-0.03-4.4,1.18
			c-1.14,1.21-1.73,2.46-1.63,4.12l1.75,28.83h-28.15c-3.34,0-6.64,2.75-6.64,6.09v5.73c0,3.34,3.31,6.1,6.64,6.1h29.22l1.8,30.04
			c0.19,3.19,2.83,5.79,6.03,5.79h10.77c1.71,0,3.34-0.86,4.48-2.13c1.15-1.27,1.7-3,1.53-4.7l-2.96-28.99h20.75
			c3.34,0,4.49-2.77,4.49-6.1v-5.73C484.38,601.98,483.22,599.23,479.89,599.23z"/>
		<g>
			<g class="st68">
				<linearGradient id="SVGID_62_" gradientUnits="userSpaceOnUse" x1="557.5063" y1="574.9023" x2="539.0407" y2="606.9094">
					<stop  offset="0" style="stop-color:#5AB6FF"/>
					<stop  offset="1" style="stop-color:#2F68E3"/>
				</linearGradient>
				<path class="st69" d="M564.57,585.58c0,1.88-1.53,3.41-3.41,3.41h-19.62c-1.88,0-3.41-1.53-3.41-3.41l0,0
					c0-1.88,1.53-3.41,3.41-3.41h19.62C563.04,582.17,564.57,583.7,564.57,585.58L564.57,585.58z"/>
			</g>
			<g class="st68">
				<linearGradient id="SVGID_63_" gradientUnits="userSpaceOnUse" x1="603.5707" y1="574.9023" x2="585.105" y2="606.9094">
					<stop  offset="0" style="stop-color:#5AB6FF"/>
					<stop  offset="1" style="stop-color:#2F68E3"/>
				</linearGradient>
				<path class="st70" d="M610.63,585.58c0,1.88-1.53,3.41-3.41,3.41H587.6c-1.88,0-3.41-1.53-3.41-3.41l0,0
					c0-1.88,1.53-3.41,3.41-3.41h19.62C609.1,582.17,610.63,583.7,610.63,585.58L610.63,585.58z"/>
			</g>
		</g>
	</g>
	<g>
		<g>
			
				<linearGradient id="SVGID_64_" gradientUnits="userSpaceOnUse" x1="3943.8467" y1="759.4838" x2="3960.4287" y2="655.1785" gradientTransform="matrix(-1 0 0 1 4075.9075 0)">
				<stop  offset="0" style="stop-color:#CB236D"/>
				<stop  offset="1" style="stop-color:#4C246D"/>
			</linearGradient>
			<rect x="122.24" y="680.33" class="st71" width="7.67" height="82.97"/>
			
				<linearGradient id="SVGID_65_" gradientUnits="userSpaceOnUse" x1="3950.3721" y1="760.3373" x2="3967.2651" y2="654.0752" gradientTransform="matrix(-1 0 0 1 4075.9075 0)">
				<stop  offset="0" style="stop-color:#CB236D"/>
				<stop  offset="1" style="stop-color:#4C246D"/>
			</linearGradient>
			<path class="st72" d="M92.47,764.89h67.2v-2.14c0-1.58-1.28-2.86-2.86-2.86H95.55c-1.7,0-3.08,1.38-3.08,3.08V764.89z"/>
			
				<linearGradient id="SVGID_66_" gradientUnits="userSpaceOnUse" x1="3936.9219" y1="763.4105" x2="3954.5444" y2="652.559" gradientTransform="matrix(-1 0 0 1 4075.9075 0)">
				<stop  offset="0" style="stop-color:#FDF53F"/>
				<stop  offset="1" style="stop-color:#D93C65"/>
			</linearGradient>
			<path class="st73" d="M79.77,677.27c0,4.82,3.95,8.77,8.77,8.77h72.25c4.82,0,8.77-3.95,8.77-8.77v-7.93
				c0-4.82-3.95-8.77-8.77-8.77H88.54c-4.82,0-8.77,3.95-8.77,8.77V677.27z"/>
		</g>
		<g>
			
				<linearGradient id="SVGID_67_" gradientUnits="userSpaceOnUse" x1="6906.9536" y1="732.6805" x2="6893.4102" y2="759.3154" gradientTransform="matrix(1 0 0 1 -6719.4775 0)">
				<stop  offset="0" style="stop-color:#2B3582"/>
				<stop  offset="1" style="stop-color:#150E42"/>
			</linearGradient>
			<path class="st74" d="M168.8,748.6c0,0,21.91,15.79,18.1,26.4c0,0-23.97-10.34-26.87-18.49c-2.9-8.15,0.49-11.74,0.49-11.74
				L168.8,748.6z"/>
			
				<linearGradient id="SVGID_68_" gradientUnits="userSpaceOnUse" x1="6881.2002" y1="743.28" x2="6894.6914" y2="743.28" gradientTransform="matrix(1 0 0 1 -6719.4775 0)">
				<stop  offset="0" style="stop-color:#F9B776"/>
				<stop  offset="1" style="stop-color:#F47960"/>
			</linearGradient>
			<path class="st75" d="M165.51,735.36l-3.58,10.36c-0.54,1.56,0,3.34,1.4,4.23c0.7,0.44,1.66,0.85,2.96,1.15
				c1.85,0.42,3.75-0.43,4.64-2.11l4.28-8.07L165.51,735.36z"/>
			
				<linearGradient id="SVGID_69_" gradientUnits="userSpaceOnUse" x1="6862.5303" y1="707.5823" x2="6919.8628" y2="627.226" gradientTransform="matrix(1 0 0 1 -6719.4775 0)">
				<stop  offset="0" style="stop-color:#2B3582"/>
				<stop  offset="0.2305" style="stop-color:#252A70"/>
				<stop  offset="0.7285" style="stop-color:#19164F"/>
				<stop  offset="1" style="stop-color:#150E42"/>
			</linearGradient>
			<path class="st76" d="M130.65,642.15c0,0,45,7.8,64.3,25.63c19.3,17.83-17.72,74.71-17.72,74.71s-6.07-0.04-13.42-6.34
				c0,0,21.95-42.78,3.03-55.25c-21.27-14.02-45.78-17.18-45.78-17.18l9.14-20.19L130.65,642.15z"/>
			
				<linearGradient id="SVGID_70_" gradientUnits="userSpaceOnUse" x1="6899.0938" y1="759.6102" x2="6852.144" y2="821.0062" gradientTransform="matrix(1 0 0 1 -6719.4775 0)">
				<stop  offset="0" style="stop-color:#2B3582"/>
				<stop  offset="1" style="stop-color:#150E42"/>
			</linearGradient>
			<path class="st77" d="M183.1,769.13c-4.82-2.23-18.46-11.78-20.76-12.2c-2.3-0.42-6.29,2.28-6.29,2.28s-0.97,1.74,0.07,4.79
				c3.2,3.87,10.31,11.26,19.87,14.01c7.03,2.02,11.95,0.14,15.01-2.07C189.31,773.37,186.31,770.61,183.1,769.13z"/>
			
				<linearGradient id="SVGID_71_" gradientUnits="userSpaceOnUse" x1="6875.5977" y1="772.9073" x2="6911.8755" y2="772.9073" gradientTransform="matrix(1 0 0 1 -6719.4775 0)">
				<stop  offset="0" style="stop-color:#53D8FF"/>
				<stop  offset="1" style="stop-color:#3840F7"/>
			</linearGradient>
			<path class="st78" d="M175.99,778.01c-9.56-2.75-16.67-10.14-19.87-14.01c0.7,2.06,2.32,4.71,5.77,7.81
				c8.57,7.7,24.94,10.48,28.42,9.94c2.79-0.43,2.53-3.01,0.69-5.81C187.94,778.15,183.02,780.03,175.99,778.01z"/>
			
				<linearGradient id="SVGID_72_" gradientUnits="userSpaceOnUse" x1="6871.4443" y1="755.7306" x2="6884.106" y2="755.7306" gradientTransform="matrix(1 0 0 1 -6719.4775 0)">
				<stop  offset="0" style="stop-color:#F9B776"/>
				<stop  offset="1" style="stop-color:#F47960"/>
			</linearGradient>
			<path class="st79" d="M151.97,752.47c0.05,1.33,2.77,5.88,4.35,8.43c0.75,1.21,2.07,1.96,3.5,1.96c0.91,0,1.95-0.08,2.89-0.35
				c1.42-0.41,2.22-1.92,1.8-3.34l-3.1-10.58L151.97,752.47z"/>
			
				<linearGradient id="SVGID_73_" gradientUnits="userSpaceOnUse" x1="6841.8652" y1="747.6248" x2="6845.0254" y2="640.1819" gradientTransform="matrix(1 0 0 1 -6719.4775 0)">
				<stop  offset="0" style="stop-color:#2B3582"/>
				<stop  offset="1" style="stop-color:#150E42"/>
			</linearGradient>
			<path class="st80" d="M87.34,628.64c0,0-9.99,26.72,0,34.85c9.99,8.13,33.83,17.27,39.16,33.46
				c5.33,16.19,14.36,47.64,26.46,58.78c0,0,8.5-0.82,11.68-4.21c0,0-6.89-46.96-11.43-59.01c-3.93-10.43-9.73-25.49-20.84-33.91
				c-3.18-2.41-2.63-6.23-1.15-9.93l2.68-6.75L87.34,628.64z"/>
			<linearGradient id="SVGID_74_" gradientUnits="userSpaceOnUse" x1="226.5865" y1="568.1755" x2="127.2532" y2="646.842">
				<stop  offset="0" style="stop-color:#FDF53F"/>
				<stop  offset="1" style="stop-color:#D93C65"/>
			</linearGradient>
			<path class="st81" d="M191.56,607.7c-16.76,1.01-11.53-25.76-11.23-26.82l-25.43,17.96c0,0,1.35,14.32,22.49,21.82
				c5.35,1.9,10.24,1.98,14.56,1.05C190.1,616.34,190.48,611.52,191.56,607.7z"/>
			
				<linearGradient id="SVGID_75_" gradientUnits="userSpaceOnUse" x1="6910.1343" y1="609.7161" x2="6954.3037" y2="609.7161" gradientTransform="matrix(1 0 0 1 -6719.4775 0)">
				<stop  offset="0" style="stop-color:#F9B776"/>
				<stop  offset="1" style="stop-color:#F47960"/>
			</linearGradient>
			<path class="st82" d="M223.96,599.64c-6.24-4.34-13.32,0-13.32,0c-8.35,5.46-14.52,7.78-19.08,8.06
				c-1.08,3.82-1.46,8.64,0.39,14.02c9.35-2.01,16.04-8.78,18.95-12.25c1.05-1.25,2.9-1.47,4.18-0.46c1.3,1.03,2.56,2.43,2.33,3.91
				c-0.45,2.92,2.93,3.85,3.19,2.79c0.26-1.06-1.16-7.33-1.16-7.33s6.77,6.81,9.42,9.43c2.64,2.62,5.97,0,5.97,0
				S230.2,603.99,223.96,599.64z"/>
			<linearGradient id="SVGID_76_" gradientUnits="userSpaceOnUse" x1="140.1938" y1="573.9742" x2="27.6992" y2="687.9686">
				<stop  offset="0" style="stop-color:#FDF53F"/>
				<stop  offset="1" style="stop-color:#D93C65"/>
			</linearGradient>
			<path class="st83" d="M113.43,539.54c0,0,24.38-9.76,69.74,27.69c0,0,3.79,7.84-0.34,14.82c-4.13,6.98-43.52,41-48.94,59.86
				c0,0-23.47,7.62-47.73-10.46C86.16,631.46,88.3,578.96,113.43,539.54z"/>
			<linearGradient id="SVGID_77_" gradientUnits="userSpaceOnUse" x1="130.6662" y1="568.9078" x2="193.333" y2="522.2412">
				<stop  offset="0" style="stop-color:#F9B776"/>
				<stop  offset="1" style="stop-color:#F47960"/>
			</linearGradient>
			<path class="st84" d="M161.62,530.83l-12,14.55c-1.19,1.44-1.45,3.45-0.63,5.13c1.67,3.4,5.62,8.34,14.38,7.66
				c2.61-0.2,4.92-1.78,6.06-4.13l8.39-17.35L161.62,530.83z"/>
			<linearGradient id="SVGID_78_" gradientUnits="userSpaceOnUse" x1="119.9354" y1="553.9825" x2="7.4408" y2="667.9769">
				<stop  offset="0" style="stop-color:#FDF53F"/>
				<stop  offset="1" style="stop-color:#D93C65"/>
			</linearGradient>
			<path class="st85" d="M94.56,601.84c-2.83-11.52,25.83-37.22,25.83-37.22l-6.96-25.09c0,0-61.89,41.2-46.12,74.34
				c2.26,4.75,5.26,8.08,8.75,10.3C81.04,610.76,88.98,604.61,94.56,601.84z"/>
			<linearGradient id="SVGID_79_" gradientUnits="userSpaceOnUse" x1="139.1281" y1="353.3562" x2="91.1308" y2="695.3387">
				<stop  offset="0" style="stop-color:#FDF53F"/>
				<stop  offset="1" style="stop-color:#D93C65"/>
			</linearGradient>
			<path class="st86" d="M94.54,600.16c-0.3,0-0.58-0.21-0.66-0.52c-2.89-11.78,24.86-36.82,26.04-37.88
				c0.28-0.25,0.71-0.23,0.96,0.05c0.25,0.28,0.23,0.71-0.05,0.96c-0.28,0.25-28.33,25.55-25.63,36.55c0.09,0.36-0.13,0.73-0.5,0.82
				C94.65,600.16,94.59,600.16,94.54,600.16z"/>
			<linearGradient id="SVGID_80_" gradientUnits="userSpaceOnUse" x1="165.9911" y1="516.7858" x2="92.4948" y2="692.2771">
				<stop  offset="0" style="stop-color:#F9B776"/>
				<stop  offset="1" style="stop-color:#F47960"/>
			</linearGradient>
			<path class="st87" d="M137.97,600.85c0,0-33.98,13.19-42.28,3.27c-0.56-0.67-0.93-1.44-1.14-2.28
				c-5.58,2.77-13.52,8.92-18.5,22.34c17.87,11.42,48.43-6.35,56.69-11.59c1.36-0.86,2.99-1.16,4.57-0.84
				c3.19,0.66,8.69,1.63,11.66,1.17c4.34-0.67,10.58,14.65,17.62,9.92C166.58,622.85,160.56,596.22,137.97,600.85z"/>
			<g>
				
					<linearGradient id="SVGID_81_" gradientUnits="userSpaceOnUse" x1="6356.25" y1="58.1698" x2="6353.5835" y2="114.8365" gradientTransform="matrix(0.922 0.3871 -0.3871 0.922 -7200.4116 1243.5432)">
					<stop  offset="0" style="stop-color:#F9B776"/>
					<stop  offset="1" style="stop-color:#F47960"/>
				</linearGradient>
				<path class="st88" d="M191.56,514.09c0,0,0.21,15.84-2.35,23.04c-2.56,7.19-2.96,12.39-11.68,10.39
					c-8.72-2-13.87-8.92-14.64-17.48c0,0-1.28-13.23,1.88-17.1C167.92,509.06,191.56,514.09,191.56,514.09z"/>
				
					<linearGradient id="SVGID_82_" gradientUnits="userSpaceOnUse" x1="6509.4043" y1="-3543.2842" x2="6542.1387" y2="-3501.1384" gradientTransform="matrix(0.922 0.3871 -0.3871 0.922 -7200.4116 1243.5432)">
					<stop  offset="0" style="stop-color:#2B3582"/>
					<stop  offset="1" style="stop-color:#150E42"/>
				</linearGradient>
				<path class="st89" d="M167.77,526.17l1.03,0.43c0,0-0.59-10.46,3.77-10.43c4.36,0.04,20.36,3.22,25.73-0.68
					c5.18-3.75,5.18-11.41,1.86-14.95c-0.21-0.22-0.57-0.23-0.8-0.04l-0.61,0.5c-0.42,0.34-1.04,0-0.97-0.53l0,0
					c0.06-0.51-0.51-0.86-0.93-0.57c-1.63,1.15-5.33,2.59-12.95,0.93c-10.81-2.36-19.14-1.08-22.21,5.78
					c-0.19,0.43-0.77,0.48-1.04,0.09c-0.55-0.76-1.65-1.47-3.79-0.8c-3.73,1.16-5.12,7.64-1.16,15.11c0.19,0.36,0,0.8-0.4,0.87
					c-1.39,0.25-3.74,1.26-0.46,5.3c3.35,4.13,6.02,4.95,7.09,5.11c0.29,0.04,0.56-0.12,0.66-0.4l2.2-6.3
					c0.11-0.33,0.48-0.49,0.8-0.35L167.77,526.17z"/>
				
					<linearGradient id="SVGID_83_" gradientUnits="userSpaceOnUse" x1="6344.418" y1="57.6088" x2="6341.7515" y2="114.2755" gradientTransform="matrix(0.922 0.3871 -0.3871 0.922 -7200.4116 1243.5432)">
					<stop  offset="0" style="stop-color:#F9B776"/>
					<stop  offset="1" style="stop-color:#F47960"/>
				</linearGradient>
				<path class="st90" d="M167.49,527.56c0,0,1.37-9.49-3.48-8.7c-4.84,0.79-2.03,10.42,0.92,12.04L167.49,527.56z"/>
			</g>
		</g>
		<g>
			<g>
				<linearGradient id="SVGID_84_" gradientUnits="userSpaceOnUse" x1="259.1532" y1="575.7271" x2="244.1541" y2="787.2161">
					<stop  offset="0" style="stop-color:#53D8FF"/>
					<stop  offset="1" style="stop-color:#3840F7"/>
				</linearGradient>
				<path class="st91" d="M281.32,779.8c0.39,0,0.8-0.08,1.18-0.24c1.52-0.63,2.22-2.34,1.57-3.81l-62.84-141.43
					c-0.65-1.47-2.42-2.15-3.94-1.52c-1.52,0.63-2.22,2.34-1.57,3.81l62.84,141.43C279.06,779.14,280.16,779.8,281.32,779.8z"/>
				<linearGradient id="SVGID_85_" gradientUnits="userSpaceOnUse" x1="251.2437" y1="575.1661" x2="236.2446" y2="786.6551">
					<stop  offset="0" style="stop-color:#53D8FF"/>
					<stop  offset="1" style="stop-color:#3840F7"/>
				</linearGradient>
				<path class="st92" d="M210.53,779.8c1.16,0,2.27-0.66,2.75-1.76l62.84-141.43c0.65-1.47-0.05-3.18-1.57-3.81
					c-1.52-0.63-3.28,0.05-3.94,1.52l-62.84,141.43c-0.65,1.47,0.05,3.18,1.57,3.81C209.73,779.73,210.13,779.8,210.53,779.8z"/>
				<linearGradient id="SVGID_86_" gradientUnits="userSpaceOnUse" x1="65.6049" y1="562.0002" x2="50.6058" y2="773.4893">
					<stop  offset="0" style="stop-color:#53D8FF"/>
					<stop  offset="1" style="stop-color:#3840F7"/>
				</linearGradient>
				<path class="st93" d="M86.8,779.8c0.4,0,0.8-0.08,1.18-0.24c1.52-0.63,2.22-2.34,1.57-3.81L26.71,634.32
					c-0.65-1.47-2.41-2.15-3.94-1.52c-1.52,0.63-2.22,2.34-1.57,3.81l62.84,141.43C84.54,779.14,85.64,779.8,86.8,779.8z"/>
				<linearGradient id="SVGID_87_" gradientUnits="userSpaceOnUse" x1="57.6958" y1="561.4394" x2="42.6968" y2="772.9284">
					<stop  offset="0" style="stop-color:#53D8FF"/>
					<stop  offset="1" style="stop-color:#3840F7"/>
				</linearGradient>
				<path class="st94" d="M16.01,779.8c1.16,0,2.27-0.66,2.75-1.76L81.6,636.62c0.65-1.47-0.05-3.18-1.57-3.81
					c-1.52-0.63-3.28,0.05-3.94,1.52L13.26,775.75c-0.65,1.47,0.05,3.18,1.57,3.81C15.21,779.73,15.61,779.8,16.01,779.8z"/>
			</g>
			<linearGradient id="SVGID_88_" gradientUnits="userSpaceOnUse" x1="158.8934" y1="568.6168" x2="143.8943" y2="780.1053">
				<stop  offset="0" style="stop-color:#53D8FF"/>
				<stop  offset="1" style="stop-color:#3840F7"/>
			</linearGradient>
			<path class="st95" d="M8.64,629.96c-0.16-0.93,0.06-1.89,0.59-2.62c0.54-0.73,1.34-1.15,2.18-1.15H297.3
				c1.11,0,2.14,0.63,2.74,1.68c0.6,1.05,0.68,2.36,0.21,3.49l-3.1,7.51c-0.71,1.72-2.25,2.82-3.94,2.82H13.37
				c-1.57,0-2.93-1.25-3.22-2.98L8.64,629.96z"/>
		</g>
		<g>
			
				<linearGradient id="SVGID_89_" gradientUnits="userSpaceOnUse" x1="3870.8313" y1="927.9799" x2="3813.3811" y2="943.7255" gradientTransform="matrix(-0.9988 -0.0494 -0.0494 0.9988 4055.3137 -127.7242)">
				<stop  offset="0" style="stop-color:#2B3582"/>
				<stop  offset="1" style="stop-color:#150E42"/>
			</linearGradient>
			<path class="st96" d="M155.38,626.87c0.05,0,0.11,0,0.16,0l71.3-0.08c1.76,0,3.19-1.43,3.19-3.19c0-1.76-1.44-3.22-3.2-3.19
				l-71.3,0.08c-1.76,0-3.19,1.43-3.19,3.19C152.35,625.39,153.7,626.79,155.38,626.87z"/>
			
				<linearGradient id="SVGID_90_" gradientUnits="userSpaceOnUse" x1="3854.866" y1="570.8097" x2="3814.1025" y2="613.8942" gradientTransform="matrix(-1 0 0 1 4075.9075 0)">
				<stop  offset="0" style="stop-color:#2B3582"/>
				<stop  offset="1" style="stop-color:#150E42"/>
			</linearGradient>
			<path class="st97" d="M290.95,562.13h-59.38c-4.38,0-8.37,2.53-10.24,6.49l-27.45,58.21h73.8c2.82,0,5.36-1.72,6.4-4.35
				l21.29-53.87C296.59,565.5,294.3,562.13,290.95,562.13z"/>
			
				<linearGradient id="SVGID_91_" gradientUnits="userSpaceOnUse" x1="3830.2227" y1="581.5375" x2="3811.7268" y2="609.3901" gradientTransform="matrix(-1 0 0 1 4075.9075 0)">
				<stop  offset="0" style="stop-color:#53D8FF"/>
				<stop  offset="1" style="stop-color:#3840F7"/>
			</linearGradient>
			<path class="st98" d="M249.11,591.98c-1.29,4-0.34,7.88,2.12,8.67c2.46,0.79,5.5-1.81,6.78-5.81c1.29-4,0.34-7.88-2.12-8.67
				C253.44,585.38,250.4,587.98,249.11,591.98z"/>
		</g>
	</g>
	<g>
		<linearGradient id="SVGID_92_" gradientUnits="userSpaceOnUse" x1="249.2356" y1="370.3359" x2="480.3321" y2="744.2706">
			<stop  offset="0" style="stop-color:#FDF53F"/>
			<stop  offset="0.7206" style="stop-color:#E3705A"/>
			<stop  offset="1" style="stop-color:#D93C65"/>
		</linearGradient>
		<circle class="st99" cx="290.81" cy="437.6" r="88.78"/>
		<g>
			<linearGradient id="SVGID_93_" gradientUnits="userSpaceOnUse" x1="228.232" y1="437.63" x2="264.9259" y2="437.63">
				<stop  offset="0" style="stop-color:#2B3582"/>
				<stop  offset="1" style="stop-color:#150E42"/>
			</linearGradient>
			<path class="st100" d="M228.23,435.29l36.69-19.13v8.15c0,0.62-0.16,1.18-0.46,1.69c-0.31,0.51-0.82,0.95-1.53,1.32l-16.82,8.62
				c-0.71,0.37-1.46,0.69-2.25,0.95c-0.79,0.26-1.63,0.5-2.52,0.72c0.89,0.22,1.74,0.46,2.52,0.72c0.79,0.26,1.54,0.58,2.25,0.95
				l16.82,8.66c0.71,0.37,1.22,0.81,1.53,1.32c0.31,0.51,0.46,1.07,0.46,1.69v8.16l-36.69-19.18V435.29z"/>
			<linearGradient id="SVGID_94_" gradientUnits="userSpaceOnUse" x1="274.6985" y1="436.6098" x2="312.4587" y2="436.6098">
				<stop  offset="0" style="stop-color:#2B3582"/>
				<stop  offset="1" style="stop-color:#150E42"/>
			</linearGradient>
			<path class="st101" d="M285.63,468.97c-0.28,0.71-0.63,1.33-1.06,1.86c-0.43,0.52-0.93,0.97-1.48,1.32
				c-0.56,0.35-1.14,0.63-1.76,0.81c-0.62,0.19-1.22,0.28-1.81,0.28h-4.82l27.06-69.22c0.52-1.3,1.28-2.29,2.27-2.99
				c0.99-0.7,2.18-1.04,3.57-1.04h4.87L285.63,468.97z"/>
			<linearGradient id="SVGID_95_" gradientUnits="userSpaceOnUse" x1="322.002" y1="437.63" x2="358.6944" y2="437.63">
				<stop  offset="0" style="stop-color:#2B3582"/>
				<stop  offset="1" style="stop-color:#150E42"/>
			</linearGradient>
			<path class="st102" d="M322,459.1v-8.16c0-0.62,0.15-1.18,0.46-1.69c0.31-0.51,0.82-0.95,1.53-1.32l16.82-8.66
				c1.36-0.68,2.95-1.24,4.77-1.67c-0.9-0.22-1.74-0.45-2.52-0.72c-0.79-0.26-1.54-0.58-2.25-0.95l-16.82-8.62
				c-0.71-0.37-1.22-0.81-1.53-1.32c-0.31-0.51-0.46-1.07-0.46-1.69v-8.15l36.69,19.13v4.63L322,459.1z"/>
		</g>
	</g>
	<g>
		<g>
			<linearGradient id="SVGID_96_" gradientUnits="userSpaceOnUse" x1="628.4246" y1="635.7269" x2="629.8" y2="611.4286">
				<stop  offset="0" style="stop-color:#A737D5"/>
				<stop  offset="1" style="stop-color:#EF497A"/>
			</linearGradient>
			<path class="st103" d="M610.62,606.19c-0.19,0.36-12.23,9.22-12.23,9.22s2.66,19.02,13.46,26.54c11.87,8.26,28.64-6.8,28.64-6.8
				s13.34,3.17,20.44-24.6c1.63-6.37-7.77-6.91-19.11-5.74C627.19,606.32,610.62,606.19,610.62,606.19z"/>
			<linearGradient id="SVGID_97_" gradientUnits="userSpaceOnUse" x1="628.9222" y1="692.9598" x2="628.9222" y2="859.2189">
				<stop  offset="0" style="stop-color:#FDF53F"/>
				<stop  offset="1" style="stop-color:#D93C65"/>
			</linearGradient>
			<path class="st104" d="M588.11,671.1c4.71-3.24,9.92-5.68,15.44-7.18c2.07-0.56,13.27,2.69,20.2,2.53
				c9.5-0.22,19.18-4.54,27.01-2.59c7.78,1.94,14.15,4.47,17.83,7.09c11.01,7.83,17.47,22.42,21.41,36.88
				c-7.46,7.65-16.84,11.06-16.84,11.06l-1.73,70.28l-41.56,21.26l-47.43-23.81l1.7-68.68c0,0-15.06-7.01-16.17-9.57
				C566.85,705.81,574.82,680.23,588.11,671.1z"/>
			<linearGradient id="SVGID_98_" gradientUnits="userSpaceOnUse" x1="558.3474" y1="693.0095" x2="637.3155" y2="883.7635">
				<stop  offset="0" style="stop-color:#F9B776"/>
				<stop  offset="1" style="stop-color:#F47960"/>
			</linearGradient>
			<path class="st105" d="M568.66,708.05c0,0-20.18,55.96,25.84,78.96c9.56-1.27,5.88-17.14,5.88-17.14s-20-4.43-13.99-51.1
				C580.86,714.21,568.66,708.05,568.66,708.05z"/>
			
				<linearGradient id="SVGID_99_" gradientUnits="userSpaceOnUse" x1="-7745.6553" y1="692.5994" x2="-7666.687" y2="883.3536" gradientTransform="matrix(-1 0 0 1 -7047.3159 0)">
				<stop  offset="0" style="stop-color:#F9B776"/>
				<stop  offset="1" style="stop-color:#F47960"/>
			</linearGradient>
			<path class="st106" d="M689.02,708.05c0,0,13.89,58.41-25.84,78.96c-9.56-1.27-5.88-17.14-5.88-17.14s16.12-7.94,13.99-51.1
				C676.82,714.21,689.02,708.05,689.02,708.05z"/>
			<linearGradient id="SVGID_100_" gradientUnits="userSpaceOnUse" x1="628.4912" y1="717.7089" x2="624.3909" y2="883.7769">
				<stop  offset="0" style="stop-color:#2B3582"/>
				<stop  offset="1" style="stop-color:#150E42"/>
			</linearGradient>
			<path class="st107" d="M668.95,790.94h-83.02c-2.23,0-4.05-1.82-4.05-4.05v-53.43c0-2.23,1.82-4.05,4.05-4.05h83.02
				c2.23,0,4.05,1.82,4.05,4.05v53.43C673.01,789.12,671.18,790.94,668.95,790.94z"/>
			<g>
				
					<linearGradient id="SVGID_101_" gradientUnits="userSpaceOnUse" x1="682.3475" y1="784.5389" x2="725.5008" y2="784.5389" gradientTransform="matrix(1 7.700000e-03 -7.700000e-03 1 -0.4184 27.9026)">
					<stop  offset="0" style="stop-color:#2C759E"/>
					<stop  offset="1" style="stop-color:#051042"/>
				</linearGradient>
				<path class="st108" d="M712.98,809.18c-10.43-2.39-34.53-1.11-34.53-1.11l-0.98,2.66l-1.62,13.2c0,0,22.95,4.14,34.27,4.13
					c1.15,0,2.21-0.17,3.17-0.47c0.34-0.31,0.68-0.63,1-0.98C719.09,821.36,717.7,813.66,712.98,809.18z"/>
				
					<linearGradient id="SVGID_102_" gradientUnits="userSpaceOnUse" x1="730.8002" y1="785.0744" x2="692.9105" y2="784.6197" gradientTransform="matrix(1 7.700000e-03 -7.700000e-03 1 -0.4184 27.9026)">
					<stop  offset="0" style="stop-color:#53EAC9"/>
					<stop  offset="0.9964" style="stop-color:#45AED8"/>
				</linearGradient>
				<path class="st109" d="M714.01,809.45c-0.33-0.09-0.67-0.18-1.03-0.26c4.72,4.47,6.11,12.18,1.31,17.42
					c-0.32,0.35-0.66,0.67-1,0.98C721.77,824.94,722.78,811.91,714.01,809.45z"/>
				<linearGradient id="SVGID_103_" gradientUnits="userSpaceOnUse" x1="704.3708" y1="739.8886" x2="658.8196" y2="863.2689">
					<stop  offset="0" style="stop-color:#F9B776"/>
					<stop  offset="1" style="stop-color:#F47960"/>
				</linearGradient>
				<path class="st110" d="M671.52,807.33l4.08,0.17c2.19,0.09,4.26,1.16,5.73,2.96c1.47,1.8,2.23,4.19,2.1,6.62
					c-0.1,1.94-0.9,3.75-2.21,5.03c-1.31,1.29-3.03,1.94-4.78,1.81l-6.24-0.44L671.52,807.33z"/>
			</g>
			<g>
				
					<linearGradient id="SVGID_104_" gradientUnits="userSpaceOnUse" x1="-8307.2227" y1="731.3847" x2="-8264.0508" y2="731.3847" gradientTransform="matrix(-0.9998 -0.02 -0.02 0.9998 -7719.7759 -79.9003)">
					<stop  offset="0" style="stop-color:#2C759E"/>
					<stop  offset="1" style="stop-color:#051042"/>
				</linearGradient>
				<path class="st111" d="M534.28,807.92c10.48-2.07,34.55-0.05,34.55-0.05l0.91,2.68l1.29,13.24c0,0-23.05,3.43-34.36,3.07
					c-1.15-0.04-2.21-0.24-3.16-0.57c-0.34-0.32-0.67-0.65-0.98-1.01C527.87,819.9,529.45,812.24,534.28,807.92z"/>
				
					<linearGradient id="SVGID_105_" gradientUnits="userSpaceOnUse" x1="-8258.7637" y1="731.8876" x2="-8296.5293" y2="731.4344" gradientTransform="matrix(-0.9998 -0.02 -0.02 0.9998 -7719.7759 -79.9003)">
					<stop  offset="0" style="stop-color:#53EAC9"/>
					<stop  offset="0.9964" style="stop-color:#45AED8"/>
				</linearGradient>
				<path class="st112" d="M533.24,808.15c0.33-0.08,0.68-0.16,1.04-0.23c-4.83,4.33-6.41,11.98-1.74,17.37
					c0.31,0.36,0.64,0.69,0.98,1.01C525.09,823.4,524.41,810.34,533.24,808.15z"/>
				<linearGradient id="SVGID_106_" gradientUnits="userSpaceOnUse" x1="613.108" y1="702.7075" x2="567.5327" y2="826.1531">
					<stop  offset="0" style="stop-color:#F9B776"/>
					<stop  offset="1" style="stop-color:#F47960"/>
				</linearGradient>
				<path class="st113" d="M575.77,807.34l-4.08,0.05c-2.19,0.03-4.29,1.03-5.81,2.79c-1.52,1.76-2.34,4.12-2.27,6.55
					c0.05,1.94,0.8,3.78,2.08,5.1c1.28,1.33,2.98,2.03,4.73,1.96l6.25-0.25L575.77,807.34z"/>
			</g>
			<linearGradient id="SVGID_107_" gradientUnits="userSpaceOnUse" x1="723.678" y1="737.5069" x2="605.2614" y2="826.4609">
				<stop  offset="0" style="stop-color:#CB236D"/>
				<stop  offset="1" style="stop-color:#4C246D"/>
			</linearGradient>
			<path class="st114" d="M715.89,767.81c-4.73-10.89-16.3-12.65-26.14-7.56c-0.17,0.23-62.52,32.18-117.51,46.19
				c1.57,5.05,2.38,10.42,2.56,15.69c0.03,1.18,0.01,2.34-0.06,3.48c42.17-2.17,87.93-16.23,127.25-28.59
				C714.19,793.09,721.13,779.88,715.89,767.81z"/>
			<linearGradient id="SVGID_108_" gradientUnits="userSpaceOnUse" x1="616.5931" y1="817.2899" x2="585.5577" y2="738.1498">
				<stop  offset="0" style="stop-color:#CB236D"/>
				<stop  offset="1" style="stop-color:#4C246D"/>
			</linearGradient>
			<path class="st115" d="M671.82,822.96c-0.16-6.08,1.02-11.75,3.55-16.99c0.07-0.24,0.16-0.47,0.24-0.71
				c-3.14-0.97-7.2-2.29-12.53-4.1c-39.05-13.36-68.83-26.85-97.26-42.39c-11.04-6.03-23.6-1.99-27.14,11.08
				c-3.16,11.67,3.77,21.63,14.29,25.13c31.47,10.47,15.08,7.56,25.36,10.87c27.6,8.54,61.95,16.31,93.55,18.43
				C671.86,823.84,671.83,823.4,671.82,822.96z"/>
			<linearGradient id="SVGID_109_" gradientUnits="userSpaceOnUse" x1="627.6701" y1="708.7596" x2="626.6193" y2="617.3405">
				<stop  offset="0" style="stop-color:#F9B776"/>
				<stop  offset="1" style="stop-color:#F47960"/>
			</linearGradient>
			<path class="st116" d="M603.55,663.91c0,0,4.2,18.2,24.59,17.82c20.77-0.38,22.62-17.88,22.62-17.88l-13.56-2.9l-1.13-15.11
				l-20.4,1.51l-0.38,14.36L603.55,663.91z"/>
			
				<linearGradient id="SVGID_110_" gradientUnits="userSpaceOnUse" x1="728.3998" y1="-31.5528" x2="731.6729" y2="-111.1034" gradientTransform="matrix(0.987 0.1608 -0.1608 0.987 -99.3806 572.0292)">
				<stop  offset="0" style="stop-color:#F9B776"/>
				<stop  offset="1" style="stop-color:#F47960"/>
			</linearGradient>
			<path class="st117" d="M618.52,603.01c0,0-23.38,45.29,4.35,56.28c19.56,7.75,31.83-30.08,28.17-40.33
				c-5.66-15.84-9.38-13.96-9.38-13.96L618.52,603.01z"/>
			<linearGradient id="SVGID_111_" gradientUnits="userSpaceOnUse" x1="642.0135" y1="560.3895" x2="632.7298" y2="597.1808">
				<stop  offset="0" style="stop-color:#A737D5"/>
				<stop  offset="1" style="stop-color:#EF497A"/>
			</linearGradient>
			<path class="st118" d="M656.67,598.89c11.55,3.18,1.68,28.23-15.71,22.3c-17.39-5.92-24.23-5.84-26.94-1.06
				c-2.71,4.78-3.29,21.74-9.17,13.35c-6.45-9.19-10.04-27.64-2.14-33.58c7.06-5.31,8.71-13.55,17.19-13.27
				c11.25,0.38,19.94-4.61,25.02-1.01C650.75,589.75,648.17,596.56,656.67,598.89z"/>
			
				<linearGradient id="SVGID_112_" gradientUnits="userSpaceOnUse" x1="332.4377" y1="1141.8621" x2="337.5669" y2="1017.1987" gradientTransform="matrix(0.9911 -0.1329 0.1329 0.9911 132.7727 -419.1468)">
				<stop  offset="0" style="stop-color:#F9B776"/>
				<stop  offset="1" style="stop-color:#F47960"/>
			</linearGradient>
			<path class="st119" d="M612.95,624.03c0,0-4.99-5.37-5.79,1.1c-0.8,6.47,1.76,14.8,4.77,10.23
				C614.94,630.8,612.95,624.03,612.95,624.03z"/>
		</g>
		<linearGradient id="SVGID_113_" gradientUnits="userSpaceOnUse" x1="628.0296" y1="704.9418" x2="625.3758" y2="831.9391">
			<stop  offset="0" style="stop-color:#53D8FF"/>
			<stop  offset="1" style="stop-color:#3840F7"/>
		</linearGradient>
		<path class="st120" d="M632.82,746.06c0.48,3.26-1.27,6.23-4.53,6.71s-6.3-1.77-6.79-5.04s1.01-6.51,4.28-6.99
			C629.04,740.27,632.33,742.8,632.82,746.06z"/>
	</g>
</g>
</svg>