<svg width="305" height="219" viewBox="0 0 305 219" fill="none" xmlns="http://www.w3.org/2000/svg">
<g clip-path="url(#clip0)">
<path d="M261.846 91.4408C266.05 96.0689 270.74 96.8074 275.916 93.6563C273.744 90.0021 273.227 86.0273 273.806 81.8403H263.722C264.169 85.5197 264.048 88.9457 261.846 91.4408Z" fill="#FFB8B8"/>
<path d="M278.495 212.554L283.889 209.601L286.234 178.337V161.844L273.805 161.598L277.322 178.091L278.495 212.554Z" fill="#FFB8B8"/>
<path d="M262.86 212.554L257.466 209.601L255.121 178.337V161.844L267.55 161.598L264.032 178.091L262.86 212.554Z" fill="#FFB8B8"/>
<path d="M254.575 165.291L267.708 164.06L269.819 151.505L272.398 163.814L286.704 162.829C287.016 156.848 286.222 150.692 284.358 144.367L252.934 143.628L254.575 165.291Z" fill="#2F2E41"/>
<path d="M240.926 118.142L225.129 105.373C224.965 105.24 224.785 105.132 224.593 105.05L222.297 104.069C220.453 103.282 216.94 100.662 218.653 97.9645C220.034 95.7897 225.322 99.6856 225.972 101.129C226.178 101.583 226.515 101.958 226.935 102.198L230.145 104.045C230.224 104.09 230.304 104.13 230.387 104.165L242.609 109.365C242.948 109.51 243.315 109.567 243.679 109.532C244.043 109.498 244.394 109.373 244.702 109.167L246.918 107.692C247.234 107.482 247.593 107.356 247.965 107.325C248.337 107.294 248.711 107.358 249.054 107.512C249.397 107.667 249.699 107.907 249.934 108.211C250.169 108.516 250.33 108.876 250.403 109.26L251.135 113.14C251.24 113.699 251.154 114.279 250.891 114.777C250.629 115.275 250.206 115.66 249.699 115.863L243.146 118.485C242.779 118.631 242.382 118.677 241.994 118.617C241.605 118.557 241.238 118.393 240.926 118.142Z" fill="#FFB8B8"/>
<path d="M243.859 108.838C248.233 107.607 247.774 114.021 251.111 117.175L257.672 111.738L253.871 92.4255C252.852 92.7313 251.914 93.2818 251.132 94.0335C250.35 94.7852 249.745 95.7175 249.365 96.7567L243.859 108.838Z" fill="#4452FE"/>
<path d="M251.996 144.859H285.063C279.711 129.721 280.232 114.152 284.789 98.2866C284.865 98.0232 284.852 97.74 284.751 97.486C284.65 97.2319 284.467 97.0228 284.235 96.8947L274.744 91.687C271.018 94.2317 267.014 93.4497 262.784 89.9639L252.465 92.9179C255.274 110.627 255.354 127.972 251.996 144.859Z" fill="#4452FE"/>
<path d="M260.263 218.336L246.483 218.95C245.883 218.976 245.295 218.769 244.832 218.368C244.368 217.967 244.063 217.4 243.974 216.776C243.884 216.146 244.022 215.504 244.36 214.976C244.698 214.447 245.212 214.07 245.801 213.918L248.138 213.317L257.325 207.728C258.686 209.207 260.56 210.458 262.851 211.523L262.878 215.453C262.883 216.195 262.613 216.911 262.125 217.449C261.638 217.987 260.97 218.305 260.263 218.336Z" fill="#2F2E41"/>
<path d="M304.864 219H0.111328V218.209H305L304.864 219Z" fill="#3F3D56"/>
<path d="M280.978 218.117L294.758 218.73C295.358 218.756 295.946 218.549 296.409 218.148C296.873 217.747 297.178 217.18 297.267 216.556C297.357 215.927 297.219 215.285 296.881 214.756C296.543 214.227 296.029 213.85 295.44 213.698L293.103 213.097L283.916 207.508C282.555 208.987 280.681 210.238 278.39 211.303L278.363 215.233C278.358 215.975 278.628 216.691 279.116 217.229C279.603 217.767 280.271 218.085 280.978 218.117Z" fill="#2F2E41"/>
<path d="M267.708 86.2715C271.852 86.2715 275.212 82.7447 275.212 78.3942C275.212 74.0436 271.852 70.5168 267.708 70.5168C263.563 70.5168 260.203 74.0436 260.203 78.3942C260.203 82.7447 263.563 86.2715 267.708 86.2715Z" fill="#FFB8B8"/>
<path d="M279.435 142.397L276.955 147.458C276.737 147.904 276.61 148.394 276.585 148.896C276.559 149.397 276.635 149.898 276.808 150.367C276.98 150.835 277.245 151.26 277.585 151.613C277.925 151.967 278.332 152.241 278.78 152.417C279.254 152.604 279.762 152.676 280.266 152.63C280.77 152.584 281.259 152.419 281.694 152.149C282.13 151.878 282.503 151.509 282.785 151.068C283.067 150.626 283.252 150.124 283.325 149.599L284.359 142.151L288.112 123.442L287.877 114.088H280.373C282.932 121.046 281.663 131.308 279.435 142.397Z" fill="#FFB8B8"/>
<path d="M279.199 115.073H289.283L287.82 103.464C287.621 101.89 287.05 100.393 286.159 99.1094C285.268 97.8262 284.084 96.7977 282.717 96.1179L279.199 115.073Z" fill="#4452FE"/>
<path d="M275.686 74.0551C275.836 73.0028 275.773 71.9292 275.501 70.9041C275.23 69.8791 274.755 68.9257 274.109 68.106C272.829 66.5156 270.682 65.2139 267.122 65.828C259.353 67.1678 257.113 73.9563 257.874 75.6635C258.635 77.3707 260.968 81.3282 260.968 81.3282C260.968 81.3282 259.256 77.4107 261.114 76.6133C262.973 75.8159 270.164 72.6745 272.674 74.0897C273.384 74.4642 273.988 75.0296 274.422 75.7284C274.857 76.4272 275.107 77.2344 275.148 78.0679L275.686 74.0551Z" fill="#2F2E41"/>
<path d="M147.242 41.272L144.224 42.8791C140.749 35.6959 136.145 29.1792 130.605 23.6028C103.401 -3.84944 59.9928 -2.95192 33.84 25.6035C7.68715 54.159 8.5422 99.7245 35.746 127.177C40.9236 132.412 46.8553 136.758 53.3224 140.054L51.8465 143.249C41.5957 138.025 32.6764 130.315 25.8255 120.756C18.9746 111.198 14.3888 100.066 12.447 88.2791C10.5051 76.4926 11.263 64.3902 14.6579 52.9719C18.0529 41.5536 23.9875 31.1472 31.9714 22.6124C39.9553 14.0776 49.7593 7.6594 60.5735 3.88818C71.3876 0.116952 82.9014 -0.899085 94.1635 0.924011C105.426 2.74711 116.113 7.357 125.342 14.3728C134.572 21.3886 142.078 30.609 147.242 41.272Z" fill="#E6E6E6"/>
<path d="M45.1629 107.344C40.7248 112.189 38.3024 118.687 38.4285 125.408C38.5546 132.128 41.2189 138.521 45.8353 143.18C50.4517 147.838 56.642 150.381 63.0444 150.248C69.4469 150.116 75.537 147.319 79.975 142.474L84.1318 137.935L49.3196 102.805L45.1629 107.344Z" fill="#E6E6E6"/>
<path d="M46.9881 100.227C46.0002 101.308 45.4612 102.757 45.4893 104.254C45.5174 105.752 46.1103 107.177 47.138 108.216L79.0676 140.437C80.0967 141.476 81.4767 142.043 82.904 142.013C84.3313 141.984 85.689 141.36 86.6784 140.28C87.6677 139.2 88.2078 137.751 88.1796 136.253C88.1515 134.755 87.5576 133.33 86.5285 132.291L54.5988 100.07C53.5689 99.033 52.1893 98.4672 50.7625 98.4967C49.3357 98.5262 47.9783 99.1486 46.9881 100.227Z" fill="#535461"/>
<path d="M142.754 73.9286L146.91 69.39C151.348 64.5443 153.771 58.0464 153.645 51.3259C153.519 44.6053 150.854 38.2126 146.238 33.5541C143.952 31.2474 141.256 29.4359 138.303 28.223C135.35 27.0101 132.199 26.4196 129.029 26.4851C122.626 26.6175 116.536 29.4142 112.098 34.2599L107.941 38.7986L142.754 73.9286Z" fill="#E6E6E6"/>
<path d="M105.396 36.4536C104.408 37.5347 103.869 38.9829 103.898 40.4806C103.926 41.9783 104.519 43.4031 105.546 44.4425L137.476 76.6637C138.505 77.701 139.885 78.2668 141.311 78.2368C142.738 78.2067 144.095 77.5833 145.084 76.5036C146.073 75.4238 146.613 73.9761 146.585 72.4785C146.558 70.981 145.965 69.5563 144.937 68.5174L113.007 36.2962C111.977 35.2593 110.597 34.6935 109.171 34.723C107.744 34.7525 106.386 35.3749 105.396 36.4536Z" fill="#535461"/>
<path d="M118.865 110.916V108.298C118.865 108.298 129.748 101.872 138.591 108.298V110.678L118.865 110.916Z" fill="#535461"/>
<path d="M217.945 110.916V108.298C217.945 108.298 228.828 101.872 237.671 108.298V110.678L217.945 110.916Z" fill="#535461"/>
<path d="M151.514 110.678H140.857C140.857 110.678 138.136 107.346 129.067 107.584C119.998 107.822 118.184 110.678 118.184 110.678C118.184 110.678 109.228 116.985 107.188 124.839C107.188 124.839 96.1915 159.467 95.9647 186.598C95.738 213.73 105.714 217.538 110.929 218.252C116.144 218.966 125.44 218.014 134.509 193.976L138.363 179.935C138.363 179.935 139.043 171.605 147.206 176.841C155.368 182.077 162.623 173.985 162.623 173.985H193.232C193.232 173.985 203.435 180.649 212.73 175.413C212.73 175.413 216.358 170.415 219.759 187.312C219.759 187.312 230.189 222.06 246.286 218.49C262.384 214.92 260.57 185.884 260.57 185.884C260.57 185.884 258.417 141.498 249.574 125.791C249.574 125.791 241.072 109.488 235.403 108.774C235.403 108.774 223.16 106.394 218.399 108.536L215.678 110.916L151.514 110.678Z" fill="#4452FE" fill-opacity="0.53"/>
<path d="M126.8 154.707C137.694 154.707 146.525 145.437 146.525 134.002C146.525 122.566 137.694 113.296 126.8 113.296C115.906 113.296 107.074 122.566 107.074 134.002C107.074 145.437 115.906 154.707 126.8 154.707Z" fill="#535461"/>
<path d="M229.735 154.707C240.629 154.707 249.461 145.437 249.461 134.002C249.461 122.566 240.629 113.296 229.735 113.296C218.841 113.296 210.01 122.566 210.01 134.002C210.01 145.437 218.841 154.707 229.735 154.707Z" fill="#535461"/>
<path d="M130.237 129.385L127.607 131.826C127.384 132.032 127.097 132.146 126.801 132.146C126.504 132.146 126.217 132.032 125.995 131.826L123.36 129.385C123.231 129.266 123.128 129.119 123.057 128.955C122.985 128.791 122.948 128.613 122.947 128.433V121.714C122.948 121.375 123.077 121.05 123.305 120.81C123.534 120.571 123.844 120.436 124.167 120.436H129.439C129.761 120.435 130.071 120.569 130.3 120.809C130.529 121.048 130.658 121.373 130.658 121.712V128.428C130.657 128.61 130.619 128.789 130.546 128.954C130.473 129.119 130.368 129.266 130.237 129.385Z" fill="#E6E6E6"/>
<path d="M130.237 138.616L127.607 136.177C127.384 135.971 127.097 135.858 126.801 135.858C126.504 135.858 126.217 135.971 125.995 136.177L123.36 138.619C123.231 138.738 123.128 138.884 123.057 139.049C122.985 139.213 122.948 139.391 122.947 139.571V146.282C122.947 146.621 123.074 146.947 123.302 147.187C123.53 147.427 123.84 147.562 124.163 147.563H129.439C129.761 147.563 130.071 147.429 130.3 147.19C130.529 146.951 130.658 146.626 130.658 146.287V139.573C130.657 139.391 130.619 139.212 130.546 139.047C130.473 138.882 130.368 138.735 130.237 138.616Z" fill="#E6E6E6"/>
<path d="M122.403 137.614L124.729 134.849C124.925 134.615 125.033 134.314 125.033 134.003C125.033 133.691 124.925 133.39 124.729 133.157L122.403 130.391C122.289 130.256 122.15 130.148 121.994 130.073C121.837 129.998 121.668 129.959 121.496 129.958H115.102C114.779 129.959 114.47 130.094 114.241 130.334C114.013 130.574 113.885 130.899 113.885 131.238V136.772C113.884 137.111 114.012 137.436 114.24 137.676C114.468 137.916 114.777 138.052 115.1 138.052H121.498C121.67 138.05 121.839 138.01 121.995 137.935C122.151 137.859 122.29 137.75 122.403 137.614Z" fill="#E6E6E6"/>
<path d="M131.199 137.614L128.877 134.847C128.681 134.613 128.572 134.312 128.572 134.001C128.572 133.689 128.681 133.388 128.877 133.154L131.203 130.389C131.317 130.254 131.457 130.145 131.613 130.071C131.769 129.996 131.939 129.957 132.11 129.956H138.504C138.827 129.955 139.137 130.089 139.366 130.328C139.595 130.568 139.723 130.893 139.724 131.231V136.77C139.725 137.109 139.597 137.434 139.369 137.674C139.141 137.914 138.832 138.049 138.509 138.05H132.113C131.94 138.05 131.769 138.011 131.611 137.936C131.454 137.861 131.313 137.751 131.199 137.614Z" fill="#E6E6E6"/>
<path d="M153.554 171.605C161.442 171.605 167.837 164.892 167.837 156.611C167.837 148.33 161.442 141.617 153.554 141.617C145.665 141.617 139.27 148.33 139.27 156.611C139.27 164.892 145.665 171.605 153.554 171.605Z" fill="#535461"/>
<path d="M202.981 171.605C210.87 171.605 217.265 164.892 217.265 156.611C217.265 148.33 210.87 141.617 202.981 141.617C195.092 141.617 188.697 148.33 188.697 156.611C188.697 164.892 195.092 171.605 202.981 171.605Z" fill="#535461"/>
<path d="M153.554 166.607C158.813 166.607 163.077 162.132 163.077 156.611C163.077 151.091 158.813 146.615 153.554 146.615C148.295 146.615 144.031 151.091 144.031 156.611C144.031 162.132 148.295 166.607 153.554 166.607Z" fill="#E6E6E6"/>
<path d="M153.554 163.513C152.253 163.513 150.982 163.108 149.901 162.35C148.819 161.591 147.977 160.513 147.479 159.252C146.981 157.991 146.851 156.603 147.105 155.265C147.359 153.926 147.985 152.696 148.904 151.731C149.824 150.765 150.995 150.108 152.271 149.842C153.546 149.576 154.868 149.712 156.07 150.235C157.271 150.757 158.298 151.642 159.021 152.777C159.743 153.912 160.129 155.246 160.129 156.611C160.127 158.441 159.433 160.195 158.201 161.489C156.968 162.783 155.297 163.511 153.554 163.513ZM153.554 150.185C152.343 150.185 151.159 150.562 150.153 151.268C149.146 151.974 148.361 152.978 147.898 154.152C147.435 155.326 147.313 156.618 147.55 157.865C147.786 159.111 148.369 160.256 149.225 161.155C150.081 162.054 151.172 162.666 152.359 162.913C153.547 163.161 154.778 163.034 155.896 162.548C157.015 162.061 157.971 161.238 158.644 160.181C159.316 159.124 159.675 157.882 159.675 156.611C159.674 154.907 159.028 153.274 157.88 152.069C156.733 150.865 155.177 150.187 153.554 150.185Z" fill="#535461"/>
<path d="M202.982 166.607C208.241 166.607 212.504 162.132 212.504 156.611C212.504 151.091 208.241 146.615 202.982 146.615C197.722 146.615 193.459 151.091 193.459 156.611C193.459 162.132 197.722 166.607 202.982 166.607Z" fill="#E6E6E6"/>
<path d="M202.981 163.513C201.681 163.513 200.41 163.108 199.328 162.35C198.247 161.591 197.404 160.513 196.907 159.252C196.409 157.991 196.279 156.603 196.533 155.265C196.786 153.926 197.413 152.696 198.332 151.731C199.252 150.765 200.423 150.108 201.699 149.842C202.974 149.576 204.296 149.712 205.498 150.235C206.699 150.757 207.726 151.642 208.448 152.777C209.171 153.912 209.557 155.246 209.557 156.611C209.555 158.441 208.861 160.195 207.629 161.489C206.396 162.783 204.725 163.511 202.981 163.513ZM202.981 150.185C201.771 150.185 200.587 150.562 199.58 151.268C198.574 151.974 197.789 152.978 197.326 154.152C196.862 155.326 196.741 156.618 196.977 157.865C197.214 159.111 197.797 160.256 198.653 161.155C199.509 162.054 200.6 162.666 201.787 162.913C202.975 163.161 204.205 163.034 205.324 162.548C206.443 162.061 207.399 161.238 208.071 160.181C208.744 159.124 209.103 157.882 209.103 156.611C209.101 154.907 208.456 153.274 207.308 152.069C206.16 150.865 204.604 150.187 202.981 150.185Z" fill="#535461"/>
<path d="M178.722 162.561C180.976 162.561 182.803 160.643 182.803 158.277C182.803 155.911 180.976 153.993 178.722 153.993C176.468 153.993 174.641 155.911 174.641 158.277C174.641 160.643 176.468 162.561 178.722 162.561Z" fill="#535461"/>
<path d="M172.485 144.914C172.977 144.914 173.376 144.495 173.376 143.978C173.376 143.462 172.977 143.043 172.485 143.043C171.993 143.043 171.594 143.462 171.594 143.978C171.594 144.495 171.993 144.914 172.485 144.914Z" fill="#535461"/>
<path d="M175.821 144.914C176.313 144.914 176.712 144.495 176.712 143.978C176.712 143.462 176.313 143.043 175.821 143.043C175.329 143.043 174.93 143.462 174.93 143.978C174.93 144.495 175.329 144.914 175.821 144.914Z" fill="#535461"/>
<path d="M175.377 149.352C175.869 149.352 176.268 148.934 176.268 148.417C176.268 147.9 175.869 147.482 175.377 147.482C174.885 147.482 174.486 147.9 174.486 148.417C174.486 148.934 174.885 149.352 175.377 149.352Z" fill="#535461"/>
<path d="M178.495 149.471C178.996 149.471 179.402 149.045 179.402 148.519C179.402 147.994 178.996 147.567 178.495 147.567C177.994 147.567 177.588 147.994 177.588 148.519C177.588 149.045 177.994 149.471 178.495 149.471Z" fill="#535461"/>
<path d="M181.608 149.352C182.1 149.352 182.499 148.934 182.499 148.417C182.499 147.9 182.1 147.482 181.608 147.482C181.116 147.482 180.717 147.9 180.717 148.417C180.717 148.934 181.116 149.352 181.608 149.352Z" fill="#535461"/>
<path d="M174.041 147.251C174.534 147.251 174.933 146.832 174.933 146.315C174.933 145.799 174.534 145.38 174.041 145.38C173.549 145.38 173.15 145.799 173.15 146.315C173.15 146.832 173.549 147.251 174.041 147.251Z" fill="#535461"/>
<path d="M176.907 147.329C177.408 147.329 177.814 146.903 177.814 146.377C177.814 145.852 177.408 145.425 176.907 145.425C176.406 145.425 176 145.852 176 146.377C176 146.903 176.406 147.329 176.907 147.329Z" fill="#535461"/>
<path d="M179.854 147.329C180.355 147.329 180.761 146.903 180.761 146.377C180.761 145.852 180.355 145.425 179.854 145.425C179.353 145.425 178.947 145.852 178.947 146.377C178.947 146.903 179.353 147.329 179.854 147.329Z" fill="#535461"/>
<path d="M182.944 147.251C183.436 147.251 183.835 146.832 183.835 146.315C183.835 145.799 183.436 145.38 182.944 145.38C182.452 145.38 182.053 145.799 182.053 146.315C182.053 146.832 182.452 147.251 182.944 147.251Z" fill="#535461"/>
<path d="M178.495 144.949C178.996 144.949 179.402 144.523 179.402 143.997C179.402 143.472 178.996 143.045 178.495 143.045C177.994 143.045 177.588 143.472 177.588 143.997C177.588 144.523 177.994 144.949 178.495 144.949Z" fill="#535461"/>
<path d="M181.669 144.949C182.169 144.949 182.576 144.523 182.576 143.997C182.576 143.472 182.169 143.045 181.669 143.045C181.168 143.045 180.762 143.472 180.762 143.997C180.762 144.523 181.168 144.949 181.669 144.949Z" fill="#535461"/>
<path d="M184.278 144.914C184.77 144.914 185.169 144.495 185.169 143.978C185.169 143.462 184.77 143.043 184.278 143.043C183.786 143.043 183.387 143.462 183.387 143.978C183.387 144.495 183.786 144.914 184.278 144.914Z" fill="#535461"/>
<path d="M144.826 112.707C144.407 112.707 144.005 112.882 143.708 113.193C143.411 113.505 143.245 113.927 143.244 114.367V119.365C143.245 119.805 143.411 120.227 143.708 120.539C144.005 120.85 144.407 121.025 144.826 121.026H145.96C146.379 121.025 146.781 120.85 147.078 120.539C147.374 120.227 147.541 119.805 147.542 119.365V114.367C147.541 113.927 147.374 113.505 147.078 113.193C146.781 112.882 146.379 112.707 145.96 112.707H144.826Z" fill="#535461"/>
<path d="M211.029 112.707C210.61 112.707 210.208 112.882 209.911 113.193C209.614 113.505 209.448 113.927 209.447 114.367V119.365C209.448 119.805 209.614 120.227 209.911 120.539C210.208 120.85 210.61 121.025 211.029 121.026H212.163C212.582 121.025 212.984 120.85 213.281 120.539C213.577 120.227 213.744 119.805 213.745 119.365V114.367C213.744 113.927 213.577 113.505 213.281 113.193C212.984 112.882 212.582 112.707 212.163 112.707H211.029Z" fill="#535461"/>
<path d="M229.963 127.1C232.968 127.1 235.404 124.543 235.404 121.388C235.404 118.233 232.968 115.676 229.963 115.676C226.958 115.676 224.521 118.233 224.521 121.388C224.521 124.543 226.958 127.1 229.963 127.1Z" fill="#E6E6E6"/>
<path d="M218.399 139.237C221.404 139.237 223.84 136.68 223.84 133.526C223.84 130.371 221.404 127.814 218.399 127.814C215.393 127.814 212.957 130.371 212.957 133.526C212.957 136.68 215.393 139.237 218.399 139.237Z" fill="#E6E6E6"/>
<path d="M241.979 138.524C244.984 138.524 247.42 135.966 247.42 132.812C247.42 129.657 244.984 127.1 241.979 127.1C238.973 127.1 236.537 129.657 236.537 132.812C236.537 135.966 238.973 138.524 241.979 138.524Z" fill="#E6E6E6"/>
<path d="M230.869 151.137C233.875 151.137 236.311 148.58 236.311 145.425C236.311 142.271 233.875 139.714 230.869 139.714C227.864 139.714 225.428 142.271 225.428 145.425C225.428 148.58 227.864 151.137 230.869 151.137Z" fill="#E6E6E6"/>
<path d="M155.084 109.375C153.868 109.376 152.703 109.884 151.843 110.786C150.983 111.689 150.499 112.912 150.498 114.189V135.489C150.499 136.765 150.983 137.989 151.843 138.892C152.703 139.794 153.868 140.302 155.084 140.303H201.677C202.893 140.302 204.059 139.794 204.918 138.892C205.778 137.989 206.262 136.765 206.263 135.489V114.189C206.262 112.912 205.778 111.689 204.918 110.786C204.059 109.884 202.893 109.376 201.677 109.375H155.084Z" fill="#535461"/>
<path d="M233.658 124.006H226.279L229.842 117.596L233.658 124.006ZM227.069 123.53H232.84L229.855 118.516L227.069 123.53Z" fill="#535461"/>
<path d="M221.46 136.382H215.338V130.67H221.46V136.382ZM215.791 135.906H221.006V131.146H215.791V135.906Z" fill="#535461"/>
<path d="M241.979 136.382C241.306 136.382 240.649 136.172 240.09 135.78C239.53 135.388 239.094 134.83 238.837 134.178C238.58 133.525 238.512 132.808 238.643 132.115C238.775 131.423 239.099 130.787 239.574 130.287C240.05 129.788 240.656 129.448 241.316 129.31C241.975 129.173 242.659 129.243 243.281 129.513C243.902 129.784 244.433 130.241 244.807 130.828C245.181 131.415 245.38 132.106 245.38 132.812C245.379 133.758 245.02 134.665 244.383 135.335C243.745 136.004 242.881 136.38 241.979 136.382ZM241.979 129.718C241.396 129.718 240.826 129.899 240.342 130.239C239.857 130.579 239.479 131.062 239.256 131.628C239.033 132.193 238.974 132.815 239.088 133.415C239.202 134.015 239.483 134.567 239.895 134.999C240.307 135.432 240.832 135.727 241.404 135.846C241.976 135.965 242.568 135.904 243.107 135.67C243.646 135.436 244.106 135.039 244.43 134.53C244.754 134.022 244.927 133.424 244.927 132.812C244.926 131.991 244.615 131.205 244.062 130.625C243.51 130.045 242.761 129.719 241.979 129.718Z" fill="#535461"/>
<path d="M228.422 142.58L228.102 142.916L233.203 148.271L233.524 147.935L228.422 142.58Z" fill="#535461"/>
<path d="M233.32 142.576L228.105 147.812L228.419 148.156L233.633 142.92L233.32 142.576Z" fill="#535461"/>
<path d="M48.1951 54.9909C35.8157 58.5734 22.2597 61.2702 17.4023 57.0864C20.0618 52.4391 21.5957 47.8585 21.7258 43.3611C21.7551 41.3033 22.5491 39.339 23.9385 37.8869C24.8583 36.9542 25.9685 36.2538 27.1848 35.8389C28.4011 35.424 29.6915 35.3056 30.9579 35.4926L34.1707 35.9659C34.2789 35.9818 34.3864 35.9999 34.4935 36.0201C36.0355 36.3268 37.4474 37.1327 38.5309 38.3246C39.6144 39.5166 40.315 41.0348 40.5345 42.6661C41.2114 47.5428 43.4876 51.7646 48.1951 54.9909Z" fill="#2F2E41"/>
<path d="M60.1359 101.257L64.9485 102.299C65.3161 102.379 65.6622 102.543 65.9617 102.781C66.2612 103.018 66.5065 103.323 66.6799 103.672C66.8533 104.021 66.9504 104.407 66.9641 104.801C66.9778 105.194 66.9079 105.586 66.7593 105.948C66.6157 106.298 66.4022 106.611 66.1331 106.866C65.8641 107.121 65.5458 107.313 65.2 107.428C64.8542 107.542 64.4889 107.578 64.1289 107.531C63.7689 107.485 63.4227 107.357 63.1138 107.158L55.7521 102.405L43.248 71.5499L49.7245 69.5835L60.1359 101.257Z" fill="#A0616A"/>
<path d="M25.8535 141.745L22.2095 142.857L19.4512 136.878L22.2561 135.344L25.8535 141.745Z" fill="#A0616A"/>
<path d="M24.0023 167.365L19.5312 166.123L20.2312 158.06L24.0789 158.308L24.0023 167.365Z" fill="#A0616A"/>
<path d="M24.4665 136.155L19.7311 139.427L1.51808 117.802C1.12302 117.333 0.831287 116.778 0.663641 116.177C0.495994 115.576 0.456554 114.944 0.548119 114.325C0.639683 113.707 0.860006 113.117 1.19341 112.598C1.52682 112.079 1.96512 111.643 2.47713 111.322L25.166 97.0911L28.6411 107.57L16.8269 119.207L24.4665 136.155Z" fill="#2F2E41"/>
<path d="M28.4548 147.475C28.4429 147.491 28.431 147.507 28.419 147.523C28.1164 149.383 27.5849 151.08 26.3978 152.309C26.0459 153.142 25.4139 153.81 24.6227 154.185C23.8314 154.56 22.9362 154.616 22.1081 154.342C21.327 154.084 20.6557 153.549 20.2089 152.829C19.7621 152.109 19.5676 151.248 19.6586 150.393L20.5435 142.091C22.6661 141.579 24.2851 140.312 25.1045 137.847L27.1674 139.322C27.7779 139.755 28.2979 140.314 28.6958 140.965C29.0936 141.615 29.3609 142.345 29.4814 143.108C29.6019 143.871 29.573 144.651 29.3964 145.402C29.2199 146.153 28.8995 146.858 28.4548 147.475Z" fill="#2F2E41"/>
<path d="M30.7007 53.2131C34.7261 53.2131 37.9893 49.7877 37.9893 45.5623C37.9893 41.337 34.7261 37.9116 30.7007 37.9116C26.6753 37.9116 23.4121 41.337 23.4121 45.5623C23.4121 49.7877 26.6753 53.2131 30.7007 53.2131Z" fill="#A0616A"/>
<path d="M37.0123 57.7926L25.5219 67.7817L24.627 63.6699L26.6325 60.4608C27.1891 57.3123 26.8298 53.8403 25.8734 50.1575L33.37 50.1647C33.6937 53.1408 34.7975 55.7371 37.0123 57.7926Z" fill="#A0616A"/>
<path d="M40.2476 83.9951L24.7355 88.9551L23.5287 83.1638C20.6216 79.0666 19.3579 75.327 21.2598 72.276L20.3027 67.6832C23.0482 65.4142 25.2071 63.0926 26.3926 60.6839L35.9367 56.7693L42.9528 57.2224L45.0247 64.5104L40.2476 83.9951Z" fill="#4452FE"/>
<path d="M51.2679 70.3985C47.9613 70.3617 44.7252 71.4025 42.0059 73.3774L42.9528 57.2224C43.914 57.3571 44.8252 57.7522 45.5968 58.3688C46.3683 58.9854 46.9737 59.8022 47.3533 60.7389L51.2679 70.3985Z" fill="#4452FE"/>
<path d="M24.4196 160.238L19.4961 158.966L20.2208 115.052L26.8321 107.453L25.3522 97.8183L24.3945 87.0252L40.5439 82.8218C46.0024 93.2255 49.3016 102.684 44.4857 108.593L24.4196 160.238Z" fill="#2F2E41"/>
<path d="M23.2885 175.065C23.2664 175.074 23.2443 175.083 23.2222 175.092C21.7925 176.834 20.2217 178.255 18.2468 178.755C17.3806 179.392 16.3209 179.673 15.2701 179.543C14.2193 179.412 13.2511 178.88 12.5503 178.048C11.8893 177.263 11.5087 176.262 11.4734 175.215C11.4381 174.168 11.7504 173.141 12.3569 172.309L18.2514 164.224C20.7744 165.09 23.2233 164.835 25.5548 162.802L26.8257 165.702C27.2039 166.557 27.4122 167.484 27.4379 168.426C27.4636 169.368 27.3061 170.306 26.9751 171.182C26.6441 172.058 26.1465 172.854 25.5126 173.522C24.8788 174.189 24.122 174.714 23.2885 175.065Z" fill="#2F2E41"/>
<path d="M5.30202 106.539L0.980482 110.423C0.621865 110.746 0.346565 111.158 0.180105 111.621C0.0136448 112.085 -0.0385895 112.586 0.0282427 113.076C0.0950749 113.567 0.278812 114.032 0.562421 114.428C0.84603 114.824 1.22033 115.139 1.65063 115.342C2.2984 115.649 3.03303 115.687 3.706 115.447C4.37897 115.207 4.94008 114.708 5.2759 114.05L8.40098 107.932L22.7325 80.4793L17.3424 79.4158L5.30202 106.539Z" fill="#A0616A"/>
<path d="M23.5955 81.2503C20.7963 80.3633 18.1742 79.841 16.1406 80.5304C16.5669 74.9933 17.4455 70.0469 20.3015 67.6831L24.3614 68.1838L23.5955 81.2503Z" fill="#4452FE"/>
<path d="M38.8369 43.7882L23.248 42.7814L23.4399 39.5087C28.8816 35.6571 34.0779 35.9927 39.0288 40.5156L38.8369 43.7882Z" fill="#2F2E41"/>
</g>
<defs>
<clipPath id="clip0">
<rect width="305" height="219" fill="white"/>
</clipPath>
</defs>
</svg>
