<svg width="379" height="259" viewBox="0 0 379 259" fill="none" xmlns="http://www.w3.org/2000/svg">
<g id="undraw_video_game_night_8h8m 1" clip-path="url(#clip0)">
<path id="Vector" d="M325.017 108.142C330.227 113.616 336.04 114.489 342.455 110.763C339.763 106.441 339.122 101.74 339.839 96.7885H327.342C327.896 101.14 327.747 105.192 325.017 108.142Z" fill="#FFB8B8"/>
<path id="Vector_2" d="M345.653 251.377L352.338 247.884L355.244 210.911V191.405L339.84 191.114L344.199 210.62L345.653 251.377Z" fill="#FFB8B8"/>
<path id="Vector_3" d="M326.274 251.377L319.59 247.884L316.684 210.911V191.405L332.087 191.114L327.728 210.62L326.274 251.377Z" fill="#FFB8B8"/>
<path id="Vector_4" d="M316.006 195.481L332.282 194.025L334.898 179.178L338.095 193.734L355.824 192.57C356.212 185.496 355.228 178.215 352.918 170.735L313.972 169.862L316.006 195.481Z" fill="#2F2E41"/>
<path id="Vector_5" d="M299.089 139.72L279.511 124.619C279.308 124.462 279.085 124.334 278.847 124.237L276.001 123.077C273.716 122.146 269.362 119.048 271.486 115.857C273.197 113.285 279.75 117.893 280.556 119.6C280.811 120.137 281.229 120.58 281.75 120.865L285.728 123.049C285.825 123.102 285.925 123.149 286.027 123.191L301.175 129.341C301.595 129.511 302.049 129.579 302.501 129.538C302.952 129.497 303.387 129.349 303.769 129.106L306.516 127.362C306.907 127.114 307.352 126.965 307.813 126.928C308.274 126.891 308.738 126.967 309.163 127.149C309.588 127.332 309.962 127.616 310.254 127.976C310.545 128.336 310.744 128.762 310.834 129.217L311.742 133.805C311.872 134.466 311.765 135.151 311.44 135.741C311.114 136.33 310.591 136.785 309.962 137.025L301.841 140.125C301.386 140.299 300.894 140.353 300.412 140.282C299.931 140.211 299.475 140.018 299.089 139.72Z" fill="#FFB8B8"/>
<path id="Vector_6" d="M302.727 128.718C308.147 127.262 307.578 134.847 311.714 138.577L319.845 132.147L315.135 109.307C313.871 109.669 312.709 110.32 311.74 111.209C310.771 112.097 310.021 113.2 309.551 114.429L302.727 128.718Z" fill="#4452FE"/>
<path id="Vector_7" d="M312.81 171.317H353.79C347.158 153.415 347.804 135.002 353.451 116.238C353.546 115.927 353.529 115.592 353.404 115.292C353.278 114.991 353.052 114.744 352.765 114.592L341.002 108.434C336.385 111.443 331.422 110.518 326.179 106.396L313.391 109.889C316.872 130.832 316.971 151.346 312.81 171.317Z" fill="#4452FE"/>
<path id="Vector_8" d="M323.057 258.215L305.979 258.94C305.235 258.972 304.506 258.727 303.932 258.252C303.358 257.778 302.979 257.107 302.869 256.37C302.758 255.625 302.928 254.866 303.347 254.24C303.766 253.615 304.403 253.169 305.133 252.99L308.03 252.279L319.415 245.668C321.102 247.418 323.424 248.897 326.264 250.157L326.297 254.805C326.303 255.683 325.969 256.529 325.365 257.165C324.76 257.801 323.933 258.178 323.057 258.215Z" fill="#2F2E41"/>
<path id="Vector_9" d="M378.331 259H0.637695V258.065H378.5L378.331 259Z" fill="#3F3D56"/>
<path id="Vector_10" d="M348.729 257.955L365.807 258.68C366.551 258.712 367.28 258.467 367.854 257.992C368.428 257.518 368.806 256.847 368.916 256.11C369.028 255.365 368.857 254.606 368.438 253.981C368.019 253.355 367.382 252.909 366.652 252.73L363.756 252.019L352.37 245.409C350.684 247.158 348.361 248.638 345.522 249.897L345.488 254.545C345.482 255.423 345.816 256.269 346.421 256.906C347.025 257.542 347.853 257.918 348.729 257.955Z" fill="#2F2E41"/>
<path id="Vector_11" d="M332.283 102.029C337.42 102.029 341.584 97.8577 341.584 92.7126C341.584 87.5674 337.42 83.3965 332.283 83.3965C327.146 83.3965 322.982 87.5674 322.982 92.7126C322.982 97.8577 327.146 102.029 332.283 102.029Z" fill="#FFB8B8"/>
<path id="Vector_12" d="M346.815 168.406L343.742 174.39C343.471 174.918 343.315 175.498 343.283 176.091C343.252 176.684 343.346 177.277 343.559 177.831C343.773 178.385 344.101 178.888 344.522 179.305C344.944 179.723 345.448 180.047 346.004 180.256C346.591 180.476 347.221 180.562 347.846 180.508C348.471 180.453 349.076 180.258 349.616 179.939C350.156 179.619 350.618 179.182 350.968 178.66C351.317 178.138 351.546 177.544 351.636 176.922L352.919 168.115L357.569 145.989L357.278 134.926H347.978C351.15 143.154 349.576 155.291 346.815 168.406Z" fill="#FFB8B8"/>
<path id="Vector_13" d="M346.524 136.091H359.022L357.208 122.362C356.962 120.5 356.254 118.729 355.15 117.212C354.045 115.694 352.579 114.478 350.884 113.674L346.524 136.091Z" fill="#4452FE"/>
<path id="Vector_14" d="M342.17 87.5812C342.356 86.3367 342.278 85.067 341.941 83.8547C341.605 82.6425 341.017 81.5149 340.216 80.5455C338.629 78.6647 335.969 77.1252 331.556 77.8514C321.928 79.436 319.152 87.4644 320.095 89.4834C321.039 91.5025 323.93 96.1828 323.93 96.1828C323.93 96.1828 321.808 91.5497 324.111 90.6067C326.414 89.6636 335.326 85.9485 338.437 87.6221C339.318 88.065 340.065 88.7337 340.604 89.5602C341.143 90.3866 341.453 91.3413 341.504 92.327L342.17 87.5812Z" fill="#2F2E41"/>
<path id="Vector_15" d="M182.984 48.8093L179.244 50.7098C174.937 42.2147 169.231 34.5077 162.366 27.9128C128.651 -4.5536 74.8526 -3.49214 42.4402 30.2789C10.0279 64.05 11.0876 117.938 44.8024 150.404C51.2193 156.596 58.5707 161.735 66.5857 165.633L64.7565 169.413C52.0522 163.234 40.9981 154.116 32.5075 142.811C24.0169 131.507 18.3335 118.341 15.9269 104.402C13.5203 90.4628 14.4595 76.1499 18.6671 62.6461C22.8746 49.1423 30.2296 36.8351 40.1244 26.7414C50.0192 16.6477 62.1698 9.05732 75.5722 4.59729C88.9746 0.137257 103.244 -1.06436 117.202 1.09172C131.16 3.24781 144.405 8.69969 155.843 16.9969C167.281 25.2942 176.585 36.1986 182.984 48.8093Z" fill="#E6E6E6"/>
<path id="Vector_16" d="M56.4731 126.95C50.9728 132.681 47.9706 140.365 48.1269 148.313C48.2832 156.261 51.5852 163.822 57.3065 169.331C63.0278 174.84 70.6997 177.848 78.6345 177.691C86.5693 177.535 94.1171 174.227 99.6173 168.496L104.769 163.129L61.6247 121.582L56.4731 126.95Z" fill="#E6E6E6"/>
<path id="Vector_17" d="M58.7338 118.534C57.5095 119.812 56.8415 121.525 56.8763 123.296C56.9111 125.067 57.646 126.752 58.9196 127.982L98.4913 166.088C99.7668 167.316 101.477 167.987 103.246 167.952C105.015 167.917 106.698 167.179 107.924 165.902C109.15 164.624 109.819 162.911 109.784 161.139C109.749 159.367 109.013 157.682 107.738 156.454L68.1661 118.347C66.8897 117.121 65.1798 116.452 63.4115 116.487C61.6432 116.522 59.961 117.258 58.7338 118.534Z" fill="#535461"/>
<path id="Vector_18" d="M177.421 87.4315L182.572 82.0639C188.072 76.3331 191.075 68.6484 190.918 60.7004C190.762 52.7524 187.46 45.192 181.739 39.6826C178.906 36.9547 175.564 34.8123 171.905 33.3779C168.245 31.9435 164.34 31.2451 160.411 31.3226C152.476 31.4791 144.928 34.7866 139.428 40.5174L134.276 45.885L177.421 87.4315Z" fill="#E6E6E6"/>
<path id="Vector_19" d="M131.121 43.1118C129.897 44.3903 129.229 46.1031 129.264 47.8743C129.299 49.6456 130.034 51.3306 131.307 52.5599L170.879 90.6662C172.155 91.893 173.865 92.5621 175.633 92.5266C177.401 92.4911 179.082 91.7538 180.308 90.4768C181.534 89.1999 182.203 87.4877 182.169 85.7166C182.134 83.9456 181.4 82.2606 180.126 81.0321L140.554 42.9257C139.277 41.6994 137.568 41.0303 135.799 41.0651C134.031 41.1 132.349 41.8361 131.121 43.1118Z" fill="#535461"/>
<path id="Vector_20" d="M147.814 131.175V128.079C147.814 128.079 161.302 120.479 172.261 128.079V130.893L147.814 131.175Z" fill="#535461"/>
<path id="Vector_21" d="M270.609 131.175V128.079C270.609 128.079 284.097 120.479 295.056 128.079V130.893L270.609 131.175Z" fill="#535461"/>
<path id="Vector_22" d="M188.277 130.893H175.071C175.071 130.893 171.699 126.953 160.459 127.234C149.219 127.516 146.971 130.893 146.971 130.893C146.971 130.893 135.872 138.352 133.343 147.641C133.343 147.641 119.714 188.594 119.433 220.68C119.152 252.767 131.516 257.271 137.979 258.115C144.442 258.96 155.963 257.834 167.203 229.406L171.98 212.799C171.98 212.799 172.823 202.948 182.939 209.14C193.054 215.333 202.046 205.763 202.046 205.763H239.981C239.981 205.763 252.626 213.644 264.146 207.452C264.146 207.452 268.642 201.541 272.857 221.525C272.857 221.525 285.783 262.619 305.734 258.397C325.685 254.175 323.437 219.836 323.437 219.836C323.437 219.836 320.767 167.343 309.808 148.766C309.808 148.766 299.271 129.486 292.246 128.642C292.246 128.642 277.072 125.827 271.171 128.36L267.799 131.175L188.277 130.893Z" fill="#E6E6E6"/>
<path id="Vector_23" d="M157.649 182.964C171.15 182.964 182.095 172.001 182.095 158.477C182.095 144.953 171.15 133.99 157.649 133.99C144.147 133.99 133.202 144.953 133.202 158.477C133.202 172.001 144.147 182.964 157.649 182.964Z" fill="#535461"/>
<path id="Vector_24" d="M285.221 182.964C298.723 182.964 309.668 172.001 309.668 158.477C309.668 144.953 298.723 133.99 285.221 133.99C271.72 133.99 260.774 144.953 260.774 158.477C260.774 172.001 271.72 182.964 285.221 182.964Z" fill="#535461"/>
<path id="Vector_25" d="M161.909 153.016L158.649 155.904C158.373 156.148 158.018 156.282 157.651 156.282C157.283 156.282 156.928 156.148 156.652 155.904L153.386 153.016C153.227 152.875 153.099 152.702 153.01 152.508C152.922 152.314 152.876 152.104 152.875 151.891V143.945C152.876 143.544 153.035 143.159 153.319 142.876C153.602 142.593 153.986 142.433 154.387 142.433H160.92C161.32 142.433 161.704 142.591 161.988 142.874C162.271 143.157 162.431 143.541 162.432 143.942V151.885C162.43 152.1 162.382 152.312 162.292 152.507C162.202 152.702 162.071 152.876 161.909 153.016Z" fill="#E6E6E6"/>
<path id="Vector_26" d="M161.909 163.934L158.649 161.049C158.373 160.806 158.018 160.672 157.651 160.672C157.283 160.672 156.928 160.806 156.652 161.049L153.386 163.937C153.227 164.078 153.099 164.251 153.01 164.445C152.922 164.639 152.876 164.85 152.875 165.063V173C152.874 173.401 153.033 173.786 153.315 174.07C153.597 174.354 153.981 174.514 154.381 174.515H160.92C161.32 174.515 161.704 174.357 161.988 174.074C162.271 173.791 162.431 173.407 162.432 173.006V165.066C162.43 164.851 162.382 164.639 162.292 164.444C162.202 164.249 162.071 164.075 161.909 163.934Z" fill="#E6E6E6"/>
<path id="Vector_27" d="M152.201 162.75L155.084 159.479C155.327 159.202 155.461 158.847 155.461 158.478C155.461 158.11 155.327 157.754 155.084 157.478L152.201 154.207C152.06 154.047 151.887 153.919 151.693 153.831C151.5 153.742 151.289 153.696 151.077 153.695H143.153C142.752 153.696 142.368 153.855 142.085 154.139C141.802 154.423 141.644 154.808 141.644 155.209V161.753C141.643 162.154 141.801 162.539 142.084 162.823C142.366 163.107 142.749 163.267 143.15 163.267H151.079C151.292 163.265 151.502 163.218 151.695 163.129C151.889 163.039 152.061 162.91 152.201 162.75Z" fill="#E6E6E6"/>
<path id="Vector_28" d="M163.1 162.75L160.223 159.476C159.979 159.2 159.845 158.844 159.845 158.475C159.845 158.107 159.979 157.751 160.223 157.475L163.106 154.204C163.246 154.044 163.419 153.916 163.613 153.828C163.807 153.739 164.017 153.693 164.23 153.692H172.154C172.554 153.691 172.938 153.85 173.222 154.133C173.505 154.416 173.665 154.8 173.666 155.201V161.75C173.666 162.151 173.508 162.536 173.226 162.82C172.943 163.104 172.56 163.264 172.159 163.265H164.233C164.018 163.264 163.806 163.218 163.611 163.129C163.416 163.041 163.241 162.911 163.1 162.75Z" fill="#E6E6E6"/>
<path id="Vector_29" d="M190.807 202.948C200.584 202.948 208.51 195.009 208.51 185.216C208.51 175.423 200.584 167.484 190.807 167.484C181.03 167.484 173.104 175.423 173.104 185.216C173.104 195.009 181.03 202.948 190.807 202.948Z" fill="#535461"/>
<path id="Vector_30" d="M252.064 202.948C261.841 202.948 269.767 195.009 269.767 185.216C269.767 175.423 261.841 167.484 252.064 167.484C242.287 167.484 234.361 175.423 234.361 185.216C234.361 195.009 242.287 202.948 252.064 202.948Z" fill="#535461"/>
<path id="Vector_31" d="M190.807 197.038C197.325 197.038 202.609 191.745 202.609 185.216C202.609 178.687 197.325 173.395 190.807 173.395C184.289 173.395 179.005 178.687 179.005 185.216C179.005 191.745 184.289 197.038 190.807 197.038Z" fill="#E6E6E6"/>
<path id="Vector_32" d="M190.806 193.378C189.194 193.378 187.619 192.9 186.279 192.003C184.939 191.106 183.894 189.831 183.278 188.34C182.661 186.848 182.499 185.207 182.814 183.624C183.128 182.04 183.904 180.586 185.044 179.444C186.184 178.303 187.636 177.525 189.216 177.21C190.797 176.895 192.436 177.057 193.925 177.675C195.414 178.293 196.686 179.339 197.582 180.681C198.477 182.023 198.955 183.602 198.955 185.216C198.953 187.38 198.093 189.455 196.566 190.985C195.038 192.515 192.967 193.376 190.806 193.378ZM190.806 177.616C189.306 177.616 187.839 178.062 186.591 178.897C185.343 179.732 184.371 180.919 183.797 182.308C183.223 183.696 183.072 185.224 183.365 186.699C183.658 188.173 184.38 189.527 185.441 190.59C186.502 191.652 187.854 192.376 189.326 192.669C190.798 192.963 192.323 192.812 193.709 192.237C195.096 191.662 196.281 190.688 197.114 189.438C197.948 188.188 198.393 186.719 198.393 185.216C198.391 183.201 197.591 181.269 196.168 179.845C194.746 178.42 192.818 177.619 190.806 177.616Z" fill="#535461"/>
<path id="Vector_33" d="M252.064 197.038C258.582 197.038 263.865 191.745 263.865 185.216C263.865 178.687 258.582 173.395 252.064 173.395C245.546 173.395 240.262 178.687 240.262 185.216C240.262 191.745 245.546 197.038 252.064 197.038Z" fill="#E6E6E6"/>
<path id="Vector_34" d="M252.064 193.378C250.452 193.378 248.877 192.9 247.537 192.003C246.197 191.106 245.152 189.831 244.535 188.34C243.919 186.848 243.757 185.207 244.072 183.624C244.386 182.04 245.162 180.586 246.302 179.444C247.441 178.303 248.893 177.525 250.474 177.21C252.055 176.895 253.693 177.057 255.182 177.675C256.671 178.293 257.944 179.339 258.839 180.681C259.735 182.023 260.213 183.602 260.213 185.216C260.21 187.38 259.351 189.455 257.823 190.985C256.296 192.515 254.224 193.376 252.064 193.378ZM252.064 177.616C250.563 177.616 249.097 178.062 247.849 178.897C246.601 179.732 245.629 180.919 245.055 182.308C244.48 183.696 244.33 185.224 244.623 186.699C244.916 188.173 245.638 189.527 246.699 190.59C247.76 191.652 249.112 192.376 250.584 192.669C252.055 192.963 253.581 192.812 254.967 192.237C256.354 191.662 257.539 190.688 258.372 189.438C259.206 188.188 259.651 186.719 259.651 185.216C259.649 183.201 258.848 181.269 257.426 179.845C256.004 178.42 254.075 177.619 252.064 177.616Z" fill="#535461"/>
<path id="Vector_35" d="M221.997 192.253C224.791 192.253 227.055 189.984 227.055 187.186C227.055 184.388 224.791 182.12 221.997 182.12C219.204 182.12 216.939 184.388 216.939 187.186C216.939 189.984 219.204 192.253 221.997 192.253Z" fill="#535461"/>
<path id="Vector_36" d="M214.267 171.382C214.877 171.382 215.372 170.887 215.372 170.276C215.372 169.665 214.877 169.17 214.267 169.17C213.658 169.17 213.163 169.665 213.163 170.276C213.163 170.887 213.658 171.382 214.267 171.382Z" fill="#535461"/>
<path id="Vector_37" d="M218.403 171.382C219.013 171.382 219.507 170.887 219.507 170.276C219.507 169.665 219.013 169.17 218.403 169.17C217.793 169.17 217.299 169.665 217.299 170.276C217.299 170.887 217.793 171.382 218.403 171.382Z" fill="#535461"/>
<path id="Vector_38" d="M217.852 176.631C218.462 176.631 218.957 176.136 218.957 175.525C218.957 174.914 218.462 174.419 217.852 174.419C217.242 174.419 216.748 174.914 216.748 175.525C216.748 176.136 217.242 176.631 217.852 176.631Z" fill="#535461"/>
<path id="Vector_39" d="M221.717 176.772C222.338 176.772 222.841 176.268 222.841 175.646C222.841 175.024 222.338 174.52 221.717 174.52C221.096 174.52 220.593 175.024 220.593 175.646C220.593 176.268 221.096 176.772 221.717 176.772Z" fill="#535461"/>
<path id="Vector_40" d="M225.574 176.631C226.184 176.631 226.678 176.136 226.678 175.525C226.678 174.914 226.184 174.419 225.574 174.419C224.964 174.419 224.47 174.914 224.47 175.525C224.47 176.136 224.964 176.631 225.574 176.631Z" fill="#535461"/>
<path id="Vector_41" d="M216.198 174.146C216.808 174.146 217.302 173.651 217.302 173.04C217.302 172.429 216.808 171.934 216.198 171.934C215.588 171.934 215.094 172.429 215.094 173.04C215.094 173.651 215.588 174.146 216.198 174.146Z" fill="#535461"/>
<path id="Vector_42" d="M219.749 174.239C220.37 174.239 220.873 173.735 220.873 173.113C220.873 172.491 220.37 171.987 219.749 171.987C219.128 171.987 218.625 172.491 218.625 173.113C218.625 173.735 219.128 174.239 219.749 174.239Z" fill="#535461"/>
<path id="Vector_43" d="M223.402 174.239C224.023 174.239 224.526 173.735 224.526 173.113C224.526 172.491 224.023 171.987 223.402 171.987C222.782 171.987 222.278 172.491 222.278 173.113C222.278 173.735 222.782 174.239 223.402 174.239Z" fill="#535461"/>
<path id="Vector_44" d="M227.229 174.146C227.839 174.146 228.334 173.651 228.334 173.04C228.334 172.429 227.839 171.934 227.229 171.934C226.619 171.934 226.125 172.429 226.125 173.04C226.125 173.651 226.619 174.146 227.229 174.146Z" fill="#535461"/>
<path id="Vector_45" d="M221.717 171.424C222.338 171.424 222.841 170.92 222.841 170.298C222.841 169.677 222.338 169.173 221.717 169.173C221.096 169.173 220.593 169.677 220.593 170.298C220.593 170.92 221.096 171.424 221.717 171.424Z" fill="#535461"/>
<path id="Vector_46" d="M225.65 171.424C226.271 171.424 226.774 170.92 226.774 170.298C226.774 169.677 226.271 169.173 225.65 169.173C225.03 169.173 224.526 169.677 224.526 170.298C224.526 170.92 225.03 171.424 225.65 171.424Z" fill="#535461"/>
<path id="Vector_47" d="M228.885 171.382C229.494 171.382 229.989 170.887 229.989 170.276C229.989 169.665 229.494 169.17 228.885 169.17C228.275 169.17 227.78 169.665 227.78 170.276C227.78 170.887 228.275 171.382 228.885 171.382Z" fill="#535461"/>
<path id="Vector_48" d="M179.988 133.292C179.468 133.293 178.97 133.5 178.602 133.868C178.235 134.236 178.028 134.735 178.027 135.256V141.167C178.028 141.688 178.235 142.187 178.602 142.555C178.97 142.923 179.468 143.13 179.988 143.131H181.393C181.913 143.13 182.411 142.923 182.779 142.555C183.146 142.187 183.353 141.688 183.353 141.167V135.256C183.353 134.735 183.146 134.236 182.779 133.868C182.411 133.5 181.913 133.293 181.393 133.292H179.988Z" fill="#535461"/>
<path id="Vector_49" d="M262.039 133.292C261.519 133.293 261.02 133.5 260.653 133.868C260.285 134.236 260.079 134.735 260.078 135.256V141.167C260.079 141.688 260.285 142.187 260.653 142.555C261.02 142.923 261.519 143.13 262.039 143.131H263.444C263.963 143.13 264.462 142.923 264.829 142.555C265.197 142.187 265.404 141.688 265.404 141.167V135.256C265.404 134.735 265.197 134.236 264.829 133.868C264.462 133.5 263.963 133.293 263.444 133.292H262.039Z" fill="#535461"/>
<path id="Vector_50" d="M285.503 150.314C289.227 150.314 292.247 147.29 292.247 143.559C292.247 139.828 289.227 136.804 285.503 136.804C281.778 136.804 278.759 139.828 278.759 143.559C278.759 147.29 281.778 150.314 285.503 150.314Z" fill="#E6E6E6"/>
<path id="Vector_51" d="M271.172 164.669C274.896 164.669 277.915 161.645 277.915 157.914C277.915 154.183 274.896 151.159 271.172 151.159C267.447 151.159 264.428 154.183 264.428 157.914C264.428 161.645 267.447 164.669 271.172 164.669Z" fill="#E6E6E6"/>
<path id="Vector_52" d="M300.395 163.825C304.12 163.825 307.139 160.8 307.139 157.07C307.139 153.339 304.12 150.314 300.395 150.314C296.671 150.314 293.651 153.339 293.651 157.07C293.651 160.8 296.671 163.825 300.395 163.825Z" fill="#E6E6E6"/>
<path id="Vector_53" d="M286.626 178.742C290.35 178.742 293.37 175.718 293.37 171.987C293.37 168.256 290.35 165.232 286.626 165.232C282.901 165.232 279.882 168.256 279.882 171.987C279.882 175.718 282.901 178.742 286.626 178.742Z" fill="#E6E6E6"/>
<path id="Vector_54" d="M192.703 129.352C191.196 129.354 189.752 129.954 188.686 131.021C187.621 132.089 187.021 133.536 187.02 135.045V160.236C187.021 161.745 187.621 163.192 188.686 164.26C189.752 165.327 191.196 165.927 192.703 165.929H250.448C251.955 165.927 253.399 165.327 254.465 164.26C255.531 163.192 256.13 161.745 256.132 160.236V135.045C256.13 133.536 255.531 132.089 254.465 131.021C253.399 129.954 251.955 129.354 250.448 129.352H192.703Z" fill="#535461"/>
<path id="Vector_55" d="M290.084 146.655H280.938L285.353 139.074L290.084 146.655ZM281.917 146.092H289.07L285.37 140.163L281.917 146.092Z" fill="#535461"/>
<path id="Vector_56" d="M274.965 161.291H267.378V154.536H274.965V161.291ZM267.94 160.728H274.403V155.099H267.94V160.728Z" fill="#535461"/>
<path id="Vector_57" d="M300.396 161.291C299.562 161.291 298.747 161.044 298.054 160.58C297.361 160.116 296.821 159.457 296.502 158.685C296.182 157.914 296.099 157.065 296.262 156.246C296.424 155.427 296.826 154.675 297.415 154.084C298.005 153.494 298.756 153.092 299.573 152.929C300.391 152.766 301.238 152.849 302.009 153.169C302.779 153.488 303.437 154.03 303.9 154.724C304.363 155.418 304.611 156.234 304.611 157.069C304.609 158.189 304.165 159.262 303.375 160.053C302.584 160.845 301.513 161.29 300.396 161.291ZM300.396 153.41C299.673 153.41 298.967 153.625 298.366 154.027C297.765 154.429 297.297 155.001 297.021 155.669C296.744 156.338 296.672 157.074 296.813 157.783C296.954 158.493 297.302 159.145 297.813 159.657C298.323 160.169 298.974 160.517 299.683 160.658C300.392 160.799 301.126 160.727 301.794 160.45C302.461 160.173 303.032 159.704 303.433 159.102C303.834 158.501 304.049 157.793 304.049 157.069C304.047 156.099 303.662 155.169 302.977 154.483C302.293 153.797 301.364 153.412 300.396 153.41Z" fill="#535461"/>
<path id="Vector_58" d="M283.594 168.622L283.196 169.02L289.519 175.353L289.916 174.955L283.594 168.622Z" fill="#535461"/>
<path id="Vector_59" d="M289.663 168.617L283.201 174.81L283.59 175.217L290.052 169.024L289.663 168.617Z" fill="#535461"/>
<path id="Vector_60" d="M60.2302 65.0349C44.8879 69.2717 28.0873 72.4611 22.0674 67.5132C25.3633 62.017 27.2644 56.5997 27.4256 51.2809C27.462 48.8473 28.446 46.5242 30.1679 44.8069C31.3078 43.7038 32.6838 42.8755 34.1912 42.3848C35.6986 41.8942 37.2979 41.7541 38.8674 41.9753L42.8492 42.535C42.9832 42.5538 43.1165 42.5752 43.2492 42.5991C45.1603 42.9618 46.9101 43.9149 48.2529 45.3245C49.5957 46.7342 50.4641 48.5297 50.7361 50.4589C51.575 56.2264 54.396 61.2193 60.2302 65.0349Z" fill="#2F2E41"/>
<path id="Vector_61" d="M75.0294 119.752L80.994 120.984C81.4495 121.078 81.8785 121.272 82.2496 121.553C82.6208 121.834 82.9248 122.194 83.1397 122.607C83.3546 123.021 83.4749 123.477 83.492 123.942C83.509 124.408 83.4223 124.871 83.2382 125.299C83.0602 125.713 82.7955 126.083 82.4621 126.385C82.1286 126.687 81.7342 126.913 81.3056 127.049C80.877 127.185 80.4243 127.227 79.9782 127.171C79.532 127.116 79.103 126.966 78.7201 126.73L69.5964 121.109L54.0996 84.6183L62.1262 82.2927L75.0294 119.752Z" fill="#A0616A"/>
<path id="Vector_62" d="M32.5402 167.635L28.024 168.95L24.6055 161.878L28.0817 160.064L32.5402 167.635Z" fill="#A0616A"/>
<path id="Vector_63" d="M30.2462 197.934L24.7051 196.465L25.5725 186.929L30.3412 187.223L30.2462 197.934Z" fill="#A0616A"/>
<path id="Vector_64" d="M30.8239 161.024L24.955 164.893L2.38284 139.318C1.89323 138.763 1.53167 138.107 1.3239 137.397C1.11613 136.686 1.06725 135.939 1.18073 135.207C1.29421 134.475 1.56727 133.778 1.98047 133.164C2.39368 132.55 2.93688 132.034 3.57144 131.655L31.6908 114.825L35.9976 127.217L21.3558 140.98L30.8239 161.024Z" fill="#2F2E41"/>
<path id="Vector_65" d="M35.7665 174.411C35.7518 174.43 35.737 174.449 35.7222 174.468C35.3471 176.668 34.6884 178.675 33.2172 180.128C32.781 181.113 31.9979 181.903 31.0172 182.346C30.0365 182.79 28.9271 182.856 27.9007 182.533C26.9328 182.227 26.1008 181.595 25.547 180.743C24.9933 179.891 24.7522 178.873 24.865 177.863L25.9617 168.044C28.5924 167.438 30.5988 165.94 31.6143 163.024L34.171 164.769C34.9276 165.281 35.5721 165.942 36.0652 166.712C36.5582 167.481 36.8895 168.344 37.0388 169.246C37.1881 170.149 37.1523 171.072 36.9336 171.96C36.7148 172.848 36.3177 173.682 35.7665 174.411Z" fill="#2F2E41"/>
<path id="Vector_66" d="M38.5487 62.9323C43.5375 62.9323 47.5818 58.8813 47.5818 53.8842C47.5818 48.887 43.5375 44.8361 38.5487 44.8361C33.5599 44.8361 29.5156 48.887 29.5156 53.8842C29.5156 58.8813 33.5599 62.9323 38.5487 62.9323Z" fill="#A0616A"/>
<path id="Vector_67" d="M46.3711 68.3484L32.1306 80.162L31.0215 75.2992L33.5071 71.504C34.1969 67.7804 33.7515 63.6742 32.5662 59.3187L41.8572 59.3273C42.2583 62.847 43.6263 65.9175 46.3711 68.3484Z" fill="#A0616A"/>
<path id="Vector_68" d="M50.3807 99.3367L31.1558 105.203L29.6601 98.3536C26.0573 93.5081 24.4912 89.0854 26.8482 85.4771L25.6621 80.0455C29.0647 77.3621 31.7403 74.6165 33.2096 71.7677L45.0379 67.1382L53.7334 67.6741L56.3011 76.2932L50.3807 99.3367Z" fill="#4452FE"/>
<path id="Vector_69" d="M64.0384 83.2567C59.9404 83.2132 55.9298 84.4441 52.5596 86.7797L53.7332 67.6741C54.9244 67.8334 56.0537 68.3007 57.0099 69.0299C57.9662 69.759 58.7164 70.725 59.1869 71.8328L64.0384 83.2567Z" fill="#4452FE"/>
<path id="Vector_70" d="M30.764 189.505L24.6621 188.001L25.5603 136.067L33.754 127.079L31.9198 115.685L30.733 102.92L50.7475 97.9491C57.5125 110.253 61.6015 121.44 55.6328 128.427L30.764 189.505Z" fill="#2F2E41"/>
<path id="Vector_71" d="M29.3621 207.04C29.3348 207.051 29.3074 207.061 29.2799 207.072C27.5081 209.133 25.5614 210.813 23.1138 211.404C22.0402 212.158 20.7269 212.49 19.4246 212.336C18.1223 212.182 16.9223 211.552 16.0538 210.568C15.2347 209.64 14.7629 208.456 14.7192 207.218C14.6754 205.98 15.0625 204.765 15.8141 203.781L23.1195 194.22C26.2463 195.243 29.2814 194.942 32.1709 192.537L33.746 195.968C34.2147 196.979 34.4728 198.075 34.5047 199.189C34.5365 200.303 34.3413 201.412 33.9311 202.448C33.5209 203.484 32.9041 204.426 32.1186 205.215C31.3331 206.005 30.3952 206.626 29.3621 207.04Z" fill="#2F2E41"/>
<path id="Vector_72" d="M7.07201 125.999L1.71613 130.592C1.27168 130.973 0.93049 131.46 0.724188 132.009C0.517887 132.557 0.453151 133.149 0.535979 133.729C0.618807 134.309 0.846521 134.859 1.19801 135.328C1.5495 135.796 2.01339 136.168 2.54668 136.409C3.34949 136.772 4.25995 136.816 5.09399 136.533C5.92803 136.249 6.62344 135.659 7.03963 134.881L10.9127 127.645L28.6744 95.1786L21.9942 93.9208L7.07201 125.999Z" fill="#A0616A"/>
<path id="Vector_73" d="M29.7441 96.0907C26.2748 95.0416 23.0252 94.4239 20.5049 95.2392C21.0332 88.6908 22.122 82.8409 25.6616 80.0454L30.6933 80.6375L29.7441 96.0907Z" fill="#4452FE"/>
<path id="Vector_74" d="M48.6325 51.786L29.3125 50.5953L29.5502 46.7249C36.2944 42.1698 42.7344 42.5667 48.8703 47.9156L48.6325 51.786Z" fill="#2F2E41"/>
</g>
<defs>
<clipPath id="clip0">
<rect width="378" height="259" fill="white" transform="translate(0.5)"/>
</clipPath>
</defs>
</svg>
