<svg width="294" height="194" viewBox="0 0 294 194" fill="none" xmlns="http://www.w3.org/2000/svg">
<g id="Cards">
<g id="undraw_react_y7wq (1) 1" clip-path="url(#clip0)">
<path id="Vector" d="M203.699 87.7667L205.527 87.0503C205.702 86.9813 205.875 86.907 206.058 86.8354C202.674 85.5898 199.815 83.23 197.951 80.1441C196.087 77.0583 195.329 73.43 195.8 69.8558C196.272 66.2817 197.946 62.9744 200.547 60.4778C203.148 57.9813 206.521 56.444 210.112 56.1188L208.838 62.5396L213.673 56.1931H213.715C217.889 56.7668 221.663 58.9744 224.209 62.3304C226.755 65.6864 227.863 69.9161 227.29 74.0892C227.251 74.389 227.187 74.6809 227.131 74.9754C228.62 73.8 230.015 72.5026 231.061 70.9955C233.184 67.9337 233.903 64.1608 234.635 59.5415C236.086 50.3931 237.395 41.1438 238.573 31.8999C234.955 30.8085 231.845 28.4627 229.803 25.2839C227.76 22.1052 226.918 18.3021 227.428 14.5583C227.495 14.0754 227.588 13.6058 227.694 13.1415C227.72 13.0248 227.747 12.908 227.776 12.7939C227.89 12.3455 228.017 11.9051 228.166 11.4673C228.19 11.3957 228.222 11.3293 228.246 11.2603C228.378 10.8969 228.511 10.5387 228.683 10.199C228.742 10.0664 228.8 9.93372 228.861 9.80902C229.044 9.42961 229.238 9.05816 229.45 8.69731C229.522 8.57792 229.599 8.46383 229.67 8.34443C229.835 8.07911 230.007 7.81378 230.185 7.56703C230.281 7.43437 230.374 7.30171 230.472 7.1717L230.543 7.06822C232.796 4.1196 236.012 2.0537 239.63 1.22964C243.248 0.405592 247.041 0.87551 250.349 2.5577L248.693 10.9128L253.469 4.6405C256.038 6.81686 257.844 9.7575 258.623 13.033C259.402 16.3085 259.114 19.7472 257.8 22.8471H257.818C257.773 22.9532 257.717 23.054 257.672 23.1602C257.585 23.3565 257.494 23.5502 257.407 23.7439C257.285 23.9906 257.141 24.2321 257.022 24.4709C256.921 24.6513 256.823 24.8317 256.714 25.0015C256.558 25.2668 256.388 25.5056 256.218 25.7524C256.117 25.8956 256.024 26.0442 255.921 26.1849C255.656 26.5537 255.358 26.9065 255.056 27.2462C254.95 27.3655 254.836 27.4743 254.724 27.5911C254.509 27.8193 254.294 28.0448 254.066 28.2597C253.925 28.3924 253.777 28.525 253.631 28.6471C253.421 28.8328 253.206 29.0132 252.986 29.1777C252.83 29.3024 252.67 29.4218 252.511 29.5386C252.28 29.7057 252.047 29.8623 251.811 30.0188C251.652 30.1223 251.492 30.2257 251.33 30.3239C251.065 30.4858 250.786 30.6343 250.508 30.7803C250.367 30.8519 250.243 30.9315 250.086 31.0005C249.667 31.2048 249.237 31.3932 248.799 31.5603C248.717 31.5922 248.629 31.616 248.547 31.6452C248.181 31.7779 247.812 31.9106 247.438 32.0034C247.276 32.0485 247.111 32.0857 246.947 32.1255C246.642 32.1998 246.334 32.2687 246.024 32.3271C245.847 32.359 245.664 32.3881 245.474 32.4147C245.169 32.4598 244.861 32.4943 244.551 32.5208C244.368 32.5367 244.187 32.5526 244.002 32.5633C243.667 32.5792 243.33 32.5818 242.993 32.5792C242.971 32.5778 242.949 32.5778 242.927 32.5792C242.428 36.4706 241.905 40.362 241.356 44.2535C242.643 42.5164 244.271 41.0604 246.141 39.9749C248.01 38.8894 250.082 38.1973 252.229 37.9409C254.375 37.6845 256.552 37.8693 258.624 38.4839C260.697 39.0986 262.622 40.1301 264.282 41.5153L260.121 48.5676L266.811 44.1659C269.34 47.5131 270.437 51.7271 269.862 55.8826C269.666 57.3417 269.264 58.7656 268.668 60.1119C267.391 63.027 265.267 65.491 262.573 67.1841C259.878 68.8773 256.736 69.7214 253.556 69.607C250.375 69.4926 247.302 68.4249 244.736 66.5425C242.17 64.6601 240.229 62.0499 239.164 59.0506C239.103 59.4433 239.045 59.8466 238.984 60.2339C238.337 64.3067 237.533 69.377 234.678 73.5002C232.743 76.302 230.079 78.3715 227.489 80.1917C225.805 81.3768 224.082 82.5062 222.32 83.5799C220.471 85.2946 218.24 86.5443 215.812 87.2254C212.981 88.6741 210.09 89.9839 207.138 91.1549L205.293 91.8766C203.635 92.5239 201.937 93.1873 200.252 93.893C200.517 93.9169 200.783 93.9381 201.048 93.9726C204.387 94.4311 207.493 95.9388 209.919 98.2781C212.345 100.617 213.964 103.667 214.543 106.987L203.317 113.118L214.509 112.617C214.061 115.099 213.021 117.436 211.479 119.431C208.948 122.706 205.238 124.865 201.14 125.447C197.041 126.028 192.877 124.987 189.535 122.545L190.092 123.583C190.463 124.267 190.83 124.949 191.185 125.626C196.049 134.843 196.402 142.803 192.18 148.043L188.731 145.27C192.841 140.171 189.58 132.065 187.271 127.687C186.921 127.024 186.56 126.361 186.21 125.682C183.087 119.89 179.545 113.325 180.964 106.339C183.087 95.806 194.51 91.3486 203.699 87.7667Z" fill="#F2F2F2"/>
<path id="Vector_2" d="M71.5361 137.706L70.1086 137.146C69.9706 137.093 69.8432 137.032 69.7 136.979C72.3413 136.005 74.5728 134.162 76.0277 131.752C77.4826 129.342 78.0744 126.508 77.7058 123.718C77.3373 120.927 76.0303 118.344 73.9996 116.395C71.969 114.445 69.3354 113.244 66.5318 112.989L67.5268 118.003L63.7536 113.047H63.7191C62.1042 113.267 60.5486 113.804 59.1411 114.626C57.7336 115.448 56.5019 116.539 55.5163 117.837C54.5306 119.135 53.8104 120.614 53.3967 122.191C52.9831 123.767 52.8841 125.41 53.1054 127.024C53.1372 127.26 53.1877 127.486 53.2301 127.717C52.0594 126.837 51.0258 125.788 50.1628 124.604C48.5097 122.217 47.9418 119.266 47.3687 115.66C46.2463 108.515 45.2274 101.293 44.3119 94.0815C47.1361 93.2278 49.5632 91.3949 51.1571 88.9122C52.7509 86.4295 53.4069 83.4597 53.0072 80.5367C52.9542 80.16 52.8825 79.7938 52.7976 79.4303L52.7339 79.165C52.6437 78.8148 52.5455 78.4698 52.4288 78.1355C52.4102 78.0798 52.3863 78.0267 52.3651 77.9737C52.2616 77.6898 52.1475 77.4112 52.0255 77.1379C51.9777 77.0371 51.9326 76.9336 51.8848 76.8328C51.7415 76.5383 51.5903 76.2491 51.4258 75.9678C51.3701 75.8723 51.309 75.7821 51.2533 75.7025C51.1233 75.4955 50.988 75.2912 50.85 75.0949C50.7757 74.9914 50.7041 74.8853 50.6271 74.7845L50.5714 74.7049C48.8119 72.4024 46.3018 70.7884 43.4767 70.1428C40.6516 69.4973 37.6896 69.861 35.1045 71.1708L36.3994 77.6977L32.666 72.7998C30.6599 74.4997 29.2496 76.7961 28.641 79.3541C28.0324 81.912 28.2573 84.5975 29.2829 87.0186H29.2696C29.3041 87.1008 29.3466 87.1804 29.3837 87.2627C29.4527 87.4166 29.5217 87.5678 29.596 87.719C29.6915 87.9101 29.7924 88.0985 29.8985 88.2842C29.9755 88.4275 30.0524 88.5681 30.1373 88.706C30.2594 88.905 30.4027 89.0987 30.5247 89.2924C30.6043 89.4039 30.676 89.5206 30.7582 89.6294C30.9705 89.9159 31.196 90.1919 31.4322 90.4598C31.5145 90.5527 31.6047 90.6376 31.6975 90.7252C31.8647 90.9029 32.0345 91.0781 32.2123 91.2558C32.3211 91.362 32.4378 91.4601 32.5519 91.5583C32.7165 91.7051 32.8836 91.8457 33.0534 91.9802C33.1755 92.0757 33.3002 92.1685 33.4249 92.2614C33.6054 92.3914 33.7884 92.5267 33.9715 92.6355C34.0962 92.7178 34.2209 92.7974 34.3483 92.8743C34.5579 93.0017 34.7729 93.1157 34.9904 93.2298C35.1019 93.2882 35.208 93.3492 35.3195 93.405C35.6485 93.5641 35.9828 93.7101 36.3251 93.8401C36.3888 93.8666 36.4578 93.8825 36.5215 93.9064C36.8054 94.0099 37.0946 94.1054 37.3891 94.1877C37.5139 94.2221 37.6545 94.2513 37.7712 94.2805C38.01 94.3389 38.2489 94.3946 38.493 94.4397L38.9202 94.5087C39.159 94.5432 39.4004 94.5697 39.6419 94.591C39.7852 94.6042 39.9258 94.6148 40.0718 94.6228C40.3371 94.6361 40.6024 94.6387 40.8678 94.6361H40.9182C41.3074 97.682 41.716 100.725 42.1441 103.766C41.1409 102.407 39.8707 101.268 38.4113 100.418C36.9519 99.568 35.3342 99.0252 33.6574 98.823C31.9807 98.6207 30.2803 98.7633 28.6606 99.2419C27.041 99.7205 25.5362 100.525 24.2387 101.606L27.46 107.082L22.2381 103.646C21.2586 104.94 20.5435 106.414 20.1338 107.984C19.724 109.555 19.6276 111.19 19.85 112.798C20.004 113.938 20.3194 115.051 20.7866 116.103C21.7841 118.38 23.4427 120.304 25.5472 121.626C27.6518 122.949 30.1052 123.608 32.5891 123.519C35.073 123.429 37.4728 122.596 39.4771 121.126C41.4813 119.656 42.9975 117.618 43.829 115.276C43.8768 115.581 43.9219 115.891 43.9696 116.199C44.4738 119.383 45.1027 123.342 47.3315 126.568C48.844 128.754 50.9243 130.37 52.9462 131.792C54.2623 132.719 55.6076 133.603 56.9821 134.445C58.4271 135.784 60.1696 136.761 62.066 137.295C64.2737 138.425 66.5344 139.455 68.8429 140.362L70.2811 140.927C71.5759 141.431 72.9026 141.949 74.2108 142.501C74.0038 142.519 73.7942 142.535 73.5846 142.564C70.9783 142.921 68.553 144.097 66.6586 145.922C64.7643 147.747 63.4989 150.127 63.0452 152.718L71.8015 157.494L63.0611 157.104C63.4459 159.166 64.3468 161.096 65.6799 162.715C67.0129 164.335 68.7345 165.59 70.684 166.363C72.6335 167.137 74.7472 167.404 76.8279 167.14C78.9086 166.875 80.8884 166.088 82.5824 164.852C82.4364 165.117 82.2931 165.382 82.1472 165.661C81.858 166.191 81.5714 166.722 81.2928 167.253C77.4957 174.451 77.2198 180.67 80.518 184.764L83.2059 182.599C79.9953 178.619 82.5426 172.286 84.3469 168.866C84.6122 168.349 84.9015 167.826 85.1854 167.3C87.6239 162.79 90.3887 157.651 89.2876 152.193C87.6398 143.984 78.711 140.513 71.5361 137.706Z" fill="#F2F2F2"/>
<path id="Vector_3" d="M147 194C228.186 194 294 191.208 294 187.765C294 184.321 228.186 181.53 147 181.53C65.8141 181.53 0 184.321 0 187.765C0 191.208 65.8141 194 147 194Z" fill="#3F3D56"/>
<path id="Vector_4" opacity="0.1" d="M147 194C228.186 194 294 191.208 294 187.765C294 184.321 228.186 181.53 147 181.53C65.8141 181.53 0 184.321 0 187.765C0 191.208 65.8141 194 147 194Z" fill="black"/>
<path id="Vector_5" d="M147 190.551C228.186 190.551 294 187.759 294 184.316C294 180.872 228.186 178.081 147 178.081C65.8141 178.081 0 180.872 0 184.316C0 187.759 65.8141 190.551 147 190.551Z" fill="#3F3D56"/>
<path id="Vector_6" d="M22.5538 182.098C21.7578 180.636 22.66 178.845 23.6895 177.539C24.719 176.234 25.9741 174.886 25.9476 173.217C25.9104 170.829 23.3737 169.42 21.3492 168.155C19.847 167.215 18.4611 166.101 17.2204 164.835C16.7018 164.348 16.2726 163.773 15.9521 163.137C15.5328 162.203 15.5461 161.142 15.5726 160.118C15.6611 156.711 15.8291 153.308 16.0768 149.908" stroke="#3F3D56" stroke-width="4" stroke-miterlimit="10"/>
<path id="Vector_7" d="M12.2351 149.72C12.2638 149.097 12.449 148.491 12.7736 147.958C13.0982 147.425 13.5518 146.983 14.0925 146.671L14.9257 148.319L14.9018 146.324C15.2992 146.206 15.7136 146.155 16.1277 146.175C16.8609 146.211 17.567 146.463 18.1569 146.9C18.7468 147.337 19.1941 147.939 19.4423 148.629C19.6905 149.32 19.7284 150.069 19.5514 150.781C19.3743 151.494 18.9902 152.138 18.4475 152.632C17.9048 153.126 17.2278 153.448 16.5021 153.558C15.7763 153.668 15.0343 153.56 14.3696 153.249C13.705 152.937 13.1475 152.436 12.7676 151.808C12.3878 151.18 12.2025 150.453 12.2351 149.72Z" fill="#4452FE"/>
<path id="Vector_8" d="M18.8771 174.926C19.2472 175.662 19.8517 176.255 20.5955 176.61C21.3393 176.965 22.1801 177.063 22.9855 176.888C23.791 176.713 24.5154 176.275 25.0446 175.643C25.5738 175.011 25.8778 174.221 25.9087 173.398C25.9352 172.883 25.8529 172.369 25.6672 171.888C25.4003 171.177 24.9218 170.564 24.2961 170.134C23.6704 169.703 22.9277 169.474 22.1681 169.479C21.4084 169.483 20.6684 169.72 20.0477 170.158C19.427 170.596 18.9555 171.214 18.6967 171.928L21.0237 173.819L18.4658 173.225C18.4644 173.817 18.6055 174.4 18.8771 174.926Z" fill="#4452FE"/>
<path id="Vector_9" d="M20.7159 167.696C21.6438 167.766 22.5643 167.485 23.2953 166.909C24.0262 166.333 24.5144 165.504 24.6631 164.586C24.8119 163.667 24.6105 162.726 24.0987 161.949C23.5869 161.172 22.802 160.615 21.8993 160.389L21.9179 161.925L21.0741 160.256C20.0871 160.21 19.1222 160.558 18.3917 161.223C17.6612 161.888 17.225 162.816 17.1789 163.803C17.1328 164.79 17.4806 165.755 18.146 166.486C18.8113 167.216 19.7395 167.652 20.7265 167.698L20.7159 167.696Z" fill="#4452FE"/>
<path id="Vector_10" d="M11.6748 161.681C12.1627 161.704 12.6502 161.63 13.1097 161.465C13.5692 161.3 13.9917 161.045 14.3529 160.717C14.7141 160.388 15.007 159.991 15.215 159.55C15.4229 159.108 15.5418 158.629 15.5648 158.141C15.5877 157.654 15.5144 157.166 15.349 156.707C15.1836 156.247 14.9292 155.825 14.6005 155.464C14.2719 155.102 13.8752 154.809 13.4333 154.601C12.9914 154.394 12.5129 154.275 12.0251 154.252C11.3286 154.217 10.6367 154.381 10.0297 154.724L10.6877 156.528L9.33184 155.228C8.60665 155.892 8.17439 156.817 8.12984 157.799C8.11186 158.142 8.14404 158.487 8.22536 158.821C8.41057 159.608 8.84765 160.313 9.47023 160.829C10.0928 161.346 10.8669 161.645 11.6748 161.681Z" fill="#4452FE"/>
<path id="Vector_11" opacity="0.1" d="M12.7363 150.712C13.5961 150.808 14.4319 151.076 15.2943 151.129C16.1566 151.182 17.1039 150.975 17.6505 150.306C17.945 149.943 18.091 149.487 18.3377 149.094C18.5741 148.727 18.8966 148.424 19.2771 148.21C19.5017 148.68 19.6252 149.192 19.6394 149.712C19.6536 150.232 19.5582 150.75 19.3595 151.231C19.1608 151.712 18.8631 152.146 18.4858 152.505C18.1084 152.864 17.6599 153.139 17.1693 153.314C16.6787 153.488 16.1569 153.557 15.6378 153.517C15.1187 153.476 14.6139 153.327 14.1562 153.079C13.6984 152.831 13.2979 152.49 12.9806 152.077C12.6633 151.664 12.4364 151.189 12.3145 150.683C12.4551 150.688 12.5957 150.699 12.7363 150.712Z" fill="black"/>
<path id="Vector_12" opacity="0.1" d="M11.6749 161.681C12.3172 161.713 12.9569 161.579 13.5315 161.29C14.1061 161.001 14.5958 160.568 14.9529 160.033C15.3099 159.498 15.5219 158.88 15.5683 158.239C15.6146 157.597 15.4937 156.955 15.2172 156.374C14.9216 156.574 14.6675 156.829 14.469 157.125C14.2036 157.526 14.0418 157.987 13.7313 158.356C13.1502 159.038 12.1605 159.261 11.261 159.219C10.3614 159.176 9.49378 158.924 8.60753 158.842C8.48282 158.842 8.35811 158.821 8.2334 158.818C8.41772 159.604 8.85341 160.309 9.47443 160.826C10.0955 161.343 10.868 161.643 11.6749 161.681Z" fill="black"/>
<path id="Vector_13" opacity="0.1" d="M20.7154 167.696C21.3519 167.728 21.9862 167.597 22.5571 167.314C23.128 167.03 23.6165 166.605 23.9755 166.078C24.3344 165.552 24.5519 164.942 24.6069 164.307C24.6619 163.672 24.5527 163.033 24.2896 162.453C23.9802 162.654 23.7104 162.91 23.4936 163.209C23.2043 163.618 23.0239 164.087 22.6975 164.464C22.0713 165.165 21.0153 165.411 20.0627 165.387C19.1101 165.363 18.253 165.141 17.335 165.072C17.5591 165.804 18.0042 166.45 18.6093 166.919C19.2145 167.389 19.9501 167.66 20.7154 167.696Z" fill="black"/>
<path id="Vector_14" opacity="0.1" d="M18.877 174.926C19.247 175.662 19.8515 176.255 20.5953 176.61C21.3391 176.965 22.1799 177.063 22.9854 176.888C23.7908 176.713 24.5152 176.275 25.0444 175.643C25.5736 175.011 25.8776 174.221 25.9085 173.398C25.935 172.883 25.8528 172.368 25.6671 171.888C25.3603 172.088 25.0849 172.333 24.8498 172.615C24.4943 173.047 24.2634 173.535 23.8521 173.941C23.0906 174.69 21.8621 175.003 20.7688 175.027C20.1368 175.029 19.5051 174.996 18.877 174.926Z" fill="black"/>
<path id="Vector_15" d="M28.1765 180.415C28.1765 180.415 25.2365 180.325 24.3529 179.694C23.4693 179.062 19.8421 178.309 19.6113 179.322C19.3804 180.336 15.1933 184.363 18.5127 184.379C21.8322 184.395 26.2236 183.849 27.1072 183.318C27.9908 182.787 28.1765 180.415 28.1765 180.415Z" fill="#656380"/>
<path id="Vector_16" opacity="0.2" d="M18.4527 184.026C21.7722 184.053 26.1636 183.496 27.0498 182.965C27.7212 182.557 27.9892 181.084 28.0794 180.405H28.1776C28.1776 180.405 27.9918 182.774 27.1162 183.323C26.2406 183.873 21.8385 184.406 18.5217 184.385C17.5638 184.385 17.2322 184.037 17.2507 183.53C17.3754 183.83 17.7416 184.026 18.4527 184.026Z" fill="black"/>
<path id="Vector_17" d="M279.937 184.485C279.141 183.024 280.043 181.233 281.072 179.927C282.102 178.622 283.357 177.274 283.33 175.605C283.293 173.217 280.757 171.808 278.732 170.543C277.23 169.603 275.844 168.489 274.603 167.223C274.085 166.736 273.655 166.161 273.335 165.525C272.916 164.591 272.929 163.53 272.955 162.506C273.042 159.099 273.21 155.696 273.46 152.296" stroke="#3F3D56" stroke-width="4" stroke-miterlimit="10"/>
<path id="Vector_18" d="M269.618 152.108C269.646 151.485 269.832 150.879 270.156 150.346C270.481 149.813 270.934 149.371 271.475 149.059L272.308 150.707L272.284 148.712C272.682 148.594 273.096 148.543 273.51 148.563C274.243 148.6 274.949 148.852 275.539 149.289C276.128 149.726 276.575 150.328 276.823 151.019C277.071 151.71 277.108 152.459 276.931 153.171C276.754 153.883 276.369 154.526 275.827 155.02C275.284 155.514 274.607 155.836 273.881 155.946C273.155 156.056 272.413 155.948 271.749 155.636C271.085 155.325 270.527 154.823 270.147 154.195C269.768 153.567 269.582 152.841 269.615 152.108H269.618Z" fill="#4452FE"/>
<path id="Vector_19" d="M276.259 177.314C276.629 178.05 277.234 178.643 277.977 178.998C278.721 179.353 279.562 179.451 280.367 179.276C281.173 179.101 281.897 178.663 282.426 178.031C282.956 177.399 283.26 176.609 283.291 175.786C283.317 175.271 283.235 174.757 283.049 174.276C282.782 173.565 282.304 172.952 281.678 172.522C281.052 172.091 280.31 171.862 279.55 171.867C278.79 171.871 278.05 172.108 277.43 172.546C276.809 172.984 276.337 173.601 276.079 174.316L278.406 176.207L275.848 175.613C275.846 176.205 275.987 176.788 276.259 177.314Z" fill="#4452FE"/>
<path id="Vector_20" d="M278.098 170.084C279.026 170.154 279.946 169.873 280.677 169.297C281.408 168.721 281.896 167.892 282.045 166.974C282.194 166.055 281.992 165.114 281.481 164.337C280.969 163.56 280.184 163.003 279.281 162.777L279.3 164.313L278.456 162.644C277.469 162.598 276.504 162.946 275.774 163.611C275.043 164.276 274.607 165.204 274.561 166.191C274.515 167.178 274.862 168.143 275.528 168.874C276.193 169.604 277.121 170.04 278.108 170.086L278.098 170.084Z" fill="#4452FE"/>
<path id="Vector_21" d="M269.058 164.069C270.043 164.115 271.006 163.768 271.736 163.105C272.465 162.441 272.901 161.514 272.948 160.529C272.994 159.544 272.647 158.581 271.983 157.851C271.32 157.122 270.393 156.686 269.408 156.64C268.711 156.605 268.02 156.769 267.413 157.112L268.071 158.916L266.715 157.616C265.989 158.28 265.557 159.205 265.513 160.187C265.495 160.53 265.527 160.875 265.608 161.209C265.793 161.996 266.23 162.701 266.853 163.217C267.476 163.734 268.25 164.032 269.058 164.069Z" fill="#4452FE"/>
<path id="Vector_22" opacity="0.1" d="M270.119 153.1C270.979 153.196 271.815 153.464 272.677 153.517C273.539 153.57 274.487 153.363 275.033 152.694C275.328 152.331 275.474 151.874 275.721 151.482C275.957 151.115 276.279 150.812 276.66 150.598C276.885 151.068 277.008 151.579 277.022 152.1C277.036 152.62 276.941 153.138 276.742 153.619C276.544 154.1 276.246 154.534 275.869 154.893C275.491 155.252 275.043 155.527 274.552 155.701C274.062 155.876 273.54 155.945 273.021 155.905C272.502 155.864 271.997 155.715 271.539 155.467C271.081 155.219 270.681 154.878 270.363 154.465C270.046 154.052 269.819 153.577 269.697 153.071C269.838 153.076 269.979 153.087 270.119 153.1Z" fill="black"/>
<path id="Vector_23" opacity="0.1" d="M269.058 164.069C269.7 164.101 270.34 163.967 270.914 163.678C271.489 163.389 271.979 162.956 272.336 162.421C272.693 161.886 272.905 161.268 272.951 160.627C272.997 159.985 272.876 159.343 272.6 158.762C272.304 158.962 272.05 159.217 271.852 159.513C271.586 159.914 271.425 160.375 271.114 160.744C270.533 161.426 269.543 161.649 268.644 161.606C267.744 161.564 266.877 161.312 265.99 161.23C265.866 161.23 265.741 161.208 265.616 161.206C265.801 161.992 266.236 162.697 266.857 163.214C267.478 163.73 268.251 164.031 269.058 164.069Z" fill="black"/>
<path id="Vector_24" opacity="0.1" d="M278.098 170.084C278.735 170.116 279.369 169.985 279.94 169.701C280.511 169.418 280.999 168.993 281.358 168.466C281.717 167.94 281.935 167.33 281.99 166.695C282.045 166.06 281.936 165.421 281.672 164.841C281.363 165.042 281.093 165.298 280.876 165.597C280.587 166.006 280.407 166.475 280.08 166.852C279.454 167.552 278.398 167.799 277.446 167.775C276.493 167.751 275.636 167.529 274.718 167.46C274.942 168.192 275.387 168.838 275.992 169.307C276.597 169.777 277.333 170.048 278.098 170.084Z" fill="black"/>
<path id="Vector_25" opacity="0.1" d="M276.26 177.314C276.63 178.05 277.234 178.643 277.978 178.998C278.722 179.353 279.563 179.451 280.368 179.276C281.174 179.101 281.898 178.663 282.427 178.031C282.956 177.399 283.26 176.609 283.291 175.785C283.318 175.271 283.236 174.756 283.05 174.276C282.743 174.476 282.468 174.721 282.233 175.003C281.877 175.435 281.646 175.923 281.235 176.329C280.473 177.078 279.245 177.391 278.152 177.415C277.52 177.417 276.888 177.383 276.26 177.314Z" fill="black"/>
<path id="Vector_26" d="M285.559 182.803C285.559 182.803 282.619 182.713 281.736 182.082C280.852 181.45 277.225 180.697 276.994 181.71C276.763 182.724 272.576 186.751 275.896 186.767C279.215 186.783 283.606 186.237 284.49 185.706C285.374 185.175 285.559 182.803 285.559 182.803Z" fill="#656380"/>
<path id="Vector_27" opacity="0.2" d="M275.835 186.414C279.154 186.441 283.545 185.884 284.432 185.353C285.103 184.945 285.371 183.472 285.461 182.793H285.559C285.559 182.793 285.374 185.162 284.498 185.711C283.622 186.261 279.22 186.794 275.904 186.773C274.946 186.773 274.614 186.425 274.633 185.918C274.757 186.218 275.123 186.414 275.835 186.414Z" fill="black"/>
<path id="Vector_28" d="M197.832 87.8622C196.077 87.2608 194.308 86.7037 192.525 86.1907C192.818 84.9897 193.092 83.7824 193.345 82.569C197.362 63.065 194.735 47.3525 185.764 42.1813C177.161 37.2197 163.093 42.3936 148.881 54.755C147.48 55.9791 146.112 57.2349 144.776 58.5226C143.879 57.6648 142.968 56.8237 142.043 55.9994C127.155 42.7783 112.24 37.2091 103.266 42.3962C94.6716 47.371 92.1216 62.1417 95.7435 80.6268C96.0973 82.4576 96.5033 84.2777 96.9615 86.0872C94.852 86.6868 92.8115 87.3263 90.8586 88.0082C73.4017 94.0814 62.252 103.633 62.252 113.527C62.252 123.745 74.2216 133.994 92.4055 140.208C93.8808 140.709 95.3668 141.174 96.8633 141.604C96.3786 143.549 95.947 145.511 95.5684 147.489C92.119 165.653 94.8148 180.076 103.385 185.019C112.24 190.129 127.099 184.876 141.566 172.23C142.709 171.23 143.856 170.169 145.015 169.06C146.462 170.455 147.947 171.81 149.47 173.124C163.486 185.183 177.331 190.055 185.891 185.096C194.735 179.978 197.609 164.483 193.878 145.634C193.595 144.194 193.265 142.725 192.888 141.227C193.934 140.919 194.956 140.6 195.956 140.269C214.859 134.007 227.16 123.883 227.16 113.527C227.16 103.596 215.649 93.9939 197.84 87.8622H197.832Z" fill="#53C1DE"/>
<path id="Vector_29" d="M193.732 133.583C192.83 133.883 191.907 134.169 190.962 134.451C188.657 127.306 185.867 120.326 182.612 113.562C185.743 106.887 188.425 100.01 190.638 92.9776C192.323 93.4658 193.963 93.9806 195.539 94.5245C210.799 99.7753 220.107 107.541 220.107 113.527C220.107 119.895 210.053 128.176 193.732 133.583ZM186.961 147.003C188.611 155.337 188.844 162.872 187.757 168.76C186.775 174.053 184.801 177.582 182.36 178.996C177.161 182.002 166.049 178.094 154.063 167.781C152.689 166.597 151.306 165.337 149.916 164C154.913 158.468 159.531 152.605 163.738 146.451C171.253 145.814 178.715 144.662 186.072 143.002C186.408 144.36 186.706 145.687 186.966 146.982L186.961 147.003ZM118.47 178.481C113.392 180.275 109.348 180.325 106.904 178.916C101.703 175.915 99.5407 164.323 102.491 148.802C102.845 146.968 103.246 145.143 103.693 143.328C111.02 144.901 118.444 145.976 125.916 146.547C130.246 152.679 134.975 158.52 140.072 164.032C139.048 165.024 138 165.989 136.93 166.926C130.533 172.519 124.119 176.478 118.47 178.481ZM94.6849 133.543C86.6423 130.794 80.0035 127.223 75.4502 123.328C71.3612 119.826 69.2969 116.347 69.2969 113.527C69.2969 107.523 78.2495 99.8628 93.1777 94.6598C95.0528 94.0071 96.9447 93.4119 98.8534 92.8742C101.071 99.9845 103.756 106.941 106.891 113.697C103.717 120.55 100.999 127.605 98.7552 134.817C97.3861 134.426 96.0293 134.001 94.6849 133.543ZM102.658 79.2736C99.5592 63.4364 101.616 51.4888 106.795 48.496C112.312 45.3121 124.509 49.8544 137.368 61.2714C138.191 62.001 139.016 62.7651 139.841 63.5532C134.78 69.0311 130.089 74.8385 125.796 80.9372C118.395 81.6009 111.045 82.7433 103.791 84.3573C103.369 82.6733 102.991 80.9797 102.658 79.2763V79.2736ZM173.8 96.8355C172.188 94.0513 170.517 91.3026 168.787 88.5892C174.049 89.2551 179.088 90.136 183.822 91.2185C182.302 96.0369 180.541 100.775 178.544 105.416C177.021 102.524 175.439 99.6638 173.8 96.8355ZM144.782 68.5864C148.211 72.3248 151.449 76.2335 154.485 80.2978C147.991 79.9918 141.495 79.9918 134.996 80.2978C138.198 76.0738 141.481 72.147 144.782 68.589V68.5864ZM115.594 96.8832C113.975 99.6903 112.423 102.533 110.937 105.411C108.886 100.547 107.132 95.7635 105.699 91.1442C110.404 90.0829 115.421 89.2313 120.649 88.5759C118.894 91.307 117.207 94.0761 115.589 96.8832H115.594ZM120.797 138.977C115.695 138.423 110.625 137.607 105.606 136.533C107.063 131.834 108.857 126.947 110.953 121.978C112.444 124.859 114.002 127.703 115.626 130.51C117.278 133.374 119 136.196 120.792 138.977H120.797ZM144.981 158.964C141.637 155.371 138.307 151.391 135.059 147.091C138.217 147.216 141.433 147.279 144.707 147.279C148.068 147.279 151.386 147.205 154.66 147.056C151.638 151.188 148.405 155.163 144.975 158.964H144.981ZM178.597 121.726C180.698 126.46 182.55 131.301 184.148 136.228C179.067 137.371 173.93 138.247 168.758 138.852C170.5 136.088 172.188 133.29 173.821 130.46C175.48 127.584 177.072 124.672 178.597 121.726ZM167.718 126.942C165.22 131.279 162.584 135.533 159.808 139.704C154.915 140.054 149.86 140.235 144.707 140.235C139.554 140.235 134.585 140.075 129.777 139.762C126.93 135.606 124.242 131.345 121.713 126.982C119.183 122.618 116.838 118.189 114.678 113.694C116.849 109.178 119.187 104.747 121.691 100.401C124.193 96.0572 126.858 91.812 129.686 87.6658C134.592 87.2944 139.618 87.1007 144.702 87.1007C149.786 87.1007 154.843 87.297 159.744 87.6685C162.541 91.8022 165.194 96.0306 167.705 100.354C170.215 104.677 172.584 109.087 174.813 113.585C172.611 118.117 170.248 122.566 167.726 126.931L167.718 126.942ZM182.251 48.2837C187.773 51.4676 189.919 64.3093 186.451 81.1495C186.223 82.2444 185.975 83.3366 185.708 84.4262C178.444 82.7795 171.079 81.6158 163.661 80.9425C159.41 74.8384 154.753 69.027 149.722 63.5478C150.961 62.3557 152.225 61.1962 153.514 60.0694C165.688 49.475 177.066 45.2935 182.251 48.2837Z" fill="white"/>
<path id="Vector_30" d="M144.702 98.8015C147.615 98.8015 150.462 99.6651 152.884 101.283C155.306 102.901 157.193 105.201 158.308 107.892C159.422 110.583 159.714 113.543 159.146 116.4C158.577 119.256 157.175 121.88 155.115 123.94C153.056 125.999 150.432 127.401 147.575 127.97C144.718 128.538 141.757 128.246 139.067 127.132C136.376 126.017 134.076 124.13 132.457 121.708C130.839 119.286 129.976 116.439 129.976 113.527C129.975 111.593 130.356 109.678 131.096 107.891C131.836 106.105 132.921 104.481 134.288 103.114C135.656 101.746 137.279 100.662 139.066 99.9217C140.853 99.1818 142.768 98.8012 144.702 98.8015Z" fill="#53C1DE"/>
<path id="Vector_31" d="M148.396 5.41262C148.396 6.28372 148.138 7.13527 147.654 7.85956C147.17 8.58386 146.482 9.14838 145.677 9.48174C144.872 9.8151 143.987 9.90232 143.132 9.73238C142.278 9.56243 141.493 9.14295 140.877 8.52699C140.261 7.91103 139.842 7.12624 139.672 6.27187C139.502 5.4175 139.589 4.53193 139.922 3.72713C140.256 2.92234 140.82 2.23446 141.545 1.7505C142.269 1.26654 143.12 1.00823 143.992 1.00823C144.571 1.00542 145.145 1.11742 145.681 1.33777C146.216 1.55811 146.703 1.88243 147.112 2.29198C147.522 2.70152 147.846 3.18818 148.067 3.72381C148.287 4.25945 148.399 4.83344 148.396 5.41262Z" fill="#3F3D56"/>
<path id="Vector_32" d="M140.472 6.52438C140.123 5.89348 139.934 5.18659 139.922 4.46564C139.909 3.74469 140.074 3.03168 140.401 2.38907C140.728 1.74645 141.207 1.19385 141.798 0.779659C142.388 0.365472 143.071 0.102342 143.786 0.0133186C143.18 -0.0079316 142.575 0.0965095 142.01 0.320084C141.446 0.543658 140.934 0.881536 140.506 1.3125C140.078 1.74346 139.744 2.2582 139.525 2.8244C139.306 3.39059 139.206 3.99601 139.232 4.60263C139.257 5.20924 139.408 5.80397 139.675 6.34944C139.942 6.89491 140.318 7.37936 140.781 7.77235C141.244 8.16535 141.783 8.4584 142.365 8.63311C142.946 8.80783 143.558 8.86042 144.161 8.7876C143.403 8.75962 142.665 8.5366 142.019 8.14012C141.373 7.74363 140.84 7.18711 140.472 6.52438Z" fill="#3F3D56"/>
<path id="Vector_33" d="M150.285 11.5469H138.485V29.9524H150.285V11.5469Z" fill="#3F3D56"/>
<path id="Vector_34" opacity="0.1" d="M150.285 11.5469H138.485V29.9524H150.285V11.5469Z" fill="black"/>
<path id="Vector_35" d="M119.845 78.3239C119.845 78.3239 118.584 81.7863 115.599 82.2586C112.614 82.7309 110.879 83.5163 110.879 83.5163L117.958 88.0772L121.734 87.6049C121.734 87.6049 122.206 82.7282 123.78 81.6271C125.353 80.526 119.845 78.3239 119.845 78.3239Z" fill="#A0616A"/>
<path id="Vector_36" d="M170.972 78.3239C170.972 78.3239 172.232 81.7863 175.217 82.2586C178.202 82.7309 179.938 83.5163 179.938 83.5163L172.858 88.0772L169.082 87.6049C169.082 87.6049 168.61 82.7282 167.037 81.6271C165.463 80.526 170.972 78.3239 170.972 78.3239Z" fill="#A0616A"/>
<path id="Vector_37" d="M136.519 47.8062C136.519 47.8062 134.632 48.7507 134.003 50.6398C134.003 50.6398 130.554 51.7409 128.654 54.7285C128.654 54.7285 126.293 57.2464 125.979 58.504C125.666 59.7617 122.058 67.3128 122.058 67.3128C122.058 67.3128 118.438 79.1118 116.552 80.3694C116.552 80.3694 122.53 79.1118 123.631 85.0896C123.631 85.0896 125.045 85.0896 126.619 79.5841C128.192 74.0786 131.968 67.3128 131.968 67.3128C131.968 67.3128 133.226 62.5953 134.327 61.8073C135.428 61.0193 137.158 57.4029 138.732 58.3581C140.305 59.3133 150.688 58.1989 150.688 58.1989C150.688 58.1989 156.818 61.022 156.971 62.9084C157.125 64.7949 158.229 64.9541 158.386 66.5275C158.542 68.1008 164.364 80.526 164.364 80.526C164.364 80.526 165.465 83.9752 165.781 84.7712C165.781 84.7712 169.23 76.4347 173.805 81.1548C173.805 81.1548 173.646 78.008 172.231 76.1136C170.817 74.2192 164.68 59.4406 164.68 59.4406C164.68 59.4406 164.051 57.2384 163.422 56.6096C162.793 55.9808 157.913 50.9449 156.183 50.9449C156.183 50.9449 155.241 48.5862 154.14 48.2705L136.519 47.8062Z" fill="#3F3D56"/>
<path id="Vector_38" d="M122.361 86.5038C121.132 86.9971 119.796 87.1637 118.484 86.9875C117.172 86.8113 115.928 86.2982 114.873 85.4982C113.848 84.711 112.725 84.0599 111.532 83.5613C109.863 82.8874 107.868 82.3886 107.26 83.5162C106.159 85.5619 120.631 90.5951 120.631 90.5951C120.631 90.5951 122.52 89.494 122.361 86.5038Z" fill="#3F3D56"/>
<path id="Vector_39" d="M168.456 86.5038C169.685 86.9971 171.02 87.1637 172.332 86.9875C173.645 86.8113 174.889 86.2982 175.944 85.4982C176.969 84.711 178.092 84.0599 179.284 83.5613C180.953 82.8874 182.949 82.3886 183.557 83.5162C184.658 85.5619 170.186 90.5951 170.186 90.5951C170.186 90.5951 168.297 89.494 168.456 86.5038Z" fill="#3F3D56"/>
<path id="Vector_40" d="M141.661 21.9344C141.603 22.481 141.422 23.0726 140.955 23.3618C140.573 23.6006 140.09 23.5821 139.65 23.6723C139.187 23.7881 138.758 24.011 138.398 24.323C138.038 24.635 137.756 25.0274 137.575 25.4685C137.221 26.3587 137.152 27.3364 137.376 28.2677C137.48 28.7238 137.615 29.1723 137.779 29.6102C138.241 30.9156 138.798 32.2104 139.66 33.2956C140.396 34.1583 141.224 34.9385 142.128 35.6225C142.688 36.0788 143.266 36.5432 143.956 36.7581C144.424 36.8815 144.905 36.9457 145.389 36.9491C145.986 36.9756 146.623 36.9942 147.14 36.697C147.936 36.238 148.172 35.2245 148.605 34.4099C148.971 33.7201 149.518 33.1337 149.86 32.4306C150.103 31.8765 150.281 31.2959 150.391 30.7007L151.126 27.4372C151.391 26.2512 151.635 24.914 150.969 23.8978C150.921 23.8151 150.854 23.7451 150.773 23.6935C150.645 23.643 150.505 23.6292 150.37 23.6537C149.524 23.7087 148.68 23.516 147.942 23.0992C147.826 23.0393 147.722 22.9583 147.636 22.8604C147.53 22.6904 147.467 22.4975 147.451 22.2979C147.379 21.8936 147.265 21.4978 147.111 21.1172C147.068 20.98 146.988 20.8571 146.88 20.7617C146.767 20.6908 146.639 20.6481 146.506 20.637C145.37 20.4527 144.225 20.3331 143.075 20.2788C142.698 20.2602 142.131 20.109 141.871 20.4433C141.611 20.7776 141.693 21.5364 141.661 21.9344Z" fill="#A0616A"/>
<path id="Vector_41" opacity="0.1" d="M141.661 21.9344C141.603 22.481 141.422 23.0726 140.955 23.3618C140.573 23.6006 140.09 23.5821 139.65 23.6723C139.187 23.7881 138.758 24.011 138.398 24.323C138.038 24.635 137.756 25.0274 137.575 25.4685C137.221 26.3587 137.152 27.3364 137.376 28.2677C137.48 28.7238 137.615 29.1723 137.779 29.6102C138.241 30.9156 138.798 32.2104 139.66 33.2956C140.396 34.1583 141.224 34.9385 142.128 35.6225C142.688 36.0788 143.266 36.5432 143.956 36.7581C144.424 36.8815 144.905 36.9457 145.389 36.9491C145.986 36.9756 146.623 36.9942 147.14 36.697C147.936 36.238 148.172 35.2245 148.605 34.4099C148.971 33.7201 149.518 33.1337 149.86 32.4306C150.103 31.8765 150.281 31.2959 150.391 30.7007L151.126 27.4372C151.391 26.2512 151.635 24.914 150.969 23.8978C150.921 23.8151 150.854 23.7451 150.773 23.6935C150.645 23.643 150.505 23.6292 150.37 23.6537C149.524 23.7087 148.68 23.516 147.942 23.0992C147.826 23.0393 147.722 22.9583 147.636 22.8604C147.53 22.6904 147.467 22.4975 147.451 22.2979C147.379 21.8936 147.265 21.4978 147.111 21.1172C147.068 20.98 146.988 20.8571 146.88 20.7617C146.767 20.6908 146.639 20.6481 146.506 20.637C145.37 20.4527 144.225 20.3331 143.075 20.2788C142.698 20.2602 142.131 20.109 141.871 20.4433C141.611 20.7776 141.693 21.5364 141.661 21.9344Z" fill="black"/>
<path id="Vector_42" d="M139.531 23.8103C138.916 23.6268 138.28 23.5268 137.639 23.5131C136.121 23.476 134.497 23.9986 133.622 25.2377C133.025 26.1321 132.807 27.2261 133.014 28.281C133.225 29.326 133.7 30.2996 134.394 31.1093C134.794 31.535 135.15 32.0009 135.455 32.4996C135.874 33.2956 135.888 34.2481 136.002 35.1529C136.267 37.3073 137.185 39.3317 137.549 41.4729C137.912 43.6141 137.599 46.0949 135.909 47.456C135.625 47.6842 135.28 47.9256 135.256 48.2891C135.219 48.8702 135.975 49.1169 136.556 49.1726C138.294 49.3371 140.077 49.499 141.765 49.0506C142.463 48.8649 143.137 48.5756 143.848 48.443C145.652 48.106 147.467 48.7985 149.274 49.1302C150.582 49.346 151.905 49.4534 153.23 49.4512C153.539 49.4788 153.85 49.438 154.141 49.3318C154.285 49.2753 154.407 49.1744 154.49 49.0437C154.573 48.913 154.612 48.7593 154.602 48.6048C154.543 48.4048 154.436 48.2225 154.289 48.0742C153.376 46.9466 153.098 45.4475 152.848 44.0174L152.012 39.2123C151.564 36.644 151.147 33.8528 152.363 31.5471C153.236 29.8888 154.846 28.7214 155.767 27.0897C156.088 26.5965 156.233 26.0093 156.178 25.4234C156.04 24.6036 155.3 24.0172 154.541 23.6749C153.081 23.02 151.423 22.9591 149.919 23.5051C149.945 24.654 149.654 25.8161 149.465 26.9544L149.144 28.8116C148.981 29.9062 148.74 30.9878 148.425 32.0486C148.311 32.473 148.115 32.8712 147.849 33.2213C147.566 33.5363 147.22 33.7885 146.833 33.9616C145.995 34.3711 145.075 34.5817 144.142 34.5771C143.739 34.5833 143.337 34.5214 142.954 34.3941C142.336 34.1235 141.78 33.7319 141.317 33.2425C141.154 33.1038 141.009 32.9461 140.884 32.7729C140.752 32.5524 140.653 32.3138 140.589 32.0645C140.375 31.4155 140.205 30.7524 140.083 30.0799C140.003 29.5652 139.977 29.0425 139.939 28.5224C139.836 26.9862 139.836 25.2881 139.531 23.8103Z" fill="#4452FE"/>
<path id="Vector_43" d="M137.935 54.2562C137.935 54.2562 137.306 62.5954 141.239 64.0095C145.171 65.4237 141.711 57.0872 141.711 57.0872L140.451 54.572L137.935 54.2562Z" fill="#A0616A"/>
<path id="Vector_44" d="M151.307 54.2562C151.307 54.2562 151.936 62.5954 148.003 64.0095C144.071 65.4237 147.531 57.0872 147.531 57.0872L148.791 54.572L151.307 54.2562Z" fill="#A0616A"/>
<path id="Vector_45" opacity="0.1" d="M134.474 26.4237L133.216 28.4693C133.216 28.4693 134.317 35.5482 134.474 36.8058C134.609 37.7133 134.821 38.6079 135.105 39.4803C135.105 39.4803 135.262 43.2559 135.262 44.6727C135.262 46.0895 136.058 48.4483 136.058 48.4483C136.169 49.7855 136.436 51.1052 136.854 52.3804C137.483 54.1103 138.111 56.156 138.111 56.156C138.111 56.156 138.907 53.9538 142.044 57.257C142.395 56.9006 142.592 56.4203 142.592 55.9198C142.592 55.4194 142.395 54.939 142.044 54.5826C142.044 54.5826 141.102 50.3374 141.102 48.1325C141.102 45.9277 139.369 35.397 139.369 35.397C139.369 35.397 138.244 23.4255 134.474 26.4237Z" fill="black"/>
<path id="Vector_46" d="M134.16 26.2566L132.902 28.3022C132.902 28.3022 134.004 35.3811 134.16 36.6387C134.296 37.5464 134.508 38.441 134.794 39.3132C134.794 39.3132 134.951 43.0887 134.951 44.5029C134.951 45.9171 135.747 48.2785 135.747 48.2785C135.857 49.6159 136.124 50.9356 136.543 52.2106C137.172 53.9432 137.803 55.9862 137.803 55.9862C137.803 55.9862 138.599 53.784 141.736 57.0873C142.086 56.731 142.283 56.2512 142.283 55.7514C142.283 55.2516 142.086 54.7718 141.736 54.4155C141.736 54.4155 140.791 50.1703 140.791 47.9654C140.791 45.7606 139.061 35.2298 139.061 35.2298C139.061 35.2298 137.936 23.2663 134.16 26.2566Z" fill="#4452FE"/>
<path id="Vector_47" opacity="0.1" d="M154.926 25.1554L155.722 26.092C155.722 26.092 156.648 31.4463 154.603 38.2121L153.974 44.3464C153.974 44.3464 152.873 49.5388 152.716 50.7964C152.559 52.054 152.559 52.2106 152.244 52.6829C152.148 52.7933 152.095 52.9346 152.095 53.0808C152.095 53.2271 152.148 53.3684 152.244 53.4788L151.299 56.9281C151.299 56.9281 149.885 55.1981 147.054 57.4003C147.054 57.4003 146.258 56.1427 146.894 55.0416C147.531 53.9405 147.523 53.4682 147.367 53.1525C147.21 52.8367 147.996 51.266 147.996 50.9503C147.996 50.6346 149.105 43.4045 149.105 43.4045C149.105 43.4045 149.577 36.3256 150.049 33.9669C150.339 32.5155 150.333 29.2812 150.283 27.0048C150.232 24.6328 153.103 23.3486 154.794 25.0148C154.833 25.0573 154.881 25.0971 154.926 25.1554Z" fill="black"/>
<path id="Vector_48" d="M155.399 24.8317L156.195 25.7683C156.195 25.7683 157.121 31.1252 155.075 37.8883L154.446 44.0226C154.446 44.0226 153.345 49.2151 153.188 50.4727C153.032 51.7303 153.029 51.8895 152.716 52.3618C152.62 52.472 152.567 52.6134 152.567 52.7598C152.567 52.9062 152.62 53.0476 152.716 53.1578L151.777 56.6176C151.777 56.6176 150.362 54.885 147.531 57.0872C147.531 57.0872 146.735 55.8296 147.375 54.7285C148.014 53.6274 148.003 53.1551 147.847 52.842C147.69 52.529 148.476 50.9529 148.476 50.6398C148.476 50.3268 149.577 43.0887 149.577 43.0887C149.577 43.0887 150.049 36.0098 150.522 33.6485C150.994 31.2871 150.678 24.2109 150.678 24.2109C150.678 24.2109 153.196 22.4809 155.399 24.8317Z" fill="#4452FE"/>
<path id="Vector_49" d="M144.856 22.6401C148.332 22.6401 151.15 19.8224 151.15 16.3466C151.15 12.8708 148.332 10.0531 144.856 10.0531C141.38 10.0531 138.562 12.8708 138.562 16.3466C138.562 19.8224 141.38 22.6401 144.856 22.6401Z" fill="#A0616A"/>
<path id="Vector_50" opacity="0.1" d="M148.138 6.89836C147.836 7.74283 147.282 8.47478 146.553 8.99633C145.823 9.51787 144.951 9.80413 144.054 9.81682C143.157 9.82952 142.277 9.56804 141.533 9.06736C140.789 8.56668 140.215 7.85067 139.889 7.0151C142.346 6.02544 144.856 6.90632 144.856 6.90632C146.111 6.46588 147.199 6.50568 148.138 6.89836Z" fill="black"/>
<path id="Vector_51" d="M144.856 7.22209C144.856 7.22209 132.743 2.9769 135.734 23.582C135.734 23.582 138.408 25.3119 140.451 24.2108C140.451 24.2108 139.037 9.89656 144.543 10.5254C150.049 11.1542 149.104 23.8977 149.104 23.8977C149.104 23.8977 152.251 24.8396 153.196 23.1018C154.14 21.3639 152.88 4.40169 144.856 7.22209Z" fill="#3F3D56"/>
<path id="Vector_52" opacity="0.1" d="M144.543 9.58089C140.764 9.15107 140.244 15.755 140.297 19.9418C140.343 15.7789 141.043 10.1248 144.543 10.5254C148.473 10.9738 149.117 17.599 149.163 21.3507C149.208 17.9068 148.831 10.0717 144.543 9.58089Z" fill="black"/>
<path id="Vector_53" opacity="0.1" d="M135.733 22.6374C135.459 20.8337 135.302 19.0142 135.263 17.1903C135.25 19.3299 135.407 21.4672 135.733 23.582C135.733 23.582 138.408 25.3119 140.451 24.2108C140.451 24.2108 140.419 23.8712 140.382 23.3007C138.347 24.3275 135.733 22.6374 135.733 22.6374Z" fill="black"/>
<path id="Vector_54" opacity="0.1" d="M153.196 22.1785C152.315 23.7917 149.526 23.0833 149.15 22.9745C149.131 23.5582 149.104 23.9084 149.104 23.9084C149.104 23.9084 152.251 24.8503 153.196 23.1124C153.39 22.7569 153.491 21.7513 153.461 20.4061C153.435 21.2684 153.342 21.9132 153.196 22.1785Z" fill="black"/>
<path id="Vector_55" d="M219.367 178.553C220.625 176.223 219.197 173.368 217.557 171.291C215.918 169.213 213.914 167.046 213.957 164.392C214.018 160.585 218.056 158.34 221.285 156.321C223.679 154.824 225.887 153.049 227.863 151.033C228.659 150.224 229.421 149.359 229.885 148.324C230.554 146.839 230.535 145.141 230.493 143.517C230.353 138.085 230.088 132.66 229.697 127.242" stroke="#3F3D56" stroke-width="4" stroke-miterlimit="10"/>
<path id="Vector_56" d="M235.821 126.955C235.775 125.961 235.48 124.995 234.963 124.146C234.445 123.296 233.722 122.591 232.86 122.094L231.533 124.721L231.573 121.537C230.366 121.18 229.077 121.216 227.891 121.64C226.706 122.063 225.686 122.852 224.979 123.893C224.272 124.934 223.914 126.173 223.957 127.431C223.999 128.689 224.441 129.9 225.217 130.891C225.994 131.881 227.065 132.599 228.276 132.941C229.488 133.283 230.776 133.231 231.956 132.793C233.136 132.354 234.146 131.552 234.84 130.503C235.534 129.453 235.877 128.21 235.818 126.953L235.821 126.955Z" fill="#4452FE"/>
<path id="Vector_57" d="M225.239 167.123C224.616 168.333 223.596 169.293 222.35 169.841C221.104 170.388 219.707 170.491 218.394 170.131C217.082 169.772 215.932 168.971 215.139 167.865C214.347 166.758 213.958 165.413 214.04 164.054C214.121 162.696 214.668 161.406 215.587 160.402C216.507 159.399 217.743 158.742 219.09 158.541C220.436 158.341 221.811 158.61 222.982 159.303C224.154 159.996 225.052 161.071 225.525 162.347L221.81 165.364L225.889 164.416C225.891 165.357 225.668 166.285 225.239 167.123Z" fill="#4452FE"/>
<path id="Vector_58" d="M222.307 155.6C220.855 155.661 219.431 155.188 218.305 154.269C217.178 153.351 216.428 152.051 216.196 150.617C215.964 149.182 216.267 147.712 217.046 146.486C217.826 145.259 219.028 144.361 220.426 143.962L220.394 146.409L221.737 143.755H221.753C222.535 143.713 223.317 143.826 224.055 144.088C224.793 144.349 225.472 144.754 226.053 145.279C226.634 145.805 227.105 146.439 227.44 147.147C227.774 147.856 227.965 148.623 228.002 149.405C228.038 150.187 227.92 150.969 227.653 151.705C227.386 152.441 226.976 153.117 226.447 153.694C225.917 154.271 225.279 154.738 224.569 155.067C223.858 155.396 223.09 155.582 222.307 155.613V155.6Z" fill="#4452FE"/>
<path id="Vector_59" d="M236.715 146.013C235.797 146.056 234.882 145.886 234.041 145.515C233.2 145.144 232.457 144.582 231.87 143.875C231.283 143.168 230.869 142.335 230.659 141.44C230.449 140.545 230.45 139.614 230.661 138.72C230.872 137.826 231.288 136.993 231.876 136.286C232.465 135.58 233.209 135.02 234.05 134.651C234.891 134.281 235.807 134.112 236.725 134.156C237.643 134.201 238.538 134.458 239.34 134.907L238.278 137.78L240.435 135.711C241.299 136.503 241.909 137.533 242.188 138.671C242.467 139.81 242.403 141.005 242.004 142.107C241.604 143.208 240.888 144.167 239.944 144.863C239.001 145.558 237.873 145.958 236.702 146.013H236.715Z" fill="#4452FE"/>
<path id="Vector_60" opacity="0.1" d="M235.025 128.536C233.653 128.688 232.321 129.115 230.946 129.2C229.572 129.285 228.062 128.956 227.194 127.873C226.725 127.297 226.491 126.57 226.096 125.942C225.72 125.358 225.208 124.875 224.602 124.535C224.219 125.288 224.002 126.113 223.963 126.956C223.925 127.8 224.067 128.642 224.38 129.426C224.692 130.21 225.169 130.918 225.777 131.503C226.386 132.089 227.112 132.537 227.907 132.82C228.703 133.102 229.55 133.211 230.391 133.141C231.232 133.07 232.048 132.82 232.786 132.409C233.523 131.998 234.164 131.434 234.666 130.755C235.167 130.076 235.519 129.298 235.696 128.473C235.471 128.497 235.248 128.513 235.025 128.536Z" fill="black"/>
<path id="Vector_61" opacity="0.1" d="M236.715 146.013C235.692 146.06 234.675 145.842 233.761 145.38C232.847 144.917 232.068 144.227 231.5 143.375C230.932 142.523 230.594 141.539 230.518 140.518C230.443 139.497 230.632 138.473 231.069 137.547C231.541 137.864 231.947 138.27 232.263 138.743C232.685 139.38 232.942 140.118 233.438 140.704C234.362 141.789 235.943 142.145 237.376 142.081C238.809 142.018 240.188 141.609 241.621 141.476C241.82 141.46 242.019 141.447 242.221 141.442C241.926 142.699 241.228 143.826 240.235 144.651C239.241 145.476 238.005 145.954 236.715 146.013Z" fill="black"/>
<path id="Vector_62" opacity="0.1" d="M222.308 155.6C221.295 155.647 220.287 155.434 219.38 154.981C218.472 154.529 217.696 153.851 217.125 153.013C216.554 152.175 216.208 151.205 216.118 150.196C216.028 149.186 216.199 148.17 216.613 147.245C217.103 147.566 217.528 147.975 217.868 148.452C218.33 149.102 218.617 149.85 219.158 150.452C220.158 151.567 221.841 151.959 223.358 151.922C224.828 151.89 226.243 151.53 227.705 151.418C227.345 152.586 226.634 153.614 225.668 154.363C224.702 155.111 223.528 155.543 222.308 155.6Z" fill="black"/>
<path id="Vector_63" opacity="0.1" d="M225.24 167.123C224.552 168.486 223.365 169.533 221.925 170.043C220.485 170.554 218.904 170.491 217.511 169.866C216.117 169.241 215.018 168.102 214.442 166.687C213.866 165.273 213.858 163.69 214.419 162.27C214.908 162.591 215.347 162.982 215.722 163.432C216.287 164.119 216.658 164.899 217.314 165.539C218.526 166.73 220.485 167.221 222.228 167.266C223.234 167.277 224.239 167.229 225.24 167.123Z" fill="black"/>
<path id="Vector_64" d="M210.417 175.87C210.417 175.87 215.1 175.727 216.52 174.722C217.939 173.716 223.727 172.517 224.077 174.127C224.427 175.738 231.116 182.145 225.828 182.188C220.54 182.23 213.54 181.365 212.131 180.506C210.722 179.646 210.417 175.87 210.417 175.87Z" fill="#656380"/>
<path id="Vector_65" opacity="0.2" d="M225.913 181.639C220.625 181.681 213.625 180.813 212.216 179.956C211.155 179.301 210.717 176.958 210.574 175.876H210.417C210.417 175.876 210.714 179.654 212.123 180.511C213.532 181.368 220.532 182.236 225.82 182.193C227.346 182.193 227.874 181.639 227.845 180.835C227.632 181.315 227.051 181.617 225.913 181.639Z" fill="black"/>
<path id="Vector_66" d="M85.7057 11.3718L80.8632 14.4416L83.8032 9.09535C82.9736 8.43204 81.9465 8.0642 80.8844 8.04997H80.8048C80.469 8.05467 80.1333 8.02981 79.8018 7.97568L78.1594 9.01575L78.8625 7.73689C77.7002 7.33077 76.6956 6.56853 75.9915 5.55857L73.0542 7.41584L74.9116 4.04092C73.1921 1.97934 70.8784 0.713745 68.3284 0.713745C65.2743 0.713745 62.5545 2.53122 60.798 5.36223C60.2785 6.2087 59.5444 6.90285 58.6703 7.37437C57.7961 7.8459 56.8129 8.07805 55.8201 8.04732H55.6556C52.2831 8.04732 49.5527 11.8706 49.5527 16.5881C49.5527 21.3056 52.2858 25.1263 55.6556 25.1263C56.3958 25.1241 57.1243 24.942 57.7784 24.5956C59.9781 23.4521 62.865 23.4308 65.1682 24.4523C66.1556 24.8964 67.2257 25.1272 68.3084 25.1295C69.3911 25.1318 70.4622 24.9055 71.4515 24.4656C73.7387 23.4653 76.5912 23.4866 78.7776 24.6089C79.4263 24.9521 80.148 25.1341 80.8818 25.1395C84.2543 25.1395 86.9847 21.3162 86.9847 16.6014C87.0049 14.7784 86.565 12.9798 85.7057 11.3718Z" fill="#F2F2F2"/>
<path id="Vector_67" opacity="0.03" d="M76.5758 23.8659C74.814 23.5309 72.9922 23.7286 71.3433 24.4337C70.3543 24.8733 69.2838 25.0993 68.2015 25.097C67.1193 25.0947 66.0497 24.8642 65.0626 24.4205C62.7568 23.399 59.8698 23.4202 57.6701 24.5637C57.0161 24.9101 56.2875 25.0922 55.5474 25.0944C52.5517 25.0944 50.0601 22.075 49.54 18.0951C50.1385 17.6592 50.6467 17.1114 51.0366 16.482C52.8038 13.6536 55.5129 11.8308 58.567 11.8308C61.6211 11.8308 64.309 13.6271 66.0656 16.4262C66.5898 17.272 67.3234 17.9681 68.1954 18.4473C69.0675 18.9266 70.0484 19.1726 71.0434 19.1617H71.1124C73.5005 19.1644 75.5702 21.0774 76.5758 23.8659Z" fill="black"/>
<path id="Vector_68" d="M212.293 17.6228L209.886 19.1538L211.354 16.5005C210.939 16.1654 210.424 15.9786 209.892 15.9699H209.854C209.686 15.9722 209.519 15.9598 209.353 15.9327L208.533 16.4634L208.878 15.8107C208.298 15.6087 207.797 15.2289 207.445 14.7255L205.98 15.6541L206.906 13.972C206.517 13.4691 206.02 13.0592 205.452 12.7719C204.885 12.4847 204.26 12.3272 203.624 12.311C202.098 12.311 200.742 13.2184 199.867 14.63C199.607 15.0504 199.24 15.3945 198.804 15.6275C198.367 15.8605 197.877 15.974 197.383 15.9566H197.301C195.619 15.9566 194.255 17.8643 194.255 20.2018C194.255 22.5393 195.619 24.4603 197.301 24.4603C197.671 24.459 198.035 24.3679 198.362 24.1949C198.935 23.9168 199.561 23.7663 200.197 23.754C200.834 23.7416 201.465 23.8676 202.048 24.1233C202.541 24.3428 203.075 24.4563 203.615 24.4563C204.155 24.4563 204.689 24.3428 205.182 24.1233C205.76 23.8727 206.386 23.7494 207.016 23.7618C207.647 23.7742 208.267 23.9219 208.835 24.1949C209.163 24.368 209.527 24.4591 209.897 24.4603C211.579 24.4603 212.943 22.5552 212.943 20.2018C212.945 19.3013 212.722 18.4145 212.293 17.6228Z" fill="#F2F2F2"/>
<path id="Vector_69" opacity="0.03" d="M207.742 23.8553C206.864 23.6894 205.956 23.7882 205.134 24.1392C204.64 24.3587 204.107 24.4722 203.567 24.4722C203.027 24.4722 202.493 24.3587 202 24.1392C201.417 23.8835 200.785 23.7574 200.148 23.7698C199.511 23.7822 198.885 23.9326 198.312 24.2108C197.985 24.3845 197.62 24.4756 197.25 24.4762C195.754 24.4762 194.512 22.9718 194.252 20.9871C194.55 20.7716 194.803 20.5015 195 20.1912C195.876 18.7796 197.234 17.8749 198.757 17.8749C200.281 17.8749 201.621 18.769 202.496 20.1646C202.757 20.5868 203.123 20.9342 203.559 21.1732C203.994 21.4121 204.483 21.5345 204.98 21.5284H205.02C206.211 21.5098 207.233 22.465 207.742 23.8553Z" fill="black"/>
<path id="Vector_70" d="M54.2206 57.273L58.1105 59.7352L55.7542 55.4502C56.4224 54.9184 57.2486 54.6243 58.1025 54.6144H58.1636C58.4301 54.6184 58.6965 54.5989 58.9596 54.5561L60.273 55.3892L59.7026 54.365C60.6331 54.0379 61.4376 53.4273 62.0031 52.6192L64.3567 54.1103L62.8867 51.4067C64.2638 49.7563 66.1185 48.7534 68.159 48.7534C70.6081 48.7534 72.7866 50.2074 74.1956 52.468C74.6107 53.1454 75.1974 53.7011 75.8963 54.0789C76.5952 54.4568 77.3815 54.6433 78.1757 54.6197H78.3084C81.0096 54.6197 83.1987 57.6816 83.1987 61.4598C83.1987 65.238 81.0096 68.3025 78.3084 68.3025C77.7135 68.3002 77.128 68.1536 76.6022 67.8754C75.6827 67.4286 74.677 67.187 73.6549 67.1673C72.6327 67.1476 71.6185 67.3503 70.6824 67.7613C69.8893 68.1157 69.0304 68.299 68.1617 68.299C67.293 68.299 66.434 68.1157 65.6409 67.7613C64.7115 67.3587 63.7065 67.1606 62.6938 67.1802C61.6812 67.1999 60.6846 67.437 59.7715 67.8754C59.251 68.1463 58.6734 68.2891 58.0866 68.2919C55.3828 68.2919 53.1937 65.2301 53.1937 61.4492C53.181 59.9931 53.5341 58.5571 54.2206 57.273Z" fill="#F2F2F2"/>
<path id="Vector_71" opacity="0.03" d="M61.5303 67.2837C62.9421 67.0176 64.4012 67.1764 65.7227 67.74C66.5158 68.0945 67.3747 68.2777 68.2434 68.2777C69.1122 68.2777 69.9711 68.0945 70.7642 67.74C71.7007 67.329 72.7154 67.1263 73.738 67.146C74.7606 67.1657 75.7667 67.4073 76.6867 67.8541C77.2115 68.1324 77.7961 68.279 78.3902 68.2813C80.7915 68.2813 82.7869 65.8642 83.2035 62.675C82.7243 62.3243 82.3171 61.8847 82.0041 61.3802C80.5952 59.1143 78.4167 57.6656 75.9676 57.6656C73.5185 57.6656 71.3692 59.1037 69.9602 61.3484C69.541 62.0246 68.9544 62.5813 68.2572 62.9647C67.56 63.3482 66.7757 63.5454 65.9801 63.5373H65.919C63.9926 63.5187 62.3369 65.0523 61.5303 67.2837Z" fill="black"/>
</g>
</g>
<defs>
<clipPath id="clip0">
<rect width="294" height="194" fill="white"/>
</clipPath>
</defs>
</svg>
