<svg width="295" height="194" viewBox="0 0 295 194" fill="none" xmlns="http://www.w3.org/2000/svg">
<g id="Cards" clip-path="url(#clip0)">
<g id="undraw_react_y7wq (1) 1" clip-path="url(#clip1)">
<path id="Vector" d="M204.199 87.7667L206.027 87.0503C206.202 86.9813 206.375 86.907 206.558 86.8354C203.174 85.5898 200.315 83.23 198.451 80.1441C196.587 77.0583 195.829 73.43 196.3 69.8558C196.772 66.2817 198.446 62.9744 201.047 60.4778C203.648 57.9813 207.021 56.444 210.612 56.1188L209.338 62.5396L214.173 56.1931H214.215C218.389 56.7668 222.163 58.9744 224.709 62.3304C227.255 65.6864 228.363 69.9161 227.79 74.0892C227.751 74.389 227.687 74.6809 227.631 74.9754C229.12 73.8 230.515 72.5026 231.561 70.9955C233.684 67.9337 234.403 64.1608 235.135 59.5415C236.586 50.3931 237.895 41.1438 239.073 31.8999C235.455 30.8085 232.345 28.4627 230.303 25.2839C228.26 22.1052 227.418 18.3021 227.928 14.5583C227.995 14.0754 228.088 13.6058 228.194 13.1415C228.22 13.0248 228.247 12.908 228.276 12.7939C228.39 12.3455 228.517 11.9051 228.666 11.4673C228.69 11.3957 228.722 11.3293 228.746 11.2603C228.878 10.8969 229.011 10.5387 229.183 10.199C229.242 10.0664 229.3 9.93372 229.361 9.80902C229.544 9.42961 229.738 9.05816 229.95 8.69731C230.022 8.57792 230.099 8.46383 230.17 8.34443C230.335 8.07911 230.507 7.81378 230.685 7.56703C230.781 7.43437 230.874 7.30171 230.972 7.1717L231.043 7.06822C233.296 4.1196 236.512 2.0537 240.13 1.22964C243.748 0.405592 247.541 0.87551 250.849 2.5577L249.193 10.9128L253.969 4.6405C256.538 6.81686 258.344 9.7575 259.123 13.033C259.902 16.3085 259.614 19.7472 258.3 22.8471H258.318C258.273 22.9532 258.217 23.054 258.172 23.1602C258.085 23.3565 257.994 23.5502 257.907 23.7439C257.785 23.9906 257.641 24.2321 257.522 24.4709C257.421 24.6513 257.323 24.8317 257.214 25.0015C257.058 25.2668 256.888 25.5056 256.718 25.7524C256.617 25.8956 256.524 26.0442 256.421 26.1849C256.156 26.5537 255.858 26.9065 255.556 27.2462C255.45 27.3655 255.336 27.4743 255.224 27.5911C255.009 27.8193 254.794 28.0448 254.566 28.2597C254.425 28.3924 254.277 28.525 254.131 28.6471C253.921 28.8328 253.706 29.0132 253.486 29.1777C253.33 29.3024 253.17 29.4218 253.011 29.5386C252.78 29.7057 252.547 29.8623 252.311 30.0188C252.152 30.1223 251.992 30.2257 251.83 30.3239C251.565 30.4858 251.286 30.6343 251.008 30.7803C250.867 30.8519 250.743 30.9315 250.586 31.0005C250.167 31.2048 249.737 31.3932 249.299 31.5603C249.217 31.5922 249.129 31.616 249.047 31.6452C248.681 31.7779 248.312 31.9106 247.938 32.0034C247.776 32.0485 247.611 32.0857 247.447 32.1255C247.142 32.1998 246.834 32.2687 246.524 32.3271C246.347 32.359 246.164 32.3881 245.974 32.4147C245.669 32.4598 245.361 32.4943 245.051 32.5208C244.868 32.5367 244.687 32.5526 244.502 32.5633C244.167 32.5792 243.83 32.5818 243.493 32.5792C243.471 32.5778 243.449 32.5778 243.427 32.5792C242.928 36.4706 242.405 40.362 241.856 44.2535C243.143 42.5164 244.771 41.0604 246.641 39.9749C248.51 38.8894 250.582 38.1973 252.729 37.9409C254.875 37.6845 257.052 37.8693 259.124 38.4839C261.197 39.0986 263.122 40.1301 264.782 41.5153L260.621 48.5676L267.311 44.1659C269.84 47.5131 270.937 51.7271 270.362 55.8826C270.166 57.3417 269.764 58.7656 269.168 60.1119C267.891 63.027 265.767 65.491 263.073 67.1841C260.378 68.8773 257.236 69.7214 254.056 69.607C250.875 69.4926 247.802 68.4249 245.236 66.5425C242.67 64.6601 240.729 62.0499 239.664 59.0506C239.603 59.4433 239.545 59.8466 239.484 60.2339C238.837 64.3067 238.033 69.377 235.178 73.5002C233.243 76.302 230.579 78.3715 227.989 80.1917C226.305 81.3768 224.582 82.5062 222.82 83.5799C220.971 85.2946 218.74 86.5443 216.312 87.2254C213.481 88.6741 210.59 89.9839 207.638 91.1549L205.793 91.8766C204.135 92.5239 202.437 93.1873 200.752 93.893C201.017 93.9169 201.283 93.9381 201.548 93.9726C204.887 94.4311 207.993 95.9388 210.419 98.2781C212.845 100.617 214.464 103.667 215.043 106.987L203.817 113.118L215.009 112.617C214.561 115.099 213.521 117.436 211.979 119.431C209.448 122.706 205.738 124.865 201.64 125.447C197.541 126.028 193.377 124.987 190.035 122.545L190.592 123.583C190.963 124.267 191.33 124.949 191.685 125.626C196.549 134.843 196.902 142.803 192.68 148.043L189.231 145.27C193.341 140.171 190.08 132.065 187.771 127.687C187.421 127.024 187.06 126.361 186.71 125.682C183.587 119.89 180.045 113.325 181.464 106.339C183.587 95.806 195.01 91.3486 204.199 87.7667Z" fill="#F2F2F2"/>
<path id="Vector_2" d="M72.0361 137.706L70.6086 137.146C70.4706 137.093 70.3432 137.032 70.2 136.979C72.8413 136.005 75.0728 134.162 76.5277 131.752C77.9826 129.342 78.5744 126.508 78.2058 123.718C77.8373 120.927 76.5303 118.344 74.4996 116.395C72.469 114.445 69.8354 113.244 67.0318 112.989L68.0268 118.003L64.2536 113.047H64.2191C62.6042 113.267 61.0486 113.804 59.6411 114.626C58.2336 115.448 57.0019 116.539 56.0163 117.837C55.0306 119.135 54.3104 120.614 53.8967 122.191C53.4831 123.767 53.3841 125.41 53.6054 127.024C53.6372 127.26 53.6877 127.486 53.7301 127.717C52.5594 126.837 51.5258 125.788 50.6628 124.604C49.0097 122.217 48.4418 119.266 47.8687 115.66C46.7463 108.515 45.7274 101.293 44.8119 94.0815C47.6361 93.2278 50.0632 91.3949 51.6571 88.9122C53.2509 86.4295 53.9069 83.4597 53.5072 80.5367C53.4542 80.16 53.3825 79.7938 53.2976 79.4303L53.2339 79.165C53.1437 78.8148 53.0455 78.4698 52.9288 78.1355C52.9102 78.0798 52.8863 78.0267 52.8651 77.9737C52.7616 77.6898 52.6475 77.4112 52.5255 77.1379C52.4777 77.0371 52.4326 76.9336 52.3848 76.8328C52.2415 76.5383 52.0903 76.2491 51.9258 75.9678C51.8701 75.8723 51.809 75.7821 51.7533 75.7025C51.6233 75.4955 51.488 75.2912 51.35 75.0949C51.2757 74.9914 51.2041 74.8853 51.1271 74.7845L51.0714 74.7049C49.3119 72.4024 46.8018 70.7884 43.9767 70.1428C41.1516 69.4973 38.1896 69.861 35.6045 71.1708L36.8994 77.6977L33.166 72.7998C31.1599 74.4997 29.7496 76.7961 29.141 79.3541C28.5324 81.912 28.7573 84.5975 29.7829 87.0186H29.7696C29.8041 87.1008 29.8466 87.1804 29.8837 87.2627C29.9527 87.4166 30.0217 87.5678 30.096 87.719C30.1915 87.9101 30.2924 88.0985 30.3985 88.2842C30.4755 88.4275 30.5524 88.5681 30.6373 88.706C30.7594 88.905 30.9027 89.0987 31.0247 89.2924C31.1043 89.4039 31.176 89.5206 31.2582 89.6294C31.4705 89.9159 31.696 90.1919 31.9322 90.4598C32.0145 90.5527 32.1047 90.6376 32.1975 90.7252C32.3647 90.9029 32.5345 91.0781 32.7123 91.2558C32.8211 91.362 32.9378 91.4601 33.0519 91.5583C33.2165 91.7051 33.3836 91.8457 33.5534 91.9802C33.6755 92.0757 33.8002 92.1685 33.9249 92.2614C34.1054 92.3914 34.2884 92.5267 34.4715 92.6355C34.5962 92.7178 34.7209 92.7974 34.8483 92.8743C35.0579 93.0017 35.2729 93.1157 35.4904 93.2298C35.6019 93.2882 35.708 93.3492 35.8195 93.405C36.1485 93.5641 36.4828 93.7101 36.8251 93.8401C36.8888 93.8666 36.9578 93.8825 37.0215 93.9064C37.3054 94.0099 37.5946 94.1054 37.8891 94.1877C38.0139 94.2221 38.1545 94.2513 38.2712 94.2805C38.51 94.3389 38.7489 94.3946 38.993 94.4397L39.4202 94.5087C39.659 94.5432 39.9004 94.5697 40.1419 94.591C40.2852 94.6042 40.4258 94.6148 40.5718 94.6228C40.8371 94.6361 41.1024 94.6387 41.3678 94.6361H41.4182C41.8074 97.682 42.216 100.725 42.6441 103.766C41.6409 102.407 40.3707 101.268 38.9113 100.418C37.4519 99.568 35.8342 99.0252 34.1574 98.823C32.4807 98.6207 30.7803 98.7633 29.1606 99.2419C27.541 99.7205 26.0362 100.525 24.7387 101.606L27.96 107.082L22.7381 103.646C21.7586 104.94 21.0435 106.414 20.6338 107.984C20.224 109.555 20.1276 111.19 20.35 112.798C20.504 113.938 20.8194 115.051 21.2866 116.103C22.2841 118.38 23.9427 120.304 26.0472 121.626C28.1518 122.949 30.6052 123.608 33.0891 123.519C35.573 123.429 37.9728 122.596 39.9771 121.126C41.9813 119.656 43.4975 117.618 44.329 115.276C44.3768 115.581 44.4219 115.891 44.4696 116.199C44.9738 119.383 45.6027 123.342 47.8315 126.568C49.344 128.754 51.4243 130.37 53.4462 131.792C54.7623 132.719 56.1076 133.603 57.4821 134.445C58.9271 135.784 60.6696 136.761 62.566 137.295C64.7737 138.425 67.0344 139.455 69.3429 140.362L70.7811 140.927C72.0759 141.431 73.4026 141.949 74.7108 142.501C74.5038 142.519 74.2942 142.535 74.0846 142.564C71.4783 142.921 69.053 144.097 67.1586 145.922C65.2643 147.747 63.9989 150.127 63.5452 152.718L72.3015 157.494L63.5611 157.104C63.9459 159.166 64.8468 161.096 66.1799 162.715C67.5129 164.335 69.2345 165.59 71.184 166.363C73.1335 167.137 75.2472 167.404 77.3279 167.14C79.4086 166.875 81.3884 166.088 83.0824 164.852C82.9364 165.117 82.7931 165.382 82.6472 165.661C82.358 166.191 82.0714 166.722 81.7928 167.253C77.9957 174.451 77.7198 180.67 81.018 184.764L83.7059 182.599C80.4953 178.619 83.0426 172.286 84.8469 168.866C85.1122 168.349 85.4015 167.826 85.6854 167.3C88.1239 162.79 90.8887 157.651 89.7876 152.193C88.1398 143.984 79.211 140.513 72.0361 137.706Z" fill="#F2F2F2"/>
<path id="Vector_3" d="M147.5 194C228.686 194 294.5 191.208 294.5 187.765C294.5 184.321 228.686 181.53 147.5 181.53C66.3141 181.53 0.5 184.321 0.5 187.765C0.5 191.208 66.3141 194 147.5 194Z" fill="#3F3D56"/>
<path id="Vector_4" opacity="0.1" d="M147.5 194C228.686 194 294.5 191.208 294.5 187.765C294.5 184.321 228.686 181.53 147.5 181.53C66.3141 181.53 0.5 184.321 0.5 187.765C0.5 191.208 66.3141 194 147.5 194Z" fill="black"/>
<path id="Vector_5" d="M147.5 190.551C228.686 190.551 294.5 187.759 294.5 184.316C294.5 180.872 228.686 178.081 147.5 178.081C66.3141 178.081 0.5 180.872 0.5 184.316C0.5 187.759 66.3141 190.551 147.5 190.551Z" fill="#3F3D56"/>
<path id="Vector_6" d="M23.0538 182.098C22.2578 180.636 23.16 178.845 24.1895 177.539C25.219 176.234 26.4741 174.886 26.4476 173.217C26.4104 170.829 23.8737 169.42 21.8492 168.155C20.347 167.215 18.9611 166.101 17.7204 164.835C17.2018 164.348 16.7726 163.773 16.4521 163.137C16.0328 162.203 16.0461 161.142 16.0726 160.118C16.1611 156.711 16.3291 153.308 16.5768 149.908" stroke="#3F3D56" stroke-width="4" stroke-miterlimit="10"/>
<path id="Vector_7" d="M12.7351 149.72C12.7638 149.097 12.949 148.491 13.2736 147.958C13.5982 147.425 14.0518 146.983 14.5925 146.671L15.4257 148.319L15.4018 146.324C15.7992 146.206 16.2136 146.155 16.6277 146.175C17.3609 146.211 18.067 146.463 18.6569 146.9C19.2468 147.337 19.6941 147.939 19.9423 148.629C20.1905 149.32 20.2284 150.069 20.0514 150.781C19.8743 151.494 19.4902 152.138 18.9475 152.632C18.4048 153.126 17.7278 153.448 17.0021 153.558C16.2763 153.668 15.5343 153.56 14.8696 153.249C14.205 152.937 13.6475 152.436 13.2676 151.808C12.8878 151.18 12.7025 150.453 12.7351 149.72Z" fill="#4452FE"/>
<path id="Vector_8" d="M19.3771 174.926C19.7472 175.662 20.3517 176.255 21.0955 176.61C21.8393 176.965 22.6801 177.063 23.4855 176.888C24.291 176.713 25.0154 176.275 25.5446 175.643C26.0738 175.011 26.3778 174.221 26.4087 173.398C26.4352 172.883 26.3529 172.369 26.1672 171.888C25.9003 171.177 25.4218 170.564 24.7961 170.134C24.1704 169.703 23.4277 169.474 22.6681 169.479C21.9084 169.483 21.1684 169.72 20.5477 170.158C19.927 170.596 19.4555 171.214 19.1967 171.928L21.5237 173.819L18.9658 173.225C18.9644 173.817 19.1055 174.4 19.3771 174.926Z" fill="#4452FE"/>
<path id="Vector_9" d="M21.2159 167.696C22.1438 167.766 23.0643 167.485 23.7953 166.909C24.5262 166.333 25.0144 165.504 25.1631 164.586C25.3119 163.667 25.1105 162.726 24.5987 161.949C24.0869 161.172 23.302 160.615 22.3993 160.389L22.4179 161.925L21.5741 160.256C20.5871 160.21 19.6222 160.558 18.8917 161.223C18.1612 161.888 17.725 162.816 17.6789 163.803C17.6328 164.79 17.9806 165.755 18.646 166.486C19.3113 167.216 20.2395 167.652 21.2265 167.698L21.2159 167.696Z" fill="#4452FE"/>
<path id="Vector_10" d="M12.1748 161.681C12.6627 161.704 13.1502 161.63 13.6097 161.465C14.0692 161.3 14.4917 161.045 14.8529 160.717C15.2141 160.388 15.507 159.991 15.715 159.55C15.9229 159.108 16.0418 158.629 16.0648 158.141C16.0877 157.654 16.0144 157.166 15.849 156.707C15.6836 156.247 15.4292 155.825 15.1005 155.464C14.7719 155.102 14.3752 154.809 13.9333 154.601C13.4914 154.394 13.0129 154.275 12.5251 154.252C11.8286 154.217 11.1367 154.381 10.5297 154.724L11.1877 156.528L9.83184 155.228C9.10665 155.892 8.67439 156.817 8.62984 157.799C8.61186 158.142 8.64404 158.487 8.72536 158.821C8.91057 159.608 9.34765 160.313 9.97023 160.829C10.5928 161.346 11.3669 161.645 12.1748 161.681Z" fill="#4452FE"/>
<path id="Vector_11" opacity="0.1" d="M13.2363 150.712C14.0961 150.808 14.9319 151.076 15.7943 151.129C16.6566 151.182 17.6039 150.975 18.1505 150.306C18.445 149.943 18.591 149.487 18.8377 149.094C19.0741 148.727 19.3966 148.424 19.7771 148.21C20.0017 148.68 20.1252 149.192 20.1394 149.712C20.1536 150.232 20.0582 150.75 19.8595 151.231C19.6608 151.712 19.3631 152.146 18.9858 152.505C18.6084 152.864 18.1599 153.139 17.6693 153.314C17.1787 153.488 16.6569 153.557 16.1378 153.517C15.6187 153.476 15.1139 153.327 14.6562 153.079C14.1984 152.831 13.7979 152.49 13.4806 152.077C13.1633 151.664 12.9364 151.189 12.8145 150.683C12.9551 150.688 13.0957 150.699 13.2363 150.712Z" fill="black"/>
<path id="Vector_12" opacity="0.1" d="M12.1749 161.681C12.8172 161.713 13.4569 161.579 14.0315 161.29C14.6061 161.001 15.0958 160.568 15.4529 160.033C15.8099 159.498 16.0219 158.88 16.0683 158.239C16.1146 157.597 15.9937 156.955 15.7172 156.374C15.4216 156.574 15.1675 156.829 14.969 157.125C14.7036 157.526 14.5418 157.987 14.2313 158.356C13.6502 159.038 12.6605 159.261 11.761 159.219C10.8614 159.176 9.99378 158.924 9.10753 158.842C8.98282 158.842 8.85811 158.821 8.7334 158.818C8.91772 159.604 9.35341 160.309 9.97443 160.826C10.5955 161.343 11.368 161.643 12.1749 161.681Z" fill="black"/>
<path id="Vector_13" opacity="0.1" d="M21.2154 167.696C21.8519 167.728 22.4862 167.597 23.0571 167.314C23.628 167.03 24.1165 166.605 24.4755 166.078C24.8344 165.552 25.0519 164.942 25.1069 164.307C25.1619 163.672 25.0527 163.033 24.7896 162.453C24.4802 162.654 24.2104 162.91 23.9936 163.209C23.7043 163.618 23.5239 164.087 23.1975 164.464C22.5713 165.165 21.5153 165.411 20.5627 165.387C19.6101 165.363 18.753 165.141 17.835 165.072C18.0591 165.804 18.5042 166.45 19.1093 166.919C19.7145 167.389 20.4501 167.66 21.2154 167.696Z" fill="black"/>
<path id="Vector_14" opacity="0.1" d="M19.377 174.926C19.747 175.662 20.3515 176.255 21.0953 176.61C21.8391 176.965 22.6799 177.063 23.4854 176.888C24.2908 176.713 25.0152 176.275 25.5444 175.643C26.0736 175.011 26.3776 174.221 26.4085 173.398C26.435 172.883 26.3528 172.368 26.1671 171.888C25.8603 172.088 25.5849 172.333 25.3498 172.615C24.9943 173.047 24.7634 173.535 24.3521 173.941C23.5906 174.69 22.3621 175.003 21.2688 175.027C20.6368 175.029 20.0051 174.996 19.377 174.926Z" fill="black"/>
<path id="Vector_15" d="M28.6765 180.415C28.6765 180.415 25.7365 180.325 24.8529 179.694C23.9693 179.062 20.3421 178.309 20.1113 179.322C19.8804 180.336 15.6933 184.363 19.0127 184.379C22.3322 184.395 26.7236 183.849 27.6072 183.318C28.4908 182.787 28.6765 180.415 28.6765 180.415Z" fill="#656380"/>
<path id="Vector_16" opacity="0.2" d="M18.9527 184.026C22.2722 184.053 26.6636 183.496 27.5498 182.965C28.2212 182.557 28.4892 181.084 28.5794 180.405H28.6776C28.6776 180.405 28.4918 182.774 27.6162 183.323C26.7406 183.873 22.3385 184.406 19.0217 184.385C18.0638 184.385 17.7322 184.037 17.7507 183.53C17.8754 183.83 18.2416 184.026 18.9527 184.026Z" fill="black"/>
<path id="Vector_17" d="M280.437 184.485C279.641 183.024 280.543 181.233 281.572 179.927C282.602 178.622 283.857 177.274 283.83 175.605C283.793 173.217 281.257 171.808 279.232 170.543C277.73 169.603 276.344 168.489 275.103 167.223C274.585 166.736 274.155 166.161 273.835 165.525C273.416 164.591 273.429 163.53 273.455 162.506C273.542 159.099 273.71 155.696 273.96 152.296" stroke="#3F3D56" stroke-width="4" stroke-miterlimit="10"/>
<path id="Vector_18" d="M270.118 152.108C270.146 151.485 270.332 150.879 270.656 150.346C270.981 149.813 271.434 149.371 271.975 149.059L272.808 150.707L272.784 148.712C273.182 148.594 273.596 148.543 274.01 148.563C274.743 148.6 275.449 148.852 276.039 149.289C276.628 149.726 277.075 150.328 277.323 151.019C277.571 151.71 277.608 152.459 277.431 153.171C277.254 153.883 276.869 154.526 276.327 155.02C275.784 155.514 275.107 155.836 274.381 155.946C273.655 156.056 272.913 155.948 272.249 155.636C271.585 155.325 271.027 154.823 270.647 154.195C270.268 153.567 270.082 152.841 270.115 152.108H270.118Z" fill="#4452FE"/>
<path id="Vector_19" d="M276.759 177.314C277.129 178.05 277.734 178.643 278.477 178.998C279.221 179.353 280.062 179.451 280.867 179.276C281.673 179.101 282.397 178.663 282.926 178.031C283.456 177.399 283.76 176.609 283.791 175.786C283.817 175.271 283.735 174.757 283.549 174.276C283.282 173.565 282.804 172.952 282.178 172.522C281.552 172.091 280.81 171.862 280.05 171.867C279.29 171.871 278.55 172.108 277.93 172.546C277.309 172.984 276.837 173.601 276.579 174.316L278.906 176.207L276.348 175.613C276.346 176.205 276.487 176.788 276.759 177.314Z" fill="#4452FE"/>
<path id="Vector_20" d="M278.598 170.084C279.526 170.154 280.446 169.873 281.177 169.297C281.908 168.721 282.396 167.892 282.545 166.974C282.694 166.055 282.492 165.114 281.981 164.337C281.469 163.56 280.684 163.003 279.781 162.777L279.8 164.313L278.956 162.644C277.969 162.598 277.004 162.946 276.274 163.611C275.543 164.276 275.107 165.204 275.061 166.191C275.015 167.178 275.362 168.143 276.028 168.874C276.693 169.604 277.621 170.04 278.608 170.086L278.598 170.084Z" fill="#4452FE"/>
<path id="Vector_21" d="M269.558 164.069C270.543 164.115 271.506 163.768 272.236 163.105C272.965 162.441 273.401 161.514 273.448 160.529C273.494 159.544 273.147 158.581 272.483 157.851C271.82 157.122 270.893 156.686 269.908 156.64C269.211 156.605 268.52 156.769 267.913 157.112L268.571 158.916L267.215 157.616C266.489 158.28 266.057 159.205 266.013 160.187C265.995 160.53 266.027 160.875 266.108 161.209C266.293 161.996 266.73 162.701 267.353 163.217C267.976 163.734 268.75 164.032 269.558 164.069Z" fill="#4452FE"/>
<path id="Vector_22" opacity="0.1" d="M270.619 153.1C271.479 153.196 272.315 153.464 273.177 153.517C274.039 153.57 274.987 153.363 275.533 152.694C275.828 152.331 275.974 151.874 276.221 151.482C276.457 151.115 276.779 150.812 277.16 150.598C277.385 151.068 277.508 151.579 277.522 152.1C277.536 152.62 277.441 153.138 277.242 153.619C277.044 154.1 276.746 154.534 276.369 154.893C275.991 155.252 275.543 155.527 275.052 155.701C274.562 155.876 274.04 155.945 273.521 155.905C273.002 155.864 272.497 155.715 272.039 155.467C271.581 155.219 271.181 154.878 270.863 154.465C270.546 154.052 270.319 153.577 270.197 153.071C270.338 153.076 270.479 153.087 270.619 153.1Z" fill="black"/>
<path id="Vector_23" opacity="0.1" d="M269.558 164.069C270.2 164.101 270.84 163.967 271.414 163.678C271.989 163.389 272.479 162.956 272.836 162.421C273.193 161.886 273.405 161.268 273.451 160.627C273.497 159.985 273.376 159.343 273.1 158.762C272.804 158.962 272.55 159.217 272.352 159.513C272.086 159.914 271.925 160.375 271.614 160.744C271.033 161.426 270.043 161.649 269.144 161.606C268.244 161.564 267.377 161.312 266.49 161.23C266.366 161.23 266.241 161.208 266.116 161.206C266.301 161.992 266.736 162.697 267.357 163.214C267.978 163.73 268.751 164.031 269.558 164.069Z" fill="black"/>
<path id="Vector_24" opacity="0.1" d="M278.598 170.084C279.235 170.116 279.869 169.985 280.44 169.701C281.011 169.418 281.499 168.993 281.858 168.466C282.217 167.94 282.435 167.33 282.49 166.695C282.545 166.06 282.436 165.421 282.172 164.841C281.863 165.042 281.593 165.298 281.376 165.597C281.087 166.006 280.907 166.475 280.58 166.852C279.954 167.552 278.898 167.799 277.946 167.775C276.993 167.751 276.136 167.529 275.218 167.46C275.442 168.192 275.887 168.838 276.492 169.307C277.097 169.777 277.833 170.048 278.598 170.084Z" fill="black"/>
<path id="Vector_25" opacity="0.1" d="M276.76 177.314C277.13 178.05 277.734 178.643 278.478 178.998C279.222 179.353 280.063 179.451 280.868 179.276C281.674 179.101 282.398 178.663 282.927 178.031C283.456 177.399 283.76 176.609 283.791 175.785C283.818 175.271 283.736 174.756 283.55 174.276C283.243 174.476 282.968 174.721 282.733 175.003C282.377 175.435 282.146 175.923 281.735 176.329C280.973 177.078 279.745 177.391 278.652 177.415C278.02 177.417 277.388 177.383 276.76 177.314Z" fill="black"/>
<path id="Vector_26" d="M286.059 182.803C286.059 182.803 283.119 182.713 282.236 182.082C281.352 181.45 277.725 180.697 277.494 181.71C277.263 182.724 273.076 186.751 276.396 186.767C279.715 186.783 284.106 186.237 284.99 185.706C285.874 185.175 286.059 182.803 286.059 182.803Z" fill="#656380"/>
<path id="Vector_27" opacity="0.2" d="M276.335 186.414C279.654 186.441 284.045 185.884 284.932 185.353C285.603 184.945 285.871 183.472 285.961 182.793H286.059C286.059 182.793 285.874 185.162 284.998 185.711C284.122 186.261 279.72 186.794 276.404 186.773C275.446 186.773 275.114 186.425 275.133 185.918C275.257 186.218 275.623 186.414 276.335 186.414Z" fill="black"/>
<path id="Vector_28" d="M198.332 87.8622C196.577 87.2608 194.808 86.7037 193.025 86.1907C193.318 84.9897 193.592 83.7824 193.845 82.569C197.862 63.065 195.235 47.3525 186.264 42.1813C177.661 37.2197 163.593 42.3936 149.381 54.755C147.98 55.9791 146.612 57.2349 145.276 58.5226C144.379 57.6648 143.468 56.8237 142.543 55.9994C127.655 42.7783 112.74 37.2091 103.766 42.3962C95.1716 47.371 92.6216 62.1417 96.2435 80.6268C96.5973 82.4576 97.0033 84.2777 97.4615 86.0872C95.352 86.6868 93.3115 87.3263 91.3586 88.0082C73.9017 94.0814 62.752 103.633 62.752 113.527C62.752 123.745 74.7216 133.994 92.9055 140.208C94.3808 140.709 95.8668 141.174 97.3633 141.604C96.8786 143.549 96.447 145.511 96.0684 147.489C92.619 165.653 95.3148 180.076 103.885 185.019C112.74 190.129 127.599 184.876 142.066 172.23C143.209 171.23 144.356 170.169 145.515 169.06C146.962 170.455 148.447 171.81 149.97 173.124C163.986 185.183 177.831 190.055 186.391 185.096C195.235 179.978 198.109 164.483 194.378 145.634C194.095 144.194 193.765 142.725 193.388 141.227C194.434 140.919 195.456 140.6 196.456 140.269C215.359 134.007 227.66 123.883 227.66 113.527C227.66 103.596 216.149 93.9939 198.34 87.8622H198.332Z" fill="#53C1DE"/>
<path id="Vector_29" d="M194.232 133.583C193.33 133.883 192.407 134.169 191.462 134.451C189.157 127.306 186.367 120.326 183.112 113.562C186.243 106.887 188.925 100.01 191.138 92.9776C192.823 93.4658 194.463 93.9806 196.039 94.5245C211.299 99.7753 220.607 107.541 220.607 113.527C220.607 119.895 210.553 128.176 194.232 133.583ZM187.461 147.003C189.111 155.337 189.344 162.872 188.257 168.76C187.275 174.053 185.301 177.582 182.86 178.996C177.661 182.002 166.549 178.094 154.563 167.781C153.189 166.597 151.806 165.337 150.416 164C155.413 158.468 160.031 152.605 164.238 146.451C171.753 145.814 179.215 144.662 186.572 143.002C186.908 144.36 187.206 145.687 187.466 146.982L187.461 147.003ZM118.97 178.481C113.892 180.275 109.848 180.325 107.404 178.916C102.203 175.915 100.041 164.323 102.991 148.802C103.345 146.968 103.746 145.143 104.193 143.328C111.52 144.901 118.944 145.976 126.416 146.547C130.746 152.679 135.475 158.52 140.572 164.032C139.548 165.024 138.5 165.989 137.43 166.926C131.033 172.519 124.619 176.478 118.97 178.481ZM95.1849 133.543C87.1423 130.794 80.5035 127.223 75.9502 123.328C71.8612 119.826 69.7969 116.347 69.7969 113.527C69.7969 107.523 78.7495 99.8628 93.6777 94.6598C95.5528 94.0071 97.4447 93.4119 99.3534 92.8742C101.571 99.9845 104.256 106.941 107.391 113.697C104.217 120.55 101.499 127.605 99.2552 134.817C97.8861 134.426 96.5293 134.001 95.1849 133.543ZM103.158 79.2736C100.059 63.4364 102.116 51.4888 107.295 48.496C112.812 45.3121 125.009 49.8544 137.868 61.2714C138.691 62.001 139.516 62.7651 140.341 63.5532C135.28 69.0311 130.589 74.8385 126.296 80.9372C118.895 81.6009 111.545 82.7433 104.291 84.3573C103.869 82.6733 103.491 80.9797 103.158 79.2763V79.2736ZM174.3 96.8355C172.688 94.0513 171.017 91.3026 169.287 88.5892C174.549 89.2551 179.588 90.136 184.322 91.2185C182.802 96.0369 181.041 100.775 179.044 105.416C177.521 102.524 175.939 99.6638 174.3 96.8355ZM145.282 68.5864C148.711 72.3248 151.949 76.2335 154.985 80.2978C148.491 79.9918 141.995 79.9918 135.496 80.2978C138.698 76.0738 141.981 72.147 145.282 68.589V68.5864ZM116.094 96.8832C114.475 99.6903 112.923 102.533 111.437 105.411C109.386 100.547 107.632 95.7635 106.199 91.1442C110.904 90.0829 115.921 89.2313 121.149 88.5759C119.394 91.307 117.707 94.0761 116.089 96.8832H116.094ZM121.297 138.977C116.195 138.423 111.125 137.607 106.106 136.533C107.563 131.834 109.357 126.947 111.453 121.978C112.944 124.859 114.502 127.703 116.126 130.51C117.778 133.374 119.5 136.196 121.292 138.977H121.297ZM145.481 158.964C142.137 155.371 138.807 151.391 135.559 147.091C138.717 147.216 141.933 147.279 145.207 147.279C148.568 147.279 151.886 147.205 155.16 147.056C152.138 151.188 148.905 155.163 145.475 158.964H145.481ZM179.097 121.726C181.198 126.46 183.05 131.301 184.648 136.228C179.567 137.371 174.43 138.247 169.258 138.852C171 136.088 172.688 133.29 174.321 130.46C175.98 127.584 177.572 124.672 179.097 121.726ZM168.218 126.942C165.72 131.279 163.084 135.533 160.308 139.704C155.415 140.054 150.36 140.235 145.207 140.235C140.054 140.235 135.085 140.075 130.277 139.762C127.43 135.606 124.742 131.345 122.213 126.982C119.683 122.618 117.338 118.189 115.178 113.694C117.349 109.178 119.687 104.747 122.191 100.401C124.693 96.0572 127.358 91.812 130.186 87.6658C135.092 87.2944 140.118 87.1007 145.202 87.1007C150.286 87.1007 155.343 87.297 160.244 87.6685C163.041 91.8022 165.694 96.0306 168.205 100.354C170.715 104.677 173.084 109.087 175.313 113.585C173.111 118.117 170.748 122.566 168.226 126.931L168.218 126.942ZM182.751 48.2837C188.273 51.4676 190.419 64.3093 186.951 81.1495C186.723 82.2444 186.475 83.3366 186.208 84.4262C178.944 82.7795 171.579 81.6158 164.161 80.9425C159.91 74.8384 155.253 69.027 150.222 63.5478C151.461 62.3557 152.725 61.1962 154.014 60.0694C166.188 49.475 177.566 45.2935 182.751 48.2837Z" fill="white"/>
<path id="Vector_30" d="M145.202 98.8015C148.115 98.8015 150.962 99.6651 153.384 101.283C155.806 102.901 157.693 105.201 158.808 107.892C159.922 110.583 160.214 113.543 159.646 116.4C159.077 119.256 157.675 121.88 155.615 123.94C153.556 125.999 150.932 127.401 148.075 127.97C145.218 128.538 142.257 128.246 139.567 127.132C136.876 126.017 134.576 124.13 132.957 121.708C131.339 119.286 130.476 116.439 130.476 113.527C130.475 111.593 130.856 109.678 131.596 107.891C132.336 106.105 133.421 104.481 134.788 103.114C136.156 101.746 137.779 100.662 139.566 99.9217C141.353 99.1818 143.268 98.8012 145.202 98.8015Z" fill="#53C1DE"/>
<path id="Vector_31" d="M148.896 5.41262C148.896 6.28372 148.638 7.13527 148.154 7.85956C147.67 8.58386 146.982 9.14838 146.177 9.48174C145.372 9.8151 144.487 9.90232 143.632 9.73238C142.778 9.56243 141.993 9.14295 141.377 8.52699C140.761 7.91103 140.342 7.12624 140.172 6.27187C140.002 5.4175 140.089 4.53193 140.422 3.72713C140.756 2.92234 141.32 2.23446 142.045 1.7505C142.769 1.26654 143.62 1.00823 144.492 1.00823C145.071 1.00542 145.645 1.11742 146.181 1.33777C146.716 1.55811 147.203 1.88243 147.612 2.29198C148.022 2.70152 148.346 3.18818 148.567 3.72381C148.787 4.25945 148.899 4.83344 148.896 5.41262Z" fill="#3F3D56"/>
<path id="Vector_32" d="M140.972 6.52438C140.623 5.89348 140.434 5.18659 140.422 4.46564C140.409 3.74469 140.574 3.03168 140.901 2.38907C141.228 1.74645 141.707 1.19385 142.298 0.779659C142.888 0.365472 143.571 0.102342 144.286 0.0133186C143.68 -0.0079316 143.075 0.0965095 142.51 0.320084C141.946 0.543658 141.434 0.881536 141.006 1.3125C140.578 1.74346 140.244 2.2582 140.025 2.8244C139.806 3.39059 139.706 3.99601 139.732 4.60263C139.757 5.20924 139.908 5.80397 140.175 6.34944C140.442 6.89491 140.818 7.37936 141.281 7.77235C141.744 8.16535 142.283 8.4584 142.865 8.63311C143.446 8.80783 144.058 8.86042 144.661 8.7876C143.903 8.75962 143.165 8.5366 142.519 8.14012C141.873 7.74363 141.34 7.18711 140.972 6.52438Z" fill="#3F3D56"/>
<path id="Vector_33" d="M150.785 11.5469H138.985V29.9524H150.785V11.5469Z" fill="#3F3D56"/>
<path id="Vector_34" opacity="0.1" d="M150.785 11.5469H138.985V29.9524H150.785V11.5469Z" fill="black"/>
<path id="Vector_35" d="M120.345 78.3239C120.345 78.3239 119.084 81.7863 116.099 82.2586C113.114 82.7309 111.379 83.5163 111.379 83.5163L118.458 88.0772L122.234 87.6049C122.234 87.6049 122.706 82.7282 124.28 81.6271C125.853 80.526 120.345 78.3239 120.345 78.3239Z" fill="#A0616A"/>
<path id="Vector_36" d="M171.472 78.3239C171.472 78.3239 172.732 81.7863 175.717 82.2586C178.702 82.7309 180.438 83.5163 180.438 83.5163L173.358 88.0772L169.582 87.6049C169.582 87.6049 169.11 82.7282 167.537 81.6271C165.963 80.526 171.472 78.3239 171.472 78.3239Z" fill="#A0616A"/>
<path id="Vector_37" d="M137.019 47.8062C137.019 47.8062 135.132 48.7507 134.503 50.6398C134.503 50.6398 131.054 51.7409 129.154 54.7285C129.154 54.7285 126.793 57.2464 126.479 58.504C126.166 59.7617 122.558 67.3128 122.558 67.3128C122.558 67.3128 118.938 79.1118 117.052 80.3694C117.052 80.3694 123.03 79.1118 124.131 85.0896C124.131 85.0896 125.545 85.0896 127.119 79.5841C128.692 74.0786 132.468 67.3128 132.468 67.3128C132.468 67.3128 133.726 62.5953 134.827 61.8073C135.928 61.0193 137.658 57.4029 139.232 58.3581C140.805 59.3133 151.188 58.1989 151.188 58.1989C151.188 58.1989 157.318 61.022 157.471 62.9084C157.625 64.7949 158.729 64.9541 158.886 66.5275C159.042 68.1008 164.864 80.526 164.864 80.526C164.864 80.526 165.965 83.9752 166.281 84.7712C166.281 84.7712 169.73 76.4347 174.305 81.1548C174.305 81.1548 174.146 78.008 172.731 76.1136C171.317 74.2192 165.18 59.4406 165.18 59.4406C165.18 59.4406 164.551 57.2384 163.922 56.6096C163.293 55.9808 158.413 50.9449 156.683 50.9449C156.683 50.9449 155.741 48.5862 154.64 48.2705L137.019 47.8062Z" fill="#3F3D56"/>
<path id="Vector_38" d="M122.861 86.5038C121.632 86.9971 120.296 87.1637 118.984 86.9875C117.672 86.8113 116.428 86.2982 115.373 85.4982C114.348 84.711 113.225 84.0599 112.032 83.5613C110.363 82.8874 108.368 82.3886 107.76 83.5162C106.659 85.5619 121.131 90.5951 121.131 90.5951C121.131 90.5951 123.02 89.494 122.861 86.5038Z" fill="#3F3D56"/>
<path id="Vector_39" d="M168.956 86.5038C170.185 86.9971 171.52 87.1637 172.832 86.9875C174.145 86.8113 175.389 86.2982 176.444 85.4982C177.469 84.711 178.592 84.0599 179.784 83.5613C181.453 82.8874 183.449 82.3886 184.057 83.5162C185.158 85.5619 170.686 90.5951 170.686 90.5951C170.686 90.5951 168.797 89.494 168.956 86.5038Z" fill="#3F3D56"/>
<path id="Vector_40" d="M142.161 21.9344C142.103 22.481 141.922 23.0726 141.455 23.3618C141.073 23.6006 140.59 23.5821 140.15 23.6723C139.687 23.7881 139.258 24.011 138.898 24.323C138.538 24.635 138.256 25.0274 138.075 25.4685C137.721 26.3587 137.652 27.3364 137.876 28.2677C137.98 28.7238 138.115 29.1723 138.279 29.6102C138.741 30.9156 139.298 32.2104 140.16 33.2956C140.896 34.1583 141.724 34.9385 142.628 35.6225C143.188 36.0788 143.766 36.5432 144.456 36.7581C144.924 36.8815 145.405 36.9457 145.889 36.9491C146.486 36.9756 147.123 36.9942 147.64 36.697C148.436 36.238 148.672 35.2245 149.105 34.4099C149.471 33.7201 150.018 33.1337 150.36 32.4306C150.603 31.8765 150.781 31.2959 150.891 30.7007L151.626 27.4372C151.891 26.2512 152.135 24.914 151.469 23.8978C151.421 23.8151 151.354 23.7451 151.273 23.6935C151.145 23.643 151.005 23.6292 150.87 23.6537C150.024 23.7087 149.18 23.516 148.442 23.0992C148.326 23.0393 148.222 22.9583 148.136 22.8604C148.03 22.6904 147.967 22.4975 147.951 22.2979C147.879 21.8936 147.765 21.4978 147.611 21.1172C147.568 20.98 147.488 20.8571 147.38 20.7617C147.267 20.6908 147.139 20.6481 147.006 20.637C145.87 20.4527 144.725 20.3331 143.575 20.2788C143.198 20.2602 142.631 20.109 142.371 20.4433C142.111 20.7776 142.193 21.5364 142.161 21.9344Z" fill="#A0616A"/>
<path id="Vector_41" opacity="0.1" d="M142.161 21.9344C142.103 22.481 141.922 23.0726 141.455 23.3618C141.073 23.6006 140.59 23.5821 140.15 23.6723C139.687 23.7881 139.258 24.011 138.898 24.323C138.538 24.635 138.256 25.0274 138.075 25.4685C137.721 26.3587 137.652 27.3364 137.876 28.2677C137.98 28.7238 138.115 29.1723 138.279 29.6102C138.741 30.9156 139.298 32.2104 140.16 33.2956C140.896 34.1583 141.724 34.9385 142.628 35.6225C143.188 36.0788 143.766 36.5432 144.456 36.7581C144.924 36.8815 145.405 36.9457 145.889 36.9491C146.486 36.9756 147.123 36.9942 147.64 36.697C148.436 36.238 148.672 35.2245 149.105 34.4099C149.471 33.7201 150.018 33.1337 150.36 32.4306C150.603 31.8765 150.781 31.2959 150.891 30.7007L151.626 27.4372C151.891 26.2512 152.135 24.914 151.469 23.8978C151.421 23.8151 151.354 23.7451 151.273 23.6935C151.145 23.643 151.005 23.6292 150.87 23.6537C150.024 23.7087 149.18 23.516 148.442 23.0992C148.326 23.0393 148.222 22.9583 148.136 22.8604C148.03 22.6904 147.967 22.4975 147.951 22.2979C147.879 21.8936 147.765 21.4978 147.611 21.1172C147.568 20.98 147.488 20.8571 147.38 20.7617C147.267 20.6908 147.139 20.6481 147.006 20.637C145.87 20.4527 144.725 20.3331 143.575 20.2788C143.198 20.2602 142.631 20.109 142.371 20.4433C142.111 20.7776 142.193 21.5364 142.161 21.9344Z" fill="black"/>
<path id="Vector_42" d="M140.031 23.8103C139.416 23.6268 138.78 23.5268 138.139 23.5131C136.621 23.476 134.997 23.9986 134.122 25.2377C133.525 26.1321 133.307 27.2261 133.514 28.281C133.725 29.326 134.2 30.2996 134.894 31.1093C135.294 31.535 135.65 32.0009 135.955 32.4996C136.374 33.2956 136.388 34.2481 136.502 35.1529C136.767 37.3073 137.685 39.3317 138.049 41.4729C138.412 43.6141 138.099 46.0949 136.409 47.456C136.125 47.6842 135.78 47.9256 135.756 48.2891C135.719 48.8702 136.475 49.1169 137.056 49.1726C138.794 49.3371 140.577 49.499 142.265 49.0506C142.963 48.8649 143.637 48.5756 144.348 48.443C146.152 48.106 147.967 48.7985 149.774 49.1302C151.082 49.346 152.405 49.4534 153.73 49.4512C154.039 49.4788 154.35 49.438 154.641 49.3318C154.785 49.2753 154.907 49.1744 154.99 49.0437C155.073 48.913 155.112 48.7593 155.102 48.6048C155.043 48.4048 154.936 48.2225 154.789 48.0742C153.876 46.9466 153.598 45.4475 153.348 44.0174L152.512 39.2123C152.064 36.644 151.647 33.8528 152.863 31.5471C153.736 29.8888 155.346 28.7214 156.267 27.0897C156.588 26.5965 156.733 26.0093 156.678 25.4234C156.54 24.6036 155.8 24.0172 155.041 23.6749C153.581 23.02 151.923 22.9591 150.419 23.5051C150.445 24.654 150.154 25.8161 149.965 26.9544L149.644 28.8116C149.481 29.9062 149.24 30.9878 148.925 32.0486C148.811 32.473 148.615 32.8712 148.349 33.2213C148.066 33.5363 147.72 33.7885 147.333 33.9616C146.495 34.3711 145.575 34.5817 144.642 34.5771C144.239 34.5833 143.837 34.5214 143.454 34.3941C142.836 34.1235 142.28 33.7319 141.817 33.2425C141.654 33.1038 141.509 32.9461 141.384 32.7729C141.252 32.5524 141.153 32.3138 141.089 32.0645C140.875 31.4155 140.705 30.7524 140.583 30.0799C140.503 29.5652 140.477 29.0425 140.439 28.5224C140.336 26.9862 140.336 25.2881 140.031 23.8103Z" fill="#4452FE"/>
<path id="Vector_43" d="M138.435 54.2562C138.435 54.2562 137.806 62.5954 141.739 64.0095C145.671 65.4237 142.211 57.0872 142.211 57.0872L140.951 54.572L138.435 54.2562Z" fill="#A0616A"/>
<path id="Vector_44" d="M151.807 54.2562C151.807 54.2562 152.436 62.5954 148.503 64.0095C144.571 65.4237 148.031 57.0872 148.031 57.0872L149.291 54.572L151.807 54.2562Z" fill="#A0616A"/>
<path id="Vector_45" opacity="0.1" d="M134.974 26.4237L133.716 28.4693C133.716 28.4693 134.817 35.5482 134.974 36.8058C135.109 37.7133 135.321 38.6079 135.605 39.4803C135.605 39.4803 135.762 43.2559 135.762 44.6727C135.762 46.0895 136.558 48.4483 136.558 48.4483C136.669 49.7855 136.936 51.1052 137.354 52.3804C137.983 54.1103 138.611 56.156 138.611 56.156C138.611 56.156 139.407 53.9538 142.544 57.257C142.895 56.9006 143.092 56.4203 143.092 55.9198C143.092 55.4194 142.895 54.939 142.544 54.5826C142.544 54.5826 141.602 50.3374 141.602 48.1325C141.602 45.9277 139.869 35.397 139.869 35.397C139.869 35.397 138.744 23.4255 134.974 26.4237Z" fill="black"/>
<path id="Vector_46" d="M134.66 26.2566L133.402 28.3022C133.402 28.3022 134.504 35.3811 134.66 36.6387C134.796 37.5464 135.008 38.441 135.294 39.3132C135.294 39.3132 135.451 43.0887 135.451 44.5029C135.451 45.9171 136.247 48.2785 136.247 48.2785C136.357 49.6159 136.624 50.9356 137.043 52.2106C137.672 53.9432 138.303 55.9862 138.303 55.9862C138.303 55.9862 139.099 53.784 142.236 57.0873C142.586 56.731 142.783 56.2512 142.783 55.7514C142.783 55.2516 142.586 54.7718 142.236 54.4155C142.236 54.4155 141.291 50.1703 141.291 47.9654C141.291 45.7606 139.561 35.2298 139.561 35.2298C139.561 35.2298 138.436 23.2663 134.66 26.2566Z" fill="#4452FE"/>
<path id="Vector_47" opacity="0.1" d="M155.426 25.1554L156.222 26.092C156.222 26.092 157.148 31.4463 155.103 38.2121L154.474 44.3464C154.474 44.3464 153.373 49.5388 153.216 50.7964C153.059 52.054 153.059 52.2106 152.744 52.6829C152.648 52.7933 152.595 52.9346 152.595 53.0808C152.595 53.2271 152.648 53.3684 152.744 53.4788L151.799 56.9281C151.799 56.9281 150.385 55.1981 147.554 57.4003C147.554 57.4003 146.758 56.1427 147.394 55.0416C148.031 53.9405 148.023 53.4682 147.867 53.1525C147.71 52.8367 148.496 51.266 148.496 50.9503C148.496 50.6346 149.605 43.4045 149.605 43.4045C149.605 43.4045 150.077 36.3256 150.549 33.9669C150.839 32.5155 150.833 29.2812 150.783 27.0048C150.732 24.6328 153.603 23.3486 155.294 25.0148C155.333 25.0573 155.381 25.0971 155.426 25.1554Z" fill="black"/>
<path id="Vector_48" d="M155.899 24.8317L156.695 25.7683C156.695 25.7683 157.621 31.1252 155.575 37.8883L154.946 44.0226C154.946 44.0226 153.845 49.2151 153.688 50.4727C153.532 51.7303 153.529 51.8895 153.216 52.3618C153.12 52.472 153.067 52.6134 153.067 52.7598C153.067 52.9062 153.12 53.0476 153.216 53.1578L152.277 56.6176C152.277 56.6176 150.862 54.885 148.031 57.0872C148.031 57.0872 147.235 55.8296 147.875 54.7285C148.514 53.6274 148.503 53.1551 148.347 52.842C148.19 52.529 148.976 50.9529 148.976 50.6398C148.976 50.3268 150.077 43.0887 150.077 43.0887C150.077 43.0887 150.549 36.0098 151.022 33.6485C151.494 31.2871 151.178 24.2109 151.178 24.2109C151.178 24.2109 153.696 22.4809 155.899 24.8317Z" fill="#4452FE"/>
<path id="Vector_49" d="M145.356 22.6401C148.832 22.6401 151.65 19.8224 151.65 16.3466C151.65 12.8708 148.832 10.0531 145.356 10.0531C141.88 10.0531 139.062 12.8708 139.062 16.3466C139.062 19.8224 141.88 22.6401 145.356 22.6401Z" fill="#A0616A"/>
<path id="Vector_50" opacity="0.1" d="M148.638 6.89836C148.336 7.74283 147.782 8.47478 147.053 8.99633C146.323 9.51787 145.451 9.80413 144.554 9.81682C143.657 9.82952 142.777 9.56804 142.033 9.06736C141.289 8.56668 140.715 7.85067 140.389 7.0151C142.846 6.02544 145.356 6.90632 145.356 6.90632C146.611 6.46588 147.699 6.50568 148.638 6.89836Z" fill="black"/>
<path id="Vector_51" d="M145.356 7.22209C145.356 7.22209 133.243 2.9769 136.234 23.582C136.234 23.582 138.908 25.3119 140.951 24.2108C140.951 24.2108 139.537 9.89656 145.043 10.5254C150.549 11.1542 149.604 23.8977 149.604 23.8977C149.604 23.8977 152.751 24.8396 153.696 23.1018C154.64 21.3639 153.38 4.40169 145.356 7.22209Z" fill="#3F3D56"/>
<path id="Vector_52" opacity="0.1" d="M145.043 9.58089C141.264 9.15107 140.744 15.755 140.797 19.9418C140.843 15.7789 141.543 10.1248 145.043 10.5254C148.973 10.9738 149.617 17.599 149.663 21.3507C149.708 17.9068 149.331 10.0717 145.043 9.58089Z" fill="black"/>
<path id="Vector_53" opacity="0.1" d="M136.233 22.6374C135.959 20.8337 135.802 19.0142 135.763 17.1903C135.75 19.3299 135.907 21.4672 136.233 23.582C136.233 23.582 138.908 25.3119 140.951 24.2108C140.951 24.2108 140.919 23.8712 140.882 23.3007C138.847 24.3275 136.233 22.6374 136.233 22.6374Z" fill="black"/>
<path id="Vector_54" opacity="0.1" d="M153.696 22.1785C152.815 23.7917 150.026 23.0833 149.65 22.9745C149.631 23.5582 149.604 23.9084 149.604 23.9084C149.604 23.9084 152.751 24.8503 153.696 23.1124C153.89 22.7569 153.991 21.7513 153.961 20.4061C153.935 21.2684 153.842 21.9132 153.696 22.1785Z" fill="black"/>
<path id="Vector_55" d="M219.867 178.553C221.125 176.223 219.697 173.368 218.057 171.291C216.418 169.213 214.414 167.046 214.457 164.392C214.518 160.585 218.556 158.34 221.785 156.321C224.179 154.824 226.387 153.049 228.363 151.033C229.159 150.224 229.921 149.359 230.385 148.324C231.054 146.839 231.035 145.141 230.993 143.517C230.853 138.085 230.588 132.66 230.197 127.242" stroke="#3F3D56" stroke-width="4" stroke-miterlimit="10"/>
<path id="Vector_56" d="M236.321 126.955C236.275 125.961 235.98 124.995 235.463 124.146C234.945 123.296 234.222 122.591 233.36 122.094L232.033 124.721L232.073 121.537C230.866 121.18 229.577 121.216 228.391 121.64C227.206 122.063 226.186 122.852 225.479 123.893C224.772 124.934 224.414 126.173 224.457 127.431C224.499 128.689 224.941 129.9 225.717 130.891C226.494 131.881 227.565 132.599 228.776 132.941C229.988 133.283 231.276 133.231 232.456 132.793C233.636 132.354 234.646 131.552 235.34 130.503C236.034 129.453 236.377 128.21 236.318 126.953L236.321 126.955Z" fill="#4452FE"/>
<path id="Vector_57" d="M225.739 167.123C225.116 168.333 224.096 169.293 222.85 169.841C221.604 170.388 220.207 170.491 218.894 170.131C217.582 169.772 216.432 168.971 215.639 167.865C214.847 166.758 214.458 165.413 214.54 164.054C214.621 162.696 215.168 161.406 216.087 160.402C217.007 159.399 218.243 158.742 219.59 158.541C220.936 158.341 222.311 158.61 223.482 159.303C224.654 159.996 225.552 161.071 226.025 162.347L222.31 165.364L226.389 164.416C226.391 165.357 226.168 166.285 225.739 167.123Z" fill="#4452FE"/>
<path id="Vector_58" d="M222.807 155.6C221.355 155.661 219.931 155.188 218.805 154.269C217.678 153.351 216.928 152.051 216.696 150.617C216.464 149.182 216.767 147.712 217.546 146.486C218.326 145.259 219.528 144.361 220.926 143.962L220.894 146.409L222.237 143.755H222.253C223.035 143.713 223.817 143.826 224.555 144.088C225.293 144.349 225.972 144.754 226.553 145.279C227.134 145.805 227.605 146.439 227.94 147.147C228.274 147.856 228.465 148.623 228.502 149.405C228.538 150.187 228.42 150.969 228.153 151.705C227.886 152.441 227.476 153.117 226.947 153.694C226.417 154.271 225.779 154.738 225.069 155.067C224.358 155.396 223.59 155.582 222.807 155.613V155.6Z" fill="#4452FE"/>
<path id="Vector_59" d="M237.215 146.013C236.297 146.056 235.382 145.886 234.541 145.515C233.7 145.144 232.957 144.582 232.37 143.875C231.783 143.168 231.369 142.335 231.159 141.44C230.949 140.545 230.95 139.614 231.161 138.72C231.372 137.826 231.788 136.993 232.376 136.286C232.965 135.58 233.709 135.02 234.55 134.651C235.391 134.281 236.307 134.112 237.225 134.156C238.143 134.201 239.038 134.458 239.84 134.907L238.778 137.78L240.935 135.711C241.799 136.503 242.409 137.533 242.688 138.671C242.967 139.81 242.903 141.005 242.504 142.107C242.104 143.208 241.388 144.167 240.444 144.863C239.501 145.558 238.373 145.958 237.202 146.013H237.215Z" fill="#4452FE"/>
<path id="Vector_60" opacity="0.1" d="M235.525 128.536C234.153 128.688 232.821 129.115 231.446 129.2C230.072 129.285 228.562 128.956 227.694 127.873C227.225 127.297 226.991 126.57 226.596 125.942C226.22 125.358 225.708 124.875 225.102 124.535C224.719 125.288 224.502 126.113 224.463 126.956C224.425 127.8 224.567 128.642 224.88 129.426C225.192 130.21 225.669 130.918 226.277 131.503C226.886 132.089 227.612 132.537 228.407 132.82C229.203 133.102 230.05 133.211 230.891 133.141C231.732 133.07 232.548 132.82 233.286 132.409C234.023 131.998 234.664 131.434 235.166 130.755C235.667 130.076 236.019 129.298 236.196 128.473C235.971 128.497 235.748 128.513 235.525 128.536Z" fill="black"/>
<path id="Vector_61" opacity="0.1" d="M237.215 146.013C236.192 146.06 235.175 145.842 234.261 145.38C233.347 144.917 232.568 144.227 232 143.375C231.432 142.523 231.094 141.539 231.018 140.518C230.943 139.497 231.132 138.473 231.569 137.547C232.041 137.864 232.447 138.27 232.763 138.743C233.185 139.38 233.442 140.118 233.938 140.704C234.862 141.789 236.443 142.145 237.876 142.081C239.309 142.018 240.688 141.609 242.121 141.476C242.32 141.46 242.519 141.447 242.721 141.442C242.426 142.699 241.728 143.826 240.735 144.651C239.741 145.476 238.505 145.954 237.215 146.013Z" fill="black"/>
<path id="Vector_62" opacity="0.1" d="M222.808 155.6C221.795 155.647 220.787 155.434 219.88 154.981C218.972 154.529 218.196 153.851 217.625 153.013C217.054 152.175 216.708 151.205 216.618 150.196C216.528 149.186 216.699 148.17 217.113 147.245C217.603 147.566 218.028 147.975 218.368 148.452C218.83 149.102 219.117 149.85 219.658 150.452C220.658 151.567 222.341 151.959 223.858 151.922C225.328 151.89 226.743 151.53 228.205 151.418C227.845 152.586 227.134 153.614 226.168 154.363C225.202 155.111 224.028 155.543 222.808 155.6Z" fill="black"/>
<path id="Vector_63" opacity="0.1" d="M225.74 167.123C225.052 168.486 223.865 169.533 222.425 170.043C220.985 170.554 219.404 170.491 218.011 169.866C216.617 169.241 215.518 168.102 214.942 166.687C214.366 165.273 214.358 163.69 214.919 162.27C215.408 162.591 215.847 162.982 216.222 163.432C216.787 164.119 217.158 164.899 217.814 165.539C219.026 166.73 220.985 167.221 222.728 167.266C223.734 167.277 224.739 167.229 225.74 167.123Z" fill="black"/>
<path id="Vector_64" d="M210.917 175.87C210.917 175.87 215.6 175.727 217.02 174.722C218.439 173.716 224.227 172.517 224.577 174.127C224.927 175.738 231.616 182.145 226.328 182.188C221.04 182.23 214.04 181.365 212.631 180.506C211.222 179.646 210.917 175.87 210.917 175.87Z" fill="#656380"/>
<path id="Vector_65" opacity="0.2" d="M226.413 181.639C221.125 181.681 214.125 180.813 212.716 179.956C211.655 179.301 211.217 176.958 211.074 175.876H210.917C210.917 175.876 211.214 179.654 212.623 180.511C214.032 181.368 221.032 182.236 226.32 182.193C227.846 182.193 228.374 181.639 228.345 180.835C228.132 181.315 227.551 181.617 226.413 181.639Z" fill="black"/>
<path id="Vector_66" d="M86.2057 11.3718L81.3632 14.4416L84.3032 9.09535C83.4736 8.43204 82.4465 8.0642 81.3844 8.04997H81.3048C80.969 8.05467 80.6333 8.02981 80.3018 7.97568L78.6594 9.01575L79.3625 7.73689C78.2002 7.33077 77.1956 6.56853 76.4915 5.55857L73.5542 7.41584L75.4116 4.04092C73.6921 1.97934 71.3784 0.713745 68.8284 0.713745C65.7743 0.713745 63.0545 2.53122 61.298 5.36223C60.7785 6.2087 60.0444 6.90285 59.1703 7.37437C58.2961 7.8459 57.3129 8.07805 56.3201 8.04732H56.1556C52.7831 8.04732 50.0527 11.8706 50.0527 16.5881C50.0527 21.3056 52.7858 25.1263 56.1556 25.1263C56.8958 25.1241 57.6243 24.942 58.2784 24.5956C60.4781 23.4521 63.365 23.4308 65.6682 24.4523C66.6556 24.8964 67.7257 25.1272 68.8084 25.1295C69.8911 25.1318 70.9622 24.9055 71.9515 24.4656C74.2387 23.4653 77.0912 23.4866 79.2776 24.6089C79.9263 24.9521 80.648 25.1341 81.3818 25.1395C84.7543 25.1395 87.4847 21.3162 87.4847 16.6014C87.5049 14.7784 87.065 12.9798 86.2057 11.3718Z" fill="#F2F2F2"/>
<path id="Vector_67" opacity="0.03" d="M77.0758 23.8659C75.314 23.5309 73.4922 23.7286 71.8433 24.4337C70.8543 24.8733 69.7838 25.0993 68.7015 25.097C67.6193 25.0947 66.5497 24.8642 65.5626 24.4205C63.2568 23.399 60.3698 23.4202 58.1701 24.5637C57.5161 24.9101 56.7875 25.0922 56.0474 25.0944C53.0517 25.0944 50.5601 22.075 50.04 18.0951C50.6385 17.6592 51.1467 17.1114 51.5366 16.482C53.3038 13.6536 56.0129 11.8308 59.067 11.8308C62.1211 11.8308 64.809 13.6271 66.5656 16.4262C67.0898 17.272 67.8234 17.9681 68.6954 18.4473C69.5675 18.9266 70.5484 19.1726 71.5434 19.1617H71.6124C74.0005 19.1644 76.0702 21.0774 77.0758 23.8659Z" fill="black"/>
<path id="Vector_68" d="M212.793 17.6228L210.386 19.1538L211.854 16.5005C211.439 16.1654 210.924 15.9786 210.392 15.9699H210.354C210.186 15.9722 210.019 15.9598 209.853 15.9327L209.033 16.4634L209.378 15.8107C208.798 15.6087 208.297 15.2289 207.945 14.7255L206.48 15.6541L207.406 13.972C207.017 13.4691 206.52 13.0592 205.952 12.7719C205.385 12.4847 204.76 12.3272 204.124 12.311C202.598 12.311 201.242 13.2184 200.367 14.63C200.107 15.0504 199.74 15.3945 199.304 15.6275C198.867 15.8605 198.377 15.974 197.883 15.9566H197.801C196.119 15.9566 194.755 17.8643 194.755 20.2018C194.755 22.5393 196.119 24.4603 197.801 24.4603C198.171 24.459 198.535 24.3679 198.862 24.1949C199.435 23.9168 200.061 23.7663 200.697 23.754C201.334 23.7416 201.965 23.8676 202.548 24.1233C203.041 24.3428 203.575 24.4563 204.115 24.4563C204.655 24.4563 205.189 24.3428 205.682 24.1233C206.26 23.8727 206.886 23.7494 207.516 23.7618C208.147 23.7742 208.767 23.9219 209.335 24.1949C209.663 24.368 210.027 24.4591 210.397 24.4603C212.079 24.4603 213.443 22.5552 213.443 20.2018C213.445 19.3013 213.222 18.4145 212.793 17.6228Z" fill="#F2F2F2"/>
<path id="Vector_69" opacity="0.03" d="M208.242 23.8553C207.364 23.6894 206.456 23.7882 205.634 24.1392C205.14 24.3587 204.607 24.4722 204.067 24.4722C203.527 24.4722 202.993 24.3587 202.5 24.1392C201.917 23.8835 201.285 23.7574 200.648 23.7698C200.011 23.7822 199.385 23.9326 198.812 24.2108C198.485 24.3845 198.12 24.4756 197.75 24.4762C196.254 24.4762 195.012 22.9718 194.752 20.9871C195.05 20.7716 195.303 20.5015 195.5 20.1912C196.376 18.7796 197.734 17.8749 199.257 17.8749C200.781 17.8749 202.121 18.769 202.996 20.1646C203.257 20.5868 203.623 20.9342 204.059 21.1732C204.494 21.4121 204.983 21.5345 205.48 21.5284H205.52C206.711 21.5098 207.733 22.465 208.242 23.8553Z" fill="black"/>
<path id="Vector_70" d="M54.7206 57.273L58.6105 59.7352L56.2542 55.4502C56.9224 54.9184 57.7486 54.6243 58.6025 54.6144H58.6636C58.9301 54.6184 59.1965 54.5989 59.4596 54.5561L60.773 55.3892L60.2026 54.365C61.1331 54.0379 61.9376 53.4273 62.5031 52.6192L64.8567 54.1103L63.3867 51.4067C64.7638 49.7563 66.6185 48.7534 68.659 48.7534C71.1081 48.7534 73.2866 50.2074 74.6956 52.468C75.1107 53.1454 75.6974 53.7011 76.3963 54.0789C77.0952 54.4568 77.8815 54.6433 78.6757 54.6197H78.8084C81.5096 54.6197 83.6987 57.6816 83.6987 61.4598C83.6987 65.238 81.5096 68.3025 78.8084 68.3025C78.2135 68.3002 77.628 68.1536 77.1022 67.8754C76.1827 67.4286 75.177 67.187 74.1549 67.1673C73.1327 67.1476 72.1185 67.3503 71.1824 67.7613C70.3893 68.1157 69.5304 68.299 68.6617 68.299C67.793 68.299 66.934 68.1157 66.1409 67.7613C65.2115 67.3587 64.2065 67.1606 63.1938 67.1802C62.1812 67.1999 61.1846 67.437 60.2715 67.8754C59.751 68.1463 59.1734 68.2891 58.5866 68.2919C55.8828 68.2919 53.6937 65.2301 53.6937 61.4492C53.681 59.9931 54.0341 58.5571 54.7206 57.273Z" fill="#F2F2F2"/>
<path id="Vector_71" opacity="0.03" d="M62.0303 67.2837C63.4421 67.0176 64.9012 67.1764 66.2227 67.74C67.0158 68.0945 67.8747 68.2777 68.7434 68.2777C69.6122 68.2777 70.4711 68.0945 71.2642 67.74C72.2007 67.329 73.2154 67.1263 74.238 67.146C75.2606 67.1657 76.2667 67.4073 77.1867 67.8541C77.7115 68.1324 78.2961 68.279 78.8902 68.2813C81.2915 68.2813 83.2869 65.8642 83.7035 62.675C83.2243 62.3243 82.8171 61.8847 82.5041 61.3802C81.0952 59.1143 78.9167 57.6656 76.4676 57.6656C74.0185 57.6656 71.8692 59.1037 70.4602 61.3484C70.041 62.0246 69.4544 62.5813 68.7572 62.9647C68.06 63.3482 67.2757 63.5454 66.4801 63.5373H66.419C64.4926 63.5187 62.8369 65.0523 62.0303 67.2837Z" fill="black"/>
<g id="undraw_flutter_dev_wvqj 1" clip-path="url(#clip2)">
<path id="Vector_72" d="M-64.2481 443.79C-22.9467 470.282 28.65 468.938 78.2587 462.73C85.186 461.864 92.0594 460.915 98.8664 459.925C98.9072 459.912 98.9617 459.913 99.0031 459.9C99.3301 459.851 99.6579 459.802 99.9714 459.766C101.376 459.558 102.782 459.35 104.173 459.141L103.877 459.789L102.945 461.802C103.283 461.127 103.62 460.466 103.958 459.791C104.057 459.588 104.169 459.386 104.267 459.183C115.956 436.037 127.494 412.072 129.373 386.261C131.31 359.471 120.201 329.855 96.0774 318.042C92.9138 316.497 89.5879 315.311 86.1612 314.504C84.7377 314.154 83.2996 313.886 81.8475 313.658C66.657 311.408 50.3883 315.986 39.0846 326.469C24.1329 340.362 18.9048 363.737 26.5004 382.682C5.54683 363.395 7.46675 330.169 12.8248 302.197C18.196 274.225 24.8443 243.062 9.54875 219.024C1.04526 205.644 -13.0604 197.819 -28.5578 195.197C-29.0329 195.121 -29.5074 195.046 -29.9828 194.983C-47.9699 192.32 -67.6492 196.57 -82.5878 207.157C-110.868 227.187 -124.015 262.978 -127.045 297.507C-131.93 353.07 -111.206 413.667 -64.2481 443.79Z" fill="#F2F2F2"/>
<path id="Path 22" d="M435.427 -63.217H431.606V-167.906C431.606 -183.977 425.222 -199.389 413.858 -210.753C402.495 -222.116 387.082 -228.5 371.012 -228.5H149.206C133.136 -228.5 117.723 -222.116 106.36 -210.753C94.9962 -199.389 88.6123 -183.977 88.6123 -167.906V406.437C88.6123 422.508 94.9963 437.92 106.36 449.283C117.723 460.647 133.136 467.031 149.206 467.031H371.012C387.082 467.031 402.494 460.646 413.857 449.283C425.221 437.919 431.605 422.507 431.605 406.437V11.3029H435.426L435.427 -63.217Z" fill="#3F3D56"/>
<path id="Path 23" d="M373.457 -212.742H344.506C345.838 -209.477 346.346 -205.935 345.986 -202.428C345.626 -198.921 344.41 -195.556 342.443 -192.63C340.476 -189.704 337.82 -187.306 334.708 -185.649C331.597 -183.991 328.125 -183.124 324.6 -183.124H197.53C194.004 -183.124 190.533 -183.991 187.421 -185.649C184.31 -187.307 181.654 -189.705 179.688 -192.631C177.721 -195.557 176.504 -198.921 176.145 -202.428C175.785 -205.936 176.293 -209.477 177.625 -212.742H150.583C144.64 -212.742 138.756 -211.571 133.266 -209.297C127.776 -207.023 122.788 -203.69 118.586 -199.488C114.384 -195.286 111.051 -190.298 108.777 -184.808C106.502 -179.317 105.332 -173.433 105.332 -167.491V406.019C105.332 418.02 110.1 429.53 118.586 438.016C127.072 446.502 138.582 451.269 150.583 451.269H373.457C385.458 451.269 396.968 446.502 405.454 438.016C413.94 429.53 418.708 418.02 418.708 406.019V-167.492C418.708 -179.493 413.94 -191.002 405.454 -199.488C396.968 -207.974 385.458 -212.742 373.457 -212.742V-212.742Z" fill="white"/>
<path id="Vector_73" d="M283.712 109.358L374.765 200.84L288.765 199.84L256.765 167.84L283.712 109.358Z" fill="#01579B"/>
<path id="Vector_74" d="M320.618 146.438L256.765 167.84L295.832 121.333L320.618 146.438Z" fill="url(#paint0_linear)"/>
<path id="Vector_75" d="M374.155 -78.61L192.125 103.44L149.275 60.6L288.495 -78.61H374.155Z" fill="#54C5F8"/>
<path id="Vector_76" d="M213.265 125.34L288.265 50.34H374.265L256.265 167.34L213.265 125.34Z" fill="#54C5F8"/>
<path id="Vector_77" d="M256.361 82.02L299.21 124.849L256.765 167.84L213.765 125.84L256.361 82.02Z" fill="#29B6F6"/>
</g>
</g>
</g>
<defs>
<linearGradient id="paint0_linear" x1="267.624" y1="174.485" x2="299.5" y2="142.61" gradientUnits="userSpaceOnUse">
<stop stop-color="#1A237E" stop-opacity="0.4"/>
<stop offset="1" stop-color="#1A237E" stop-opacity="0"/>
</linearGradient>
<clipPath id="clip0">
<rect width="294" height="194" fill="white" transform="translate(0.5)"/>
</clipPath>
<clipPath id="clip1">
<rect width="294" height="194" fill="white" transform="translate(0.5)"/>
</clipPath>
<clipPath id="clip2">
<rect width="819" height="695.681" fill="white" transform="translate(-132 -228.5)"/>
</clipPath>
</defs>
</svg>
