<svg width="220" height="221" viewBox="0 0 220 221" fill="none" xmlns="http://www.w3.org/2000/svg">
<path d="M93.1803 71.3968H104.005V60.3971C103.429 60.067 103.041 59.4393 103.041 58.7203C103.041 57.6569 103.889 56.7949 104.935 56.7949C105.981 56.7949 106.83 57.6569 106.83 58.7203C106.83 59.4398 106.442 60.067 105.866 60.3971V72.342C105.866 72.8641 105.449 73.2876 104.935 73.2876H93.1803C92.8549 73.872 92.2377 74.2668 91.53 74.2668C90.4831 74.2668 89.6348 73.4053 89.6348 72.342C89.6348 71.2787 90.4831 70.4166 91.53 70.4166C92.2381 70.4166 92.8549 70.8119 93.1803 71.3968Z" fill="#44C2F4"/>
<path d="M103.285 86.91H93.1798C92.8549 87.4949 92.2377 87.8897 91.5295 87.8897C90.4831 87.8897 89.6348 87.0277 89.6348 85.9644C89.6348 84.9016 90.4831 84.04 91.5295 84.04C92.2377 84.04 92.8549 84.4343 93.1798 85.0192H103.285C103.61 84.4343 104.228 84.04 104.935 84.04C105.982 84.04 106.83 84.9016 106.83 85.9644C106.83 87.0277 105.982 87.8897 104.935 87.8897C104.227 87.8897 103.61 87.4949 103.285 86.91Z" fill="#114399"/>
<path d="M118.605 102.492C118.114 102.641 117.595 102.356 117.449 101.856C117.303 101.357 117.583 100.831 118.074 100.682C122.508 99.3413 127.008 98.6529 131.573 98.6441C136.128 98.6359 140.74 99.3063 145.409 100.682C145.9 100.826 146.183 101.349 146.041 101.849C145.899 102.348 145.384 102.636 144.892 102.492C140.392 101.166 135.952 100.519 131.573 100.527C127.202 100.536 122.88 101.199 118.605 102.492Z" fill="#44C2F4"/>
<path d="M91.5274 46.6509C91.9523 46.6509 92.3355 46.4788 92.6111 46.2002C92.8848 45.9206 93.0547 45.5307 93.0547 45.0989C93.0547 44.6667 92.8848 44.2773 92.6111 43.9977C92.3355 43.7191 91.9523 43.547 91.5274 43.547C91.1025 43.547 90.7188 43.7191 90.4432 43.9977C90.1695 44.2773 89.9996 44.6667 89.9996 45.0989C89.9996 45.5321 90.168 45.9206 90.4403 46.1963L90.447 46.2036C90.7188 46.4797 91.1006 46.6509 91.5274 46.6509ZM65.796 98.489C65.5291 98.2172 65.1616 98.0456 64.7549 98.0349L64.7539 98.0344H64.7157C64.2941 98.0344 63.9118 98.2084 63.6357 98.489L63.6353 98.4895L63.6228 98.5021L63.6219 98.5026L63.6099 98.5157H63.6094L63.5975 98.5293H63.597L63.585 98.5425L63.5845 98.5429L63.5726 98.5566V98.557L63.5606 98.5707L63.5491 98.5848H63.5482L63.5367 98.5989V98.5998L63.5257 98.6134L63.5142 98.6285L63.5027 98.6426V98.6431L63.4917 98.6577L63.4807 98.6728L63.4702 98.6878L63.4597 98.7029V98.7034L63.4487 98.7185V98.719L63.4391 98.734H63.4386L63.429 98.7496H63.4286L63.4185 98.7656L63.4094 98.7817L63.3998 98.7972L63.3908 98.8138L63.3817 98.8298H63.3812L63.3731 98.8468H63.3726L63.364 98.8629V98.8633L63.3554 98.8794V98.8799L63.3472 98.8964L63.3391 98.9134L63.3314 98.9304H63.3309L63.3233 98.9475L63.3156 98.965L63.3085 98.9825L63.3013 99L63.2946 99.017L63.2874 99.035L63.2807 99.053L63.275 99.0705L63.2687 99.0885L63.2625 99.1069L63.2573 99.1249L63.2515 99.1429L63.2463 99.1619L63.241 99.1804L63.2362 99.1983L63.2319 99.2173L63.2276 99.2363L63.2233 99.2547L63.219 99.2737L63.2156 99.2931L63.2118 99.3116L63.2089 99.3311L63.2056 99.3505L63.2032 99.37L63.2003 99.3889L63.1984 99.4084L63.196 99.4278L63.1941 99.4473L63.1927 99.4672L63.1912 99.4871L63.1903 99.5071L63.1893 99.5265L63.1884 99.5465V99.5669V99.5863C63.1884 100.016 63.3597 100.404 63.6353 100.685C63.9113 100.965 64.2936 101.139 64.7157 101.139C65.142 101.139 65.5243 100.968 65.796 100.691L65.8032 100.685C66.0745 100.408 66.2434 100.02 66.2434 99.5863C66.2434 99.158 66.0721 98.7695 65.796 98.489ZM61.0046 95.8154C61.5247 95.2869 62.1539 94.8688 62.8549 94.5984V65.5323C62.8549 65.0042 63.0678 64.5268 63.4113 64.1835L83.5082 43.7619C83.8718 43.3929 84.3479 43.2081 84.824 43.2081L86.6197 43.2076C86.8852 42.4988 87.2967 41.8623 87.8154 41.3343L87.8226 41.327C88.7723 40.3629 90.0824 39.7649 91.5274 39.7649C92.9714 39.7649 94.2815 40.3629 95.2317 41.327L95.2389 41.3343C96.1882 42.2999 96.7762 43.6316 96.7762 45.0989C96.7762 46.5668 96.1882 47.8975 95.2389 48.8631L95.2317 48.8704C94.2815 49.835 92.9714 50.4325 91.5274 50.4325C90.0877 50.4325 88.78 49.8369 87.8269 48.8742L87.8159 48.8631C87.2972 48.3341 86.8862 47.6972 86.6206 46.9897H85.5943L66.5764 66.315V94.5984C67.2774 94.8688 67.9066 95.2869 68.4272 95.8154C69.3769 96.7805 69.965 98.1146 69.965 99.5863C69.965 101.05 69.3784 102.379 68.431 103.347L68.4272 103.351L68.42 103.358C67.4664 104.324 66.1559 104.921 64.7157 104.921C63.2664 104.921 61.9534 104.323 61.0046 103.358C60.0548 102.394 59.4668 101.059 59.4668 99.5863L59.4673 99.5178L59.4687 99.4492L59.4701 99.3807L59.4735 99.3121L59.4778 99.244L59.4821 99.1765L59.4874 99.1084L59.4941 99.0413L59.5008 98.9747L59.5089 98.9076L59.5175 98.841L59.5276 98.7744L59.5376 98.7087L59.5486 98.6426L59.5606 98.577L59.5735 98.5118L59.5869 98.4472L59.6012 98.382L59.6166 98.3178L59.6319 98.2537L59.6491 98.1905L59.6658 98.1263L59.684 98.0636L59.7027 98.0008L59.7223 97.9386L59.7424 97.8764H59.7429L59.7639 97.8141L59.7855 97.7529L59.8084 97.6916L59.8309 97.6313L59.8548 97.5706L59.8792 97.5108L59.9046 97.4514L59.9304 97.3921H59.9309L59.9572 97.3328L59.984 97.2745L59.985 97.274L60.0127 97.2166L60.0414 97.1588L60.0702 97.1014H60.0706L60.1003 97.0445L60.1309 96.9881L60.1625 96.9317L60.1946 96.8763L60.2266 96.8213H60.2271L60.2601 96.7669L60.2941 96.7119L60.328 96.658H60.3285L60.3635 96.605L60.3639 96.6045L60.3989 96.552L60.3993 96.5515L60.4352 96.4995V96.499L60.4725 96.4474L60.5094 96.3959L60.5099 96.3954L60.5477 96.3449V96.3444L60.5864 96.2943V96.2933L60.6257 96.2437L60.6654 96.1941H60.6659L60.706 96.145L60.7472 96.0964L60.7883 96.0483L60.8304 96.0011V96.0006L60.873 95.9535H60.8735L60.9161 95.9073L60.9166 95.9068L60.9596 95.8611L60.9601 95.8606L61.0046 95.8154Z" fill="#114399"/>
<path d="M104.935 46.6501C105.362 46.6501 105.744 46.479 106.016 46.2033L106.022 46.1956C106.294 45.9199 106.463 45.5309 106.463 45.0977C106.463 44.6689 106.292 44.2809 106.016 44.0004C105.739 43.7203 105.357 43.5463 104.935 43.5463C104.509 43.5463 104.127 43.7169 103.855 43.9931V44.0009C103.579 44.2814 103.408 44.6694 103.408 45.0977C103.408 45.5265 103.579 45.915 103.855 46.1956L103.92 46.2646C104.186 46.5043 104.541 46.6501 104.935 46.6501ZM160.418 97.6957H167.763C169.692 97.6957 171.182 98.7099 172.216 100.201C173.272 101.724 173.824 103.791 173.824 105.644V117.9C173.824 121.108 173.255 124.11 172.121 126.891C170.985 129.679 169.298 132.213 167.065 134.481L160.418 141.235V145.614C160.418 148.666 159.877 151.522 158.797 154.17C157.716 156.822 156.11 159.235 153.986 161.393L140.367 175.233C137.771 177.871 134.875 179.861 131.694 181.2C128.517 182.537 125.087 183.209 121.417 183.209H91.5297C91.0101 183.209 90.5398 182.993 90.2024 182.643L80.2794 172.56C79.622 172.861 78.8923 173.03 78.1239 173.03C76.6798 173.03 75.3698 172.432 74.4195 171.468L74.4123 171.461C73.463 170.495 72.875 169.163 72.875 167.696C72.875 166.223 73.463 164.889 74.4123 163.925C75.3621 162.96 76.675 162.362 78.1239 162.362C79.5684 162.362 80.8784 162.96 81.8287 163.925L81.8359 163.932C82.7851 164.897 83.3732 166.228 83.3732 167.696C83.3732 168.476 83.2081 169.219 82.9105 169.887L92.2996 179.427H121.417C124.615 179.427 127.574 178.855 130.283 177.715C132.986 176.577 135.474 174.857 137.735 172.56L151.355 158.72C153.145 156.901 154.483 154.903 155.367 152.736C156.252 150.564 156.697 148.187 156.697 145.614V140.452L156.698 140.407V140.404L156.7 140.361V140.355L156.703 140.316C156.705 140.27 156.71 140.225 156.717 140.18L156.719 140.164L156.724 140.136C156.746 139.998 156.783 139.866 156.834 139.74L156.844 139.716L156.851 139.698L156.862 139.674L156.87 139.656L156.881 139.632L156.89 139.614L156.901 139.591L156.911 139.572L156.922 139.551L156.932 139.532L156.944 139.511L156.955 139.492L156.967 139.472L156.979 139.452L156.99 139.433L157.004 139.412L157.015 139.395L157.03 139.373L157.041 139.358L157.057 139.334L157.067 139.322L157.085 139.297L157.094 139.284L157.115 139.259L157.122 139.249L157.145 139.222L157.15 139.215L157.177 139.186L157.181 139.18L157.209 139.15L157.211 139.148L157.242 139.115L164.434 131.808C166.332 129.878 167.752 127.758 168.69 125.457C169.63 123.151 170.103 120.629 170.103 117.9V105.644C170.103 104.494 169.786 103.249 169.178 102.373C168.809 101.84 168.327 101.477 167.763 101.477H158.558C157.53 101.477 156.697 100.63 156.697 99.5861V77.594C156.697 73.8241 156.042 70.3332 154.738 67.1335C153.437 63.9412 151.471 61.0041 148.848 58.3388L145.528 54.9641C142.905 52.2992 140.015 50.3015 136.872 48.9785C133.724 47.6541 130.288 46.989 126.578 46.989H109.841C109.576 47.6945 109.167 48.3304 108.65 48.8584L108.646 48.8623L108.639 48.8696C107.685 49.8352 106.375 50.4323 104.935 50.4323C103.553 50.4323 102.293 49.8824 101.351 48.9868L101.224 48.8696C100.274 47.9045 99.6863 46.5699 99.6863 45.0977C99.6863 43.626 100.274 42.2919 101.224 41.3268L101.228 41.3312C102.182 40.3632 103.493 39.7642 104.935 39.7642C106.384 39.7642 107.697 40.3622 108.646 41.3268C109.167 41.8558 109.579 42.4946 109.844 43.2069H126.578C130.76 43.2069 134.667 43.9717 138.283 45.4935C141.904 47.0177 145.201 49.2858 148.159 52.2915L151.48 55.6652C154.437 58.6703 156.669 62.0207 158.169 65.7002C159.666 69.3744 160.418 73.3442 160.418 77.594V97.6957ZM79.1913 168.807L79.2038 168.794L79.2172 168.781L79.2301 168.767C79.4909 168.489 79.6511 168.111 79.6511 167.696C79.6511 167.263 79.4818 166.874 79.2081 166.595C78.9325 166.316 78.5492 166.143 78.1239 166.143C77.7018 166.143 77.3195 166.318 77.0435 166.599C76.7679 166.879 76.5966 167.267 76.5966 167.696C76.5966 168.127 76.7664 168.518 77.0401 168.797C77.3157 169.076 77.699 169.248 78.1239 169.248C78.5329 169.248 78.9047 169.084 79.1784 168.819L79.1913 168.807Z" fill="#0691C9"/>
<path d="M78.1208 87.889C79.1668 87.889 80.0156 87.0275 80.0156 85.9642C80.0156 85.2451 79.6271 84.6174 79.051 84.2868V72.7343L91.0171 60.5751C91.1793 60.6208 91.3501 60.6451 91.5267 60.6451C92.5726 60.6451 93.421 59.7831 93.421 58.7203C93.421 57.6574 92.5726 56.7949 91.5267 56.7949C90.4798 56.7949 89.632 57.6574 89.632 58.7203C89.632 58.8997 89.6559 59.0732 89.7013 59.2376L77.4629 71.6735C77.2816 71.8582 77.1907 72.1003 77.1907 72.3425V84.2868C76.6156 84.6174 76.2266 85.2451 76.2266 85.9642C76.2266 87.0275 77.0744 87.889 78.1208 87.889Z" fill="#0691C9"/>
<path d="M51.3109 115.224C51.7334 115.224 52.1157 115.05 52.3913 114.77C52.6678 114.489 52.8386 114.101 52.8386 113.672C52.8386 113.239 52.6702 112.85 52.3984 112.574L52.3913 112.567C52.1195 112.291 51.7377 112.12 51.3109 112.12C50.8893 112.12 50.507 112.294 50.231 112.574C49.9549 112.855 49.7836 113.244 49.7836 113.672C49.7836 114.103 49.9539 114.493 50.2271 114.773C50.5027 115.051 50.8865 115.224 51.3109 115.224ZM66.0325 139.115L66.0636 139.148L66.0655 139.15L66.0938 139.181L66.0981 139.185L66.1239 139.215L66.1297 139.222L66.1522 139.25L66.1598 139.259L66.1804 139.284L66.1895 139.297L66.2081 139.322L66.2177 139.334L66.234 139.358L66.2445 139.373L66.2598 139.395L66.2708 139.412L66.2842 139.433L66.2957 139.451L66.3081 139.472L66.3196 139.492L66.3306 139.511L66.3426 139.532L66.3526 139.551L66.3641 139.573L66.3737 139.591L66.3852 139.614L66.3943 139.632L66.4048 139.656L66.4129 139.674L66.4234 139.698L66.4311 139.716L66.4407 139.741C66.4909 139.867 66.5282 139.998 66.5507 140.136L66.556 140.164L66.5584 140.18C66.5646 140.225 66.5689 140.27 66.5723 140.316L66.5751 140.355V140.361L66.577 140.403V140.407V140.453H66.5775V149.088C67.2718 149.358 67.8976 149.774 68.4168 150.298L68.4282 150.31C69.378 151.279 69.9661 152.61 69.9661 154.074C69.9661 155.546 69.378 156.88 68.4282 157.845C67.4785 158.81 66.1655 159.408 64.7167 159.408C63.2727 159.408 61.9622 158.81 61.0124 157.845L61.0057 157.838C60.0559 156.873 59.4679 155.541 59.4679 154.074C59.4679 152.602 60.0559 151.267 61.0057 150.303C61.5258 149.774 62.155 149.355 62.8559 149.086V141.235L50.007 128.179C49.6635 127.835 49.4501 127.357 49.4501 126.83V118.659C48.753 118.389 48.1262 117.97 47.6065 117.443L47.5998 117.436C46.6501 116.471 46.0625 115.139 46.0625 113.672C46.0625 112.2 46.6501 110.865 47.5998 109.9C48.5491 108.935 49.8621 108.338 51.3109 108.338C52.7492 108.338 54.0583 108.934 55.0114 109.897L55.0229 109.908C55.9726 110.877 56.5602 112.209 56.5602 113.672C56.5602 115.145 55.9726 116.478 55.0229 117.443C54.5023 117.971 53.8726 118.389 53.1721 118.66V126.048L66.0325 139.115ZM64.7383 152.522H64.7368H64.7167H64.6966H64.6952C64.2813 152.528 63.9076 152.701 63.6363 152.977C63.3607 153.257 63.1894 153.645 63.1894 154.074C63.1894 154.505 63.3593 154.895 63.633 155.175C63.9086 155.453 64.2918 155.626 64.7167 155.626C65.1387 155.626 65.5215 155.452 65.7971 155.172C66.0732 154.891 66.2445 154.503 66.2445 154.074C66.2445 153.641 66.0756 153.253 65.8043 152.977L65.7971 152.969C65.5301 152.698 65.1564 152.528 64.7383 152.522ZM64.7167 152.522V152.522V152.522Z" fill="#44C2F4"/>
<path d="M99.879 153.129H125.04C125.553 153.129 125.97 153.553 125.97 154.074C125.97 154.596 125.553 155.02 125.04 155.02H99.879C99.5536 155.605 98.9369 155.999 98.2287 155.999C97.1818 155.999 96.334 155.138 96.334 154.074C96.334 153.011 97.1818 152.149 98.2287 152.149C98.9364 152.149 99.5536 152.544 99.879 153.129Z" fill="#114399"/>
<path d="M106.583 166.751H118.337C118.85 166.751 119.267 167.174 119.267 167.696C119.267 168.218 118.85 168.642 118.337 168.642H106.583C106.257 169.226 105.64 169.62 104.931 169.62C103.885 169.62 103.037 168.759 103.037 167.696C103.037 166.633 103.885 165.771 104.931 165.771C105.64 165.771 106.257 166.166 106.583 166.751Z" fill="#44C2F4"/>
<path d="M91.5267 114.76C91.953 114.76 92.3353 114.589 92.6066 114.313V114.306C92.8832 114.026 93.054 113.637 93.054 113.208C93.054 112.779 92.8832 112.391 92.6066 112.11C92.331 111.83 91.9487 111.656 91.5267 111.656C91.1042 111.656 90.7219 111.83 90.4458 112.11C90.1707 112.391 89.9994 112.779 89.9994 113.208C89.9994 113.637 90.1707 114.026 90.4463 114.306L90.5109 114.374C90.7769 114.615 91.1324 114.76 91.5267 114.76ZM78.1208 115.133C77.0744 115.133 76.2266 114.271 76.2266 113.208C76.2266 112.145 77.0744 111.283 78.1208 111.283C78.829 111.283 79.4467 111.678 79.7716 112.263H86.3602C86.553 111.169 87.0736 110.19 87.8152 109.437C88.7645 108.472 90.0774 107.874 91.5267 107.874C92.975 107.874 94.2885 108.472 95.2377 109.436C96.188 110.402 96.7756 111.736 96.7756 113.208C96.7756 114.681 96.188 116.014 95.2377 116.98L95.2344 116.976C94.2808 117.943 92.9683 118.542 91.5267 118.542C90.1449 118.542 88.8846 117.993 87.9425 117.097L87.8157 116.98C87.0736 116.226 86.553 115.247 86.3602 114.153H79.7711C79.4462 114.738 78.829 115.133 78.1208 115.133Z" fill="#114399"/>
<path d="M78.1208 101.511C78.8285 101.511 79.4462 101.116 79.7716 100.531H91.1406L104.001 113.6V140.452C104.001 140.974 104.418 141.397 104.932 141.397H114.343C115.691 141.397 116.843 140.84 117.692 140.04C118.684 139.107 119.268 137.822 119.268 136.699C119.268 136.178 118.851 135.754 118.337 135.754C117.824 135.754 117.407 136.178 117.407 136.699C117.407 137.33 117.048 138.082 116.434 138.655C115.901 139.156 115.181 139.507 114.343 139.507H105.862V113.208C105.862 112.947 105.758 112.711 105.59 112.54L92.1841 98.9172C92.0028 98.7329 91.7645 98.6406 91.5262 98.6406H79.7716C79.4462 98.0557 78.829 97.6609 78.1208 97.6609C77.0744 97.6609 76.2266 98.5224 76.2266 99.5857C76.2266 100.649 77.0744 101.511 78.1208 101.511Z" fill="#0691C9"/>
<path d="M133.161 113.197C133.583 113.197 133.966 113.023 134.242 112.743C134.517 112.462 134.689 112.074 134.689 111.645C134.689 111.212 134.52 110.824 134.248 110.548L134.241 110.54C133.97 110.264 133.588 110.093 133.161 110.093C132.739 110.093 132.357 110.267 132.081 110.547C131.804 110.827 131.633 111.216 131.633 111.645C131.633 112.078 131.802 112.467 132.074 112.743L132.081 112.75C132.353 113.025 132.735 113.197 133.161 113.197ZM135.457 116.98C134.508 117.944 133.194 118.542 131.745 118.542C130.306 118.542 128.998 117.946 128.045 116.984L128.034 116.972C127.084 116.003 126.496 114.673 126.496 113.208C126.496 111.736 127.085 110.402 128.034 109.436C128.984 108.472 130.297 107.874 131.745 107.874C133.184 107.874 134.492 108.47 135.445 109.433L135.456 109.444C136.407 110.413 136.994 111.744 136.994 113.208C136.994 114.681 136.406 116.015 135.457 116.98Z" fill="#114399"/>
<path d="M63.7849 125.152V114.885C63.2093 114.554 62.8203 113.927 62.8203 113.208C62.8203 112.144 63.6691 111.283 64.7155 111.283C65.7615 111.283 66.6098 112.144 66.6098 113.208C66.6098 113.927 66.2213 114.554 65.6457 114.885V125.152C66.2213 125.483 66.6098 126.11 66.6098 126.83C66.6098 127.893 65.7615 128.755 64.7155 128.755C63.6691 128.755 62.8203 127.893 62.8203 126.83C62.8203 126.111 63.2093 125.483 63.7849 125.152Z" fill="#0691C9"/>
<path d="M159.425 127.152C159.251 127.641 158.718 127.894 158.237 127.716C157.755 127.54 157.506 126.998 157.681 126.509C158.429 124.418 158.835 122.294 158.85 120.141C158.865 117.984 158.49 115.78 157.681 113.529C157.506 113.04 157.755 112.499 158.237 112.322C158.718 112.144 159.251 112.397 159.425 112.887C160.311 115.348 160.72 117.768 160.703 120.148C160.686 122.532 160.243 124.867 159.425 127.152Z" fill="#114399"/>
<path d="M120.75 113.771C120.346 114.092 119.762 114.022 119.445 113.612C119.128 113.202 119.198 112.609 119.601 112.286C123.349 109.295 127.543 107.798 131.744 107.798C135.944 107.798 140.138 109.295 143.886 112.286C144.29 112.609 144.36 113.202 144.043 113.612C143.726 114.022 143.142 114.092 142.738 113.771C139.329 111.05 135.532 109.688 131.744 109.688C127.955 109.688 124.159 111.05 120.75 113.771Z" fill="#114399"/>
<path d="M90.5959 138.775V128.507C90.0203 128.177 89.6309 127.55 89.6309 126.83C89.6309 125.767 90.4792 124.905 91.5256 124.905C92.572 124.905 93.4204 125.767 93.4204 126.83C93.4204 127.549 93.0314 128.177 92.4562 128.507V138.775C93.0314 139.105 93.4204 139.733 93.4204 140.452C93.4204 141.515 92.572 142.377 91.5256 142.377C90.4792 142.377 89.6309 141.515 89.6309 140.452C89.6309 139.733 90.0203 139.105 90.5959 138.775Z" fill="#114399"/>
<path d="M79.051 138.775V148.664L91.0162 160.823C91.1784 160.777 91.3497 160.753 91.5258 160.753C92.5722 160.753 93.42 161.614 93.42 162.677C93.42 163.74 92.5722 164.603 91.5258 164.603C90.4793 164.603 89.631 163.74 89.631 162.677C89.631 162.498 89.6554 162.325 89.7004 162.16L77.462 149.724C77.2806 149.54 77.1897 149.298 77.1897 149.056V137.11H77.1907V128.508C76.6146 128.177 76.2266 127.55 76.2266 126.831C76.2266 125.767 77.0744 124.905 78.1208 124.905C79.1668 124.905 80.0151 125.767 80.0151 126.831C80.0151 127.549 79.6266 128.177 79.051 128.508V138.775Z" fill="#0691C9"/>
<path d="M109.828 12.4272C162.98 12.4272 206.136 56.2793 206.136 110.29C206.136 164.3 162.98 208.152 109.828 208.152C56.6752 208.152 13.5195 164.3 13.5195 110.29C13.5195 56.2793 56.6752 12.4272 109.828 12.4272Z" stroke="#04B5FF"/>
<path d="M93.1185 18.5932C143.74 8.47292 192.278 41.3606 201.438 91.9868C210.599 142.613 176.936 191.934 126.314 202.055C75.6929 212.175 27.1547 179.287 17.9944 128.661C8.83399 78.035 42.4971 28.7135 93.1185 18.5932Z" stroke="#4452FE" stroke-width="6.73421" stroke-linejoin="round" stroke-dasharray="3.85 3.85"/>
<g opacity="0.43">
<path d="M109.83 27.7683C154.976 27.7683 191.631 65.0148 191.631 110.889C191.631 156.764 154.976 194.01 109.83 194.01C64.6842 194.01 28.0293 156.764 28.0293 110.889C28.0293 65.0148 64.6842 27.7683 109.83 27.7683Z" stroke="#4452FE" stroke-width="1.69873"/>
</g>
<g opacity="0.01">
<path d="M92.3472 120.577C93.6997 120.577 94.7979 121.693 94.7979 123.067C94.7979 124.442 93.6997 125.558 92.3472 125.558C90.9946 125.558 89.8965 124.442 89.8965 123.067C89.8965 121.693 90.9946 120.577 92.3472 120.577Z" fill="#FF3443"/>
</g>
</svg>
