<svg width="252" height="207" viewBox="0 0 252 207" fill="none" xmlns="http://www.w3.org/2000/svg">
<path d="M219.298 41.1843H101.994V175.904H219.298V41.1843Z" fill="white"/>
<path d="M224.994 109.592C220.308 109.592 216.799 143.756 211.289 143.756C191.811 143.756 186.15 16.757 159.045 33.6913C144.989 42.4721 134.938 104.669 117.894 124.917C100.135 146.012 77.8426 88.4278 65.0365 88.4278C51.5494 88.4278 50.3173 160.534 39.658 165.41C34.4478 167.793 28.6899 152.94 23.7315 156.814C18.4334 160.953 16.1226 172.308 13.2434 181.75C10.3641 191.191 4.30878 197.891 0.1875 198.508H251.291C232.125 175.667 241.045 109.592 224.994 109.592Z" fill="#4452FE" fill-opacity="0.8"/>
<path d="M69.5765 9.13257C68.3297 9.13257 67.2235 10.0302 66.5137 11.265H72.6393C71.9295 10.0302 70.8229 9.13257 69.5765 9.13257Z" fill="#9B9B9B"/>
<path d="M130.543 9.47475C129.482 9.47475 128.764 6.88197 127.826 6.46713C124.556 5.02196 124.244 3.02182 120.694 3.02182C118.811 3.02182 117.543 5.9708 115.81 5.69856C112.869 5.23618 111.305 0 108.121 0C104.677 0 103.236 6.11649 100.038 6.52948C98.0189 6.79061 96.7521 2.94095 94.5642 2.94095C91.7296 2.94095 90.6674 7.65734 88.0845 8.51419C86.9022 8.90681 85.9066 6.69801 84.5989 6.69801C82.2206 6.69801 80.1782 8.79446 79.2676 11.2638H133.606C132.896 10.0291 131.79 9.47475 130.543 9.47475Z" fill="#9B9B9B"/>
<path d="M243.055 50.9597C241.809 50.9597 240.702 51.8573 239.992 53.0919H246.118C245.408 51.8573 244.301 50.9597 243.055 50.9597Z" fill="#9B9B9B"/>
<path d="M228.032 48.5256C226.724 48.5256 225.729 50.735 224.547 50.3424C221.963 49.4855 220.901 44.7686 218.067 44.7686C215.879 44.7686 214.612 48.6188 212.593 48.3583C209.395 47.9447 207.954 41.8284 204.509 41.8284C201.326 41.8284 199.762 47.0638 196.82 47.5262C195.088 47.7984 193.819 44.8495 191.937 44.8495C188.387 44.8495 188.074 46.8496 184.805 48.2947C183.866 48.7096 183.149 51.3029 182.088 51.3029C180.842 51.3029 179.735 51.8573 179.025 53.0919H233.363C232.452 50.6226 230.411 48.5256 228.032 48.5256Z" fill="#9B9B9B"/>
<path d="M57.9307 57.9955H62.0013L62.5535 51.6938H55.9531L57.9307 57.9955Z" fill="#9B9B9B"/>
<path d="M47.3107 35.3685L42.6758 34.3752L45.7242 42.2201L49.5809 40.4305C49.5857 40.3595 49.587 37.552 49.587 37.552C49.587 35.7685 48.5688 35.3685 47.3107 35.3685Z" fill="#9B9B9B"/>
<path d="M45.7242 45.1704L42.6758 53.0163L47.3103 52.0224C48.5684 52.0224 49.5861 51.6224 49.5861 49.839C49.5861 49.839 49.5853 47.0316 49.5805 46.9606L45.7242 45.1704Z" fill="#9B9B9B"/>
<path d="M41.7949 44.0419C41.7949 44.0419 73.3528 43.9536 73.4081 44.04C69.7021 25.5159 43.5486 35.8333 41.7949 44.0419Z" fill="#ECF5F8"/>
<path d="M41.7949 44.0415C43.5486 52.2498 69.7021 62.5682 73.4081 44.0434C73.3528 44.1304 41.7949 44.0415 41.7949 44.0415Z" fill="#9B9B9B"/>
<path d="M60.5765 37.915C49.1318 37.915 41.9092 43.9805 41.7969 44.041L73.4083 44.0404C73.3525 43.954 72.0003 37.915 60.5765 37.915Z" fill="#9B9B9B"/>
<path d="M60.5765 50.1702C72.0003 50.1702 73.3525 44.1313 73.4083 44.0449H41.7969C41.9092 44.1048 49.1318 50.1702 60.5765 50.1702Z" fill="#ECF5F8"/>
<path d="M119.926 193.837H157.519V168.397H119.926V193.837Z" fill="#ECF5F8"/>
<path d="M108.195 192.522H169.249C170.565 192.522 171.642 194.048 171.642 195.915C171.642 197.779 170.565 199.305 169.249 199.305H108.195C106.879 199.305 105.803 197.779 105.803 195.915C105.803 194.048 106.879 192.522 108.195 192.522Z" fill="white"/>
<path d="M78.2413 56.5662H199.207C202.611 56.5662 205.396 60.5154 205.396 65.3397V158.652C205.396 163.478 202.611 167.427 199.207 167.427H78.2413C74.838 167.427 72.0527 163.478 72.0527 158.652V65.3397C72.0527 60.5154 74.838 56.5662 78.2413 56.5662Z" fill="white"/>
<path d="M76.1562 153.779H201.284V63.7039H76.1562V153.779Z" fill="#9B9B9B"/>
<path d="M176.627 99.3228H188.229V77.3481H176.627V99.3228Z" fill="#CFEFFF"/>
<path d="M89.3086 99.3228H172.963V77.3481H89.3086V99.3228Z" fill="#CFEFFF"/>
<path d="M91.4785 126.108H110.342V108.244H91.4785V126.108Z" fill="#CFEFFF"/>
<path d="M125.316 128.164H188.231V118.932H125.316V128.164Z" fill="#CFEFFF"/>
<path d="M116.787 115.421H179.702V106.19H116.787V115.421Z" fill="#CFEFFF"/>
<path d="M89.3086 146.019H167.777V132.457H89.3086V146.019Z" fill="#CFEFFF"/>
<path d="M154.925 77.342H120.563C114.044 77.342 108.76 84.8331 108.76 94.0732V109.485C108.76 118.726 114.044 126.217 120.563 126.217H154.925C161.444 126.217 166.728 118.726 166.728 109.485V94.0732C166.728 84.8331 161.444 77.342 154.925 77.342Z" fill="white"/>
<path d="M156.699 95.3333C158.705 95.3331 160.712 95.337 162.718 95.3259C162.886 95.3249 162.934 95.4235 162.949 95.6151C162.957 95.7228 162.956 95.8321 162.956 95.9408C162.956 101.437 162.956 106.933 162.956 112.429C162.956 112.782 162.908 112.849 162.654 112.849C158.689 112.849 154.723 112.849 150.758 112.849C150.457 112.849 150.423 112.802 150.423 112.379C150.423 108.859 150.43 105.339 150.419 101.82C150.416 100.964 150.415 100.108 150.415 99.2527C150.415 98.1252 150.41 96.9962 150.425 95.868C150.427 95.7277 150.451 95.5882 150.462 95.4477C150.468 95.362 150.502 95.3346 150.556 95.3346C150.598 95.3343 150.639 95.3336 150.68 95.3336C152.686 95.3336 154.693 95.3336 156.699 95.3333ZM156.677 111.8V111.801C158.506 111.801 160.335 111.801 162.165 111.801C162.392 111.801 162.391 111.8 162.391 111.476C162.391 106.449 162.391 101.422 162.39 96.3944C162.39 96.0672 162.391 96.0672 162.166 96.0672C158.513 96.0675 154.861 96.0699 151.208 96.062C151.027 96.0616 150.985 96.1277 150.986 96.3801C150.991 101.424 150.99 106.468 150.986 111.512C150.986 111.737 151.022 111.806 151.189 111.806C153.018 111.796 154.848 111.8 156.677 111.8Z" fill="#37C5FF"/>
<path d="M162.391 96.3936C162.391 96.0665 162.392 96.0665 162.167 96.0665C158.514 96.0667 154.861 96.0692 151.209 96.0613C151.028 96.0608 150.986 96.127 150.986 96.3793C150.992 101.423 150.991 106.467 150.987 111.511C150.987 111.736 151.023 111.805 151.19 111.805C153.019 111.795 154.848 111.799 156.677 111.799V111.8C158.507 111.8 160.336 111.8 162.166 111.8C162.393 111.8 162.392 111.799 162.392 111.476C162.392 106.448 162.392 101.421 162.391 96.3936Z" fill="#282439"/>
<path d="M156.53 103.329C156.424 103.6 156.26 103.819 156.041 103.986C155.821 104.152 155.548 104.235 155.222 104.235H154.619V106.267H153.646V100.608H155.222C155.54 100.608 155.809 100.686 156.029 100.842C156.249 100.998 156.414 101.213 156.524 101.487C156.634 101.761 156.689 102.075 156.689 102.43C156.689 102.758 156.636 103.057 156.53 103.329ZM155.563 102.954C155.654 102.83 155.699 102.655 155.699 102.43C155.699 102.204 155.654 102.03 155.563 101.906C155.472 101.782 155.334 101.72 155.148 101.72H154.619V103.139H155.148C155.334 103.139 155.472 103.077 155.563 102.954Z" fill="#37C5FF"/>
<path d="M157.744 106.13C157.528 105.996 157.357 105.812 157.232 105.578C157.107 105.344 157.036 105.082 157.021 104.792H157.983C157.994 104.948 158.045 105.074 158.136 105.171C158.227 105.268 158.339 105.316 158.472 105.316C158.593 105.316 158.687 105.282 158.753 105.215C158.82 105.148 158.853 105.061 158.853 104.953C158.853 104.824 158.805 104.729 158.71 104.667C158.616 104.605 158.462 104.537 158.25 104.462C158.022 104.387 157.833 104.307 157.681 104.224C157.53 104.14 157.399 104.009 157.289 103.829C157.179 103.649 157.124 103.406 157.124 103.099C157.124 102.841 157.174 102.607 157.275 102.394C157.375 102.182 157.523 102.014 157.718 101.89C157.913 101.767 158.146 101.705 158.415 101.705C158.813 101.705 159.126 101.845 159.356 102.124C159.585 102.404 159.717 102.774 159.751 103.236H158.853C158.837 103.081 158.789 102.957 158.708 102.866C158.626 102.774 158.519 102.729 158.386 102.729C158.273 102.729 158.185 102.76 158.125 102.821C158.064 102.883 158.034 102.968 158.034 103.075C158.034 103.204 158.082 103.301 158.179 103.365C158.276 103.43 158.426 103.494 158.631 103.559C158.866 103.645 159.057 103.73 159.205 103.813C159.353 103.896 159.483 104.03 159.595 104.216C159.707 104.401 159.765 104.65 159.768 104.961C159.768 105.225 159.716 105.46 159.612 105.667C159.508 105.874 159.358 106.036 159.163 106.154C158.967 106.272 158.741 106.331 158.483 106.331C158.206 106.331 157.96 106.265 157.744 106.13Z" fill="#37C5FF"/>
<path d="M137.539 98.2381C139.545 98.2379 141.552 98.2418 143.558 98.2307C143.726 98.2297 143.774 98.3283 143.789 98.5199C143.797 98.6275 143.796 98.7369 143.796 98.8456C143.796 104.342 143.796 109.838 143.796 115.334C143.796 115.687 143.748 115.754 143.494 115.754C139.529 115.754 135.563 115.754 131.598 115.754C131.297 115.754 131.263 115.707 131.263 115.284C131.263 111.764 131.27 108.244 131.259 104.724C131.256 103.869 131.255 103.012 131.255 102.157C131.255 101.03 131.25 99.901 131.265 98.7727C131.267 98.6325 131.291 98.493 131.302 98.3525C131.308 98.2668 131.342 98.2394 131.396 98.2394C131.437 98.2391 131.479 98.2384 131.52 98.2384C133.526 98.2384 135.533 98.2384 137.539 98.2381ZM137.517 114.705V114.706C139.346 114.706 141.175 114.706 143.005 114.705C143.232 114.705 143.231 114.705 143.231 114.381C143.231 109.354 143.231 104.327 143.23 99.2992C143.23 98.972 143.231 98.972 143.006 98.972C139.353 98.9723 135.701 98.9747 132.048 98.9668C131.867 98.9663 131.825 99.0325 131.826 99.2849C131.831 104.329 131.83 109.373 131.826 114.417C131.826 114.641 131.862 114.711 132.029 114.71C133.858 114.701 135.687 114.705 137.517 114.705Z" fill="#C88AF9"/>
<path d="M143.231 99.3004C143.231 98.9732 143.231 98.9732 143.006 98.9732C139.354 98.9735 135.701 98.9759 132.048 98.968C131.867 98.9675 131.826 99.0337 131.826 99.2861C131.832 104.33 131.831 109.374 131.827 114.418C131.826 114.643 131.862 114.712 132.03 114.712C133.859 114.702 135.688 114.706 137.517 114.706V114.707C139.346 114.707 141.176 114.707 143.005 114.707C143.232 114.707 143.232 114.706 143.232 114.383C143.231 109.355 143.231 104.328 143.231 99.3004Z" fill="#1F013E"/>
<path d="M135.665 103.444C135.857 104.485 136.049 105.525 136.244 106.565C136.274 106.721 136.263 106.79 136.13 106.785C135.812 106.773 135.494 106.782 135.175 106.781C135.113 106.781 135.039 106.805 135.07 106.643C135.271 105.581 135.476 104.52 135.665 103.444Z" fill="#1F013E"/>
<path d="M136.446 108.174H134.956L134.717 109.173H133.699L135.144 103.515H136.27L137.714 109.173H136.685L136.446 108.174ZM136.196 107.11L135.701 105.038L135.212 107.11H136.196Z" fill="#C88AF9"/>
<path d="M141.126 107.256H138.926C138.941 107.535 139.005 107.749 139.116 107.896C139.228 108.044 139.365 108.118 139.528 108.118C139.771 108.118 139.94 107.973 140.035 107.683H141.07C141.016 107.978 140.921 108.244 140.783 108.481C140.644 108.717 140.471 108.903 140.262 109.037C140.054 109.171 139.82 109.238 139.563 109.238C139.252 109.238 138.975 109.145 138.732 108.956C138.49 108.769 138.3 108.5 138.163 108.15C138.027 107.801 137.959 107.392 137.959 106.925C137.959 106.457 138.026 106.049 138.161 105.7C138.295 105.35 138.484 105.081 138.727 104.893C138.969 104.705 139.248 104.611 139.563 104.611C139.87 104.611 140.143 104.703 140.382 104.885C140.62 105.068 140.807 105.329 140.942 105.667C141.076 106.006 141.144 106.401 141.144 106.852C141.144 106.981 141.138 107.116 141.126 107.256ZM140.148 106.49C140.148 106.253 140.092 106.065 139.978 105.925C139.864 105.786 139.722 105.716 139.551 105.716C139.388 105.716 139.251 105.783 139.139 105.917C139.027 106.052 138.958 106.242 138.931 106.49H140.148Z" fill="#C88AF9"/>
<path d="M118.379 99.1764C120.385 99.1761 122.392 99.1801 124.398 99.169C124.566 99.168 124.614 99.2665 124.629 99.4581C124.637 99.5658 124.636 99.6751 124.636 99.7838C124.636 105.28 124.636 110.775 124.636 116.271C124.636 116.625 124.588 116.691 124.334 116.691C120.369 116.692 116.403 116.692 112.438 116.692C112.137 116.692 112.103 116.645 112.103 116.221C112.103 112.702 112.11 109.182 112.099 105.662C112.096 104.807 112.095 103.95 112.094 103.096C112.094 101.968 112.09 100.839 112.105 99.711C112.106 99.5707 112.131 99.4312 112.141 99.2907C112.147 99.205 112.182 99.1776 112.236 99.1776C112.277 99.1773 112.319 99.1766 112.36 99.1766C114.366 99.1766 116.373 99.1766 118.379 99.1764ZM118.357 115.642V115.643C120.186 115.643 122.015 115.643 123.844 115.643C124.072 115.643 124.071 115.643 124.071 115.319C124.071 110.292 124.07 105.265 124.07 100.237C124.07 99.9102 124.07 99.9102 123.846 99.9102C120.193 99.9105 116.54 99.9129 112.888 99.905C112.707 99.9045 112.665 99.9707 112.666 100.223C112.671 105.267 112.67 110.311 112.666 115.355C112.666 115.579 112.702 115.649 112.869 115.648C114.698 115.639 116.527 115.642 118.357 115.642Z" fill="#FF7D1B"/>
<path d="M124.069 100.238C124.069 99.9105 124.069 99.9105 123.844 99.9105C120.191 99.9107 116.539 99.9132 112.886 99.9053C112.705 99.9048 112.664 99.971 112.664 100.223C112.669 105.267 112.669 110.312 112.664 115.356C112.664 115.58 112.7 115.65 112.868 115.649C114.697 115.64 116.526 115.643 118.355 115.643V115.644C120.184 115.644 122.014 115.644 123.843 115.644C124.07 115.644 124.07 115.644 124.07 115.32C124.069 110.292 124.069 105.265 124.069 100.238Z" fill="#41312A"/>
<path d="M118.155 109.112H116.665L116.426 110.111H115.408L116.853 104.452H117.979L119.423 110.111H118.394L118.155 109.112ZM117.905 108.047L117.41 105.976L116.921 108.047H117.905Z" fill="#FF7D1B"/>
<path d="M119.934 104.932C119.826 104.79 119.771 104.613 119.771 104.404C119.771 104.189 119.826 104.01 119.934 103.868C120.042 103.726 120.181 103.654 120.352 103.654C120.518 103.654 120.656 103.726 120.764 103.868C120.872 104.01 120.926 104.189 120.926 104.404C120.926 104.613 120.872 104.79 120.764 104.932C120.656 105.074 120.518 105.146 120.352 105.146C120.181 105.146 120.042 105.074 119.934 104.932ZM120.835 110.112H119.863V105.613H120.835V110.112Z" fill="#FF7D1B"/>
<path d="M154.161 23.4651H144.966C143.741 23.4651 142.74 24.885 142.74 26.6201C142.74 28.3551 143.741 29.775 144.965 29.775H154.161C155.385 29.775 156.386 28.3551 156.386 26.6201C156.386 24.885 155.385 23.4651 154.161 23.4651Z" fill="#4452FE"/>
<path d="M131.489 16.3235H117.698C113.527 16.3235 110.115 21.161 110.115 27.0728C110.115 32.9852 113.527 37.8221 117.698 37.8221H131.489C135.66 37.8221 139.071 32.9852 139.071 27.0728C139.071 21.161 135.66 16.3235 131.489 16.3235Z" fill="#252525"/>
<path d="M96.7658 13.2629H81.0466C75.5797 13.2629 71.1074 19.6026 71.1074 27.3512V27.6357C71.1074 35.3844 75.5797 41.7247 81.0466 41.7247H96.7658C102.232 41.7247 106.704 35.3844 106.704 27.6357V27.3512C106.704 19.6026 102.232 13.2629 96.7658 13.2629Z" fill="#4452FE"/>
<path d="M99.6235 29.8847H99.6074H99.6235ZM99.6074 25.1021V29.8847H100.296V26.986L101.849 29.8847H102.464V25.1021H101.776V28.0004L100.223 25.1021H99.6074Z" fill="#252525"/>
<path d="M97.2319 25.9293C97.8412 25.9293 98.3358 26.6304 98.3358 27.4941C98.3358 28.3579 97.8412 29.059 97.2319 29.059C96.6225 29.059 96.1277 28.3579 96.1277 27.4941C96.1277 26.6304 96.6225 25.9293 97.2319 25.9293ZM97.2319 24.9871C96.2503 24.9871 95.4551 26.1092 95.4551 27.4941C95.4551 28.8791 96.2503 30.0012 97.2319 30.0012C98.2134 30.0012 99.0084 28.8791 99.0084 27.4941C99.0084 26.1092 98.2134 24.9871 97.2319 24.9871Z" fill="#252525"/>
<path d="M94.084 25.1021V29.8847H94.7724V25.1021H94.084Z" fill="#252525"/>
<path d="M90.7109 25.1021V26.0846H91.7076V29.8847H92.417V26.0846H93.4137V25.1021H90.7109Z" fill="#252525"/>
<path d="M89.0337 26.5208L89.3836 27.8823H88.6837L89.0337 26.5208ZM88.6689 25.1021L87.4395 29.8847H88.169L88.4327 28.8587H89.6346L89.8983 29.8847H90.6279L89.3985 25.1021H88.6689Z" fill="#252525"/>
<path d="M83.3457 25.1021V29.8847H84.0341V27.0498L85.0595 29.1595L86.0849 27.0501V29.8847H86.7731V25.1021H86.2051L85.0595 27.4589L83.9139 25.1021H83.3457Z" fill="#252525"/>
<path d="M81.9746 25.1021V29.8847H82.6629V25.1021H81.9746Z" fill="#252525"/>
<path d="M78.4653 29.8847H78.4492H78.4653ZM78.4492 25.1021V29.8847H79.1376V26.986L80.6911 29.8847H81.3062V25.1021H80.6181V28.0004L79.0648 25.1021H78.4492Z" fill="#252525"/>
<path d="M76.3169 26.5212L76.6668 27.8827H75.967L76.3169 26.5212ZM75.9521 25.1023L74.7227 29.8852H75.4522L75.7159 28.8591H76.9178L77.1815 29.8852H77.9111L76.6817 25.1023H75.9521Z" fill="#252525"/>
<path d="M131.519 31.6128C130.832 31.6128 130.195 32.3221 130.195 33.4701C130.195 34.618 130.832 35.327 131.519 35.327C132.093 35.327 132.357 35.0153 132.591 34.7508V33.1995H131.79V33.8996H132.121V34.4041C131.931 34.5522 131.776 34.6292 131.519 34.6292C131.11 34.6292 130.718 34.0958 130.718 33.4701C130.718 32.8443 131.112 32.3105 131.519 32.3105C131.713 32.3105 131.917 32.3428 132.206 32.6104L132.467 32.0627C132.164 31.7608 131.843 31.6135 131.519 31.6128Z" fill="white"/>
<path d="M127.647 35.2417H127.635H127.647ZM127.635 31.6985V35.2417H128.145V33.0944L129.295 35.2417H129.751V31.6985H129.241V33.8458L128.091 31.6985H127.635Z" fill="white"/>
<path d="M126.619 31.6985V35.2417H127.129V31.6985H126.619Z" fill="white"/>
<path d="M125.052 31.6128C124.366 31.6128 123.729 32.3221 123.729 33.4701C123.729 34.618 124.366 35.327 125.052 35.327C125.626 35.327 125.89 35.0153 126.124 34.7508V33.1995H125.324V33.8996H125.655V34.4041C125.464 34.5522 125.309 34.6292 125.052 34.6292C124.643 34.6292 124.251 34.0958 124.251 33.4701C124.251 32.8443 124.645 32.3105 125.052 32.3105C125.246 32.3105 125.45 32.3428 125.74 32.6104L126 32.0627C125.697 31.7608 125.376 31.6135 125.052 31.6128Z" fill="white"/>
<path d="M122.212 31.6128C121.526 31.6128 120.889 32.3221 120.889 33.4701C120.889 34.618 121.526 35.327 122.212 35.327C122.786 35.327 123.05 35.0153 123.284 34.7508V33.1995H122.484V33.8996H122.815V34.4041C122.624 34.5522 122.469 34.6292 122.212 34.6292C121.803 34.6292 121.411 34.0958 121.411 33.4701C121.411 32.8443 121.805 32.3105 122.212 32.3105C122.406 32.3105 122.611 32.3428 122.9 32.6104L123.161 32.0627C122.857 31.7608 122.536 31.6135 122.212 31.6128Z" fill="white"/>
<path d="M119.92 31.6985V35.2417H120.43V31.6985H119.92Z" fill="white"/>
<path d="M118.081 32.417H118.489C118.725 32.417 118.925 32.7036 118.925 33.09C118.925 33.4764 118.725 33.763 118.489 33.763H118.081V32.417ZM117.574 31.6985V35.2417H118.081V34.4815H118.273L118.818 35.2417H119.494L118.866 34.3647C119.201 34.147 119.431 33.6506 119.431 33.09C119.431 32.3362 119.015 31.6985 118.489 31.6985H117.574Z" fill="white"/>
<path d="M134.142 24.2685H134.55C134.785 24.2685 134.985 24.5551 134.985 24.9414C134.985 25.3278 134.785 25.6144 134.55 25.6144H134.142V24.2685ZM133.635 23.55V27.093H134.142V26.3328H134.334L134.879 27.093H135.555L134.927 26.216C135.261 25.9984 135.492 25.502 135.492 24.9414C135.492 24.1877 135.075 23.55 134.55 23.55H133.635Z" fill="white"/>
<path d="M131.48 23.55V27.0923H133.132V26.3688H131.99V25.6541H133.089V24.9886H131.99V24.2732H133.132V23.55H131.48Z" fill="white"/>
<path d="M128.979 23.55V24.278H129.717V27.093H130.242V24.278H130.98V23.55H128.979Z" fill="white"/>
<path d="M127.654 23.4651C126.852 23.4651 126.285 24.3153 126.285 25.3224C126.285 26.3294 126.852 27.1793 127.654 27.1793C128.017 27.1793 128.321 27.0004 128.559 26.727L128.264 26.1067C128.092 26.2914 127.888 26.4123 127.655 26.4123C127.243 26.4045 126.844 26.0272 126.826 25.3224C126.844 24.6175 127.243 24.2399 127.655 24.2321C127.888 24.2321 128.092 24.353 128.264 24.5377L128.559 23.9177C128.321 23.6444 128.017 23.4651 127.654 23.4651Z" fill="white"/>
<path d="M124.921 24.6012L125.18 25.6096H124.662L124.921 24.6012ZM124.651 23.55L123.74 27.093H124.281L124.476 26.3328H125.366L125.562 27.093H126.102L125.191 23.55H124.651Z" fill="white"/>
<path d="M121.997 24.2685H122.405C122.641 24.2685 122.841 24.5551 122.841 24.9414C122.841 25.3278 122.641 25.6144 122.405 25.6144H121.997V24.2685ZM121.49 23.55V27.093H121.997V26.3328H122.19L122.734 27.093H123.41L122.782 26.216C123.117 25.9984 123.348 25.502 123.348 24.9414C123.348 24.1877 122.931 23.55 122.405 23.55H121.49Z" fill="white"/>
<path d="M119.912 24.6012L120.171 25.6096H119.652L119.912 24.6012ZM119.641 23.55L118.73 27.093H119.271L119.466 26.3328H120.357L120.552 27.093H121.092L120.182 23.55H119.641Z" fill="white"/>
<path d="M116.359 23.55V27.093H116.869V25.6833H117.82V27.093H118.33V23.55H117.82V24.9598H116.869V23.55H116.359Z" fill="white"/>
<path d="M115.031 23.4651C114.229 23.4651 113.662 24.3153 113.662 25.3224C113.662 26.3294 114.229 27.1793 115.031 27.1793C115.394 27.1793 115.698 27.0004 115.936 26.727L115.64 26.1067C115.469 26.2914 115.265 26.4123 115.032 26.4123C114.62 26.4045 114.221 26.0272 114.203 25.3224C114.221 24.6175 114.62 24.2399 115.032 24.2321C115.265 24.2321 115.469 24.353 115.64 24.5377L115.936 23.9177C115.698 23.6444 115.394 23.4651 115.031 23.4651Z" fill="white"/>
<path d="M99.034 160.393C98.9357 161.35 99.1957 162.449 99.1233 163.429C99.0324 164.656 98.5007 165.057 98.1649 165.858C97.7675 166.807 97.6453 168.525 97.8735 169.955C98.0152 170.839 98.2673 171.57 98.4678 172.376C98.6679 173.182 98.8222 174.178 98.7239 175.047C98.5755 176.355 97.5076 177.465 97.7618 182.925C97.9937 187.908 100.618 189.594 101.392 190.742L99.8883 158.434L99.5839 158.909C99.3539 159.268 99.1067 159.684 99.034 160.393Z" fill="#66D4FF"/>
<path d="M102.523 171.985C102.647 171.147 102.828 170.373 102.886 169.469C102.979 168.007 102.698 166.329 102.216 165.467C101.808 164.739 101.244 164.446 101.04 163.248C100.877 162.291 101.032 161.152 100.845 160.223C100.707 159.535 100.424 159.171 100.162 158.86L99.8164 158.45L101.337 190.756C101.997 189.466 104.44 187.28 104.205 182.298C103.949 176.839 102.787 175.949 102.518 174.681C102.34 173.841 102.399 172.823 102.523 171.985Z" fill="#66D4FF"/>
<path d="M103.349 179.431C103.217 179.772 103.339 180.215 103.225 180.569C103.083 181.012 102.667 181.089 102.371 181.341C102.021 181.639 101.824 182.259 101.903 182.821C101.951 183.169 102.091 183.474 102.188 183.801C102.284 184.127 102.336 184.518 102.21 184.827C102.019 185.293 101.167 185.559 101.013 187.619C100.874 189.5 102.694 190.483 103.191 191.015L104.097 178.821L103.845 178.955C103.654 179.057 103.447 179.177 103.349 179.431Z" fill="#20A0EF"/>
<path d="M104.653 180.773C104.593 180.395 104.779 179.993 104.7 179.623C104.641 179.349 104.456 179.175 104.283 179.024L104.055 178.825L103.151 191.024C103.717 190.635 105.646 190.156 105.785 188.275C105.938 186.213 105.142 185.724 105.024 185.218C104.945 184.881 105.052 184.512 105.196 184.218C105.338 183.924 105.52 183.661 105.619 183.333C105.779 182.803 105.678 182.142 105.378 181.757C105.124 181.431 104.729 181.245 104.653 180.773Z" fill="#20A0EF"/>
<path d="M97.2441 189.938C97.2441 189.938 98.8123 192.32 98.8123 193.923C98.8123 194.352 98.7039 195.007 98.5436 195.739C98.0337 198.074 99.2452 200.446 100.969 200.446H105.114C106.838 200.446 108.05 198.074 107.54 195.739C107.379 195.007 107.271 194.352 107.271 193.923C107.271 192.32 108.84 189.938 108.84 189.938H97.2441Z" fill="white"/>
<path d="M139.728 120.487L104.577 117.731L104.191 129.089L174.493 134.602L174.878 123.244L139.728 120.487Z" fill="#61C3FF"/>
<path d="M110.966 118.327L110.824 122.469L111.617 122.531L111.758 118.39L110.966 118.327Z" fill="#271F62"/>
<path d="M108.231 118.123L108.026 124.075L108.82 124.137L109.024 118.185L108.231 118.123Z" fill="#271F62"/>
<path d="M116.438 118.732L116.296 122.873L117.089 122.936L117.231 118.794L116.438 118.732Z" fill="#271F62"/>
<path d="M113.704 118.528L113.499 124.481L114.293 124.544L114.497 118.591L113.704 118.528Z" fill="#271F62"/>
<path d="M121.913 119.139L121.771 123.279L122.564 123.342L122.705 119.202L121.913 119.139Z" fill="#271F62"/>
<path d="M119.18 118.935L118.976 124.888L119.769 124.95L119.973 118.998L119.18 118.935Z" fill="#271F62"/>
<path d="M127.384 119.544L127.242 123.686L128.035 123.749L128.176 119.607L127.384 119.544Z" fill="#271F62"/>
<path d="M124.651 119.341L124.446 125.294L125.24 125.356L125.445 119.404L124.651 119.341Z" fill="#271F62"/>
<path d="M132.858 119.951L132.716 124.091L133.509 124.154L133.651 120.013L132.858 119.951Z" fill="#271F62"/>
<path d="M130.124 119.749L129.919 125.702L130.713 125.764L130.917 119.812L130.124 119.749Z" fill="#271F62"/>
<path d="M138.335 120.357L138.192 124.499L138.985 124.562L139.127 120.42L138.335 120.357Z" fill="#271F62"/>
<path d="M135.598 120.154L135.394 126.107L136.187 126.169L136.391 120.217L135.598 120.154Z" fill="#271F62"/>
<path d="M143.805 120.764L143.664 124.904L144.457 124.967L144.598 120.827L143.805 120.764Z" fill="#271F62"/>
<path d="M141.071 120.561L140.867 126.514L141.661 126.576L141.865 120.624L141.071 120.561Z" fill="#271F62"/>
<path d="M149.28 121.169L149.138 125.311L149.931 125.374L150.073 121.232L149.28 121.169Z" fill="#271F62"/>
<path d="M146.544 120.967L146.339 126.92L147.133 126.982L147.337 121.03L146.544 120.967Z" fill="#271F62"/>
<path d="M154.753 121.577L154.61 125.717L155.403 125.78L155.545 121.639L154.753 121.577Z" fill="#271F62"/>
<path d="M152.018 121.374L151.814 127.327L152.607 127.39L152.811 121.437L152.018 121.374Z" fill="#271F62"/>
<path d="M160.227 121.982L160.085 126.123L160.878 126.185L161.02 122.045L160.227 121.982Z" fill="#271F62"/>
<path d="M157.491 121.78L157.287 127.734L158.08 127.796L158.284 121.843L157.491 121.78Z" fill="#271F62"/>
<path d="M165.7 122.389L165.558 126.531L166.351 126.594L166.493 122.452L165.7 122.389Z" fill="#271F62"/>
<path d="M162.964 122.186L162.76 128.139L163.553 128.201L163.757 122.248L162.964 122.186Z" fill="#271F62"/>
<path d="M171.173 122.794L171.031 126.935L171.824 126.997L171.965 122.857L171.173 122.794Z" fill="#271F62"/>
<path d="M168.438 122.592L168.234 128.545L169.027 128.607L169.231 122.655L168.438 122.592Z" fill="#271F62"/>
<path d="M170.038 194.25C170.583 193.76 171.459 193.824 172.024 194.627C172.024 194.627 173.841 182.348 174.743 169.043C175.63 155.95 175.412 152.71 175.633 145.51L175.864 133.931C172.588 133.753 167.914 134.38 166.884 133.55C166.462 135.97 170.038 194.25 170.038 194.25Z" fill="#20A0EF"/>
<path d="M170.203 194.329C170.203 194.329 170.102 194.515 169.837 194.878C169.325 195.576 167.009 197.035 166.929 198.121C166.889 198.67 167.666 199.282 168.328 199.418C168.989 199.553 169.574 199.587 169.951 199.342C170.421 199.038 171.378 197.607 171.545 197.29C171.835 196.738 171.836 195.21 171.836 195.21C171.451 193.91 170.203 194.329 170.203 194.329Z" fill="#272063"/>
<path d="M162.766 78.3664C162.759 78.7309 162.96 78.625 163.151 78.5979C163.496 78.5809 163.866 78.6192 164.197 78.7513C163.839 78.5257 163.969 78.2369 163.619 77.9244C163.46 77.8624 162.758 78.1313 162.766 78.3664Z" fill="#FBD2C5"/>
<path d="M162.129 74.7227C162.132 74.8073 161.571 74.5043 161.53 74.8377C161.53 74.8377 161.327 74.8208 161.261 75.0631C161.21 75.247 161.264 75.7106 161.324 75.8459C161.417 76.0582 161.885 76.505 162.053 76.7146C162.113 76.782 162.977 77.7432 163.393 78.1079C163.744 78.4205 164.11 78.7061 164.467 78.9324C164.489 78.9425 165.426 77.5854 165.629 77.0542C165.049 76.5207 163.153 75.0726 163.113 75.0258C162.45 74.2505 162.118 74.3764 162.129 74.7227Z" fill="#FBD2C5"/>
<path d="M169.595 86.6494C170.484 87.9462 171.326 89.1758 171.973 90.0571C171.999 90.3852 176.801 91.1303 175.526 88.0249C174.326 85.0082 168.346 78.6446 165.618 76.324L164.135 79.3936C165.24 80.2922 167.655 83.8171 169.595 86.6494Z" fill="#5E5E5E"/>
<path d="M171.962 90.0572C171.988 90.3853 172.028 90.721 172.084 91.0767C172.405 93.1359 172.608 96.3238 172.805 99.406C173.001 102.472 173.162 106.609 174.196 107.855C174.315 107.999 178.091 106.087 178.688 105.469C180.467 103.619 177.383 92.3738 176.107 89.2677C174.908 86.2503 171.315 89.1756 171.962 90.0572Z" fill="#5E5E5E"/>
<path d="M174.355 136.246L175.662 145.729C175.52 148.079 176.539 156.121 178.041 167.462C179.766 180.489 182.298 193.946 182.298 193.946C182.92 193.231 184.068 192.988 184.574 193.556C184.574 193.556 184.021 157.095 183.674 141.096C183.637 139.385 183.385 137.971 182.754 136.774C182.074 135.485 180.697 134.067 179.913 134.398C177.942 135.232 176.418 135.424 174.355 136.246Z" fill="#20A0EF"/>
<path d="M184.729 194.207C184.491 193.808 184.405 193.608 184.405 193.608C184.405 193.608 183.194 193.009 182.716 194.244C182.716 194.244 182.605 195.764 182.854 196.355C182.996 196.694 183.843 198.258 184.289 198.631C184.646 198.929 185.231 198.982 185.898 198.945C186.565 198.907 187.383 198.412 187.383 197.861C187.383 196.768 185.187 194.976 184.729 194.207Z" fill="#272063"/>
<path d="M171.973 95.9143C171.758 96.1789 169.504 98.3213 168.822 98.2615C168.842 98.5249 169.457 101.252 169.107 102.803C169.375 104.172 172.114 103.838 172.733 101.386C172.38 100.752 171.913 97.214 171.973 95.9143Z" fill="#FBD2C5"/>
<path d="M180.888 132.838C177.671 133.813 174.475 134.848 171.2 135.35C169.173 135.66 167.227 135.593 165.385 135.109C165.63 139.379 166.028 143.585 166.66 147.012C166.759 147.217 168.162 147.572 168.677 147.631C171.538 147.956 177.58 145.241 181.614 143.865C181.614 143.865 183.908 143.148 184.218 143.077C184.017 139.686 183.588 135.893 183.061 132.118C182.358 132.39 181.631 132.612 180.888 132.838Z" fill="#93E1FF"/>
<path d="M175.645 102.131C174.93 101.983 172.803 101.442 172.803 101.442C172.803 101.442 172.438 102.295 171.19 102.831C170.069 103.312 169.168 102.865 169.168 102.865C169.168 102.865 166.819 104.197 166.402 104.61C164.783 106.21 165.153 108.581 164.9 110.504C164.7 112.015 164.157 132.857 166.32 144.606C166.419 144.811 167.077 144.942 167.311 145.046L167.007 137.702L168.346 145.227C171.229 145.263 177.284 142.826 181.335 141.443L181.248 132.688L182.89 140.939C183.283 140.82 183.638 140.724 183.949 140.652C183.162 127.358 178.903 107.942 178.846 107.32C178.609 104.754 177.791 102.575 175.645 102.131Z" fill="#5E5E5E"/>
<path d="M170.464 91.462C169.24 91.1257 168.011 91.3185 167.597 92.9161C167.448 93.489 167.172 98.8393 169.113 99.9993C169.934 100.49 171.744 98.7259 171.931 97.34C171.931 97.34 172.187 95.4505 172.189 95.4315C172.438 93.5933 171.779 91.8236 170.464 91.462Z" fill="#FBD2C5"/>
<path d="M173.235 89.8218C171.493 87.3401 168.059 88.8206 166.962 91.4587C166.144 93.4264 165.677 91.873 165.786 91.3321C165.474 92.6814 165.783 93.9544 167.695 94.095C168.097 94.1246 166.77 94.4513 166.77 94.4513C166.77 94.4513 168.276 100.739 171.529 99.8514C172.495 99.5875 173.416 98.4526 173.416 98.4526C173.416 98.4526 172.382 98.5073 173.018 97.4383C174.252 95.363 174.774 92.0135 173.235 89.8218Z" fill="#252525"/>
<path d="M147.533 128.483C147.495 128.712 148.154 129.156 148.319 129.135C148.701 128.916 148.609 128.599 148.989 128.468C148.647 128.514 148.278 128.457 147.94 128.353C147.756 128.278 147.57 128.122 147.533 128.483Z" fill="#FBD2C5"/>
<path d="M146.623 129.928C146.432 130.092 145.916 130.413 145.797 130.598C145.722 130.716 145.612 131.158 145.639 131.351C145.675 131.607 145.877 131.641 145.877 131.641C145.876 131.98 146.467 131.825 146.454 131.907C146.4 132.245 146.71 132.454 147.459 131.859C147.504 131.824 149.551 130.881 150.187 130.503C150.053 129.929 149.297 128.355 149.275 128.36C148.895 128.492 148.5 128.68 148.116 128.898C147.661 129.151 146.691 129.876 146.623 129.928Z" fill="#FBD2C5"/>
<path d="M158.041 119.296C157.294 119.999 156.312 120.995 155.277 122.045C153.017 124.34 150.204 127.195 149.004 127.798L150.086 131.196C153.061 129.604 159.377 125.441 160.924 122.785C161.526 119.482 158.093 119.042 158.041 119.296Z" fill="#5E5E5E"/>
<path d="M163.629 106.092C162.597 106.881 162.342 107.74 161.475 110.618C160.617 113.466 159.564 117.084 158.529 118.601C157.876 119.557 159.178 124.81 161.064 122.625C163.055 120.384 169.012 111.653 168.295 108.697C167.179 104.096 164.652 105.31 163.629 106.092Z" fill="#5E5E5E"/>
<path d="M57.9052 143.449C57.9569 143.672 58.6806 143.562 58.8132 143.422C59.0597 142.951 58.8638 142.749 59.1401 142.355C58.8655 142.648 58.5308 142.874 58.2041 143.036C58.0201 143.109 57.8044 143.113 57.9052 143.449Z" fill="#FBD2C5"/>
<path d="M58.5551 143.368C58.2598 143.922 57.6999 145.263 57.6609 145.357C57.5578 145.639 57.2355 146.297 57.2028 146.542C57.1818 146.699 57.2499 147.158 57.3437 147.303C57.4678 147.495 57.6523 147.375 57.6523 147.375C57.7752 147.664 58.2216 147.093 58.2411 147.173C58.3184 147.501 58.6592 147.449 59.0797 146.385C59.1052 146.322 60.5038 143.997 60.9071 143.202C60.5824 142.81 59.3618 142.029 59.345 142.049C59.0696 142.444 58.8013 142.896 58.5551 143.368Z" fill="#FBD2C5"/>
<path d="M66.3548 128.634C66.2266 128.741 66.1199 128.864 66.0444 128.986C64.6659 131.213 60.5735 140.693 58.8777 142.696C59.4402 143.314 59.8789 143.882 60.1481 144.397C62.8908 141.026 69.0556 131.554 68.457 129.705C67.9087 128.011 66.9218 128.163 66.3548 128.634Z" fill="#FBD2C5"/>
<path d="M65.121 113.025C64.856 115.729 65.6341 124.448 65.4378 128.729C65.1971 133.981 67.887 132.303 68.3247 130.74C69.4772 126.624 71.2544 114.583 69.8057 113.545C69.1777 113.095 65.1695 112.535 65.121 113.025Z" fill="#FBD2C5"/>
<path d="M65.1106 113.021C64.9229 114.928 65.1384 119.905 64.9757 124.088C65.9382 124.381 67.3229 124.621 68.3135 124.687C68.7181 124.714 69.9404 124.85 70.3427 124.828C71.1044 119.964 70.755 114.232 69.7896 113.54C69.3968 113.259 67.7862 111.434 66.5457 111.351C65.8053 111.302 65.1289 112.838 65.1106 113.021Z" fill="#20A0EF"/>
<path d="M83.2113 195.868L84.5696 194.797C84.5696 194.797 84.8609 195.416 85.0987 195.815C85.5569 196.584 87.7539 197.142 87.7539 198.234C87.7539 198.785 86.9356 199.28 86.2684 199.318C85.6008 199.355 85.016 199.302 84.6584 199.004C84.2138 198.632 83.3668 198.302 83.2239 197.963C82.9757 197.373 83.1712 196.687 83.1712 196.687C83.1011 196.079 83.2113 195.868 83.2113 195.868Z" fill="#271F62"/>
<path d="M85.0996 195.814C85.0996 195.814 84.8244 196.485 84.3105 196.887C84.0191 197.113 83.1721 196.687 83.1721 196.687C83.1015 196.077 83.0719 195.665 83.0719 195.665L84.6149 194.682C84.6149 194.682 84.7547 195.198 85.0996 195.814Z" fill="#FBD2C5"/>
<path d="M79.4802 132.01C79.2376 134.479 82.941 195.315 82.941 195.315C82.9589 195.417 84.2801 196.435 84.9443 195.397C84.9443 195.397 85.638 181.373 86.9697 168.141C87.9879 158.034 88.4704 138.354 88.568 133.953C88.575 133.643 88.8341 131.443 88.2566 129.58C88.0929 129.051 85.5108 128.977 85.5108 128.977C82.239 129.281 80.4509 130.865 79.4802 132.01Z" fill="#5E5E5E"/>
<path d="M77.5773 196.023L76.219 194.952C76.219 194.952 75.9281 195.571 75.6903 195.97C75.2318 196.739 73.0352 197.297 73.0352 198.389C73.0352 198.94 73.8534 199.435 74.5206 199.473C75.1882 199.51 75.7361 199.342 76.1302 199.159C76.5234 198.976 77.4223 198.457 77.5651 198.118C77.8133 197.528 77.6174 196.842 77.6174 196.842C77.6879 196.234 77.5773 196.023 77.5773 196.023Z" fill="#271F62"/>
<path d="M75.6914 195.969C75.6914 195.969 75.9666 196.64 76.481 197.042C76.7714 197.268 77.6185 196.842 77.6185 196.842C77.6895 196.232 77.7191 195.82 77.7191 195.82L76.1761 194.836C76.1761 194.836 76.0363 195.353 75.6914 195.969Z" fill="#FBD2C5"/>
<path d="M72.3865 132.01C72.1435 134.479 75.8469 195.315 75.8469 195.315C75.8652 195.417 77.186 196.435 77.8506 195.397C77.8506 195.397 78.5439 181.373 79.8761 168.141C81.0262 156.718 80.8551 145.886 81.4926 145.173V133.067C78.2212 133.371 73.4717 132.685 72.3865 132.01Z" fill="#5E5E5E"/>
<path d="M66.6316 103.247C66.7117 103.484 67.9269 105.771 67.955 107.393C68.5262 108.559 71.0444 106.981 71.0628 104.384C70.5814 103.951 69.3192 100.833 69.0738 99.5806C68.9323 99.9284 67.2923 102.988 66.6316 103.247Z" fill="#FBD2C5"/>
<path d="M72.1391 135.978C72.1391 135.978 71.8736 141.663 72.5073 141.931C73.9412 142.538 77.4719 138.913 80.2761 136.533C83.0808 134.152 88.8051 131.548 88.6826 130.61C88.3522 128.079 86.0429 123.482 86.0429 123.482L72.1391 135.978Z" fill="#20A0EF"/>
<path d="M73.9415 103.825C73.2303 104.015 71.0898 104.487 71.0898 104.487C71.0898 104.487 70.2502 106.988 69.3838 107.644C68.789 108.094 67.9785 107.498 67.9785 107.498C67.9785 107.498 66.0632 109.833 65.7633 110.414C64.6015 112.664 64.9131 115.063 65.7084 116.649C72.2304 129.653 71.0445 137.358 71.7452 138.086C73.4645 139.869 87.8959 129.025 87.3506 125.842C85.421 114.574 79.338 107.109 78.8639 106.416C77.3263 104.17 76.0759 103.255 73.9415 103.825Z" fill="#5E5E5E"/>
<path d="M64.2263 133.012L57.2224 133.27C55.7306 133.325 54.54 135.072 54.5627 137.171L55.1267 189.703C55.1787 194.524 57.9975 198.33 61.4227 198.203C64.8485 198.076 67.5834 194.065 67.5314 189.244L66.9676 136.712C66.9448 134.613 65.7176 132.956 64.2263 133.012Z" fill="white"/>
<path d="M64.2048 133.01L57.2059 133.27C55.7151 133.325 54.5252 135.07 54.5478 137.168L55.0227 181.639L67.4186 181.18L66.9437 136.709C66.9214 134.61 65.6951 132.954 64.2048 133.01Z" fill="#9B9B9B"/>
<path d="M62.9217 133.877C62.9044 134.11 63.5973 134.419 63.7589 134.366C64.1199 134.075 63.9991 133.781 64.3653 133.577C64.0299 133.689 63.659 133.706 63.3138 133.67C63.1246 133.632 62.9265 133.514 62.9217 133.877Z" fill="#FBD2C5"/>
<path d="M63.5468 134.18C63.1175 134.518 62.2193 135.426 62.1566 135.489C61.9812 135.688 61.4969 136.107 61.3964 136.312C61.3319 136.443 61.2615 136.9 61.3053 137.086C61.3633 137.331 61.5665 137.325 61.5665 137.325C61.5951 137.659 62.1674 137.39 62.1623 137.473C62.138 137.817 62.4643 137.961 63.1553 137.228C63.1969 137.184 65.1447 135.853 65.7423 135.355C65.5588 134.815 64.6699 133.413 64.6486 133.423C64.2833 133.627 63.9077 133.889 63.5468 134.18Z" fill="#FBD2C5"/>
<path d="M73.9594 122.08C73.8181 122.145 73.6947 122.231 73.6028 122.327C71.916 124.076 66.4632 132.069 64.5032 133.501C64.9541 134.278 65.2908 134.968 65.4724 135.554C68.6632 133.108 76.1291 125.762 75.8348 123.773C75.5659 121.95 74.584 121.795 73.9594 122.08Z" fill="#FBD2C5"/>
<path d="M74.5911 106.422C74.0006 109.026 73.6997 117.815 72.9848 121.992C72.1081 127.116 74.9498 126.109 75.5695 124.673C77.2017 120.89 80.4128 109.439 79.1199 108.065C78.5585 107.469 74.6977 105.95 74.5911 106.422Z" fill="#FBD2C5"/>
<path d="M74.5741 106.424C73.7383 107.957 73.7623 113.226 73.092 117.316C74.2278 118.409 76.4478 119.409 78.2684 119.343C79.609 114.727 80.0029 110.112 79.6384 108.674C78.7684 105.242 75.6549 104.442 74.5741 106.424Z" fill="#20A0EF"/>
<path d="M67.4064 98.7983C66.6499 97.2703 65.2957 96.7172 64.1963 97.8101C63.1731 98.8283 62.4141 100.218 62.9334 101.749C63.1191 102.297 65.6334 106.288 67.5736 105.108C68.3937 104.609 68.7627 101.537 68.192 100.385C68.192 100.385 67.4146 98.8139 67.4064 98.7983Z" fill="#FBD2C5"/>
<path d="M65.9804 94.63C63.5373 94.4506 62.4316 98.8665 62.4316 98.8665C61.0179 101.223 63.3378 104.233 64.3885 103.855C62.587 101.75 63.3406 99.5392 63.3406 99.5392C65.5764 96.9041 68.524 99.7846 68.9318 100.937C68.9318 100.937 69.6585 94.9004 65.9804 94.63Z" fill="#252525"/>
<path d="M67.0308 98.2778C66.9313 98.4011 66.7782 98.6792 66.7175 98.9835C67.0989 99.3636 67.7851 99.8801 68.1243 100.136C68.3106 99.7405 68.2826 98.8464 68.0688 98.5011C67.842 98.136 67.2915 97.9548 67.0308 98.2778Z" fill="#FBD2C5"/>
<path d="M76.0529 93.2789C74.9848 93.0602 74.3706 93.3536 72.6385 90.7367C66.8913 82.0547 63.7658 92.0642 65.2756 94.345C65.647 94.9054 66.079 94.9886 66.0667 93.9633C66.0465 92.232 67.6116 88.8769 69.5992 95.8976C70.1235 97.7502 69.8387 101.239 74.3623 100.492C78.4546 99.8167 76.7522 103.301 77.5417 104.25C79.5677 106.685 81.326 94.357 76.0529 93.2789Z" fill="#252525"/>
<path d="M65.4981 93.7527C65.2943 93.7933 65.1441 93.9096 65.0339 94.0551C64.7599 94.4169 64.7329 94.9607 64.7329 94.9607C65.6051 94.4891 66.6805 94.7317 66.6805 94.7317C66.5661 94.091 66.2662 93.601 65.4981 93.7527Z" fill="#252525"/>
<path d="M213.228 173.898L208.46 173.912C208.468 179.468 204.15 184.09 204.15 184.09L210.442 194.302L210.874 195.029L211.308 194.34L217.568 184.015C217.568 184.015 213.237 179.454 213.228 173.898Z" fill="#D5D5D5"/>
<path d="M210.383 185.018L210.397 194.284L210.873 195.028L211.268 194.417L211.254 185.015L210.383 185.018Z" fill="#252525"/>
<path d="M210.854 181.134C210.017 181.137 209.34 182.101 209.342 183.287C209.344 184.473 210.024 185.433 210.861 185.431C211.698 185.428 212.375 184.465 212.372 183.278C212.371 182.092 211.691 181.132 210.854 181.134Z" fill="#252525"/>
<path d="M206.963 101.078L207.047 157.019C207.049 157.967 207.592 158.733 208.261 158.732L208.283 173.627L213.405 173.612L213.382 158.716C214.051 158.714 214.592 157.944 214.591 156.996L214.506 101.055L206.963 101.078Z" fill="white"/>
<path d="M210.721 91.8184C208.638 91.8252 206.953 94.2235 206.957 97.1761L206.963 101.077L214.506 101.054L214.5 97.1533C214.495 94.2006 212.804 91.8122 210.721 91.8184Z" fill="#9B9B9B"/>
<path d="M229.482 192.961H226.225C225.963 192.961 225.75 193.262 225.75 193.632V194.641H217.522C218.963 193.864 220.499 192.662 221.829 190.788C223.572 188.334 224.628 185.14 225.003 181.283H226.225C226.486 181.283 226.697 180.981 226.697 180.611V176.409C226.697 176.039 226.486 175.739 226.225 175.739H222.964C222.703 175.739 222.491 176.039 222.491 176.409V180.611C222.491 180.981 222.703 181.283 222.964 181.283H224.051C223.688 184.758 222.726 187.626 221.166 189.826C218.508 193.578 214.749 194.441 213.184 194.641H212.771V193.632C212.771 193.262 212.558 192.961 212.296 192.961H209.333C209.072 192.961 208.86 193.262 208.86 193.632V194.641H208.647C207.083 194.441 203.33 193.58 200.672 189.835C199.046 187.545 198.074 184.529 197.746 180.863H198.664C198.925 180.863 199.138 180.561 199.138 180.191V176.409C199.138 176.039 198.925 175.739 198.664 175.739H195.405C195.144 175.739 194.931 176.039 194.931 176.409V180.191C194.931 180.561 195.144 180.863 195.405 180.863H196.793C197.13 184.908 198.196 188.246 200.002 190.788C201.332 192.662 202.869 193.864 204.31 194.641H195.583V193.632C195.583 193.262 195.37 192.961 195.109 192.961H192.144C191.882 192.961 191.67 193.262 191.67 193.632V197.834C191.67 198.204 191.882 198.505 192.144 198.505H195.109C195.37 198.505 195.583 198.204 195.583 197.834V195.986H208.499C208.633 196.002 208.752 196.013 208.86 196.022V197.414C208.86 197.784 209.072 198.086 209.333 198.086H212.296C212.558 198.086 212.771 197.784 212.771 197.414V196.036C212.919 196.028 213.106 196.012 213.333 195.986H225.75V197.414C225.75 197.784 225.963 198.086 226.225 198.086H229.482C229.744 198.086 229.957 197.784 229.957 197.414V193.632C229.957 193.262 229.744 192.961 229.482 192.961Z" fill="white"/>
<path d="M17.7965 194.435L19.2101 193.519C19.2101 193.519 19.4662 194.168 19.6809 194.593C20.095 195.411 22.2542 196.21 22.1941 197.299C22.1636 197.848 21.3209 198.251 20.6537 198.214C19.9861 198.178 19.4056 198.06 19.0664 197.723C18.6431 197.303 17.8165 196.88 17.6933 196.526C17.4781 195.909 17.712 195.248 17.712 195.248C17.6754 194.634 17.7965 194.435 17.7965 194.435Z" fill="#271F62"/>
<path d="M19.5005 193.436C19.5005 193.436 19.3716 193.94 19.6816 194.592C19.6816 194.592 19.3707 195.231 18.8359 195.575C18.5333 195.768 17.7128 195.249 17.7128 195.249C17.6758 194.633 17.6967 193.714 17.6967 193.714L19.5005 193.436Z" fill="#FBD2C5"/>
<path d="M31.4512 172.749C25.7366 184.417 19.1783 194.674 19.1783 194.674C19.1272 194.75 17.6153 194.705 17.3926 193.335C17.3926 193.335 21.2743 180.859 25.9724 169.298C26.086 169.018 26.2379 168.545 26.3078 168.274C28.9003 158.219 35.5102 160.758 31.7573 172.062C31.7052 172.219 31.5261 172.596 31.4512 172.749Z" fill="#309CC6"/>
<path d="M25.1419 132.399C26.4717 131.249 26.0465 131.783 27.2201 133.188C27.3398 133.332 27.3243 133.615 27.3785 133.841C28.8939 140.13 31.5905 152.63 32.5823 164.736C33.0077 169.927 27.2923 169.679 26.8283 167.142C25.5493 160.146 23.6002 153.536 21.747 146.463C21.5067 145.547 21.268 144.622 21.0326 143.688C20.6361 142.113 20.5935 140.23 21.052 138.908C21.1947 138.497 23.074 136.298 23.2057 135.165C23.5247 132.416 23.8438 133.521 25.1419 132.399Z" fill="#309CC6"/>
<path d="M30.4207 194.768L31.779 193.698C31.779 193.698 32.0699 194.317 32.3077 194.715C32.7663 195.485 34.9629 196.042 34.9629 197.134C34.9629 197.685 34.1446 198.181 33.4774 198.218C32.8098 198.256 32.262 198.087 31.8679 197.905C31.4746 197.722 30.5758 197.203 30.4329 196.863C30.1847 196.273 30.3807 195.588 30.3807 195.588C30.3101 194.979 30.4207 194.768 30.4207 194.768Z" fill="#271F62"/>
<path d="M32.166 193.637C32.166 193.637 31.9583 194.102 32.3027 194.717C32.3027 194.717 32.0279 195.388 31.5136 195.789C31.2227 196.016 30.3761 195.59 30.3761 195.59C30.3051 194.981 30.343 194.1 30.343 194.1L32.166 193.637Z" fill="#FBD2C5"/>
<path d="M42.7259 171.675C37.8404 184.141 32.1257 194.852 32.1257 194.852C32.0806 194.936 30.5754 195.132 30.2436 193.805C30.2436 193.805 34.2872 181.151 37.4606 168.585C37.4846 168.491 37.5304 168.409 37.5439 168.313C39.6445 153.531 46.9839 161.686 42.8549 171.312C42.8068 171.423 42.7741 171.552 42.7259 171.675Z" fill="#309CC6"/>
<path d="M34.0854 129.69C39.1427 142.166 41.99 152.767 43.5664 163.241C44.0905 166.724 38.575 166.668 37.9824 165.268C33.8685 155.548 29.6016 146.126 28.8189 145.808L25.6428 134.6C25.856 126.376 32.5863 125.991 34.0854 129.69Z" fill="#309CC6"/>
<path d="M48.1321 108.81C48.0368 109.037 46.6779 111.152 46.5439 112.764C45.8984 113.849 43.4936 111.945 43.6448 109.357C44.1525 108.99 45.6273 106.055 45.9529 104.841C47.6014 104.85 48.9895 107.352 48.1321 108.81Z" fill="#FBD2C5"/>
<path d="M51.108 104.083C51.9648 105.362 52.509 106.933 51.7824 108.291C51.5226 108.778 48.4922 112.003 46.7607 110.315C46.0284 109.601 46.1053 106.487 46.8282 105.514C46.8282 105.514 47.8135 104.187 47.8237 104.174C48.7818 102.882 50.187 102.71 51.108 104.083Z" fill="#FBD2C5"/>
<path d="M50.7609 99.1978C54.0756 99.6006 55.5613 106.154 53.704 108.81C53.2944 109.397 51.8849 110.195 48.9985 103.394C47.8572 103.623 46.1498 105.386 46.1498 105.386C46.0907 102.304 48.2268 98.8904 50.7609 99.1978Z" fill="#262626"/>
<path d="M48.0839 103.445C48.1871 103.561 48.3482 103.828 48.4185 104.127C48.0512 104.537 47.3851 105.106 47.0557 105.389C46.8577 105.007 46.8553 104.111 47.0565 103.749C47.2704 103.366 47.8135 103.142 48.0839 103.445Z" fill="#FBD2C5"/>
<path d="M43.8984 153.168C44.0233 153.372 44.202 153.543 43.9857 153.745C43.8546 153.892 43.2928 153.239 43.2372 153.02C43.2162 152.434 43.4591 152.416 43.3833 151.872C43.4976 152.331 43.6892 152.779 43.8984 153.168Z" fill="#FBD2C5"/>
<path d="M43.3343 151.454C43.4095 151.997 43.4554 152.585 43.4758 153.17C43.5044 153.862 43.4455 155.416 43.4411 155.525C43.4164 155.841 43.427 156.641 43.3579 156.872C43.3136 157.019 43.0765 157.351 42.9413 157.399C42.7621 157.464 42.6549 157.22 42.6549 157.22C42.4384 157.367 42.2908 156.544 42.2435 156.596C42.0492 156.811 41.7851 156.504 41.852 155.287C41.8559 155.214 41.6021 152.186 41.5772 151.209C42.0022 151.133 43.328 151.424 43.3343 151.454Z" fill="#FBD2C5"/>
<path d="M45.4174 136.337C45.2797 137.596 43.6402 149.768 43.7571 151.563L41.1258 151.641C40.9224 147.609 41.1526 138.87 41.9627 134.861C42.0398 134.48 42.2354 133.322 42.3612 132.756C42.3868 132.641 43.1958 132.077 43.214 132.023C45.3531 130.896 45.4175 135.814 45.4174 136.337Z" fill="#5E5E5E"/>
<path d="M48.9975 118.44C49.1152 118.61 49.1706 118.833 49.1477 119.052C49.0027 120.462 48.3082 123.192 47.573 126.083C46.9084 128.696 45.866 133.606 45.6078 134.798C45.5788 134.932 45.5599 135.019 45.5523 135.051C45.2618 136.516 42.9319 137.537 41.7218 134.751C41.4887 131.163 41.8725 117.646 44.0389 117.048C44.7636 116.849 48.4811 117.699 48.9975 118.44Z" fill="#5E5E5E"/>
<path d="M40.8074 108.432C41.5291 108.447 43.6034 109.463 43.6034 109.463C43.6034 109.463 44.2748 112.067 45.0946 112.834C45.6577 113.36 46.504 112.872 46.504 112.872C46.504 112.872 48.2565 115.45 48.5166 116.067C49.5254 118.461 48.4935 120.396 48.162 122.286C47.915 123.694 40.9872 130.969 40.6303 144.191C40.6105 144.922 40.9209 148.233 40.7604 148.92C36.0916 148.892 28.3602 147.991 24.1026 140.77L26.7453 132.879L22.9446 140.485C22.6768 140.206 20.079 139.168 20.0337 139.126C26.6939 115.609 34.3264 108.304 40.8074 108.432Z" fill="#5E5E5E"/>
<path d="M43.6268 109.388C43.6268 109.388 44.2959 111.985 45.1139 112.751C45.6758 113.276 46.5204 112.788 46.5204 112.788C46.5204 112.788 48.157 115.193 48.4964 115.907C47.4189 118.22 44.4666 119.202 44.4666 119.202C44.4666 119.202 42.5802 111.874 40.8364 108.359C40.8364 108.359 41.5145 108.416 42.2406 108.749C42.5698 108.901 43.6268 109.388 43.6268 109.388Z" fill="#383838"/>
<path d="M30.3839 134.649C30.3839 134.649 30.0813 127.45 30.4808 125.277C30.517 125.08 31.3659 125.348 31.3624 126.244C31.3522 128.814 30.3839 134.649 30.3839 134.649Z" fill="#2E2E2E"/>
<path d="M33.8069 144.405C33.945 144.592 34.1326 144.74 33.9311 144.969C33.8103 145.132 33.2087 144.552 33.1391 144.34C33.0809 143.76 33.3213 143.712 33.2105 143.179C33.3539 143.622 33.5736 144.044 33.8069 144.405Z" fill="#FBD2C5"/>
<path d="M33.3883 144.458C33.4619 145.143 33.5045 146.699 33.507 146.808C33.5031 147.125 33.5654 147.922 33.5116 148.16C33.4775 148.312 33.2629 148.671 33.1317 148.736C32.9576 148.823 32.8349 148.593 32.8349 148.593C32.6289 148.767 32.4288 147.966 32.3847 148.023C32.2057 148.262 31.9229 147.989 31.9108 146.769C31.9097 146.696 31.4602 143.712 31.372 142.742C31.7899 142.613 33.128 142.738 33.1361 142.767C33.2463 143.299 33.3299 143.878 33.3883 144.458Z" fill="#FBD2C5"/>
<path d="M34.591 125.921C34.5518 126.281 34.4 127.211 34.2398 127.452C34.1849 128.722 34.0683 130.428 33.9455 132.228C33.6774 136.157 33.344 141.049 33.5759 142.822L30.9632 143.228C30.4459 138.784 29.9966 128.211 30.8434 124.958C31.6893 121.564 34.8141 123.874 34.591 125.921Z" fill="#5E5E5E"/>
<path d="M37.7566 114.583C34.2115 118.299 30.1644 127.967 30.4459 125.76C30.5445 124.986 33.1146 113.028 35.6537 110.691C36.0712 110.306 38.9004 113.385 37.7566 114.583Z" fill="#3D3D3D"/>
<path d="M41.6207 113.363C41.6897 113.578 41.6865 113.814 41.6116 114.008C41.1293 115.261 39.8069 117.489 38.4069 119.847C36.9997 122.219 35.5446 124.67 34.7377 126.445C34.5986 126.752 31.9671 129.347 30.7931 125.155C31.4541 121.684 35.133 109.191 37.3114 109.672C38.0408 109.834 41.3189 112.418 41.6207 113.363Z" fill="#5E5E5E"/>
<path d="M38.9874 147.854C37.8863 146.461 36.181 146.6 35.1782 148.165L30.4688 155.517C29.466 157.083 29.5461 159.481 30.647 160.875L58.2022 195.754C60.7308 198.954 64.6483 198.635 66.9513 195.04C69.2545 191.443 69.0714 185.934 66.5428 182.733L38.9874 147.854Z" fill="white"/>
<path d="M35.1791 148.134L30.4702 155.484C29.4677 157.05 29.5478 159.448 30.6484 160.842L53.9797 190.374L62.3189 177.356L38.987 147.823C37.8861 146.43 36.1816 146.569 35.1791 148.134Z" fill="#66D4FF"/>
<path d="M64.3114 181.764L29.325 164.001C27.9271 163.291 26.3893 164.311 25.8906 166.279L23.5466 175.52C23.0475 177.488 23.7765 179.658 25.1745 180.367L60.1613 198.13C63.3721 199.759 66.9037 197.417 68.0498 192.898C69.196 188.378 67.5227 183.393 64.3114 181.764Z" fill="white"/>
<path d="M25.8942 166.28L23.5478 175.525C23.0486 177.494 23.7769 179.665 25.1751 180.376L54.8095 195.44L58.9638 179.066L29.3303 164.002C27.9322 163.291 26.3938 164.311 25.8942 166.28Z" fill="#20A0EF"/>
<path d="M62.7097 181.183L25.6677 177.483C24.1878 177.335 22.9091 178.903 22.8114 180.984L22.3527 190.758C22.255 192.839 23.3753 194.646 24.8552 194.794L61.8973 198.494C65.2966 198.833 68.2343 195.234 68.4587 190.454C68.6831 185.674 66.1091 181.523 62.7097 181.183Z" fill="white"/>
<path d="M22.8117 180.988L22.3539 190.776C22.2564 192.86 23.3776 194.669 24.8578 194.818L56.2366 197.959L57.0475 180.625L25.6688 177.483C24.1885 177.335 22.9092 178.905 22.8117 180.988Z" fill="#252525"/>
<path d="M62.9454 186.92C61.7935 186.92 60.8594 188.244 60.8594 189.877C60.8594 191.51 61.7935 192.834 62.9454 192.834C64.0977 192.834 65.0314 191.51 65.0314 189.877C65.0314 188.244 64.0977 186.92 62.9454 186.92Z" fill="#252525"/>
</svg>
