<svg width="344" height="203" viewBox="0 0 344 203" fill="none" xmlns="http://www.w3.org/2000/svg">
<g id="Group">
<g id="Group_2">
<path id="Vector" d="M259.162 43.0186H120.417V183.739H259.162V43.0186Z" fill="white"/>
</g>
<g id="Group_3">
<g id="Group_4">
<g id="Group_5">
<g id="Group_6">
<path id="Vector_2" d="M307.974 107.422C301.555 107.422 296.748 140.909 289.199 140.909C262.515 140.909 254.759 16.4247 217.627 33.0237C198.372 41.6306 184.602 102.596 161.252 122.443C136.923 143.121 106.384 86.6764 88.8401 86.6764C70.3634 86.6764 68.6755 157.355 54.0728 162.134C46.935 164.47 39.047 149.911 32.2541 153.708C24.996 157.766 21.8304 168.896 17.8859 178.151C13.9415 187.405 5.64597 193.972 0 194.577H344C317.743 172.189 329.964 107.422 307.974 107.422Z" fill="#4452FE" fill-opacity="0.8"/>
</g>
</g>
</g>
<g id="Group_7">
<g id="Group_8">
<g id="Group_9">
<path id="Vector_3" d="M95.0582 8.95166C93.3501 8.95166 91.8348 9.83147 90.8623 11.0417H99.2541C98.2816 9.83147 96.7657 8.95166 95.0582 8.95166Z" fill="#9B9B9B"/>
</g>
<g id="Group_10">
<path id="Vector_4" d="M178.582 9.28702C177.129 9.28702 176.144 6.74562 174.859 6.33899C170.38 4.92246 169.953 2.96195 165.089 2.96195C162.51 2.96195 160.773 5.85249 158.398 5.58565C154.37 5.13243 152.227 0 147.865 0C143.147 0 141.173 5.9953 136.792 6.4001C134.025 6.65606 132.29 2.88268 129.293 2.88268C125.409 2.88268 123.954 7.50562 120.416 8.34549C118.796 8.73033 117.432 6.5653 115.641 6.5653C112.382 6.5653 109.584 8.6202 108.337 11.0406H182.777C181.805 9.8304 180.29 9.28702 178.582 9.28702Z" fill="#9B9B9B"/>
</g>
</g>
</g>
<g id="Group_11">
<g id="Group_12">
<g id="Group_13">
<path id="Vector_5" d="M332.72 49.9503C331.013 49.9503 329.497 50.8301 328.524 52.0403H336.916C335.943 50.8301 334.428 49.9503 332.72 49.9503Z" fill="#9B9B9B"/>
</g>
<g id="Group_14">
<path id="Vector_6" d="M312.137 47.5647C310.345 47.5647 308.982 49.7303 307.362 49.3455C303.823 48.5056 302.368 43.8821 298.485 43.8821C295.487 43.8821 293.753 47.6561 290.986 47.4007C286.605 46.9953 284.631 41 279.912 41C275.55 41 273.408 46.1318 269.378 46.585C267.004 46.8519 265.267 43.9613 262.689 43.9613C257.825 43.9613 257.397 45.9219 252.918 47.3384C251.632 47.745 250.649 50.287 249.196 50.287C247.488 50.287 245.972 50.8304 245 52.0406H319.44C318.192 49.6202 315.395 47.5647 312.137 47.5647Z" fill="#9B9B9B"/>
</g>
</g>
</g>
<g id="Group_15">
<g id="Group_16">
<g id="Group_17">
<path id="Vector_7" d="M79.1017 56.8467H84.6782L85.4347 50.6699H76.3926L79.1017 56.8467Z" fill="#9B9B9B"/>
</g>
<g id="Group_18">
<path id="Vector_8" d="M64.5586 34.6677L58.209 33.6941L62.3852 41.3837L67.6687 39.6295C67.6753 39.5599 67.6771 36.8079 67.6771 36.8079C67.6771 35.0598 66.2822 34.6677 64.5586 34.6677Z" fill="#9B9B9B"/>
</g>
<g id="Group_19">
<path id="Vector_9" d="M62.3852 44.2756L58.209 51.9664L64.558 50.9922C66.2816 50.9922 67.6759 50.6001 67.6759 48.852C67.6759 48.852 67.6747 46.1 67.6681 46.0304L62.3852 44.2756Z" fill="#9B9B9B"/>
</g>
<g id="Group_20">
<path id="Vector_10" d="M57 43.1696C57 43.1696 100.233 43.0831 100.309 43.1678C95.2315 25.0107 59.4025 35.1236 57 43.1696Z" fill="#ECF5F8"/>
</g>
<g id="Group_21">
<path id="Vector_11" d="M57 43.1694C59.4025 51.2148 95.2315 61.3284 100.309 43.1712C100.233 43.2566 57 43.1694 57 43.1694Z" fill="#9B9B9B"/>
</g>
<g id="Group_22">
<path id="Vector_12" d="M82.7302 37.1641C67.0515 37.1641 57.1569 43.1097 57.0029 43.169L100.309 43.1684C100.233 43.0837 98.3803 37.1641 82.7302 37.1641Z" fill="#9B9B9B"/>
</g>
<g id="Group_23">
<path id="Vector_13" d="M82.7302 49.1759C98.3803 49.1759 100.233 43.2568 100.309 43.1721H57.0029C57.1569 43.2308 67.0515 49.1759 82.7302 49.1759Z" fill="#ECF5F8"/>
</g>
</g>
</g>
<g id="Group_24">
<g id="Group_25">
<g id="Group_26">
<path id="Vector_14" d="M164.04 189.998H215.541V165.062H164.04V189.998Z" fill="#ECF5F8"/>
</g>
</g>
<g id="Group_27">
<g id="Group_28">
<path id="Vector_15" d="M147.969 188.71H231.61C233.413 188.71 234.889 190.205 234.889 192.035C234.889 193.862 233.413 195.358 231.61 195.358H147.969C146.166 195.358 144.691 193.862 144.691 192.035C144.691 190.205 146.166 188.71 147.969 188.71Z" fill="white"/>
</g>
</g>
<g id="Group_29">
<g id="Group_30">
<path id="Vector_16" d="M106.932 55.4457H272.65C277.313 55.4457 281.128 59.3167 281.128 64.0455V155.51C281.128 160.24 277.313 164.111 272.65 164.111H106.932C102.27 164.111 98.4541 160.24 98.4541 155.51V64.0455C98.4541 59.3167 102.27 55.4457 106.932 55.4457Z" fill="white"/>
</g>
</g>
<g id="Group_31">
<g id="Group_32">
<path id="Vector_17" d="M104.08 150.734H275.5V62.4421H104.08V150.734Z" fill="#9B9B9B"/>
</g>
</g>
<g id="Group_33">
<g id="Group_34">
<path id="Vector_18" d="M241.718 97.3557H257.612V75.816H241.718V97.3557Z" fill="#CFEFFF"/>
</g>
</g>
<g id="Group_35">
<g id="Group_36">
<path id="Vector_19" d="M122.097 97.3557H236.699V75.816H122.097V97.3557Z" fill="#CFEFFF"/>
</g>
</g>
<g id="Group_37">
<g id="Group_38">
<path id="Vector_20" d="M125.069 123.611H150.911V106.101H125.069V123.611Z" fill="#CFEFFF"/>
</g>
</g>
<g id="Group_39">
<g id="Group_40">
<path id="Vector_21" d="M171.422 125.625H257.612V116.577H171.422V125.625Z" fill="#CFEFFF"/>
</g>
</g>
<g id="Group_41">
<g id="Group_42">
<path id="Vector_22" d="M159.739 113.135H245.93V104.087H159.739V113.135Z" fill="#CFEFFF"/>
</g>
</g>
<g id="Group_43">
<g id="Group_44">
<path id="Vector_23" d="M122.097 143.127H229.595V129.834H122.097V143.127Z" fill="#CFEFFF"/>
</g>
</g>
</g>
<g id="Group_45">
<g id="Group_46">
<g id="Group_47">
<path id="Vector_24" d="M211.984 75.8102H164.911C155.98 75.8102 148.74 83.1529 148.74 92.2099V107.317C148.74 116.375 155.98 123.717 164.911 123.717H211.984C220.915 123.717 228.154 116.375 228.154 107.317V92.2099C228.154 83.1529 220.915 75.8102 211.984 75.8102Z" fill="white"/>
</g>
</g>
<g id="Group_48">
<g id="Group_49">
<path id="Vector_25" d="M214.418 93.4456C217.166 93.4454 219.915 93.4493 222.664 93.4384C222.894 93.4374 222.96 93.534 222.98 93.7218C222.991 93.8273 222.989 93.9345 222.989 94.041C222.99 99.4281 222.99 104.815 222.99 110.202C222.989 110.549 222.923 110.614 222.576 110.614C217.144 110.614 211.711 110.614 206.279 110.614C205.867 110.614 205.82 110.568 205.82 110.153C205.82 106.703 205.829 103.253 205.814 99.8032C205.811 98.9651 205.809 98.1252 205.809 97.2873C205.809 96.1821 205.802 95.0755 205.822 93.9696C205.825 93.8322 205.859 93.6954 205.873 93.5577C205.881 93.4737 205.928 93.4468 206.002 93.4468C206.059 93.4466 206.115 93.4459 206.172 93.4459C208.921 93.4459 211.669 93.4459 214.418 93.4456ZM214.387 109.586V109.587C216.893 109.587 219.399 109.587 221.905 109.586C222.216 109.586 222.216 109.586 222.216 109.269C222.215 104.341 222.215 99.4133 222.215 94.4857C222.215 94.165 222.215 94.165 221.907 94.165C216.903 94.1652 211.899 94.1676 206.895 94.1599C206.647 94.1594 206.59 94.2243 206.591 94.4716C206.598 99.4157 206.597 104.36 206.591 109.304C206.591 109.524 206.64 109.592 206.869 109.591C209.375 109.582 211.881 109.586 214.387 109.586Z" fill="#37C5FF"/>
</g>
<g id="Group_50">
<path id="Vector_26" d="M222.214 94.4848C222.214 94.1641 222.215 94.1641 221.907 94.1641C216.902 94.1644 211.898 94.1668 206.895 94.1591C206.647 94.1586 206.59 94.2234 206.59 94.4708C206.597 99.4149 206.597 104.359 206.59 109.303C206.59 109.523 206.639 109.591 206.869 109.591C209.375 109.582 211.881 109.585 214.386 109.585V109.586C216.892 109.586 219.399 109.586 221.905 109.586C222.216 109.586 222.216 109.585 222.215 109.268C222.215 104.34 222.215 99.4125 222.214 94.4848Z" fill="#282439"/>
</g>
<g id="Group_51">
<path id="Vector_27" d="M214.18 101.282C214.035 101.548 213.812 101.763 213.51 101.926C213.209 102.09 212.835 102.171 212.388 102.171H211.563V104.162H210.23V98.6156H212.388C212.825 98.6156 213.193 98.6921 213.495 98.8448C213.796 98.9978 214.022 99.2084 214.173 99.477C214.323 99.7454 214.399 100.054 214.399 100.401C214.399 100.723 214.326 101.016 214.18 101.282ZM212.856 100.915C212.981 100.794 213.043 100.623 213.043 100.401C213.043 100.18 212.981 100.009 212.856 99.8878C212.731 99.7667 212.542 99.706 212.287 99.706H211.563V101.097H212.287C212.542 101.097 212.731 101.036 212.856 100.915Z" fill="#37C5FF"/>
</g>
<g id="Group_52">
<path id="Vector_28" d="M215.847 104.028C215.551 103.897 215.317 103.716 215.146 103.487C214.974 103.258 214.878 103.001 214.857 102.717H216.174C216.19 102.869 216.26 102.993 216.384 103.088C216.509 103.183 216.662 103.23 216.844 103.23C217.01 103.23 217.139 103.197 217.23 103.131C217.321 103.066 217.366 102.98 217.366 102.875C217.366 102.748 217.301 102.655 217.171 102.594C217.041 102.534 216.831 102.466 216.54 102.393C216.229 102.319 215.969 102.241 215.761 102.16C215.554 102.078 215.374 101.949 215.224 101.772C215.073 101.596 214.998 101.357 214.998 101.057C214.998 100.804 215.066 100.574 215.204 100.366C215.342 100.158 215.544 99.9933 215.812 99.8721C216.079 99.7511 216.397 99.6903 216.766 99.6903C217.312 99.6903 217.741 99.8275 218.055 100.101C218.37 100.375 218.55 100.739 218.597 101.192H217.366C217.345 101.039 217.279 100.918 217.167 100.828C217.056 100.739 216.909 100.694 216.727 100.694C216.571 100.694 216.452 100.724 216.369 100.785C216.286 100.845 216.244 100.928 216.244 101.034C216.244 101.16 216.31 101.255 216.443 101.318C216.575 101.381 216.782 101.445 217.062 101.508C217.384 101.592 217.646 101.675 217.849 101.757C218.052 101.838 218.229 101.97 218.383 102.152C218.536 102.333 218.615 102.577 218.62 102.883C218.62 103.141 218.549 103.371 218.406 103.574C218.263 103.777 218.058 103.936 217.791 104.052C217.523 104.168 217.213 104.226 216.86 104.226C216.48 104.226 216.143 104.16 215.847 104.028Z" fill="#37C5FF"/>
</g>
</g>
<g id="Group_53">
<g id="Group_54">
<path id="Vector_29" d="M188.167 96.293C190.916 96.2928 193.664 96.2967 196.413 96.2858C196.643 96.2848 196.709 96.3814 196.729 96.5692C196.74 96.6747 196.739 96.782 196.739 96.8884C196.739 102.276 196.739 107.663 196.739 113.05C196.739 113.396 196.673 113.462 196.326 113.462C190.893 113.462 185.46 113.462 180.028 113.462C179.616 113.462 179.57 113.416 179.57 113.001C179.569 109.551 179.578 106.101 179.563 102.651C179.56 101.812 179.558 100.973 179.557 100.135C179.557 99.0295 179.552 97.9229 179.572 96.817C179.574 96.6796 179.608 96.5428 179.622 96.4051C179.63 96.3211 179.678 96.2942 179.751 96.2942C179.808 96.294 179.865 96.2933 179.921 96.2933C182.67 96.2933 185.418 96.2933 188.167 96.293ZM188.136 112.433V112.434C190.642 112.434 193.148 112.434 195.655 112.434C195.965 112.434 195.965 112.434 195.965 112.116C195.965 107.188 195.964 102.261 195.964 97.3331C195.964 97.0124 195.964 97.0124 195.656 97.0124C190.652 97.0126 185.648 97.015 180.644 97.0073C180.396 97.0068 180.339 97.0717 180.34 97.319C180.347 102.263 180.346 107.207 180.34 112.151C180.34 112.371 180.389 112.439 180.618 112.439C183.124 112.43 185.63 112.433 188.136 112.433Z" fill="#C88AF9"/>
</g>
<g id="Group_55">
<path id="Vector_30" d="M195.964 97.334C195.964 97.0133 195.964 97.0133 195.656 97.0133C190.652 97.0135 185.648 97.0159 180.644 97.0082C180.396 97.0077 180.339 97.0726 180.34 97.3199C180.347 102.264 180.347 107.208 180.34 112.152C180.34 112.372 180.389 112.441 180.619 112.44C183.125 112.431 185.63 112.434 188.136 112.434V112.435C190.642 112.435 193.148 112.435 195.655 112.435C195.966 112.435 195.965 112.435 195.965 112.117C195.965 107.189 195.964 102.262 195.964 97.334Z" fill="#1F013E"/>
</g>
<g id="Group_56">
<path id="Vector_31" d="M185.597 101.396C185.861 102.416 186.124 103.436 186.392 104.454C186.432 104.608 186.417 104.675 186.235 104.67C185.799 104.659 185.363 104.668 184.927 104.667C184.842 104.666 184.74 104.69 184.782 104.531C185.058 103.49 185.339 102.45 185.597 101.396Z" fill="#1F013E"/>
</g>
<g id="Group_57">
<path id="Vector_32" d="M186.67 106.032H184.629L184.302 107.011H182.907L184.886 101.465H186.429L188.407 107.011H186.997L186.67 106.032ZM186.327 104.989L185.65 102.958L184.98 104.989H186.327Z" fill="#C88AF9"/>
</g>
<g id="Group_58">
<path id="Vector_33" d="M193.082 105.131H190.067C190.088 105.405 190.175 105.615 190.329 105.759C190.482 105.904 190.67 105.977 190.893 105.977C191.226 105.977 191.457 105.834 191.587 105.55H193.005C192.932 105.84 192.801 106.1 192.611 106.332C192.422 106.564 192.184 106.746 191.898 106.877C191.613 107.009 191.293 107.075 190.94 107.075C190.514 107.075 190.135 106.983 189.802 106.798C189.47 106.614 189.211 106.351 189.023 106.008C188.836 105.666 188.743 105.265 188.743 104.807C188.743 104.349 188.835 103.949 189.02 103.606C189.204 103.264 189.462 103 189.795 102.816C190.127 102.631 190.509 102.539 190.94 102.539C191.361 102.539 191.735 102.629 192.062 102.808C192.389 102.987 192.645 103.243 192.829 103.574C193.013 103.906 193.106 104.293 193.106 104.736C193.106 104.862 193.098 104.994 193.082 105.131ZM191.743 104.38C191.743 104.149 191.665 103.964 191.509 103.827C191.353 103.69 191.158 103.622 190.924 103.622C190.701 103.622 190.513 103.688 190.36 103.819C190.206 103.951 190.112 104.138 190.075 104.38H191.743Z" fill="#C88AF9"/>
</g>
</g>
<g id="Group_59">
<g id="Group_60">
<path id="Vector_34" d="M161.916 97.2123C164.665 97.2121 167.413 97.216 170.162 97.2051C170.392 97.2041 170.458 97.3007 170.478 97.4885C170.489 97.594 170.488 97.7013 170.488 97.8078C170.488 103.195 170.488 108.582 170.488 113.969C170.488 114.316 170.422 114.381 170.075 114.381C164.642 114.381 159.21 114.381 153.777 114.381C153.365 114.381 153.319 114.335 153.319 113.92C153.318 110.47 153.327 107.02 153.312 103.57C153.309 102.732 153.307 101.892 153.306 101.054C153.306 99.9488 153.301 98.8422 153.321 97.7364C153.323 97.5989 153.357 97.4621 153.371 97.3244C153.379 97.2404 153.427 97.2136 153.501 97.2136C153.557 97.2133 153.614 97.2126 153.67 97.2126C156.419 97.2126 159.168 97.2126 161.916 97.2123ZM161.885 113.352V113.353C164.391 113.353 166.898 113.353 169.404 113.353C169.715 113.353 169.714 113.353 169.714 113.035C169.714 108.108 169.713 103.18 169.713 98.2524C169.713 97.9317 169.713 97.9317 169.405 97.9317C164.401 97.9319 159.397 97.9343 154.393 97.9266C154.145 97.9261 154.089 97.991 154.089 98.2383C154.096 103.182 154.095 108.127 154.089 113.071C154.089 113.29 154.139 113.359 154.368 113.358C156.874 113.349 159.379 113.352 161.885 113.352Z" fill="#FF7D1B"/>
</g>
<g id="Group_61">
<path id="Vector_35" d="M169.714 98.2527C169.714 97.932 169.714 97.932 169.406 97.932C164.402 97.9322 159.398 97.9346 154.394 97.9269C154.146 97.9264 154.089 97.9913 154.09 98.2386C154.097 103.183 154.097 108.127 154.09 113.071C154.09 113.291 154.139 113.359 154.369 113.359C156.875 113.349 159.38 113.353 161.886 113.353V113.354C164.392 113.354 166.898 113.354 169.404 113.353C169.715 113.353 169.715 113.353 169.715 113.036C169.715 108.108 169.714 103.18 169.714 98.2527Z" fill="#41312A"/>
</g>
<g id="Group_62">
<path id="Vector_36" d="M161.612 106.951H159.57L159.243 107.93H157.849L159.827 102.384H161.37L163.349 107.93H161.939L161.612 106.951ZM161.269 105.908L160.591 103.877L159.921 105.908H161.269Z" fill="#FF7D1B"/>
</g>
<g id="Group_63">
<path id="Vector_37" d="M164.046 102.854C163.898 102.714 163.824 102.542 163.824 102.336C163.824 102.126 163.898 101.951 164.046 101.811C164.195 101.672 164.385 101.602 164.619 101.602C164.847 101.602 165.036 101.672 165.184 101.811C165.332 101.951 165.406 102.126 165.406 102.336C165.406 102.542 165.332 102.714 165.184 102.854C165.036 102.994 164.847 103.063 164.619 103.063C164.385 103.063 164.195 102.994 164.046 102.854ZM165.281 107.931H163.949V103.522H165.281V107.931Z" fill="#FF7D1B"/>
</g>
</g>
</g>
<g id="Group_64">
<g id="Group_65">
<g id="Group_66">
<path id="Vector_38" d="M210.933 23H198.336C196.659 23 195.287 24.3918 195.287 26.0924C195.287 27.793 196.659 29.1848 198.335 29.1848H210.933C212.61 29.1848 213.981 27.793 213.981 26.0924C213.981 24.3918 212.61 23 210.933 23Z" fill="#4452FE"/>
</g>
</g>
<g id="Group_67">
<g id="Group_68">
<path id="Vector_39" d="M179.875 16H160.983C155.269 16 150.595 20.7418 150.595 26.5365C150.595 32.332 155.269 37.0731 160.983 37.0731H179.875C185.589 37.0731 190.263 32.332 190.263 26.5365C190.263 20.7418 185.589 16 179.875 16Z" fill="#252525"/>
</g>
</g>
<g id="Group_69">
<g id="Group_70">
<path id="Vector_40" d="M132.308 13H110.773C103.284 13 97.1572 19.2141 97.1572 26.8093V27.0882C97.1572 34.6834 103.284 40.8982 110.773 40.8982H132.308C139.797 40.8982 145.923 34.6834 145.923 27.0882V26.8093C145.923 19.2141 139.797 13 132.308 13Z" fill="#4452FE"/>
</g>
</g>
<g id="Group_71">
<g id="Group_72">
<path id="Vector_41" d="M136.222 29.2931H136.2H136.222ZM136.2 24.6049V29.2931H137.143V26.4516L139.271 29.2931H140.114V24.6049H139.171V27.446L137.043 24.6049H136.2Z" fill="#252525"/>
</g>
<g id="Group_73">
<path id="Vector_42" d="M132.945 25.4156C133.78 25.4156 134.457 26.1028 134.457 26.9495C134.457 27.7961 133.78 28.4834 132.945 28.4834C132.11 28.4834 131.432 27.7961 131.432 26.9495C131.432 26.1028 132.11 25.4156 132.945 25.4156ZM132.945 24.4921C131.6 24.4921 130.511 25.592 130.511 26.9495C130.511 28.307 131.6 29.4069 132.945 29.4069C134.29 29.4069 135.379 28.307 135.379 26.9495C135.379 25.592 134.29 24.4921 132.945 24.4921Z" fill="#252525"/>
</g>
<g id="Group_74">
<path id="Vector_43" d="M128.634 24.6049V29.2931H129.577V24.6049H128.634Z" fill="#252525"/>
</g>
<g id="Group_75">
<path id="Vector_44" d="M124.01 24.6049V25.568H125.375V29.2931H126.347V25.568H127.712V24.6049H124.01Z" fill="#252525"/>
</g>
<g id="Group_76">
<path id="Vector_45" d="M121.711 25.9956L122.191 27.3302H121.232L121.711 25.9956ZM121.212 24.6049L119.527 29.2931H120.527L120.888 28.2873H122.535L122.896 29.2931H123.895L122.211 24.6049H121.212Z" fill="#252525"/>
</g>
<g id="Group_77">
<path id="Vector_46" d="M113.921 24.6049V29.2931H114.864V26.5141L116.269 28.5822L117.673 26.5145V29.2931H118.616V24.6049H117.838L116.269 26.9152L114.699 24.6049H113.921Z" fill="#252525"/>
</g>
<g id="Group_78">
<path id="Vector_47" d="M112.042 24.6049V29.2931H112.985V24.6049H112.042Z" fill="#252525"/>
</g>
<g id="Group_79">
<path id="Vector_48" d="M107.235 29.2931H107.213H107.235ZM107.213 24.6049V29.2931H108.156V26.4516L110.284 29.2931H111.127V24.6049H110.184V27.446L108.056 24.6049H107.213Z" fill="#252525"/>
</g>
<g id="Group_80">
<path id="Vector_49" d="M104.294 25.9956L104.774 27.3302H103.815L104.294 25.9956ZM103.795 24.6049L102.11 29.2931H103.11L103.471 28.2873H105.118L105.479 29.2931H106.478L104.794 24.6049H103.795Z" fill="#252525"/>
</g>
</g>
<g id="Group_81">
<g id="Group_82">
<path id="Vector_50" d="M179.916 30.9867C178.975 30.9867 178.103 31.6819 178.103 32.8071C178.103 33.9323 178.975 34.6272 179.916 34.6272C180.702 34.6272 181.064 34.3217 181.385 34.0625V32.5419H180.288V33.2281H180.741V33.7227C180.481 33.8678 180.268 33.9433 179.916 33.9433C179.355 33.9433 178.818 33.4205 178.818 32.8071C178.818 32.1938 179.358 31.6706 179.916 31.6706C180.182 31.6706 180.461 31.7022 180.858 31.9645L181.215 31.4277C180.799 31.1318 180.359 30.9874 179.916 30.9867Z" fill="white"/>
</g>
<g id="Group_83">
<path id="Vector_51" d="M174.609 34.5434H174.593H174.609ZM174.593 31.0706V34.5434H175.291V32.4387L176.868 34.5434H177.492V31.0706H176.794V33.1752L175.217 31.0706H174.593Z" fill="white"/>
</g>
<g id="Group_84">
<path id="Vector_52" d="M173.201 31.0706V34.5434H173.9V31.0706H173.201Z" fill="white"/>
</g>
<g id="Group_85">
<path id="Vector_53" d="M171.056 30.9867C170.116 30.9867 169.243 31.6819 169.243 32.8071C169.243 33.9323 170.116 34.6272 171.056 34.6272C171.843 34.6272 172.205 34.3217 172.525 34.0625V32.5419H171.429V33.2281H171.882V33.7227C171.621 33.8678 171.409 33.9433 171.056 33.9433C170.496 33.9433 169.959 33.4205 169.959 32.8071C169.959 32.1938 170.499 31.6706 171.056 31.6706C171.322 31.6706 171.602 31.7022 171.998 31.9645L172.355 31.4277C171.94 31.1318 171.5 30.9874 171.056 30.9867Z" fill="white"/>
</g>
<g id="Group_86">
<path id="Vector_54" d="M167.165 30.9867C166.224 30.9867 165.352 31.6819 165.352 32.8071C165.352 33.9323 166.224 34.6272 167.165 34.6272C167.951 34.6272 168.313 34.3217 168.634 34.0625V32.5419H167.537V33.2281H167.99V33.7227C167.73 33.8678 167.517 33.9433 167.165 33.9433C166.604 33.9433 166.067 33.4205 166.067 32.8071C166.067 32.1938 166.607 31.6706 167.165 31.6706C167.431 31.6706 167.71 31.7022 168.107 31.9645L168.464 31.4277C168.048 31.1318 167.608 30.9874 167.165 30.9867Z" fill="white"/>
</g>
<g id="Group_87">
<path id="Vector_55" d="M164.026 31.0706V34.5434H164.725V31.0706H164.026Z" fill="white"/>
</g>
<g id="Group_88">
<path id="Vector_56" d="M161.506 31.7748H162.065C162.388 31.7748 162.662 32.0557 162.662 32.4344C162.662 32.8131 162.388 33.094 162.065 33.094H161.506V31.7748ZM160.812 31.0706V34.5434H161.506V33.7982H161.769L162.515 34.5434H163.442L162.582 33.6837C163.04 33.4704 163.356 32.9838 163.356 32.4344C163.356 31.6956 162.785 31.0706 162.065 31.0706H160.812Z" fill="white"/>
</g>
<g id="Group_89">
<path id="Vector_57" d="M183.505 23.7887H184.064C184.387 23.7887 184.661 24.0696 184.661 24.4483C184.661 24.827 184.387 25.1079 184.064 25.1079H183.505V23.7887ZM182.811 23.0845V26.5573H183.505V25.8121H183.769L184.515 26.5573H185.441L184.581 25.6976C185.039 25.4843 185.355 24.9978 185.355 24.4483C185.355 23.7095 184.784 23.0845 184.064 23.0845H182.811Z" fill="white"/>
</g>
<g id="Group_90">
<path id="Vector_58" d="M179.864 23.0845V26.5566H182.126V25.8474H180.563V25.1469H182.068V24.4946H180.563V23.7933H182.126V23.0845H179.864Z" fill="white"/>
</g>
<g id="Group_91">
<path id="Vector_59" d="M176.438 23.0845V23.798H177.45V26.5573H178.17V23.798H179.181V23.0845H176.438Z" fill="white"/>
</g>
<g id="Group_92">
<path id="Vector_60" d="M174.62 23C173.52 23 172.744 23.8333 172.744 24.8204C172.744 25.8075 173.52 26.6405 174.62 26.6405C175.117 26.6405 175.533 26.4651 175.859 26.1972L175.455 25.5892C175.22 25.7703 174.94 25.8887 174.621 25.8887C174.056 25.8811 173.51 25.5113 173.486 24.8204C173.51 24.1295 174.056 23.7595 174.621 23.7518C174.94 23.7518 175.22 23.8703 175.455 24.0513L175.859 23.4436C175.533 23.1757 175.117 23 174.62 23Z" fill="white"/>
</g>
<g id="Group_93">
<path id="Vector_61" d="M170.878 24.1148L171.234 25.1033H170.523L170.878 24.1148ZM170.508 23.0845L169.261 26.5573H170.001L170.269 25.8121H171.488L171.756 26.5573H172.496L171.249 23.0845H170.508Z" fill="white"/>
</g>
<g id="Group_94">
<path id="Vector_62" d="M166.871 23.7887H167.431C167.753 23.7887 168.027 24.0696 168.027 24.4483C168.027 24.827 167.753 25.1079 167.431 25.1079H166.871V23.7887ZM166.177 23.0845V26.5573H166.871V25.8121H167.135L167.881 26.5573H168.807L167.947 25.6976C168.405 25.4843 168.721 24.9978 168.721 24.4483C168.721 23.7095 168.15 23.0845 167.431 23.0845H166.177Z" fill="white"/>
</g>
<g id="Group_95">
<path id="Vector_63" d="M164.014 24.1148L164.369 25.1033H163.658L164.014 24.1148ZM163.643 23.0845L162.396 26.5573H163.136L163.404 25.8121H164.623L164.891 26.5573H165.631L164.384 23.0845H163.643Z" fill="white"/>
</g>
<g id="Group_96">
<path id="Vector_64" d="M159.146 23.0845V26.5573H159.845V25.1755H161.148V26.5573H161.847V23.0845H161.148V24.4663H159.845V23.0845H159.146Z" fill="white"/>
</g>
<g id="Group_97">
<path id="Vector_65" d="M157.327 23.0001C156.228 23.0001 155.452 23.8335 155.452 24.8206C155.452 25.8076 156.228 26.6407 157.327 26.6407C157.824 26.6407 158.241 26.4653 158.567 26.1974L158.163 25.5893C157.928 25.7704 157.648 25.8889 157.329 25.8889C156.764 25.8812 156.218 25.5115 156.194 24.8206C156.218 24.1297 156.764 23.7596 157.329 23.7519C157.648 23.7519 157.928 23.8704 158.163 24.0514L158.567 23.4437C158.241 23.1758 157.824 23.0001 157.327 23.0001Z" fill="white"/>
</g>
</g>
</g>
<g id="Group_98">
<g id="Group_99">
<g id="Group_100">
<g id="Group_101">
<path id="Vector_66" d="M135.391 157.214C135.26 158.152 135.615 159.23 135.518 160.191C135.397 161.394 134.676 161.785 134.222 162.57C133.684 163.499 133.521 165.183 133.833 166.585C134.027 167.453 134.371 168.17 134.644 168.961C134.917 169.752 135.129 170.728 134.997 171.58C134.798 172.862 133.35 173.947 133.705 179.3C134.029 184.186 137.593 185.845 138.647 186.974L136.548 155.297L136.135 155.761C135.824 156.113 135.489 156.52 135.391 157.214Z" fill="#66D4FF"/>
</g>
</g>
<g id="Group_102">
<g id="Group_103">
<path id="Vector_67" d="M140.189 168.58C140.355 167.759 140.6 167 140.678 166.114C140.801 164.682 140.416 163.036 139.76 162.19C139.206 161.475 138.439 161.185 138.16 160.011C137.937 159.072 138.146 157.956 137.891 157.045C137.702 156.37 137.317 156.012 136.961 155.707L136.491 155.304L138.613 186.979C139.507 185.716 142.818 183.58 142.491 178.695C142.133 173.343 140.555 172.467 140.187 171.223C139.944 170.399 140.023 169.401 140.189 168.58Z" fill="#66D4FF"/>
</g>
</g>
</g>
<g id="Group_104">
<g id="Group_105">
<g id="Group_106">
<path id="Vector_68" d="M141.298 175.874C141.12 176.209 141.288 176.645 141.134 176.991C140.942 177.425 140.377 177.497 139.975 177.743C139.5 178.033 139.235 178.641 139.345 179.193C139.412 179.535 139.603 179.835 139.736 180.157C139.87 180.477 139.941 180.862 139.771 181.164C139.514 181.62 138.355 181.876 138.155 183.898C137.973 185.743 140.455 186.72 141.133 187.245L142.313 175.28L141.97 175.41C141.71 175.509 141.429 175.626 141.298 175.874Z" fill="#20A0EF"/>
</g>
</g>
<g id="Group_107">
<g id="Group_108">
<path id="Vector_69" d="M143.092 177.191C143.009 176.821 143.26 176.427 143.151 176.064C143.07 175.795 142.817 175.623 142.582 175.474L142.27 175.277L141.09 187.242C141.858 186.864 144.48 186.405 144.662 184.56C144.861 182.538 143.776 182.054 143.614 181.556C143.506 181.225 143.65 180.863 143.843 180.576C144.036 180.288 144.283 180.031 144.416 179.709C144.631 179.19 144.491 178.541 144.082 178.161C143.735 177.84 143.197 177.656 143.092 177.191Z" fill="#20A0EF"/>
</g>
</g>
</g>
<g id="Group_109">
<g id="Group_110">
<path id="Vector_70" d="M132.968 186.177C132.968 186.177 135.116 188.512 135.116 190.083C135.116 190.503 134.968 191.145 134.748 191.862C134.049 194.151 135.709 196.477 138.071 196.477H143.749C146.111 196.477 147.771 194.151 147.072 191.862C146.852 191.145 146.704 190.503 146.704 190.083C146.704 188.512 148.853 186.177 148.853 186.177H132.968Z" fill="white"/>
</g>
</g>
</g>
<g id="Group_111">
<g id="Group_112">
<g id="Group_113">
<path id="Vector_71" d="M191.179 118.077L143.045 115.521L142.465 126.75L238.734 131.862L239.313 120.633L191.179 118.077Z" fill="#61C3FF"/>
</g>
<g id="Group_114">
<path id="Vector_72" d="M151.773 115.984L151.563 120.048L152.642 120.105L152.851 116.041L151.773 115.984Z" fill="#271F62"/>
</g>
<g id="Group_115">
<path id="Vector_73" d="M148.031 115.784L147.729 121.623L148.808 121.68L149.109 115.841L148.031 115.784Z" fill="#271F62"/>
</g>
<g id="Group_116">
<path id="Vector_74" d="M159.272 116.381L159.062 120.444L160.141 120.501L160.351 116.438L159.272 116.381Z" fill="#271F62"/>
</g>
<g id="Group_117">
<path id="Vector_75" d="M155.529 116.182L155.227 122.021L156.305 122.078L156.607 116.239L155.529 116.182Z" fill="#271F62"/>
</g>
<g id="Group_118">
<path id="Vector_76" d="M166.77 116.78L166.56 120.843L167.639 120.9L167.848 116.837L166.77 116.78Z" fill="#271F62"/>
</g>
<g id="Group_119">
<path id="Vector_77" d="M163.029 116.58L162.727 122.42L163.806 122.476L164.107 116.637L163.029 116.58Z" fill="#271F62"/>
</g>
<g id="Group_120">
<path id="Vector_78" d="M174.268 117.177L174.058 121.241L175.137 121.298L175.346 117.235L174.268 117.177Z" fill="#271F62"/>
</g>
<g id="Group_121">
<path id="Vector_79" d="M170.527 116.978L170.225 122.818L171.304 122.874L171.606 117.035L170.527 116.978Z" fill="#271F62"/>
</g>
<g id="Group_122">
<path id="Vector_80" d="M181.768 117.576L181.558 121.638L182.637 121.696L182.846 117.633L181.768 117.576Z" fill="#271F62"/>
</g>
<g id="Group_123">
<path id="Vector_81" d="M178.024 117.378L177.722 123.217L178.801 123.274L179.102 117.435L178.024 117.378Z" fill="#271F62"/>
</g>
<g id="Group_124">
<path id="Vector_82" d="M189.267 117.974L189.056 122.038L190.135 122.095L190.345 118.032L189.267 117.974Z" fill="#271F62"/>
</g>
<g id="Group_125">
<path id="Vector_83" d="M185.524 117.775L185.222 123.615L186.301 123.671L186.602 117.832L185.524 117.775Z" fill="#271F62"/>
</g>
<g id="Group_126">
<path id="Vector_84" d="M196.765 118.373L196.555 122.435L197.634 122.493L197.844 118.43L196.765 118.373Z" fill="#271F62"/>
</g>
<g id="Group_127">
<path id="Vector_85" d="M193.022 118.174L192.721 124.013L193.8 124.07L194.101 118.231L193.022 118.174Z" fill="#271F62"/>
</g>
<g id="Group_128">
<path id="Vector_86" d="M204.264 118.77L204.054 122.834L205.133 122.891L205.343 118.827L204.264 118.77Z" fill="#271F62"/>
</g>
<g id="Group_129">
<path id="Vector_87" d="M200.52 118.572L200.218 124.412L201.297 124.468L201.599 118.63L200.52 118.572Z" fill="#271F62"/>
</g>
<g id="Group_130">
<path id="Vector_88" d="M211.762 119.169L211.551 123.232L212.63 123.289L212.84 119.226L211.762 119.169Z" fill="#271F62"/>
</g>
<g id="Group_131">
<path id="Vector_89" d="M208.019 118.971L207.717 124.81L208.796 124.867L209.097 119.028L208.019 118.971Z" fill="#271F62"/>
</g>
<g id="Group_132">
<path id="Vector_90" d="M219.262 119.567L219.052 123.63L220.13 123.687L220.34 119.624L219.262 119.567Z" fill="#271F62"/>
</g>
<g id="Group_133">
<path id="Vector_91" d="M215.518 119.369L215.216 125.209L216.295 125.265L216.596 119.427L215.518 119.369Z" fill="#271F62"/>
</g>
<g id="Group_134">
<path id="Vector_92" d="M226.759 119.966L226.549 124.029L227.628 124.087L227.838 120.023L226.759 119.966Z" fill="#271F62"/>
</g>
<g id="Group_135">
<path id="Vector_93" d="M223.016 119.766L222.715 125.606L223.794 125.663L224.095 119.824L223.016 119.766Z" fill="#271F62"/>
</g>
<g id="Group_136">
<path id="Vector_94" d="M234.257 120.363L234.047 124.425L235.126 124.483L235.336 120.42L234.257 120.363Z" fill="#271F62"/>
</g>
<g id="Group_137">
<path id="Vector_95" d="M230.515 120.165L230.214 126.005L231.292 126.061L231.593 120.222L230.515 120.165Z" fill="#271F62"/>
</g>
</g>
<g id="Group_138">
<g id="Group_139">
<path id="Vector_96" d="M232.691 190.404C233.437 189.923 234.636 189.986 235.411 190.773C235.411 190.773 237.9 178.737 239.135 165.695C240.351 152.862 240.052 149.686 240.355 142.628L240.672 131.279C236.183 131.105 229.781 131.719 228.37 130.906C227.792 133.277 232.691 190.404 232.691 190.404Z" fill="#20A0EF"/>
</g>
</g>
<g id="Group_140">
<g id="Group_141">
<path id="Vector_97" d="M232.917 190.481C232.917 190.481 232.78 190.664 232.416 191.019C231.715 191.703 228.542 193.134 228.433 194.198C228.378 194.736 229.443 195.336 230.348 195.469C231.254 195.602 232.056 195.635 232.573 195.395C233.216 195.096 234.528 193.694 234.755 193.383C235.153 192.843 235.155 191.344 235.155 191.344C234.628 190.071 232.917 190.481 232.917 190.481Z" fill="#272063"/>
</g>
</g>
<g id="Group_142">
<g id="Group_143">
<g id="Group_144">
<path id="Vector_98" d="M222.733 76.8144C222.722 77.1719 222.998 77.068 223.259 77.0415C223.733 77.0247 224.239 77.0622 224.693 77.1917C224.202 76.9705 224.381 76.6871 223.902 76.3807C223.684 76.3199 222.721 76.5838 222.733 76.8144Z" fill="#FBD2C5"/>
</g>
</g>
<g id="Group_145">
<g id="Group_146">
<path id="Vector_99" d="M221.857 73.2423C221.861 73.3253 221.092 73.0282 221.035 73.355C221.035 73.355 220.757 73.3385 220.666 73.576C220.597 73.7563 220.671 74.2108 220.753 74.3435C220.881 74.5517 221.521 74.9898 221.752 75.1953C221.835 75.2614 223.018 76.2038 223.588 76.5614C224.068 76.8679 224.569 77.1479 225.059 77.3698C225.088 77.3797 226.373 76.049 226.65 75.5282C225.856 75.0052 223.259 73.5853 223.204 73.5394C222.295 72.7793 221.841 72.9027 221.857 73.2423Z" fill="#FBD2C5"/>
</g>
</g>
</g>
<g id="Group_147">
<g id="Group_148">
<path id="Vector_100" d="M232.079 84.9341C233.295 86.2054 234.449 87.4108 235.335 88.2748C235.37 88.5964 241.947 89.3258 240.201 86.2813C238.559 83.3238 230.37 77.0859 226.635 74.8112L224.602 77.8213C226.116 78.7021 229.422 82.1576 232.079 84.9341Z" fill="#5E5E5E"/>
</g>
</g>
<g id="Group_149">
<g id="Group_150">
<path id="Vector_101" d="M235.335 88.2742C235.37 88.5958 235.424 88.9249 235.501 89.2736C235.94 91.2922 236.217 94.4173 236.486 97.4388C236.754 100.445 236.974 104.5 238.389 105.722C238.552 105.862 243.723 103.986 244.54 103.381C246.977 101.567 242.756 90.5435 241.011 87.4989C239.369 84.5413 234.449 87.4101 235.335 88.2742Z" fill="#5E5E5E"/>
</g>
</g>
<g id="Group_151">
<g id="Group_152">
<path id="Vector_102" d="M238.607 133.548L240.397 142.843C240.202 145.147 241.599 153.03 243.656 164.146C246.019 176.915 249.489 190.106 249.489 190.106C250.341 189.405 251.913 189.167 252.606 189.723C252.606 189.723 251.848 153.984 251.373 138.302C251.322 136.625 250.978 135.239 250.113 134.065C249.182 132.803 247.295 131.412 246.221 131.737C243.521 132.555 241.432 132.743 238.607 133.548Z" fill="#20A0EF"/>
</g>
</g>
<g id="Group_153">
<g id="Group_154">
<path id="Vector_103" d="M252.818 190.362C252.492 189.971 252.374 189.774 252.374 189.774C252.374 189.774 250.714 189.187 250.06 190.398C250.06 190.398 249.908 191.888 250.249 192.467C250.444 192.8 251.605 194.332 252.215 194.698C252.704 194.99 253.505 195.042 254.419 195.005C255.333 194.968 256.454 194.483 256.454 193.943C256.454 192.872 253.445 191.116 252.818 190.362Z" fill="#272063"/>
</g>
</g>
<g id="Group_155">
<g id="Group_156">
<path id="Vector_104" d="M235.326 94.0146C235.035 94.2733 231.965 96.3654 231.034 96.303C231.063 96.5618 231.912 99.2429 231.44 100.765C231.811 102.11 235.548 101.797 236.384 99.392C235.9 98.7677 235.25 95.2907 235.326 94.0146Z" fill="#FBD2C5"/>
</g>
</g>
<g id="Group_157">
<g id="Group_158">
<g id="Group_159">
<path id="Vector_105" d="M247.515 130.205C243.119 131.145 238.752 132.145 234.274 132.618C231.503 132.911 228.842 132.832 226.32 132.342C226.675 136.556 227.238 140.707 228.117 144.093C228.254 144.295 230.175 144.655 230.879 144.716C234.795 145.056 243.046 142.418 248.558 141.087C248.558 141.087 251.691 140.395 252.116 140.327C251.825 136.98 251.221 133.236 250.483 129.509C249.523 129.772 248.529 129.987 247.515 130.205Z" fill="#93E1FF"/>
</g>
</g>
<g id="Group_160">
<g id="Group_161">
<path id="Vector_106" d="M240.26 100.086C239.285 99.9359 236.384 99.391 236.384 99.391C236.384 99.391 235.891 100.226 234.194 100.744C232.669 101.209 231.44 100.764 231.44 100.764C231.44 100.764 228.246 102.057 227.679 102.459C225.481 104.019 225.996 106.351 225.66 108.238C225.395 109.72 224.751 130.186 227.75 141.74C227.887 141.943 228.783 142.076 229.102 142.179L228.654 134.964L230.513 142.364C234.441 142.419 242.678 140.066 248.19 138.735L248.032 130.135L250.307 138.25C250.841 138.136 251.324 138.043 251.748 137.975C250.614 124.913 244.724 105.816 244.643 105.205C244.309 102.683 243.184 100.537 240.26 100.086Z" fill="#5E5E5E"/>
</g>
</g>
</g>
<g id="Group_162">
<g id="Group_163">
<g id="Group_164">
<path id="Vector_107" d="M233.279 89.6451C231.606 89.3178 229.926 89.5098 229.356 91.0789C229.152 91.6416 228.763 96.8939 231.414 98.0282C232.535 98.5079 235.012 96.7723 235.271 95.4114C235.271 95.4114 235.625 93.5562 235.628 93.5376C235.972 91.7327 235.075 89.9971 233.279 89.6451Z" fill="#FBD2C5"/>
</g>
</g>
<g id="Group_165">
<g id="Group_166">
<path id="Vector_108" d="M237.068 88.0301C234.691 85.5964 229.991 87.0582 228.485 89.6517C227.36 91.5863 226.726 90.0615 226.877 89.53C226.446 90.856 226.865 92.1056 229.48 92.2395C230.03 92.2676 228.214 92.5915 228.214 92.5915C228.214 92.5915 230.257 98.7638 234.707 97.8848C236.03 97.6235 237.292 96.5067 237.292 96.5067C237.292 96.5067 235.878 96.5628 236.75 95.5114C238.443 93.4703 239.166 90.1793 237.068 88.0301Z" fill="#252525"/>
</g>
</g>
</g>
<g id="Group_167">
<g id="Group_168">
<g id="Group_169">
<path id="Vector_109" d="M201.863 125.941C201.811 126.166 202.713 126.599 202.938 126.577C203.462 126.362 203.336 126.051 203.857 125.921C203.389 125.967 202.883 125.913 202.421 125.812C202.169 125.739 201.915 125.587 201.863 125.941Z" fill="#FBD2C5"/>
</g>
</g>
<g id="Group_170">
<g id="Group_171">
<path id="Vector_110" d="M200.615 127.359C200.353 127.52 199.645 127.837 199.483 128.019C199.379 128.134 199.228 128.568 199.264 128.757C199.312 129.008 199.589 129.041 199.589 129.041C199.587 129.373 200.396 129.219 200.378 129.299C200.303 129.631 200.728 129.835 201.755 129.25C201.817 129.215 204.621 128.283 205.493 127.911C205.311 127.348 204.279 125.808 204.249 125.813C203.728 125.943 203.187 126.129 202.661 126.344C202.037 126.593 200.708 127.308 200.615 127.359Z" fill="#FBD2C5"/>
</g>
</g>
</g>
<g id="Group_172">
<g id="Group_173">
<path id="Vector_111" d="M216.266 116.923C215.243 117.615 213.897 118.594 212.478 119.627C209.379 121.883 205.523 124.691 203.879 125.286L205.353 128.612C209.428 127.042 218.081 122.942 220.205 120.334C221.036 117.094 216.339 116.674 216.266 116.923Z" fill="#5E5E5E"/>
</g>
</g>
<g id="Group_174">
<g id="Group_175">
<path id="Vector_112" d="M223.908 103.992C222.494 104.764 222.146 105.606 220.96 108.427C219.786 111.219 218.345 114.765 216.927 116.252C216.033 117.189 217.82 122.339 220.402 120.198C223.129 118.003 231.287 109.448 230.303 106.549C228.772 102.038 225.309 103.225 223.908 103.992Z" fill="#5E5E5E"/>
</g>
</g>
</g>
<g id="Group_176">
<g id="Group_177">
<g id="Group_178">
<g id="Group_179">
<path id="Vector_113" d="M79.0712 140.607C79.1422 140.827 80.1338 140.719 80.3154 140.582C80.6528 140.12 80.3842 139.922 80.7626 139.536C80.3865 139.823 79.928 140.044 79.4804 140.203C79.2283 140.274 78.9329 140.278 79.0712 140.607Z" fill="#FBD2C5"/>
</g>
</g>
<g id="Group_180">
<g id="Group_181">
<path id="Vector_114" d="M79.9608 140.528C79.5567 141.07 78.7905 142.385 78.7372 142.477C78.5961 142.753 78.1549 143.398 78.1103 143.638C78.0817 143.792 78.1753 144.243 78.3039 144.385C78.4741 144.573 78.7269 144.455 78.7269 144.455C78.8955 144.739 79.5067 144.18 79.5335 144.258C79.6397 144.58 80.1066 144.529 80.6821 143.487C80.717 143.425 82.6315 141.146 83.1835 140.367C82.7384 139.983 81.0652 139.216 81.0422 139.236C80.6651 139.622 80.2978 140.066 79.9608 140.528Z" fill="#FBD2C5"/>
</g>
</g>
</g>
<g id="Group_182">
<g id="Group_183">
<path id="Vector_115" d="M90.599 126.077C90.4243 126.181 90.279 126.301 90.1764 126.421C88.3025 128.603 82.7522 137.901 80.4437 139.86C81.2153 140.472 81.8174 141.033 82.1877 141.542C85.9208 138.244 94.3034 128.967 93.4769 127.144C92.7199 125.474 91.3719 125.617 90.599 126.077Z" fill="#FBD2C5"/>
</g>
</g>
<g id="Group_184">
<g id="Group_185">
<g id="Group_186">
<path id="Vector_116" d="M88.931 110.754C88.5842 113.407 89.6876 121.971 89.4422 126.172C89.1414 131.326 92.7937 129.698 93.3814 128.167C94.929 124.136 97.2863 112.329 95.3093 111.299C94.4523 110.853 88.9945 110.274 88.931 110.754Z" fill="#FBD2C5"/>
</g>
</g>
<g id="Group_187">
<g id="Group_188">
<path id="Vector_117" d="M88.9307 110.754C88.6851 112.625 89.005 117.516 88.8054 121.624C90.1185 121.918 92.0065 122.165 93.3566 122.237C93.9081 122.266 95.5744 122.409 96.1223 122.39C97.1345 117.619 96.6281 111.986 95.309 111.299C94.7723 111.019 92.568 109.215 90.8773 109.124C89.8681 109.07 88.9547 110.574 88.9307 110.754Z" fill="#20A0EF"/>
</g>
</g>
</g>
<g id="Group_189">
<g id="Group_190">
<g id="Group_191">
<path id="Vector_118" d="M113.741 191.989L115.602 190.939C115.602 190.939 116.001 191.546 116.326 191.937C116.954 192.691 119.964 193.238 119.964 194.308C119.964 194.848 118.843 195.334 117.929 195.371C117.014 195.407 116.213 195.355 115.723 195.063C115.114 194.698 113.954 194.375 113.758 194.042C113.418 193.464 113.686 192.792 113.686 192.792C113.59 192.196 113.741 191.989 113.741 191.989Z" fill="#271F62"/>
</g>
</g>
<g id="Group_192">
<g id="Group_193">
<path id="Vector_119" d="M116.326 191.936C116.326 191.936 115.949 192.595 115.245 192.988C114.846 193.21 113.686 192.792 113.686 192.792C113.589 192.195 113.548 191.79 113.548 191.79L115.662 190.827C115.662 190.827 115.854 191.333 116.326 191.936Z" fill="#FBD2C5"/>
</g>
</g>
</g>
<g id="Group_194">
<g id="Group_195">
<path id="Vector_120" d="M108.629 129.396C108.297 131.816 113.37 191.447 113.37 191.447C113.395 191.547 115.205 192.545 116.114 191.527C116.114 191.527 117.065 177.781 118.889 164.811C120.284 154.904 120.945 135.614 121.079 131.301C121.088 130.996 121.443 128.84 120.652 127.014C120.428 126.495 116.891 126.422 116.891 126.422C112.408 126.721 109.959 128.273 108.629 129.396Z" fill="#5E5E5E"/>
</g>
</g>
<g id="Group_196">
<g id="Group_197">
<g id="Group_198">
<path id="Vector_121" d="M106.022 192.141L104.162 191.091C104.162 191.091 103.763 191.698 103.437 192.089C102.809 192.843 99.7998 193.389 99.7998 194.46C99.7998 195 100.921 195.486 101.835 195.522C102.749 195.559 103.5 195.394 104.04 195.215C104.579 195.036 105.81 194.527 106.006 194.194C106.346 193.616 106.077 192.944 106.077 192.944C106.174 192.347 106.022 192.141 106.022 192.141Z" fill="#271F62"/>
</g>
</g>
<g id="Group_199">
<g id="Group_200">
<path id="Vector_122" d="M103.438 192.087C103.438 192.087 103.815 192.746 104.519 193.139C104.917 193.361 106.077 192.943 106.077 192.943C106.175 192.346 106.215 191.942 106.215 191.942L104.102 190.978C104.102 190.978 103.91 191.484 103.438 192.087Z" fill="#FBD2C5"/>
</g>
</g>
</g>
<g id="Group_201">
<g id="Group_202">
<path id="Vector_123" d="M98.9073 129.396C98.5744 131.816 103.648 191.447 103.648 191.447C103.673 191.547 105.482 192.545 106.393 191.527C106.393 191.527 107.343 177.781 109.168 164.811C110.743 153.614 110.509 142.997 111.382 142.298V130.431C106.901 130.73 100.394 130.057 98.9073 129.396Z" fill="#5E5E5E"/>
</g>
</g>
<g id="Group_203">
<g id="Group_204">
<path id="Vector_124" d="M91.033 101.188C91.1432 101.422 92.811 103.675 92.8561 105.269C93.6403 106.418 97.0703 104.882 97.0847 102.331C96.4259 101.903 94.6907 98.8332 94.3506 97.6015C94.159 97.9423 91.9335 100.938 91.033 101.188Z" fill="#FBD2C5"/>
</g>
</g>
<g id="Group_205">
<g id="Group_206">
<g id="Group_207">
<path id="Vector_125" d="M98.6107 133.247C98.6107 133.247 98.2763 138.851 99.1442 139.12C101.108 139.729 105.918 136.18 109.74 133.853C113.563 131.526 121.378 129 121.206 128.074C120.741 125.576 117.56 121.027 117.56 121.027L98.6107 133.247Z" fill="#20A0EF"/>
</g>
</g>
<g id="Group_208">
<g id="Group_209">
<path id="Vector_126" d="M100.973 101.702C100.004 101.883 97.0859 102.331 97.0859 102.331C97.0859 102.331 95.9531 104.784 94.7745 105.422C93.9654 105.861 92.8566 105.269 92.8566 105.269C92.8566 105.269 90.2555 107.55 89.8494 108.119C88.2758 110.323 88.713 112.684 89.8059 114.249C98.7689 127.084 97.19 134.651 98.1496 135.372C100.504 137.138 120.137 126.584 119.377 123.451C116.688 112.357 108.351 104.971 107.701 104.286C105.592 102.066 103.882 101.158 100.973 101.702Z" fill="#5E5E5E"/>
</g>
</g>
</g>
<g id="Group_210">
<g id="Group_211">
<g id="Group_212">
<path id="Vector_127" d="M87.5388 130.371L78.0022 130.57C75.9711 130.613 74.3591 132.317 74.4013 134.377L75.4506 185.922C75.5472 190.652 79.4064 194.408 84.0701 194.31C88.7346 194.212 92.4375 190.298 92.3409 185.568L91.2917 134.023C91.2494 131.963 89.5693 130.328 87.5388 130.371Z" fill="white"/>
</g>
<g id="Group_213">
<path id="Vector_128" d="M87.5389 130.371L78.0025 130.571C75.9712 130.613 74.3592 132.317 74.4014 134.377L75.2901 178.03L92.18 177.677L91.2913 134.024C91.2495 131.963 89.5694 130.328 87.5389 130.371Z" fill="#9B9B9B"/>
</g>
</g>
</g>
<g id="Group_214">
<g id="Group_215">
<g id="Group_216">
<path id="Vector_129" d="M85.9525 131.221C85.9299 131.451 86.8796 131.76 87.1004 131.709C87.5932 131.425 87.4264 131.134 87.9266 130.935C87.4682 131.043 86.9606 131.058 86.488 131.019C86.229 130.981 85.9574 130.863 85.9525 131.221Z" fill="#FBD2C5"/>
</g>
</g>
<g id="Group_217">
<g id="Group_218">
<path id="Vector_130" d="M86.7981 131.515C86.2123 131.846 84.9873 132.734 84.9019 132.796C84.6628 132.991 84.002 133.4 83.8655 133.601C83.7779 133.73 83.684 134.18 83.7449 134.363C83.8256 134.605 84.1037 134.601 84.1037 134.601C84.1446 134.93 84.9267 134.669 84.92 134.752C84.8886 135.09 85.3359 135.235 86.2781 134.517C86.3347 134.475 88.9942 133.176 89.8097 132.69C89.5557 132.156 88.3315 130.768 88.3024 130.777C87.8035 130.976 87.2907 131.231 86.7981 131.515Z" fill="#FBD2C5"/>
</g>
</g>
</g>
<g id="Group_219">
<g id="Group_220">
<path id="Vector_131" d="M101.032 119.656C100.838 119.719 100.67 119.803 100.544 119.897C98.2438 121.609 90.8179 129.445 88.1416 130.843C88.7626 131.611 89.2269 132.293 89.4784 132.872C93.8347 130.484 104.02 123.299 103.607 121.337C103.23 119.54 101.885 119.379 101.032 119.656Z" fill="#FBD2C5"/>
</g>
</g>
<g id="Group_221">
<g id="Group_222">
<g id="Group_223">
<path id="Vector_132" d="M101.882 104.289C101.09 106.842 100.727 115.47 99.7732 119.566C98.6041 124.591 102.478 123.624 103.316 122.219C105.524 118.517 109.845 107.297 108.073 105.937C107.304 105.348 102.025 103.826 101.882 104.289Z" fill="#FBD2C5"/>
</g>
</g>
<g id="Group_224">
<g id="Group_225">
<path id="Vector_133" d="M101.882 104.291C100.749 105.79 100.81 110.965 99.9168 114.977C101.473 116.06 104.51 117.059 106.995 117.009C108.801 112.484 109.314 107.955 108.809 106.54C107.602 103.162 103.347 102.352 101.882 104.291Z" fill="#20A0EF"/>
</g>
</g>
</g>
<g id="Group_226">
<g id="Group_227">
<g id="Group_228">
<path id="Vector_134" d="M92.0686 96.8507C91.0276 95.3462 89.174 94.7945 87.676 95.8601C86.2819 96.8529 85.2506 98.2118 85.9674 99.7181C86.2236 100.257 89.6785 104.191 92.3254 103.045C93.4442 102.56 93.9349 99.5474 93.1495 98.413C93.1495 98.413 92.0799 96.8661 92.0686 96.8507Z" fill="#FBD2C5"/>
</g>
</g>
<g id="Group_229">
<g id="Group_230">
<path id="Vector_135" d="M90.114 92.7514C86.77 92.5593 85.2767 96.891 85.2767 96.891C83.3526 99.197 86.5408 102.17 87.9769 101.805C85.5022 99.7252 86.5236 97.558 86.5236 97.558C89.5714 94.9832 93.6179 97.8326 94.1812 98.9678C94.1812 98.9678 95.1486 93.0408 90.114 92.7514Z" fill="#252525"/>
</g>
</g>
<g id="Group_231">
<g id="Group_232">
<path id="Vector_136" d="M91.5674 96.3285C91.4319 96.4489 91.2239 96.7209 91.1422 97.0192C91.6651 97.3947 92.6051 97.9058 93.0699 98.1585C93.3228 97.772 93.2807 96.8942 92.987 96.554C92.6755 96.1943 91.9223 96.013 91.5674 96.3285Z" fill="#FBD2C5"/>
</g>
</g>
<g id="Group_233">
<g id="Group_234">
<path id="Vector_137" d="M103.904 91.4534C102.444 91.2318 101.606 91.5156 99.2266 88.9367C91.3328 80.3807 87.107 90.1809 89.1808 92.4286C89.6908 92.9808 90.2817 93.0653 90.2602 92.0593C90.2247 90.3605 92.3483 87.079 95.0965 93.9803C95.8215 95.8014 95.4481 99.2224 101.627 98.5195C107.216 97.8837 104.906 101.291 105.989 102.227C108.769 104.63 111.116 92.5458 103.904 91.4534Z" fill="#252525"/>
</g>
</g>
<g id="Group_235">
<g id="Group_236">
<path id="Vector_138" d="M89.4698 91.8945C89.1909 91.9332 88.9858 92.0466 88.8355 92.1891C88.4619 92.5432 88.4273 93.0777 88.4273 93.0777C89.6194 92.6192 91.0926 92.8642 91.0926 92.8642C90.9333 92.2336 90.5207 91.75 89.4698 91.8945Z" fill="#252525"/>
</g>
</g>
</g>
</g>
<g id="Group_237">
<g id="Group_238">
<g id="Group_239">
<path id="Vector_139" d="M291.857 170.454L285.324 170.468C285.336 175.914 279.421 180.444 279.421 180.444L288.039 190.454L288.632 191.166L289.227 190.491L297.802 180.371C297.802 180.371 291.869 175.9 291.857 170.454Z" fill="#D5D5D5"/>
</g>
</g>
<g id="Group_240">
<g id="Group_241">
<path id="Vector_140" d="M287.96 181.354L287.979 190.437L288.631 191.166L289.172 190.567L289.153 181.351L287.96 181.354Z" fill="#252525"/>
</g>
</g>
<g id="Group_242">
<g id="Group_243">
<path id="Vector_141" d="M288.606 177.547C287.46 177.55 286.532 178.495 286.534 179.658C286.537 180.82 287.468 181.761 288.615 181.759C289.762 181.756 290.689 180.812 290.686 179.649C290.684 178.486 289.753 177.545 288.606 177.547Z" fill="#252525"/>
</g>
</g>
<g id="Group_244">
<g id="Group_245">
<path id="Vector_142" d="M283.272 99.0757L283.388 153.91C283.391 154.838 284.135 155.59 285.05 155.588L285.081 170.188L292.097 170.173L292.066 155.573C292.982 155.571 293.724 154.816 293.722 153.887L293.606 99.0533L283.272 99.0757Z" fill="white"/>
</g>
</g>
<g id="Group_246">
<g id="Group_247">
<path id="Vector_143" d="M288.422 90C285.569 90.0067 283.26 92.3575 283.266 95.2516L283.274 99.0752L293.607 99.0529L293.599 95.2293C293.593 92.3351 291.275 89.994 288.422 90Z" fill="#9B9B9B"/>
</g>
</g>
<g id="Group_248">
<g id="Group_249">
<path id="Vector_144" d="M314.126 189.139H309.664C309.305 189.139 309.013 189.434 309.013 189.797V190.786H297.741C299.715 190.024 301.819 188.846 303.642 187.009C306.03 184.604 307.476 181.474 307.99 177.693H309.664C310.021 177.693 310.311 177.397 310.311 177.034V172.915C310.311 172.553 310.021 172.258 309.664 172.258H305.197C304.84 172.258 304.548 172.553 304.548 172.915V177.034C304.548 177.397 304.84 177.693 305.197 177.693H306.686C306.188 181.099 304.87 183.91 302.733 186.066C299.091 189.744 293.943 190.59 291.798 190.786H291.232V189.797C291.232 189.434 290.941 189.139 290.581 189.139H286.523C286.165 189.139 285.874 189.434 285.874 189.797V190.786H285.583C283.44 190.59 278.299 189.746 274.658 186.075C272.43 183.831 271.099 180.875 270.65 177.281H271.907C272.265 177.281 272.556 176.985 272.556 176.622V172.915C272.556 172.553 272.265 172.258 271.907 172.258H267.442C267.084 172.258 266.793 172.553 266.793 172.915V176.622C266.793 176.985 267.084 177.281 267.442 177.281H269.343C269.805 181.246 271.266 184.518 273.74 187.009C275.562 188.846 277.667 190.024 279.642 190.786H267.686V189.797C267.686 189.434 267.394 189.139 267.037 189.139H262.974C262.616 189.139 262.325 189.434 262.325 189.797V193.916C262.325 194.279 262.616 194.574 262.974 194.574H267.037C267.394 194.574 267.686 194.279 267.686 193.916V192.104H285.381C285.563 192.12 285.727 192.131 285.874 192.14V193.504C285.874 193.867 286.165 194.163 286.523 194.163H290.581C290.941 194.163 291.232 193.867 291.232 193.504V192.153C291.435 192.146 291.691 192.13 292.002 192.104H309.013V193.504C309.013 193.867 309.305 194.163 309.664 194.163H314.126C314.484 194.163 314.776 193.867 314.776 193.504V189.797C314.776 189.434 314.484 189.139 314.126 189.139Z" fill="white"/>
</g>
</g>
</g>
<g id="Group_250">
<g id="Group_251">
<g id="Group_252">
<g id="Group_253">
<path id="Vector_145" d="M24.1203 190.585L26.0569 189.687C26.0569 189.687 26.4077 190.323 26.7018 190.739C27.2692 191.541 30.2271 192.324 30.1448 193.392C30.103 193.93 28.9486 194.325 28.0346 194.289C27.12 194.253 26.3248 194.138 25.86 193.807C25.2801 193.395 24.1478 192.981 23.9789 192.633C23.6842 192.03 24.0046 191.382 24.0046 191.382C23.9545 190.779 24.1203 190.585 24.1203 190.585Z" fill="#271F62"/>
</g>
</g>
<g id="Group_254">
<g id="Group_255">
<path id="Vector_146" d="M26.4549 189.605C26.4549 189.605 26.2783 190.099 26.7031 190.738C26.7031 190.738 26.2772 191.365 25.5445 191.702C25.1299 191.891 24.0059 191.382 24.0059 191.382C23.9552 190.779 23.9838 189.877 23.9838 189.877L26.4549 189.605Z" fill="#FBD2C5"/>
</g>
</g>
</g>
<g id="Group_256">
<g id="Group_257">
<path id="Vector_147" d="M42.8134 169.3C34.9775 180.762 25.9979 190.848 25.9979 190.848C25.9278 190.923 23.868 190.887 23.5703 189.547C23.5703 189.547 28.912 177.305 35.3625 165.953C35.5184 165.679 35.7274 165.214 35.8239 164.948C39.3987 155.084 48.3948 157.531 43.2335 168.625C43.1619 168.779 42.9161 169.149 42.8134 169.3Z" fill="#309CC6"/>
</g>
</g>
<g id="Group_258">
<g id="Group_259">
<path id="Vector_148" d="M34.115 129.766C35.9199 128.648 35.3436 129.168 36.9485 130.553C37.1122 130.694 37.0925 130.972 37.1675 131.193C39.2621 137.366 42.9958 149.634 44.4064 161.505C45.0114 166.594 37.2285 166.315 36.5841 163.826C34.8078 156.962 32.1211 150.471 29.5626 143.528C29.2309 142.628 28.9013 141.72 28.5761 140.804C28.0285 139.258 27.9611 137.412 28.5789 136.119C28.7711 135.717 31.3188 133.575 31.4926 132.465C31.9132 129.773 32.3531 130.857 34.115 129.766Z" fill="#309CC6"/>
</g>
</g>
<g id="Group_260">
<g id="Group_261">
<g id="Group_262">
<path id="Vector_149" d="M41.4161 190.912L43.2769 189.863C43.2769 189.863 43.6754 190.47 44.0012 190.86C44.6294 191.614 47.6387 192.161 47.6387 193.231C47.6387 193.772 46.5177 194.257 45.6037 194.294C44.6891 194.331 43.9385 194.166 43.3986 193.986C42.8599 193.807 41.6285 193.298 41.4328 192.966C41.0928 192.387 41.3612 191.715 41.3612 191.715C41.2646 191.119 41.4161 190.912 41.4161 190.912Z" fill="#271F62"/>
</g>
</g>
<g id="Group_263">
<g id="Group_264">
<path id="Vector_150" d="M43.8127 189.802C43.8127 189.802 43.5281 190.258 44 190.861C44 190.861 43.6235 191.519 42.919 191.912C42.5204 192.134 41.3606 191.717 41.3606 191.717C41.2634 191.119 41.3153 190.256 41.3153 190.256L43.8127 189.802Z" fill="#FBD2C5"/>
</g>
</g>
</g>
<g id="Group_265">
<g id="Group_266">
<path id="Vector_151" d="M58.2537 168.249C51.5485 180.489 43.7219 191.016 43.7219 191.016C43.6602 191.098 41.6101 191.3 41.1642 190.002C41.1642 190.002 46.7241 177.583 51.099 165.256C51.132 165.163 51.1948 165.083 51.2135 164.988C54.1376 150.497 64.0939 158.439 58.4309 167.892C58.3649 168.002 58.3198 168.129 58.2537 168.249Z" fill="#309CC6"/>
</g>
</g>
<g id="Group_267">
<g id="Group_268">
<path id="Vector_152" d="M46.3612 127.121C53.3133 139.378 57.2451 149.783 59.4448 160.057C60.1761 163.473 52.6613 163.384 51.847 162.009C46.1938 152.458 40.3338 143.199 39.2658 142.883L34.8829 131.881C35.1326 123.823 44.3004 123.487 46.3612 127.121Z" fill="#309CC6"/>
</g>
</g>
<g id="Group_269">
<g id="Group_270">
<path id="Vector_153" d="M65.6657 106.641C65.5344 106.864 63.6686 108.949 63.478 110.532C62.5913 111.602 59.3164 109.75 59.5352 107.209C60.2303 106.845 62.2583 103.954 62.7087 102.76C64.9598 102.758 66.8435 105.205 65.6657 106.641Z" fill="#FBD2C5"/>
</g>
</g>
<g id="Group_271">
<g id="Group_272">
<g id="Group_273">
<path id="Vector_154" d="M69.7598 102.02C70.9328 103.273 71.6776 104.813 70.6815 106.145C70.3254 106.622 66.1726 109.785 63.8015 108.132C62.7987 107.432 62.9056 104.38 63.8964 103.426C63.8964 103.426 65.2468 102.124 65.2607 102.112C66.5738 100.845 68.4989 100.675 69.7598 102.02Z" fill="#FBD2C5"/>
</g>
</g>
<g id="Group_274">
<g id="Group_275">
<path id="Vector_155" d="M69.2844 97.2335C73.8252 97.626 75.8574 104.049 73.3116 106.654C72.7502 107.23 70.8188 108.013 66.8678 101.348C65.3042 101.573 62.9643 103.303 62.9643 103.303C62.8847 100.282 65.8129 96.934 69.2844 97.2335Z" fill="#262626"/>
</g>
</g>
<g id="Group_276">
<g id="Group_277">
<path id="Vector_156" d="M65.6134 101.395C65.7547 101.509 65.9753 101.77 66.0715 102.064C65.5681 102.466 64.6554 103.024 64.2041 103.301C63.933 102.927 63.9301 102.049 64.2059 101.694C64.4991 101.319 65.2431 101.099 65.6134 101.395Z" fill="#FBD2C5"/>
</g>
</g>
</g>
<g id="Group_278">
<g id="Group_279">
<g id="Group_280">
<path id="Vector_157" d="M59.8787 150.137C60.05 150.337 60.2944 150.505 60.0002 150.703C59.8218 150.846 59.0524 150.203 58.9756 149.987C58.9446 149.413 59.276 149.397 59.1705 148.863C59.3283 149.313 59.5915 149.754 59.8787 150.137Z" fill="#FBD2C5"/>
</g>
</g>
<g id="Group_281">
<g id="Group_282">
<path id="Vector_158" d="M59.0991 148.457C59.2041 148.99 59.2693 149.567 59.2998 150.141C59.3417 150.819 59.2681 152.344 59.2624 152.45C59.2301 152.76 59.2481 153.545 59.1546 153.77C59.0947 153.914 58.7724 154.238 58.5879 154.285C58.3433 154.347 58.1959 154.107 58.1959 154.107C57.9007 154.25 57.6955 153.442 57.6311 153.492C57.3666 153.702 57.0046 153.399 57.0907 152.207C57.0957 152.135 56.7359 149.164 56.6976 148.206C57.2779 148.134 59.0903 148.427 59.0991 148.457Z" fill="#FBD2C5"/>
</g>
</g>
</g>
<g id="Group_283">
<g id="Group_284">
<path id="Vector_159" d="M61.931 133.648C61.7482 134.882 59.5594 146.811 59.7268 148.573L56.1306 148.634C55.8353 144.677 56.1126 136.106 57.2028 132.178C57.3065 131.805 57.5688 130.67 57.7384 130.116C57.7729 130.003 58.8762 129.455 58.9009 129.402C61.8198 128.309 61.9289 133.134 61.931 133.648Z" fill="#5E5E5E"/>
</g>
</g>
<g id="Group_285">
<g id="Group_286">
<path id="Vector_160" d="M66.8741 116.078C67.0347 116.243 67.1099 116.463 67.0779 116.677C66.8756 118.059 65.918 120.738 64.9041 123.574C63.9876 126.138 62.5478 130.954 62.1913 132.124C62.1512 132.255 62.1251 132.341 62.1147 132.372C61.7132 133.809 58.5225 134.819 56.8746 132.093C56.5655 128.577 57.1278 115.328 60.0935 114.733C61.0856 114.535 66.1696 115.353 66.8741 116.078Z" fill="#5E5E5E"/>
</g>
</g>
<g id="Group_287">
<g id="Group_288">
<g id="Group_289">
<path id="Vector_161" d="M55.7224 106.217C56.7078 106.226 59.5351 107.208 59.5351 107.208C59.5351 107.208 60.4385 109.759 61.554 110.506C62.3202 111.018 63.4784 110.532 63.4784 110.532C63.4784 110.532 65.8582 113.049 66.2101 113.654C67.5754 115.996 66.1565 117.902 65.6942 119.761C65.3497 121.144 55.8525 128.337 55.2974 141.318C55.2666 142.035 55.6735 145.283 55.4507 145.958C49.0756 145.966 38.5229 145.139 32.7462 138.083L36.3953 130.318L31.1663 137.812C30.8021 137.54 27.2601 136.54 27.1986 136.499C36.4135 113.366 46.8731 106.139 55.7224 106.217Z" fill="#5E5E5E"/>
</g>
</g>
<g id="Group_290">
<g id="Group_291">
<path id="Vector_162" d="M59.5363 107.208C59.5363 107.208 60.4386 109.758 61.5541 110.505C62.3203 111.017 63.4785 110.531 63.4785 110.531C63.4785 110.531 65.7058 112.885 66.1666 113.585C64.6802 115.868 60.6352 116.856 60.6352 116.856C60.6352 116.856 58.0913 109.661 55.7231 106.216C55.7231 106.216 56.6507 106.267 57.6426 106.589C58.0923 106.736 59.5363 107.208 59.5363 107.208Z" fill="#383838"/>
</g>
</g>
</g>
<g id="Group_292">
<g id="Group_293">
<path id="Vector_163" d="M41.3791 131.982C41.3791 131.982 40.9461 124.922 41.4873 122.793C41.5363 122.6 42.699 122.867 42.6965 123.745C42.6892 126.264 41.3791 131.982 41.3791 131.982Z" fill="#2E2E2E"/>
</g>
</g>
<g id="Group_294">
<g id="Group_295">
<g id="Group_296">
<path id="Vector_164" d="M46.0523 141.547C46.2416 141.73 46.4986 141.876 46.2235 142.1C46.0587 142.259 45.2346 141.688 45.1389 141.48C45.0579 140.912 45.3864 140.865 45.2336 140.343C45.4308 140.777 45.7323 141.192 46.0523 141.547Z" fill="#FBD2C5"/>
</g>
</g>
<g id="Group_297">
<g id="Group_298">
<path id="Vector_165" d="M45.4758 141.599C45.5781 142.272 45.6405 143.797 45.6442 143.903C45.6397 144.214 45.7269 144.995 45.654 145.228C45.6076 145.377 45.315 145.729 45.1356 145.792C44.8977 145.876 44.7291 145.651 44.7291 145.651C44.4477 145.82 44.1718 145.034 44.1116 145.09C43.8672 145.323 43.4796 145.055 43.4599 143.86C43.4581 143.788 42.8353 140.862 42.7121 139.91C43.2836 139.785 45.1151 139.913 45.1262 139.942C45.2784 140.463 45.3943 141.031 45.4758 141.599Z" fill="#FBD2C5"/>
</g>
</g>
</g>
<g id="Group_299">
<g id="Group_300">
<path id="Vector_166" d="M47.1062 123.433C47.0534 123.786 46.8481 124.698 46.6294 124.933C46.5575 126.178 46.4023 127.85 46.2389 129.614C45.8821 133.466 45.4383 138.261 45.7604 140L42.1848 140.388C41.4652 136.03 40.8228 125.662 41.9734 122.476C43.1226 119.151 47.4063 121.427 47.1062 123.433Z" fill="#5E5E5E"/>
</g>
</g>
<g id="Group_301">
<g id="Group_302">
<path id="Vector_167" d="M51.4619 112.321C46.609 115.958 41.0771 125.433 41.4596 123.269C41.5936 122.509 45.0976 110.785 48.5739 108.497C49.1455 108.121 53.0277 111.148 51.4619 112.321Z" fill="#3D3D3D"/>
</g>
</g>
<g id="Group_303">
<g id="Group_304">
<path id="Vector_168" d="M56.7531 111.127C56.848 111.338 56.844 111.57 56.7416 111.761C56.0826 112.988 54.274 115.17 52.3593 117.48C50.4346 119.804 48.4444 122.204 47.3414 123.944C47.1514 124.244 43.5494 126.784 41.9342 122.669C42.8347 119.267 47.8567 107.021 50.8424 107.498C51.8422 107.658 56.3381 110.2 56.7531 111.127Z" fill="#5E5E5E"/>
</g>
</g>
<g id="Group_305">
<g id="Group_306">
<g id="Group_307">
<path id="Vector_169" d="M53.0824 144.779C51.5729 143.401 49.2478 143.524 47.8886 145.055L41.5053 152.244C40.146 153.775 40.2683 156.134 41.7773 157.512L79.5503 192.012C83.0165 195.178 88.358 194.895 91.4795 191.38C94.6014 187.863 94.3217 182.446 90.8555 179.28L53.0824 144.779Z" fill="white"/>
</g>
<g id="Group_308">
<path id="Vector_170" d="M47.8892 145.055L41.5052 152.244C40.146 153.775 40.2683 156.134 41.7773 157.512L73.7674 186.73L85.0732 173.998L53.0824 144.779C51.5729 143.401 49.2484 143.524 47.8892 145.055Z" fill="#66D4FF"/>
</g>
</g>
</g>
</g>
<g id="Group_309">
<g id="Group_310">
<g id="Group_311">
<g id="Group_312">
<path id="Vector_171" d="M87.8178 178.13L39.9867 160.742C38.0756 160.047 35.9682 161.056 35.2801 162.995L32.0461 172.102C31.3575 174.041 32.3491 176.176 34.2603 176.87L82.092 194.258C86.4815 195.853 91.3213 193.536 92.9026 189.083C94.484 184.629 92.208 179.725 87.8178 178.13Z" fill="white"/>
</g>
</g>
<g id="Group_313">
<g id="Group_314">
<path id="Vector_172" d="M35.2789 162.993L32.045 172.1C31.3569 174.039 32.3479 176.174 34.2591 176.868L74.7677 191.594L80.4935 175.466L39.9861 160.74C38.075 160.045 35.9676 161.054 35.2789 162.993Z" fill="#20A0EF"/>
</g>
</g>
</g>
<g id="Group_315">
<g id="Group_316">
<g id="Group_317">
<path id="Vector_173" d="M85.6598 177.503L34.9475 173.962C32.9214 173.821 31.1662 175.372 31.0267 177.427L30.3717 187.079C30.2322 189.134 31.7613 190.914 33.7873 191.056L84.4996 194.596C89.1534 194.921 93.186 191.359 93.5064 186.638C93.8268 181.918 90.3136 177.828 85.6598 177.503Z" fill="white"/>
</g>
</g>
<g id="Group_318">
<g id="Group_319">
<path id="Vector_174" d="M31.0277 177.427L30.3727 187.078C30.2331 189.134 31.7628 190.914 33.7889 191.055L76.7369 194.054L77.897 176.961L34.949 173.962C32.923 173.821 31.1672 175.372 31.0277 177.427Z" fill="#252525"/>
</g>
</g>
</g>
<g id="Group_320">
<g id="Group_321">
<path id="Vector_175" d="M85.9788 183.218C84.4008 183.218 83.1211 184.516 83.1211 186.117C83.1211 187.718 84.4008 189.015 85.9788 189.015C87.5574 189.015 88.8365 187.718 88.8365 186.117C88.8365 184.516 87.5574 183.218 85.9788 183.218Z" fill="#252525"/>
</g>
</g>
</g>
</g>
</g>
</svg>
