<svg width="317" height="204" viewBox="0 0 317 204" fill="none" xmlns="http://www.w3.org/2000/svg">
<g clip-path="url(#clip0)">
<path d="M219.634 92.2906L221.606 91.5373C221.794 91.4648 221.98 91.3867 222.178 91.3113C218.53 90.0015 215.447 87.5201 213.437 84.2752C211.427 81.0302 210.609 77.2149 211.118 73.4565C211.627 69.6981 213.432 66.2204 216.236 63.5951C219.041 60.9699 222.678 59.3534 226.549 59.0114L225.176 65.7632L230.389 59.0895H230.435C234.934 59.6928 239.004 62.0142 241.749 65.5432C244.494 69.0722 245.689 73.5199 245.072 77.9081C245.029 78.2234 244.96 78.5303 244.9 78.84C246.505 77.604 248.01 76.2397 249.137 74.655C251.426 71.4353 252.201 67.4679 252.991 62.6105C254.556 52.9905 255.966 43.2646 257.237 33.5442C253.336 32.3965 249.983 29.9297 247.78 26.5871C245.578 23.2446 244.67 19.2454 245.22 15.3086C245.292 14.8009 245.392 14.307 245.506 13.8188C245.535 13.696 245.564 13.5733 245.595 13.4533C245.718 12.9818 245.856 12.5186 246.016 12.0583C246.041 11.983 246.076 11.9132 246.102 11.8407C246.245 11.4584 246.388 11.0818 246.574 10.7247C246.637 10.5852 246.7 10.4457 246.765 10.3145C246.963 9.91556 247.172 9.52496 247.4 9.14552C247.478 9.01997 247.561 8.9 247.638 8.77445C247.815 8.49544 248.001 8.21644 248.193 7.95697C248.296 7.81747 248.396 7.67797 248.502 7.54126L248.579 7.43245C251.008 4.33184 254.475 2.15945 258.376 1.29292C262.278 0.426388 266.367 0.920528 269.934 2.68943L268.148 11.4752L273.298 4.87959C276.068 7.16813 278.016 10.2604 278.856 13.7047C279.696 17.149 279.384 20.765 277.967 24.0246H277.988C277.939 24.1362 277.879 24.2423 277.83 24.3539C277.736 24.5603 277.638 24.764 277.544 24.9677C277.412 25.2271 277.258 25.481 277.129 25.7321C277.02 25.9218 276.915 26.1116 276.797 26.2901C276.629 26.5691 276.445 26.8202 276.262 27.0797C276.154 27.2304 276.053 27.3866 275.942 27.5345C275.656 27.9223 275.335 28.2934 275.009 28.6505C274.895 28.776 274.772 28.8904 274.652 29.0132C274.42 29.2531 274.188 29.4903 273.942 29.7163C273.79 29.8558 273.63 29.9953 273.473 30.1236C273.247 30.3189 273.015 30.5086 272.778 30.6816C272.609 30.8127 272.437 30.9383 272.265 31.061C272.017 31.2368 271.765 31.4014 271.51 31.566C271.339 31.6749 271.167 31.7837 270.992 31.8869C270.706 32.0571 270.406 32.2133 270.105 32.3668C269.954 32.4421 269.819 32.5258 269.651 32.5983C269.198 32.8132 268.735 33.0113 268.263 33.187C268.174 33.2205 268.08 33.2456 267.991 33.2763C267.596 33.4158 267.199 33.5553 266.795 33.653C266.621 33.7004 266.443 33.7395 266.266 33.7813C265.937 33.8594 265.605 33.932 265.27 33.9933C265.08 34.0268 264.882 34.0575 264.678 34.0854C264.349 34.1329 264.017 34.1691 263.682 34.197C263.485 34.2138 263.291 34.2305 263.09 34.2417C262.73 34.2584 262.366 34.2612 262.003 34.2584C261.979 34.257 261.955 34.257 261.932 34.2584C261.394 38.3504 260.829 42.4424 260.238 46.5344C261.625 44.7078 263.381 43.1768 265.397 42.0354C267.412 40.8939 269.646 40.1661 271.961 39.8965C274.275 39.6269 276.622 39.8212 278.857 40.4675C281.091 41.1139 283.167 42.1986 284.957 43.6552L280.471 51.071L287.683 46.4424C290.411 49.9621 291.594 54.3933 290.974 58.7631C290.762 60.2973 290.329 61.7946 289.686 63.2103C288.309 66.2757 286.02 68.8667 283.114 70.6471C280.208 72.4275 276.821 73.3152 273.391 73.1949C269.962 73.0746 266.649 71.9519 263.882 69.9724C261.115 67.993 259.022 65.2482 257.875 62.0943C257.809 62.5073 257.746 62.9313 257.68 63.3387C256.982 67.6213 256.115 72.953 253.037 77.2887C250.951 80.235 248.079 82.4112 245.286 84.3251C243.47 85.5713 241.613 86.759 239.713 87.888C237.719 89.6911 235.313 91.0052 232.695 91.7215C229.643 93.2448 226.526 94.6221 223.342 95.8535L221.354 96.6123C219.566 97.2931 217.735 97.9906 215.918 98.7327C216.204 98.7579 216.49 98.7802 216.776 98.8164C220.376 99.2985 223.726 100.884 226.341 103.344C228.957 105.804 230.703 109.011 231.327 112.501L219.222 118.949L231.29 118.422C230.807 121.031 229.686 123.489 228.023 125.587C225.294 129.031 221.294 131.301 216.875 131.913C212.456 132.525 207.966 131.43 204.362 128.862L204.963 129.953C205.364 130.673 205.758 131.39 206.142 132.101C211.386 141.794 211.767 150.164 207.215 155.674L203.495 152.758C207.927 147.396 204.411 138.873 201.922 134.269C201.544 133.572 201.155 132.874 200.777 132.16C197.41 126.069 193.591 119.167 195.121 111.821C197.41 100.744 209.727 96.0571 219.634 92.2906Z" fill="#F2F2F2"/>
<path d="M77.1327 144.804L75.5935 144.216C75.4447 144.16 75.3074 144.096 75.1529 144.04C78.0009 143.016 80.4069 141.077 81.9756 138.543C83.5443 136.009 84.1824 133.029 83.785 130.095C83.3876 127.16 81.9784 124.444 79.7889 122.394C77.5994 120.344 74.7598 119.081 71.7368 118.813L72.8097 124.086L68.7413 118.874H68.7042C66.9629 119.106 65.2856 119.67 63.768 120.534C62.2504 121.398 60.9223 122.546 59.8595 123.911C58.7968 125.276 58.0202 126.831 57.5742 128.489C57.1282 130.147 57.0214 131.874 57.2601 133.572C57.2944 133.82 57.3488 134.057 57.3946 134.3C56.1323 133.374 55.0177 132.272 54.0872 131.027C52.3048 128.516 51.6926 125.414 51.0746 121.622C49.8644 114.109 48.7658 106.514 47.7787 98.9309C50.8238 98.0332 53.4408 96.1058 55.1593 93.4951C56.8778 90.8844 57.5852 87.7616 57.1542 84.6879C57.097 84.2917 57.0198 83.9067 56.9282 83.5245L56.8596 83.2455C56.7623 82.8772 56.6564 82.5145 56.5305 82.163C56.5105 82.1044 56.4848 82.0486 56.4619 81.9928C56.3503 81.6942 56.2273 81.4013 56.0957 81.1139C56.0442 81.0079 55.9955 80.8991 55.944 80.7931C55.7895 80.4834 55.6265 80.1793 55.4491 79.8835C55.389 79.7831 55.3232 79.6882 55.2631 79.6045C55.1229 79.3869 54.977 79.1721 54.8282 78.9656C54.7481 78.8568 54.6709 78.7452 54.5879 78.6392L54.5278 78.5555C52.6307 76.1343 49.9243 74.4371 46.8781 73.7583C43.832 73.0795 40.6383 73.4619 37.851 74.8392L39.2472 81.7026L35.2217 76.5522C33.0587 78.3397 31.538 80.7545 30.8818 83.4443C30.2256 86.1341 30.4681 88.958 31.5739 91.5039H31.5596C31.5968 91.5904 31.6426 91.6741 31.6827 91.7606C31.757 91.9224 31.8314 92.0814 31.9115 92.2405C32.0145 92.4413 32.1232 92.6394 32.2377 92.8347C32.3207 92.9854 32.4036 93.1333 32.4952 93.2784C32.6268 93.4876 32.7813 93.6913 32.9129 93.895C32.9987 94.0121 33.076 94.1349 33.1647 94.2493C33.3935 94.5506 33.6367 94.8408 33.8914 95.1226C33.98 95.2202 34.0773 95.3095 34.1775 95.4016C34.3577 95.5885 34.5408 95.7726 34.7325 95.9596C34.8498 96.0712 34.9757 96.1744 35.0987 96.2776C35.2761 96.432 35.4563 96.5799 35.6394 96.7212C35.771 96.8217 35.9055 96.9193 36.04 97.017C36.2345 97.1537 36.4319 97.296 36.6293 97.4104C36.7638 97.4968 36.8983 97.5806 37.0356 97.6615C37.2616 97.7954 37.4934 97.9154 37.728 98.0353C37.8481 98.0967 37.9626 98.1609 38.0827 98.2195C38.4375 98.3869 38.798 98.5403 39.1671 98.677C39.2357 98.7049 39.3101 98.7217 39.3788 98.7468C39.6849 98.8556 39.9968 98.956 40.3143 99.0425C40.4488 99.0788 40.6004 99.1095 40.7263 99.1402C40.9838 99.2015 41.2413 99.2601 41.5045 99.3076L41.9651 99.3801C42.2226 99.4164 42.483 99.4443 42.7433 99.4666C42.8978 99.4806 43.0495 99.4917 43.2068 99.5001C43.4929 99.514 43.779 99.5168 44.0651 99.514H44.1195C44.5391 102.717 44.9797 105.917 45.4413 109.114C44.3596 107.686 42.99 106.488 41.4164 105.594C39.8429 104.7 38.0986 104.129 36.2907 103.917C34.4828 103.704 32.6493 103.854 30.903 104.357C29.1566 104.861 27.5341 105.707 26.1352 106.843L29.6084 112.602L23.9779 108.989C22.9218 110.349 22.1508 111.899 21.709 113.551C21.2672 115.202 21.1633 116.921 21.403 118.612C21.5691 119.811 21.9092 120.982 22.413 122.088C23.4884 124.482 25.2768 126.505 27.546 127.896C29.8152 129.286 32.4606 129.979 35.1388 129.885C37.817 129.792 40.4045 128.915 42.5656 127.369C44.7266 125.824 46.3615 123.68 47.258 121.218C47.3095 121.538 47.3581 121.865 47.4096 122.188C47.9532 125.536 48.6313 129.699 51.0345 133.092C52.6653 135.391 54.9083 137.09 57.0884 138.585C58.5075 139.56 59.958 140.49 61.44 141.375C62.9982 142.783 64.877 143.81 66.9217 144.372C69.3021 145.56 71.7397 146.643 74.2288 147.597L75.7794 148.191C77.1756 148.721 78.6061 149.265 80.0166 149.846C79.7934 149.865 79.5674 149.882 79.3414 149.913C76.5313 150.288 73.9162 151.525 71.8736 153.444C69.831 155.363 68.4667 157.866 67.9775 160.59L77.4188 165.612L67.9946 165.202C68.4095 167.37 69.381 169.4 70.8183 171.103C72.2556 172.805 74.1119 174.125 76.2139 174.939C78.3159 175.752 80.595 176.033 82.8385 175.755C85.0819 175.477 87.2166 174.649 89.0431 173.349C88.8857 173.628 88.7312 173.907 88.5739 174.2C88.262 174.758 87.953 175.316 87.6526 175.874C83.5585 183.443 83.261 189.983 86.8172 194.288L89.7154 192.011C86.2536 187.826 89.0002 181.166 90.9457 177.57C91.2318 177.026 91.5436 176.476 91.8497 175.924C94.479 171.181 97.4602 165.777 96.2729 160.038C94.4962 151.405 84.8689 147.756 77.1327 144.804Z" fill="#F2F2F2"/>
<path d="M158.5 204C246.037 204 317 201.065 317 197.443C317 193.822 246.037 190.887 158.5 190.887C70.9629 190.887 0 193.822 0 197.443C0 201.065 70.9629 204 158.5 204Z" fill="#3F3D56"/>
<path opacity="0.1" d="M158.5 204C246.037 204 317 201.065 317 197.443C317 193.822 246.037 190.887 158.5 190.887C70.9629 190.887 0 193.822 0 197.443C0 201.065 70.9629 204 158.5 204Z" fill="black"/>
<path d="M158.5 200.373C246.037 200.373 317 197.438 317 193.817C317 190.195 246.037 187.26 158.5 187.26C70.9629 187.26 0 190.195 0 193.817C0 197.438 70.9629 200.373 158.5 200.373Z" fill="#3F3D56"/>
<path d="M24.3186 191.484C23.4603 189.947 24.433 188.063 25.5431 186.691C26.6532 185.318 28.0064 183.901 27.9778 182.146C27.9378 179.635 25.2027 178.153 23.0197 176.822C21.4 175.834 19.9057 174.662 18.568 173.332C18.0088 172.819 17.546 172.215 17.2004 171.547C16.7484 170.564 16.7627 169.448 16.7913 168.371C16.8867 164.789 17.0679 161.21 17.3349 157.635" stroke="#3F3D56" stroke-width="4" stroke-miterlimit="10"/>
<path d="M13.1915 157.437C13.2224 156.782 13.422 156.145 13.772 155.585C14.1221 155.024 14.6112 154.559 15.1942 154.232L16.0925 155.964L16.0668 153.866C16.4952 153.742 16.9421 153.689 17.3886 153.71C18.1791 153.748 18.9404 154.013 19.5765 154.472C20.2126 154.932 20.6948 155.564 20.9624 156.291C21.23 157.017 21.271 157.804 21.0801 158.553C20.8892 159.302 20.475 159.98 19.8899 160.499C19.3047 161.019 18.5748 161.358 17.7922 161.473C17.0097 161.589 16.2096 161.476 15.493 161.148C14.7763 160.821 14.1753 160.293 13.7656 159.633C13.356 158.972 13.1562 158.209 13.1915 157.437Z" fill="#4452FE"/>
<path d="M20.3536 183.943C20.7526 184.717 21.4044 185.34 22.2064 185.714C23.0084 186.087 23.915 186.19 24.7835 186.006C25.6519 185.822 26.433 185.361 27.0036 184.697C27.5742 184.032 27.902 183.202 27.9353 182.336C27.9639 181.795 27.8752 181.254 27.675 180.748C27.3872 180 26.8712 179.357 26.1966 178.904C25.5219 178.451 24.7211 178.21 23.9021 178.215C23.083 178.219 22.285 178.469 21.6158 178.929C20.9465 179.39 20.4381 180.039 20.1591 180.79L22.6682 182.779L19.9102 182.154C19.9086 182.777 20.0607 183.39 20.3536 183.943Z" fill="#4452FE"/>
<path d="M22.3357 176.34C23.3362 176.414 24.3287 176.119 25.1169 175.513C25.905 174.907 26.4313 174.035 26.5917 173.069C26.7521 172.104 26.5349 171.114 25.9831 170.297C25.4313 169.48 24.585 168.894 23.6117 168.656L23.6317 170.272L22.7219 168.517C21.6577 168.468 20.6174 168.834 19.8297 169.534C19.0421 170.233 18.5717 171.209 18.522 172.247C18.4723 173.285 18.8473 174.299 19.5647 175.067C20.2821 175.836 21.2829 176.294 22.3471 176.343L22.3357 176.34Z" fill="#4452FE"/>
<path d="M12.5873 170.015C13.1133 170.039 13.639 169.962 14.1345 169.788C14.6299 169.614 15.0854 169.347 15.4749 169.001C15.8643 168.655 16.1802 168.238 16.4044 167.774C16.6286 167.309 16.7567 166.806 16.7815 166.293C16.8063 165.78 16.7273 165.267 16.5489 164.784C16.3705 164.301 16.0963 163.857 15.7419 163.477C15.3875 163.097 14.9598 162.789 14.4834 162.571C14.0069 162.352 13.4909 162.227 12.9649 162.203C12.214 162.166 11.468 162.339 10.8135 162.699L11.523 164.597L10.061 163.229C9.27909 163.928 8.81302 164.9 8.76498 165.933C8.7456 166.294 8.78029 166.656 8.86798 167.007C9.06767 167.835 9.53895 168.577 10.2102 169.119C10.8815 169.662 11.7161 169.977 12.5873 170.015Z" fill="#4452FE"/>
<path opacity="0.1" d="M13.7322 158.481C14.6592 158.582 15.5604 158.863 16.4903 158.919C17.4201 158.975 18.4415 158.757 19.0308 158.054C19.3484 157.672 19.5058 157.192 19.7718 156.779C20.0267 156.394 20.3744 156.075 20.7846 155.85C21.0269 156.344 21.16 156.882 21.1753 157.429C21.1906 157.976 21.0878 158.521 20.8735 159.027C20.6592 159.533 20.3383 159.989 19.9314 160.366C19.5246 160.744 19.041 161.033 18.512 161.216C17.983 161.4 17.4204 161.472 16.8607 161.43C16.301 161.388 15.7567 161.231 15.2631 160.97C14.7696 160.709 14.3377 160.35 13.9956 159.916C13.6535 159.482 13.4088 158.983 13.2773 158.45C13.429 158.456 13.5806 158.467 13.7322 158.481Z" fill="black"/>
<path opacity="0.1" d="M12.5877 170.015C13.2802 170.049 13.97 169.907 14.5895 169.604C15.209 169.3 15.7371 168.845 16.1221 168.282C16.507 167.72 16.7357 167.07 16.7857 166.395C16.8356 165.721 16.7052 165.045 16.4071 164.435C16.0884 164.645 15.8144 164.913 15.6003 165.224C15.3142 165.646 15.1397 166.131 14.805 166.519C14.1784 167.236 13.1112 167.47 12.1414 167.426C11.1715 167.381 10.2359 167.116 9.28036 167.03C9.14589 167.03 9.01142 167.007 8.87695 167.004C9.0757 167.831 9.54547 168.573 10.2151 169.116C10.8847 169.659 11.7176 169.975 12.5877 170.015Z" fill="black"/>
<path opacity="0.1" d="M22.3363 176.34C23.0226 176.374 23.7065 176.236 24.3221 175.938C24.9377 175.64 25.4643 175.193 25.8514 174.639C26.2385 174.085 26.4729 173.444 26.5323 172.776C26.5916 172.108 26.4738 171.437 26.1901 170.827C25.8565 171.038 25.5656 171.308 25.3318 171.622C25.02 172.051 24.8254 172.545 24.4735 172.941C23.7983 173.678 22.6596 173.938 21.6325 173.912C20.6054 173.887 19.6813 173.653 18.6914 173.58C18.933 174.351 19.413 175.029 20.0655 175.523C20.718 176.017 21.5112 176.302 22.3363 176.34Z" fill="black"/>
<path opacity="0.1" d="M20.3535 183.943C20.7525 184.717 21.4043 185.34 22.2063 185.714C23.0083 186.087 23.9149 186.19 24.7833 186.006C25.6518 185.822 26.4329 185.361 27.0035 184.697C27.5741 184.032 27.9019 183.202 27.9352 182.336C27.9638 181.794 27.875 181.254 27.6748 180.748C27.344 180.959 27.0471 181.217 26.7936 181.513C26.4103 181.967 26.1614 182.481 25.7179 182.908C24.8968 183.694 23.5722 184.024 22.3934 184.049C21.7119 184.051 21.0308 184.016 20.3535 183.943Z" fill="black"/>
<path d="M30.3819 189.715C30.3819 189.715 27.2119 189.62 26.2591 188.956C25.3064 188.292 21.3954 187.5 21.1465 188.566C20.8976 189.631 16.3829 193.867 19.962 193.883C23.5412 193.9 28.2761 193.325 29.2289 192.767C30.1816 192.209 30.3819 189.715 30.3819 189.715Z" fill="#656380"/>
<path opacity="0.2" d="M19.8964 193.512C23.4756 193.54 28.2105 192.954 29.1661 192.396C29.8899 191.967 30.1789 190.418 30.2762 189.704H30.382C30.382 189.704 30.1818 192.196 29.2376 192.773C28.2935 193.351 23.5471 193.911 19.9708 193.889C18.938 193.889 18.5804 193.524 18.6004 192.991C18.7349 193.306 19.1297 193.512 19.8964 193.512Z" fill="black"/>
<path d="M301.836 193.995C300.978 192.458 301.951 190.574 303.061 189.202C304.171 187.829 305.524 186.412 305.495 184.657C305.455 182.146 302.72 180.664 300.537 179.333C298.918 178.345 297.423 177.173 296.086 175.843C295.526 175.33 295.064 174.726 294.718 174.057C294.266 173.075 294.28 171.959 294.309 170.882C294.402 167.3 294.584 163.721 294.852 160.146" stroke="#3F3D56" stroke-width="4" stroke-miterlimit="10"/>
<path d="M290.71 159.948C290.741 159.293 290.941 158.656 291.291 158.096C291.641 157.535 292.13 157.07 292.713 156.743L293.611 158.475L293.585 156.377C294.014 156.253 294.461 156.2 294.907 156.221C295.697 156.259 296.458 156.525 297.094 156.985C297.73 157.444 298.212 158.077 298.479 158.803C298.746 159.53 298.787 160.317 298.595 161.066C298.404 161.815 297.99 162.492 297.405 163.011C296.819 163.53 296.089 163.869 295.307 163.984C294.524 164.1 293.725 163.986 293.008 163.659C292.292 163.331 291.691 162.804 291.281 162.144C290.872 161.483 290.672 160.719 290.707 159.948H290.71Z" fill="#4452FE"/>
<path d="M297.871 186.454C298.27 187.228 298.922 187.851 299.724 188.225C300.526 188.598 301.433 188.701 302.301 188.517C303.169 188.333 303.95 187.872 304.521 187.208C305.092 186.543 305.42 185.713 305.453 184.847C305.481 184.306 305.393 183.765 305.192 183.259C304.905 182.511 304.389 181.868 303.714 181.415C303.039 180.962 302.239 180.721 301.42 180.726C300.601 180.73 299.803 180.98 299.133 181.44C298.464 181.901 297.956 182.55 297.677 183.301L300.186 185.29L297.428 184.665C297.426 185.288 297.578 185.901 297.871 186.454Z" fill="#4452FE"/>
<path d="M299.853 178.851C300.854 178.925 301.846 178.63 302.634 178.024C303.423 177.418 303.949 176.546 304.109 175.58C304.27 174.615 304.053 173.625 303.501 172.808C302.949 171.991 302.103 171.405 301.129 171.167L301.149 172.783L300.24 171.028C299.175 170.979 298.135 171.345 297.347 172.045C296.56 172.744 296.089 173.72 296.04 174.758C295.99 175.796 296.365 176.81 297.082 177.578C297.8 178.346 298.801 178.805 299.865 178.854L299.853 178.851Z" fill="#4452FE"/>
<path d="M290.107 172.526C291.169 172.575 292.208 172.21 292.994 171.512C293.781 170.814 294.251 169.84 294.301 168.804C294.351 167.768 293.977 166.755 293.261 165.988C292.546 165.221 291.547 164.763 290.484 164.714C289.734 164.677 288.988 164.85 288.333 165.21L289.043 167.108L287.581 165.74C286.799 166.439 286.333 167.411 286.285 168.444C286.265 168.805 286.3 169.167 286.388 169.518C286.587 170.346 287.058 171.088 287.73 171.63C288.401 172.173 289.236 172.488 290.107 172.526Z" fill="#4452FE"/>
<path opacity="0.1" d="M291.252 160.992C292.179 161.093 293.08 161.374 294.01 161.43C294.94 161.486 295.961 161.268 296.55 160.565C296.868 160.183 297.025 159.703 297.291 159.29C297.546 158.905 297.894 158.586 298.304 158.361C298.546 158.855 298.68 159.393 298.695 159.94C298.71 160.487 298.607 161.032 298.393 161.538C298.179 162.044 297.858 162.5 297.451 162.877C297.044 163.255 296.561 163.544 296.032 163.727C295.503 163.911 294.94 163.983 294.38 163.941C293.821 163.899 293.276 163.742 292.783 163.481C292.289 163.22 291.857 162.861 291.515 162.427C291.173 161.993 290.928 161.494 290.797 160.961C290.949 160.967 291.1 160.978 291.252 160.992Z" fill="black"/>
<path opacity="0.1" d="M290.107 172.526C290.8 172.56 291.489 172.418 292.109 172.115C292.729 171.811 293.257 171.356 293.642 170.793C294.027 170.231 294.255 169.581 294.305 168.906C294.355 168.232 294.225 167.556 293.927 166.946C293.608 167.156 293.334 167.424 293.12 167.735C292.834 168.157 292.659 168.642 292.325 169.03C291.698 169.747 290.631 169.981 289.661 169.937C288.691 169.892 287.755 169.627 286.8 169.54C286.665 169.54 286.531 169.518 286.396 169.515C286.595 170.342 287.065 171.084 287.735 171.627C288.404 172.17 289.237 172.486 290.107 172.526Z" fill="black"/>
<path opacity="0.1" d="M299.854 178.851C300.54 178.885 301.224 178.747 301.84 178.449C302.455 178.151 302.982 177.704 303.369 177.15C303.756 176.596 303.991 175.955 304.05 175.287C304.109 174.62 303.991 173.948 303.708 173.338C303.374 173.549 303.083 173.819 302.849 174.133C302.538 174.563 302.343 175.057 301.991 175.453C301.316 176.189 300.177 176.449 299.15 176.424C298.123 176.399 297.199 176.164 296.209 176.092C296.451 176.862 296.931 177.541 297.583 178.035C298.236 178.529 299.029 178.814 299.854 178.851Z" fill="black"/>
<path opacity="0.1" d="M297.871 186.454C298.27 187.228 298.922 187.851 299.724 188.225C300.526 188.598 301.432 188.701 302.301 188.517C303.169 188.333 303.95 187.872 304.521 187.208C305.092 186.543 305.419 185.713 305.453 184.847C305.481 184.305 305.393 183.764 305.192 183.259C304.862 183.47 304.565 183.728 304.311 184.023C303.928 184.478 303.679 184.992 303.235 185.419C302.414 186.205 301.09 186.535 299.911 186.56C299.23 186.562 298.548 186.527 297.871 186.454Z" fill="black"/>
<path d="M307.899 192.226C307.899 192.226 304.729 192.131 303.777 191.467C302.824 190.803 298.913 190.011 298.664 191.077C298.415 192.142 293.901 196.378 297.48 196.394C301.059 196.411 305.794 195.836 306.746 195.278C307.699 194.72 307.899 192.226 307.899 192.226Z" fill="#656380"/>
<path opacity="0.2" d="M297.414 196.023C300.993 196.051 305.728 195.465 306.684 194.907C307.408 194.478 307.696 192.929 307.794 192.215H307.9C307.9 192.215 307.699 194.707 306.755 195.284C305.811 195.862 301.065 196.422 297.488 196.4C296.456 196.4 296.098 196.035 296.118 195.502C296.252 195.817 296.647 196.023 297.414 196.023Z" fill="black"/>
<path d="M213.307 92.3913C211.415 91.7589 209.508 91.173 207.585 90.6336C207.902 89.3707 208.197 88.1012 208.469 86.8252C212.801 66.3159 209.969 49.7934 200.295 44.3557C191.02 39.1384 175.851 44.5789 160.527 57.5775C159.017 58.8647 157.541 60.1853 156.101 61.5394C155.134 60.6373 154.152 59.7528 153.155 58.8861C137.101 44.9834 121.02 39.1272 111.344 44.5817C102.077 49.8129 99.3275 65.3449 103.233 84.7829C103.614 86.7081 104.052 88.622 104.546 90.5248C102.271 91.1553 100.071 91.8277 97.9657 92.5448C79.1431 98.9311 67.1211 108.975 67.1211 119.379C67.1211 130.123 80.0271 140.901 99.6336 147.435C101.224 147.962 102.827 148.451 104.44 148.903C103.918 150.949 103.452 153.012 103.044 155.091C99.3246 174.192 102.231 189.358 111.472 194.556C121.02 199.929 137.041 194.405 152.64 181.108C153.873 180.056 155.109 178.94 156.359 177.774C157.919 179.242 159.52 180.666 161.163 182.048C176.274 194.729 191.203 199.851 200.433 194.637C209.969 189.255 213.067 172.961 209.044 153.141C208.739 151.627 208.384 150.082 207.977 148.507C209.104 148.183 210.207 147.847 211.285 147.5C231.666 140.915 244.93 130.268 244.93 119.379C244.93 108.936 232.519 98.839 213.316 92.3913H213.307Z" fill="#4452FE"/>
<path d="M208.889 140.469C207.916 140.784 206.92 141.085 205.902 141.381C203.417 133.868 200.409 126.529 196.898 119.415C200.275 112.397 203.166 105.165 205.553 97.7703C207.37 98.2837 209.138 98.825 210.837 99.3969C227.291 104.918 237.327 113.085 237.327 119.379C237.327 126.075 226.487 134.783 208.889 140.469ZM201.587 154.581C203.367 163.344 203.619 171.268 202.446 177.459C201.387 183.025 199.259 186.735 196.626 188.222C191.022 191.384 179.04 187.274 166.117 176.429C164.635 175.185 163.144 173.86 161.645 172.453C167.033 166.636 172.012 160.471 176.548 154C184.651 153.331 192.697 152.119 200.629 150.373C200.991 151.802 201.313 153.197 201.593 154.558L201.587 154.581ZM127.739 187.681C122.263 189.567 117.903 189.62 115.268 188.139C109.66 184.983 107.329 172.794 110.51 156.472C110.891 154.543 111.323 152.625 111.806 150.716C119.706 152.37 127.711 153.501 135.767 154.101C140.436 160.549 145.535 166.691 151.031 172.487C149.926 173.53 148.797 174.545 147.643 175.531C140.745 181.412 133.83 185.575 127.739 187.681ZM102.093 140.427C93.4212 137.536 86.2629 133.781 81.3534 129.685C76.9446 126.002 74.7188 122.345 74.7188 119.379C74.7188 113.065 84.3718 105.01 100.468 99.5392C102.49 98.8528 104.53 98.227 106.588 97.6615C108.978 105.138 111.873 112.453 115.254 119.558C111.831 126.764 108.901 134.183 106.482 141.766C105.005 141.355 103.542 140.909 102.093 140.427ZM110.69 83.3599C107.349 66.7063 109.566 54.1429 115.151 50.9958C121.099 47.6478 134.251 52.4243 148.115 64.4297C149.002 65.1969 149.892 66.0005 150.782 66.8291C145.325 72.5894 140.266 78.6962 135.638 85.1093C127.658 85.8071 119.733 87.0084 111.912 88.7056C111.456 86.9349 111.049 85.1539 110.69 83.3627V83.3599ZM187.397 101.827C185.659 98.8993 183.858 96.0089 181.992 93.1556C187.666 93.8559 193.099 94.7822 198.203 95.9205C196.565 100.987 194.666 105.97 192.512 110.85C190.87 107.809 189.165 104.801 187.397 101.827ZM156.109 72.1218C159.806 76.0529 163.298 80.1631 166.572 84.4369C159.57 84.1151 152.565 84.1151 145.557 84.4369C149.011 79.9952 152.55 75.866 156.109 72.1245V72.1218ZM124.638 101.877C122.892 104.829 121.219 107.818 119.617 110.844C117.405 105.73 115.514 100.7 113.969 95.8424C119.042 94.7264 124.452 93.8308 130.088 93.1417C128.196 96.0135 126.377 98.9254 124.632 101.877H124.638ZM130.248 146.141C124.747 145.558 119.28 144.701 113.869 143.571C115.44 138.63 117.374 133.491 119.634 128.265C121.242 131.295 122.921 134.286 124.672 137.238C126.453 140.249 128.31 143.217 130.242 146.141H130.248ZM156.323 167.158C152.718 163.38 149.128 159.195 145.626 154.673C149.031 154.805 152.498 154.871 156.029 154.871C159.653 154.871 163.23 154.793 166.76 154.636C163.501 158.982 160.016 163.161 156.318 167.158H156.323ZM192.57 128C194.834 132.979 196.832 138.069 198.555 143.25C193.077 144.452 187.538 145.373 181.961 146.01C183.84 143.102 185.659 140.161 187.42 137.185C189.209 134.16 190.925 131.099 192.57 128ZM180.839 133.485C178.146 138.046 175.303 142.519 172.311 146.905C167.035 147.273 161.585 147.463 156.029 147.463C150.473 147.463 145.114 147.296 139.93 146.967C136.861 142.596 133.963 138.116 131.235 133.527C128.508 128.938 125.979 124.281 123.651 119.555C125.991 114.806 128.511 110.147 131.212 105.577C133.909 101.009 136.783 96.5446 139.832 92.1847C145.123 91.7941 150.541 91.5905 156.023 91.5905C161.505 91.5905 166.958 91.7969 172.242 92.1875C175.258 96.5343 178.119 100.981 180.825 105.527C183.532 110.072 186.086 114.71 188.49 119.44C186.115 124.206 183.568 128.884 180.848 133.474L180.839 133.485ZM196.509 50.7726C202.463 54.1206 204.777 67.6243 201.038 85.3325C200.792 86.4838 200.525 87.6324 200.237 88.7781C192.405 87.0466 184.463 85.8228 176.465 85.1148C171.881 78.696 166.861 72.5851 161.436 66.8235C162.771 65.5699 164.134 64.3506 165.524 63.1658C178.651 52.0253 190.919 47.6283 196.509 50.7726Z" fill="white"/>
<path d="M156.023 103.895C159.164 103.895 162.234 104.803 164.845 106.504C167.456 108.206 169.491 110.624 170.693 113.453C171.895 116.283 172.209 119.396 171.597 122.4C170.984 125.404 169.472 128.163 167.251 130.328C165.03 132.494 162.201 133.969 159.121 134.566C156.041 135.164 152.848 134.857 149.947 133.685C147.045 132.513 144.565 130.528 142.821 127.982C141.076 125.435 140.145 122.442 140.145 119.379C140.144 117.346 140.555 115.332 141.352 113.453C142.15 111.574 143.32 109.867 144.794 108.429C146.269 106.991 148.02 105.851 149.946 105.072C151.873 104.294 153.938 103.894 156.023 103.895Z" fill="#4452FE"/>
<path d="M160.004 5.69153C160.004 6.60754 159.726 7.50297 159.204 8.26461C158.682 9.02624 157.94 9.61986 157.073 9.9704C156.205 10.3209 155.25 10.4127 154.329 10.234C153.407 10.0553 152.561 9.61415 151.897 8.96644C151.233 8.31872 150.78 7.49348 150.597 6.59508C150.414 5.69667 150.508 4.76545 150.867 3.91916C151.227 3.07288 151.836 2.34955 152.617 1.84065C153.398 1.33174 154.316 1.06011 155.255 1.06011C155.88 1.05716 156.499 1.17493 157.076 1.40664C157.654 1.63834 158.179 1.97938 158.62 2.41003C159.062 2.84069 159.411 3.35243 159.649 3.91567C159.887 4.47892 160.007 5.0825 160.004 5.69153Z" fill="#3F3D56"/>
<path d="M151.461 6.861C151.085 6.19758 150.881 5.45425 150.867 4.69614C150.854 3.93802 151.031 3.18826 151.384 2.51252C151.737 1.83678 152.254 1.25569 152.89 0.820155C153.527 0.384618 154.263 0.107924 155.035 0.0143122C154.38 -0.00803338 153.728 0.101791 153.12 0.33689C152.511 0.571989 151.959 0.927283 151.497 1.38046C151.036 1.83364 150.676 2.37491 150.44 2.97029C150.203 3.56567 150.096 4.20229 150.123 4.84018C150.151 5.47807 150.314 6.10345 150.602 6.67704C150.889 7.25063 151.295 7.76004 151.794 8.1733C152.294 8.58655 152.875 8.89471 153.502 9.07843C154.129 9.26214 154.788 9.31745 155.438 9.24088C154.621 9.21146 153.826 8.97694 153.129 8.56002C152.433 8.1431 151.858 7.55788 151.461 6.861Z" fill="#3F3D56"/>
<path d="M162.041 12.1421H149.318V31.4964H162.041V12.1421Z" fill="#3F3D56"/>
<path opacity="0.1" d="M162.041 12.1421H149.318V31.4964H162.041V12.1421Z" fill="black"/>
<path d="M129.22 82.3611C129.22 82.3611 127.861 86.002 124.642 86.4987C121.424 86.9953 119.553 87.8211 119.553 87.8211L127.186 92.6172L131.257 92.1205C131.257 92.1205 131.766 86.9925 133.463 85.8346C135.16 84.6768 129.22 82.3611 129.22 82.3611Z" fill="#A0616A"/>
<path d="M184.347 82.3611C184.347 82.3611 185.706 86.002 188.924 86.4987C192.143 86.9953 194.014 87.8211 194.014 87.8211L186.381 92.6172L182.309 92.1205C182.309 92.1205 181.8 86.9925 180.104 85.8346C178.407 84.6768 184.347 82.3611 184.347 82.3611Z" fill="#A0616A"/>
<path d="M147.199 50.2705C147.199 50.2705 145.165 51.2637 144.487 53.2502C144.487 53.2502 140.767 54.4081 138.719 57.5496C138.719 57.5496 136.173 60.1974 135.835 61.5198C135.498 62.8423 131.607 70.7827 131.607 70.7827C131.607 70.7827 127.704 83.1898 125.67 84.5123C125.67 84.5123 132.116 83.1898 133.303 89.4757C133.303 89.4757 134.828 89.4757 136.525 83.6864C138.221 77.8972 142.292 70.7827 142.292 70.7827C142.292 70.7827 143.649 65.822 144.836 64.9934C146.023 64.1648 147.889 60.362 149.585 61.3664C151.282 62.3708 162.477 61.199 162.477 61.199C162.477 61.199 169.086 64.1675 169.252 66.1512C169.418 68.1349 170.608 68.3023 170.777 69.9568C170.945 71.6113 177.222 84.6769 177.222 84.6769C177.222 84.6769 178.41 88.3039 178.75 89.1409C178.75 89.1409 182.47 80.3747 187.402 85.3381C187.402 85.3381 187.23 82.0292 185.705 80.0371C184.18 78.0451 177.563 62.5047 177.563 62.5047C177.563 62.5047 176.885 60.189 176.207 59.5278C175.529 58.8665 170.267 53.5711 168.402 53.5711C168.402 53.5711 167.386 51.0908 166.199 50.7588L147.199 50.2705Z" fill="#3F3D56"/>
<path d="M131.932 90.9627C130.608 91.4814 129.168 91.6566 127.753 91.4713C126.338 91.286 124.996 90.7465 123.859 89.9053C122.753 89.0775 121.543 88.3929 120.257 87.8686C118.457 87.1599 116.306 86.6354 115.65 87.8212C114.463 89.9723 130.067 95.2649 130.067 95.2649C130.067 95.2649 132.104 94.107 131.932 90.9627Z" fill="#3F3D56"/>
<path d="M181.633 90.9627C182.958 91.4814 184.398 91.6566 185.813 91.4713C187.228 91.286 188.57 90.7465 189.707 89.9053C190.812 89.0775 192.023 88.3929 193.309 87.8686C195.109 87.1599 197.26 86.6354 197.915 87.8212C199.103 89.9723 183.499 95.2649 183.499 95.2649C183.499 95.2649 181.462 94.107 181.633 90.9627Z" fill="#3F3D56"/>
<path d="M152.744 23.0649C152.681 23.6397 152.486 24.2618 151.983 24.5659C151.571 24.817 151.05 24.7975 150.575 24.8924C150.076 25.0141 149.614 25.2485 149.225 25.5766C148.837 25.9047 148.533 26.3174 148.338 26.7812C147.957 27.7173 147.882 28.7454 148.123 29.7247C148.235 30.2042 148.381 30.6759 148.558 31.1364C149.056 32.5091 149.657 33.8706 150.586 35.0117C151.38 35.9189 152.272 36.7393 153.247 37.4586C153.851 37.9385 154.475 38.4267 155.218 38.6527C155.723 38.7825 156.242 38.85 156.763 38.8536C157.407 38.8815 158.094 38.901 158.652 38.5885C159.51 38.1059 159.764 37.0401 160.231 36.1835C160.626 35.4581 161.215 34.8415 161.584 34.1022C161.846 33.5195 162.038 32.909 162.156 32.2831L162.949 28.8514C163.235 27.6043 163.498 26.1981 162.78 25.1295C162.728 25.0426 162.655 24.969 162.568 24.9147C162.43 24.8616 162.28 24.8471 162.133 24.8728C161.221 24.9307 160.312 24.728 159.516 24.2897C159.391 24.2268 159.279 24.1416 159.187 24.0386C159.072 23.8599 159.004 23.6571 158.986 23.4471C158.909 23.022 158.786 22.6059 158.62 22.2056C158.573 22.0613 158.487 21.9321 158.371 21.8317C158.249 21.7573 158.111 21.7123 157.968 21.7006C156.743 21.5068 155.508 21.3811 154.269 21.3239C153.862 21.3044 153.25 21.1454 152.97 21.4969C152.689 21.8485 152.778 22.6464 152.744 23.0649Z" fill="#A0616A"/>
<path opacity="0.1" d="M152.744 23.0649C152.681 23.6397 152.486 24.2618 151.983 24.5659C151.571 24.817 151.05 24.7975 150.575 24.8924C150.076 25.0141 149.614 25.2485 149.225 25.5766C148.837 25.9047 148.533 26.3174 148.338 26.7812C147.957 27.7173 147.882 28.7454 148.123 29.7247C148.235 30.2042 148.381 30.6759 148.558 31.1364C149.056 32.5091 149.657 33.8706 150.586 35.0117C151.38 35.9189 152.272 36.7393 153.247 37.4586C153.851 37.9385 154.475 38.4267 155.218 38.6527C155.723 38.7825 156.242 38.85 156.763 38.8536C157.407 38.8815 158.094 38.901 158.652 38.5885C159.51 38.1059 159.764 37.0401 160.231 36.1835C160.626 35.4581 161.215 34.8415 161.584 34.1022C161.846 33.5195 162.038 32.909 162.156 32.2831L162.949 28.8514C163.235 27.6043 163.498 26.1981 162.78 25.1295C162.728 25.0426 162.655 24.969 162.568 24.9147C162.43 24.8616 162.28 24.8471 162.133 24.8728C161.221 24.9307 160.312 24.728 159.516 24.2897C159.391 24.2268 159.279 24.1416 159.187 24.0386C159.072 23.8599 159.004 23.6571 158.986 23.4471C158.909 23.022 158.786 22.6059 158.62 22.2056C158.573 22.0613 158.487 21.9321 158.371 21.8317C158.249 21.7573 158.111 21.7123 157.968 21.7006C156.743 21.5068 155.508 21.3811 154.269 21.3239C153.862 21.3044 153.25 21.1454 152.97 21.4969C152.689 21.8485 152.778 22.6464 152.744 23.0649Z" fill="black"/>
<path d="M150.447 25.0377C149.784 24.8447 149.098 24.7396 148.407 24.7252C146.771 24.6861 145.02 25.2358 144.075 26.5387C143.432 27.4792 143.197 28.6296 143.42 29.7388C143.648 30.8377 144.16 31.8615 144.908 32.713C145.34 33.1606 145.724 33.6505 146.052 34.175C146.504 35.012 146.519 36.0136 146.642 36.965C146.928 39.2305 147.918 41.3592 148.31 43.6108C148.702 45.8623 148.364 48.471 146.542 49.9022C146.236 50.1422 145.864 50.3961 145.838 50.7783C145.798 51.3893 146.613 51.6488 147.24 51.7074C149.114 51.8804 151.036 52.0505 152.856 51.579C153.608 51.3837 154.335 51.0796 155.102 50.9401C157.047 50.5858 159.004 51.314 160.953 51.6627C162.363 51.8897 163.789 52.0026 165.218 52.0003C165.551 52.0293 165.886 51.9865 166.2 51.8748C166.355 51.8153 166.487 51.7092 166.577 51.5718C166.666 51.4344 166.708 51.2728 166.697 51.1103C166.634 50.9 166.518 50.7083 166.36 50.5523C165.376 49.3666 165.075 47.7902 164.806 46.2864L163.905 41.2337C163.422 38.5329 162.972 35.5979 164.283 33.1733C165.224 31.4296 166.961 30.202 167.953 28.4861C168.3 27.9675 168.456 27.3501 168.397 26.734C168.248 25.8719 167.45 25.2553 166.632 24.8954C165.057 24.2066 163.27 24.1426 161.648 24.7168C161.676 25.9249 161.362 27.1469 161.159 28.3438L160.812 30.2968C160.636 31.4478 160.377 32.5852 160.037 33.7007C159.914 34.1469 159.703 34.5656 159.416 34.9338C159.111 35.2651 158.737 35.5303 158.32 35.7123C157.417 36.1428 156.425 36.3643 155.419 36.3595C154.984 36.3661 154.551 36.301 154.138 36.167C153.472 35.8825 152.872 35.4708 152.372 34.9562C152.197 34.8102 152.041 34.6445 151.906 34.4623C151.764 34.2305 151.657 33.9795 151.588 33.7174C151.357 33.035 151.174 32.3376 151.042 31.6305C150.956 31.0892 150.928 30.5396 150.888 29.9927C150.776 28.3773 150.776 26.5917 150.447 25.0377Z" fill="#4452FE"/>
<path d="M148.727 57.053C148.727 57.053 148.049 65.822 152.289 67.309C156.529 68.7961 152.799 60.0299 152.799 60.0299L151.44 57.385L148.727 57.053Z" fill="#A0616A"/>
<path d="M163.143 57.053C163.143 57.053 163.821 65.822 159.581 67.309C155.341 68.7961 159.072 60.0299 159.072 60.0299L160.431 57.385L163.143 57.053Z" fill="#A0616A"/>
<path opacity="0.1" d="M144.993 27.7858L143.637 29.9369C143.637 29.9369 144.824 37.3807 144.993 38.7031C145.139 39.6574 145.367 40.5981 145.674 41.5155C145.674 41.5155 145.843 45.4856 145.843 46.9755C145.843 48.4654 146.701 50.9457 146.701 50.9457C146.821 52.3519 147.109 53.7396 147.559 55.0805C148.237 56.8996 148.915 59.0507 148.915 59.0507C148.915 59.0507 149.774 56.735 153.155 60.2085C153.534 59.8337 153.746 59.3286 153.746 58.8024C153.746 58.2761 153.534 57.771 153.155 57.3962C153.155 57.3962 152.14 52.9322 152.14 50.6137C152.14 48.2952 150.271 37.2216 150.271 37.2216C150.271 37.2216 149.058 24.6331 144.993 27.7858Z" fill="black"/>
<path d="M144.655 27.61L143.299 29.7611C143.299 29.7611 144.486 37.2049 144.655 38.5273C144.802 39.4818 145.031 40.4225 145.339 41.3397C145.339 41.3397 145.508 45.3099 145.508 46.7969C145.508 48.284 146.366 50.7671 146.366 50.7671C146.485 52.1734 146.773 53.5612 147.224 54.9019C147.902 56.7238 148.583 58.8721 148.583 58.8721C148.583 58.8721 149.441 56.5564 152.823 60.03C153.201 59.6553 153.413 59.1507 153.413 58.6252C153.413 58.0996 153.201 57.5951 152.823 57.2204C152.823 57.2204 151.805 52.7564 151.805 50.4379C151.805 48.1194 149.939 37.0458 149.939 37.0458C149.939 37.0458 148.726 24.4657 144.655 27.61Z" fill="#4452FE"/>
<path opacity="0.1" d="M167.046 26.4521L167.904 27.4369C167.904 27.4369 168.902 33.0672 166.697 40.1817L166.019 46.6322C166.019 46.6322 164.831 52.0923 164.662 53.4147C164.494 54.7372 164.494 54.9018 164.153 55.3984C164.05 55.5146 163.993 55.6632 163.993 55.8169C163.993 55.9707 164.05 56.1193 164.153 56.2354L163.135 59.8624C163.135 59.8624 161.61 58.0434 158.557 60.3591C158.557 60.3591 157.699 59.0366 158.385 57.8787C159.072 56.7209 159.063 56.2243 158.895 55.8923C158.726 55.5602 159.573 53.9086 159.573 53.5766C159.573 53.2445 160.769 45.6418 160.769 45.6418C160.769 45.6418 161.278 38.198 161.787 35.7177C162.099 34.1916 162.093 30.7905 162.039 28.3967C161.985 25.9024 165.08 24.5521 166.903 26.3042C166.945 26.3488 166.997 26.3907 167.046 26.4521Z" fill="black"/>
<path d="M167.555 26.1118L168.413 27.0966C168.413 27.0966 169.411 32.7297 167.206 39.8414L166.527 46.2919C166.527 46.2919 165.34 51.752 165.171 53.0744C165.003 54.3969 165 54.5643 164.662 55.0609C164.558 55.1768 164.501 55.3255 164.501 55.4794C164.501 55.6333 164.558 55.782 164.662 55.8979L163.649 59.5361C163.649 59.5361 162.124 57.7142 159.072 60.0299C159.072 60.0299 158.213 58.7075 158.903 57.5496C159.592 56.3918 159.581 55.8951 159.412 55.5659C159.243 55.2367 160.09 53.5794 160.09 53.2502C160.09 52.921 161.277 45.3098 161.277 45.3098C161.277 45.3098 161.787 37.8661 162.296 35.383C162.805 32.8999 162.465 25.4589 162.465 25.4589C162.465 25.4589 165.18 23.6398 167.555 26.1118Z" fill="#4452FE"/>
<path d="M156.189 23.8071C159.937 23.8071 162.975 20.8442 162.975 17.1892C162.975 13.5342 159.937 10.5713 156.189 10.5713C152.441 10.5713 149.402 13.5342 149.402 17.1892C149.402 20.8442 152.441 23.8071 156.189 23.8071Z" fill="#A0616A"/>
<path opacity="0.1" d="M159.727 7.25397C159.401 8.14197 158.804 8.91165 158.017 9.46008C157.23 10.0085 156.29 10.3095 155.323 10.3229C154.356 10.3362 153.408 10.0613 152.605 9.53477C151.802 9.00828 151.184 8.25537 150.832 7.37673C153.481 6.33606 156.188 7.26234 156.188 7.26234C157.541 6.7992 158.714 6.84105 159.727 7.25397Z" fill="black"/>
<path d="M156.188 7.59448C156.188 7.59448 143.127 3.13046 146.352 24.7977C146.352 24.7977 149.236 26.6168 151.439 25.4589C151.439 25.4589 149.914 10.4068 155.85 11.068C161.787 11.7293 160.768 25.1297 160.768 25.1297C160.768 25.1297 164.162 26.1202 165.18 24.2927C166.199 22.4652 164.84 4.6287 156.188 7.59448Z" fill="#3F3D56"/>
<path opacity="0.1" d="M155.851 10.0747C151.777 9.62274 151.216 16.5671 151.273 20.9697C151.322 16.5922 152.077 10.6467 155.851 11.068C160.088 11.5395 160.783 18.5061 160.832 22.4512C160.881 18.8298 160.474 10.5909 155.851 10.0747Z" fill="black"/>
<path opacity="0.1" d="M146.353 23.8043C146.058 21.9077 145.888 19.9944 145.847 18.0764C145.832 20.3263 146.002 22.5738 146.353 24.7975C146.353 24.7975 149.237 26.6166 151.44 25.4588C151.44 25.4588 151.405 25.1017 151.365 24.5018C149.171 25.5815 146.353 23.8043 146.353 23.8043Z" fill="black"/>
<path opacity="0.1" d="M165.181 23.3217C164.231 25.0181 161.224 24.2731 160.818 24.1587C160.798 24.7725 160.77 25.1408 160.77 25.1408C160.77 25.1408 164.163 26.1313 165.181 24.3038C165.39 23.93 165.499 22.8725 165.467 21.458C165.439 22.3648 165.339 23.0427 165.181 23.3217Z" fill="black"/>
<path d="M236.528 187.757C237.884 185.307 236.345 182.305 234.576 180.12C232.808 177.936 230.648 175.656 230.694 172.866C230.76 168.863 235.114 166.502 238.596 164.379C241.177 162.805 243.558 160.939 245.689 158.819C246.547 157.968 247.368 157.058 247.869 155.97C248.59 154.408 248.57 152.622 248.524 150.914C248.373 145.202 248.087 139.498 247.666 133.801" stroke="#3F3D56" stroke-width="4" stroke-miterlimit="10"/>
<path d="M254.269 133.499C254.22 132.454 253.902 131.438 253.344 130.545C252.786 129.651 252.006 128.91 251.076 128.388L249.645 131.15L249.688 127.802C248.387 127.427 246.997 127.464 245.719 127.91C244.441 128.355 243.342 129.185 242.579 130.279C241.816 131.374 241.43 132.677 241.476 133.999C241.523 135.322 241.999 136.596 242.836 137.637C243.673 138.679 244.828 139.434 246.134 139.793C247.44 140.153 248.83 140.098 250.102 139.637C251.374 139.177 252.463 138.333 253.211 137.229C253.96 136.126 254.329 134.818 254.266 133.496L254.269 133.499Z" fill="#4452FE"/>
<path d="M242.86 175.737C242.189 177.01 241.089 178.019 239.745 178.595C238.402 179.171 236.896 179.279 235.48 178.901C234.064 178.523 232.825 177.681 231.97 176.518C231.116 175.354 230.697 173.939 230.785 172.511C230.873 171.082 231.462 169.726 232.453 168.67C233.445 167.615 234.778 166.924 236.23 166.714C237.682 166.503 239.164 166.786 240.427 167.514C241.69 168.243 242.658 169.373 243.169 170.715L239.163 173.887L243.561 172.891C243.563 173.881 243.323 174.857 242.86 175.737Z" fill="#4452FE"/>
<path d="M239.698 163.62C238.133 163.685 236.597 163.187 235.383 162.221C234.168 161.256 233.359 159.889 233.109 158.38C232.859 156.872 233.185 155.326 234.026 154.037C234.867 152.747 236.163 151.803 237.67 151.383L237.636 153.956L239.083 151.166H239.1C239.944 151.121 240.787 151.24 241.583 151.515C242.379 151.79 243.111 152.216 243.738 152.768C244.364 153.32 244.872 153.988 245.233 154.732C245.593 155.477 245.799 156.284 245.839 157.106C245.878 157.929 245.75 158.751 245.462 159.525C245.175 160.299 244.733 161.01 244.162 161.617C243.591 162.223 242.903 162.714 242.137 163.06C241.371 163.407 240.542 163.602 239.698 163.634V163.62Z" fill="#4452FE"/>
<path d="M255.235 153.54C254.245 153.585 253.258 153.406 252.351 153.015C251.445 152.625 250.643 152.035 250.011 151.292C249.378 150.548 248.931 149.671 248.704 148.731C248.478 147.79 248.479 146.811 248.707 145.87C248.934 144.93 249.383 144.054 250.017 143.311C250.651 142.569 251.454 141.98 252.361 141.591C253.268 141.203 254.255 141.025 255.245 141.072C256.235 141.118 257.2 141.388 258.064 141.861L256.92 144.882L259.246 142.706C260.177 143.539 260.834 144.623 261.135 145.819C261.436 147.016 261.367 148.273 260.937 149.432C260.506 150.59 259.733 151.599 258.716 152.33C257.699 153.061 256.483 153.482 255.22 153.54H255.235Z" fill="#4452FE"/>
<path opacity="0.1" d="M253.41 135.162C251.931 135.321 250.495 135.77 249.013 135.86C247.531 135.949 245.903 135.603 244.967 134.465C244.461 133.859 244.209 133.095 243.783 132.434C243.378 131.82 242.825 131.312 242.172 130.955C241.759 131.746 241.525 132.614 241.483 133.501C241.442 134.387 241.595 135.273 241.932 136.097C242.269 136.922 242.783 137.666 243.439 138.282C244.095 138.897 244.878 139.369 245.736 139.666C246.594 139.963 247.507 140.078 248.414 140.004C249.321 139.929 250.201 139.667 250.996 139.234C251.791 138.802 252.482 138.209 253.023 137.495C253.564 136.781 253.943 135.963 254.134 135.095C253.891 135.12 253.65 135.137 253.41 135.162Z" fill="black"/>
<path opacity="0.1" d="M255.234 153.54C254.131 153.589 253.034 153.36 252.049 152.874C251.064 152.387 250.224 151.661 249.612 150.766C248.999 149.87 248.634 148.835 248.553 147.761C248.471 146.687 248.676 145.611 249.146 144.637C249.656 144.97 250.093 145.398 250.434 145.895C250.889 146.565 251.166 147.34 251.701 147.957C252.697 149.098 254.402 149.472 255.947 149.405C257.492 149.338 258.98 148.908 260.524 148.769C260.739 148.752 260.954 148.738 261.171 148.733C260.853 150.055 260.101 151.239 259.029 152.107C257.958 152.974 256.626 153.478 255.234 153.54Z" fill="black"/>
<path opacity="0.1" d="M239.699 163.62C238.607 163.67 237.52 163.446 236.542 162.97C235.564 162.494 234.727 161.782 234.111 160.901C233.496 160.02 233.122 159 233.025 157.938C232.928 156.876 233.112 155.807 233.559 154.834C234.087 155.172 234.546 155.603 234.912 156.104C235.41 156.787 235.719 157.574 236.303 158.208C237.381 159.379 239.195 159.792 240.832 159.753C242.417 159.72 243.942 159.34 245.518 159.223C245.131 160.451 244.364 161.533 243.322 162.32C242.281 163.107 241.015 163.561 239.699 163.62Z" fill="black"/>
<path opacity="0.1" d="M242.861 175.737C242.119 177.171 240.839 178.271 239.287 178.809C237.735 179.346 236.03 179.279 234.527 178.622C233.024 177.964 231.839 176.767 231.218 175.28C230.597 173.792 230.589 172.128 231.194 170.634C231.721 170.972 232.195 171.383 232.598 171.856C233.208 172.579 233.608 173.399 234.315 174.072C235.622 175.324 237.734 175.84 239.614 175.888C240.698 175.9 241.782 175.849 242.861 175.737Z" fill="black"/>
<path d="M226.879 184.936C226.879 184.936 231.929 184.785 233.459 183.728C234.99 182.67 241.23 181.409 241.607 183.103C241.985 184.796 249.198 191.534 243.496 191.579C237.794 191.623 230.246 190.714 228.727 189.81C227.208 188.906 226.879 184.936 226.879 184.936Z" fill="#656380"/>
<path opacity="0.2" d="M243.587 191.001C237.885 191.046 230.338 190.134 228.819 189.232C227.674 188.543 227.202 186.08 227.048 184.941H226.879C226.879 184.941 227.199 188.914 228.719 189.816C230.238 190.717 237.785 191.629 243.487 191.584C245.132 191.584 245.702 191.001 245.67 190.156C245.441 190.661 244.815 190.979 243.587 191.001Z" fill="black"/>
<path d="M92.411 11.958L87.1896 15.186L90.3596 9.56413C89.4651 8.86664 88.3577 8.47983 87.2125 8.46487H87.1267C86.7645 8.46981 86.4027 8.44367 86.0452 8.38675L84.2743 9.48043L85.0324 8.13565C83.7792 7.7086 82.696 6.90707 81.9368 5.84505L78.7697 7.79806L80.7724 4.24916C78.9184 2.08132 76.4236 0.750488 73.6742 0.750488C70.3812 0.750488 67.4486 2.66165 65.5547 5.63859C64.9945 6.52869 64.2031 7.25862 63.2605 7.75445C62.318 8.25028 61.2578 8.4944 60.1874 8.46208H60.01C56.3737 8.46208 53.4297 12.4825 53.4297 17.4431C53.4297 22.4038 56.3765 26.4214 60.01 26.4214C60.8081 26.4191 61.5936 26.2276 62.2988 25.8634C64.6706 24.6609 67.7834 24.6386 70.2667 25.7127C71.3314 26.1797 72.4852 26.4224 73.6527 26.4248C74.8201 26.4272 75.9749 26.1893 77.0416 25.7267C79.5078 24.6748 82.5834 24.6972 84.9409 25.8773C85.6403 26.2382 86.4184 26.4296 87.2097 26.4353C90.846 26.4353 93.79 22.4149 93.79 17.4571C93.8118 15.5401 93.3375 13.6488 92.411 11.958Z" fill="#F2F2F2"/>
<path opacity="0.03" d="M82.5668 25.0962C80.6672 24.7439 78.7029 24.9518 76.9249 25.6932C75.8586 26.1554 74.7043 26.3931 73.5374 26.3907C72.3705 26.3883 71.2172 26.1459 70.1529 25.6793C67.6667 24.6051 64.5539 24.6274 62.1821 25.8299C61.4769 26.1942 60.6914 26.3857 59.8933 26.3879C56.6633 26.3879 53.9768 23.2129 53.416 19.0279C54.0613 18.5695 54.6093 17.9934 55.0296 17.3316C56.9351 14.3574 59.8561 12.4407 63.1492 12.4407C66.4422 12.4407 69.3404 14.3295 71.2344 17.273C71.7996 18.1623 72.5906 18.8943 73.5308 19.3983C74.4711 19.9022 75.5288 20.1609 76.6016 20.1495H76.676C79.2509 20.1523 81.4825 22.1639 82.5668 25.0962Z" fill="black"/>
<path d="M228.9 18.5312L226.305 20.141L227.888 17.351C227.441 16.9986 226.886 16.8022 226.311 16.793H226.271C226.09 16.7955 225.909 16.7824 225.73 16.7539L224.846 17.3119L225.218 16.6256C224.593 16.4132 224.052 16.0139 223.673 15.4845L222.094 16.461L223.092 14.6921C222.672 14.1633 222.137 13.7323 221.525 13.4302C220.912 13.1281 220.239 12.9626 219.553 12.9456C217.908 12.9456 216.446 13.8997 215.502 15.384C215.222 15.8261 214.826 16.188 214.356 16.433C213.885 16.678 213.357 16.7974 212.824 16.779H212.736C210.922 16.779 209.451 18.7851 209.451 21.243C209.451 23.701 210.922 25.721 212.736 25.721C213.135 25.7197 213.527 25.6239 213.88 25.442C214.497 25.1495 215.172 24.9913 215.858 24.9783C216.545 24.9653 217.225 25.0978 217.854 25.3667C218.386 25.5975 218.961 25.7168 219.543 25.7168C220.125 25.7168 220.701 25.5975 221.233 25.3667C221.857 25.1032 222.531 24.9736 223.211 24.9866C223.891 24.9996 224.56 25.1549 225.172 25.442C225.525 25.624 225.918 25.7198 226.317 25.721C228.131 25.721 229.601 23.7178 229.601 21.243C229.604 20.2961 229.363 19.3637 228.9 18.5312Z" fill="#F2F2F2"/>
<path opacity="0.03" d="M223.995 25.0851C223.048 24.9106 222.069 25.0145 221.182 25.3836C220.65 25.6144 220.075 25.7337 219.493 25.7337C218.911 25.7337 218.335 25.6144 217.803 25.3836C217.174 25.1147 216.493 24.9822 215.806 24.9952C215.12 25.0082 214.444 25.1664 213.827 25.4589C213.474 25.6416 213.081 25.7374 212.682 25.7379C211.069 25.7379 209.73 24.156 209.449 22.0691C209.77 21.8424 210.044 21.5584 210.256 21.2321C211.2 19.7478 212.665 18.7964 214.307 18.7964C215.949 18.7964 217.394 19.7366 218.338 21.2042C218.62 21.6481 219.015 22.0134 219.484 22.2647C219.953 22.516 220.481 22.6447 221.016 22.6382H221.059C222.344 22.6187 223.445 23.6231 223.995 25.0851Z" fill="black"/>
<path d="M58.4611 60.2251L62.6553 62.8142L60.1147 58.3083C60.8351 57.7491 61.726 57.4399 62.6467 57.4295H62.7125C62.9999 57.4337 63.2872 57.4131 63.5708 57.3681L64.987 58.2442L64.3719 57.1672C65.3752 56.8232 66.2427 56.1812 66.8524 55.3314L69.3901 56.8994L67.8051 54.0564C69.29 52.321 71.2898 51.2664 73.49 51.2664C76.1307 51.2664 78.4796 52.7953 79.9988 55.1724C80.4464 55.8847 81.079 56.4691 81.8326 56.8664C82.5861 57.2637 83.434 57.4599 84.2903 57.4351H84.4333C87.3458 57.4351 89.7062 60.6547 89.7062 64.6277C89.7062 68.6007 87.3458 71.8231 84.4333 71.8231C83.7919 71.8207 83.1606 71.6666 82.5937 71.374C81.6022 70.9042 80.5179 70.6501 79.4158 70.6294C78.3137 70.6087 77.2201 70.8218 76.2108 71.254C75.3556 71.6267 74.4295 71.8194 73.4928 71.8194C72.5561 71.8194 71.63 71.6267 70.7749 71.254C69.7728 70.8307 68.6891 70.6223 67.5972 70.643C66.5053 70.6637 65.4308 70.913 64.4463 71.374C63.8851 71.6588 63.2623 71.809 62.6296 71.812C59.7142 71.812 57.3539 68.5923 57.3539 64.6166C57.3402 63.0854 57.7209 61.5754 58.4611 60.2251Z" fill="#F2F2F2"/>
<path opacity="0.03" d="M66.3438 70.752C67.866 70.4722 69.4392 70.6392 70.8641 71.2318C71.7193 71.6046 72.6454 71.7973 73.5821 71.7973C74.5188 71.7973 75.4449 71.6046 76.3001 71.2318C77.3099 70.7996 78.4039 70.5865 79.5065 70.6072C80.609 70.6279 81.6939 70.882 82.6858 71.3518C83.2517 71.6444 83.8821 71.7986 84.5226 71.801C87.1118 71.801 89.2633 69.2593 89.7125 65.9057C89.1958 65.537 88.7568 65.0747 88.4193 64.5442C86.9001 62.1615 84.5512 60.6382 81.9105 60.6382C79.2698 60.6382 76.9524 62.1504 75.4332 64.5107C74.9811 65.2218 74.3487 65.8072 73.597 66.2104C72.8452 66.6136 71.9996 66.821 71.1417 66.8125H71.0759C68.9988 66.7929 67.2135 68.4056 66.3438 70.752Z" fill="black"/>
</g>
<defs>
<clipPath id="clip0">
<rect width="317" height="204" fill="white"/>
</clipPath>
</defs>
</svg>
