<?xml version="1.0" encoding="utf-8"?>
<!-- Generator: Adobe Illustrator 24.2.0, SVG Export Plug-In . SVG Version: 6.00 Build 0)  -->
<svg version="1.1" xmlns="http://www.w3.org/2000/svg" xmlns:xlink="http://www.w3.org/1999/xlink" x="0px" y="0px"
	 viewBox="0 0 416.7 186.8" style="enable-background:new 0 0 416.7 186.8;" xml:space="preserve">
<style type="text/css">
	.st0{display:none;}
	.st1{display:inline;opacity:0.2;}
	.st2{fill:none;stroke:#1F295A;stroke-miterlimit:10;}
	.st3{fill:#26255D;}
	.st4{fill:#FFFFFF;}
	.st5{fill:#F37A7C;}
	.st6{fill:#D5D8ED;}
	.st7{fill:#1F295A;}
	.st8{fill:none;}
	.st9{fill:#EE343B;}
	.st10{fill:none;stroke:#EE343B;stroke-width:0.2;stroke-miterlimit:10;}
	.st11{opacity:0.2;}
	.st12{fill:none;stroke:#EEBBC2;stroke-miterlimit:10;}
	.st13{fill:none;stroke:#FFFFFF;stroke-width:0.5;stroke-miterlimit:10;}
	.st14{fill:#25265D;stroke:#FFFFFF;stroke-width:0.5;stroke-miterlimit:10;}
	.st15{fill:#EEBBC2;}
	.st16{fill:none;stroke:#26255D;stroke-width:0.5;stroke-miterlimit:10;}
	.st17{fill:#25265D;}
	.st18{fill:none;stroke:#26255D;stroke-miterlimit:10;}
	.st19{fill:#E9ECF7;}
	.st20{fill:#DD5051;}
	.st21{fill:#ED1F24;}
	.st22{fill:none;stroke:#292763;stroke-width:0.2;stroke-miterlimit:10;}
	.st23{fill:#292763;stroke:#E5E5E5;stroke-width:5;stroke-miterlimit:10;}
	.st24{fill:#F37A7C;stroke:#E5E5E5;stroke-width:5;stroke-miterlimit:10;}
	.st25{fill:#EEBBC1;stroke:#E5E5E5;stroke-width:5;stroke-miterlimit:10;}
	.st26{fill:#D5D8ED;stroke:#E5E5E5;stroke-width:5;stroke-miterlimit:10;}
	.st27{fill:#FFFFFF;stroke:#E5E5E5;stroke-width:5;stroke-miterlimit:10;}
	.st28{opacity:0.13;}
</style>
<g id="Layer_2" class="st0">
</g>
<g id="Layer_1">
	<g>
		<g>
			<g>
				<path class="st3" d="M64.3,71.3c6.2,0,11.5,2.3,15.8,6.5c1-1.9,1.6-3.8,5.1-7.6c-0.2-0.7-6.2-4.8-10.2-6.1c-4-1.4-8.2-2-12.5-2
					c-6.2,0-11.7,1.3-16.4,4c-4.7,2.7-8.4,6.4-11,11.2c-2.6,4.8-3.9,10.3-3.9,16.6c0,6.3,1.2,11.8,3.7,16.4c2.5,4.7,6,8.3,10.6,10.8
					c4.6,2.6,10.1,3.8,16.4,3.8c4.5,0,8.7-0.7,12.8-2c4.1-1.4,7.9-3.7,10.4-6.1c-1.9-1.7-4.8-6.8-4.8-6.8c-4.1,4.1-9.7,6.6-15.9,6.6
					c-12.5,0-22.6-10.1-22.6-22.6C41.7,81.4,51.8,71.3,64.3,71.3z"/>
			</g>
			<g>
				<path class="st3" d="M138.8,69.2c-5-4.5-11.6-7.2-18.8-7.2c-5.6,0-10.8,1.6-15.2,4.5c0,0,0,0,0,0c0,0-0.1,0.1-0.1,0.1
					c-2.4,1.5-4.5,3.3-6.4,5.8c-0.1,0.1-0.2,0.3-0.3,0.4c-1.1,1.5-2.1,3.1-3,4.8c-1.4,2.9-2.4,6-3,9.5c-0.4,2.2-0.5,4.4-0.5,6.8
					c0,6.1,1.1,11.5,3.4,16.1c2.3,4.6,5.5,8.2,9.6,10.7c1.4,0.8,2.8,1.5,4.3,2c3.4,1.5,7.2,2.3,11.2,2.3c7.2,0,13.8-2.7,18.8-7.2
					v6.6h10.9V62.6h-10.9V69.2z M134.4,109.2c-3.2,3.7-7.7,5.6-13.5,5.6c-5.9,0-10.5-1.8-13.7-5.5c-3.2-3.6-4.9-8.8-4.9-15.6
					c0-6.8,1.6-12.2,4.9-16c3.2-3.8,7.8-5.8,13.6-5.8c5.9,0,10.5,1.9,13.7,5.6c3.2,3.7,4.8,9,4.8,16
					C139.2,100.3,137.6,105.5,134.4,109.2z"/>
			</g>
			<g>
				<path class="st3" d="M205.7,69.2c-5-4.5-11.6-7.2-18.8-7.2c-5.6,0-10.8,1.6-15.2,4.5c0,0,0,0,0,0c0,0-0.1,0.1-0.1,0.1
					c-2.4,1.5-4.5,3.3-6.4,5.8c-0.1,0.1-0.2,0.3-0.3,0.4c-1.1,1.5-2.1,3.1-3,4.8c-1.4,2.9-2.4,6-3,9.5c-0.4,2.2-0.5,4.4-0.5,6.8
					c0,6.1,1.1,11.5,3.4,16.1c2.3,4.6,5.5,8.2,9.6,10.7c1.4,0.8,2.8,1.5,4.3,2c3.4,1.5,7.2,2.3,11.2,2.3c7.2,0,13.8-2.7,18.8-7.2
					v6.6h10.9V62.6h-10.9V69.2z M201.3,109.2c-3.2,3.7-7.7,5.6-13.5,5.6c-5.9,0-10.5-1.8-13.7-5.5c-3.2-3.6-4.9-8.8-4.9-15.6
					c0-6.8,1.6-12.2,4.9-16c3.2-3.8,7.8-5.8,13.6-5.8c5.9,0,10.5,1.9,13.7,5.6c3.2,3.7,4.8,9,4.8,16
					C206.1,100.3,204.5,105.5,201.3,109.2z"/>
			</g>
			<g>
				<path class="st3" d="M374.6,62.6v6.5c-5-4.5-11.6-7.2-18.8-7.2c-5.6,0-10.8,1.6-15.2,4.5c0,0,0,0,0,0c0,0-0.1,0.1-0.1,0.1
					c-2.4,1.5-4.5,3.3-6.4,5.8c-0.1,0.1-0.2,0.3-0.3,0.4c-1.1,1.5-2.1,3.1-3,4.8c-1.4,2.9-2.4,6-3,9.5c-0.4,2.2-0.5,4.4-0.5,6.8
					c0,6.1,1.1,11.5,3.4,16.1c2.3,4.6,5.5,8.2,9.6,10.7c1.4,0.8,2.8,1.5,4.3,2c3.4,1.5,7.2,2.3,11.2,2.3c7.2,0,13.8-2.7,18.8-7.2
					v6.6h10.9V62.6H374.6z M370.3,109.2c-3.2,3.7-7.7,5.6-13.5,5.6c-5.9,0-10.5-1.8-13.7-5.5c-3.2-3.6-4.9-8.8-4.9-15.6
					c0-6.8,1.6-12.2,4.9-16c3.2-3.8,7.8-5.8,13.6-5.8c5.9,0,10.5,1.9,13.7,5.6c3.2,3.7,4.8,9,4.8,16
					C375,100.3,373.4,105.5,370.3,109.2z"/>
			</g>
			<g>
				<path class="st3" d="M236.7,69.2v-6.5H227v17.4v44.1h10.8V91.8c0-5,1.3-11.3,4.1-14.3c2.7-3,6.7-4.5,11.9-4.5
					c2.8,0,5.4,0.5,8,1.6l0.2-11.6c-1.7-0.6-3.7-1-6.1-1C248.6,62.1,240.7,65.1,236.7,69.2z"/>
			</g>
			<path class="st3" d="M288.5,139.6c5.3-3.7,9.5-7,12.4-13.8l25-62.7h-13.6l-16,45.1l-15.7-45.1h-13.2l21.7,56.9l-0.1,0.2
				c0,0-1.1,2.6-1.8,4.2c-0.1,0.2-0.2,0.4-0.3,0.6l-0.1,0.1c-1.4,2.8-3.1,3.9-5,5.2c-0.4,0.3-0.9,0.6-1.4,0.9
				c-2.8,1.9-9.3,4.1-14.4,5.3l3.7,10.3C277.6,144.9,285.4,141.7,288.5,139.6z"/>
		</g>
	</g>
</g>
<g id="Layer_3">
</g>
<g id="Layer_4">
</g>
</svg>
